# Blender v2.79 (sub 0) OBJ File: ''
# www.blender.org
mtllib crack_restart_keyway_485.mtl
o crack_restart_keyway_485
v 0.073501 -0.113118 -0.472461
v 0.072990 -0.113325 -0.459453
v 0.084823 -0.121288 -0.472461
v 0.147218 -0.162043 -0.087639
v 0.127495 -0.150676 -0.086872
v 0.150758 -0.164600 -0.087270
v 0.143345 -0.159224 -0.088136
v 0.131068 -0.149873 -0.089874
v 0.135322 -0.153106 -0.089223
v 0.126540 -0.147825 -0.091832
v 0.152182 -0.169044 -0.080798
v 0.154210 -0.167189 -0.086931
v 0.139543 -0.156350 -0.088652
v 0.095934 -0.129368 -0.472461
v 0.120406 -0.147382 -0.103551
v 0.120406 -0.147382 -0.118922
v 0.106577 -0.141706 -0.120725
v 0.120866 -0.146923 -0.098614
v 0.120406 -0.147382 -0.472461
v 0.108194 -0.138356 -0.472461
v 0.120406 -0.147382 -0.457089
v 0.073499 -0.113119 -0.238326
v 0.120406 -0.147382 -0.241892
v 0.073118 -0.113244 -0.251334
v 0.073910 -0.112746 -0.225319
v 0.074098 -0.112695 -0.212311
v 0.072675 -0.113704 -0.446446
v 0.071870 -0.114028 -0.433438
v 0.120406 -0.147382 -0.426347
v 0.071585 -0.114440 -0.342386
v 0.095058 -0.132980 -0.288926
v 0.070584 -0.114837 -0.355393
v 0.071507 -0.114256 -0.329378
v 0.071453 -0.114513 -0.420431
v 0.070776 -0.114887 -0.368401
v 0.070125 -0.115125 -0.381408
v 0.073041 -0.113444 -0.264341
v 0.104157 -0.140701 -0.280923
v 0.072678 -0.113520 -0.277349
v 0.076531 -0.111099 -0.121259
v 0.120406 -0.147382 -0.195778
v 0.075537 -0.111673 -0.134267
v 0.095403 -0.135782 -0.055688
v 0.077193 -0.110498 -0.108252
v 0.076861 -0.110843 -0.095798
v 0.071631 -0.114414 -0.316371
v 0.071862 -0.114033 -0.303364
v 0.074058 -0.112653 -0.199304
v 0.146603 -0.173882 -0.061440
v 0.148184 -0.172553 -0.068125
v 0.150158 -0.170839 -0.074873
v 0.122213 -0.145575 -0.094013
v 0.115967 -0.144847 -0.090502
v 0.120406 -0.147382 -0.134293
v 0.120406 -0.147382 -0.149664
v 0.120406 -0.147382 -0.165036
v 0.120406 -0.147382 -0.180407
v 0.120406 -0.147382 -0.257263
v 0.120406 -0.147382 -0.272634
v 0.120406 -0.147382 -0.288006
v 0.120406 -0.147382 -0.318748
v 0.120406 -0.147382 -0.303377
v 0.120406 -0.147382 -0.334119
v 0.120406 -0.147382 -0.349490
v 0.120406 -0.147382 -0.364862
v 0.120406 -0.147382 -0.380233
v 0.120406 -0.147382 -0.395604
v 0.065657 -0.114460 -0.001444
v 0.144138 -0.175668 -0.046332
v 0.111580 -0.143927 -0.082034
v 0.120406 -0.147382 -0.410975
v 0.120406 -0.147382 -0.226521
v 0.120406 -0.147382 -0.211149
v 0.074458 -0.112467 -0.184867
v 0.074658 -0.112277 -0.173289
v 0.074374 -0.112604 -0.191565
v 0.074840 -0.112293 -0.166512
v 0.074871 -0.112146 -0.160281
v 0.074974 -0.112203 -0.153774
v 0.120406 -0.147382 -0.441718
v 0.103536 -0.134936 -0.472461
v 0.072395 -0.113903 -0.290356
v 0.070749 -0.114902 -0.394416
v 0.070930 -0.114619 -0.407423
v 0.075317 -0.111974 -0.141481
v 0.074960 -0.112087 -0.147274
v 0.130734 -0.184985 0.063754
v 0.130918 -0.184961 0.056556
v 0.123603 -0.178859 0.062020
v 0.130918 -0.184961 0.056556
v 0.065968 -0.115472 0.015146
v 0.080534 -0.133810 0.041166
v 0.066767 -0.116098 0.029583
v 0.069564 -0.113813 -0.039716
v 0.131688 -0.184572 0.043861
v 0.134001 -0.182896 0.022828
v 0.101311 -0.157011 0.054354
v 0.074157 -0.111903 -0.077118
v 0.138021 -0.179662 -0.007575
v 0.065968 -0.115472 0.015146
v 0.131688 -0.184572 0.043861
v 0.073501 -0.113118 -0.472461
v 0.084823 -0.121288 -0.472461
v 0.072990 -0.113325 -0.459453
v 0.147218 -0.162043 -0.087639
v 0.150758 -0.164600 -0.087270
v 0.127495 -0.150676 -0.086872
v 0.143345 -0.159224 -0.088136
v 0.131068 -0.149873 -0.089874
v 0.135322 -0.153106 -0.089223
v 0.126540 -0.147825 -0.091832
v 0.154210 -0.167189 -0.086931
v 0.152182 -0.169044 -0.080798
v 0.139543 -0.156350 -0.088652
v 0.095934 -0.129368 -0.472461
v 0.120406 -0.147382 -0.103551
v 0.106577 -0.141706 -0.120725
v 0.120406 -0.147382 -0.118922
v 0.120866 -0.146923 -0.098614
v 0.120406 -0.147382 -0.472461
v 0.120406 -0.147382 -0.457089
v 0.108194 -0.138356 -0.472461
v 0.073499 -0.113119 -0.238326
v 0.073118 -0.113244 -0.251334
v 0.120406 -0.147382 -0.241892
v 0.074098 -0.112695 -0.212311
v 0.073910 -0.112746 -0.225319
v 0.072675 -0.113704 -0.446446
v 0.120406 -0.147382 -0.426347
v 0.071870 -0.114028 -0.433438
v 0.071585 -0.114440 -0.342386
v 0.070584 -0.114837 -0.355393
v 0.095058 -0.132980 -0.288926
v 0.071507 -0.114256 -0.329378
v 0.071453 -0.114513 -0.420431
v 0.070776 -0.114887 -0.368401
v 0.070125 -0.115125 -0.381408
v 0.073041 -0.113444 -0.264341
v 0.104157 -0.140701 -0.280923
v 0.072678 -0.113520 -0.277349
v 0.076531 -0.111099 -0.121259
v 0.075537 -0.111673 -0.134267
v 0.120406 -0.147382 -0.195778
v 0.095403 -0.135782 -0.055688
v 0.077193 -0.110498 -0.108252
v 0.076861 -0.110843 -0.095798
v 0.071631 -0.114414 -0.316371
v 0.071862 -0.114033 -0.303364
v 0.074058 -0.112653 -0.199304
v 0.146603 -0.173882 -0.061440
v 0.148184 -0.172553 -0.068125
v 0.150158 -0.170839 -0.074873
v 0.122213 -0.145575 -0.094013
v 0.115967 -0.144847 -0.090502
v 0.120406 -0.147382 -0.134293
v 0.120406 -0.147382 -0.149664
v 0.120406 -0.147382 -0.165036
v 0.120406 -0.147382 -0.180407
v 0.120406 -0.147382 -0.257263
v 0.120406 -0.147382 -0.272634
v 0.120406 -0.147382 -0.288006
v 0.120406 -0.147382 -0.318748
v 0.120406 -0.147382 -0.303377
v 0.120406 -0.147382 -0.334119
v 0.120406 -0.147382 -0.349490
v 0.120406 -0.147382 -0.364862
v 0.120406 -0.147382 -0.380233
v 0.120406 -0.147382 -0.395604
v 0.144138 -0.175668 -0.046332
v 0.065657 -0.114460 -0.001444
v 0.111580 -0.143927 -0.082034
v 0.120406 -0.147382 -0.410975
v 0.120406 -0.147382 -0.226521
v 0.120406 -0.147382 -0.211149
v 0.074658 -0.112277 -0.173289
v 0.074458 -0.112467 -0.184867
v 0.074374 -0.112604 -0.191565
v 0.074871 -0.112146 -0.160281
v 0.074840 -0.112293 -0.166512
v 0.074974 -0.112203 -0.153774
v 0.120406 -0.147382 -0.441718
v 0.103536 -0.134936 -0.472461
v 0.072395 -0.113903 -0.290356
v 0.070749 -0.114902 -0.394416
v 0.070930 -0.114619 -0.407423
v 0.075317 -0.111974 -0.141481
v 0.074960 -0.112087 -0.147274
v 0.069564 -0.113813 -0.039716
v 0.134001 -0.182896 0.022828
v 0.074157 -0.111903 -0.077118
v 0.138021 -0.179662 -0.007575
vn 0.5848 0.8104 0.0359
vn 0.5865 0.8089 0.0397
vn 0.5854 0.8099 0.0367
vn 0.3962 0.6433 0.6552
vn 0.4128 0.6749 0.6116
vn 0.3965 0.6519 0.6463
vn 0.1925 0.8663 0.4609
vn 0.5242 0.7514 0.4006
vn 0.4003 0.6462 0.6497
vn 0.5869 0.8088 0.0380
vn 0.3797 0.9251 0.0000
vn 0.5070 0.8526 -0.1265
vn 0.5944 0.8042 0.0000
vn 0.5939 0.8046 0.0005
vn 0.5916 0.8062 0.0036
vn 0.5884 0.8082 -0.0250
vn 0.8218 -0.5697 -0.0096
vn 0.5883 0.8082 -0.0267
vn 0.5600 0.8266 0.0552
vn 0.5607 0.8265 0.0490
vn 0.5604 0.8266 0.0520
vn 0.7194 0.6904 -0.0764
vn 0.6299 0.7767 -0.0072
vn 0.5608 0.8265 0.0488
vn 0.5858 0.8105 0.0055
vn 0.6928 0.7196 -0.0478
vn 0.6521 0.7578 -0.0219
vn 0.6542 0.7562 -0.0155
vn 0.6537 0.7565 -0.0170
vn 0.6505 0.7587 -0.0361
vn 0.5524 0.8299 -0.0788
vn 0.7002 0.7109 0.0661
vn 0.8703 0.4879 -0.0668
vn 0.7716 0.6350 0.0382
vn 0.6185 0.7858 0.0036
vn 0.6448 0.7636 -0.0338
vn 0.6448 0.7636 -0.0339
vn 0.6448 0.7636 -0.0340
vn 0.5996 0.8003 -0.0005
vn 0.5997 0.8002 -0.0007
vn 0.5997 0.8003 -0.0007
vn 0.8668 0.4084 0.2862
vn 0.6663 0.6526 0.3607
vn 0.5158 0.7550 0.4049
vn 0.7703 0.5148 -0.3763
vn 0.2943 0.8939 0.3382
vn 0.1471 0.9875 0.0569
vn 0.3803 0.9249 0.0000
vn 0.4940 0.8695 0.0000
vn 0.3964 0.6329 0.6650
vn 0.6284 0.7769 0.0392
vn 0.5880 0.7738 0.2356
vn 0.4563 0.8066 0.3758
vn 0.2754 0.9606 0.0383
vn 0.8315 0.3979 0.3876
vn 0.4667 0.8392 0.2790
vn 0.5574 0.8302 0.0000
vn 0.3746 0.9269 -0.0201
vn 0.5995 0.8004 0.0000
vn 0.6028 0.7977 -0.0174
vn 0.6013 0.7987 -0.0237
vn 0.6016 0.7985 -0.0225
vn 0.6013 0.7987 -0.0239
vn 0.6008 0.7988 -0.0296
vn 0.5509 0.8343 0.0183
vn 0.6039 0.7969 -0.0154
vn 0.6011 0.7988 -0.0218
vn 0.6047 0.7964 -0.0124
vn 0.6107 0.7919 -0.0027
vn 0.6097 0.7927 -0.0044
vn 0.5869 0.8088 0.0378
vn 0.5765 0.8171 0.0000
vn 0.4829 0.7965 0.3639
vn 0.5916 0.8062 0.0035
vn 0.5909 0.8067 0.0047
vn 0.5806 0.8137 0.0292
vn 0.3755 0.9252 -0.0555
vn 0.6437 0.7652 0.0064
vn 0.4842 0.8741 0.0382
vn 0.4588 0.8882 0.0257
vn 0.5190 0.8544 0.0268
vn 0.7653 -0.6157 0.1876
vn 0.6507 0.7584 -0.0365
vn 0.5777 0.8146 -0.0516
vn 0.5776 0.8147 -0.0516
vn 0.5777 0.8146 -0.0515
vn 0.6047 0.7964 -0.0129
vn 0.6488 0.7607 0.0191
vn -0.6488 -0.7607 -0.0191
vn 0.7653 0.6432 0.0249
vn 0.7950 0.6064 -0.0177
vn 0.6743 0.7340 0.0812
vn 0.6506 0.7508 0.1138
vn 0.6946 0.7070 0.1327
vn 0.6844 0.7251 0.0766
vn 0.6923 0.7057 0.1507
vn 0.6747 0.7249 0.1388
vn 0.6853 0.7182 0.1208
vn 0.6972 0.6973 0.1664
vn 0.7027 0.6878 0.1818
vn 0.6435 0.7409 0.1926
vn 0.6449 0.7635 -0.0341
vn 0.5963 0.7949 -0.1122
vn -0.7950 -0.6064 0.0177
vn 0.6667 0.7426 0.0632
vn -0.6667 -0.7426 -0.0632
vn -0.6844 -0.7251 -0.0766
vn -0.5848 -0.8104 -0.0359
vn -0.5854 -0.8099 -0.0367
vn -0.5872 -0.8085 -0.0392
vn -0.3962 -0.6433 -0.6552
vn -0.4128 -0.6749 -0.6116
vn -0.3965 -0.6519 -0.6463
vn -0.1925 -0.8663 -0.4609
vn -0.5177 -0.7542 -0.4040
vn -0.5242 -0.7514 -0.4006
vn -0.5224 -0.7522 -0.4016
vn -0.4003 -0.6462 -0.6497
vn -0.5877 -0.8081 -0.0399
vn -0.3797 -0.9251 0.0000
vn -0.5070 -0.8526 0.1265
vn -0.5944 -0.8042 0.0000
vn -0.5884 -0.8082 0.0259
vn -0.5884 -0.8082 0.0250
vn -0.5883 -0.8082 0.0253
vn -0.8218 0.5697 0.0096
vn -0.5883 -0.8082 0.0267
vn -0.5600 -0.8266 -0.0552
vn -0.5604 -0.8266 -0.0520
vn -0.5607 -0.8265 -0.0490
vn -0.7194 -0.6904 0.0764
vn -0.6299 -0.7767 0.0072
vn -0.5608 -0.8265 -0.0488
vn -0.5858 -0.8105 -0.0055
vn -0.6928 -0.7196 0.0478
vn -0.6542 -0.7562 0.0155
vn -0.6519 -0.7580 0.0226
vn -0.6505 -0.7587 0.0361
vn -0.6513 -0.7585 0.0227
vn -0.5524 -0.8299 0.0788
vn -0.7002 -0.7109 -0.0661
vn -0.8703 -0.4879 0.0668
vn -0.7716 -0.6350 -0.0382
vn -0.6185 -0.7858 -0.0036
vn -0.6448 -0.7636 0.0338
vn -0.6448 -0.7636 0.0340
vn -0.6448 -0.7636 0.0339
vn -0.5997 -0.8002 0.0007
vn -0.8668 -0.4084 -0.2862
vn -0.6663 -0.6526 -0.3607
vn -0.5158 -0.7550 -0.4049
vn -0.7703 -0.5148 0.3763
vn -0.2943 -0.8939 -0.3382
vn -0.1471 -0.9875 -0.0569
vn -0.3803 -0.9249 0.0000
vn -0.4940 -0.8695 -0.0000
vn -0.3964 -0.6329 -0.6650
vn -0.6284 -0.7769 -0.0392
vn -0.5880 -0.7738 -0.2356
vn -0.4563 -0.8066 -0.3758
vn -0.2754 -0.9606 -0.0383
vn -0.8315 -0.3979 -0.3876
vn -0.4667 -0.8392 -0.2790
vn -0.5574 -0.8302 0.0000
vn -0.3746 -0.9269 0.0201
vn -0.5995 -0.8004 0.0000
vn -0.6010 -0.7988 0.0283
vn -0.6013 -0.7987 0.0235
vn -0.6013 -0.7987 0.0237
vn -0.6013 -0.7985 0.0294
vn -0.6008 -0.7988 0.0296
vn -0.5509 -0.8343 -0.0183
vn -0.6013 -0.7987 0.0215
vn -0.6011 -0.7988 0.0218
vn -0.6039 -0.7969 0.0153
vn -0.6043 -0.7967 0.0143
vn -0.6047 -0.7964 0.0124
vn -0.6097 -0.7926 0.0043
vn -0.6107 -0.7919 0.0027
vn -0.5810 -0.8133 -0.0301
vn -0.5869 -0.8088 -0.0378
vn -0.5853 -0.8100 -0.0357
vn -0.5765 -0.8171 0.0000
vn -0.4829 -0.7965 -0.3639
vn -0.5913 -0.8064 -0.0039
vn -0.5909 -0.8067 -0.0047
vn -0.5916 -0.8062 -0.0035
vn -0.5918 -0.8061 -0.0031
vn -0.5806 -0.8137 -0.0292
vn -0.3755 -0.9252 0.0555
vn -0.6437 -0.7652 -0.0064
vn -0.4842 -0.8741 -0.0382
vn -0.4588 -0.8882 -0.0257
vn -0.5190 -0.8544 -0.0268
vn -0.7653 0.6157 -0.1876
vn -0.6507 -0.7584 0.0365
vn -0.5777 -0.8146 0.0516
vn -0.5776 -0.8147 0.0516
vn -0.5777 -0.8146 0.0515
vn -0.6047 -0.7964 0.0129
vn -0.7653 -0.6432 -0.0249
vn -0.6743 -0.7340 -0.0812
vn -0.6506 -0.7508 -0.1138
vn -0.6946 -0.7070 -0.1327
vn -0.6923 -0.7057 -0.1507
vn -0.6747 -0.7249 -0.1388
vn -0.6853 -0.7182 -0.1208
vn -0.6972 -0.6973 -0.1664
vn -0.7027 -0.6878 -0.1818
vn -0.6435 -0.7409 -0.1926
vn -0.6449 -0.7635 0.0341
vn -0.5963 -0.7949 0.1122
usemtl None.086
s 1
f 1//1 2//2 3//3
f 4//4 5//4 6//4
f 4//5 7//5 5//5
f 8//6 5//6 9//6
f 8//7 10//7 5//7
f 6//8 11//8 12//8
f 7//9 13//9 5//9
f 3//3 2//2 14//10
f 15//11 16//11 17//11
f 15//12 17//12 18//12
f 19//13 20//14 21//15
f 22//16 23//16 24//16
f 22//17 25//17 26//17
f 22//18 26//18 23//18
f 27//19 28//20 29//21
f 30//22 31//22 32//22
f 30//23 33//23 31//23
f 34//24 29//21 28//20
f 35//25 32//25 31//25
f 35//26 31//26 36//26
f 37//27 24//28 38//29
f 37//27 38//29 39//30
f 40//31 41//31 42//31
f 40//32 43//32 41//32
f 40//33 44//33 43//33
f 45//34 43//34 44//34
f 46//35 31//35 33//35
f 46//36 47//37 31//38
f 26//39 48//40 41//41
f 49//42 50//42 6//42
f 50//43 51//43 6//43
f 11//44 6//44 51//44
f 18//45 17//45 52//45
f 52//46 53//46 10//46
f 52//47 17//47 53//47
f 16//11 54//11 17//11
f 54//11 55//11 17//11
f 55//11 56//11 17//11
f 56//11 57//11 17//11
f 57//11 41//11 17//11
f 58//48 59//48 38//48
f 58//48 38//48 23//48
f 59//48 60//48 38//48
f 61//49 31//49 62//49
f 61//49 63//49 31//49
f 63//49 64//49 31//49
f 64//49 65//49 31//49
f 65//49 66//49 31//49
f 66//49 67//49 31//49
f 13//50 9//50 5//50
f 43//51 68//51 69//51
f 43//52 69//52 5//52
f 5//53 10//53 70//53
f 10//54 53//54 70//54
f 70//55 53//55 43//55
f 60//56 31//56 38//56
f 60//49 62//49 31//49
f 34//57 71//57 29//57
f 71//57 34//57 67//57
f 43//58 53//58 17//58
f 72//59 23//59 26//39
f 72//59 26//39 73//59
f 41//60 74//61 75//62
f 41//60 76//63 74//61
f 41//64 48//64 76//64
f 67//65 34//65 31//65
f 41//60 77//66 78//67
f 41//60 75//62 77//66
f 41//68 78//69 79//70
f 27//71 14//10 2//2
f 80//72 21//72 27//72
f 80//72 27//72 29//72
f 6//73 5//73 49//73
f 21//15 81//74 14//75
f 21//15 20//14 81//74
f 21//76 14//76 27//76
f 5//77 70//77 43//77
f 31//78 82//78 38//78
f 83//79 36//79 31//79
f 83//80 34//80 84//80
f 83//81 31//81 34//81
f 43//82 17//82 41//82
f 82//83 39//30 38//29
f 41//84 85//85 42//85
f 41//84 86//86 85//85
f 41//68 79//70 86//87
f 87//88 88//88 89//88
f 87//89 89//89 90//89
f 91//90 92//90 68//90
f 91//91 93//91 92//91
f 68//92 43//92 94//92
f 68//93 92//93 69//93
f 92//94 95//94 96//94
f 95//95 97//95 89//95
f 92//96 97//96 95//96
f 98//97 43//97 45//97
f 94//98 43//98 98//98
f 92//99 96//99 99//99
f 92//100 99//100 69//100
f 49//101 5//101 69//101
f 47//37 82//102 31//38
f 73//59 26//39 41//41
f 38//103 24//103 23//103
f 92//104 93//104 100//104
f 89//105 88//105 95//105
f 89//106 101//106 90//106
f 89//107 97//107 101//107
f 102//108 103//109 104//110
f 105//111 106//111 107//111
f 105//112 107//112 108//112
f 109//113 110//113 107//113
f 109//114 107//114 111//114
f 106//115 112//116 113//117
f 108//118 107//118 114//118
f 103//109 115//119 104//110
f 116//120 117//120 118//120
f 116//121 119//121 117//121
f 120//122 121//122 122//122
f 123//123 124//124 125//125
f 123//126 126//126 127//126
f 123//123 125//125 126//127
f 128//128 129//129 130//130
f 131//131 132//131 133//131
f 131//132 133//132 134//132
f 135//133 130//130 129//129
f 136//134 133//134 132//134
f 136//135 137//135 133//135
f 138//136 139//136 124//136
f 138//137 140//138 139//139
f 141//140 142//140 143//140
f 141//141 143//141 144//141
f 141//142 144//142 145//142
f 146//143 145//143 144//143
f 147//144 134//144 133//144
f 147//145 133//146 148//147
f 126//148 143//148 149//148
f 150//149 106//149 151//149
f 151//150 106//150 152//150
f 113//117 152//151 106//115
f 119//152 153//152 117//152
f 153//153 111//153 154//153
f 153//154 154//154 117//154
f 118//120 117//120 155//120
f 155//120 117//120 156//120
f 156//120 117//120 157//120
f 157//120 117//120 158//120
f 158//120 117//120 143//120
f 159//155 139//155 160//155
f 159//155 125//155 139//155
f 160//155 139//155 161//155
f 162//156 163//156 133//156
f 162//156 133//156 164//156
f 164//156 133//156 165//156
f 165//156 133//156 166//156
f 166//156 133//156 167//156
f 167//156 133//156 168//156
f 114//157 107//157 110//157
f 144//158 169//158 170//158
f 144//159 107//159 169//159
f 107//160 171//160 111//160
f 111//161 171//161 154//161
f 171//162 144//162 154//162
f 161//163 139//163 133//163
f 161//156 133//156 163//156
f 135//164 129//164 172//164
f 172//164 168//164 135//164
f 144//165 117//165 154//165
f 173//166 126//166 125//166
f 173//166 174//166 126//166
f 143//167 175//168 176//169
f 143//167 176//169 177//170
f 143//167 177//170 149//171
f 168//172 133//172 135//172
f 143//173 178//174 179//175
f 143//173 179//175 175//176
f 143//177 180//178 178//179
f 128//180 104//181 115//182
f 181//183 128//183 121//183
f 181//183 129//183 128//183
f 106//184 150//184 107//184
f 121//185 115//186 182//187
f 121//185 182//187 122//188
f 121//189 128//180 115//182
f 107//190 144//190 171//190
f 133//191 139//191 183//191
f 184//192 133//192 137//192
f 184//193 185//193 135//193
f 184//194 135//194 133//194
f 144//195 143//195 117//195
f 183//196 139//139 140//138
f 143//197 142//198 186//198
f 143//197 186//198 187//199
f 143//177 187//200 180//178
f 100//201 170//201 92//201
f 170//202 188//202 144//202
f 170//203 169//203 92//203
f 92//204 189//204 101//204
f 92//205 101//205 97//205
f 190//206 146//206 144//206
f 188//207 190//207 144//207
f 92//208 191//208 189//208
f 92//209 169//209 191//209
f 150//210 169//210 107//210
f 148//147 133//146 183//211
f 174//166 143//166 126//166
f 139//212 125//212 124//212
