# Blender v2.79 (sub 0) OBJ File: ''
# www.blender.org
mtllib crack_restart_keyway_355.mtl
o crack_restart_keyway_355
v 0.147223 -0.162041 -0.087635
v 0.138548 -0.163292 -0.075710
v 0.143316 -0.159241 -0.088164
v 0.152226 -0.169004 -0.080773
v 0.150815 -0.164548 -0.087219
v 0.131068 -0.149873 -0.089874
v 0.135297 -0.153120 -0.089244
v 0.118713 -0.145678 -0.090739
v 0.126679 -0.147686 -0.091638
v 0.139528 -0.156359 -0.088664
v 0.152906 -0.168384 -0.084066
v 0.154210 -0.167189 -0.086931
v 0.122213 -0.145575 -0.094013
v 0.120406 -0.147382 -0.103551
v 0.114564 -0.144590 -0.094802
v 0.120406 -0.147382 -0.118922
v 0.120866 -0.146923 -0.098614
v 0.120406 -0.147382 -0.472461
v 0.120406 -0.147382 -0.457089
v 0.108493 -0.138118 -0.472461
v 0.072537 -0.113802 -0.290356
v 0.071924 -0.113994 -0.303364
v 0.120406 -0.147382 -0.318748
v 0.072645 -0.113725 -0.446446
v 0.071374 -0.114557 -0.420431
v 0.071791 -0.114078 -0.433438
v 0.073249 -0.113266 -0.464866
v 0.087915 -0.123176 -0.472461
v 0.071351 -0.114569 -0.342386
v 0.070662 -0.114787 -0.355393
v 0.104512 -0.139439 -0.370885
v 0.071290 -0.114393 -0.329378
v 0.072903 -0.113542 -0.264341
v 0.104121 -0.140761 -0.280913
v 0.073129 -0.113237 -0.251334
v 0.072687 -0.113515 -0.277349
v 0.071607 -0.114428 -0.316371
v 0.106541 -0.141768 -0.120727
v 0.120406 -0.147382 -0.134293
v 0.120406 -0.147382 -0.149664
v 0.120406 -0.147382 -0.165036
v 0.120406 -0.147382 -0.180407
v 0.120406 -0.147382 -0.195778
v 0.120406 -0.147382 -0.211149
v 0.120406 -0.147382 -0.226521
v 0.120406 -0.147382 -0.241892
v 0.120406 -0.147382 -0.257263
v 0.120406 -0.147382 -0.272634
v 0.120406 -0.147382 -0.288006
v 0.120406 -0.147382 -0.303377
v 0.120406 -0.147382 -0.349490
v 0.120406 -0.147382 -0.364862
v 0.120406 -0.147382 -0.334119
v 0.120406 -0.147382 -0.380233
v 0.120406 -0.147382 -0.395604
v 0.120406 -0.147382 -0.410975
v 0.070778 -0.114886 -0.368401
v 0.090632 -0.132125 -0.376755
v 0.087744 -0.119716 -0.089710
v 0.078436 -0.109747 -0.101593
v 0.082125 -0.118331 -0.125896
v 0.092974 -0.125089 -0.085562
v 0.086410 -0.118216 -0.090704
v 0.109320 -0.141392 -0.089212
v 0.104479 -0.136359 -0.079679
v 0.101671 -0.133539 -0.080875
v 0.106868 -0.138671 -0.078577
v 0.120406 -0.147382 -0.426347
v 0.070897 -0.114640 -0.407423
v 0.070757 -0.114898 -0.394416
v 0.120406 -0.147382 -0.441718
v 0.145160 -0.167181 -0.076697
v 0.146999 -0.168128 -0.076873
v 0.152226 -0.169004 -0.080773
v 0.103403 -0.134373 -0.472461
v 0.074750 -0.112219 -0.173289
v 0.134423 -0.160678 -0.075550
v 0.132237 -0.159427 -0.075382
v 0.139528 -0.156359 -0.088664
v 0.136591 -0.162033 -0.075623
v 0.076536 -0.111109 -0.120587
v 0.077000 -0.110766 -0.114755
v 0.075491 -0.111706 -0.134267
v 0.075303 -0.111984 -0.141452
v 0.075017 -0.112051 -0.147274
v 0.076219 -0.111371 -0.125188
v 0.125743 -0.154872 -0.075637
v 0.124066 -0.153669 -0.075749
v 0.118713 -0.145678 -0.090739
v 0.128024 -0.156433 -0.075562
v 0.070422 -0.114938 -0.381408
v 0.077675 -0.110156 -0.108252
v 0.083571 -0.114917 -0.092979
v 0.081519 -0.112546 -0.094683
v 0.078853 -0.109486 -0.096915
v 0.112280 -0.143810 -0.077018
v 0.109458 -0.141126 -0.077385
v 0.114417 -0.145910 -0.076753
v 0.117448 -0.148470 -0.076152
v 0.109320 -0.141392 -0.089212
v 0.120109 -0.150788 -0.075759
v 0.122818 -0.152884 -0.075597
v 0.130157 -0.157955 -0.075444
v 0.151207 -0.169911 -0.077816
v 0.148300 -0.168860 -0.077027
v 0.150775 -0.170294 -0.076560
v 0.074195 -0.112724 -0.217209
v 0.074243 -0.112592 -0.212311
v 0.073893 -0.112757 -0.225319
v 0.075065 -0.112142 -0.153587
v 0.074973 -0.112074 -0.160281
v 0.073799 -0.112816 -0.199304
v 0.074167 -0.112742 -0.207471
v 0.073746 -0.113024 -0.234356
v 0.073536 -0.113093 -0.472461
v 0.074952 -0.112218 -0.166742
v 0.074541 -0.112493 -0.180685
v 0.074274 -0.112570 -0.186296
v 0.074185 -0.112730 -0.191174
v 0.151207 -0.169911 -0.077816
v 0.078436 -0.109747 -0.101593
v 0.147223 -0.162041 -0.087635
v 0.143316 -0.159241 -0.088164
v 0.150815 -0.164548 -0.087219
v 0.131068 -0.149873 -0.089874
v 0.135297 -0.153120 -0.089244
v 0.126679 -0.147686 -0.091638
v 0.152906 -0.168384 -0.084066
v 0.154210 -0.167189 -0.086931
v 0.122213 -0.145575 -0.094013
v 0.120406 -0.147382 -0.103551
v 0.120406 -0.147382 -0.118922
v 0.114564 -0.144590 -0.094802
v 0.120866 -0.146923 -0.098614
v 0.120406 -0.147382 -0.472461
v 0.108493 -0.138118 -0.472461
v 0.120406 -0.147382 -0.457089
v 0.072537 -0.113802 -0.290356
v 0.120406 -0.147382 -0.318748
v 0.071924 -0.113994 -0.303364
v 0.072645 -0.113725 -0.446446
v 0.071791 -0.114078 -0.433438
v 0.071374 -0.114557 -0.420431
v 0.087915 -0.123176 -0.472461
v 0.073249 -0.113266 -0.464866
v 0.071351 -0.114569 -0.342386
v 0.104512 -0.139439 -0.370885
v 0.070662 -0.114787 -0.355393
v 0.071290 -0.114393 -0.329378
v 0.072903 -0.113542 -0.264341
v 0.073129 -0.113237 -0.251334
v 0.104121 -0.140761 -0.280913
v 0.072687 -0.113515 -0.277349
v 0.071607 -0.114428 -0.316371
v 0.120406 -0.147382 -0.134293
v 0.106541 -0.141768 -0.120727
v 0.120406 -0.147382 -0.149664
v 0.120406 -0.147382 -0.165036
v 0.120406 -0.147382 -0.180407
v 0.120406 -0.147382 -0.195778
v 0.120406 -0.147382 -0.211149
v 0.120406 -0.147382 -0.226521
v 0.120406 -0.147382 -0.241892
v 0.120406 -0.147382 -0.257263
v 0.120406 -0.147382 -0.272634
v 0.120406 -0.147382 -0.288006
v 0.120406 -0.147382 -0.303377
v 0.120406 -0.147382 -0.349490
v 0.120406 -0.147382 -0.364862
v 0.120406 -0.147382 -0.334119
v 0.120406 -0.147382 -0.380233
v 0.120406 -0.147382 -0.395604
v 0.120406 -0.147382 -0.410975
v 0.070778 -0.114886 -0.368401
v 0.090632 -0.132125 -0.376755
v 0.082125 -0.118331 -0.125896
v 0.120406 -0.147382 -0.426347
v 0.070897 -0.114640 -0.407423
v 0.070757 -0.114898 -0.394416
v 0.120406 -0.147382 -0.441718
v 0.103403 -0.134373 -0.472461
v 0.074750 -0.112219 -0.173289
v 0.076536 -0.111109 -0.120587
v 0.077000 -0.110766 -0.114755
v 0.075303 -0.111984 -0.141452
v 0.075491 -0.111706 -0.134267
v 0.075017 -0.112051 -0.147274
v 0.076219 -0.111371 -0.125188
v 0.070422 -0.114938 -0.381408
v 0.077675 -0.110156 -0.108252
v 0.074195 -0.112724 -0.217209
v 0.074243 -0.112592 -0.212311
v 0.073893 -0.112757 -0.225319
v 0.075065 -0.112142 -0.153587
v 0.074973 -0.112074 -0.160281
v 0.073799 -0.112816 -0.199304
v 0.074167 -0.112742 -0.207471
v 0.073746 -0.113024 -0.234356
v 0.073536 -0.113093 -0.472461
v 0.074952 -0.112218 -0.166742
v 0.074541 -0.112493 -0.180685
v 0.074274 -0.112570 -0.186296
v 0.074185 -0.112730 -0.191174
vn 0.4812 0.7613 0.4346
vn 0.4856 0.7594 0.4329
vn 0.4829 0.7606 0.4339
vn 0.4812 0.7679 0.4228
vn 0.4852 0.7654 0.4229
vn -0.0073 0.1813 0.9834
vn 0.2661 0.8696 0.4159
vn -0.0234 0.1465 0.9889
vn 0.7354 0.6220 0.2690
vn 0.4978 0.6963 0.5170
vn 0.5077 0.7430 0.4361
vn 0.5043 0.7424 0.4410
vn 0.5040 0.7473 0.4329
vn 0.2652 0.9123 0.3122
vn 0.4312 0.9023 0.0000
vn 0.2830 0.9522 -0.1149
vn 0.6139 0.7894 0.0000
vn 0.5584 0.8287 -0.0385
vn 0.5588 0.8284 -0.0388
vn 0.5587 0.8284 -0.0409
vn 0.2768 0.9599 0.0442
vn 0.5733 0.8184 0.0392
vn 0.5748 0.8171 -0.0441
vn 0.5955 0.8033 -0.0081
vn 0.6481 0.7610 -0.0291
vn 0.6454 0.7633 -0.0297
vn 0.6470 0.7619 -0.0310
vn 0.6543 0.7561 -0.0093
vn 0.5578 0.8290 -0.0413
vn 0.5592 0.8289 -0.0114
vn 0.1533 0.9353 -0.3189
vn 0.1111 0.9825 0.1497
vn 0.3753 0.9269 0.0000
vn 0.3770 0.9261 -0.0159
vn 0.3766 0.9264 0.0000
vn 0.4470 0.8945 0.0000
vn 0.5433 0.7783 -0.3149
vn 0.7830 0.6142 -0.0981
vn 0.7478 0.6577 -0.0909
vn 0.7665 0.6389 -0.0646
vn 0.7666 0.6389 -0.0645
vn 0.7664 0.6392 -0.0640
vn 0.3893 0.9081 -0.1543
vn 0.7108 0.7033 -0.0104
vn 0.7003 0.7135 -0.0211
vn 0.6970 0.7167 -0.0227
vn 0.6948 0.7188 -0.0233
vn 0.5974 0.8019 0.0000
vn 0.5510 0.8337 0.0371
vn 0.5527 0.8330 0.0256
vn 0.5797 0.8109 0.0800
vn 0.5526 0.8331 0.0225
vn 0.5601 0.8264 0.0583
vn 0.4467 0.7893 0.4212
vn 0.4468 0.7890 0.4217
vn 0.4465 0.7894 0.4213
vn -0.4467 -0.7893 -0.4212
vn -0.4465 -0.7894 -0.4213
vn -0.4468 -0.7890 -0.4217
vn 0.5924 0.8052 0.0261
vn 0.5855 0.8098 0.0378
vn 0.5884 0.8085 -0.0009
vn 0.6093 0.7929 0.0074
vn 0.4720 0.7662 0.4361
vn -0.4720 -0.7662 -0.4361
vn 0.4869 0.7555 0.4384
vn -0.4869 -0.7555 -0.4384
vn 0.7398 0.6618 -0.1215
vn -0.5313 0.8471 -0.0076
vn -0.5313 0.8471 -0.0075
vn -0.5345 0.8451 -0.0072
vn 0.6205 0.7731 0.1318
vn 0.6532 0.7568 -0.0242
vn 0.7009 0.6992 -0.1408
vn 0.7327 0.6792 -0.0437
vn 0.7314 0.6804 -0.0451
vn 0.7340 0.6776 -0.0454
vn 0.7322 0.6797 -0.0438
vn 0.7556 0.6491 -0.0884
vn 0.7555 0.6497 -0.0845
vn 0.7552 0.6497 -0.0869
vn 0.5577 0.7985 0.2265
vn -0.5577 -0.7985 -0.2265
vn 0.5433 0.8053 0.2374
vn -0.5433 -0.8053 -0.2374
vn 0.1737 0.7955 0.5805
vn 0.6505 0.7592 -0.0208
vn 0.6452 0.7638 0.0190
vn 0.6969 0.7139 -0.0678
vn 0.7033 0.7105 -0.0240
vn 0.9426 0.3088 -0.1267
vn 0.9448 0.3023 -0.1265
vn 0.9448 0.3023 -0.1264
vn 0.7886 0.6055 -0.1067
vn 0.7888 0.6050 -0.1081
vn 0.7890 0.6050 -0.1072
vn 0.7885 0.6058 -0.1066
vn 0.7862 0.6091 -0.1041
vn 0.6933 0.7203 -0.0235
vn 0.6906 0.7228 -0.0243
vn 0.4303 0.8907 0.1469
vn 0.7025 0.7111 -0.0295
vn 0.6088 0.7677 0.1997
vn -0.6970 -0.7167 0.0227
vn -0.7003 -0.7135 0.0211
vn -0.6948 -0.7188 0.0233
vn -0.6933 -0.7203 0.0235
vn 0.6269 0.7534 0.1986
vn -0.6088 -0.7677 -0.1997
vn -0.6269 -0.7534 -0.1986
vn 0.5377 0.8086 0.2390
vn 0.5903 0.7792 0.2108
vn -0.5903 -0.7792 -0.2108
vn 0.3856 0.8298 0.4034
vn 0.5586 0.7988 0.2232
vn 0.5582 0.7990 0.2237
vn 0.5582 0.7991 0.2230
vn 0.5578 0.7991 0.2241
vn -0.5582 -0.7992 -0.2229
vn -0.5582 -0.7990 -0.2237
vn -0.5586 -0.7988 -0.2232
vn -0.5578 -0.7991 -0.2241
vn 0.5001 0.7472 0.4377
vn 0.4864 0.6915 0.5340
vn 0.4051 0.8256 0.3928
vn 0.4048 0.8264 0.3914
vn 0.4056 0.8259 0.3916
vn 0.4050 0.8264 0.3913
vn 0.4746 0.7450 0.4688
vn 0.6183 0.7855 -0.0270
vn 0.6193 0.7847 -0.0272
vn 0.6185 0.7853 -0.0258
vn 0.6262 0.7792 -0.0277
vn 0.6578 0.7532 -0.0045
vn 0.6715 0.7410 -0.0056
vn 0.6635 0.7482 -0.0018
vn 0.6625 0.7490 -0.0015
vn 0.5794 0.8144 0.0335
vn 0.5792 0.8145 0.0338
vn 0.5788 0.8148 0.0338
vn 0.5788 0.8147 0.0343
vn 0.7550 0.6497 -0.0890
vn 0.6459 0.7627 -0.0330
vn 0.6241 0.7806 -0.0332
vn 0.5737 0.8181 0.0403
vn 0.7061 0.7078 -0.0181
vn 0.7192 0.6945 -0.0222
vn 0.7187 0.6949 -0.0223
vn 0.7187 0.6949 -0.0224
vn 0.6133 0.7885 -0.0461
vn 0.6148 0.7873 -0.0465
vn 0.6126 0.7895 -0.0370
vn 0.6126 0.7894 -0.0397
vn 0.6129 0.7893 -0.0373
vn 0.6129 0.7893 -0.0374
vn 0.5911 0.8047 0.0546
vn 0.5638 0.8246 -0.0463
vn 0.6744 0.7288 0.1187
vn 0.6350 0.7712 -0.0452
vn -0.5001 -0.7472 -0.4377
vn -0.4746 -0.7450 -0.4688
vn -0.4050 -0.8264 -0.3913
vn -0.4048 -0.8264 -0.3915
vn -0.4056 -0.8260 -0.3915
vn -0.7862 -0.6091 0.1041
vn -0.7886 -0.6057 0.1057
vn -0.7878 -0.6063 0.1083
vn -0.4812 -0.7613 -0.4346
vn -0.4829 -0.7606 -0.4339
vn -0.4856 -0.7594 -0.4329
vn -0.4812 -0.7679 -0.4228
vn -0.4852 -0.7654 -0.4229
vn 0.0073 -0.1813 -0.9834
vn -0.2661 -0.8696 -0.4159
vn 0.0234 -0.1465 -0.9889
vn -0.7354 -0.6220 -0.2690
vn -0.4978 -0.6963 -0.5170
vn -0.5077 -0.7430 -0.4361
vn -0.2652 -0.9123 -0.3122
vn -0.4312 -0.9023 0.0000
vn -0.2830 -0.9522 0.1149
vn -0.6139 -0.7894 0.0000
vn -0.5584 -0.8287 0.0385
vn -0.5587 -0.8284 0.0409
vn -0.5588 -0.8284 0.0388
vn -0.2768 -0.9599 -0.0442
vn -0.5733 -0.8184 -0.0392
vn -0.5732 -0.8185 -0.0402
vn -0.5735 -0.8183 -0.0397
vn -0.5748 -0.8171 0.0441
vn -0.5955 -0.8033 0.0081
vn -0.6481 -0.7610 0.0291
vn -0.6470 -0.7619 0.0310
vn -0.6454 -0.7633 0.0297
vn -0.6543 -0.7561 0.0093
vn -0.5578 -0.8290 0.0413
vn -0.5592 -0.8289 0.0114
vn -0.1533 -0.9353 0.3189
vn -0.1111 -0.9825 -0.1497
vn -0.3753 -0.9269 0.0000
vn -0.3770 -0.9261 0.0159
vn -0.3766 -0.9264 0.0000
vn -0.4470 -0.8945 0.0000
vn -0.5433 -0.7783 0.3149
vn -0.7830 -0.6142 0.0981
vn -0.7478 -0.6577 0.0909
vn -0.7665 -0.6389 0.0646
vn -0.7664 -0.6392 0.0640
vn -0.7666 -0.6389 0.0645
vn -0.3893 -0.9081 0.1543
vn -0.7108 -0.7033 0.0104
vn -0.5974 -0.8019 -0.0000
vn -0.5510 -0.8337 -0.0371
vn -0.5527 -0.8331 -0.0241
vn -0.5527 -0.8331 -0.0240
vn -0.5527 -0.8330 -0.0256
vn -0.5797 -0.8109 -0.0800
vn -0.5526 -0.8331 -0.0225
vn -0.5601 -0.8264 -0.0583
vn -0.5924 -0.8052 -0.0261
vn -0.5855 -0.8098 -0.0378
vn -0.5884 -0.8085 0.0009
vn -0.6093 -0.7929 -0.0074
vn -0.7398 -0.6618 0.1215
vn 0.5313 -0.8471 0.0076
vn 0.5345 -0.8451 0.0072
vn 0.5313 -0.8471 0.0075
vn -0.6205 -0.7731 -0.1318
vn -0.6532 -0.7568 0.0242
vn -0.7009 -0.6992 0.1408
vn -0.7327 -0.6792 0.0437
vn -0.7340 -0.6776 0.0454
vn -0.7314 -0.6804 0.0451
vn -0.7322 -0.6797 0.0438
vn -0.7556 -0.6491 0.0884
vn -0.7552 -0.6497 0.0869
vn -0.7555 -0.6497 0.0845
vn -0.1737 -0.7955 -0.5805
vn -0.6505 -0.7592 0.0208
vn -0.6452 -0.7638 -0.0190
vn -0.6969 -0.7139 0.0678
vn -0.7033 -0.7105 0.0240
vn -0.9426 -0.3088 0.1267
vn -0.9448 -0.3023 0.1264
vn -0.9448 -0.3023 0.1265
vn -0.7890 -0.6050 0.1072
vn -0.7888 -0.6050 0.1081
vn -0.6906 -0.7228 0.0243
vn -0.4303 -0.8907 -0.1469
vn -0.7025 -0.7111 0.0295
vn -0.5377 -0.8086 -0.2390
vn -0.3856 -0.8298 -0.4034
vn -0.4864 -0.6915 -0.5340
vn -0.4051 -0.8256 -0.3928
vn -0.6183 -0.7855 0.0270
vn -0.6185 -0.7853 0.0258
vn -0.6193 -0.7847 0.0272
vn -0.6262 -0.7792 0.0277
vn -0.6578 -0.7532 0.0045
vn -0.6635 -0.7482 0.0018
vn -0.6715 -0.7410 0.0056
vn -0.6625 -0.7490 0.0015
vn -0.5794 -0.8144 -0.0335
vn -0.5788 -0.8148 -0.0338
vn -0.5792 -0.8145 -0.0338
vn -0.5788 -0.8147 -0.0343
vn -0.7550 -0.6497 0.0890
vn -0.6459 -0.7627 0.0330
vn -0.6241 -0.7806 0.0332
vn -0.5737 -0.8181 -0.0403
vn -0.7061 -0.7078 0.0181
vn -0.7192 -0.6945 0.0222
vn -0.7187 -0.6949 0.0224
vn -0.7187 -0.6949 0.0223
vn -0.6133 -0.7885 0.0461
vn -0.6126 -0.7895 0.0370
vn -0.6148 -0.7873 0.0465
vn -0.6126 -0.7894 0.0397
vn -0.6129 -0.7893 0.0373
vn -0.6129 -0.7893 0.0374
vn -0.5911 -0.8047 -0.0546
vn -0.5638 -0.8246 0.0463
vn -0.6744 -0.7288 -0.1187
vn -0.6350 -0.7712 0.0452
usemtl None.058
s 1
f 1//1 3//2 2//3
f 1//1 2//3 4//4
f 1//1 4//4 5//5
f 6//6 8//6 7//6
f 6//7 9//7 8//7
f 7//8 8//8 10//8
f 5//9 4//9 11//9
f 5//10 11//10 12//10
f 3//11 10//12 2//13
f 9//14 13//14 8//14
f 14//15 16//15 15//15
f 14//16 15//16 17//16
f 18//17 20//17 19//17
f 21//18 23//19 22//20
f 24//21 26//21 25//21
f 24//22 28//22 27//22
f 29//23 31//23 30//23
f 29//24 32//24 31//24
f 33//25 35//26 34//27
f 33//28 34//28 36//28
f 37//29 22//20 23//19
f 37//30 23//30 32//30
f 17//31 15//31 13//31
f 13//32 15//32 8//32
f 16//33 39//33 38//33
f 16//34 38//34 15//34
f 39//33 40//33 38//33
f 40//33 41//33 38//33
f 41//35 42//35 34//35
f 42//35 43//35 34//35
f 43//35 44//35 34//35
f 44//35 45//35 34//35
f 45//35 46//35 34//35
f 46//35 47//35 34//35
f 47//35 48//35 34//35
f 48//35 49//35 34//35
f 49//35 50//35 34//35
f 51//36 52//36 31//36
f 51//36 31//36 53//36
f 52//36 54//36 31//36
f 54//36 55//36 31//36
f 55//36 56//36 31//36
f 57//37 31//37 58//37
f 59//38 61//38 60//38
f 59//39 62//39 61//39
f 59//40 60//41 63//42
f 64//43 8//43 15//43
f 65//44 64//44 66//44
f 65//45 67//46 64//47
f 56//48 68//48 28//48
f 56//49 28//49 25//49
f 56//50 25//50 69//50
f 64//51 15//51 61//51
f 56//52 69//52 70//52
f 56//53 70//53 31//53
f 71//48 28//48 68//48
f 71//48 19//48 28//48
f 72//54 73//55 4//56
f 72//57 74//58 73//59
f 19//60 20//60 75//60
f 19//61 75//61 28//61
f 31//62 57//62 30//62
f 61//63 41//63 76//63
f 77//64 10//64 78//64
f 77//65 78//65 79//65
f 77//66 80//66 10//66
f 77//67 79//67 80//67
f 60//68 61//68 81//68
f 60//69 81//70 82//71
f 21//72 34//72 23//72
f 21//73 36//73 34//73
f 38//74 61//74 15//74
f 61//75 84//76 83//77
f 61//75 85//78 84//76
f 61//79 83//80 86//81
f 87//82 8//82 88//82
f 87//83 88//83 89//83
f 87//84 90//84 8//84
f 87//85 89//85 90//85
f 31//86 70//86 58//86
f 58//87 91//87 57//87
f 58//88 70//88 91//88
f 61//89 62//89 64//89
f 64//90 62//90 66//90
f 92//91 60//92 82//93
f 60//94 93//95 63//96
f 94//97 93//95 60//94
f 94//98 60//98 95//98
f 64//47 97//99 96//100
f 64//47 67//46 97//99
f 8//101 64//101 98//101
f 64//102 96//102 98//102
f 98//103 99//103 8//103
f 67//104 65//105 100//106
f 67//104 100//106 97//107
f 8//108 99//108 101//108
f 99//109 98//109 89//109
f 99//110 89//110 101//110
f 8//111 102//111 88//111
f 8//112 101//112 102//112
f 101//113 89//113 102//113
f 10//114 8//114 78//114
f 78//115 8//116 103//117
f 8//116 90//118 103//117
f 103//119 89//120 78//121
f 103//119 90//122 89//120
f 10//12 80//123 2//13
f 2//124 72//124 4//124
f 4//125 105//126 104//127
f 105//126 106//128 104//127
f 105//129 4//129 73//129
f 107//130 108//131 41//132
f 107//130 41//132 109//133
f 110//134 85//135 61//136
f 110//134 61//136 111//137
f 112//138 41//139 113//140
f 113//140 41//139 108//141
f 86//81 81//142 61//79
f 35//26 114//143 34//27
f 114//144 109//133 41//132
f 27//145 28//145 115//145
f 116//146 111//146 61//146
f 116//147 61//148 76//149
f 117//150 76//151 41//152
f 117//150 41//152 118//153
f 119//154 118//153 41//152
f 119//154 41//152 112//155
f 50//35 23//35 34//35
f 28//156 24//156 25//156
f 23//36 53//36 31//36
f 23//157 31//157 32//157
f 61//158 38//158 41//158
f 114//159 41//159 34//159
f 80//160 79//160 2//160
f 73//161 74//161 105//161
f 106//162 105//163 120//164
f 95//165 121//166 94//167
f 122//168 2//169 123//170
f 122//168 74//171 2//169
f 122//168 124//172 74//171
f 125//173 126//173 89//173
f 125//174 89//174 127//174
f 126//175 79//175 89//175
f 124//176 128//176 74//176
f 124//177 129//177 128//177
f 123//178 2//178 79//178
f 127//179 89//179 130//179
f 131//180 133//180 132//180
f 131//181 134//181 133//181
f 135//182 137//182 136//182
f 138//183 140//184 139//185
f 141//186 143//186 142//186
f 141//187 145//188 144//189
f 146//190 148//190 147//190
f 146//191 147//191 149//191
f 150//192 152//193 151//194
f 150//195 153//195 152//195
f 154//196 139//185 140//184
f 154//197 149//197 139//197
f 134//198 130//198 133//198
f 130//199 89//199 133//199
f 132//200 156//200 155//200
f 132//201 133//201 156//201
f 155//200 156//200 157//200
f 157//200 156//200 158//200
f 158//202 152//202 159//202
f 159//202 152//202 160//202
f 160//202 152//202 161//202
f 161//202 152//202 162//202
f 162//202 152//202 163//202
f 163//202 152//202 164//202
f 164//202 152//202 165//202
f 165//202 152//202 166//202
f 166//202 152//202 167//202
f 168//203 147//203 169//203
f 168//203 170//203 147//203
f 169//203 147//203 171//203
f 171//203 147//203 172//203
f 172//203 147//203 173//203
f 174//204 175//204 147//204
f 59//205 121//205 176//205
f 59//206 176//206 62//206
f 59//207 63//208 121//209
f 100//210 133//210 89//210
f 65//211 66//211 100//211
f 173//212 144//212 177//212
f 173//213 143//213 144//213
f 173//214 178//215 143//216
f 100//217 176//217 133//217
f 173//214 179//218 178//215
f 173//219 147//219 179//219
f 180//212 177//212 144//212
f 180//212 144//212 137//212
f 137//220 181//220 136//220
f 137//221 144//221 181//221
f 147//222 148//222 174//222
f 176//223 182//223 158//223
f 121//224 183//224 176//224
f 121//225 184//226 183//227
f 138//228 139//228 152//228
f 138//229 152//229 153//229
f 156//230 133//230 176//230
f 176//231 186//232 185//233
f 176//231 185//233 187//234
f 176//235 188//236 186//237
f 147//238 175//238 179//238
f 175//239 174//239 189//239
f 175//240 189//240 179//240
f 176//241 100//241 62//241
f 100//242 66//242 62//242
f 190//243 184//244 121//245
f 121//166 63//246 93//247
f 94//167 121//166 93//247
f 100//106 96//248 97//107
f 89//249 98//249 100//249
f 100//250 98//250 96//250
f 89//251 88//251 102//251
f 79//252 78//252 89//252
f 2//253 74//253 72//253
f 74//254 120//164 105//163
f 191//255 158//256 192//257
f 191//255 193//258 158//256
f 194//259 176//260 187//261
f 194//259 195//262 176//260
f 196//263 197//264 158//265
f 197//264 192//266 158//265
f 188//236 176//235 183//267
f 151//194 152//193 198//268
f 198//269 158//256 193//258
f 145//188 199//270 144//189
f 200//271 176//271 195//271
f 200//272 182//273 176//274
f 201//275 158//276 182//277
f 201//275 202//278 158//276
f 203//279 158//276 202//278
f 203//279 196//280 158//276
f 167//202 152//202 139//202
f 144//281 143//281 141//281
f 139//203 147//203 170//203
f 139//282 149//282 147//282
f 176//283 158//283 156//283
f 198//284 152//284 158//284
