# Blender v2.79 (sub 0) OBJ File: ''
# www.blender.org
mtllib crack_restart_keyway_165.mtl
o crack_restart_keyway_165
v 0.073499 -0.113119 -0.472461
v 0.072762 -0.113468 -0.459453
v 0.090931 -0.124907 -0.472461
v 0.120406 -0.147382 -0.472461
v 0.109105 -0.137629 -0.472461
v 0.120406 -0.147382 -0.457089
v 0.070609 -0.114979 -0.394416
v 0.070388 -0.114960 -0.381408
v 0.120406 -0.147382 -0.380233
v 0.070798 -0.114702 -0.407423
v 0.072570 -0.113779 -0.446446
v 0.071628 -0.114181 -0.433438
v 0.071263 -0.114618 -0.420431
v 0.070833 -0.114856 -0.368401
v 0.070714 -0.114880 -0.374905
v 0.120406 -0.147382 -0.257263
v 0.112964 -0.145323 -0.260947
v 0.118406 -0.146929 -0.250527
v 0.120406 -0.147382 -0.246474
v 0.120406 -0.147382 -0.264949
v 0.120406 -0.147382 -0.272634
v 0.110236 -0.144348 -0.267286
v 0.120406 -0.147382 -0.280320
v 0.107840 -0.142849 -0.273202
v 0.120406 -0.147382 -0.303377
v 0.099960 -0.139827 -0.338983
v 0.120406 -0.147382 -0.295691
v 0.120406 -0.147382 -0.318748
v 0.120406 -0.147382 -0.334119
v 0.120406 -0.147382 -0.349490
v 0.120406 -0.147382 -0.364862
v 0.120406 -0.147382 -0.395604
v 0.120406 -0.147382 -0.410975
v 0.120406 -0.147382 -0.426347
v 0.120406 -0.147382 -0.441718
v 0.086999 -0.129343 -0.318833
v 0.084715 -0.127480 -0.323706
v 0.089959 -0.131849 -0.311969
v 0.103117 -0.133153 -0.472461
v 0.104443 -0.141271 -0.281047
v 0.120406 -0.147382 -0.280320
v 0.070921 -0.114624 -0.355393
v 0.074055 -0.117481 -0.345584
v 0.070550 -0.114926 -0.377879
v 0.120406 -0.147382 -0.288006
v 0.071262 -0.114522 -0.349586
v 0.070921 -0.114624 -0.355393
v 0.094181 -0.135375 -0.302202
v 0.098199 -0.137982 -0.294235
v 0.092094 -0.133610 -0.306714
v 0.100742 -0.139392 -0.289533
v 0.099960 -0.139827 -0.338983
v 0.080583 -0.123832 -0.332953
v 0.078394 -0.121830 -0.337546
v 0.082780 -0.125775 -0.328387
v 0.075685 -0.119180 -0.342886
v 0.076934 -0.120403 -0.340423
v 0.120406 -0.147382 -0.257263
v 0.073499 -0.113119 -0.472461
v 0.090931 -0.124907 -0.472461
v 0.072762 -0.113468 -0.459453
v 0.120406 -0.147382 -0.472461
v 0.120406 -0.147382 -0.457089
v 0.109105 -0.137629 -0.472461
v 0.070609 -0.114979 -0.394416
v 0.120406 -0.147382 -0.380233
v 0.070388 -0.114960 -0.381408
v 0.070798 -0.114702 -0.407423
v 0.072570 -0.113779 -0.446446
v 0.071628 -0.114181 -0.433438
v 0.071263 -0.114618 -0.420431
v 0.070833 -0.114856 -0.368401
v 0.070714 -0.114880 -0.374905
v 0.120406 -0.147382 -0.264949
v 0.120406 -0.147382 -0.272634
v 0.120406 -0.147382 -0.303377
v 0.120406 -0.147382 -0.295691
v 0.120406 -0.147382 -0.318748
v 0.120406 -0.147382 -0.334119
v 0.120406 -0.147382 -0.349490
v 0.120406 -0.147382 -0.364862
v 0.120406 -0.147382 -0.395604
v 0.120406 -0.147382 -0.410975
v 0.120406 -0.147382 -0.426347
v 0.120406 -0.147382 -0.441718
v 0.103117 -0.133153 -0.472461
v 0.070550 -0.114926 -0.377879
v 0.120406 -0.147382 -0.288006
vn 0.5594 0.8272 0.0539
vn 0.6534 0.7571 0.0000
vn 0.5438 0.8392 0.0080
vn 0.5401 0.8412 0.0258
vn 0.5402 0.8411 0.0253
vn 0.5403 0.8411 0.0257
vn 0.5469 0.8367 0.0281
vn 0.5852 0.8081 0.0674
vn 0.5405 0.8410 0.0248
vn 0.5294 0.8472 0.0433
vn 0.5464 0.8375 -0.0131
vn 0.2662 0.9639 0.0012
vn 0.2615 0.9651 0.0115
vn 0.2609 0.9653 0.0125
vn 0.2209 0.9753 0.0000
vn 0.2667 0.9638 0.0000
vn 0.2859 0.9583 0.0000
vn 0.3393 0.9407 0.0000
vn 0.3334 0.9372 0.1024
vn 0.3466 0.9380 0.0000
vn 0.3478 0.9376 -0.0005
vn 0.5627 0.8267 0.0000
vn 0.6533 0.7571 0.0000
vn 0.6308 0.7759 0.0021
vn 0.6364 0.7713 0.0073
vn 0.6302 0.7764 0.0014
vn 0.6350 0.7725 0.0070
vn 0.5679 0.8214 0.0518
vn 0.5720 0.8182 0.0575
vn 0.5720 0.8182 0.0576
vn 0.0000 0.0000 1.0000
vn 0.5725 0.8178 0.0584
vn 0.3560 0.9339 0.0337
vn -0.3560 -0.9339 -0.0337
vn 0.6512 0.7588 0.0129
vn 0.5442 0.8383 -0.0331
vn 0.5439 0.8383 -0.0380
vn 0.5436 0.8383 -0.0426
vn 0.5436 0.8382 -0.0429
vn 0.3488 0.9372 -0.0009
vn 0.7628 0.6441 -0.0561
vn -0.7628 -0.6441 0.0561
vn 0.5610 0.8278 -0.0121
vn 0.6316 0.7753 0.0046
vn 0.3577 0.9338 -0.0044
vn 0.4803 0.8770 -0.0153
vn 0.6611 0.7501 -0.0178
vn 0.6371 0.7707 0.0068
vn -0.5610 -0.8278 0.0121
vn -0.6371 -0.7707 -0.0068
vn -0.6316 -0.7753 -0.0046
vn -0.6364 -0.7713 -0.0073
vn 0.6416 0.7665 0.0284
vn 0.6394 0.7686 0.0175
vn 0.6400 0.7682 0.0189
vn 0.6392 0.7689 0.0160
vn 0.6389 0.7691 0.0160
vn 0.6356 0.7657 0.0979
vn 0.6419 0.7649 0.0539
vn 0.6418 0.7649 0.0543
vn 0.6419 0.7649 0.0541
vn 0.6419 0.7649 0.0537
vn -0.6356 -0.7658 -0.0983
vn -0.6418 -0.7649 -0.0543
vn -0.6419 -0.7649 -0.0539
vn -0.6419 -0.7649 -0.0541
vn -0.6419 -0.7649 -0.0537
vn -0.2609 -0.9653 -0.0125
vn -0.2209 -0.9753 0.0000
vn -0.5594 -0.8272 -0.0539
vn -0.6534 -0.7571 0.0000
vn -0.5438 -0.8392 -0.0080
vn -0.5401 -0.8412 -0.0258
vn -0.5403 -0.8411 -0.0257
vn -0.5402 -0.8411 -0.0253
vn -0.5469 -0.8367 -0.0281
vn -0.5852 -0.8081 -0.0674
vn -0.5405 -0.8410 -0.0248
vn -0.5294 -0.8472 -0.0433
vn -0.5464 -0.8375 0.0131
vn -0.2667 -0.9638 0.0000
vn -0.2859 -0.9583 0.0000
vn -0.3393 -0.9407 0.0000
vn -0.3334 -0.9372 -0.1024
vn -0.3466 -0.9380 0.0000
vn -0.3478 -0.9376 0.0005
vn -0.5627 -0.8267 0.0000
vn -0.6533 -0.7571 0.0000
vn -0.6308 -0.7759 -0.0021
vn -0.6302 -0.7764 -0.0014
vn -0.6350 -0.7725 -0.0070
vn -0.5679 -0.8214 -0.0518
vn -0.5720 -0.8182 -0.0576
vn -0.5720 -0.8182 -0.0575
vn 0.0000 0.0000 -1.0000
vn -0.5725 -0.8178 -0.0584
vn -0.6512 -0.7588 -0.0129
vn -0.5442 -0.8383 0.0331
vn -0.5436 -0.8383 0.0426
vn -0.5439 -0.8383 0.0380
vn -0.5436 -0.8382 0.0429
vn -0.3488 -0.9372 0.0009
vn -0.3577 -0.9338 0.0044
vn -0.4803 -0.8770 0.0153
vn -0.6611 -0.7501 0.0178
vn -0.6402 -0.7679 -0.0198
vn -0.6416 -0.7665 -0.0284
vn -0.6415 -0.7667 -0.0258
vn -0.6392 -0.7689 -0.0160
vn -0.6389 -0.7691 -0.0160
vn -0.5655 -0.8142 -0.1312
vn -0.5068 -0.8619 0.0156
vn -0.2801 -0.9596 -0.0271
vn 0.5655 0.8142 0.1312
vn 0.5068 0.8619 -0.0156
vn 0.2801 0.9596 0.0271
usemtl None.016
s 1
f 1//1 2//1 3//1
f 4//2 5//2 6//2
f 7//3 8//3 9//3
f 7//4 9//5 10//6
f 11//7 3//7 2//7
f 11//8 12//8 3//8
f 13//9 10//6 9//5
f 13//10 9//10 12//10
f 14//11 9//11 15//11
f 16//12 17//13 18//14
f 16//15 18//15 19//15
f 16//12 20//16 17//13
f 21//17 22//17 20//17
f 21//18 23//18 24//18
f 21//19 24//19 22//19
f 25//20 26//21 27//20
f 25//20 28//20 26//21
f 29//20 30//20 26//21
f 29//20 26//21 28//20
f 30//20 31//20 26//21
f 31//20 9//20 26//21
f 32//22 33//22 12//22
f 32//22 12//22 9//22
f 33//22 34//22 12//22
f 6//23 5//23 35//23
f 36//24 26//25 37//26
f 36//24 38//27 26//25
f 35//28 5//29 12//30
f 35//22 12//22 34//22
f 5//31 39//31 3//31
f 5//29 3//32 12//30
f 40//33 24//33 23//33
f 40//34 41//34 24//34
f 26//35 42//35 43//35
f 8//36 44//37 9//38
f 26//21 45//20 27//20
f 9//38 44//37 15//39
f 45//20 26//21 23//40
f 42//41 46//41 43//41
f 46//42 47//42 43//42
f 26//43 48//43 49//43
f 26//25 38//27 50//44
f 40//45 23//40 26//21
f 40//46 26//46 51//46
f 14//47 42//47 26//47
f 50//44 48//48 26//25
f 48//49 52//49 49//49
f 48//50 50//51 52//52
f 53//53 26//53 54//53
f 26//54 53//55 55//56
f 26//54 55//56 37//57
f 26//58 43//58 56//58
f 26//59 56//60 57//61
f 26//59 57//61 54//62
f 56//63 43//63 52//63
f 56//64 52//65 57//66
f 57//66 52//65 54//67
f 18//68 17//68 58//68
f 18//69 58//69 19//69
f 59//70 60//70 61//70
f 62//71 63//71 64//71
f 65//72 66//72 67//72
f 65//73 68//74 66//75
f 69//76 61//76 60//76
f 69//77 60//77 70//77
f 71//78 66//75 68//74
f 71//79 70//79 66//79
f 72//80 73//80 66//80
f 58//81 17//81 74//81
f 75//82 74//82 22//82
f 75//83 24//83 41//83
f 75//84 22//84 24//84
f 76//85 77//85 52//86
f 76//85 52//86 78//85
f 79//85 52//86 80//85
f 79//85 78//85 52//86
f 80//85 52//86 81//85
f 81//85 52//86 66//85
f 82//87 70//87 83//87
f 82//87 66//87 70//87
f 83//87 70//87 84//87
f 63//71 85//88 64//71
f 36//89 37//90 52//52
f 36//89 52//52 38//91
f 85//92 70//93 64//94
f 85//87 84//87 70//87
f 64//95 60//95 86//95
f 64//94 70//93 60//96
f 52//97 43//97 47//97
f 67//98 66//99 87//100
f 52//86 77//85 88//85
f 66//99 73//101 87//100
f 88//85 41//102 52//86
f 52//52 50//51 38//91
f 40//103 52//86 41//102
f 40//104 51//104 52//104
f 72//105 52//105 47//105
f 53//106 54//107 52//108
f 52//108 55//109 53//106
f 52//108 37//110 55//109
f 66//111 52//111 72//111
f 52//112 51//112 49//112
f 74//113 17//113 22//113
f 9//114 14//114 26//114
f 26//115 49//115 51//115
f 20//116 22//116 17//116
