# Blender v2.79 (sub 0) OBJ File: ''
# www.blender.org
mtllib crack_restart_keyway_145.mtl
o crack_restart_keyway_145
v 0.073499 -0.113119 -0.472461
v 0.072764 -0.113467 -0.459453
v 0.085026 -0.121161 -0.472461
v 0.120406 -0.147382 -0.472461
v 0.109155 -0.137590 -0.472461
v 0.120406 -0.147382 -0.457089
v 0.070602 -0.114983 -0.394416
v 0.070404 -0.114949 -0.381408
v 0.075486 -0.119493 -0.352987
v 0.070913 -0.114629 -0.407423
v 0.072564 -0.113783 -0.446446
v 0.071620 -0.114185 -0.433438
v 0.087307 -0.122623 -0.472461
v 0.071316 -0.114589 -0.420431
v 0.070871 -0.114835 -0.368401
v 0.070783 -0.114837 -0.361897
v 0.072838 -0.116568 -0.356156
v 0.070797 -0.114828 -0.374905
v 0.120406 -0.147382 -0.257263
v 0.112698 -0.145602 -0.260613
v 0.117000 -0.146883 -0.252971
v 0.120406 -0.147382 -0.264949
v 0.120406 -0.147382 -0.246939
v 0.120406 -0.147382 -0.272634
v 0.109725 -0.144343 -0.268588
v 0.120406 -0.147382 -0.280320
v 0.107631 -0.143274 -0.275038
v 0.120406 -0.147382 -0.288006
v 0.106248 -0.142475 -0.279489
v 0.120406 -0.147382 -0.303377
v 0.120406 -0.147382 -0.318748
v 0.096497 -0.137710 -0.304472
v 0.120406 -0.147382 -0.295691
v 0.120406 -0.147382 -0.334119
v 0.103661 -0.142479 -0.327629
v 0.120406 -0.147382 -0.349490
v 0.120406 -0.147382 -0.364862
v 0.120406 -0.147382 -0.380233
v 0.120406 -0.147382 -0.395604
v 0.120406 -0.147382 -0.410975
v 0.120406 -0.147382 -0.426347
v 0.120406 -0.147382 -0.441718
v 0.089606 -0.132121 -0.321082
v 0.096571 -0.137783 -0.320070
v 0.087387 -0.130324 -0.326608
v 0.096571 -0.137783 -0.320070
v 0.092583 -0.134545 -0.314321
v 0.103102 -0.133091 -0.472461
v 0.077522 -0.121524 -0.349615
v 0.079091 -0.123050 -0.346140
v 0.070592 -0.114900 -0.377850
v 0.096826 -0.128656 -0.472461
v 0.098954 -0.139453 -0.322646
v 0.097520 -0.138276 -0.301839
v 0.105249 -0.142162 -0.282417
v 0.102608 -0.141134 -0.290421
v 0.070956 -0.114648 -0.357726
v 0.098942 -0.139138 -0.298557
v 0.083238 -0.126950 -0.336735
v 0.085583 -0.128838 -0.330997
v 0.081357 -0.125211 -0.340874
v 0.120406 -0.147382 -0.257263
v 0.070783 -0.114837 -0.361897
v 0.103661 -0.142479 -0.327629
v 0.073499 -0.113119 -0.472461
v 0.085026 -0.121161 -0.472461
v 0.072764 -0.113467 -0.459453
v 0.120406 -0.147382 -0.472461
v 0.120406 -0.147382 -0.457089
v 0.109155 -0.137590 -0.472461
v 0.070602 -0.114983 -0.394416
v 0.070404 -0.114949 -0.381408
v 0.070913 -0.114629 -0.407423
v 0.072564 -0.113783 -0.446446
v 0.087307 -0.122623 -0.472461
v 0.071620 -0.114185 -0.433438
v 0.071316 -0.114589 -0.420431
v 0.070871 -0.114835 -0.368401
v 0.070797 -0.114828 -0.374905
v 0.120406 -0.147382 -0.264949
v 0.120406 -0.147382 -0.272634
v 0.120406 -0.147382 -0.280320
v 0.120406 -0.147382 -0.288006
v 0.120406 -0.147382 -0.303377
v 0.120406 -0.147382 -0.318748
v 0.120406 -0.147382 -0.295691
v 0.120406 -0.147382 -0.334119
v 0.120406 -0.147382 -0.349490
v 0.120406 -0.147382 -0.364862
v 0.120406 -0.147382 -0.380233
v 0.120406 -0.147382 -0.395604
v 0.120406 -0.147382 -0.410975
v 0.120406 -0.147382 -0.426347
v 0.120406 -0.147382 -0.441718
v 0.103102 -0.133091 -0.472461
v 0.070592 -0.114900 -0.377850
v 0.096826 -0.128656 -0.472461
v 0.098954 -0.139453 -0.322646
v 0.100655 -0.140165 -0.294899
vn 0.5713 0.8189 0.0542
vn 0.6565 0.7543 0.0000
vn 0.6420 0.7666 0.0078
vn 0.4987 0.8661 0.0355
vn 0.5987 0.7981 0.0681
vn 0.5508 0.8341 0.0287
vn 0.4389 0.8977 0.0381
vn 0.6000 0.7997 0.0210
vn 0.6298 0.7767 0.0088
vn 0.7226 0.6912 -0.0075
vn 0.7565 0.6534 -0.0290
vn 0.2046 0.9776 0.0487
vn 0.2250 0.9744 0.0000
vn 0.1450 0.9894 0.0000
vn 0.2737 0.9618 0.0000
vn 0.3061 0.9520 0.0000
vn 0.2949 0.9535 0.0623
vn 0.3275 0.9449 0.0000
vn 0.3750 0.9270 0.0000
vn 0.2810 0.9597 0.0000
vn 0.3250 0.9411 -0.0933
vn 0.5275 0.8496 0.0000
vn 0.5827 0.8082 0.0852
vn 0.6307 0.7760 0.0003
vn 0.6308 0.7759 -0.0006
vn 0.6309 0.7759 -0.0010
vn -0.6307 -0.7760 -0.0003
vn -0.6309 -0.7759 0.0010
vn -0.6308 -0.7759 0.0006
vn 0.6307 0.7760 0.0005
vn -0.6307 -0.7760 -0.0005
vn 0.5867 0.8087 0.0429
vn 0.0000 0.0000 1.0000
vn 0.5648 0.8245 0.0343
vn 0.5036 0.8400 0.2019
vn 0.5689 0.8161 0.1015
vn 0.5394 0.8420 0.0105
vn 0.8087 0.5861 -0.0509
vn 0.5310 0.8468 0.0304
vn 0.6031 -0.2873 0.7442
vn 0.5998 0.7974 0.0672
vn 0.8517 0.5192 -0.0717
vn 0.5341 0.8454 -0.0089
vn 0.6167 0.7872 0.0079
vn 0.3314 0.9016 -0.2779
vn 0.3543 0.9330 0.0629
vn 0.3196 0.9475 -0.0077
vn 0.3341 0.9425 0.0108
vn 0.7373 0.6728 -0.0611
vn 0.3458 0.9335 0.0953
vn 0.3451 0.9333 0.0997
vn 0.3457 0.9335 0.0957
vn 0.6001 0.7997 0.0179
vn 0.5994 0.8001 0.0236
vn 0.5997 0.8000 0.0213
vn 0.5819 0.8097 0.0758
vn 0.5790 0.8109 0.0844
vn 0.5811 0.8101 0.0777
vn 0.5783 0.8115 0.0842
vn 0.5992 0.8002 0.0246
vn -0.2046 -0.9776 -0.0487
vn -0.1450 -0.9894 0.0000
vn -0.7373 -0.6728 0.0611
vn -0.5811 -0.8101 -0.0777
vn -0.5790 -0.8109 -0.0844
vn -0.5819 -0.8097 -0.0758
vn -0.5783 -0.8115 -0.0842
vn -0.5713 -0.8189 -0.0542
vn -0.6565 -0.7543 0.0000
vn -0.6420 -0.7666 -0.0078
vn -0.4987 -0.8661 -0.0355
vn -0.5987 -0.7981 -0.0681
vn -0.5508 -0.8341 -0.0287
vn -0.4389 -0.8977 -0.0381
vn -0.6000 -0.7997 -0.0210
vn -0.6298 -0.7767 -0.0088
vn -0.7226 -0.6912 0.0075
vn -0.7565 -0.6534 0.0290
vn -0.2250 -0.9744 0.0000
vn -0.2737 -0.9618 0.0000
vn -0.3061 -0.9520 0.0000
vn -0.2949 -0.9535 -0.0623
vn -0.3275 -0.9449 0.0000
vn -0.3271 -0.9450 0.0004
vn -0.3750 -0.9270 0.0000
vn -0.2810 -0.9597 0.0000
vn -0.3250 -0.9411 0.0933
vn -0.5275 -0.8496 0.0000
vn -0.5827 -0.8082 -0.0852
vn -0.5867 -0.8087 -0.0429
vn 0.0000 0.0000 -1.0000
vn -0.5648 -0.8245 -0.0343
vn -0.5036 -0.8400 -0.2019
vn -0.5689 -0.8161 -0.1015
vn -0.5394 -0.8420 -0.0105
vn -0.8087 -0.5861 0.0509
vn -0.5310 -0.8468 -0.0304
vn -0.3215 -0.9469 0.0059
vn -0.6031 0.2873 -0.7442
vn -0.5998 -0.7974 -0.0672
vn -0.8517 -0.5192 0.0717
vn -0.5341 -0.8454 0.0089
vn -0.6167 -0.7872 -0.0079
vn -0.3314 -0.9016 0.2779
vn -0.3543 -0.9330 -0.0629
vn -0.3196 -0.9475 0.0077
vn -0.3341 -0.9425 -0.0108
vn -0.3458 -0.9335 -0.0953
vn -0.3457 -0.9335 -0.0957
vn -0.3451 -0.9333 -0.0996
vn -0.6001 -0.7997 -0.0179
vn -0.5997 -0.8000 -0.0213
vn -0.5994 -0.8001 -0.0235
vn -0.5992 -0.8002 -0.0246
vn -0.3450 -0.9332 -0.1004
vn -0.3302 -0.9416 -0.0664
vn -0.3446 -0.9373 -0.0525
vn -0.2551 -0.9652 -0.0573
vn 0.3450 0.9332 0.1004
vn 0.3302 0.9416 0.0664
vn 0.3446 0.9373 0.0525
vn 0.2551 0.9652 0.0573
usemtl None.011
s 1
f 1//1 2//1 3//1
f 4//2 5//2 6//2
f 7//3 8//3 9//3
f 7//4 9//4 10//4
f 11//5 12//5 13//5
f 11//6 13//6 2//6
f 14//7 9//7 12//7
f 14//8 10//8 9//8
f 15//9 16//9 17//9
f 15//10 9//10 18//10
f 15//11 17//11 9//11
f 19//12 20//12 21//12
f 19//13 22//13 20//13
f 19//14 21//14 23//14
f 24//15 25//15 22//15
f 24//16 26//16 27//16
f 24//17 27//17 25//17
f 28//18 29//18 26//18
f 30//19 31//19 32//19
f 30//19 32//19 33//19
f 31//20 34//20 35//20
f 31//21 35//21 32//21
f 34//20 36//20 35//20
f 36//20 37//20 35//20
f 37//20 38//20 35//20
f 38//20 39//20 35//20
f 39//22 40//22 9//22
f 39//23 9//23 35//23
f 40//22 41//22 9//22
f 41//22 42//22 9//22
f 6//2 5//2 42//2
f 43//24 44//25 45//26
f 43//27 45//28 46//29
f 43//24 47//30 44//25
f 43//27 46//29 47//31
f 42//32 5//32 9//32
f 5//33 48//33 13//33
f 5//34 13//34 9//34
f 49//35 35//35 9//35
f 49//36 50//36 35//36
f 2//37 13//37 3//37
f 8//38 51//38 9//38
f 48//33 52//33 13//33
f 9//39 13//39 12//39
f 28//18 33//18 29//18
f 35//40 44//40 53//40
f 35//41 45//41 44//41
f 51//42 18//42 9//42
f 53//43 32//43 35//43
f 53//44 47//44 32//44
f 53//45 44//45 47//45
f 32//46 54//46 33//46
f 55//47 29//47 33//47
f 55//48 33//48 56//48
f 16//49 57//49 17//49
f 54//50 58//51 33//52
f 59//53 60//54 35//55
f 59//56 35//57 61//58
f 50//59 61//58 35//57
f 45//60 35//55 60//54
f 21//61 20//61 62//61
f 21//62 62//62 23//62
f 17//63 57//63 63//63
f 61//64 64//65 59//66
f 61//64 50//67 64//65
f 65//68 66//68 67//68
f 68//69 69//69 70//69
f 71//70 9//70 72//70
f 71//71 73//71 9//71
f 74//72 75//72 76//72
f 74//73 67//73 75//73
f 77//74 76//74 9//74
f 77//75 9//75 73//75
f 78//76 17//76 63//76
f 78//77 79//77 9//77
f 78//78 9//78 17//78
f 62//79 20//79 80//79
f 81//80 80//80 25//80
f 81//81 27//81 82//81
f 81//82 25//82 27//82
f 83//83 82//83 29//84
f 84//85 32//85 85//85
f 84//85 86//85 32//85
f 85//86 64//86 87//86
f 85//87 32//87 64//87
f 87//86 64//86 88//86
f 88//86 64//86 89//86
f 89//86 64//86 90//86
f 90//86 64//86 91//86
f 91//88 9//88 92//88
f 91//89 64//89 9//89
f 92//88 9//88 93//88
f 93//88 9//88 94//88
f 69//69 94//69 70//69
f 94//90 9//90 70//90
f 70//91 75//91 95//91
f 70//92 9//92 75//92
f 49//93 9//93 64//93
f 49//94 64//94 50//94
f 67//95 66//95 75//95
f 72//96 9//96 96//96
f 95//91 75//91 97//91
f 9//97 76//97 75//97
f 83//83 29//84 86//98
f 64//99 98//99 46//99
f 64//100 46//100 45//100
f 96//101 9//101 79//101
f 98//102 64//102 32//102
f 98//103 32//103 47//103
f 98//104 47//104 46//104
f 32//105 86//105 54//105
f 55//106 86//98 29//84
f 55//107 56//107 86//107
f 54//108 86//109 58//110
f 59//111 64//112 60//113
f 45//114 60//113 64//112
f 86//109 99//115 58//110
f 82//116 27//116 29//116
f 86//117 56//117 99//117
f 80//118 20//118 25//118
f 33//52 58//51 99//119
f 26//120 29//120 27//120
f 33//121 99//121 56//121
f 22//122 25//122 20//122
