# Blender v2.79 (sub 0) OBJ File: ''
# www.blender.org
mtllib crack_restart_keyway_705.mtl
o crack_restart_keyway_705
v 0.073353 -0.113223 -0.472461
v 0.072935 -0.113359 -0.459453
v 0.084659 -0.121392 -0.472461
v 0.147225 -0.162039 -0.087633
v 0.127506 -0.150662 -0.086855
v 0.150732 -0.164624 -0.087293
v 0.143382 -0.159202 -0.088100
v 0.131068 -0.149873 -0.089874
v 0.135365 -0.153079 -0.089187
v 0.126540 -0.147825 -0.091832
v 0.152182 -0.169044 -0.080798
v 0.154210 -0.167189 -0.086931
v 0.139591 -0.156320 -0.088614
v 0.120406 -0.147382 -0.426347
v 0.095804 -0.129471 -0.472461
v 0.120406 -0.147382 -0.103551
v 0.114631 -0.144474 -0.094849
v 0.120866 -0.146923 -0.098614
v 0.120406 -0.147382 -0.118922
v 0.120406 -0.147382 -0.472461
v 0.108113 -0.138421 -0.472461
v 0.120406 -0.147382 -0.457089
v 0.074031 -0.112742 -0.186296
v 0.074393 -0.112443 -0.173289
v 0.075694 -0.111562 -0.134267
v 0.074038 -0.112666 -0.199304
v 0.073564 -0.113073 -0.238326
v 0.073852 -0.112783 -0.225319
v 0.094982 -0.133192 -0.288861
v 0.073187 -0.113201 -0.251334
v 0.070702 -0.114928 -0.394416
v 0.069969 -0.115223 -0.381408
v 0.120406 -0.147382 -0.395604
v 0.070966 -0.114596 -0.407423
v 0.072168 -0.114064 -0.290356
v 0.072607 -0.113565 -0.277349
v 0.071441 -0.114298 -0.303364
v 0.072603 -0.113755 -0.446446
v 0.071897 -0.114011 -0.433438
v 0.071824 -0.114308 -0.342386
v 0.071554 -0.114227 -0.329378
v 0.070461 -0.114914 -0.355393
v 0.074598 -0.112098 -0.081618
v 0.071700 -0.111170 -0.054992
v 0.111746 -0.143623 -0.082177
v 0.075798 -0.111470 -0.096521
v 0.071553 -0.114458 -0.420431
v 0.070528 -0.115024 -0.368401
v 0.073094 -0.113407 -0.264341
v 0.074636 -0.112312 -0.160281
v 0.074983 -0.112073 -0.147274
v 0.076278 -0.111258 -0.121259
v 0.076433 -0.111038 -0.108252
v 0.106682 -0.141526 -0.120718
v 0.071655 -0.114401 -0.316371
v 0.146844 -0.173670 -0.061410
v 0.148177 -0.172559 -0.068129
v 0.146018 -0.174240 -0.051061
v 0.150296 -0.170718 -0.074797
v 0.122213 -0.145575 -0.094013
v 0.115969 -0.144845 -0.090501
v 0.120406 -0.147382 -0.134293
v 0.120406 -0.147382 -0.149664
v 0.120406 -0.147382 -0.165036
v 0.120406 -0.147382 -0.180407
v 0.120406 -0.147382 -0.195778
v 0.120406 -0.147382 -0.241892
v 0.120406 -0.147382 -0.257263
v 0.120406 -0.147382 -0.272634
v 0.120406 -0.147382 -0.288006
v 0.120406 -0.147382 -0.334119
v 0.120406 -0.147382 -0.349490
v 0.120406 -0.147382 -0.318748
v 0.120406 -0.147382 -0.364862
v 0.120406 -0.147382 -0.380233
v 0.120406 -0.147382 -0.441718
v 0.141941 -0.176517 -0.009097
v 0.143548 -0.175116 -0.027816
v 0.144860 -0.174671 -0.039795
v 0.072247 -0.113039 -0.026464
v 0.074037 -0.112738 -0.212311
v 0.120406 -0.147382 -0.303377
v 0.120406 -0.147382 -0.410975
v 0.120406 -0.147382 -0.226521
v 0.120406 -0.147382 -0.211149
v 0.103580 -0.135122 -0.472461
v 0.083865 -0.104383 0.300261
v 0.104022 -0.128258 0.310604
v 0.081370 -0.103452 0.264341
v 0.081370 -0.103452 0.264341
v 0.135443 -0.181814 0.230655
v 0.134146 -0.182413 0.210998
v 0.078756 -0.108376 0.215367
v 0.138170 -0.180276 0.255854
v 0.140602 -0.178092 0.277494
v 0.142015 -0.176216 0.293019
v 0.144924 -0.173536 0.327007
v 0.143026 -0.174854 0.304655
v 0.129146 -0.156219 0.322111
v 0.143026 -0.174854 0.304655
v 0.123287 -0.150013 0.320389
v 0.071413 -0.113564 0.025370
v 0.104796 -0.148282 0.187339
v 0.070325 -0.112210 -0.001446
v 0.069990 -0.112531 0.052171
v 0.071175 -0.113715 0.078712
v 0.070080 -0.112334 0.106111
v 0.073527 -0.109710 0.159331
v 0.077752 -0.109581 0.199011
v 0.072907 -0.112624 0.129576
v 0.133506 -0.183012 0.192545
v 0.132784 -0.183275 0.161422
v 0.133039 -0.183277 0.137862
v 0.133575 -0.182618 0.112220
v 0.134853 -0.182018 0.086068
v 0.135999 -0.180885 0.064227
v 0.138178 -0.179649 0.036518
v 0.139728 -0.178279 0.017154
v 0.080651 -0.106190 0.238326
v 0.073353 -0.113223 -0.472461
v 0.084659 -0.121392 -0.472461
v 0.072935 -0.113359 -0.459453
v 0.147225 -0.162039 -0.087633
v 0.150732 -0.164624 -0.087293
v 0.127506 -0.150662 -0.086855
v 0.143382 -0.159202 -0.088100
v 0.131068 -0.149873 -0.089874
v 0.135365 -0.153079 -0.089187
v 0.126540 -0.147825 -0.091832
v 0.154210 -0.167189 -0.086931
v 0.152182 -0.169044 -0.080798
v 0.139591 -0.156320 -0.088614
v 0.120406 -0.147382 -0.426347
v 0.095804 -0.129471 -0.472461
v 0.120406 -0.147382 -0.103551
v 0.120866 -0.146923 -0.098614
v 0.114631 -0.144474 -0.094849
v 0.120406 -0.147382 -0.118922
v 0.120406 -0.147382 -0.472461
v 0.120406 -0.147382 -0.457089
v 0.108113 -0.138421 -0.472461
v 0.074031 -0.112742 -0.186296
v 0.075694 -0.111562 -0.134267
v 0.074393 -0.112443 -0.173289
v 0.074038 -0.112666 -0.199304
v 0.073564 -0.113073 -0.238326
v 0.094982 -0.133192 -0.288861
v 0.073852 -0.112783 -0.225319
v 0.073187 -0.113201 -0.251334
v 0.070702 -0.114928 -0.394416
v 0.120406 -0.147382 -0.395604
v 0.069969 -0.115223 -0.381408
v 0.070966 -0.114596 -0.407423
v 0.072168 -0.114064 -0.290356
v 0.072607 -0.113565 -0.277349
v 0.071441 -0.114298 -0.303364
v 0.072603 -0.113755 -0.446446
v 0.071897 -0.114011 -0.433438
v 0.071824 -0.114308 -0.342386
v 0.071554 -0.114227 -0.329378
v 0.070461 -0.114914 -0.355393
v 0.074598 -0.112098 -0.081618
v 0.111746 -0.143623 -0.082177
v 0.071700 -0.111170 -0.054992
v 0.075798 -0.111470 -0.096521
v 0.071553 -0.114458 -0.420431
v 0.070528 -0.115024 -0.368401
v 0.073094 -0.113407 -0.264341
v 0.074636 -0.112312 -0.160281
v 0.074983 -0.112073 -0.147274
v 0.076278 -0.111258 -0.121259
v 0.106682 -0.141526 -0.120718
v 0.076433 -0.111038 -0.108252
v 0.071655 -0.114401 -0.316371
v 0.146844 -0.173670 -0.061410
v 0.148177 -0.172559 -0.068129
v 0.146018 -0.174240 -0.051061
v 0.150296 -0.170718 -0.074797
v 0.122213 -0.145575 -0.094013
v 0.115969 -0.144845 -0.090501
v 0.120406 -0.147382 -0.134293
v 0.120406 -0.147382 -0.149664
v 0.120406 -0.147382 -0.165036
v 0.120406 -0.147382 -0.180407
v 0.120406 -0.147382 -0.195778
v 0.120406 -0.147382 -0.241892
v 0.120406 -0.147382 -0.257263
v 0.120406 -0.147382 -0.272634
v 0.120406 -0.147382 -0.288006
v 0.120406 -0.147382 -0.334119
v 0.120406 -0.147382 -0.349490
v 0.120406 -0.147382 -0.318748
v 0.120406 -0.147382 -0.364862
v 0.120406 -0.147382 -0.380233
v 0.120406 -0.147382 -0.441718
v 0.143548 -0.175116 -0.027816
v 0.141941 -0.176517 -0.009097
v 0.144860 -0.174671 -0.039795
v 0.072247 -0.113039 -0.026464
v 0.074037 -0.112738 -0.212311
v 0.120406 -0.147382 -0.303377
v 0.120406 -0.147382 -0.410975
v 0.120406 -0.147382 -0.226521
v 0.120406 -0.147382 -0.211149
v 0.103580 -0.135122 -0.472461
v 0.135443 -0.181814 0.230655
v 0.078756 -0.108376 0.215367
v 0.134146 -0.182413 0.210998
v 0.138170 -0.180276 0.255854
v 0.140602 -0.178092 0.277494
v 0.142015 -0.176216 0.293019
v 0.071413 -0.113564 0.025370
v 0.070325 -0.112210 -0.001446
v 0.104796 -0.148282 0.187339
v 0.069990 -0.112531 0.052171
v 0.071175 -0.113715 0.078712
v 0.070080 -0.112334 0.106111
v 0.073527 -0.109710 0.159331
v 0.077752 -0.109581 0.199011
v 0.072907 -0.112624 0.129576
v 0.133506 -0.183012 0.192545
v 0.132784 -0.183275 0.161422
v 0.133039 -0.183277 0.137862
v 0.133575 -0.182618 0.112220
v 0.134853 -0.182018 0.086068
v 0.135999 -0.180885 0.064227
v 0.138178 -0.179649 0.036518
v 0.139728 -0.178279 0.017154
v 0.080651 -0.106190 0.238326
vn -0.5854 -0.8103 -0.0273
vn -0.3744 -0.6009 -0.7062
vn -0.3750 -0.6014 -0.7055
vn -0.3749 -0.6015 -0.7055
vn -0.3990 -0.6474 -0.6494
vn -0.3991 -0.6473 -0.6494
vn -0.3995 -0.6480 -0.6484
vn -0.3930 -0.6632 -0.6370
vn -0.1950 -0.8679 -0.4569
vn -0.5167 -0.7571 -0.3998
vn -0.4731 -0.7739 -0.4210
vn -0.3947 -0.6372 -0.6619
vn -0.3937 -0.6366 -0.6632
vn -0.3993 -0.6383 -0.6581
vn -0.5759 -0.8174 -0.0143
vn -0.5869 -0.8096 -0.0014
vn -0.5878 -0.8090 -0.0014
vn -0.5873 -0.8094 -0.0007
vn -0.3016 -0.9463 0.1161
vn -0.4497 -0.8932 0.0000
vn -0.5891 -0.8081 0.0000
vn -0.5891 -0.8080 -0.0003
vn -0.0754 -0.9968 0.0250
vn -0.0732 -0.9970 0.0249
vn 0.6600 -0.7512 -0.0040
vn 0.6592 -0.7520 -0.0041
vn 0.6592 -0.7520 -0.0040
vn -0.6414 -0.7667 0.0274
vn -0.6448 -0.7637 0.0311
vn -0.6441 -0.7643 0.0313
vn -0.6507 -0.7589 0.0263
vn -0.5469 -0.8357 -0.0498
vn -0.5470 -0.8365 -0.0325
vn -0.5468 -0.8366 -0.0327
vn -0.5469 -0.8366 -0.0330
vn -0.6436 -0.7637 0.0503
vn -0.6436 -0.7637 0.0504
vn -0.6436 -0.7636 0.0510
vn -0.6436 -0.7637 0.0497
vn -0.5637 -0.8247 -0.0461
vn -0.5624 -0.8259 -0.0402
vn -0.5615 -0.8263 -0.0434
vn -0.5637 -0.8250 -0.0395
vn -0.6208 -0.7840 -0.0080
vn -0.6221 -0.7829 -0.0075
vn -0.6198 -0.7847 -0.0061
vn -0.7682 -0.6307 0.1099
vn -0.6468 -0.7614 -0.0439
vn -0.6450 -0.7633 -0.0378
vn -0.6437 -0.7640 -0.0429
vn -0.6455 -0.7591 -0.0840
vn -0.5619 -0.8260 -0.0433
vn -0.5426 -0.8400 0.0043
vn -0.5301 -0.8472 0.0357
vn -0.6602 -0.7509 0.0166
vn -0.6493 -0.7598 0.0335
vn 0.5973 -0.8020 -0.0012
vn 0.5973 -0.8020 -0.0011
vn 0.5998 -0.8001 -0.0014
vn 0.6482 -0.7614 -0.0044
vn 0.6498 -0.7601 -0.0045
vn -0.7056 -0.7084 0.0204
vn -0.6230 -0.7822 -0.0044
vn -0.6244 -0.7811 -0.0041
vn -0.5920 -0.7679 -0.2444
vn -0.7078 -0.7000 -0.0950
vn -0.7030 -0.7047 -0.0958
vn -0.7010 -0.7059 -0.1018
vn -0.4935 -0.7854 -0.3737
vn -0.4933 -0.7854 -0.3739
vn -0.4934 -0.7854 -0.3738
vn -0.4932 -0.7854 -0.3741
vn -0.1708 -0.9310 0.3227
vn -0.2945 -0.8939 -0.3378
vn -0.1391 -0.9894 -0.0416
vn -0.3925 -0.9198 0.0000
vn -0.6252 -0.7804 0.0000
vn -0.4874 -0.8732 0.0000
vn -0.6840 -0.7207 -0.1127
vn -0.6981 -0.7090 -0.0998
vn -0.6995 -0.7072 -0.1029
vn -0.6501 -0.7489 -0.1283
vn -0.3926 -0.6303 -0.6698
vn -0.5576 -0.8298 -0.0225
vn -0.5716 -0.8182 0.0622
vn -0.4680 -0.8038 -0.3673
vn -0.6449 -0.7555 0.1152
vn -0.6091 -0.7685 -0.1962
vn -0.2709 -0.9626 0.0039
vn -0.6499 -0.7435 -0.1577
vn -0.5589 -0.8293 0.0000
vn -0.5468 -0.8366 -0.0335
vn -0.9552 0.0170 0.2955
vn -0.9554 0.0129 0.2950
vn -0.5985 -0.8011 -0.0000
vn 0.4114 -0.9115 0.0050
vn 0.4103 -0.9119 0.0050
vn -0.5987 -0.8006 0.0248
vn -0.5881 -0.8088 -0.0005
vn -0.3259 -0.9070 0.2668
vn -0.7215 -0.6895 -0.0644
vn -0.6445 -0.7637 -0.0377
vn -0.3942 -0.9189 0.0164
vn -0.6755 -0.7372 0.0122
vn -0.7051 -0.7074 0.0482
vn -0.7714 -0.6352 0.0371
vn 0.7714 0.6352 -0.0371
vn -0.7967 -0.6002 0.0709
vn -0.7663 -0.6309 0.1214
vn -0.7472 -0.6477 0.1493
vn -0.7472 -0.6482 0.1467
vn -0.7500 -0.6459 0.1425
vn -0.7489 -0.6474 0.1414
vn -0.8045 -0.5888 0.0782
vn -0.7495 -0.6540 0.1022
vn 0.7495 0.6540 -0.1022
vn -0.7383 -0.6634 0.1212
vn -0.7061 -0.7080 -0.0089
vn -0.7035 -0.7107 -0.0073
vn -0.7027 -0.7115 -0.0076
vn -0.6983 -0.7157 -0.0095
vn -0.7185 -0.6955 0.0011
vn -0.7197 -0.6942 0.0013
vn -0.7151 -0.6990 0.0046
vn -0.7257 -0.6880 0.0057
vn -0.8040 -0.5882 0.0875
vn -0.8039 -0.5877 0.0918
vn -0.8032 -0.5892 0.0878
vn -0.8005 -0.5946 0.0749
vn -0.8028 -0.5890 0.0927
vn -0.7734 -0.6322 0.0473
vn -0.7722 -0.6349 0.0233
vn -0.7839 -0.6208 -0.0084
vn -0.7995 -0.5998 -0.0321
vn -0.8195 -0.5706 -0.0531
vn -0.8421 -0.5344 -0.0719
vn -0.8671 -0.4899 -0.0900
vn -0.8872 -0.4497 -0.1028
vn -0.8889 -0.4461 -0.1038
vn -0.8927 -0.4388 -0.1031
vn -0.8906 -0.4426 -0.1048
vn -0.6695 -0.7424 -0.0268
vn -0.6692 -0.7429 -0.0198
vn -0.7918 -0.5993 0.1177
vn -0.8107 -0.5784 0.0905
vn -0.7612 -0.6453 0.0639
vn -0.7503 -0.6460 0.1408
vn -0.8028 -0.5902 0.0843
vn -0.7978 -0.5904 0.1221
vn 0.5854 0.8103 0.0273
vn 0.3744 0.6009 0.7062
vn 0.3749 0.6015 0.7055
vn 0.3750 0.6014 0.7055
vn 0.3990 0.6474 0.6494
vn 0.3995 0.6480 0.6484
vn 0.3991 0.6473 0.6494
vn 0.3930 0.6632 0.6370
vn 0.1950 0.8679 0.4569
vn 0.5167 0.7571 0.3998
vn 0.4731 0.7739 0.4210
vn 0.3947 0.6372 0.6619
vn 0.3993 0.6383 0.6581
vn 0.3937 0.6366 0.6632
vn 0.5759 0.8174 0.0143
vn 0.5869 0.8096 0.0014
vn 0.5881 0.8088 0.0002
vn 0.5878 0.8090 0.0014
vn 0.3016 0.9463 -0.1161
vn 0.4497 0.8932 0.0000
vn 0.5891 0.8081 0.0000
vn 0.0754 0.9968 -0.0250
vn 0.0732 0.9970 -0.0249
vn -0.6600 0.7512 0.0040
vn -0.6592 0.7520 0.0040
vn -0.6592 0.7520 0.0041
vn 0.6414 0.7667 -0.0274
vn 0.6441 0.7643 -0.0313
vn 0.6448 0.7637 -0.0311
vn 0.6507 0.7589 -0.0263
vn 0.5469 0.8357 0.0498
vn 0.5470 0.8365 0.0325
vn 0.5469 0.8366 0.0330
vn 0.5468 0.8366 0.0327
vn 0.6436 0.7637 -0.0503
vn 0.6436 0.7636 -0.0510
vn 0.6436 0.7637 -0.0504
vn 0.6436 0.7637 -0.0497
vn 0.5637 0.8247 0.0461
vn 0.5615 0.8263 0.0434
vn 0.5624 0.8259 0.0402
vn 0.5637 0.8250 0.0395
vn 0.6208 0.7840 0.0080
vn 0.6198 0.7847 0.0061
vn 0.6221 0.7829 0.0075
vn 0.7682 0.6307 -0.1099
vn 0.6468 0.7614 0.0439
vn 0.6437 0.7640 0.0429
vn 0.6450 0.7633 0.0379
vn 0.6455 0.7591 0.0840
vn 0.5619 0.8260 0.0433
vn 0.5426 0.8400 -0.0043
vn 0.5301 0.8472 -0.0357
vn 0.6602 0.7509 -0.0166
vn 0.6493 0.7598 -0.0335
vn -0.5973 0.8020 0.0012
vn -0.5998 0.8001 0.0014
vn -0.5973 0.8020 0.0011
vn -0.6482 0.7614 0.0044
vn -0.6498 0.7601 0.0045
vn 0.7056 0.7084 -0.0204
vn 0.6230 0.7822 0.0044
vn 0.6244 0.7811 0.0041
vn 0.5920 0.7679 0.2444
vn 0.7078 0.7000 0.0950
vn 0.7010 0.7059 0.1018
vn 0.7029 0.7048 0.0958
vn 0.4935 0.7854 0.3737
vn 0.4934 0.7854 0.3738
vn 0.4933 0.7854 0.3739
vn 0.4932 0.7854 0.3741
vn 0.1708 0.9310 -0.3227
vn 0.2945 0.8939 0.3378
vn 0.1391 0.9894 0.0416
vn 0.3925 0.9198 0.0000
vn 0.6252 0.7804 0.0000
vn 0.4874 0.8732 0.0000
vn 0.6840 0.7207 0.1127
vn 0.6995 0.7072 0.1029
vn 0.6981 0.7090 0.0998
vn 0.6501 0.7489 0.1283
vn 0.3926 0.6303 0.6698
vn 0.5576 0.8298 0.0225
vn 0.5716 0.8182 -0.0622
vn 0.4680 0.8038 0.3673
vn 0.6449 0.7555 -0.1152
vn 0.6091 0.7685 0.1962
vn 0.2709 0.9626 -0.0039
vn 0.6499 0.7435 0.1577
vn 0.5589 0.8293 0.0000
vn 0.5468 0.8366 0.0335
vn 0.9552 -0.0170 -0.2955
vn 0.9554 -0.0129 -0.2950
vn 0.5985 0.8011 0.0000
vn -0.4114 0.9115 -0.0050
vn -0.4103 0.9119 -0.0050
vn 0.5987 0.8006 -0.0248
vn 0.5884 0.8085 0.0003
vn 0.5881 0.8088 0.0005
vn 0.3259 0.9070 -0.2668
vn 0.7215 0.6895 0.0644
vn 0.6445 0.7637 0.0377
vn 0.3942 0.9189 -0.0164
vn 0.6755 0.7372 -0.0122
vn 0.7051 0.7074 -0.0482
vn 0.7967 0.6002 -0.0709
vn 0.7663 0.6309 -0.1214
vn 0.7472 0.6477 -0.1493
vn 0.7501 0.6458 -0.1424
vn 0.7472 0.6482 -0.1467
vn 0.7489 0.6474 -0.1414
vn 0.8045 0.5888 -0.0782
vn 0.8026 0.5908 -0.0829
vn 0.8033 0.5896 -0.0843
vn 0.7383 0.6634 -0.1212
vn 0.7062 0.7080 0.0089
vn 0.7027 0.7115 0.0076
vn 0.7035 0.7107 0.0073
vn 0.6983 0.7157 0.0095
vn 0.7185 0.6955 -0.0011
vn 0.7151 0.6990 -0.0046
vn 0.7197 0.6942 -0.0013
vn 0.7257 0.6880 -0.0057
vn 0.8040 0.5882 -0.0875
vn 0.8032 0.5892 -0.0878
vn 0.8039 0.5877 -0.0918
vn 0.8005 0.5946 -0.0749
vn 0.8028 0.5890 -0.0927
vn 0.7734 0.6322 -0.0473
vn 0.7722 0.6349 -0.0233
vn 0.7839 0.6208 0.0084
vn 0.7995 0.5998 0.0321
vn 0.8195 0.5706 0.0531
vn 0.8421 0.5344 0.0719
vn 0.8671 0.4899 0.0900
vn 0.8872 0.4497 0.1028
vn 0.8927 0.4388 0.1031
vn 0.8889 0.4461 0.1038
vn 0.8906 0.4426 0.1048
vn 0.6719 0.7403 0.0230
vn 0.6695 0.7424 0.0268
vn 0.6693 0.7426 0.0233
vn 0.6692 0.7429 0.0198
vn 0.7918 0.5993 -0.1177
vn 0.8107 0.5784 -0.0905
vn 0.7612 0.6453 -0.0639
vn 0.7503 0.6460 -0.1408
vn 0.8028 0.5902 -0.0843
vn 0.7978 0.5904 -0.1221
usemtl None.136
s 1
f 1//1 3//1 2//1
f 4//2 6//3 5//4
f 4//5 5//6 7//7
f 8//8 9//8 5//8
f 8//9 5//9 10//9
f 6//10 12//10 11//10
f 6//11 11//11 5//11
f 7//12 5//13 13//14
f 3//15 14//15 2//15
f 3//16 15//17 14//18
f 16//19 18//19 17//19
f 16//20 17//20 19//20
f 20//21 22//21 21//22
f 23//23 25//23 24//24
f 23//25 26//26 25//27
f 27//28 29//29 28//30
f 27//28 30//31 29//29
f 31//32 33//32 32//32
f 31//33 34//34 33//35
f 35//36 29//37 36//38
f 35//36 37//39 29//37
f 38//40 14//41 39//42
f 38//40 2//43 14//41
f 40//44 29//45 41//46
f 40//47 42//47 29//47
f 43//48 45//49 44//50
f 43//51 46//51 45//51
f 47//52 39//42 14//41
f 48//53 33//53 42//53
f 48//54 32//54 33//54
f 49//55 29//55 30//55
f 49//56 36//56 29//56
f 50//57 25//58 51//59
f 50//60 24//61 25//61
f 52//62 54//62 53//62
f 55//63 41//46 29//45
f 55//63 29//45 37//64
f 56//65 5//65 57//65
f 56//66 58//67 5//68
f 57//69 5//70 59//71
f 11//72 59//71 5//70
f 18//73 60//73 17//73
f 60//74 10//74 61//74
f 60//75 61//75 17//75
f 19//76 54//76 62//76
f 62//76 54//76 63//76
f 64//77 25//77 65//77
f 64//77 63//77 25//77
f 65//77 25//77 66//77
f 67//78 29//78 68//78
f 68//78 29//78 69//78
f 69//78 29//78 70//78
f 71//78 29//78 72//78
f 71//78 73//78 29//78
f 72//78 29//78 74//78
f 74//78 29//78 75//78
f 75//78 29//78 33//78
f 22//21 76//21 21//22
f 5//79 78//79 77//79
f 5//68 79//80 78//81
f 5//82 77//82 80//82
f 13//14 5//13 9//83
f 33//84 29//84 42//84
f 5//68 58//67 79//80
f 81//85 29//85 67//85
f 5//86 45//86 10//86
f 61//87 46//87 54//87
f 61//88 45//88 46//88
f 10//89 45//89 61//89
f 63//90 54//90 25//90
f 70//78 29//78 82//78
f 82//78 29//78 73//78
f 47//91 14//91 83//91
f 47//92 33//35 34//34
f 47//91 83//91 33//91
f 61//93 54//93 17//94
f 84//95 81//95 67//95
f 84//95 85//95 81//95
f 25//96 26//97 81//96
f 76//21 14//18 21//22
f 85//98 25//98 81//98
f 85//77 66//77 25//77
f 21//22 14//18 86//99
f 14//18 15//17 86//99
f 5//100 80//100 45//100
f 54//101 46//101 53//101
f 45//49 80//102 44//50
f 54//103 19//103 17//103
f 28//104 29//104 81//104
f 25//105 54//105 52//105
f 87//106 89//106 88//106
f 87//107 88//107 90//107
f 91//108 93//108 92//108
f 94//109 88//109 91//109
f 94//110 95//111 88//112
f 95//111 96//113 88//112
f 88//114 89//114 91//114
f 97//115 99//115 98//115
f 97//116 100//116 99//116
f 99//117 101//117 98//117
f 102//118 104//119 103//120
f 102//118 103//120 105//121
f 105//122 103//123 106//124
f 106//124 103//123 107//125
f 108//126 103//127 109//128
f 108//129 110//129 103//129
f 109//128 103//127 93//130
f 92//131 103//131 111//131
f 111//132 103//132 112//132
f 112//133 103//133 113//133
f 114//134 113//134 103//134
f 115//135 114//135 103//135
f 115//136 103//136 116//136
f 117//137 116//137 103//137
f 117//138 103//139 118//140
f 118//140 103//139 77//141
f 77//142 104//142 80//142
f 104//143 77//143 103//143
f 92//144 93//144 103//144
f 103//145 110//145 107//145
f 98//146 101//146 88//146
f 98//147 88//112 96//113
f 91//148 89//148 119//148
f 91//149 119//149 93//149
f 120//150 122//150 121//150
f 123//151 125//152 124//153
f 123//154 126//155 125//156
f 127//157 125//157 128//157
f 127//158 129//158 125//158
f 124//159 131//159 130//159
f 124//160 125//160 131//160
f 126//161 132//162 125//163
f 121//164 122//164 133//164
f 121//165 133//166 134//167
f 135//168 137//168 136//168
f 135//169 138//169 137//169
f 139//170 141//170 140//170
f 142//171 144//172 143//171
f 142//173 143//174 145//175
f 146//176 148//177 147//178
f 146//176 147//178 149//179
f 150//180 152//180 151//180
f 150//181 151//182 153//183
f 154//184 155//185 147//186
f 154//184 147//186 156//187
f 157//188 158//189 133//190
f 157//188 133//190 122//191
f 159//192 160//193 147//194
f 159//195 147//195 161//195
f 162//196 164//197 163//198
f 162//199 163//199 165//199
f 166//200 133//190 158//189
f 167//201 161//201 151//201
f 167//202 151//202 152//202
f 168//203 149//203 147//203
f 168//204 147//204 155//204
f 169//205 170//206 143//207
f 169//208 143//209 144//209
f 171//210 173//210 172//210
f 174//211 147//194 160//193
f 174//211 156//212 147//194
f 175//213 176//213 125//213
f 175//214 125//215 177//216
f 176//217 178//218 125//219
f 131//220 125//219 178//218
f 136//221 137//221 179//221
f 179//222 180//222 129//222
f 179//223 137//223 180//223
f 138//224 181//224 172//224
f 181//224 182//224 172//224
f 183//225 184//225 143//225
f 183//225 143//225 182//225
f 184//225 185//225 143//225
f 186//226 187//226 147//226
f 187//226 188//226 147//226
f 188//226 189//226 147//226
f 190//226 191//226 147//226
f 190//226 147//226 192//226
f 191//226 193//226 147//226
f 193//226 194//226 147//226
f 194//226 151//226 147//226
f 140//170 141//170 195//170
f 125//227 197//227 196//227
f 125//215 196//228 198//229
f 125//230 199//230 197//230
f 132//162 128//231 125//163
f 151//232 161//232 147//232
f 125//215 198//229 177//216
f 200//233 186//233 147//233
f 125//234 129//234 163//234
f 180//235 172//235 165//235
f 180//236 165//236 163//236
f 129//237 180//237 163//237
f 182//238 143//238 172//238
f 189//226 201//226 147//226
f 201//226 192//226 147//226
f 166//239 202//239 133//239
f 166//240 153//183 151//182
f 166//239 151//239 202//239
f 180//241 137//242 172//241
f 203//243 186//243 200//243
f 203//243 200//243 204//243
f 143//244 200//244 145//245
f 195//170 141//170 133//170
f 204//246 200//246 143//246
f 204//225 143//225 185//225
f 141//247 205//248 133//166
f 133//166 205//248 134//167
f 125//249 163//249 199//249
f 172//250 173//250 165//250
f 163//198 164//197 199//251
f 172//252 137//252 138//252
f 148//253 200//253 147//253
f 143//254 171//254 172//254
f 206//255 208//255 207//255
f 209//256 206//256 88//256
f 209//257 88//258 210//259
f 210//259 88//258 211//260
f 88//261 206//262 90//263
f 99//264 100//264 101//264
f 212//265 214//266 213//267
f 212//265 215//268 214//266
f 215//269 216//270 214//271
f 216//270 217//272 214//271
f 218//273 219//274 214//275
f 218//276 214//276 220//276
f 219//274 207//277 214//275
f 208//278 221//278 214//278
f 221//279 222//279 214//279
f 222//280 223//280 214//280
f 224//281 214//281 223//281
f 225//282 214//282 224//282
f 225//283 226//283 214//283
f 227//284 214//284 226//284
f 227//285 228//286 214//287
f 228//286 197//288 214//287
f 197//289 199//290 213//291
f 213//291 214//292 197//289
f 208//293 214//293 207//293
f 214//294 217//294 220//294
f 100//295 88//295 101//295
f 100//296 211//260 88//258
f 206//262 229//297 90//263
f 206//298 207//298 229//298
