# Blender v2.79 (sub 0) OBJ File: ''
# www.blender.org
mtllib crack_restart_keyway_425.mtl
o crack_restart_keyway_425
v 0.073548 -0.113085 -0.472461
v 0.072989 -0.113325 -0.459453
v 0.084886 -0.121249 -0.472461
v 0.147220 -0.162042 -0.087638
v 0.152203 -0.169025 -0.080786
v 0.150790 -0.164571 -0.087242
v 0.141580 -0.163512 -0.078503
v 0.143333 -0.159231 -0.088148
v 0.154210 -0.167189 -0.086931
v 0.139534 -0.156355 -0.088659
v 0.120406 -0.147382 -0.103551
v 0.120406 -0.147382 -0.118922
v 0.111641 -0.143814 -0.082087
v 0.120866 -0.146923 -0.098614
v 0.120406 -0.147382 -0.472461
v 0.109002 -0.138634 -0.460027
v 0.120406 -0.147382 -0.457089
v 0.108260 -0.138303 -0.472461
v 0.073520 -0.113105 -0.238326
v 0.084957 -0.121652 -0.216985
v 0.073106 -0.113252 -0.251334
v 0.073893 -0.112757 -0.225319
v 0.072475 -0.113846 -0.290356
v 0.072706 -0.113503 -0.277349
v 0.120406 -0.147382 -0.334119
v 0.071812 -0.114065 -0.303364
v 0.072667 -0.113710 -0.446446
v 0.071859 -0.114035 -0.433438
v 0.120406 -0.147382 -0.410975
v 0.071449 -0.114515 -0.342386
v 0.070524 -0.114874 -0.355393
v 0.071429 -0.114306 -0.329378
v 0.071424 -0.114529 -0.420431
v 0.070911 -0.114631 -0.407423
v 0.070865 -0.114838 -0.368401
v 0.070761 -0.114895 -0.394416
v 0.070281 -0.115026 -0.381408
v 0.072985 -0.113484 -0.264341
v 0.076520 -0.111106 -0.121259
v 0.075547 -0.111667 -0.134267
v 0.077516 -0.110269 -0.108252
v 0.078390 -0.109887 -0.094934
v 0.075632 -0.111311 -0.082242
v 0.071623 -0.114419 -0.316371
v 0.074117 -0.112681 -0.212311
v 0.074022 -0.112676 -0.199304
v 0.146528 -0.173948 -0.061449
v 0.119467 -0.169845 0.010851
v 0.144465 -0.175606 -0.052991
v 0.148192 -0.172546 -0.068121
v 0.150008 -0.170969 -0.074955
v 0.122213 -0.145575 -0.094013
v 0.120406 -0.147382 -0.134293
v 0.120406 -0.147382 -0.149664
v 0.120406 -0.147382 -0.165036
v 0.120406 -0.147382 -0.180407
v 0.120406 -0.147382 -0.195778
v 0.074673 -0.112267 -0.173289
v 0.120406 -0.147382 -0.211149
v 0.120406 -0.147382 -0.226521
v 0.120406 -0.147382 -0.241892
v 0.095744 -0.130492 -0.220456
v 0.120406 -0.147382 -0.257263
v 0.120406 -0.147382 -0.272634
v 0.120406 -0.147382 -0.288006
v 0.104140 -0.140730 -0.280918
v 0.120406 -0.147382 -0.303377
v 0.120406 -0.147382 -0.318748
v 0.120406 -0.147382 -0.349490
v 0.120406 -0.147382 -0.364862
v 0.120406 -0.147382 -0.380233
v 0.120406 -0.147382 -0.395604
v 0.120406 -0.147382 -0.441718
v 0.135311 -0.153112 -0.089233
v 0.129327 -0.162708 -0.060062
v 0.100799 -0.154408 0.002001
v 0.126589 -0.147776 -0.091764
v 0.131068 -0.149873 -0.089874
v 0.074397 -0.112511 -0.184886
v 0.074313 -0.112645 -0.191438
v 0.074890 -0.112259 -0.166616
v 0.096011 -0.129306 -0.472461
v 0.120406 -0.147382 -0.426347
v 0.103504 -0.134800 -0.472461
v 0.075344 -0.111956 -0.141537
v 0.075017 -0.112051 -0.147274
v 0.074575 -0.118693 -0.062076
v 0.071735 -0.121839 -0.047612
v 0.066464 -0.116305 -0.033278
v 0.141905 -0.177157 -0.040208
v 0.142726 -0.176785 -0.044436
v 0.140860 -0.177730 -0.035885
v 0.139389 -0.178486 -0.027370
v 0.137453 -0.180125 -0.013759
v 0.136430 -0.180942 -0.006280
v 0.075042 -0.112158 -0.153634
v 0.074916 -0.112114 -0.160281
v 0.070511 -0.113417 -0.065651
v 0.143800 -0.176029 -0.049428
v 0.134133 -0.182776 0.013942
v 0.136430 -0.180942 -0.006280
v 0.071735 -0.121839 -0.047612
v 0.074575 -0.118693 -0.062076
v 0.070511 -0.113417 -0.065651
v 0.073548 -0.113085 -0.472461
v 0.084886 -0.121249 -0.472461
v 0.072989 -0.113325 -0.459453
v 0.147220 -0.162042 -0.087638
v 0.150790 -0.164571 -0.087242
v 0.152203 -0.169025 -0.080786
v 0.141580 -0.163512 -0.078503
v 0.143333 -0.159231 -0.088148
v 0.154210 -0.167189 -0.086931
v 0.139534 -0.156355 -0.088659
v 0.120406 -0.147382 -0.103551
v 0.111641 -0.143814 -0.082087
v 0.120406 -0.147382 -0.118922
v 0.120866 -0.146923 -0.098614
v 0.120406 -0.147382 -0.472461
v 0.120406 -0.147382 -0.457089
v 0.109002 -0.138634 -0.460027
v 0.108260 -0.138303 -0.472461
v 0.073520 -0.113105 -0.238326
v 0.073106 -0.113252 -0.251334
v 0.084957 -0.121652 -0.216985
v 0.073893 -0.112757 -0.225319
v 0.072475 -0.113846 -0.290356
v 0.120406 -0.147382 -0.334119
v 0.072706 -0.113503 -0.277349
v 0.071812 -0.114065 -0.303364
v 0.072667 -0.113710 -0.446446
v 0.120406 -0.147382 -0.410975
v 0.071859 -0.114035 -0.433438
v 0.071449 -0.114515 -0.342386
v 0.070524 -0.114874 -0.355393
v 0.071429 -0.114306 -0.329378
v 0.071424 -0.114529 -0.420431
v 0.070911 -0.114631 -0.407423
v 0.070865 -0.114838 -0.368401
v 0.070281 -0.115026 -0.381408
v 0.070761 -0.114895 -0.394416
v 0.072985 -0.113484 -0.264341
v 0.076520 -0.111106 -0.121259
v 0.075547 -0.111667 -0.134267
v 0.077516 -0.110269 -0.108252
v 0.078390 -0.109887 -0.094934
v 0.075632 -0.111311 -0.082242
v 0.071623 -0.114419 -0.316371
v 0.074117 -0.112681 -0.212311
v 0.074022 -0.112676 -0.199304
v 0.146528 -0.173948 -0.061449
v 0.144465 -0.175606 -0.052991
v 0.148192 -0.172546 -0.068121
v 0.150008 -0.170969 -0.074955
v 0.122213 -0.145575 -0.094013
v 0.120406 -0.147382 -0.134293
v 0.120406 -0.147382 -0.149664
v 0.120406 -0.147382 -0.165036
v 0.120406 -0.147382 -0.180407
v 0.074673 -0.112267 -0.173289
v 0.120406 -0.147382 -0.195778
v 0.120406 -0.147382 -0.211149
v 0.120406 -0.147382 -0.226521
v 0.095744 -0.130492 -0.220456
v 0.120406 -0.147382 -0.241892
v 0.120406 -0.147382 -0.257263
v 0.120406 -0.147382 -0.272634
v 0.104140 -0.140730 -0.280918
v 0.120406 -0.147382 -0.288006
v 0.120406 -0.147382 -0.303377
v 0.120406 -0.147382 -0.318748
v 0.120406 -0.147382 -0.349490
v 0.120406 -0.147382 -0.364862
v 0.120406 -0.147382 -0.380233
v 0.120406 -0.147382 -0.395604
v 0.120406 -0.147382 -0.441718
v 0.129327 -0.162708 -0.060062
v 0.135311 -0.153112 -0.089233
v 0.126589 -0.147776 -0.091764
v 0.131068 -0.149873 -0.089874
v 0.074397 -0.112511 -0.184886
v 0.074313 -0.112645 -0.191438
v 0.074890 -0.112259 -0.166616
v 0.096011 -0.129306 -0.472461
v 0.120406 -0.147382 -0.426347
v 0.103504 -0.134800 -0.472461
v 0.075344 -0.111956 -0.141537
v 0.075017 -0.112051 -0.147274
v 0.142726 -0.176785 -0.044436
v 0.141905 -0.177157 -0.040208
v 0.140860 -0.177730 -0.035885
v 0.139389 -0.178486 -0.027370
v 0.137453 -0.180125 -0.013759
v 0.075042 -0.112158 -0.153634
v 0.074916 -0.112114 -0.160281
v 0.143800 -0.176029 -0.049428
vn -0.5839 -0.8109 -0.0401
vn -0.5833 -0.8114 -0.0385
vn -0.5824 -0.8119 -0.0397
vn -0.4936 -0.7625 -0.4183
vn -0.4940 -0.7625 -0.4178
vn -0.4935 -0.7627 -0.4181
vn -0.4878 -0.7635 -0.4233
vn -0.4873 -0.7635 -0.4237
vn -0.4904 -0.7594 -0.4275
vn -0.4927 -0.7586 -0.4263
vn -0.5347 -0.7457 -0.3974
vn -0.5094 -0.7484 -0.4248
vn -0.3770 -0.9262 0.0000
vn -0.1437 -0.9840 0.1049
vn -0.6087 -0.7934 0.0000
vn -0.6086 -0.7934 0.0000
vn -0.5986 -0.8009 0.0144
vn -0.5922 -0.8057 0.0142
vn -0.5957 -0.8031 0.0142
vn -0.6324 -0.7741 0.0289
vn -0.6437 -0.7643 0.0389
vn -0.5545 -0.8312 0.0405
vn -0.5479 -0.8360 0.0298
vn -0.5534 -0.8323 0.0318
vn -0.5462 -0.8370 0.0321
vn -0.5480 -0.8347 -0.0549
vn -0.5476 -0.8350 -0.0545
vn -0.5479 -0.8350 -0.0505
vn -0.5827 -0.8118 -0.0385
vn -0.5635 -0.8257 -0.0254
vn -0.5636 -0.8237 0.0628
vn -0.5588 -0.8292 0.0125
vn -0.5592 -0.8290 0.0069
vn -0.5595 -0.8288 0.0122
vn -0.5496 -0.8339 -0.0501
vn -0.5530 -0.8327 -0.0283
vn -0.5529 -0.8328 -0.0258
vn -0.5533 -0.8325 -0.0281
vn -0.5410 -0.8409 -0.0165
vn 0.2875 -0.9578 0.0010
vn 0.2869 -0.9580 0.0009
vn -0.5510 -0.8345 0.0040
vn -0.5480 -0.8365 -0.0006
vn -0.5510 -0.8345 0.0019
vn -0.6009 -0.7992 0.0141
vn -0.6157 -0.7877 0.0198
vn -0.7276 -0.6809 0.0838
vn -0.7353 -0.6704 0.0994
vn -0.7252 -0.6853 0.0672
vn -0.6526 -0.7241 -0.2231
vn -0.5519 -0.8333 0.0307
vn -0.5596 -0.8288 0.0011
vn -0.6387 -0.7695 -0.0044
vn -0.6335 -0.7736 0.0154
vn -0.8497 -0.4383 -0.2932
vn -0.6920 -0.6876 -0.2200
vn -0.5693 -0.7644 -0.3026
vn -0.5470 -0.7721 -0.3235
vn -0.4866 -0.7573 -0.4356
vn 0.1185 -0.9617 0.2471
vn -0.6090 -0.7932 0.0000
vn -0.6113 -0.7910 -0.0258
vn -0.5650 -0.8251 0.0000
vn -0.3785 -0.9256 0.0000
vn -0.4179 -0.9035 0.0950
vn -0.5791 -0.8153 0.0000
vn -0.5476 -0.8368 0.0000
vn -0.5366 -0.7627 -0.3610
vn -0.5338 -0.7647 -0.3610
vn -0.5361 -0.7626 -0.3619
vn -0.6068 -0.7021 -0.3726
vn -0.6080 -0.7742 -0.1759
vn -0.6590 -0.7310 -0.1771
vn -0.4450 -0.8244 -0.3499
vn -0.5308 -0.7667 -0.3611
vn -0.2474 -0.8846 -0.3953
vn -0.3630 -0.9128 -0.1870
vn -0.5985 -0.8005 0.0311
vn -0.6112 -0.7911 0.0240
vn -0.6116 -0.7908 0.0240
vn -0.6126 -0.7900 0.0254
vn -0.6812 -0.7317 0.0230
vn -0.6811 -0.7318 0.0229
vn -0.6832 -0.7300 0.0205
vn -0.5877 -0.8091 -0.0025
vn -0.5865 -0.8099 -0.0054
vn -0.5878 -0.8089 -0.0131
vn -0.5953 -0.8035 0.0000
vn -0.5913 -0.8064 0.0128
vn -0.5927 -0.8053 0.0126
vn -0.5703 -0.8212 -0.0202
vn -0.6491 -0.7156 -0.2582
vn -0.6518 -0.7575 0.0377
vn -0.2624 -0.9558 -0.1327
vn -0.5528 -0.8330 -0.0233
vn -0.7069 -0.7057 0.0487
vn -0.7050 -0.7073 0.0517
vn -0.7020 -0.7105 0.0479
vn -0.7054 -0.7069 0.0519
vn -0.3604 -0.8697 -0.3373
vn -0.7379 -0.6749 -0.0108
vn -0.4706 -0.8385 -0.2748
vn -0.9336 -0.2651 -0.2410
vn -0.6729 -0.7139 -0.1935
vn -0.7839 -0.5620 -0.2640
vn -0.5824 -0.7967 -0.1612
vn -0.6596 -0.7300 -0.1788
vn -0.6573 -0.7317 -0.1808
vn -0.6606 -0.7291 -0.1789
vn -0.6635 -0.7257 -0.1818
vn -0.6539 -0.7372 -0.1700
vn -0.6652 -0.7466 0.0099
vn -0.6616 -0.7498 0.0095
vn -0.6640 -0.7477 0.0088
vn -0.6626 -0.7489 0.0076
vn -0.6091 -0.7926 0.0257
vn -0.6529 -0.6996 -0.2903
vn -0.7312 -0.6653 -0.1508
vn -0.6978 -0.6843 -0.2115
vn -0.7766 -0.5763 -0.2544
vn -0.1210 -0.4872 0.8649
vn -0.5874 -0.8093 0.0000
vn -0.5907 -0.8061 0.0341
vn -0.6293 -0.7768 0.0228
vn -0.6769 -0.7358 0.0196
vn -0.6378 -0.7571 -0.1411
vn 0.6378 0.7571 0.1411
vn 0.7379 0.6749 0.0108
vn 0.9336 0.2653 0.2407
vn 0.9337 0.2648 0.2411
vn 0.9336 0.2654 0.2409
vn 0.7312 0.6653 0.1508
vn 0.5839 0.8109 0.0401
vn 0.4894 0.7597 0.4281
vn 0.4906 0.7646 0.4180
vn 0.4940 0.7625 0.4178
vn 0.4904 0.7595 0.4275
vn 0.4927 0.7586 0.4263
vn 0.5347 0.7457 0.3974
vn 0.5094 0.7484 0.4248
vn 0.3770 0.9262 0.0000
vn 0.1437 0.9840 -0.1049
vn 0.6087 0.7934 0.0000
vn 0.6086 0.7934 0.0000
vn 0.5986 0.8009 -0.0144
vn 0.5957 0.8031 -0.0142
vn 0.5921 0.8057 -0.0142
vn 0.6324 0.7741 -0.0289
vn 0.6437 0.7643 -0.0389
vn 0.5545 0.8312 -0.0406
vn 0.5534 0.8323 -0.0318
vn 0.5479 0.8360 -0.0298
vn 0.5462 0.8370 -0.0321
vn 0.5480 0.8347 0.0549
vn 0.5479 0.8350 0.0505
vn 0.5476 0.8350 0.0545
vn 0.5827 0.8118 0.0385
vn 0.5635 0.8257 0.0254
vn 0.5636 0.8237 -0.0628
vn 0.5588 0.8292 -0.0125
vn 0.5595 0.8288 -0.0122
vn 0.5592 0.8290 -0.0069
vn 0.5496 0.8339 0.0501
vn 0.5530 0.8327 0.0283
vn 0.5533 0.8325 0.0281
vn 0.5529 0.8328 0.0258
vn 0.5410 0.8409 0.0165
vn -0.2875 0.9578 -0.0010
vn -0.2869 0.9580 -0.0009
vn 0.5510 0.8345 -0.0040
vn 0.6009 0.7992 -0.0141
vn 0.6157 0.7877 -0.0198
vn 0.7276 0.6809 -0.0838
vn 0.7353 0.6704 -0.0994
vn 0.7252 0.6853 -0.0672
vn 0.6526 0.7241 0.2231
vn 0.5519 0.8333 -0.0307
vn 0.5596 0.8288 -0.0011
vn 0.6387 0.7695 0.0044
vn 0.6335 0.7736 -0.0154
vn 0.8497 0.4383 0.2932
vn 0.6920 0.6876 0.2200
vn 0.5693 0.7644 0.3026
vn 0.5470 0.7721 0.3235
vn 0.4866 0.7573 0.4356
vn -0.1185 0.9617 -0.2471
vn 0.6090 0.7932 0.0000
vn 0.6113 0.7910 0.0258
vn 0.5650 0.8251 0.0000
vn 0.3785 0.9256 0.0000
vn 0.4179 0.9035 -0.0950
vn 0.5791 0.8153 0.0000
vn 0.5476 0.8368 0.0000
vn 0.5366 0.7627 0.3610
vn 0.5361 0.7626 0.3619
vn 0.5338 0.7647 0.3610
vn 0.6068 0.7021 0.3726
vn 0.6080 0.7742 0.1759
vn 0.6590 0.7310 0.1771
vn 0.4450 0.8244 0.3499
vn 0.5308 0.7667 0.3611
vn 0.2474 0.8846 0.3953
vn 0.3630 0.9128 0.1870
vn 0.5923 0.8047 -0.0404
vn 0.5985 0.8005 -0.0311
vn 0.5966 0.8020 -0.0299
vn 0.6112 0.7911 -0.0240
vn 0.6126 0.7900 -0.0254
vn 0.6116 0.7908 -0.0240
vn 0.6812 0.7317 -0.0230
vn 0.6832 0.7300 -0.0205
vn 0.6811 0.7318 -0.0229
vn 0.5865 0.8099 0.0054
vn 0.5953 0.8035 0.0000
vn 0.5927 0.8053 -0.0126
vn 0.5913 0.8064 -0.0128
vn 0.5703 0.8212 0.0202
vn 0.6491 0.7156 0.2582
vn 0.6518 0.7575 -0.0377
vn 0.2624 0.9558 0.1327
vn 0.5528 0.8330 0.0233
vn 0.7069 0.7057 -0.0487
vn 0.7020 0.7105 -0.0479
vn 0.7050 0.7073 -0.0517
vn 0.7054 0.7069 -0.0519
vn 0.3604 0.8697 0.3373
vn 0.4706 0.8385 0.2748
vn 0.6729 0.7139 0.1935
vn 0.7839 0.5620 0.2640
vn 0.5824 0.7967 0.1612
vn 0.6596 0.7300 0.1788
vn 0.6606 0.7291 0.1789
vn 0.6572 0.7317 0.1808
vn 0.6635 0.7257 0.1818
vn 0.6539 0.7372 0.1700
vn 0.6652 0.7466 -0.0099
vn 0.6640 0.7477 -0.0088
vn 0.6616 0.7498 -0.0095
vn 0.6626 0.7489 -0.0076
vn 0.6091 0.7926 -0.0257
vn 0.6529 0.6996 0.2903
vn 0.6978 0.6843 0.2115
vn 0.7766 0.5763 0.2544
vn 0.1210 0.4872 -0.8649
vn 0.5874 0.8093 0.0000
vn 0.5907 0.8061 -0.0341
vn 0.6293 0.7768 -0.0228
vn 0.6769 0.7358 -0.0196
usemtl None.073
s 1
f 1//1 3//2 2//3
f 4//4 6//5 5//6
f 4//7 5//8 7//9
f 4//7 7//9 8//10
f 6//11 9//11 5//11
f 8//12 7//12 10//12
f 11//13 13//13 12//13
f 11//14 14//14 13//14
f 15//15 17//16 16//16
f 15//17 16//18 18//19
f 19//20 21//20 20//20
f 19//21 20//21 22//21
f 23//22 25//23 24//24
f 23//22 26//25 25//23
f 27//26 29//27 28//28
f 27//29 2//3 3//2
f 27//30 3//30 29//30
f 30//31 31//31 25//31
f 30//32 25//33 32//34
f 33//35 28//28 29//27
f 33//36 29//37 34//38
f 35//39 25//39 31//39
f 35//40 37//41 36//40
f 35//42 36//43 25//44
f 38//45 24//45 20//45
f 38//46 20//46 21//46
f 39//47 40//47 13//47
f 39//48 13//48 41//48
f 42//49 41//49 13//49
f 42//50 13//50 43//50
f 44//51 25//23 26//25
f 44//52 32//34 25//33
f 45//53 20//53 46//53
f 45//54 22//54 20//54
f 47//55 49//55 48//55
f 47//56 48//56 7//56
f 47//57 7//57 50//57
f 50//58 7//58 51//58
f 51//59 7//59 5//59
f 14//60 52//60 13//60
f 12//13 13//13 53//13
f 53//13 13//13 54//13
f 54//13 13//13 55//13
f 55//13 13//13 56//13
f 56//61 58//61 57//61
f 56//62 13//62 58//62
f 57//61 58//61 59//61
f 60//63 62//63 61//63
f 61//63 62//63 63//63
f 63//63 62//63 64//63
f 64//64 66//64 65//64
f 64//65 62//65 66//65
f 65//64 66//64 67//64
f 67//66 24//66 68//66
f 69//67 25//44 36//43
f 69//67 36//43 70//67
f 70//67 36//43 71//67
f 71//67 36//43 72//67
f 72//67 36//43 29//67
f 17//16 73//16 16//16
f 10//68 75//69 74//70
f 10//71 7//71 75//71
f 76//72 13//72 75//72
f 76//73 43//73 13//73
f 75//74 13//74 77//74
f 75//69 78//75 74//70
f 75//76 77//76 78//76
f 77//77 13//77 52//77
f 20//78 58//78 79//78
f 20//79 79//80 80//81
f 58//82 13//83 81//84
f 29//85 3//86 82//87
f 29//85 82//87 83//88
f 73//16 83//16 16//16
f 16//18 82//89 84//90
f 16//18 84//90 18//19
f 16//91 83//91 82//91
f 66//92 24//92 67//92
f 66//93 62//93 24//93
f 48//94 75//94 7//94
f 36//95 34//38 29//37
f 85//96 13//97 40//98
f 85//96 86//99 13//97
f 43//100 76//100 87//100
f 88//101 76//101 89//101
f 88//102 87//102 76//102
f 88//103 89//103 87//103
f 48//104 91//104 90//104
f 48//105 90//105 92//105
f 76//106 75//106 48//106
f 92//107 93//108 48//109
f 48//109 93//108 94//110
f 48//111 94//111 95//111
f 86//112 96//113 13//114
f 96//113 97//115 13//114
f 46//116 20//79 80//81
f 87//117 98//117 43//117
f 87//118 89//118 98//118
f 99//119 48//119 49//119
f 99//120 91//120 48//120
f 25//66 68//66 24//66
f 62//121 60//121 20//121
f 60//122 59//122 20//122
f 58//123 20//123 59//123
f 62//124 20//124 24//124
f 97//125 81//84 13//83
f 48//126 95//126 100//126
f 100//127 101//127 48//127
f 89//128 76//128 102//128
f 89//129 102//130 103//131
f 89//132 103//132 104//132
f 105//133 107//133 106//133
f 108//134 110//135 109//136
f 108//134 111//137 110//135
f 108//134 112//138 111//137
f 109//139 110//139 113//139
f 112//140 114//140 111//140
f 115//141 117//141 116//141
f 115//142 116//142 118//142
f 119//143 121//144 120//144
f 119//145 122//146 121//147
f 123//148 125//148 124//148
f 123//149 126//149 125//149
f 127//150 129//151 128//152
f 127//150 128//152 130//153
f 131//154 133//155 132//156
f 131//157 106//157 107//157
f 131//158 132//158 106//158
f 134//159 128//159 135//159
f 134//160 136//161 128//162
f 137//163 132//156 133//155
f 137//164 138//165 132//166
f 139//167 135//167 128//167
f 139//168 141//168 140//169
f 139//170 128//170 141//170
f 142//171 125//171 129//171
f 142//172 124//172 125//172
f 143//173 116//173 144//173
f 143//174 145//174 116//174
f 146//175 116//175 145//175
f 146//176 147//176 116//176
f 148//177 130//153 128//152
f 148//178 128//162 136//161
f 149//179 150//179 125//179
f 149//180 125//180 126//180
f 151//181 48//181 152//181
f 151//182 111//182 48//182
f 151//183 153//183 111//183
f 153//184 154//184 111//184
f 154//185 110//185 111//185
f 118//186 116//186 155//186
f 117//141 156//141 116//141
f 156//141 157//141 116//141
f 157//141 158//141 116//141
f 158//141 159//141 116//141
f 159//187 161//187 160//187
f 159//188 160//188 116//188
f 161//187 162//187 160//187
f 163//189 165//189 164//189
f 165//189 166//189 164//189
f 166//189 167//189 164//189
f 167//190 169//190 168//190
f 167//191 168//191 164//191
f 169//190 170//190 168//190
f 170//192 171//192 129//192
f 172//193 141//193 128//193
f 172//193 173//193 141//193
f 173//193 174//193 141//193
f 174//193 175//193 141//193
f 175//193 132//193 141//193
f 120//144 121//144 176//144
f 114//194 178//195 177//196
f 114//197 177//197 111//197
f 76//198 177//198 116//198
f 76//199 116//199 147//199
f 177//200 179//200 116//200
f 177//196 178//195 180//201
f 177//202 180//202 179//202
f 179//203 155//203 116//203
f 125//204 181//205 160//206
f 125//207 182//208 181//209
f 160//210 183//211 116//212
f 132//213 184//213 106//213
f 132//214 185//214 184//214
f 176//144 121//144 185//144
f 121//147 186//215 184//216
f 121//147 122//146 186//215
f 121//217 184//217 185//217
f 168//218 170//218 129//218
f 168//219 129//219 164//219
f 48//220 111//220 177//220
f 141//221 132//166 138//165
f 187//222 144//223 116//224
f 187//222 116//224 188//225
f 147//226 103//226 76//226
f 102//227 76//227 103//227
f 48//228 190//228 189//228
f 48//229 191//229 190//229
f 76//230 48//230 177//230
f 191//231 48//232 192//233
f 48//232 193//234 192//233
f 48//235 101//235 193//235
f 188//236 116//237 194//238
f 194//238 116//237 195//239
f 150//240 182//208 125//207
f 103//241 147//241 104//241
f 196//242 152//242 48//242
f 196//243 48//243 189//243
f 128//192 129//192 171//192
f 164//244 125//244 163//244
f 163//245 125//245 162//245
f 160//206 162//246 125//204
f 164//247 129//247 125//247
f 195//248 116//212 183//211
