# Blender v2.79 (sub 0) OBJ File: ''
# www.blender.org
mtllib crack_restart_keyway_55.mtl
o crack_restart_keyway_55
v 0.120406 -0.147382 -0.472461
v 0.120406 -0.147382 -0.457089
v 0.102936 -0.132385 -0.472461
v 0.109755 -0.137111 -0.472461
v 0.120406 -0.147382 -0.257911
v 0.115633 -0.146852 -0.264007
v 0.120406 -0.147382 -0.264949
v 0.120406 -0.147382 -0.264949
v 0.120406 -0.147382 -0.272634
v 0.111985 -0.145963 -0.275250
v 0.120406 -0.147382 -0.280320
v 0.113313 -0.146414 -0.270169
v 0.120406 -0.147382 -0.288006
v 0.109526 -0.145316 -0.284711
v 0.120406 -0.147382 -0.295691
v 0.120406 -0.147382 -0.303377
v 0.120406 -0.147382 -0.311062
v 0.120406 -0.147382 -0.318748
v 0.103154 -0.140219 -0.401422
v 0.120406 -0.147382 -0.334119
v 0.120406 -0.147382 -0.349490
v 0.120406 -0.147382 -0.364862
v 0.120406 -0.147382 -0.380233
v 0.120406 -0.147382 -0.395604
v 0.120406 -0.147382 -0.410975
v 0.120406 -0.147382 -0.426347
v 0.120406 -0.147382 -0.441718
v 0.086989 -0.129912 -0.390461
v 0.086443 -0.129136 -0.395870
v 0.087796 -0.130919 -0.384113
v 0.082747 -0.120625 -0.462934
v 0.096942 -0.128564 -0.472461
v 0.082711 -0.120202 -0.472461
v 0.087399 -0.123120 -0.472461
v 0.090800 -0.125162 -0.472461
v 0.083259 -0.121545 -0.453383
v 0.083229 -0.122142 -0.446962
v 0.084276 -0.125228 -0.422122
v 0.083907 -0.124469 -0.428398
v 0.083757 -0.123905 -0.434154
v 0.083497 -0.122909 -0.440669
v 0.084462 -0.126138 -0.415735
v 0.103154 -0.140219 -0.401422
v 0.085489 -0.127932 -0.403312
v 0.084699 -0.127012 -0.409066
v 0.086011 -0.128519 -0.400032
v 0.092806 -0.135791 -0.352104
v 0.094192 -0.137115 -0.344507
v 0.091635 -0.134591 -0.359593
v 0.120406 -0.147382 -0.441718
v 0.088840 -0.132018 -0.376076
v 0.090483 -0.133510 -0.367561
v 0.095330 -0.138079 -0.339388
v 0.097623 -0.139797 -0.326277
v 0.099077 -0.140801 -0.318895
v 0.096136 -0.138819 -0.333124
v 0.103534 -0.143139 -0.302976
v 0.101808 -0.142271 -0.309314
v 0.100365 -0.141548 -0.314285
v 0.111252 -0.145723 -0.277953
v 0.120406 -0.147382 -0.280320
v 0.087399 -0.123120 -0.472461
v 0.120406 -0.147382 -0.272634
v 0.120406 -0.147382 -0.472461
v 0.102936 -0.132385 -0.472461
v 0.120406 -0.147382 -0.457089
v 0.109755 -0.137111 -0.472461
v 0.120406 -0.147382 -0.288006
v 0.120406 -0.147382 -0.295691
v 0.120406 -0.147382 -0.303377
v 0.120406 -0.147382 -0.311062
v 0.120406 -0.147382 -0.318748
v 0.120406 -0.147382 -0.334119
v 0.120406 -0.147382 -0.349490
v 0.120406 -0.147382 -0.364862
v 0.120406 -0.147382 -0.380233
v 0.120406 -0.147382 -0.395604
v 0.120406 -0.147382 -0.410975
v 0.120406 -0.147382 -0.426347
v 0.096942 -0.128564 -0.472461
v 0.090800 -0.125162 -0.472461
vn -0.6514 -0.7588 0.0000
vn 0.0000 0.0000 -1.0000
vn -0.1104 -0.9939 0.0000
vn 0.1104 0.9939 0.0000
vn -0.1662 -0.9861 0.0000
vn -0.1514 -0.9873 -0.0481
vn -0.1352 -0.9908 0.0000
vn -0.1866 -0.9824 0.0000
vn -0.3835 -0.9236 -0.0000
vn -0.5655 -0.8225 -0.0606
vn -0.5659 -0.8222 -0.0619
vn -0.5662 -0.8222 -0.0580
vn -0.5647 -0.8232 -0.0588
vn -0.5350 -0.8392 -0.0978
vn -0.5281 -0.8484 -0.0357
vn -0.5146 -0.8570 -0.0268
vn -0.4845 -0.8748 0.0070
vn -0.5367 -0.8374 -0.1035
vn -0.5597 -0.8272 -0.0497
vn -0.5523 -0.8299 -0.0787
vn -0.5525 -0.8299 -0.0778
vn -0.5522 -0.8299 -0.0797
vn -0.5560 -0.8261 -0.0912
vn -0.5481 -0.8336 -0.0680
vn -0.5483 -0.8335 -0.0686
vn -0.5481 -0.8337 -0.0676
vn -0.5480 -0.8338 -0.0674
vn -0.5525 -0.8299 -0.0776
vn -0.5517 -0.8275 -0.1045
vn -0.5473 -0.8306 -0.1024
vn 0.5473 0.8306 0.1024
vn -0.5643 -0.8224 -0.0721
vn 0.2708 0.9557 0.1156
vn -0.5660 -0.8225 -0.0571
vn -0.5656 -0.8223 -0.0627
vn -0.5620 -0.8260 -0.0437
vn -0.5582 -0.8286 -0.0426
vn -0.5579 -0.8288 -0.0427
vn -0.5633 -0.8251 -0.0441
vn 0.5597 0.8272 0.0497
vn 0.5522 0.8299 0.0797
vn 0.5525 0.8299 0.0777
vn 0.5523 0.8299 0.0787
vn -0.5519 -0.8328 -0.0422
vn -0.5496 -0.8345 -0.0402
vn -0.5515 -0.8332 -0.0418
vn -0.5408 -0.8404 -0.0358
vn -0.5383 -0.8418 -0.0389
vn -0.4569 -0.8891 -0.0287
vn -0.4632 -0.8858 -0.0297
vn -0.4635 -0.8856 -0.0291
vn -0.4545 -0.8903 -0.0285
vn -0.5136 -0.8573 -0.0352
vn -0.2699 -0.9609 -0.0612
vn -0.2696 -0.9612 -0.0582
vn -0.2698 -0.9612 -0.0585
vn -0.2699 -0.9609 -0.0614
vn -0.2665 -0.9604 -0.0812
vn -0.2877 -0.9575 -0.0210
vn -0.2575 -0.9658 -0.0306
vn -0.1873 -0.9816 -0.0364
vn -0.1815 -0.9833 -0.0129
vn -0.1156 -0.9929 -0.0271
vn 0.5659 0.8222 0.0619
vn 0.5655 0.8225 0.0607
vn 0.5662 0.8222 0.0580
vn 0.5656 0.8223 0.0627
vn 0.5660 0.8225 0.0571
vn -0.5494 -0.8346 -0.0402
vn 0.5475 0.8359 0.0393
vn 0.5418 0.8397 0.0364
vn 0.5494 0.8346 0.0402
vn 0.5519 0.8328 0.0422
vn 0.1873 0.9816 0.0364
vn 0.1815 0.9833 0.0129
vn 0.1822 0.9832 0.0112
vn 0.1869 0.9824 -0.0008
vn 0.1156 0.9929 0.0270
vn 0.5281 0.8484 0.0357
vn 0.1662 0.9861 0.0000
vn 0.1514 0.9873 0.0481
vn 0.1352 0.9908 0.0000
vn 0.5560 0.8261 0.0912
vn 0.5483 0.8335 0.0686
vn 0.5481 0.8336 0.0680
vn 0.5482 0.8336 0.0681
vn 0.6514 0.7588 0.0000
vn 0.0000 0.0000 1.0000
vn 0.1866 0.9824 0.0000
vn 0.3835 0.9236 0.0000
vn 0.5647 0.8232 0.0588
vn 0.5354 0.8388 0.0992
vn 0.5350 0.8392 0.0978
vn 0.5354 0.8387 0.0992
vn 0.5146 0.8570 0.0268
vn 0.4845 0.8748 -0.0070
vn 0.5367 0.8374 0.1035
vn 0.5480 0.8338 0.0674
vn 0.5525 0.8299 0.0776
vn 0.5517 0.8275 0.1045
vn 0.5643 0.8224 0.0721
vn 0.5620 0.8260 0.0437
vn 0.5579 0.8288 0.0427
vn 0.5582 0.8286 0.0426
vn 0.5633 0.8251 0.0441
vn 0.5408 0.8404 0.0358
vn 0.5383 0.8418 0.0389
vn 0.4568 0.8891 0.0287
vn 0.4635 0.8856 0.0291
vn 0.4632 0.8858 0.0297
vn 0.4545 0.8903 0.0285
vn 0.5136 0.8573 0.0352
vn 0.2699 0.9609 0.0612
vn 0.2698 0.9612 0.0585
vn 0.2696 0.9612 0.0582
vn 0.2699 0.9609 0.0614
vn 0.2665 0.9604 0.0812
vn 0.2877 0.9575 0.0210
vn 0.2575 0.9658 0.0306
usemtl None.101
s 1
f 1//1 2//1 3//1
f 1//2 3//2 4//2
f 5//3 6//3 7//3
f 5//4 8//4 6//4
f 9//5 10//5 11//5
f 9//6 12//6 10//6
f 9//7 7//7 12//7
f 13//8 14//8 15//8
f 13//8 11//8 14//8
f 16//8 14//8 17//8
f 16//8 15//8 14//8
f 18//9 19//9 20//9
f 18//9 17//9 19//9
f 20//9 19//9 21//9
f 21//9 19//9 22//9
f 22//9 19//9 23//9
f 23//9 19//9 24//9
f 24//9 19//9 25//9
f 25//9 19//9 26//9
f 26//9 19//9 27//9
f 2//1 27//1 3//1
f 28//10 29//11 19//12
f 28//10 19//12 30//13
f 3//14 31//14 32//14
f 31//15 33//15 34//15
f 31//16 34//16 35//16
f 31//17 35//17 32//17
f 27//18 31//18 3//18
f 27//19 36//19 31//19
f 27//20 37//21 36//22
f 27//23 19//23 38//23
f 27//24 38//25 39//26
f 39//26 40//27 27//24
f 41//28 37//21 27//20
f 41//29 27//29 40//29
f 42//30 38//30 19//30
f 42//31 43//31 38//31
f 42//32 19//32 44//32
f 42//33 45//33 44//33
f 44//34 19//12 46//35
f 47//36 19//37 48//38
f 47//36 49//39 19//37
f 36//40 50//40 31//40
f 36//41 37//42 50//43
f 30//44 19//45 51//46
f 52//47 19//47 49//47
f 19//48 53//48 48//48
f 54//49 19//50 55//51
f 54//49 56//52 19//50
f 19//53 56//53 53//53
f 17//54 57//55 58//56
f 17//54 58//56 59//57
f 17//58 59//58 55//58
f 17//59 55//59 19//59
f 57//60 17//60 14//60
f 11//61 10//61 60//61
f 11//62 60//62 14//62
f 7//63 6//63 12//63
f 29//64 28//65 43//66
f 29//11 46//35 19//12
f 29//64 43//66 46//67
f 46//67 43//66 44//68
f 52//69 51//46 19//45
f 52//70 43//71 51//72
f 51//73 43//73 30//73
f 60//74 10//74 61//74
f 60//75 61//76 14//77
f 6//78 8//78 12//78
f 33//79 31//79 62//79
f 10//80 63//80 61//80
f 10//81 12//81 63//81
f 12//82 8//82 63//82
f 38//83 43//83 50//83
f 38//84 50//85 39//86
f 64//87 65//87 66//87
f 64//88 67//88 65//88
f 68//89 69//89 14//77
f 68//89 14//77 61//76
f 70//89 71//89 14//77
f 70//89 14//77 69//89
f 72//90 73//90 43//90
f 72//90 43//90 71//90
f 73//90 74//90 43//90
f 74//90 75//90 43//90
f 75//90 76//90 43//90
f 76//90 77//90 43//90
f 77//90 78//90 43//90
f 78//90 79//90 43//90
f 79//90 50//90 43//90
f 66//87 65//87 50//87
f 28//65 30//91 43//66
f 65//92 80//93 31//94
f 31//95 81//95 62//95
f 31//96 80//96 81//96
f 50//97 65//92 31//94
f 39//86 50//85 40//98
f 41//99 50//43 37//42
f 41//100 40//100 50//100
f 42//101 44//101 43//101
f 47//102 48//103 43//104
f 47//102 43//104 49//105
f 52//70 49//106 43//71
f 43//107 48//107 53//107
f 54//108 55//109 43//110
f 54//108 43//110 56//111
f 43//112 53//112 56//112
f 71//113 58//114 57//115
f 71//113 59//116 58//114
f 71//117 55//117 59//117
f 71//118 43//118 55//118
f 57//119 14//119 71//119
