# Blender v2.79 (sub 0) OBJ File: ''
# www.blender.org
mtllib crack_restart_keyway_750.mtl
o crack_restart_keyway_750
v 0.073333 -0.113238 -0.472461
v 0.072918 -0.113370 -0.459453
v 0.084639 -0.121404 -0.472461
v 0.147223 -0.162041 -0.087635
v 0.125998 -0.154468 -0.075214
v 0.152186 -0.169041 -0.080796
v 0.150729 -0.164627 -0.087295
v 0.143382 -0.159202 -0.088100
v 0.131068 -0.149873 -0.089874
v 0.127516 -0.150649 -0.086839
v 0.135371 -0.153076 -0.089181
v 0.126540 -0.147825 -0.091832
v 0.154210 -0.167189 -0.086931
v 0.139596 -0.156317 -0.088611
v 0.120406 -0.147382 -0.457089
v 0.095790 -0.129483 -0.472461
v 0.120406 -0.147382 -0.103551
v 0.111771 -0.143577 -0.082199
v 0.120866 -0.146923 -0.098614
v 0.120406 -0.147382 -0.118922
v 0.120406 -0.147382 -0.472461
v 0.108105 -0.138427 -0.472461
v 0.085207 -0.104248 0.316371
v 0.086028 -0.101902 0.342386
v 0.102566 -0.117660 0.377849
v 0.080012 -0.106312 0.242985
v 0.082181 -0.104285 0.282128
v 0.074030 -0.112743 -0.186296
v 0.074377 -0.112453 -0.173289
v 0.075291 -0.111992 -0.141428
v 0.074018 -0.112678 -0.199304
v 0.073580 -0.113062 -0.238326
v 0.104171 -0.140677 -0.280927
v 0.073190 -0.113199 -0.251334
v 0.073854 -0.112782 -0.225319
v 0.070683 -0.114939 -0.394416
v 0.069837 -0.115306 -0.381408
v 0.090632 -0.132125 -0.376755
v 0.070969 -0.114594 -0.407423
v 0.072132 -0.114090 -0.290356
v 0.072581 -0.113581 -0.277349
v 0.071376 -0.114339 -0.303364
v 0.072584 -0.113769 -0.446446
v 0.071900 -0.114009 -0.433438
v 0.071824 -0.114308 -0.342386
v 0.071547 -0.114231 -0.329378
v 0.120406 -0.147382 -0.334119
v 0.070380 -0.114964 -0.355393
v 0.074620 -0.112081 -0.081618
v 0.071797 -0.111092 -0.054992
v 0.075614 -0.111578 -0.096646
v 0.071570 -0.114448 -0.420431
v 0.070440 -0.115073 -0.368401
v 0.073093 -0.113407 -0.264341
v 0.074575 -0.112356 -0.160281
v 0.074799 -0.112188 -0.147274
v 0.076225 -0.111292 -0.121259
v 0.075621 -0.111614 -0.134267
v 0.076128 -0.111254 -0.108252
v 0.071656 -0.114401 -0.316371
v 0.074027 -0.112745 -0.212311
v 0.139101 -0.179648 0.257875
v 0.142432 -0.175377 0.305014
v 0.136336 -0.181044 0.194994
v 0.146873 -0.173645 -0.061406
v 0.148180 -0.172557 -0.068127
v 0.146144 -0.174138 -0.051154
v 0.150309 -0.170707 -0.074790
v 0.120406 -0.147382 -0.134293
v 0.120406 -0.147382 -0.149664
v 0.120406 -0.147382 -0.165036
v 0.120406 -0.147382 -0.180407
v 0.120406 -0.147382 -0.195778
v 0.120406 -0.147382 -0.211149
v 0.120406 -0.147382 -0.226521
v 0.120406 -0.147382 -0.241892
v 0.120406 -0.147382 -0.257263
v 0.120406 -0.147382 -0.272634
v 0.120406 -0.147382 -0.288006
v 0.120406 -0.147382 -0.349490
v 0.120406 -0.147382 -0.364862
v 0.120406 -0.147382 -0.380233
v 0.120406 -0.147382 -0.395604
v 0.120406 -0.147382 -0.410975
v 0.120406 -0.147382 -0.426347
v 0.145110 -0.174477 -0.039976
v 0.143923 -0.174812 -0.027856
v 0.122213 -0.145575 -0.094013
v 0.120406 -0.147382 -0.303377
v 0.120406 -0.147382 -0.318748
v 0.120406 -0.147382 -0.441718
v 0.103584 -0.135142 -0.472461
v 0.146881 -0.172164 0.358600
v 0.144500 -0.173925 0.328011
v 0.148776 -0.170551 0.382438
v 0.133944 -0.151773 0.397387
v 0.150026 -0.169585 0.401446
v 0.086381 -0.100187 0.359620
v 0.086538 -0.099441 0.367071
v 0.086381 -0.100187 0.359620
v 0.148776 -0.170551 0.382438
v 0.146881 -0.172164 0.358600
v 0.118856 -0.134594 0.387996
v 0.071505 -0.113506 0.025178
v 0.139137 -0.178888 0.037432
v 0.070417 -0.112166 -0.001446
v 0.070074 -0.112464 0.052171
v 0.072352 -0.112973 -0.026245
v 0.071381 -0.113585 0.079146
v 0.070325 -0.112216 0.106112
v 0.087517 -0.129289 0.125532
v 0.073128 -0.112486 0.129118
v 0.073661 -0.109603 0.159331
v 0.078015 -0.109416 0.199556
v 0.078508 -0.108275 0.212311
v 0.143259 -0.174801 0.314067
v 0.135325 -0.181478 0.159892
v 0.135297 -0.181655 0.139754
v 0.135522 -0.181191 0.111126
v 0.136411 -0.180847 0.087430
v 0.137382 -0.179821 0.063496
v 0.140585 -0.177591 0.016712
v 0.142460 -0.176099 -0.008557
v 0.073333 -0.113238 -0.472461
v 0.084639 -0.121404 -0.472461
v 0.072918 -0.113370 -0.459453
v 0.147223 -0.162041 -0.087635
v 0.152186 -0.169041 -0.080796
v 0.125998 -0.154468 -0.075214
v 0.150729 -0.164627 -0.087295
v 0.143382 -0.159202 -0.088100
v 0.131068 -0.149873 -0.089874
v 0.135371 -0.153076 -0.089181
v 0.127516 -0.150649 -0.086839
v 0.126540 -0.147825 -0.091832
v 0.154210 -0.167189 -0.086931
v 0.139596 -0.156317 -0.088611
v 0.120406 -0.147382 -0.457089
v 0.095790 -0.129483 -0.472461
v 0.120406 -0.147382 -0.103551
v 0.120866 -0.146923 -0.098614
v 0.111771 -0.143577 -0.082199
v 0.120406 -0.147382 -0.118922
v 0.120406 -0.147382 -0.472461
v 0.108105 -0.138427 -0.472461
v 0.085207 -0.104248 0.316371
v 0.086028 -0.101902 0.342386
v 0.082181 -0.104285 0.282128
v 0.080012 -0.106312 0.242985
v 0.074030 -0.112743 -0.186296
v 0.075291 -0.111992 -0.141428
v 0.074377 -0.112453 -0.173289
v 0.074018 -0.112678 -0.199304
v 0.073580 -0.113062 -0.238326
v 0.073190 -0.113199 -0.251334
v 0.104171 -0.140677 -0.280927
v 0.073854 -0.112782 -0.225319
v 0.070683 -0.114939 -0.394416
v 0.090632 -0.132125 -0.376755
v 0.069837 -0.115306 -0.381408
v 0.070969 -0.114594 -0.407423
v 0.072132 -0.114090 -0.290356
v 0.072581 -0.113581 -0.277349
v 0.071376 -0.114339 -0.303364
v 0.072584 -0.113769 -0.446446
v 0.071900 -0.114009 -0.433438
v 0.071824 -0.114308 -0.342386
v 0.120406 -0.147382 -0.334119
v 0.071547 -0.114231 -0.329378
v 0.070380 -0.114964 -0.355393
v 0.074620 -0.112081 -0.081618
v 0.071797 -0.111092 -0.054992
v 0.075614 -0.111578 -0.096646
v 0.071570 -0.114448 -0.420431
v 0.070440 -0.115073 -0.368401
v 0.073093 -0.113407 -0.264341
v 0.074575 -0.112356 -0.160281
v 0.074799 -0.112188 -0.147274
v 0.076225 -0.111292 -0.121259
v 0.075621 -0.111614 -0.134267
v 0.076128 -0.111254 -0.108252
v 0.071656 -0.114401 -0.316371
v 0.074027 -0.112745 -0.212311
v 0.139101 -0.179648 0.257875
v 0.142432 -0.175377 0.305014
v 0.136336 -0.181044 0.194994
v 0.146873 -0.173645 -0.061406
v 0.148180 -0.172557 -0.068127
v 0.146144 -0.174138 -0.051154
v 0.150309 -0.170707 -0.074790
v 0.120406 -0.147382 -0.134293
v 0.120406 -0.147382 -0.149664
v 0.120406 -0.147382 -0.165036
v 0.120406 -0.147382 -0.180407
v 0.120406 -0.147382 -0.195778
v 0.120406 -0.147382 -0.211149
v 0.120406 -0.147382 -0.226521
v 0.120406 -0.147382 -0.241892
v 0.120406 -0.147382 -0.257263
v 0.120406 -0.147382 -0.272634
v 0.120406 -0.147382 -0.288006
v 0.120406 -0.147382 -0.349490
v 0.120406 -0.147382 -0.364862
v 0.120406 -0.147382 -0.380233
v 0.120406 -0.147382 -0.395604
v 0.120406 -0.147382 -0.410975
v 0.120406 -0.147382 -0.426347
v 0.145110 -0.174477 -0.039976
v 0.143923 -0.174812 -0.027856
v 0.122213 -0.145575 -0.094013
v 0.120406 -0.147382 -0.303377
v 0.120406 -0.147382 -0.318748
v 0.120406 -0.147382 -0.441718
v 0.103584 -0.135142 -0.472461
v 0.144500 -0.173925 0.328011
v 0.071505 -0.113506 0.025178
v 0.070417 -0.112166 -0.001446
v 0.139137 -0.178888 0.037432
v 0.070074 -0.112464 0.052171
v 0.072352 -0.112973 -0.026245
v 0.071381 -0.113585 0.079146
v 0.087517 -0.129289 0.125532
v 0.070325 -0.112216 0.106112
v 0.073128 -0.112486 0.129118
v 0.073661 -0.109603 0.159331
v 0.078015 -0.109416 0.199556
v 0.078508 -0.108275 0.212311
v 0.143259 -0.174801 0.314067
v 0.135325 -0.181478 0.159892
v 0.135297 -0.181655 0.139754
v 0.135522 -0.181191 0.111126
v 0.136411 -0.180847 0.087430
v 0.137382 -0.179821 0.063496
v 0.140585 -0.177591 0.016712
v 0.142460 -0.176099 -0.008557
vn -0.5853 -0.8104 -0.0269
vn -0.5106 -0.7571 -0.4076
vn -0.5089 -0.7585 -0.4071
vn -0.5091 -0.7571 -0.4093
vn -0.5195 -0.7565 -0.3973
vn -0.5172 -0.7583 -0.3968
vn -0.5191 -0.7563 -0.3980
vn -0.5097 -0.7566 -0.4096
vn -0.3945 -0.6668 -0.6322
vn -0.1973 -0.8693 -0.4531
vn -0.5161 -0.7579 -0.3991
vn -0.5141 -0.7487 -0.4185
vn -0.5140 -0.7486 -0.4188
vn -0.5162 -0.7473 -0.4184
vn -0.5814 -0.8133 -0.0216
vn -0.5867 -0.8098 -0.0034
vn -0.5873 -0.8094 -0.0043
vn -0.5868 -0.8098 -0.0012
vn -0.1679 -0.9800 0.1067
vn -0.4032 -0.9151 0.0000
vn -0.5886 -0.8085 0.0000
vn -0.5884 -0.8085 -0.0012
vn -0.7732 -0.6289 0.0811
vn -0.7726 -0.6297 0.0809
vn -0.7742 -0.6280 0.0790
vn -0.8361 -0.5435 0.0745
vn -0.9694 -0.2433 0.0313
vn -0.9669 -0.2532 0.0314
vn 0.6249 -0.7807 -0.0045
vn 0.6241 -0.7813 -0.0044
vn -0.6458 -0.7630 0.0279
vn -0.6485 -0.7607 0.0275
vn -0.6467 -0.7621 0.0300
vn -0.6464 -0.7624 0.0300
vn -0.6192 -0.7828 -0.0624
vn -0.6346 -0.7720 -0.0344
vn -0.6305 -0.7754 -0.0350
vn -0.6319 -0.7741 -0.0378
vn -0.6468 -0.7609 0.0521
vn -0.6468 -0.7609 0.0522
vn -0.5817 -0.8124 -0.0403
vn -0.5820 -0.8120 -0.0441
vn -0.5800 -0.8134 -0.0452
vn -0.5805 -0.8133 -0.0399
vn -0.5619 -0.8272 -0.0071
vn -0.5619 -0.8272 -0.0066
vn -0.5718 -0.8137 0.1045
vn -0.5729 -0.8123 0.1092
vn -0.5712 -0.8140 0.1060
vn -0.6465 -0.7618 -0.0402
vn -0.6456 -0.7628 -0.0377
vn -0.6451 -0.7631 -0.0397
vn -0.6458 -0.7605 -0.0682
vn -0.5802 -0.8134 -0.0422
vn -0.6444 -0.7647 0.0034
vn -0.6341 -0.7720 0.0432
vn -0.6543 -0.7560 0.0170
vn 0.2943 -0.9557 0.0073
vn 0.4618 -0.8870 -0.0004
vn -0.7011 -0.7113 0.0502
vn -0.6706 -0.7418 -0.0028
vn -0.5619 -0.8272 -0.0061
vn -0.5771 -0.8134 -0.0736
vn -0.6221 -0.7829 -0.0097
vn -0.6661 -0.7458 0.0110
vn -0.6756 -0.7373 0.0033
vn -0.7655 -0.6337 0.1115
vn -0.7656 -0.6337 0.1109
vn -0.7661 -0.6334 0.1091
vn -0.7838 -0.6167 0.0728
vn -0.7825 -0.6207 0.0482
vn -0.5671 -0.7886 -0.2379
vn -0.6441 -0.7605 -0.0824
vn -0.6440 -0.7606 -0.0826
vn -0.6440 -0.7605 -0.0825
vn -0.5098 -0.7730 -0.3775
vn -0.5101 -0.7743 -0.3745
vn -0.5102 -0.7736 -0.3758
vn -0.5106 -0.7741 -0.3743
vn -0.3817 -0.9243 0.0000
vn -0.4560 -0.8900 0.0000
vn -0.6194 -0.7807 -0.0822
vn -0.5447 -0.8211 -0.1708
vn -0.5158 -0.7464 -0.4205
vn -0.5729 -0.8123 0.1094
vn -0.6439 -0.7606 -0.0826
vn -0.4592 -0.8196 -0.3426
vn -0.5564 -0.7652 -0.3240
vn -0.3797 -0.9070 -0.1823
vn 0.1013 -0.9623 0.2523
vn -0.3676 -0.8682 -0.3332
vn -0.6315 -0.7745 -0.0379
vn -0.5919 -0.8033 -0.0668
vn -0.6457 -0.7632 0.0232
vn -0.6042 -0.7959 0.0386
vn -0.5877 -0.8090 -0.0016
vn -0.6172 -0.7868 0.0000
vn -0.6208 -0.7832 -0.0353
vn -0.6506 -0.7577 -0.0500
vn -0.6483 -0.7605 0.0357
vn -0.7152 -0.6954 0.0697
vn -0.7659 -0.6357 0.0962
vn -0.7608 -0.6448 0.0742
vn -0.7490 -0.6574 0.0827
vn -0.7387 -0.6660 0.1038
vn -0.7713 -0.6315 0.0795
vn -0.7709 -0.6320 0.0795
vn 0.7725 0.6298 -0.0808
vn 0.7709 0.6320 -0.0795
vn 0.7713 0.6315 -0.0795
vn 0.7490 0.6574 -0.0827
vn 0.7387 0.6661 -0.1038
vn -0.7695 -0.6340 0.0766
vn 0.7695 0.6340 -0.0766
vn -0.6942 -0.7197 -0.0084
vn -0.6943 -0.7197 -0.0078
vn -0.6942 -0.7197 -0.0085
vn -0.6942 -0.7198 -0.0090
vn -0.6455 -0.7629 -0.0375
vn -0.6344 -0.7726 -0.0244
vn -0.7020 -0.7122 0.0071
vn -0.7058 -0.7084 0.0043
vn -0.7092 -0.7050 0.0080
vn -0.7042 -0.7100 0.0046
vn -0.7480 -0.6584 0.0834
vn -0.7499 -0.6571 0.0764
vn -0.7491 -0.6573 0.0830
vn -0.7493 -0.6579 0.0760
vn -0.7699 -0.6323 0.0863
vn -0.7699 -0.6322 0.0873
vn -0.7711 -0.6309 0.0857
vn -0.7658 -0.6337 0.1091
vn -0.7660 -0.6338 0.1080
vn -0.7590 -0.6511 0.0068
vn -0.7587 -0.6507 0.0299
vn -0.7363 -0.6764 -0.0168
vn -0.7388 -0.6729 -0.0375
vn -0.7457 -0.6637 -0.0587
vn -0.6115 -0.7859 -0.0917
vn -0.6125 -0.7851 -0.0918
vn -0.6153 -0.7822 -0.0973
vn -0.6118 -0.7856 -0.0919
vn -0.6028 -0.7918 -0.0985
vn -0.6771 -0.7333 -0.0615
vn -0.7538 -0.6529 -0.0741
vn -0.6933 -0.7207 -0.0005
vn -0.7713 -0.6316 0.0782
vn -0.7469 -0.6603 0.0783
vn -0.7499 -0.6511 0.1172
vn 0.5853 0.8104 0.0269
vn 0.5089 0.7585 0.4071
vn 0.5195 0.7565 0.3973
vn 0.5097 0.7566 0.4096
vn 0.5164 0.7529 0.4081
vn 0.5096 0.7562 0.4106
vn 0.3945 0.6668 0.6322
vn 0.1973 0.8693 0.4531
vn 0.5161 0.7579 0.3991
vn 0.5141 0.7487 0.4185
vn 0.5814 0.8133 0.0216
vn 0.5867 0.8098 0.0034
vn 0.5869 0.8097 0.0029
vn 0.5873 0.8094 0.0043
vn 0.1679 0.9800 -0.1067
vn 0.4032 0.9151 0.0000
vn 0.5886 0.8085 0.0000
vn 0.7732 0.6289 -0.0811
vn 0.7742 0.6280 -0.0790
vn 0.8361 0.5435 -0.0745
vn 0.9694 0.2433 -0.0313
vn 0.9669 0.2532 -0.0314
vn -0.6249 0.7807 0.0045
vn -0.6241 0.7813 0.0044
vn 0.6485 0.7607 -0.0275
vn 0.6491 0.7602 -0.0269
vn 0.6474 0.7620 -0.0187
vn 0.6464 0.7624 -0.0300
vn 0.6192 0.7828 0.0624
vn 0.6346 0.7720 0.0344
vn 0.6319 0.7741 0.0378
vn 0.6305 0.7754 0.0350
vn 0.6468 0.7609 -0.0521
vn 0.6468 0.7609 -0.0522
vn 0.5817 0.8124 0.0403
vn 0.5800 0.8134 0.0452
vn 0.5820 0.8120 0.0441
vn 0.5805 0.8133 0.0399
vn 0.5619 0.8272 0.0071
vn 0.5619 0.8272 0.0066
vn 0.5718 0.8137 -0.1045
vn 0.6465 0.7618 0.0402
vn 0.6451 0.7631 0.0397
vn 0.6456 0.7628 0.0377
vn 0.6458 0.7605 0.0682
vn 0.5802 0.8134 0.0422
vn 0.6444 0.7647 -0.0034
vn 0.6341 0.7720 -0.0432
vn 0.6543 0.7560 -0.0170
vn -0.2943 0.9557 -0.0073
vn -0.4618 0.8870 0.0004
vn 0.7011 0.7113 -0.0502
vn 0.6706 0.7418 0.0028
vn 0.5619 0.8272 0.0061
vn 0.5771 0.8134 0.0736
vn 0.6221 0.7829 0.0097
vn 0.6661 0.7458 -0.0110
vn 0.6756 0.7373 -0.0033
vn 0.7655 0.6337 -0.1115
vn 0.7658 0.6335 -0.1107
vn 0.7656 0.6337 -0.1109
vn 0.7838 0.6167 -0.0728
vn 0.7825 0.6207 -0.0482
vn 0.5671 0.7886 0.2379
vn 0.6441 0.7605 0.0824
vn 0.6440 0.7605 0.0825
vn 0.6440 0.7606 0.0826
vn 0.5098 0.7730 0.3775
vn 0.5102 0.7736 0.3758
vn 0.5101 0.7743 0.3745
vn 0.5106 0.7741 0.3743
vn 0.3817 0.9243 0.0000
vn 0.4560 0.8900 0.0000
vn 0.6194 0.7807 0.0822
vn 0.5447 0.8211 0.1708
vn 0.5158 0.7464 0.4205
vn 0.5729 0.8123 -0.1094
vn 0.6439 0.7606 0.0826
vn 0.4592 0.8196 0.3426
vn 0.5564 0.7652 0.3240
vn 0.3797 0.9070 0.1823
vn -0.1013 0.9623 -0.2523
vn 0.3676 0.8682 0.3332
vn 0.6315 0.7745 0.0379
vn 0.5919 0.8033 0.0668
vn 0.6457 0.7632 -0.0232
vn 0.6042 0.7959 -0.0386
vn 0.5878 0.8090 0.0009
vn 0.5877 0.8090 0.0016
vn 0.6172 0.7868 0.0000
vn 0.6208 0.7832 0.0353
vn 0.6506 0.7577 0.0500
vn 0.6483 0.7605 -0.0357
vn 0.7152 0.6954 -0.0697
vn 0.7659 0.6357 -0.0962
vn 0.7650 0.6350 -0.1075
vn 0.7666 0.6333 -0.1061
vn 0.7608 0.6448 -0.0742
vn 0.6942 0.7197 0.0084
vn 0.6947 0.7193 0.0079
vn 0.6943 0.7197 0.0078
vn 0.6937 0.7202 0.0047
vn 0.6455 0.7629 0.0375
vn 0.6344 0.7726 0.0244
vn 0.7020 0.7122 -0.0071
vn 0.7092 0.7050 -0.0080
vn 0.7058 0.7084 -0.0043
vn 0.7042 0.7100 -0.0046
vn 0.7480 0.6584 -0.0834
vn 0.7491 0.6572 -0.0831
vn 0.7485 0.6588 -0.0757
vn 0.7490 0.6582 -0.0758
vn 0.7699 0.6323 -0.0863
vn 0.7711 0.6309 -0.0858
vn 0.7699 0.6322 -0.0873
vn 0.7660 0.6338 -0.1080
vn 0.7657 0.6336 -0.1103
vn 0.7590 0.6511 -0.0068
vn 0.7587 0.6507 -0.0299
vn 0.7363 0.6764 0.0168
vn 0.7388 0.6729 0.0375
vn 0.7457 0.6637 0.0587
vn 0.6115 0.7859 0.0917
vn 0.6153 0.7823 0.0973
vn 0.6125 0.7851 0.0918
vn 0.6118 0.7856 0.0919
vn 0.6028 0.7918 0.0985
vn 0.6771 0.7333 0.0615
vn 0.7538 0.6529 0.0741
vn 0.6933 0.7207 0.0005
vn 0.7713 0.6316 -0.0782
vn 0.7469 0.6603 -0.0783
vn 0.7499 0.6511 -0.1172
usemtl None.146
s 1
f 1//1 3//1 2//1
f 4//2 6//3 5//4
f 4//5 7//6 6//7
f 4//2 5//4 8//8
f 9//9 11//9 10//9
f 9//10 10//10 12//10
f 7//6 13//11 6//7
f 8//12 5//13 14//14
f 3//15 15//15 2//15
f 3//16 16//17 15//18
f 17//19 19//19 18//19
f 17//20 18//20 20//20
f 21//21 15//18 22//22
f 23//23 25//24 24//25
f 23//26 27//26 26//26
f 28//27 30//27 29//28
f 28//29 31//30 30//30
f 32//31 34//32 33//33
f 32//31 33//33 35//34
f 36//35 38//35 37//35
f 36//36 39//37 38//38
f 40//39 33//39 41//39
f 40//39 42//40 33//39
f 43//41 15//42 44//43
f 43//41 2//44 15//42
f 45//45 47//46 46//46
f 45//47 48//48 47//49
f 49//50 18//51 50//52
f 49//53 51//53 18//53
f 52//54 44//43 15//42
f 53//55 38//55 48//55
f 53//56 37//56 38//56
f 54//57 33//57 34//57
f 55//58 30//58 56//58
f 55//59 29//59 30//59
f 57//60 58//60 18//60
f 57//61 18//61 59//61
f 60//62 46//46 47//46
f 60//63 47//63 33//63
f 60//64 33//64 42//64
f 61//65 35//65 33//65
f 61//66 33//66 31//66
f 62//67 63//68 23//69
f 62//70 23//70 26//70
f 62//71 26//71 64//71
f 65//72 5//72 66//72
f 65//73 67//74 5//75
f 66//76 5//77 68//78
f 68//78 5//77 6//79
f 20//20 18//20 69//20
f 69//20 18//20 70//20
f 71//80 33//80 72//80
f 72//80 33//80 73//80
f 73//80 33//80 74//80
f 75//80 33//80 76//80
f 76//80 33//80 77//80
f 77//80 33//80 78//80
f 78//80 33//80 79//80
f 80//81 47//81 38//81
f 80//81 38//81 81//81
f 81//81 38//81 82//81
f 82//81 38//81 83//81
f 83//81 38//81 84//81
f 84//81 38//81 85//81
f 86//82 87//82 18//82
f 86//83 18//83 5//83
f 14//14 5//13 11//84
f 38//85 47//49 48//48
f 5//75 67//74 86//86
f 5//87 18//87 12//87
f 5//88 12//88 10//88
f 12//89 18//89 88//89
f 88//90 18//90 19//90
f 5//91 10//91 11//91
f 79//80 33//80 89//80
f 89//80 33//80 90//80
f 52//92 38//38 39//37
f 52//93 15//93 38//93
f 75//80 74//80 33//80
f 30//94 31//94 33//94
f 30//95 33//95 71//95
f 91//81 85//81 38//81
f 91//81 38//81 15//81
f 15//18 92//96 22//22
f 15//18 16//17 92//96
f 30//97 71//97 70//97
f 70//98 18//98 30//98
f 47//80 90//80 33//80
f 18//99 51//99 59//99
f 33//100 54//100 41//100
f 30//101 18//101 58//101
f 93//102 23//102 94//102
f 25//103 23//103 93//103
f 95//104 97//104 96//104
f 95//105 96//105 93//105
f 25//24 99//106 98//107
f 25//108 100//109 99//110
f 97//111 101//111 96//111
f 96//112 101//112 102//112
f 96//113 103//113 93//113
f 96//114 102//114 103//114
f 104//115 106//116 105//117
f 104//115 105//117 107//118
f 108//119 50//52 18//51
f 108//120 18//120 106//120
f 109//121 111//122 110//123
f 109//121 107//124 111//122
f 110//125 111//126 112//127
f 112//127 111//126 113//128
f 114//129 64//130 115//131
f 114//129 113//129 64//130
f 23//69 116//132 94//133
f 116//132 23//69 63//68
f 117//134 113//134 118//134
f 117//135 64//135 113//135
f 119//136 118//136 111//136
f 119//137 111//137 120//137
f 120//138 111//138 121//138
f 122//139 18//140 123//141
f 122//139 105//142 18//140
f 87//143 123//141 18//140
f 106//144 18//144 105//144
f 105//145 121//145 111//145
f 105//146 111//146 107//146
f 115//131 64//130 26//147
f 113//148 111//148 118//148
f 24//25 25//24 98//107
f 93//149 103//149 25//149
f 124//150 126//150 125//150
f 127//151 129//151 128//151
f 127//152 128//152 130//152
f 127//153 131//154 129//155
f 132//156 134//156 133//156
f 132//157 135//157 134//157
f 130//158 128//158 136//158
f 131//154 137//159 129//155
f 125//160 126//160 138//160
f 125//161 138//162 139//163
f 140//164 142//164 141//164
f 140//165 143//165 142//165
f 144//166 145//166 138//166
f 146//167 147//168 25//108
f 146//169 149//169 148//169
f 150//170 152//171 151//170
f 150//172 151//173 153//173
f 154//174 156//175 155//176
f 154//177 157//177 156//177
f 158//178 160//178 159//178
f 158//179 159//180 161//181
f 162//182 163//182 156//182
f 162//182 156//182 164//183
f 165//184 166//185 138//186
f 165//184 138//186 126//187
f 167//188 169//189 168//189
f 167//190 168//190 170//190
f 171//191 172//192 142//193
f 171//194 142//194 173//194
f 174//195 138//186 166//185
f 175//196 170//196 159//196
f 175//197 159//197 160//197
f 176//198 155//176 156//175
f 177//199 178//199 151//199
f 177//200 151//200 152//200
f 179//201 142//201 180//201
f 179//202 181//202 142//202
f 182//203 168//189 169//189
f 182//204 156//204 168//204
f 182//205 164//205 156//205
f 183//206 156//206 157//206
f 183//207 153//207 156//207
f 184//208 146//209 185//210
f 184//211 149//211 146//211
f 184//212 186//212 149//212
f 187//213 188//213 129//213
f 187//214 129//215 189//216
f 188//217 190//218 129//219
f 190//218 128//220 129//219
f 143//165 191//165 142//165
f 191//165 192//165 142//165
f 193//221 194//221 156//221
f 194//221 195//221 156//221
f 195//221 196//221 156//221
f 197//221 198//221 156//221
f 198//221 199//221 156//221
f 199//221 200//221 156//221
f 200//221 201//221 156//221
f 202//222 159//222 168//222
f 202//222 203//222 159//222
f 203//222 204//222 159//222
f 204//222 205//222 159//222
f 205//222 206//222 159//222
f 206//222 207//222 159//222
f 208//223 142//223 209//223
f 208//224 129//224 142//224
f 137//225 133//225 129//225
f 159//226 170//226 168//226
f 129//215 208//227 189//216
f 129//228 135//228 142//228
f 129//229 134//229 135//229
f 135//230 210//230 142//230
f 210//231 141//231 142//231
f 129//232 133//232 134//232
f 201//221 211//221 156//221
f 211//221 212//221 156//221
f 174//233 161//181 159//180
f 174//234 159//234 138//234
f 197//221 156//221 196//221
f 151//235 156//235 153//235
f 151//236 193//236 156//236
f 213//222 159//222 207//222
f 213//222 138//222 159//222
f 138//162 145//237 214//238
f 138//162 214//238 139//163
f 151//239 192//239 193//239
f 192//240 151//240 142//240
f 168//221 156//221 212//221
f 142//241 181//241 173//241
f 156//242 163//242 176//242
f 151//243 180//243 142//243
f 102//244 215//245 146//246
f 25//247 102//247 146//247
f 216//248 218//249 217//250
f 216//248 219//251 218//249
f 220//252 142//193 172//192
f 220//253 217//253 142//253
f 221//254 223//255 222//256
f 221//254 222//256 219//257
f 223//258 224//259 222//260
f 224//259 225//261 222//260
f 226//262 227//263 186//264
f 226//262 186//264 225//262
f 146//246 215//245 228//265
f 228//266 185//210 146//209
f 229//267 230//267 225//267
f 229//268 225//268 186//268
f 231//269 222//269 230//269
f 231//270 232//270 222//270
f 232//271 233//271 222//271
f 234//272 235//273 142//274
f 234//272 142//274 218//275
f 209//276 142//274 235//273
f 217//277 218//277 142//277
f 218//278 222//278 233//278
f 218//249 219//251 222//279
f 227//263 149//280 186//264
f 225//261 230//281 222//260
f 147//168 100//109 25//108
f 102//282 25//282 103//282
