# Blender v2.79 (sub 0) OBJ File: ''
# www.blender.org
mtllib crack_restart_keyway_575.mtl
o crack_restart_keyway_575
v 0.073429 -0.113169 -0.472461
v 0.072976 -0.113333 -0.459453
v 0.084741 -0.121340 -0.472461
v 0.147229 -0.162037 -0.087630
v 0.152177 -0.169049 -0.080801
v 0.150742 -0.164615 -0.087284
v 0.134422 -0.160633 -0.075720
v 0.143382 -0.159202 -0.088100
v 0.154210 -0.167189 -0.086931
v 0.139570 -0.156333 -0.088631
v 0.120406 -0.147382 -0.426347
v 0.095867 -0.129421 -0.472461
v 0.120406 -0.147382 -0.103551
v 0.120406 -0.147382 -0.118922
v 0.103040 -0.137424 -0.112400
v 0.104549 -0.137411 -0.092829
v 0.120866 -0.146923 -0.098614
v 0.120406 -0.147382 -0.472461
v 0.108150 -0.138391 -0.472461
v 0.120406 -0.147382 -0.457089
v 0.073509 -0.113113 -0.238326
v 0.073875 -0.112768 -0.225319
v 0.120406 -0.147382 -0.226521
v 0.073143 -0.113228 -0.251334
v 0.070737 -0.114909 -0.394416
v 0.070023 -0.115189 -0.381408
v 0.120406 -0.147382 -0.395604
v 0.070942 -0.114612 -0.407423
v 0.072658 -0.113716 -0.446446
v 0.071884 -0.114019 -0.433438
v 0.071824 -0.114308 -0.342386
v 0.120406 -0.147382 -0.349490
v 0.070507 -0.114884 -0.355393
v 0.071501 -0.114260 -0.329378
v 0.071492 -0.114491 -0.420431
v 0.070651 -0.114956 -0.368401
v 0.090632 -0.132125 -0.376755
v 0.073080 -0.113417 -0.264341
v 0.072660 -0.113532 -0.277349
v 0.076449 -0.111151 -0.121259
v 0.075594 -0.111633 -0.134267
v 0.076976 -0.110653 -0.108252
v 0.074074 -0.112712 -0.212311
v 0.074049 -0.112659 -0.199304
v 0.074074 -0.112712 -0.186296
v 0.146725 -0.173775 -0.061425
v 0.148177 -0.172560 -0.068129
v 0.095557 -0.135637 -0.055675
v 0.145424 -0.174719 -0.050624
v 0.150242 -0.170765 -0.074827
v 0.114631 -0.144475 -0.094848
v 0.122213 -0.145575 -0.094013
v 0.115965 -0.144850 -0.090503
v 0.126540 -0.147825 -0.091832
v 0.120406 -0.147382 -0.134293
v 0.106623 -0.141626 -0.120722
v 0.120406 -0.147382 -0.149664
v 0.120406 -0.147382 -0.165036
v 0.120406 -0.147382 -0.180407
v 0.120406 -0.147382 -0.195778
v 0.120406 -0.147382 -0.211149
v 0.120406 -0.147382 -0.241892
v 0.120406 -0.147382 -0.257263
v 0.104166 -0.140685 -0.280926
v 0.120406 -0.147382 -0.272634
v 0.120406 -0.147382 -0.288006
v 0.120406 -0.147382 -0.318748
v 0.072293 -0.113975 -0.290356
v 0.120406 -0.147382 -0.303377
v 0.120406 -0.147382 -0.334119
v 0.120406 -0.147382 -0.364862
v 0.120406 -0.147382 -0.380233
v 0.120406 -0.147382 -0.441718
v 0.135339 -0.153095 -0.089208
v 0.144007 -0.175426 -0.040426
v 0.131068 -0.149873 -0.089874
v 0.120741 -0.151654 -0.073236
v 0.125919 -0.154675 -0.075306
v 0.076082 -0.111302 -0.096328
v 0.095011 -0.133113 -0.288885
v 0.120406 -0.147382 -0.410975
v 0.074565 -0.112335 -0.173289
v 0.074752 -0.112352 -0.166330
v 0.074806 -0.112192 -0.160281
v 0.075023 -0.112171 -0.153674
v 0.103559 -0.135035 -0.472461
v 0.075439 -0.111892 -0.141734
v 0.075147 -0.111969 -0.147274
v 0.131731 -0.184165 0.066481
v 0.097946 -0.153331 0.122218
v 0.130565 -0.185243 0.082318
v 0.133199 -0.183286 0.050611
v 0.129572 -0.185742 0.100081
v 0.067568 -0.114240 0.096122
v 0.083109 -0.134940 0.111177
v 0.067609 -0.114901 0.086333
v 0.067609 -0.114901 0.086333
v 0.066885 -0.115491 0.058182
v 0.129000 -0.185972 0.114791
v 0.116455 -0.173052 0.130555
v 0.128755 -0.186345 0.133437
v 0.129000 -0.185972 0.114791
v 0.074091 -0.111994 -0.077433
v 0.070974 -0.111750 -0.054991
v 0.067906 -0.113377 -0.001445
v 0.067544 -0.115463 0.025867
v 0.070791 -0.113955 -0.029510
v 0.142106 -0.176285 -0.027661
v 0.135135 -0.182062 0.033616
v 0.140161 -0.177947 -0.010945
v 0.136794 -0.180635 0.018666
v 0.071643 -0.114408 -0.316371
v 0.073429 -0.113169 -0.472461
v 0.084741 -0.121340 -0.472461
v 0.072976 -0.113333 -0.459453
v 0.147229 -0.162037 -0.087630
v 0.150742 -0.164615 -0.087284
v 0.152177 -0.169049 -0.080801
v 0.134422 -0.160633 -0.075720
v 0.143382 -0.159202 -0.088100
v 0.154210 -0.167189 -0.086931
v 0.139570 -0.156333 -0.088631
v 0.120406 -0.147382 -0.426347
v 0.095867 -0.129421 -0.472461
v 0.120406 -0.147382 -0.103551
v 0.103040 -0.137424 -0.112400
v 0.120406 -0.147382 -0.118922
v 0.120866 -0.146923 -0.098614
v 0.104549 -0.137411 -0.092829
v 0.120406 -0.147382 -0.472461
v 0.120406 -0.147382 -0.457089
v 0.108150 -0.138391 -0.472461
v 0.073509 -0.113113 -0.238326
v 0.120406 -0.147382 -0.226521
v 0.073875 -0.112768 -0.225319
v 0.073143 -0.113228 -0.251334
v 0.070737 -0.114909 -0.394416
v 0.120406 -0.147382 -0.395604
v 0.070023 -0.115189 -0.381408
v 0.070942 -0.114612 -0.407423
v 0.072658 -0.113716 -0.446446
v 0.071884 -0.114019 -0.433438
v 0.071824 -0.114308 -0.342386
v 0.070507 -0.114884 -0.355393
v 0.120406 -0.147382 -0.349490
v 0.071501 -0.114260 -0.329378
v 0.071492 -0.114491 -0.420431
v 0.070651 -0.114956 -0.368401
v 0.090632 -0.132125 -0.376755
v 0.073080 -0.113417 -0.264341
v 0.072660 -0.113532 -0.277349
v 0.076449 -0.111151 -0.121259
v 0.075594 -0.111633 -0.134267
v 0.076976 -0.110653 -0.108252
v 0.074074 -0.112712 -0.212311
v 0.074074 -0.112712 -0.186296
v 0.074049 -0.112659 -0.199304
v 0.146725 -0.173775 -0.061425
v 0.148177 -0.172560 -0.068129
v 0.095557 -0.135637 -0.055675
v 0.145424 -0.174719 -0.050624
v 0.150242 -0.170765 -0.074827
v 0.122213 -0.145575 -0.094013
v 0.114631 -0.144475 -0.094848
v 0.126540 -0.147825 -0.091832
v 0.115965 -0.144850 -0.090503
v 0.106623 -0.141626 -0.120722
v 0.120406 -0.147382 -0.134293
v 0.120406 -0.147382 -0.149664
v 0.120406 -0.147382 -0.165036
v 0.120406 -0.147382 -0.180407
v 0.120406 -0.147382 -0.195778
v 0.120406 -0.147382 -0.211149
v 0.120406 -0.147382 -0.241892
v 0.104166 -0.140685 -0.280926
v 0.120406 -0.147382 -0.257263
v 0.120406 -0.147382 -0.272634
v 0.120406 -0.147382 -0.288006
v 0.120406 -0.147382 -0.318748
v 0.120406 -0.147382 -0.303377
v 0.072293 -0.113975 -0.290356
v 0.120406 -0.147382 -0.334119
v 0.120406 -0.147382 -0.364862
v 0.120406 -0.147382 -0.380233
v 0.120406 -0.147382 -0.441718
v 0.135339 -0.153095 -0.089208
v 0.144007 -0.175426 -0.040426
v 0.131068 -0.149873 -0.089874
v 0.125919 -0.154675 -0.075306
v 0.120741 -0.151654 -0.073236
v 0.076082 -0.111302 -0.096328
v 0.095011 -0.133113 -0.288885
v 0.120406 -0.147382 -0.410975
v 0.074565 -0.112335 -0.173289
v 0.074806 -0.112192 -0.160281
v 0.074752 -0.112352 -0.166330
v 0.075023 -0.112171 -0.153674
v 0.103559 -0.135035 -0.472461
v 0.075439 -0.111892 -0.141734
v 0.075147 -0.111969 -0.147274
v 0.131731 -0.184165 0.066481
v 0.130565 -0.185243 0.082318
v 0.133199 -0.183286 0.050611
v 0.129572 -0.185742 0.100081
v 0.066885 -0.115491 0.058182
v 0.074091 -0.111994 -0.077433
v 0.070974 -0.111750 -0.054991
v 0.067906 -0.113377 -0.001445
v 0.070791 -0.113955 -0.029510
v 0.067544 -0.115463 0.025867
v 0.142106 -0.176285 -0.027661
v 0.135135 -0.182062 0.033616
v 0.140161 -0.177947 -0.010945
v 0.136794 -0.180635 0.018666
v 0.071643 -0.114408 -0.316371
vn -0.5853 -0.8103 -0.0306
vn -0.5153 -0.7563 -0.4032
vn -0.5179 -0.7541 -0.4039
vn -0.5156 -0.7565 -0.4023
vn -0.4843 -0.7614 -0.4310
vn -0.4955 -0.7461 -0.4448
vn -0.4959 -0.7457 -0.4449
vn -0.4978 -0.7445 -0.4448
vn -0.5192 -0.7546 -0.4012
vn -0.5010 -0.7413 -0.4466
vn -0.5753 -0.8178 -0.0169
vn -0.5877 -0.8091 -0.0024
vn -0.5893 -0.8079 -0.0028
vn -0.5885 -0.8085 -0.0016
vn -0.4974 -0.8675 0.0000
vn -0.4663 -0.8758 0.1249
vn -0.5123 -0.8579 0.0401
vn -0.5915 -0.8063 0.0000
vn -0.5914 -0.8064 -0.0006
vn -0.5958 -0.8022 0.0380
vn -0.5937 -0.8043 0.0238
vn -0.5901 -0.8070 0.0227
vn -0.5933 -0.8045 0.0273
vn -0.5474 -0.8355 -0.0480
vn -0.5475 -0.8364 -0.0277
vn -0.5469 -0.8368 -0.0279
vn -0.5472 -0.8365 -0.0293
vn -0.5606 -0.8264 -0.0526
vn -0.5609 -0.8264 -0.0497
vn -0.5605 -0.8268 -0.0471
vn -0.5511 -0.8293 0.0925
vn -0.5638 -0.8258 -0.0110
vn -0.5617 -0.8273 -0.0035
vn -0.5613 -0.8275 -0.0102
vn -0.5613 -0.8263 -0.0469
vn -0.6524 -0.7578 -0.0030
vn -0.6403 -0.7669 0.0446
vn -0.5982 -0.8012 0.0165
vn -0.5967 -0.8020 0.0264
vn -0.7131 -0.6972 0.0727
vn -0.7111 -0.7009 0.0556
vn -0.9081 -0.4188 -0.0000
vn -0.9006 -0.4346 0.0000
vn -0.5454 -0.7960 -0.2624
vn -0.6001 -0.7755 -0.1965
vn -0.6018 -0.7861 -0.1412
vn -0.6020 -0.7862 -0.1397
vn -0.6016 -0.7866 -0.1390
vn -0.4879 -0.7938 -0.3631
vn -0.4829 -0.7877 -0.3827
vn -0.1706 -0.9310 0.3227
vn -0.5615 -0.6579 -0.5019
vn -0.2940 -0.8938 -0.3387
vn -0.1388 -0.9894 -0.0428
vn -0.3854 -0.9228 0.0000
vn -0.5991 -0.8007 0.0000
vn -0.3812 -0.9245 0.0000
vn -0.5703 -0.8214 -0.0000
vn -0.4560 -0.8900 0.0000
vn -0.5044 -0.7387 -0.4471
vn -0.5520 -0.8215 0.1430
vn -0.6017 -0.7866 -0.1383
vn -0.5771 -0.6929 -0.4324
vn -0.5323 -0.7299 -0.4288
vn -0.6785 -0.7327 0.0528
vn -0.2924 -0.9143 -0.2801
vn -0.2927 -0.9143 -0.2798
vn -0.2925 -0.9145 -0.2795
vn -0.5574 -0.8242 0.1000
vn -0.4921 -0.7453 -0.4500
vn -0.3590 -0.2718 0.8929
vn -0.6272 -0.7681 -0.1292
vn -0.6107 -0.7733 -0.1704
vn -0.4649 -0.8438 -0.2681
vn -0.0256 -0.1068 -0.9940
vn -0.5580 -0.8298 -0.0000
vn -0.5469 -0.8366 -0.0309
vn -0.6216 -0.7820 0.0461
vn -0.6136 -0.7894 0.0211
vn -0.6145 -0.7886 0.0228
vn -0.6115 -0.7909 0.0254
vn -0.6120 -0.7907 0.0145
vn -0.6141 -0.7889 0.0227
vn -0.5651 -0.8242 -0.0381
vn -0.5898 -0.8076 -0.0008
vn -0.6448 -0.7642 0.0146
vn -0.4506 -0.8791 0.1556
vn -0.4509 -0.8790 0.1550
vn -0.4510 -0.8790 0.1551
vn -0.8845 0.1320 -0.4475
vn -0.5716 -0.7720 -0.2781
vn -0.5742 -0.8126 -0.1001
vn -0.7205 -0.6874 -0.0914
vn -0.6086 -0.7922 0.0442
vn -0.6567 -0.7469 0.1041
vn -0.4009 -0.8756 0.2695
vn -0.6144 -0.7878 0.0425
vn -0.6147 -0.7878 0.0401
vn -0.6146 -0.7877 0.0431
vn -0.6144 -0.7880 0.0401
vn -0.6146 -0.7880 0.0368
vn -0.5928 -0.8053 0.0085
vn -0.5969 -0.8023 0.0000
vn -0.6034 -0.7974 0.0036
vn -0.5993 -0.8004 0.0126
vn -0.6405 -0.7621 -0.0949
vn -0.7621 -0.6396 -0.1010
vn -0.7555 -0.6476 -0.0997
vn -0.7594 -0.6420 -0.1055
vn -0.7599 -0.6414 -0.1058
vn -0.7346 -0.6758 -0.0601
vn -0.8116 -0.5831 0.0360
vn -0.8095 -0.5860 0.0355
vn -0.8115 -0.5833 0.0357
vn 0.8116 0.5831 -0.0360
vn 0.8115 0.5833 -0.0357
vn 0.8095 0.5860 -0.0355
vn -0.8100 -0.5855 0.0331
vn -0.7812 -0.6242 0.0101
vn -0.7404 -0.6710 -0.0393
vn -0.7313 -0.6817 -0.0232
vn 0.7313 0.6817 0.0232
vn -0.6900 -0.7182 -0.0897
vn -0.6917 -0.7155 -0.0985
vn -0.6954 -0.7131 -0.0888
vn -0.6897 -0.7173 -0.0989
vn -0.7333 -0.6771 -0.0614
vn -0.6963 -0.7147 -0.0668
vn -0.6928 -0.7187 -0.0602
vn -0.5989 -0.7880 -0.1429
vn -0.7846 -0.6055 -0.1330
vn -0.5985 -0.7873 -0.1479
vn -0.6862 -0.7133 -0.1428
vn -0.6861 -0.7132 -0.1434
vn -0.6861 -0.7131 -0.1441
vn -0.6861 -0.7131 -0.1442
vn -0.6970 -0.7145 -0.0609
vn -0.6642 -0.7463 -0.0436
vn -0.5470 -0.8367 0.0276
vn -0.5617 -0.8273 -0.0033
vn -0.7594 -0.6505 -0.0160
vn -0.7238 -0.6896 -0.0244
vn 0.5853 0.8103 0.0306
vn 0.5153 0.7563 0.4032
vn 0.4843 0.7614 0.4310
vn 0.4955 0.7461 0.4448
vn 0.4978 0.7445 0.4448
vn 0.4959 0.7457 0.4449
vn 0.5192 0.7546 0.4012
vn 0.5010 0.7413 0.4466
vn 0.5753 0.8178 0.0169
vn 0.5877 0.8091 0.0024
vn 0.5899 0.8075 0.0006
vn 0.5893 0.8079 0.0028
vn 0.4974 0.8675 0.0000
vn 0.4663 0.8758 -0.1249
vn 0.5123 0.8579 -0.0401
vn 0.5915 0.8063 0.0000
vn 0.5958 0.8022 -0.0380
vn 0.5937 0.8043 -0.0238
vn 0.5933 0.8045 -0.0273
vn 0.5901 0.8070 -0.0227
vn 0.5474 0.8355 0.0480
vn 0.5475 0.8364 0.0277
vn 0.5472 0.8365 0.0293
vn 0.5469 0.8368 0.0279
vn 0.5606 0.8264 0.0526
vn 0.5605 0.8268 0.0471
vn 0.5609 0.8264 0.0497
vn 0.5511 0.8293 -0.0925
vn 0.5638 0.8258 0.0110
vn 0.5613 0.8275 0.0102
vn 0.5617 0.8273 0.0035
vn 0.5613 0.8263 0.0469
vn 0.6524 0.7578 0.0030
vn 0.6403 0.7669 -0.0446
vn 0.5982 0.8012 -0.0164
vn 0.5967 0.8020 -0.0264
vn 0.7131 0.6972 -0.0727
vn 0.7111 0.7009 -0.0556
vn 0.9081 0.4188 0.0000
vn 0.9006 0.4346 -0.0000
vn 0.5454 0.7960 0.2624
vn 0.6001 0.7755 0.1965
vn 0.6018 0.7861 0.1412
vn 0.6016 0.7866 0.1390
vn 0.6020 0.7862 0.1397
vn 0.4879 0.7938 0.3631
vn 0.4829 0.7877 0.3827
vn 0.1706 0.9310 -0.3227
vn 0.5615 0.6579 0.5019
vn 0.2940 0.8938 0.3387
vn 0.1388 0.9894 0.0428
vn 0.3854 0.9228 0.0000
vn 0.5991 0.8007 0.0000
vn 0.5941 0.8044 -0.0031
vn 0.3812 0.9245 0.0000
vn 0.5703 0.8214 0.0000
vn 0.4560 0.8900 0.0000
vn 0.5044 0.7387 0.4471
vn 0.5520 0.8215 -0.1430
vn 0.6017 0.7866 0.1383
vn 0.5771 0.6929 0.4324
vn 0.5323 0.7299 0.4288
vn 0.6785 0.7327 -0.0528
vn 0.2924 0.9143 0.2801
vn 0.5574 0.8242 -0.1000
vn 0.2925 0.9145 0.2795
vn 0.4921 0.7453 0.4500
vn 0.3590 0.2718 -0.8929
vn 0.6272 0.7681 0.1292
vn 0.6107 0.7733 0.1704
vn 0.4649 0.8438 0.2681
vn 0.0256 0.1068 0.9940
vn 0.5580 0.8298 0.0000
vn 0.5469 0.8366 0.0309
vn 0.6216 0.7820 -0.0461
vn 0.6136 0.7894 -0.0211
vn 0.6115 0.7908 -0.0253
vn 0.6145 0.7886 -0.0228
vn 0.6120 0.7907 -0.0145
vn 0.6141 0.7889 -0.0227
vn 0.5651 0.8242 0.0381
vn 0.5901 0.8073 0.0006
vn 0.5898 0.8076 0.0008
vn 0.6448 0.7642 -0.0146
vn 0.4506 0.8791 -0.1556
vn 0.4510 0.8790 -0.1551
vn 0.4509 0.8790 -0.1550
vn 0.8845 -0.1320 0.4475
vn 0.5716 0.7720 0.2781
vn 0.5742 0.8126 0.1001
vn 0.7205 0.6874 0.0914
vn 0.6086 0.7922 -0.0442
vn 0.6567 0.7469 -0.1041
vn 0.4009 0.8756 -0.2695
vn 0.6144 0.7878 -0.0425
vn 0.6146 0.7877 -0.0431
vn 0.6147 0.7878 -0.0401
vn 0.6144 0.7880 -0.0401
vn 0.6146 0.7880 -0.0368
vn 0.5969 0.8023 0.0000
vn 0.5993 0.8004 -0.0126
vn 0.5996 0.8003 -0.0001
vn 0.6405 0.7621 0.0949
vn 0.7621 0.6396 0.1011
vn 0.7594 0.6420 0.1055
vn 0.7555 0.6476 0.0997
vn 0.7599 0.6414 0.1058
vn 0.7346 0.6758 0.0601
vn 0.8100 0.5855 -0.0331
vn 0.7812 0.6242 -0.0101
vn 0.7404 0.6710 0.0393
vn 0.6900 0.7182 0.0897
vn 0.6954 0.7131 0.0888
vn 0.6917 0.7155 0.0985
vn 0.6897 0.7173 0.0989
vn 0.7333 0.6771 0.0614
vn 0.6917 0.7192 0.0658
vn 0.6935 0.7180 0.0601
vn 0.6963 0.7147 0.0668
vn 0.6928 0.7187 0.0602
vn 0.5989 0.7880 0.1429
vn 0.7846 0.6055 0.1330
vn 0.5985 0.7873 0.1479
vn 0.6862 0.7133 0.1428
vn 0.6861 0.7131 0.1441
vn 0.6861 0.7132 0.1434
vn 0.6861 0.7131 0.1442
vn 0.6970 0.7145 0.0609
vn 0.6642 0.7463 0.0436
vn 0.5470 0.8367 -0.0276
vn 0.5617 0.8273 0.0033
vn 0.7594 0.6505 0.0160
vn 0.7238 0.6896 0.0244
usemtl None.107
s 1
f 1//1 3//1 2//1
f 4//2 6//3 5//4
f 4//5 5//5 7//5
f 4//6 7//7 8//8
f 6//3 9//9 5//4
f 8//8 7//7 10//10
f 3//11 11//11 2//11
f 3//12 12//13 11//14
f 13//15 15//15 14//15
f 13//16 17//16 16//16
f 13//17 16//17 15//17
f 18//18 20//18 19//19
f 21//20 23//20 22//20
f 21//21 24//22 23//23
f 25//24 27//24 26//24
f 25//25 28//26 27//27
f 29//28 11//29 30//30
f 31//31 33//31 32//31
f 31//32 32//33 34//34
f 35//35 30//30 11//29
f 36//36 37//36 33//36
f 36//37 26//37 37//37
f 38//38 23//23 24//22
f 38//38 39//39 23//23
f 40//40 41//40 15//40
f 40//41 15//41 42//41
f 43//42 45//42 44//43
f 46//44 7//44 47//44
f 46//45 48//45 7//45
f 46//46 49//47 48//48
f 47//49 7//49 50//49
f 50//50 7//50 5//50
f 17//51 52//51 51//51
f 17//52 51//52 16//52
f 52//53 54//53 53//53
f 52//54 53//54 51//54
f 14//55 56//55 55//55
f 55//55 56//55 57//55
f 58//56 45//56 59//56
f 58//56 57//56 45//56
f 59//56 45//56 60//56
f 60//56 45//56 61//56
f 62//57 64//57 63//57
f 62//57 23//57 64//57
f 63//57 64//57 65//57
f 65//57 64//57 66//57
f 67//58 69//58 68//58
f 67//58 68//58 70//58
f 70//58 68//58 32//58
f 32//59 37//59 71//59
f 71//59 37//59 72//59
f 72//59 37//59 27//59
f 20//18 73//18 19//19
f 10//10 7//7 74//60
f 37//61 32//61 33//61
f 48//48 49//47 75//62
f 76//63 78//63 77//63
f 76//64 7//64 78//64
f 79//65 15//65 16//65
f 54//66 76//67 53//68
f 53//69 16//69 51//69
f 76//67 77//68 53//68
f 7//70 76//70 74//70
f 16//71 53//71 79//71
f 79//72 53//72 77//72
f 79//73 77//73 48//73
f 66//74 64//74 80//74
f 66//58 68//58 69//58
f 66//75 80//75 68//75
f 35//76 11//76 81//76
f 35//77 27//27 28//26
f 35//76 81//76 27//76
f 45//78 57//78 82//78
f 57//79 84//80 83//81
f 57//79 83//81 82//82
f 57//79 85//83 84//80
f 29//84 2//84 11//84
f 73//18 11//14 19//19
f 19//19 11//14 86//85
f 11//14 12//13 86//85
f 80//86 64//86 68//86
f 77//87 78//88 48//89
f 56//90 15//90 57//90
f 27//91 37//91 26//91
f 7//92 48//92 78//92
f 15//93 79//93 42//93
f 68//94 23//94 39//94
f 68//95 64//95 23//95
f 56//96 14//96 15//96
f 57//97 41//98 87//99
f 57//97 87//99 88//100
f 57//97 88//100 85//101
f 22//102 23//103 61//104
f 22//102 61//104 43//105
f 57//106 15//106 41//106
f 89//107 91//108 90//109
f 89//107 90//109 92//110
f 91//111 93//111 90//111
f 94//112 96//113 95//114
f 94//115 95//116 97//117
f 95//114 96//113 98//118
f 95//119 98//119 90//119
f 99//120 100//120 93//120
f 99//121 101//121 100//121
f 101//122 102//122 100//122
f 103//123 48//124 104//125
f 103//123 79//126 48//124
f 105//127 107//127 106//127
f 107//128 104//128 48//128
f 107//129 48//129 106//129
f 75//62 108//130 48//48
f 109//131 92//131 90//131
f 108//130 110//132 48//48
f 110//133 111//134 106//135
f 106//135 111//134 109//136
f 106//137 109//137 90//137
f 110//138 106//138 48//138
f 68//139 112//139 32//139
f 112//140 34//34 32//33
f 45//56 43//56 61//56
f 106//141 90//141 98//141
f 100//142 90//142 93//142
f 113//143 115//143 114//143
f 116//144 118//144 117//144
f 116//145 119//145 118//145
f 116//146 120//147 119//148
f 117//149 118//149 121//149
f 120//147 122//150 119//148
f 114//151 115//151 123//151
f 114//152 123//153 124//154
f 125//155 127//155 126//155
f 125//156 129//156 128//156
f 125//157 126//157 129//157
f 130//158 132//158 131//158
f 133//159 135//159 134//159
f 133//160 134//161 136//162
f 137//163 139//163 138//163
f 137//164 138//165 140//166
f 141//167 142//168 123//169
f 143//170 145//170 144//170
f 143//171 146//172 145//173
f 147//174 123//169 142//168
f 148//175 144//175 149//175
f 148//176 149//176 139//176
f 150//177 136//162 134//161
f 150//177 134//161 151//178
f 152//179 126//179 153//179
f 152//180 154//180 126//180
f 155//181 157//182 156//181
f 158//183 159//183 119//183
f 158//184 119//184 160//184
f 158//185 160//186 161//187
f 159//188 162//188 119//188
f 162//189 118//189 119//189
f 128//190 164//190 163//190
f 128//191 129//191 164//191
f 163//192 166//192 165//192
f 163//193 164//193 166//193
f 127//194 168//194 167//194
f 168//194 169//194 167//194
f 170//195 171//195 156//195
f 170//195 156//195 169//195
f 171//195 172//195 156//195
f 172//195 173//196 156//195
f 174//197 176//197 175//197
f 174//197 175//197 134//197
f 176//197 177//197 175//197
f 177//197 178//197 175//197
f 179//198 181//198 180//198
f 179//198 182//198 181//198
f 182//198 145//198 181//198
f 145//199 183//199 149//199
f 183//199 184//199 149//199
f 184//199 138//199 149//199
f 131//158 132//158 185//158
f 122//150 186//200 119//148
f 149//201 144//201 145//201
f 160//186 187//202 161//187
f 188//203 190//203 189//203
f 188//204 189//204 119//204
f 191//205 129//205 126//205
f 165//206 166//206 188//206
f 166//207 164//207 129//207
f 188//208 166//208 190//208
f 119//209 186//209 188//209
f 129//210 191//210 166//210
f 191//211 190//211 166//211
f 191//212 160//212 190//212
f 178//213 192//213 175//213
f 178//198 180//198 181//198
f 178//214 181//214 192//214
f 147//215 193//215 123//215
f 147//216 140//166 138//165
f 147//215 138//215 193//215
f 156//217 194//217 169//217
f 169//218 196//219 195//220
f 169//218 194//221 196//219
f 169//218 195//220 197//222
f 141//223 123//223 115//223
f 185//158 132//158 123//158
f 132//224 198//225 123//153
f 123//153 198//225 124//154
f 192//226 181//226 175//226
f 190//227 160//228 189//229
f 167//230 169//230 126//230
f 138//231 139//231 149//231
f 119//232 189//232 160//232
f 126//233 154//233 191//233
f 181//234 151//234 134//234
f 181//235 134//235 175//235
f 167//236 126//236 127//236
f 169//237 199//238 153//239
f 169//237 200//240 199//238
f 169//237 197//241 200//240
f 135//242 173//242 134//242
f 135//243 155//244 173//196
f 169//245 153//245 126//245
f 201//246 90//247 202//248
f 201//246 203//249 90//247
f 202//250 90//250 204//250
f 95//116 205//251 97//117
f 95//252 90//252 205//252
f 102//253 204//253 100//253
f 206//254 207//255 160//256
f 206//254 160//256 191//257
f 208//258 210//258 209//258
f 209//259 160//260 207//261
f 209//259 210//262 160//260
f 187//202 160//186 211//263
f 212//264 90//264 203//264
f 211//263 160//186 213//265
f 213//266 210//267 214//268
f 210//267 212//269 214//268
f 210//270 90//270 212//270
f 213//271 160//271 210//271
f 181//272 145//272 215//272
f 215//273 145//173 146//172
f 156//195 173//196 155//244
f 210//274 205//274 90//274
f 100//275 204//275 90//275
