# Blender v2.79 (sub 0) OBJ File: ''
# www.blender.org
mtllib crack_restart_keyway_660.mtl
o crack_restart_keyway_660
v 0.073374 -0.113208 -0.472461
v 0.072950 -0.113350 -0.459453
v 0.084681 -0.121377 -0.472461
v 0.147227 -0.162038 -0.087632
v 0.139755 -0.166768 -0.066561
v 0.150735 -0.164622 -0.087291
v 0.143382 -0.159202 -0.088100
v 0.131068 -0.149873 -0.089874
v 0.127495 -0.150676 -0.086872
v 0.135357 -0.153084 -0.089193
v 0.126540 -0.147825 -0.091832
v 0.152179 -0.169047 -0.080800
v 0.154210 -0.167189 -0.086931
v 0.139586 -0.156323 -0.088619
v 0.120406 -0.147382 -0.426347
v 0.095821 -0.129458 -0.472461
v 0.120406 -0.147382 -0.103551
v 0.114631 -0.144474 -0.094849
v 0.120866 -0.146923 -0.098614
v 0.120406 -0.147382 -0.118922
v 0.120406 -0.147382 -0.472461
v 0.108123 -0.138413 -0.472461
v 0.120406 -0.147382 -0.457089
v 0.074053 -0.112727 -0.186296
v 0.074461 -0.112400 -0.173289
v 0.106662 -0.141559 -0.120719
v 0.074019 -0.112678 -0.199304
v 0.070714 -0.114921 -0.394416
v 0.070017 -0.115192 -0.381408
v 0.103599 -0.139471 -0.401370
v 0.070960 -0.114600 -0.407423
v 0.072622 -0.113742 -0.446446
v 0.071894 -0.114013 -0.433438
v 0.071534 -0.114468 -0.420431
v 0.070559 -0.115007 -0.368401
v 0.070477 -0.114904 -0.355393
v 0.073092 -0.113408 -0.264341
v 0.073181 -0.113204 -0.251334
v 0.094982 -0.133192 -0.288861
v 0.072628 -0.113552 -0.277349
v 0.076327 -0.111228 -0.121259
v 0.076697 -0.110851 -0.108252
v 0.071653 -0.114403 -0.316371
v 0.120406 -0.147382 -0.318748
v 0.071550 -0.114229 -0.329378
v 0.120406 -0.147382 -0.303377
v 0.071464 -0.114284 -0.303364
v 0.074049 -0.112729 -0.212311
v 0.120406 -0.147382 -0.241892
v 0.073855 -0.112781 -0.225319
v 0.146811 -0.173699 -0.061414
v 0.148173 -0.172563 -0.068131
v 0.145884 -0.174348 -0.050963
v 0.150281 -0.170731 -0.074805
v 0.122213 -0.145575 -0.094013
v 0.115966 -0.144848 -0.090502
v 0.120406 -0.147382 -0.134293
v 0.120406 -0.147382 -0.149664
v 0.120406 -0.147382 -0.165036
v 0.120406 -0.147382 -0.180407
v 0.120406 -0.147382 -0.195778
v 0.120406 -0.147382 -0.211149
v 0.120406 -0.147382 -0.226521
v 0.120406 -0.147382 -0.257263
v 0.120406 -0.147382 -0.272634
v 0.120406 -0.147382 -0.288006
v 0.120406 -0.147382 -0.349490
v 0.120406 -0.147382 -0.334119
v 0.120406 -0.147382 -0.364862
v 0.120406 -0.147382 -0.380233
v 0.120406 -0.147382 -0.395604
v 0.120406 -0.147382 -0.410975
v 0.120406 -0.147382 -0.441718
v 0.143181 -0.175413 -0.027776
v 0.074561 -0.112128 -0.081618
v 0.141420 -0.176935 -0.009637
v 0.144619 -0.174859 -0.039619
v 0.071824 -0.114308 -0.342386
v 0.075835 -0.111448 -0.096496
v 0.074665 -0.112410 -0.166150
v 0.074729 -0.112247 -0.160281
v 0.075136 -0.111976 -0.147274
v 0.073546 -0.113086 -0.238326
v 0.103574 -0.135099 -0.472461
v 0.072209 -0.114035 -0.290356
v 0.075697 -0.111560 -0.134267
v 0.130805 -0.184874 0.188020
v 0.130809 -0.184776 0.175899
v 0.106341 -0.138084 0.249891
v 0.132090 -0.183817 0.212168
v 0.130869 -0.184629 0.162575
v 0.072449 -0.110570 0.159329
v 0.075721 -0.110034 0.184726
v 0.078295 -0.109240 0.200136
v 0.081292 -0.106478 0.228714
v 0.093140 -0.121250 0.239308
v 0.080227 -0.107671 0.215414
v 0.080227 -0.107671 0.215414
v 0.138267 -0.180245 0.260704
v 0.137136 -0.180983 0.252793
v 0.125483 -0.163099 0.258427
v 0.137136 -0.180983 0.252793
v 0.132873 -0.183394 0.219709
v 0.134770 -0.182338 0.235656
v 0.134770 -0.182338 0.235656
v 0.070044 -0.112346 -0.001446
v 0.071268 -0.113655 0.025674
v 0.071972 -0.113212 -0.027039
v 0.069982 -0.112537 0.052171
v 0.071474 -0.111351 -0.054992
v 0.071083 -0.113772 0.078518
v 0.070000 -0.112372 0.106111
v 0.072311 -0.112999 0.130813
v 0.131335 -0.184501 0.136434
v 0.131922 -0.183830 0.113149
v 0.133479 -0.183052 0.084866
v 0.134675 -0.181902 0.064926
v 0.137232 -0.180399 0.035615
v 0.138821 -0.179007 0.017621
v 0.073374 -0.113208 -0.472461
v 0.084681 -0.121377 -0.472461
v 0.072950 -0.113350 -0.459453
v 0.147227 -0.162038 -0.087632
v 0.150735 -0.164622 -0.087291
v 0.139755 -0.166768 -0.066561
v 0.143382 -0.159202 -0.088100
v 0.131068 -0.149873 -0.089874
v 0.135357 -0.153084 -0.089193
v 0.127495 -0.150676 -0.086872
v 0.126540 -0.147825 -0.091832
v 0.154210 -0.167189 -0.086931
v 0.152179 -0.169047 -0.080800
v 0.139586 -0.156323 -0.088619
v 0.120406 -0.147382 -0.426347
v 0.095821 -0.129458 -0.472461
v 0.120406 -0.147382 -0.103551
v 0.120866 -0.146923 -0.098614
v 0.114631 -0.144474 -0.094849
v 0.120406 -0.147382 -0.118922
v 0.120406 -0.147382 -0.472461
v 0.120406 -0.147382 -0.457089
v 0.108123 -0.138413 -0.472461
v 0.074053 -0.112727 -0.186296
v 0.106662 -0.141559 -0.120719
v 0.074461 -0.112400 -0.173289
v 0.074019 -0.112678 -0.199304
v 0.070714 -0.114921 -0.394416
v 0.103599 -0.139471 -0.401370
v 0.070017 -0.115192 -0.381408
v 0.070960 -0.114600 -0.407423
v 0.072622 -0.113742 -0.446446
v 0.071894 -0.114013 -0.433438
v 0.071534 -0.114468 -0.420431
v 0.070559 -0.115007 -0.368401
v 0.070477 -0.114904 -0.355393
v 0.073092 -0.113408 -0.264341
v 0.094982 -0.133192 -0.288861
v 0.073181 -0.113204 -0.251334
v 0.072628 -0.113552 -0.277349
v 0.076327 -0.111228 -0.121259
v 0.076697 -0.110851 -0.108252
v 0.071653 -0.114403 -0.316371
v 0.071550 -0.114229 -0.329378
v 0.120406 -0.147382 -0.318748
v 0.120406 -0.147382 -0.303377
v 0.071464 -0.114284 -0.303364
v 0.074049 -0.112729 -0.212311
v 0.073855 -0.112781 -0.225319
v 0.120406 -0.147382 -0.241892
v 0.146811 -0.173699 -0.061414
v 0.148173 -0.172563 -0.068131
v 0.145884 -0.174348 -0.050963
v 0.150281 -0.170731 -0.074805
v 0.122213 -0.145575 -0.094013
v 0.115966 -0.144848 -0.090502
v 0.120406 -0.147382 -0.134293
v 0.120406 -0.147382 -0.149664
v 0.120406 -0.147382 -0.165036
v 0.120406 -0.147382 -0.180407
v 0.120406 -0.147382 -0.195778
v 0.120406 -0.147382 -0.211149
v 0.120406 -0.147382 -0.226521
v 0.120406 -0.147382 -0.257263
v 0.120406 -0.147382 -0.272634
v 0.120406 -0.147382 -0.288006
v 0.120406 -0.147382 -0.349490
v 0.120406 -0.147382 -0.334119
v 0.120406 -0.147382 -0.364862
v 0.120406 -0.147382 -0.380233
v 0.120406 -0.147382 -0.395604
v 0.120406 -0.147382 -0.410975
v 0.120406 -0.147382 -0.441718
v 0.143181 -0.175413 -0.027776
v 0.141420 -0.176935 -0.009637
v 0.074561 -0.112128 -0.081618
v 0.144619 -0.174859 -0.039619
v 0.071824 -0.114308 -0.342386
v 0.075835 -0.111448 -0.096496
v 0.074729 -0.112247 -0.160281
v 0.074665 -0.112410 -0.166150
v 0.075136 -0.111976 -0.147274
v 0.073546 -0.113086 -0.238326
v 0.103574 -0.135099 -0.472461
v 0.072209 -0.114035 -0.290356
v 0.075697 -0.111560 -0.134267
v 0.130805 -0.184874 0.188020
v 0.130809 -0.184776 0.175899
v 0.132090 -0.183817 0.212168
v 0.130869 -0.184629 0.162575
v 0.075721 -0.110034 0.184726
v 0.072449 -0.110570 0.159329
v 0.078295 -0.109240 0.200136
v 0.132873 -0.183394 0.219709
v 0.070044 -0.112346 -0.001446
v 0.071268 -0.113655 0.025674
v 0.071972 -0.113212 -0.027039
v 0.069982 -0.112537 0.052171
v 0.071474 -0.111351 -0.054992
v 0.071083 -0.113772 0.078518
v 0.070000 -0.112372 0.106111
v 0.072311 -0.112999 0.130813
v 0.131335 -0.184501 0.136434
v 0.131922 -0.183830 0.113149
v 0.133479 -0.183052 0.084866
v 0.134675 -0.181902 0.064926
v 0.137232 -0.180399 0.035615
v 0.138821 -0.179007 0.017621
vn -0.5854 -0.8103 -0.0279
vn -0.5278 -0.7693 -0.3599
vn -0.5303 -0.7674 -0.3603
vn -0.5323 -0.7666 -0.3592
vn -0.5261 -0.7715 -0.3578
vn -0.3914 -0.6591 -0.6422
vn -0.1925 -0.8663 -0.4609
vn -0.5172 -0.7563 -0.4005
vn -0.5649 -0.7349 -0.3753
vn -0.5324 -0.7666 -0.3589
vn -0.5758 -0.8174 -0.0149
vn -0.5872 -0.8095 -0.0016
vn -0.5880 -0.8089 -0.0017
vn -0.5879 -0.8089 -0.0010
vn -0.3016 -0.9463 0.1161
vn -0.4497 -0.8932 0.0000
vn -0.5897 -0.8076 0.0000
vn -0.5895 -0.8077 -0.0004
vn -0.7057 -0.7074 0.0399
vn -0.6611 -0.7503 -0.0011
vn -0.6041 -0.7954 -0.0489
vn -0.6021 -0.7978 -0.0311
vn -0.6022 -0.7977 -0.0312
vn -0.6022 -0.7976 -0.0346
vn -0.5640 -0.8244 -0.0478
vn -0.5621 -0.8261 -0.0401
vn -0.5611 -0.8265 -0.0447
vn -0.5642 -0.8247 -0.0391
vn -0.5617 -0.8261 -0.0444
vn -0.5934 -0.8049 0.0026
vn -0.5716 -0.8198 0.0355
vn -0.6603 -0.7508 0.0163
vn -0.6505 -0.7589 0.0316
vn -0.7067 -0.7064 0.0407
vn -0.7057 -0.7072 0.0423
vn -0.7068 -0.7062 0.0406
vn -0.5605 -0.8281 -0.0066
vn -0.5605 -0.8281 -0.0067
vn -0.5606 -0.8281 -0.0004
vn -0.5603 -0.8283 0.0000
vn -0.5599 -0.8286 -0.0002
vn -0.5602 -0.8284 -0.0006
vn -0.5988 -0.8009 0.0107
vn -0.5937 -0.8046 0.0121
vn -0.5980 -0.8015 0.0023
vn -0.5980 -0.8015 0.0018
vn -0.5803 -0.7755 -0.2488
vn -0.6570 -0.7466 -0.1046
vn -0.6535 -0.7496 -0.1049
vn -0.6551 -0.7479 -0.1069
vn -0.5715 -0.7272 -0.3801
vn -0.5725 -0.7241 -0.3845
vn -0.5758 -0.7233 -0.3813
vn -0.5736 -0.7232 -0.3847
vn -0.1708 -0.9310 0.3227
vn -0.2942 -0.8938 -0.3384
vn -0.1390 -0.9894 -0.0424
vn -0.3901 -0.9208 0.0000
vn -0.4874 -0.8732 0.0000
vn -0.4259 -0.9048 0.0000
vn -0.6178 -0.7763 -0.1251
vn -0.6218 -0.7743 -0.1177
vn -0.6389 -0.7609 -0.1132
vn -0.4358 -0.8147 -0.3825
vn -0.3910 -0.6295 -0.6714
vn -0.5751 -0.8171 0.0388
vn -0.6543 -0.7486 -0.1067
vn -0.2943 -0.8520 -0.4330
vn -0.2615 -0.8271 -0.4975
vn -0.6037 -0.7910 0.0998
vn -0.7323 -0.6745 -0.0935
vn -0.7331 -0.6743 -0.0889
vn -0.7314 -0.6759 -0.0907
vn -0.6288 -0.7731 -0.0831
vn -0.9562 -0.0356 0.2905
vn -0.9562 -0.0313 0.2911
vn -0.5586 -0.8294 0.0000
vn -0.6017 -0.7980 -0.0346
vn -0.5154 -0.8283 -0.2196
vn -0.6910 -0.7225 0.0231
vn -0.6943 -0.7192 0.0275
vn -0.6853 -0.7278 0.0259
vn -0.6877 -0.7258 0.0186
vn -0.7001 -0.7131 0.0368
vn -0.5854 -0.8075 0.0729
vn -0.5885 -0.8085 -0.0005
vn -0.5959 -0.7338 -0.3263
vn -0.5078 -0.8565 0.0918
vn -0.5605 -0.8281 -0.0068
vn -0.7306 -0.6772 -0.0880
vn -0.6448 -0.7627 0.0491
vn -0.3919 -0.9198 0.0171
vn -0.7644 -0.6426 0.0535
vn -0.7644 -0.6426 0.0534
vn -0.7794 -0.6243 0.0537
vn -0.7065 -0.7057 0.0526
vn -0.5886 -0.8077 0.0329
vn -0.8883 -0.4592 -0.0040
vn -0.8914 -0.4531 -0.0088
vn -0.8927 -0.4505 -0.0050
vn -0.8443 -0.5316 0.0682
vn -0.8915 -0.4529 -0.0090
vn -0.7927 -0.5987 0.1148
vn -0.8349 -0.5246 0.1665
vn -0.8138 -0.5694 0.1162
vn 0.8138 0.5694 -0.1162
vn -0.8008 -0.5748 0.1681
vn 0.8008 0.5748 -0.1681
vn 0.8029 0.5722 -0.1673
vn 0.8006 0.5756 -0.1665
vn -0.8212 -0.5586 0.1166
vn -0.8135 -0.5658 0.1342
vn -0.8402 -0.5183 0.1595
vn -0.8201 -0.5546 0.1407
vn -0.8092 -0.5681 0.1499
vn -0.8043 -0.5733 0.1564
vn 0.8043 0.5733 -0.1564
vn 0.8092 0.5681 -0.1499
vn -0.4786 -0.8778 -0.0208
vn -0.5269 -0.8499 -0.0109
vn -0.5935 -0.8048 0.0052
vn -0.5816 -0.8123 -0.0437
vn -0.3773 -0.9254 -0.0363
vn -0.5012 -0.8651 -0.0196
vn -0.6180 -0.7860 0.0156
vn -0.6932 -0.7192 0.0466
vn -0.7237 -0.6873 0.0620
vn -0.8982 -0.4392 -0.0182
vn -0.9377 -0.3420 -0.0610
vn -0.9129 -0.4067 -0.0347
vn -0.9508 -0.3008 -0.0744
vn -0.9703 -0.2221 -0.0960
vn -0.9749 -0.1981 -0.1014
vn -0.9792 -0.1727 -0.1065
vn -0.7024 -0.7117 0.0116
vn -0.5595 -0.8274 0.0479
vn -0.6176 -0.7859 -0.0323
vn -0.6517 -0.7581 0.0252
vn 0.5854 0.8103 0.0279
vn 0.5278 0.7693 0.3599
vn 0.5322 0.7666 0.3592
vn 0.5303 0.7674 0.3603
vn 0.5261 0.7715 0.3578
vn 0.3914 0.6591 0.6422
vn 0.1925 0.8663 0.4609
vn 0.5172 0.7563 0.4005
vn 0.5649 0.7349 0.3753
vn 0.5324 0.7666 0.3589
vn 0.5758 0.8174 0.0149
vn 0.5872 0.8095 0.0016
vn 0.5885 0.8085 0.0005
vn 0.5880 0.8089 0.0017
vn 0.3016 0.9463 -0.1161
vn 0.4497 0.8932 0.0000
vn 0.5897 0.8076 0.0000
vn 0.7057 0.7074 -0.0399
vn 0.6611 0.7503 0.0011
vn 0.6041 0.7954 0.0489
vn 0.6021 0.7978 0.0311
vn 0.6022 0.7976 0.0346
vn 0.6022 0.7977 0.0312
vn 0.5640 0.8244 0.0479
vn 0.5611 0.8265 0.0447
vn 0.5621 0.8261 0.0402
vn 0.5642 0.8247 0.0391
vn 0.5617 0.8261 0.0444
vn 0.5934 0.8049 -0.0026
vn 0.5716 0.8198 -0.0355
vn 0.6603 0.7508 -0.0163
vn 0.6505 0.7589 -0.0316
vn 0.7068 0.7062 -0.0406
vn 0.5572 0.8304 0.0047
vn 0.5637 0.8260 0.0033
vn 0.5605 0.8281 0.0067
vn 0.5603 0.8283 0.0000
vn 0.5602 0.8284 0.0006
vn 0.5988 0.8008 -0.0108
vn 0.5980 0.8015 -0.0023
vn 0.5937 0.8046 -0.0121
vn 0.5980 0.8015 -0.0018
vn 0.5803 0.7755 0.2488
vn 0.6570 0.7466 0.1046
vn 0.6551 0.7479 0.1069
vn 0.6535 0.7496 0.1049
vn 0.5715 0.7272 0.3801
vn 0.5757 0.7233 0.3813
vn 0.5725 0.7241 0.3845
vn 0.5736 0.7232 0.3847
vn 0.1708 0.9310 -0.3227
vn 0.2942 0.8938 0.3384
vn 0.1390 0.9894 0.0424
vn 0.3901 0.9208 0.0000
vn 0.4874 0.8732 0.0000
vn 0.4259 0.9048 0.0000
vn 0.6168 0.7780 0.1195
vn 0.6192 0.7754 0.1242
vn 0.6178 0.7763 0.1251
vn 0.6218 0.7743 0.1177
vn 0.6389 0.7609 0.1132
vn 0.4358 0.8147 0.3825
vn 0.3910 0.6295 0.6714
vn 0.5751 0.8171 -0.0388
vn 0.6543 0.7486 0.1067
vn 0.2943 0.8520 0.4330
vn 0.2615 0.8271 0.4975
vn 0.6037 0.7910 -0.0998
vn 0.7323 0.6745 0.0935
vn 0.7314 0.6759 0.0907
vn 0.7331 0.6743 0.0889
vn 0.6288 0.7731 0.0831
vn 0.9562 0.0356 -0.2905
vn 0.9562 0.0313 -0.2911
vn 0.5586 0.8294 0.0000
vn 0.6017 0.7980 0.0346
vn 0.5154 0.8283 0.2196
vn 0.6910 0.7225 -0.0231
vn 0.6854 0.7277 -0.0258
vn 0.6943 0.7192 -0.0275
vn 0.6877 0.7258 -0.0186
vn 0.7001 0.7131 -0.0368
vn 0.5854 0.8075 -0.0729
vn 0.5888 0.8083 0.0004
vn 0.5959 0.7338 0.3263
vn 0.5078 0.8565 -0.0918
vn 0.5605 0.8281 0.0068
vn 0.7306 0.6772 0.0880
vn 0.6448 0.7627 -0.0491
vn 0.3919 0.9198 -0.0171
vn 0.7644 0.6426 -0.0535
vn 0.7794 0.6243 -0.0537
vn 0.7644 0.6426 -0.0534
vn 0.7065 0.7057 -0.0526
vn 0.5886 0.8077 -0.0329
vn 0.8883 0.4592 0.0040
vn 0.8927 0.4505 0.0050
vn 0.8914 0.4531 0.0088
vn 0.8443 0.5316 -0.0682
vn 0.8915 0.4529 0.0090
vn 0.7927 0.5987 -0.1148
vn 0.8349 0.5246 -0.1665
vn 0.8212 0.5586 -0.1166
vn 0.8135 0.5658 -0.1342
vn 0.8402 0.5183 -0.1595
vn 0.8201 0.5546 -0.1407
vn 0.4786 0.8778 0.0208
vn 0.5269 0.8499 0.0109
vn 0.5935 0.8048 -0.0052
vn 0.5816 0.8123 0.0437
vn 0.3773 0.9254 0.0363
vn 0.5012 0.8651 0.0196
vn 0.6180 0.7860 -0.0156
vn 0.6932 0.7192 -0.0466
vn 0.7237 0.6873 -0.0620
vn 0.8982 0.4392 0.0182
vn 0.9377 0.3420 0.0610
vn 0.9129 0.4067 0.0347
vn 0.9508 0.3008 0.0744
vn 0.9703 0.2221 0.0960
vn 0.9749 0.1981 0.1014
vn 0.9792 0.1727 0.1065
vn 0.7024 0.7117 -0.0116
vn 0.5595 0.8274 -0.0479
vn 0.6176 0.7859 0.0323
vn 0.6517 0.7581 -0.0252
usemtl None.126
s 1
f 1//1 3//1 2//1
f 4//2 6//3 5//4
f 4//2 5//4 7//5
f 8//6 10//6 9//6
f 8//7 9//7 11//7
f 6//8 13//8 12//8
f 6//9 12//9 5//9
f 7//5 5//4 14//10
f 3//11 15//11 2//11
f 3//12 16//13 15//14
f 17//15 19//15 18//15
f 17//16 18//16 20//16
f 21//17 23//17 22//18
f 24//19 26//19 25//19
f 24//20 27//20 26//20
f 28//21 30//21 29//21
f 28//22 31//23 30//24
f 32//25 15//26 33//27
f 32//25 2//28 15//26
f 34//29 33//27 15//26
f 35//30 30//30 36//30
f 35//31 29//31 30//31
f 37//32 39//32 38//32
f 37//33 40//33 39//33
f 41//34 26//35 42//36
f 43//37 45//38 44//38
f 43//39 44//40 46//41
f 43//39 46//41 47//42
f 48//43 50//44 49//45
f 48//43 49//45 27//46
f 51//47 5//47 52//47
f 51//48 53//49 5//50
f 52//51 5//52 54//53
f 12//54 54//53 5//52
f 19//55 55//55 18//55
f 55//56 11//56 56//56
f 55//57 56//57 18//57
f 20//58 26//58 57//58
f 57//58 26//58 58//58
f 59//58 26//58 60//58
f 59//58 58//58 26//58
f 60//58 26//58 61//58
f 61//58 26//58 62//58
f 62//58 26//58 63//58
f 49//59 39//59 64//59
f 64//59 39//59 65//59
f 65//59 39//59 66//59
f 67//60 68//60 30//60
f 67//60 30//60 69//60
f 69//60 30//60 70//60
f 70//60 30//60 71//60
f 71//60 30//60 72//60
f 23//17 73//17 22//18
f 74//61 76//61 75//61
f 74//62 75//62 5//62
f 74//63 5//63 77//63
f 14//64 5//64 9//64
f 14//65 9//65 10//65
f 30//66 44//66 78//66
f 5//50 53//49 77//67
f 9//68 56//68 11//68
f 9//69 5//69 56//69
f 75//70 26//70 56//70
f 75//71 79//72 26//73
f 56//74 5//74 75//74
f 66//59 39//59 46//59
f 18//75 56//76 26//76
f 34//77 15//77 72//77
f 34//78 30//24 31//23
f 34//79 72//79 30//79
f 63//58 26//58 49//58
f 26//80 81//81 80//82
f 26//80 80//82 25//83
f 26//84 82//84 81//84
f 73//17 15//14 22//18
f 39//85 49//85 83//85
f 22//18 15//14 84//86
f 15//14 16//13 84//86
f 39//87 85//87 46//87
f 78//88 36//88 30//88
f 68//60 44//60 30//60
f 44//38 45//38 78//89
f 26//73 79//72 42//90
f 85//91 39//91 40//91
f 26//92 20//92 18//92
f 82//93 41//94 86//95
f 82//96 26//35 41//34
f 50//97 83//97 49//97
f 87//98 89//99 88//100
f 87//101 90//101 89//101
f 89//99 91//102 88//100
f 89//103 93//103 92//103
f 89//104 94//104 93//104
f 95//105 97//105 96//105
f 95//106 96//106 98//106
f 99//107 101//107 100//107
f 99//108 102//109 101//110
f 103//111 89//111 90//111
f 103//112 104//112 89//112
f 97//113 94//113 96//113
f 89//114 96//114 94//114
f 89//115 104//115 101//115
f 100//116 101//116 104//116
f 101//110 102//109 105//117
f 101//118 105//118 89//118
f 106//119 89//119 107//119
f 106//120 108//120 89//120
f 107//121 89//121 109//121
f 108//122 110//122 75//122
f 108//123 75//123 89//123
f 111//124 109//124 89//124
f 111//125 89//125 112//125
f 112//126 89//126 113//126
f 113//127 89//127 92//127
f 91//128 89//128 114//128
f 115//129 89//129 116//129
f 115//130 114//130 89//130
f 117//131 116//131 89//131
f 118//132 117//132 89//132
f 118//133 89//133 119//133
f 119//134 89//134 76//134
f 76//135 89//135 75//135
f 46//136 85//136 47//136
f 26//137 27//137 49//137
f 39//138 83//138 38//138
f 120//139 122//139 121//139
f 123//140 125//141 124//142
f 123//140 126//143 125//141
f 127//144 129//144 128//144
f 127//145 130//145 129//145
f 124//146 132//146 131//146
f 124//147 125//147 132//147
f 126//143 133//148 125//141
f 121//149 122//149 134//149
f 121//150 134//151 135//152
f 136//153 138//153 137//153
f 136//154 139//154 138//154
f 140//155 142//155 141//155
f 143//156 145//156 144//156
f 143//157 144//157 146//157
f 147//158 149//158 148//158
f 147//159 148//160 150//161
f 151//162 152//163 134//164
f 151//162 134//164 122//165
f 153//166 134//164 152//163
f 154//167 155//167 148//167
f 154//168 148//168 149//168
f 156//169 158//169 157//169
f 156//170 157//170 159//170
f 160//171 161//171 144//171
f 162//172 164//173 163//174
f 162//172 165//175 164//173
f 162//176 166//176 165//176
f 167//177 169//178 168//179
f 167//177 146//180 169//178
f 170//181 171//181 125//181
f 170//182 125//183 172//184
f 171//185 173//186 125//187
f 132//188 125//187 173//186
f 137//189 138//189 174//189
f 174//190 175//190 130//190
f 174//191 138//191 175//191
f 139//192 176//192 144//192
f 176//192 177//192 144//192
f 178//192 179//192 144//192
f 178//192 144//192 177//192
f 179//192 180//192 144//192
f 180//192 181//192 144//192
f 181//192 182//192 144//192
f 169//193 183//193 157//193
f 183//193 184//193 157//193
f 184//193 185//193 157//193
f 186//194 148//194 187//194
f 186//194 188//194 148//194
f 188//194 189//194 148//194
f 189//194 190//194 148//194
f 190//194 191//194 148//194
f 141//155 142//155 192//155
f 193//195 195//196 194//197
f 193//195 125//198 195//196
f 193//199 196//199 125//199
f 133//200 129//200 125//200
f 133//201 128//201 129//201
f 148//202 197//202 164//202
f 125//183 196//203 172//184
f 129//204 130//204 175//204
f 129//205 175//205 125//205
f 195//206 175//206 144//206
f 195//207 144//208 198//209
f 175//210 195//210 125//210
f 185//193 165//193 157//193
f 138//211 144//212 175//212
f 153//213 191//213 134//213
f 153//214 150//161 148//160
f 153//215 148//215 191//215
f 182//192 169//192 144//192
f 144//216 200//217 199//218
f 144//216 145//219 200//217
f 144//220 199//220 201//220
f 192//155 142//155 134//155
f 157//221 202//221 169//221
f 142//222 203//151 134//151
f 134//151 203//151 135//152
f 157//223 165//223 204//223
f 197//224 148//224 155//224
f 187//194 148//194 164//194
f 164//173 197//225 163//174
f 144//208 161//226 198//209
f 204//227 159//227 157//227
f 144//228 138//228 139//228
f 201//229 205//230 160//231
f 201//232 160//232 144//232
f 168//233 169//233 202//233
f 206//234 207//235 89//236
f 206//237 89//237 208//237
f 89//236 207//235 209//238
f 89//239 211//239 210//239
f 89//240 210//240 212//240
f 213//241 208//241 89//241
f 213//242 89//242 105//242
f 98//243 96//243 212//243
f 89//244 212//244 96//244
f 214//245 215//245 89//245
f 214//246 89//246 216//246
f 215//247 217//247 89//247
f 216//248 195//248 218//248
f 216//249 89//249 195//249
f 219//250 89//250 217//250
f 219//251 220//251 89//251
f 220//252 221//252 89//252
f 221//253 211//253 89//253
f 209//254 222//254 89//254
f 223//255 224//255 89//255
f 223//256 89//256 222//256
f 225//257 89//257 224//257
f 226//258 89//258 225//258
f 226//259 227//259 89//259
f 227//260 194//260 89//260
f 194//261 195//261 89//261
f 165//262 166//262 204//262
f 144//263 169//263 146//263
f 157//264 158//264 202//264
