# Blender v2.79 (sub 0) OBJ File: ''
# www.blender.org
mtllib crack_restart_keyway_185.mtl
o crack_restart_keyway_185
v 0.073499 -0.113119 -0.472461
v 0.072762 -0.113468 -0.459453
v 0.085075 -0.121130 -0.472461
v 0.120406 -0.147382 -0.472461
v 0.109070 -0.137658 -0.472461
v 0.120406 -0.147382 -0.457089
v 0.070608 -0.114980 -0.394416
v 0.070362 -0.114976 -0.381408
v 0.070776 -0.114887 -0.368401
v 0.070807 -0.114696 -0.407423
v 0.072573 -0.113776 -0.446446
v 0.071628 -0.114180 -0.433438
v 0.071320 -0.114586 -0.342386
v 0.091191 -0.133324 -0.334386
v 0.070918 -0.114627 -0.355393
v 0.071553 -0.114227 -0.329378
v 0.071226 -0.114638 -0.420431
v 0.071599 -0.114432 -0.316371
v 0.071421 -0.114436 -0.309867
v 0.071580 -0.114301 -0.324670
v 0.120406 -0.147382 -0.226521
v 0.111292 -0.144232 -0.222194
v 0.120406 -0.147382 -0.218835
v 0.120406 -0.147382 -0.234206
v 0.120406 -0.147382 -0.241892
v 0.120406 -0.147382 -0.257263
v 0.120406 -0.147382 -0.272634
v 0.120406 -0.147382 -0.288006
v 0.120406 -0.147382 -0.303377
v 0.120406 -0.147382 -0.318748
v 0.120406 -0.147382 -0.349490
v 0.120406 -0.147382 -0.364862
v 0.120406 -0.147382 -0.334119
v 0.120406 -0.147382 -0.380233
v 0.120406 -0.147382 -0.395604
v 0.120406 -0.147382 -0.410975
v 0.120406 -0.147382 -0.426347
v 0.120406 -0.147382 -0.441718
v 0.094437 -0.132794 -0.249478
v 0.101279 -0.138053 -0.237157
v 0.103129 -0.133204 -0.472461
v 0.079048 -0.119922 -0.280532
v 0.081188 -0.122010 -0.276350
v 0.104072 -0.140356 -0.232853
v 0.096792 -0.128683 -0.472461
v 0.084087 -0.124227 -0.270857
v 0.086927 -0.126780 -0.264936
v 0.073402 -0.115578 -0.298202
v 0.071609 -0.114227 -0.301550
v 0.108064 -0.142855 -0.226231
v 0.115743 -0.145804 -0.219269
v 0.071421 -0.114436 -0.309867
v 0.089160 -0.128833 -0.259101
v 0.091893 -0.130826 -0.253703
v 0.091191 -0.133324 -0.334386
v 0.120406 -0.147382 -0.216216
v 0.120406 -0.147382 -0.218835
v 0.073499 -0.113119 -0.472461
v 0.085075 -0.121130 -0.472461
v 0.072762 -0.113468 -0.459453
v 0.120406 -0.147382 -0.472461
v 0.120406 -0.147382 -0.457089
v 0.109070 -0.137658 -0.472461
v 0.070608 -0.114980 -0.394416
v 0.070776 -0.114887 -0.368401
v 0.070362 -0.114976 -0.381408
v 0.070807 -0.114696 -0.407423
v 0.072573 -0.113776 -0.446446
v 0.071628 -0.114180 -0.433438
v 0.071320 -0.114586 -0.342386
v 0.070918 -0.114627 -0.355393
v 0.071553 -0.114227 -0.329378
v 0.071226 -0.114638 -0.420431
v 0.071599 -0.114432 -0.316371
v 0.071580 -0.114301 -0.324670
v 0.120406 -0.147382 -0.226521
v 0.120406 -0.147382 -0.234206
v 0.120406 -0.147382 -0.241892
v 0.120406 -0.147382 -0.257263
v 0.120406 -0.147382 -0.272634
v 0.120406 -0.147382 -0.288006
v 0.120406 -0.147382 -0.303377
v 0.120406 -0.147382 -0.318748
v 0.120406 -0.147382 -0.349490
v 0.120406 -0.147382 -0.364862
v 0.120406 -0.147382 -0.334119
v 0.120406 -0.147382 -0.380233
v 0.120406 -0.147382 -0.395604
v 0.120406 -0.147382 -0.410975
v 0.120406 -0.147382 -0.426347
v 0.120406 -0.147382 -0.441718
v 0.103129 -0.133204 -0.472461
v 0.096792 -0.128683 -0.472461
v 0.075258 -0.116278 -0.292319
v 0.076868 -0.117692 -0.286785
vn 0.5682 0.8211 0.0542
vn 0.6511 0.7590 0.0000
vn -0.1281 0.9918 -0.0027
vn -0.7594 0.6507 0.0026
vn 0.5491 0.8353 0.0278
vn 0.6082 0.7908 0.0687
vn 0.6925 0.7208 -0.0315
vn 0.6903 0.7232 -0.0225
vn 0.6907 0.7228 -0.0234
vn 0.6926 0.7206 -0.0323
vn 0.5617 0.8260 0.0464
vn 0.4494 0.8933 0.0082
vn 0.0139 0.9999 0.0049
vn 0.6994 0.7146 0.0113
vn 0.7033 0.7106 0.0197
vn 0.7028 0.7112 0.0186
vn 0.6987 0.7153 0.0097
vn 0.3395 0.9401 0.0306
vn 0.3267 0.9451 0.0000
vn 0.4336 0.9011 0.0000
vn 0.5964 0.8027 0.0000
vn 0.5007 0.8640 0.0541
vn 0.5665 0.8225 0.0512
vn 0.6417 0.7664 -0.0293
vn 0.6418 0.7663 -0.0293
vn -0.0001 0.0000 1.0000
vn 0.6900 0.7235 -0.0220
vn 0.7136 0.7004 -0.0134
vn 0.7122 0.7018 -0.0141
vn 0.7127 0.7013 -0.0138
vn 0.6654 0.7458 -0.0328
vn 0.6318 0.7741 0.0404
vn 0.6981 0.7160 0.0073
vn 0.0004 0.0000 1.0000
vn 0.6964 0.7172 -0.0248
vn 0.6641 0.7466 -0.0397
vn 0.6409 0.7669 -0.0338
vn 0.3657 0.9304 0.0249
vn 0.3184 0.9476 0.0248
vn -0.6409 -0.7669 0.0338
vn 0.6264 0.7789 -0.0296
vn -0.6264 -0.7789 0.0296
vn 0.7085 0.7053 -0.0230
vn -0.7085 -0.7053 0.0230
vn 0.3206 0.9472 0.0000
vn -0.3206 -0.9472 0.0000
vn -0.3184 -0.9476 -0.0248
vn -0.6654 -0.7458 0.0328
vn 0.5434 0.8394 -0.0108
vn -0.5434 -0.8394 0.0108
vn -0.5682 -0.8211 -0.0542
vn -0.6511 -0.7590 0.0000
vn 0.1281 -0.9918 0.0027
vn 0.7594 -0.6507 -0.0026
vn -0.5491 -0.8353 -0.0278
vn -0.6082 -0.7908 -0.0687
vn -0.6925 -0.7208 0.0316
vn -0.6907 -0.7228 0.0234
vn -0.6903 -0.7232 0.0224
vn -0.6926 -0.7206 0.0323
vn -0.5617 -0.8260 -0.0464
vn -0.4494 -0.8933 -0.0082
vn -0.0139 -0.9999 -0.0049
vn -0.7033 -0.7106 -0.0197
vn -0.6987 -0.7153 -0.0097
vn -0.6980 -0.7160 -0.0075
vn -0.6981 -0.7160 -0.0076
vn -0.3395 -0.9401 -0.0306
vn -0.3267 -0.9451 0.0000
vn -0.4336 -0.9011 -0.0000
vn -0.5964 -0.8027 0.0000
vn -0.5007 -0.8640 -0.0541
vn -0.5665 -0.8225 -0.0512
vn -0.6417 -0.7664 0.0293
vn -0.6418 -0.7663 0.0293
vn 0.0001 0.0000 -1.0000
vn -0.0000 0.0000 -1.0000
vn -0.6900 -0.7235 0.0220
vn -0.7136 -0.7004 0.0134
vn -0.7127 -0.7013 0.0138
vn -0.7122 -0.7018 0.0141
vn -0.6318 -0.7741 -0.0404
vn -0.6981 -0.7160 -0.0073
vn -0.0004 -0.0000 -1.0000
vn -0.6964 -0.7172 0.0248
vn -0.6641 -0.7466 0.0397
vn -0.3657 -0.9304 -0.0249
vn -0.7140 -0.7000 0.0132
vn -0.5999 -0.7945 0.0947
vn -0.6416 -0.7665 0.0293
vn 0.8615 0.4922 -0.1248
vn 0.8620 0.4913 -0.1253
vn -0.6494 -0.7596 0.0362
vn 0.7140 0.7000 -0.0132
vn 0.5999 0.7945 -0.0947
vn 0.6416 0.7665 -0.0293
vn 0.6494 0.7596 -0.0362
usemtl None.020
s 1
f 1//1 2//1 3//1
f 4//2 5//2 6//2
f 7//3 8//3 9//3
f 7//4 9//4 10//4
f 11//5 3//5 2//5
f 11//6 12//6 3//6
f 13//7 14//8 15//9
f 13//7 16//10 14//8
f 17//11 3//11 12//11
f 17//12 9//12 3//12
f 17//13 10//13 9//13
f 18//14 19//15 14//16
f 18//14 14//16 20//17
f 21//18 14//18 22//18
f 21//19 22//19 23//19
f 21//20 24//20 14//20
f 25//20 14//20 24//20
f 25//20 26//20 14//20
f 26//20 27//20 14//20
f 27//20 28//20 14//20
f 29//20 30//20 14//20
f 29//20 14//20 28//20
f 31//20 32//20 14//20
f 31//20 14//20 33//20
f 32//20 34//20 14//20
f 34//21 35//21 3//21
f 34//22 3//22 14//22
f 35//21 36//21 3//21
f 36//21 37//21 3//21
f 6//2 5//2 38//2
f 38//23 5//23 3//23
f 38//21 3//21 37//21
f 14//24 39//25 40//25
f 5//26 41//26 3//26
f 14//8 9//27 15//9
f 42//28 43//29 14//30
f 40//31 44//31 14//31
f 3//32 9//32 14//32
f 16//33 20//33 14//33
f 41//34 45//34 3//34
f 14//20 30//20 33//20
f 14//35 46//35 47//35
f 48//36 14//36 19//36
f 48//37 19//37 49//37
f 22//38 14//38 50//38
f 22//39 51//39 23//39
f 49//40 52//40 48//40
f 53//41 54//41 14//41
f 53//42 55//42 54//42
f 53//43 14//43 47//43
f 53//44 47//44 55//44
f 51//45 56//45 23//45
f 51//46 57//46 56//46
f 51//47 22//47 57//47
f 44//48 40//48 55//48
f 44//49 50//49 14//49
f 44//50 55//50 50//50
f 58//51 59//51 60//51
f 61//52 62//52 63//52
f 64//53 65//53 66//53
f 64//54 67//54 65//54
f 68//55 60//55 59//55
f 68//56 59//56 69//56
f 70//57 71//58 55//59
f 70//57 55//59 72//60
f 73//61 69//61 59//61
f 73//62 59//62 65//62
f 73//63 65//63 67//63
f 74//64 55//64 52//64
f 74//65 75//66 55//67
f 76//68 22//68 55//68
f 76//69 57//69 22//69
f 76//70 55//70 77//70
f 78//70 77//70 55//70
f 78//70 55//70 79//70
f 79//70 55//70 80//70
f 80//70 55//70 81//70
f 82//70 55//70 83//70
f 82//70 81//70 55//70
f 84//70 55//70 85//70
f 84//70 86//70 55//70
f 85//70 55//70 87//70
f 87//71 59//71 88//71
f 87//72 55//72 59//72
f 88//71 59//71 89//71
f 89//71 59//71 90//71
f 62//52 91//52 63//52
f 91//73 59//73 63//73
f 91//71 90//71 59//71
f 55//74 40//75 39//75
f 63//76 59//77 92//76
f 55//59 71//58 65//78
f 42//79 55//80 43//81
f 59//82 55//82 65//82
f 72//83 55//67 75//66
f 92//76 59//77 93//84
f 55//70 86//70 83//70
f 55//85 47//85 46//85
f 48//86 52//86 55//86
f 22//87 50//87 55//87
f 55//80 42//79 94//88
f 55//89 94//89 48//89
f 39//75 54//90 55//74
f 94//91 95//92 42//91
f 46//93 43//93 55//93
f 14//30 94//94 42//28
f 14//95 48//95 94//95
f 39//25 14//24 54//96
f 46//97 14//97 43//97
