# Blender v2.79 (sub 0) OBJ File: ''
# www.blender.org
mtllib crack_restart_keyway_700.mtl
o crack_restart_keyway_700
v 0.073355 -0.113221 -0.472461
v 0.072937 -0.113358 -0.459453
v 0.084661 -0.121390 -0.472461
v 0.147225 -0.162039 -0.087633
v 0.115968 -0.144846 -0.090502
v 0.150732 -0.164624 -0.087293
v 0.143382 -0.159202 -0.088100
v 0.152182 -0.169044 -0.080798
v 0.154210 -0.167189 -0.086931
v 0.139590 -0.156320 -0.088615
v 0.120406 -0.147382 -0.426347
v 0.095807 -0.129469 -0.472461
v 0.120406 -0.147382 -0.103551
v 0.120866 -0.146923 -0.098614
v 0.120406 -0.147382 -0.118922
v 0.120406 -0.147382 -0.472461
v 0.108114 -0.138420 -0.472461
v 0.120406 -0.147382 -0.457089
v 0.074031 -0.112742 -0.186296
v 0.074402 -0.112437 -0.173289
v 0.090279 -0.126678 -0.153698
v 0.074034 -0.112669 -0.199304
v 0.073561 -0.113075 -0.238326
v 0.073853 -0.112783 -0.225319
v 0.094974 -0.133216 -0.288854
v 0.073188 -0.113200 -0.251334
v 0.070704 -0.114927 -0.394416
v 0.069954 -0.115232 -0.381408
v 0.120406 -0.147382 -0.395604
v 0.070965 -0.114597 -0.407423
v 0.072605 -0.113753 -0.446446
v 0.071897 -0.114011 -0.433438
v 0.071824 -0.114308 -0.342386
v 0.071547 -0.114231 -0.329378
v 0.070450 -0.114920 -0.355393
v 0.071551 -0.114459 -0.420431
v 0.073094 -0.113407 -0.264341
v 0.072609 -0.113564 -0.277349
v 0.074651 -0.112302 -0.160281
v 0.075013 -0.112053 -0.147274
v 0.071655 -0.114402 -0.316371
v 0.071441 -0.114298 -0.303364
v 0.074038 -0.112737 -0.212311
v 0.146840 -0.173674 -0.061410
v 0.148177 -0.172559 -0.068129
v 0.146001 -0.174253 -0.051049
v 0.150294 -0.170720 -0.074798
v 0.122213 -0.145575 -0.094013
v 0.126540 -0.147825 -0.091832
v 0.120406 -0.147382 -0.134293
v 0.120406 -0.147382 -0.149664
v 0.120406 -0.147382 -0.165036
v 0.120406 -0.147382 -0.180407
v 0.101518 -0.135003 -0.155337
v 0.120406 -0.147382 -0.195778
v 0.120406 -0.147382 -0.211149
v 0.120406 -0.147382 -0.226521
v 0.120406 -0.147382 -0.241892
v 0.120406 -0.147382 -0.257263
v 0.120406 -0.147382 -0.272634
v 0.120406 -0.147382 -0.288006
v 0.120406 -0.147382 -0.334119
v 0.120406 -0.147382 -0.349490
v 0.120406 -0.147382 -0.318748
v 0.120406 -0.147382 -0.364862
v 0.120406 -0.147382 -0.380233
v 0.120406 -0.147382 -0.441718
v 0.144828 -0.174696 -0.039772
v 0.105841 -0.148550 0.034879
v 0.143497 -0.175158 -0.027810
v 0.072241 -0.113043 -0.026476
v 0.135364 -0.153080 -0.089187
v 0.070535 -0.115020 -0.368401
v 0.131068 -0.149873 -0.089874
v 0.075827 -0.111453 -0.096502
v 0.074597 -0.112099 -0.081618
v 0.120406 -0.147382 -0.303377
v 0.120406 -0.147382 -0.410975
v 0.076473 -0.111009 -0.108252
v 0.093792 -0.129828 -0.176009
v 0.095786 -0.129230 -0.164093
v 0.103579 -0.135120 -0.472461
v 0.072173 -0.114060 -0.290356
v 0.075698 -0.111559 -0.134267
v 0.076284 -0.111254 -0.121259
v 0.077630 -0.109658 0.198757
v 0.115476 -0.162365 0.179714
v 0.075869 -0.109740 0.182569
v 0.078259 -0.108394 0.212311
v 0.080702 -0.106149 0.238326
v 0.081430 -0.103404 0.264341
v 0.138101 -0.180321 0.255821
v 0.143127 -0.174765 0.304594
v 0.141057 -0.177502 0.282122
v 0.135654 -0.181735 0.235154
v 0.084086 -0.103530 0.291857
v 0.101919 -0.124750 0.304211
v 0.129990 -0.156703 0.318341
v 0.144744 -0.173597 0.320439
v 0.070325 -0.112210 -0.001446
v 0.071419 -0.113560 0.025358
v 0.069987 -0.112533 0.052171
v 0.071679 -0.111187 -0.054992
v 0.073500 -0.109731 0.159331
v 0.072887 -0.112637 0.129617
v 0.112841 -0.137249 0.310042
v 0.133869 -0.182602 0.211155
v 0.133193 -0.183230 0.192274
v 0.132489 -0.183484 0.161600
v 0.132776 -0.183466 0.137642
v 0.133345 -0.182787 0.112350
v 0.071166 -0.113720 0.078693
v 0.134671 -0.182155 0.085908
v 0.135829 -0.181015 0.064317
v 0.138056 -0.179745 0.036401
v 0.139614 -0.178370 0.017212
v 0.141873 -0.176571 -0.009166
v 0.070080 -0.112334 0.106111
v 0.081430 -0.103404 0.264341
v 0.143127 -0.174765 0.304594
v 0.073355 -0.113221 -0.472461
v 0.084661 -0.121390 -0.472461
v 0.072937 -0.113358 -0.459453
v 0.147225 -0.162039 -0.087633
v 0.150732 -0.164624 -0.087293
v 0.115968 -0.144846 -0.090502
v 0.143382 -0.159202 -0.088100
v 0.154210 -0.167189 -0.086931
v 0.152182 -0.169044 -0.080798
v 0.139590 -0.156320 -0.088615
v 0.120406 -0.147382 -0.426347
v 0.095807 -0.129469 -0.472461
v 0.120406 -0.147382 -0.103551
v 0.120866 -0.146923 -0.098614
v 0.120406 -0.147382 -0.118922
v 0.120406 -0.147382 -0.472461
v 0.120406 -0.147382 -0.457089
v 0.108114 -0.138420 -0.472461
v 0.074031 -0.112742 -0.186296
v 0.090279 -0.126678 -0.153698
v 0.074402 -0.112437 -0.173289
v 0.074034 -0.112669 -0.199304
v 0.073561 -0.113075 -0.238326
v 0.094974 -0.133216 -0.288854
v 0.073853 -0.112783 -0.225319
v 0.073188 -0.113200 -0.251334
v 0.070704 -0.114927 -0.394416
v 0.120406 -0.147382 -0.395604
v 0.069954 -0.115232 -0.381408
v 0.070965 -0.114597 -0.407423
v 0.072605 -0.113753 -0.446446
v 0.071897 -0.114011 -0.433438
v 0.071824 -0.114308 -0.342386
v 0.071547 -0.114231 -0.329378
v 0.070450 -0.114920 -0.355393
v 0.071551 -0.114459 -0.420431
v 0.073094 -0.113407 -0.264341
v 0.072609 -0.113564 -0.277349
v 0.074651 -0.112302 -0.160281
v 0.075013 -0.112053 -0.147274
v 0.071655 -0.114402 -0.316371
v 0.071441 -0.114298 -0.303364
v 0.074038 -0.112737 -0.212311
v 0.146840 -0.173674 -0.061410
v 0.148177 -0.172559 -0.068129
v 0.146001 -0.174253 -0.051049
v 0.150294 -0.170720 -0.074798
v 0.122213 -0.145575 -0.094013
v 0.126540 -0.147825 -0.091832
v 0.120406 -0.147382 -0.134293
v 0.120406 -0.147382 -0.149664
v 0.120406 -0.147382 -0.165036
v 0.101518 -0.135003 -0.155337
v 0.120406 -0.147382 -0.180407
v 0.120406 -0.147382 -0.195778
v 0.120406 -0.147382 -0.211149
v 0.120406 -0.147382 -0.226521
v 0.120406 -0.147382 -0.241892
v 0.120406 -0.147382 -0.257263
v 0.120406 -0.147382 -0.272634
v 0.120406 -0.147382 -0.288006
v 0.120406 -0.147382 -0.334119
v 0.120406 -0.147382 -0.349490
v 0.120406 -0.147382 -0.318748
v 0.120406 -0.147382 -0.364862
v 0.120406 -0.147382 -0.380233
v 0.120406 -0.147382 -0.441718
v 0.144828 -0.174696 -0.039772
v 0.143497 -0.175158 -0.027810
v 0.105841 -0.148550 0.034879
v 0.072241 -0.113043 -0.026476
v 0.135364 -0.153080 -0.089187
v 0.070535 -0.115020 -0.368401
v 0.131068 -0.149873 -0.089874
v 0.074597 -0.112099 -0.081618
v 0.075827 -0.111453 -0.096502
v 0.120406 -0.147382 -0.303377
v 0.120406 -0.147382 -0.410975
v 0.076473 -0.111009 -0.108252
v 0.093792 -0.129828 -0.176009
v 0.095786 -0.129230 -0.164093
v 0.103579 -0.135120 -0.472461
v 0.072173 -0.114060 -0.290356
v 0.075698 -0.111559 -0.134267
v 0.076284 -0.111254 -0.121259
v 0.077630 -0.109658 0.198757
v 0.075869 -0.109740 0.182569
v 0.115476 -0.162365 0.179714
v 0.078259 -0.108394 0.212311
v 0.080702 -0.106149 0.238326
v 0.138101 -0.180321 0.255821
v 0.141057 -0.177502 0.282122
v 0.135654 -0.181735 0.235154
v 0.070325 -0.112210 -0.001446
v 0.071419 -0.113560 0.025358
v 0.069987 -0.112533 0.052171
v 0.071679 -0.111187 -0.054992
v 0.073500 -0.109731 0.159331
v 0.072887 -0.112637 0.129617
v 0.133869 -0.182602 0.211155
v 0.133193 -0.183230 0.192274
v 0.132489 -0.183484 0.161600
v 0.132776 -0.183466 0.137642
v 0.133345 -0.182787 0.112350
v 0.071166 -0.113720 0.078693
v 0.134671 -0.182155 0.085908
v 0.135829 -0.181015 0.064317
v 0.138056 -0.179745 0.036401
v 0.139614 -0.178370 0.017212
v 0.141873 -0.176571 -0.009166
v 0.070080 -0.112334 0.106111
vn -0.5854 -0.8103 -0.0273
vn 0.0768 -0.0270 -0.9967
vn 0.0759 -0.0280 -0.9967
vn 0.0760 -0.0281 -0.9967
vn 0.0051 -0.1557 -0.9878
vn 0.0045 -0.1564 -0.9877
vn -0.5167 -0.7571 -0.3998
vn -0.4103 -0.7939 -0.4487
vn -0.0190 -0.2002 -0.9796
vn -0.0183 -0.1992 -0.9798
vn -0.0219 -0.2020 -0.9791
vn -0.5759 -0.8174 -0.0143
vn -0.5869 -0.8097 -0.0015
vn -0.5878 -0.8090 -0.0016
vn -0.5875 -0.8092 -0.0009
vn -0.2264 -0.9677 0.1111
vn -0.4961 -0.8682 0.0000
vn -0.5891 -0.8080 0.0000
vn -0.5887 -0.8084 -0.0002
vn -0.6919 -0.7210 0.0366
vn -0.6459 -0.7634 -0.0044
vn -0.6412 -0.7669 0.0272
vn -0.6450 -0.7635 0.0312
vn -0.6442 -0.7642 0.0316
vn -0.6517 -0.7580 0.0260
vn -0.5469 -0.8356 -0.0511
vn -0.5470 -0.8365 -0.0322
vn -0.5469 -0.8366 -0.0329
vn -0.5469 -0.8366 -0.0328
vn -0.5638 -0.8246 -0.0463
vn -0.5624 -0.8259 -0.0402
vn -0.5617 -0.8261 -0.0453
vn -0.5638 -0.8250 -0.0394
vn -0.6206 -0.7841 -0.0086
vn -0.6224 -0.7827 -0.0080
vn -0.6192 -0.7852 -0.0059
vn -0.7698 -0.6286 0.1109
vn -0.5619 -0.8260 -0.0434
vn -0.6607 -0.7505 0.0167
vn -0.6500 -0.7592 0.0334
vn -0.6811 -0.7315 0.0319
vn -0.6826 -0.7305 0.0213
vn -0.6841 -0.7286 0.0330
vn -0.6816 -0.7315 0.0206
vn -0.6241 -0.7813 -0.0042
vn -0.6250 -0.7806 -0.0040
vn -0.6760 -0.7368 0.0122
vn -0.6926 -0.7213 0.0036
vn -0.5316 -0.8121 -0.2406
vn -0.6306 -0.7703 -0.0941
vn -0.6292 -0.7715 -0.0944
vn -0.6300 -0.7707 -0.0949
vn -0.4471 -0.8158 -0.3669
vn -0.4467 -0.8157 -0.3676
vn -0.4467 -0.8157 -0.3675
vn -0.4463 -0.8156 -0.3683
vn 0.0396 -0.9620 0.2702
vn -0.2944 -0.8939 -0.3381
vn -0.5482 -0.8364 0.0000
vn -0.4866 -0.8736 0.0000
vn -0.5342 -0.8452 0.0149
vn -0.6836 -0.7225 -0.1040
vn -0.6535 -0.7530 -0.0775
vn -0.6536 -0.7528 -0.0777
vn -0.6541 -0.7529 -0.0723
vn -0.6533 -0.7537 -0.0718
vn -0.0155 -0.1933 -0.9810
vn -0.6018 -0.7986 0.0022
vn -0.6293 -0.7712 -0.0958
vn -0.2928 -0.9145 -0.2793
vn -0.5657 -0.8246 -0.0071
vn -0.5735 -0.8046 0.1539
vn -0.0515 -0.2747 -0.9602
vn -0.6296 -0.7722 -0.0855
vn -0.5588 -0.8293 0.0000
vn -0.5468 -0.8366 -0.0335
vn -0.6326 -0.7719 -0.0639
vn -0.6031 -0.7975 0.0176
vn -0.6728 -0.7397 0.0124
vn -0.2686 -0.9587 0.0931
vn -0.8131 -0.5585 0.1641
vn -0.5894 -0.8077 0.0181
vn -0.5882 -0.8087 -0.0004
vn -0.6444 -0.7630 0.0505
vn -0.6444 -0.7630 0.0507
vn -0.6444 -0.7630 0.0504
vn -0.6023 -0.7884 -0.1255
vn -0.6639 -0.7458 0.0555
vn -0.5295 -0.8475 0.0375
vn -0.6763 -0.7339 0.0635
vn -0.6875 -0.7246 0.0480
vn -0.7152 -0.6985 0.0235
vn -0.5523 -0.8334 -0.0210
vn -0.7928 -0.6029 0.0896
vn -0.7939 -0.6021 0.0850
vn -0.7941 -0.6012 0.0899
vn -0.7925 -0.6027 0.0930
vn -0.7998 -0.5928 0.0944
vn -0.7949 -0.5999 0.0906
vn -0.7976 -0.5971 0.0853
vn -0.7794 -0.6137 0.1262
vn -0.7981 -0.5947 0.0969
vn -0.7881 -0.5972 0.1492
vn -0.5780 -0.8019 0.1509
vn -0.8542 -0.5020 0.1355
vn -0.7840 -0.6165 0.0729
vn -0.7549 -0.6439 0.1245
vn -0.7120 -0.7022 -0.0063
vn -0.7115 -0.7027 -0.0015
vn -0.7121 -0.7020 -0.0108
vn -0.6998 -0.7137 -0.0298
vn -0.7085 -0.7057 -0.0101
vn -0.6088 -0.7924 -0.0396
vn -0.7932 -0.6036 0.0802
vn -0.7936 -0.6037 0.0754
vn -0.7671 -0.6337 0.0996
vn -0.7694 -0.6333 0.0837
vn -0.7756 -0.6293 0.0487
vn -0.7969 -0.5986 0.0809
vn -0.7688 -0.6390 0.0229
vn -0.7828 -0.6222 -0.0098
vn -0.7343 -0.6780 -0.0347
vn -0.7292 -0.6822 -0.0529
vn -0.7270 -0.6825 -0.0750
vn -0.6908 -0.7177 -0.0878
vn -0.6890 -0.7168 -0.1073
vn -0.6899 -0.7149 -0.1133
vn -0.6891 -0.7166 -0.1077
vn -0.6950 -0.7106 -0.1092
vn -0.6932 -0.7117 -0.1143
vn -0.7234 -0.6900 -0.0240
vn -0.7087 -0.7055 -0.0001
vn -0.7564 -0.6539 0.0169
vn -0.7437 -0.6685 0.0043
vn -0.7985 -0.5956 0.0877
vn -0.6254 -0.7793 -0.0401
vn -0.6444 -0.7631 0.0502
vn -0.7708 -0.6346 0.0563
vn 0.7840 0.6165 -0.0729
vn 0.7549 0.6439 -0.1245
vn 0.5854 0.8103 0.0273
vn -0.0768 0.0270 0.9967
vn -0.0760 0.0281 0.9967
vn -0.0759 0.0280 0.9967
vn -0.0051 0.1557 0.9878
vn -0.0045 0.1564 0.9877
vn 0.5167 0.7571 0.3998
vn 0.4103 0.7939 0.4487
vn 0.0190 0.2002 0.9796
vn 0.0218 0.2020 0.9791
vn 0.0183 0.1992 0.9798
vn 0.5759 0.8174 0.0143
vn 0.5869 0.8097 0.0015
vn 0.5883 0.8087 0.0004
vn 0.5878 0.8090 0.0016
vn 0.2264 0.9677 -0.1111
vn 0.4961 0.8682 0.0000
vn 0.5891 0.8080 0.0000
vn 0.6919 0.7210 -0.0366
vn 0.6459 0.7634 0.0044
vn 0.6412 0.7669 -0.0272
vn 0.6442 0.7642 -0.0316
vn 0.6450 0.7635 -0.0312
vn 0.6517 0.7580 -0.0260
vn 0.5469 0.8356 0.0511
vn 0.5470 0.8365 0.0322
vn 0.5469 0.8366 0.0328
vn 0.5469 0.8366 0.0329
vn 0.5638 0.8246 0.0464
vn 0.5617 0.8261 0.0453
vn 0.5624 0.8259 0.0402
vn 0.5638 0.8250 0.0394
vn 0.6206 0.7841 0.0086
vn 0.6192 0.7852 0.0059
vn 0.6224 0.7827 0.0080
vn 0.7698 0.6286 -0.1109
vn 0.5619 0.8260 0.0434
vn 0.6607 0.7505 -0.0167
vn 0.6500 0.7592 -0.0334
vn 0.6811 0.7315 -0.0318
vn 0.6841 0.7286 -0.0330
vn 0.6826 0.7305 -0.0213
vn 0.6816 0.7315 -0.0206
vn 0.6241 0.7813 0.0042
vn 0.6250 0.7806 0.0040
vn 0.6760 0.7368 -0.0122
vn 0.6926 0.7213 -0.0036
vn 0.5316 0.8121 0.2406
vn 0.6306 0.7703 0.0941
vn 0.6300 0.7707 0.0949
vn 0.6292 0.7715 0.0944
vn 0.4471 0.8158 0.3669
vn 0.4467 0.8157 0.3675
vn 0.4467 0.8157 0.3676
vn 0.4463 0.8156 0.3683
vn -0.0396 0.9620 -0.2702
vn 0.2944 0.8939 0.3381
vn 0.5482 0.8364 0.0000
vn 0.4866 0.8736 0.0000
vn 0.5342 0.8452 -0.0149
vn 0.6836 0.7225 0.1040
vn 0.6535 0.7530 0.0775
vn 0.6541 0.7529 0.0723
vn 0.6536 0.7528 0.0777
vn 0.6533 0.7537 0.0718
vn 0.0155 0.1933 0.9810
vn 0.6018 0.7986 -0.0022
vn 0.6293 0.7712 0.0958
vn 0.2928 0.9145 0.2793
vn 0.5657 0.8246 0.0071
vn 0.5735 0.8046 -0.1539
vn 0.0515 0.2747 0.9602
vn 0.6296 0.7722 0.0855
vn 0.5588 0.8293 0.0000
vn 0.5468 0.8366 0.0335
vn 0.6326 0.7719 0.0639
vn 0.6031 0.7975 -0.0176
vn 0.6728 0.7397 -0.0124
vn 0.2686 0.9587 -0.0931
vn 0.8131 0.5585 -0.1641
vn 0.5894 0.8077 -0.0181
vn 0.5884 0.8086 0.0003
vn 0.5882 0.8087 0.0004
vn 0.6444 0.7630 -0.0505
vn 0.6444 0.7630 -0.0504
vn 0.6444 0.7630 -0.0507
vn 0.6023 0.7884 0.1255
vn 0.6639 0.7458 -0.0555
vn 0.5295 0.8475 -0.0375
vn 0.6763 0.7339 -0.0635
vn 0.6875 0.7246 -0.0480
vn 0.7152 0.6985 -0.0235
vn 0.5523 0.8334 0.0210
vn 0.7935 0.6020 -0.0894
vn 0.7945 0.6011 -0.0865
vn 0.7939 0.6021 -0.0850
vn 0.7925 0.6027 -0.0930
vn 0.7976 0.5971 -0.0853
vn 0.7794 0.6137 -0.1262
vn 0.7981 0.5947 -0.0969
vn 0.7881 0.5972 -0.1492
vn 0.5780 0.8019 -0.1509
vn 0.8542 0.5020 -0.1355
vn 0.7120 0.7022 0.0063
vn 0.7121 0.7019 0.0108
vn 0.7115 0.7027 0.0015
vn 0.6998 0.7137 0.0298
vn 0.7085 0.7057 0.0100
vn 0.6088 0.7924 0.0396
vn 0.7932 0.6036 -0.0802
vn 0.7936 0.6037 -0.0754
vn 0.7671 0.6337 -0.0996
vn 0.7694 0.6333 -0.0837
vn 0.7756 0.6293 -0.0487
vn 0.7969 0.5986 -0.0809
vn 0.7688 0.6390 -0.0229
vn 0.7828 0.6222 0.0098
vn 0.7343 0.6780 0.0347
vn 0.7292 0.6822 0.0529
vn 0.7270 0.6825 0.0750
vn 0.6908 0.7177 0.0878
vn 0.6890 0.7168 0.1073
vn 0.6891 0.7166 0.1077
vn 0.6899 0.7149 0.1133
vn 0.6950 0.7106 0.1092
vn 0.6932 0.7117 0.1143
vn 0.7234 0.6900 0.0240
vn 0.7087 0.7055 0.0001
vn 0.7564 0.6539 -0.0169
vn 0.7437 0.6685 -0.0043
vn 0.7985 0.5956 -0.0877
vn 0.6254 0.7793 0.0401
vn 0.6444 0.7631 -0.0502
vn 0.7708 0.6346 -0.0563
usemtl None.135
s 1
f 1//1 3//1 2//1
f 4//2 6//3 5//4
f 4//5 5//5 7//6
f 6//7 9//7 8//7
f 6//8 8//8 5//8
f 7//9 5//10 10//11
f 3//12 11//12 2//12
f 3//13 12//14 11//15
f 13//16 14//16 5//16
f 13//17 5//17 15//17
f 16//18 18//18 17//19
f 19//20 21//20 20//20
f 19//21 22//21 21//21
f 23//22 25//23 24//24
f 23//22 26//25 25//23
f 27//26 29//26 28//26
f 27//27 30//28 29//29
f 31//30 11//31 32//32
f 31//30 2//33 11//31
f 33//34 25//35 34//36
f 33//37 35//37 25//37
f 36//38 32//32 11//31
f 37//39 25//39 26//39
f 37//40 38//40 25//40
f 39//41 21//42 40//43
f 39//41 20//44 21//42
f 41//45 34//36 25//35
f 41//45 25//35 42//46
f 43//47 24//47 25//47
f 43//48 25//48 22//48
f 44//49 5//49 45//49
f 44//50 46//51 5//52
f 45//53 5//54 47//55
f 8//56 47//55 5//54
f 14//57 48//57 5//57
f 48//58 49//58 5//58
f 15//17 5//17 50//17
f 50//17 5//17 51//17
f 52//59 54//59 53//59
f 52//59 51//59 54//59
f 53//60 25//60 55//60
f 53//61 54//61 25//61
f 55//60 25//60 56//60
f 56//60 25//60 57//60
f 57//60 25//60 58//60
f 58//60 25//60 59//60
f 59//60 25//60 60//60
f 60//60 25//60 61//60
f 62//60 25//60 63//60
f 62//60 64//60 25//60
f 63//60 25//60 65//60
f 65//60 25//60 66//60
f 66//60 25//60 29//60
f 18//18 67//18 17//19
f 68//62 70//62 69//62
f 68//63 69//64 71//65
f 68//63 71//65 5//66
f 10//11 5//10 72//67
f 73//68 25//68 35//68
f 68//69 5//52 46//51
f 5//70 49//70 74//70
f 51//71 5//71 21//71
f 51//72 21//72 54//72
f 5//73 74//73 72//73
f 5//74 76//74 75//74
f 61//60 25//60 77//60
f 77//60 25//60 64//60
f 36//75 11//75 78//75
f 36//76 29//29 30//28
f 36//75 78//75 29//75
f 75//77 79//77 5//77
f 21//78 25//78 80//78
f 21//79 22//79 25//79
f 80//80 81//80 21//80
f 80//81 54//81 81//81
f 80//82 25//82 54//82
f 67//18 11//15 17//19
f 17//19 11//15 82//83
f 11//15 12//14 82//83
f 25//84 38//85 83//86
f 21//87 81//87 54//87
f 21//88 5//88 79//88
f 29//89 73//89 28//89
f 84//90 40//90 21//90
f 84//91 21//91 85//91
f 21//92 79//92 85//92
f 29//93 25//93 73//93
f 86//94 88//95 87//96
f 86//94 87//96 89//97
f 90//98 92//99 91//100
f 90//101 89//101 87//101
f 90//98 87//102 92//99
f 92//103 93//103 91//103
f 92//104 94//104 93//104
f 92//105 87//105 95//105
f 91//106 97//106 96//106
f 93//107 99//107 98//107
f 100//108 69//109 101//110
f 100//111 71//111 69//111
f 101//110 69//109 102//112
f 103//113 76//113 71//113
f 104//114 87//96 88//95
f 104//114 105//115 87//96
f 106//116 93//116 98//116
f 106//117 97//117 93//117
f 107//118 87//118 108//118
f 107//119 95//119 87//119
f 108//120 87//120 109//120
f 109//121 87//121 110//121
f 111//122 110//122 112//122
f 111//123 112//123 113//123
f 113//124 112//124 114//124
f 115//125 114//125 69//125
f 115//126 69//127 116//128
f 116//128 69//127 117//129
f 70//130 117//129 69//127
f 69//131 114//131 112//131
f 69//109 112//132 102//112
f 87//133 112//133 110//133
f 87//134 118//134 112//134
f 87//135 105//135 118//135
f 71//136 76//136 5//136
f 25//84 83//86 42//137
f 93//138 97//138 91//138
f 96//139 97//139 119//139
f 99//140 120//140 98//140
f 121//141 123//141 122//141
f 124//142 126//143 125//144
f 124//145 127//146 126//145
f 125//147 129//147 128//147
f 125//148 126//148 129//148
f 127//149 130//150 126//151
f 122//152 123//152 131//152
f 122//153 131//154 132//155
f 133//156 126//156 134//156
f 133//157 135//157 126//157
f 136//158 138//158 137//158
f 139//159 141//159 140//159
f 139//160 140//160 142//160
f 143//161 145//162 144//163
f 143//161 144//163 146//164
f 147//165 149//165 148//165
f 147//166 148//167 150//168
f 151//169 152//170 131//171
f 151//169 131//171 123//172
f 153//173 154//174 144//175
f 153//176 144//176 155//176
f 156//177 131//171 152//170
f 157//178 146//178 144//178
f 157//179 144//179 158//179
f 159//180 160//181 140//182
f 159//180 140//182 141//183
f 161//184 144//175 154//174
f 161//184 162//185 144//175
f 163//186 144//186 145//186
f 163//187 142//187 144//187
f 164//188 165//188 126//188
f 164//189 126//190 166//191
f 165//192 167//193 126//194
f 129//195 126//194 167//193
f 134//196 126//196 168//196
f 168//197 126//197 169//197
f 135//157 170//157 126//157
f 170//157 171//157 126//157
f 172//198 174//198 173//198
f 172//198 173//198 171//198
f 174//199 175//199 144//199
f 174//200 144//200 173//200
f 175//199 176//199 144//199
f 176//199 177//199 144//199
f 177//199 178//199 144//199
f 178//199 179//199 144//199
f 179//199 180//199 144//199
f 180//199 181//199 144//199
f 182//199 183//199 144//199
f 182//199 144//199 184//199
f 183//199 185//199 144//199
f 185//199 186//199 144//199
f 186//199 148//199 144//199
f 137//158 138//158 187//158
f 188//201 190//201 189//201
f 188//202 191//203 190//204
f 188//202 126//205 191//203
f 130//150 192//206 126//151
f 193//207 155//207 144//207
f 188//208 166//191 126//190
f 126//209 194//209 169//209
f 171//210 140//210 126//210
f 171//211 173//211 140//211
f 126//212 192//212 194//212
f 126//213 196//213 195//213
f 181//199 197//199 144//199
f 197//199 184//199 144//199
f 156//214 198//214 131//214
f 156//215 150//168 148//167
f 156//214 148//214 198//214
f 196//216 126//216 199//216
f 140//217 200//217 144//217
f 140//218 144//218 142//218
f 200//219 140//219 201//219
f 200//220 201//220 173//220
f 200//221 173//221 144//221
f 187//158 138//158 131//158
f 138//222 202//223 131//154
f 131//154 202//223 132//155
f 144//224 203//225 158//226
f 140//227 173//227 201//227
f 140//228 199//228 126//228
f 148//229 149//229 193//229
f 204//230 140//230 160//230
f 204//231 205//231 140//231
f 140//232 205//232 199//232
f 148//233 193//233 144//233
f 206//234 208//235 207//236
f 206//237 209//237 208//237
f 210//238 119//238 211//238
f 210//239 208//239 209//239
f 210//240 211//240 208//240
f 211//241 119//241 120//241
f 211//242 120//242 212//242
f 211//243 213//243 208//243
f 214//244 215//245 190//246
f 214//247 190//247 191//247
f 215//245 216//248 190//246
f 217//249 191//249 195//249
f 218//250 207//236 208//235
f 218//250 208//235 219//251
f 106//252 98//252 120//252
f 106//253 120//253 97//253
f 220//254 221//254 208//254
f 220//255 208//255 213//255
f 221//256 222//256 208//256
f 222//257 223//257 208//257
f 224//258 225//258 223//258
f 224//259 226//259 225//259
f 226//260 227//260 225//260
f 228//261 190//261 227//261
f 228//262 229//263 190//264
f 229//263 230//265 190//264
f 189//266 190//264 230//265
f 190//267 225//267 227//267
f 190//246 216//248 225//268
f 208//269 223//269 225//269
f 208//270 225//270 231//270
f 208//271 231//271 219//271
f 191//272 126//272 195//272
f 144//224 162//273 203//225
f 120//274 119//274 97//274
