# Blender v2.79 (sub 0) OBJ File: ''
# www.blender.org
mtllib crack_restart_keyway_90.mtl
o crack_restart_keyway_90
v 0.120406 -0.147382 -0.472461
v 0.120406 -0.147382 -0.457089
v 0.109432 -0.137369 -0.472461
v 0.072504 -0.113826 -0.446446
v 0.072842 -0.113418 -0.459453
v 0.087876 -0.123095 -0.472461
v 0.071567 -0.114219 -0.433438
v 0.071683 -0.114386 -0.420431
v 0.073541 -0.117476 -0.400711
v 0.070864 -0.114786 -0.413927
v 0.071519 -0.114374 -0.426934
v 0.071552 -0.114314 -0.428968
v 0.120406 -0.147382 -0.257263
v 0.112268 -0.145889 -0.260186
v 0.120406 -0.147382 -0.264949
v 0.114386 -0.146540 -0.256432
v 0.120406 -0.147382 -0.248433
v 0.115789 -0.146846 -0.254560
v 0.120406 -0.147382 -0.272634
v 0.104645 -0.143089 -0.282983
v 0.120406 -0.147382 -0.280320
v 0.109066 -0.144856 -0.269778
v 0.120406 -0.147382 -0.288006
v 0.093631 -0.136403 -0.322930
v 0.120406 -0.147382 -0.295691
v 0.120406 -0.147382 -0.303377
v 0.120406 -0.147382 -0.318748
v 0.120406 -0.147382 -0.334119
v 0.120406 -0.147382 -0.349490
v 0.102529 -0.140691 -0.357069
v 0.120406 -0.147382 -0.364862
v 0.083955 -0.127814 -0.363586
v 0.120406 -0.147382 -0.380233
v 0.096531 -0.136337 -0.396115
v 0.120406 -0.147382 -0.395604
v 0.120406 -0.147382 -0.410975
v 0.120406 -0.147382 -0.426347
v 0.120406 -0.147382 -0.441718
v 0.103027 -0.132773 -0.472461
v 0.073491 -0.113194 -0.469018
v 0.073613 -0.113039 -0.472461
v 0.079337 -0.117171 -0.472461
v 0.089199 -0.132956 -0.341834
v 0.093182 -0.136022 -0.325005
v 0.091125 -0.134299 -0.334065
v 0.091878 -0.134904 -0.330916
v 0.120406 -0.147382 -0.334119
v 0.081515 -0.125447 -0.373724
v 0.080040 -0.123977 -0.380272
v 0.082657 -0.126508 -0.369337
v 0.078468 -0.122500 -0.386041
v 0.075395 -0.119562 -0.395455
v 0.111066 -0.145435 -0.263885
v 0.120406 -0.147382 -0.257263
v 0.120406 -0.147382 -0.264949
v 0.087893 -0.131873 -0.347105
v 0.102529 -0.140691 -0.357069
v 0.071064 -0.114572 -0.405469
v 0.086737 -0.130546 -0.351840
v 0.086109 -0.129896 -0.354435
v 0.070864 -0.114786 -0.413927
v 0.096531 -0.136337 -0.396115
v 0.120406 -0.147382 -0.472461
v 0.109432 -0.137369 -0.472461
v 0.120406 -0.147382 -0.457089
v 0.072504 -0.113826 -0.446446
v 0.087876 -0.123095 -0.472461
v 0.072842 -0.113418 -0.459453
v 0.071567 -0.114219 -0.433438
v 0.071683 -0.114386 -0.420431
v 0.071552 -0.114314 -0.428968
v 0.071519 -0.114374 -0.426934
v 0.120406 -0.147382 -0.272634
v 0.120406 -0.147382 -0.280320
v 0.120406 -0.147382 -0.288006
v 0.120406 -0.147382 -0.295691
v 0.120406 -0.147382 -0.303377
v 0.120406 -0.147382 -0.318748
v 0.120406 -0.147382 -0.349490
v 0.120406 -0.147382 -0.364862
v 0.120406 -0.147382 -0.380233
v 0.120406 -0.147382 -0.395604
v 0.120406 -0.147382 -0.410975
v 0.120406 -0.147382 -0.426347
v 0.120406 -0.147382 -0.441718
v 0.103027 -0.132773 -0.472461
v 0.073491 -0.113194 -0.469018
v 0.079337 -0.117171 -0.472461
v 0.073613 -0.113039 -0.472461
vn -0.6740 -0.7387 0.0000
vn -0.5654 -0.8238 -0.0405
vn -0.5960 -0.8001 -0.0671
vn -0.3947 -0.9127 -0.1058
vn 0.5547 -0.8319 -0.0155
vn -0.1804 -0.9836 0.0000
vn -0.1497 -0.9850 -0.0864
vn -0.1153 -0.9933 0.0000
vn -0.1454 -0.9880 -0.0525
vn -0.2628 -0.9648 0.0000
vn -0.2298 -0.9718 -0.0531
vn -0.2174 -0.9761 0.0000
vn -0.3794 -0.9252 0.0000
vn -0.2859 -0.9548 -0.0810
vn -0.3505 -0.9366 0.0000
vn -0.4730 -0.8811 0.0000
vn -0.4548 -0.8253 -0.3346
vn -0.4199 -0.9076 0.0000
vn -0.4511 -0.8905 0.0589
vn -0.5618 -0.8273 0.0000
vn -0.5668 -0.8223 -0.0499
vn -0.5506 -0.8315 -0.0743
vn 0.0000 0.0000 -1.0000
vn -0.5843 -0.8095 -0.0572
vn -0.5754 -0.8158 -0.0581
vn -0.5699 -0.8215 -0.0188
vn -0.5562 -0.8296 -0.0490
vn -0.7756 -0.6310 -0.0160
vn -0.8828 -0.4696 0.0096
vn -0.4338 -0.8978 0.0762
vn -0.4063 -0.9103 -0.0792
vn -0.4067 -0.9100 -0.0807
vn -0.4064 -0.9103 -0.0784
vn -0.4074 -0.9115 -0.0566
vn -0.4069 -0.9098 -0.0819
vn -0.4068 -0.9102 -0.0776
vn 0.4067 0.9100 0.0807
vn 0.4063 0.9103 0.0792
vn 0.4064 0.9103 0.0784
vn 0.4069 0.9098 0.0820
vn -0.6192 -0.7846 -0.0313
vn -0.6205 -0.7835 -0.0349
vn -0.6192 -0.7845 -0.0326
vn -0.6172 -0.7862 -0.0311
vn -0.6200 -0.7835 -0.0414
vn -0.6219 -0.7820 -0.0410
vn -0.2068 -0.9780 -0.0259
vn 0.1804 0.9836 0.0000
vn 0.1497 0.9850 0.0864
vn -0.2094 -0.9764 -0.0518
vn 0.2094 0.9764 0.0518
vn -0.5357 -0.8434 -0.0406
vn 0.5357 0.8434 0.0406
vn -0.7873 -0.6156 0.0342
vn 0.4074 0.9115 0.0566
vn 0.4068 0.9102 0.0776
vn 0.2068 0.9780 0.0259
vn 0.1454 0.9880 0.0525
vn -0.5560 -0.8280 -0.0728
vn 0.5560 0.8280 0.0728
vn -0.5599 -0.8232 -0.0940
vn 0.5599 0.8232 0.0940
vn 0.7873 0.6156 -0.0342
vn 0.1153 0.9933 0.0000
vn -0.5787 -0.8072 -0.1162
vn -0.6124 -0.7636 -0.2047
vn -0.6237 -0.7808 -0.0365
vn -0.5549 -0.8299 -0.0582
vn 0.6237 0.7808 0.0365
vn 0.6192 0.7846 0.0313
vn 0.6172 0.7862 0.0311
vn 0.6192 0.7845 0.0326
vn 0.6204 0.7835 0.0349
vn 0.6200 0.7835 0.0414
vn 0.6740 0.7387 0.0000
vn 0.5654 0.8238 0.0405
vn 0.5960 0.8001 0.0671
vn 0.3947 0.9127 0.1058
vn -0.5547 0.8319 0.0155
vn 0.2628 0.9648 0.0000
vn 0.2298 0.9718 0.0531
vn 0.2174 0.9761 0.0000
vn 0.3794 0.9252 0.0000
vn 0.2859 0.9548 0.0810
vn 0.3505 0.9366 0.0000
vn 0.4730 0.8811 0.0000
vn 0.4548 0.8253 0.3346
vn 0.4199 0.9076 0.0000
vn 0.4511 0.8905 -0.0589
vn 0.5618 0.8273 0.0000
vn 0.5668 0.8223 0.0499
vn 0.5506 0.8315 0.0743
vn 0.0000 0.0000 1.0000
vn 0.5843 0.8095 0.0572
vn 0.5754 0.8158 0.0581
vn 0.5699 0.8215 0.0188
vn 0.5562 0.8296 0.0490
vn 0.7756 0.6310 0.0160
vn 0.8828 0.4696 -0.0096
vn 0.4338 0.8978 -0.0762
vn 0.6219 0.7820 0.0410
vn 0.5787 0.8072 0.1162
vn 0.6124 0.7636 0.2047
vn 0.5549 0.8299 0.0582
usemtl None.158
s 1
f 1//1 2//1 3//1
f 4//2 5//2 6//2
f 4//3 6//3 7//3
f 8//4 9//4 10//4
f 8//5 11//5 12//5
f 13//6 14//6 15//6
f 13//7 16//7 14//7
f 13//8 17//8 18//8
f 13//9 18//9 16//9
f 19//10 20//10 21//10
f 19//11 22//11 20//11
f 19//12 15//12 22//12
f 23//13 24//13 25//13
f 23//14 20//14 24//14
f 23//10 21//10 20//10
f 26//13 25//13 24//13
f 26//13 24//13 27//13
f 27//13 24//13 28//13
f 29//15 28//15 30//15
f 29//15 30//15 31//15
f 31//16 32//16 33//16
f 31//17 30//17 32//17
f 33//18 34//18 35//18
f 33//19 32//19 34//19
f 35//18 34//18 36//18
f 36//18 34//18 37//18
f 2//1 38//1 3//1
f 38//20 37//20 7//20
f 38//21 7//21 6//21
f 38//22 6//22 3//22
f 3//23 6//23 39//23
f 40//24 41//24 42//24
f 40//25 6//25 5//25
f 40//26 42//26 6//26
f 37//27 9//27 7//27
f 7//28 9//28 12//28
f 9//29 8//29 12//29
f 43//30 30//30 28//30
f 24//31 44//32 28//33
f 43//34 28//34 45//34
f 28//33 46//35 45//36
f 28//33 44//32 46//35
f 44//37 24//38 47//39
f 44//37 47//39 46//40
f 34//41 48//42 49//43
f 34//41 50//44 48//42
f 34//41 49//43 51//45
f 34//41 51//45 52//46
f 22//47 15//47 53//47
f 14//48 54//48 55//48
f 14//49 16//49 54//49
f 14//50 53//50 15//50
f 14//51 55//51 53//51
f 43//52 56//52 30//52
f 43//53 57//53 56//53
f 10//54 9//54 58//54
f 45//55 47//55 43//55
f 45//56 46//40 47//39
f 53//57 55//57 22//57
f 16//58 18//58 54//58
f 59//59 60//59 30//59
f 59//60 57//60 60//60
f 59//61 30//61 56//61
f 59//62 56//62 57//62
f 58//63 9//63 61//63
f 18//64 17//64 54//64
f 37//65 52//65 9//65
f 34//66 52//66 37//66
f 34//41 32//67 50//44
f 30//68 60//68 32//68
f 32//69 62//70 50//71
f 49//72 48//73 62//70
f 49//72 62//70 51//74
f 63//75 64//75 65//75
f 66//76 67//76 68//76
f 66//77 69//77 67//77
f 70//78 61//78 9//78
f 70//79 71//79 72//79
f 73//80 74//80 20//80
f 73//81 20//81 22//81
f 73//82 22//82 55//82
f 75//83 76//83 24//83
f 75//84 24//84 20//84
f 75//80 20//80 74//80
f 77//83 24//83 76//83
f 77//83 78//83 24//83
f 78//83 47//83 24//83
f 79//85 57//85 47//85
f 79//85 80//85 57//85
f 80//86 81//86 32//86
f 80//87 32//87 57//87
f 81//88 82//88 62//88
f 81//89 62//89 32//89
f 82//88 83//88 62//88
f 83//88 84//88 62//88
f 65//75 64//75 85//75
f 85//90 69//90 84//90
f 85//91 67//91 69//91
f 85//92 64//92 67//92
f 64//93 86//93 67//93
f 87//94 88//94 89//94
f 87//95 68//95 67//95
f 87//96 67//96 88//96
f 84//97 69//97 9//97
f 69//98 71//98 9//98
f 9//99 71//99 70//99
f 43//100 47//100 57//100
f 62//70 48//73 50//71
f 62//70 52//101 51//74
f 84//102 9//102 52//102
f 62//103 84//103 52//103
f 57//104 32//104 60//104
