# Blender v2.79 (sub 0) OBJ File: ''
# www.blender.org
mtllib crack_restart_keyway_665.mtl
o crack_restart_keyway_665
v 0.073371 -0.113210 -0.472461
v 0.072948 -0.113351 -0.459453
v 0.084678 -0.121379 -0.472461
v 0.147227 -0.162038 -0.087632
v 0.105281 -0.149071 0.035030
v 0.150734 -0.164622 -0.087291
v 0.143382 -0.159202 -0.088100
v 0.131068 -0.149873 -0.089874
v 0.127497 -0.150674 -0.086870
v 0.135358 -0.153083 -0.089192
v 0.126540 -0.147825 -0.091832
v 0.152180 -0.169046 -0.080800
v 0.154210 -0.167189 -0.086931
v 0.139586 -0.156323 -0.088618
v 0.120406 -0.147382 -0.426347
v 0.095819 -0.129460 -0.472461
v 0.120406 -0.147382 -0.103551
v 0.120866 -0.146923 -0.098614
v 0.120406 -0.147382 -0.118922
v 0.120406 -0.147382 -0.472461
v 0.108121 -0.138414 -0.472461
v 0.120406 -0.147382 -0.457089
v 0.074046 -0.112731 -0.186296
v 0.074455 -0.112404 -0.173289
v 0.085781 -0.120751 -0.163265
v 0.074016 -0.112680 -0.199304
v 0.073549 -0.113084 -0.238326
v 0.073855 -0.112781 -0.225319
v 0.073183 -0.113203 -0.251334
v 0.070712 -0.114922 -0.394416
v 0.070011 -0.115197 -0.381408
v 0.120406 -0.147382 -0.395604
v 0.070960 -0.114600 -0.407423
v 0.072203 -0.114039 -0.290356
v 0.071448 -0.114293 -0.303364
v 0.072626 -0.113553 -0.277349
v 0.072619 -0.113744 -0.446446
v 0.071895 -0.114013 -0.433438
v 0.071824 -0.114308 -0.342386
v 0.071546 -0.114232 -0.329378
v 0.070473 -0.114906 -0.355393
v 0.074570 -0.112120 -0.081618
v 0.075892 -0.111415 -0.096458
v 0.071537 -0.114467 -0.420431
v 0.073093 -0.113408 -0.264341
v 0.076320 -0.111232 -0.121259
v 0.075698 -0.111559 -0.134267
v 0.076682 -0.110861 -0.108252
v 0.071653 -0.114402 -0.316371
v 0.074047 -0.112730 -0.212311
v 0.146815 -0.173696 -0.061413
v 0.148173 -0.172562 -0.068131
v 0.145904 -0.174332 -0.050978
v 0.150283 -0.170729 -0.074804
v 0.122213 -0.145575 -0.094013
v 0.120406 -0.147382 -0.134293
v 0.120406 -0.147382 -0.149664
v 0.120406 -0.147382 -0.165036
v 0.120406 -0.147382 -0.180407
v 0.120406 -0.147382 -0.195778
v 0.120406 -0.147382 -0.211149
v 0.120406 -0.147382 -0.241892
v 0.120406 -0.147382 -0.257263
v 0.120406 -0.147382 -0.272634
v 0.120406 -0.147382 -0.288006
v 0.120406 -0.147382 -0.334119
v 0.120406 -0.147382 -0.349490
v 0.120406 -0.147382 -0.318748
v 0.120406 -0.147382 -0.364862
v 0.120406 -0.147382 -0.380233
v 0.120406 -0.147382 -0.441718
v 0.143228 -0.175375 -0.027781
v 0.144651 -0.174834 -0.039643
v 0.070555 -0.115009 -0.368401
v 0.120406 -0.147382 -0.303377
v 0.120406 -0.147382 -0.410975
v 0.120406 -0.147382 -0.226521
v 0.074655 -0.112416 -0.166130
v 0.074729 -0.112247 -0.160281
v 0.075173 -0.111953 -0.147274
v 0.103575 -0.135103 -0.472461
v 0.130909 -0.184800 0.187958
v 0.130886 -0.184722 0.175907
v 0.075860 -0.109902 0.184459
v 0.132212 -0.183734 0.212098
v 0.131279 -0.184438 0.149563
v 0.077549 -0.109708 0.198591
v 0.133010 -0.183304 0.219840
v 0.078305 -0.108372 0.212311
v 0.128580 -0.164455 0.268170
v 0.134837 -0.182293 0.235618
v 0.117442 -0.149239 0.263908
v 0.080862 -0.106241 0.235691
v 0.096648 -0.124054 0.250509
v 0.137483 -0.180723 0.255936
v 0.139876 -0.179041 0.269884
v 0.070044 -0.112346 -0.001446
v 0.071418 -0.113560 0.025359
v 0.072138 -0.113108 -0.026693
v 0.069984 -0.112535 0.052171
v 0.071491 -0.111336 -0.054992
v 0.071126 -0.113745 0.078608
v 0.132183 -0.183639 0.113002
v 0.070079 -0.112334 0.106111
v 0.072400 -0.112943 0.130629
v 0.072557 -0.110484 0.159329
v 0.137483 -0.180723 0.255936
v 0.134855 -0.181764 0.064831
v 0.133667 -0.182910 0.085030
v 0.137362 -0.180296 0.035739
v 0.138950 -0.178903 0.017554
v 0.141491 -0.176878 -0.009563
v 0.078305 -0.108372 0.212311
v 0.073371 -0.113210 -0.472461
v 0.084678 -0.121379 -0.472461
v 0.072948 -0.113351 -0.459453
v 0.147227 -0.162038 -0.087632
v 0.150734 -0.164622 -0.087291
v 0.105281 -0.149071 0.035030
v 0.143382 -0.159202 -0.088100
v 0.131068 -0.149873 -0.089874
v 0.135358 -0.153083 -0.089192
v 0.127497 -0.150674 -0.086870
v 0.126540 -0.147825 -0.091832
v 0.154210 -0.167189 -0.086931
v 0.152180 -0.169046 -0.080800
v 0.139586 -0.156323 -0.088618
v 0.120406 -0.147382 -0.426347
v 0.095819 -0.129460 -0.472461
v 0.120406 -0.147382 -0.103551
v 0.120866 -0.146923 -0.098614
v 0.120406 -0.147382 -0.118922
v 0.120406 -0.147382 -0.472461
v 0.120406 -0.147382 -0.457089
v 0.108121 -0.138414 -0.472461
v 0.074046 -0.112731 -0.186296
v 0.085781 -0.120751 -0.163265
v 0.074455 -0.112404 -0.173289
v 0.074016 -0.112680 -0.199304
v 0.073549 -0.113084 -0.238326
v 0.073855 -0.112781 -0.225319
v 0.073183 -0.113203 -0.251334
v 0.070712 -0.114922 -0.394416
v 0.120406 -0.147382 -0.395604
v 0.070011 -0.115197 -0.381408
v 0.070960 -0.114600 -0.407423
v 0.072203 -0.114039 -0.290356
v 0.071448 -0.114293 -0.303364
v 0.072626 -0.113553 -0.277349
v 0.072619 -0.113744 -0.446446
v 0.071895 -0.114013 -0.433438
v 0.071824 -0.114308 -0.342386
v 0.071546 -0.114232 -0.329378
v 0.070473 -0.114906 -0.355393
v 0.074570 -0.112120 -0.081618
v 0.075892 -0.111415 -0.096458
v 0.071537 -0.114467 -0.420431
v 0.073093 -0.113408 -0.264341
v 0.076320 -0.111232 -0.121259
v 0.075698 -0.111559 -0.134267
v 0.076682 -0.110861 -0.108252
v 0.071653 -0.114402 -0.316371
v 0.074047 -0.112730 -0.212311
v 0.146815 -0.173696 -0.061413
v 0.148173 -0.172562 -0.068131
v 0.145904 -0.174332 -0.050978
v 0.150283 -0.170729 -0.074804
v 0.122213 -0.145575 -0.094013
v 0.120406 -0.147382 -0.134293
v 0.120406 -0.147382 -0.149664
v 0.120406 -0.147382 -0.165036
v 0.120406 -0.147382 -0.180407
v 0.120406 -0.147382 -0.195778
v 0.120406 -0.147382 -0.211149
v 0.120406 -0.147382 -0.241892
v 0.120406 -0.147382 -0.257263
v 0.120406 -0.147382 -0.272634
v 0.120406 -0.147382 -0.288006
v 0.120406 -0.147382 -0.334119
v 0.120406 -0.147382 -0.349490
v 0.120406 -0.147382 -0.318748
v 0.120406 -0.147382 -0.364862
v 0.120406 -0.147382 -0.380233
v 0.120406 -0.147382 -0.441718
v 0.143228 -0.175375 -0.027781
v 0.144651 -0.174834 -0.039643
v 0.070555 -0.115009 -0.368401
v 0.120406 -0.147382 -0.303377
v 0.120406 -0.147382 -0.410975
v 0.120406 -0.147382 -0.226521
v 0.074729 -0.112247 -0.160281
v 0.074655 -0.112416 -0.166130
v 0.075173 -0.111953 -0.147274
v 0.103575 -0.135103 -0.472461
v 0.130909 -0.184800 0.187958
v 0.075860 -0.109902 0.184459
v 0.130886 -0.184722 0.175907
v 0.132212 -0.183734 0.212098
v 0.131279 -0.184438 0.149563
v 0.133010 -0.183304 0.219840
v 0.077549 -0.109708 0.198591
v 0.134837 -0.182293 0.235618
v 0.070044 -0.112346 -0.001446
v 0.071418 -0.113560 0.025359
v 0.072138 -0.113108 -0.026693
v 0.069984 -0.112535 0.052171
v 0.071491 -0.111336 -0.054992
v 0.071126 -0.113745 0.078608
v 0.132183 -0.183639 0.113002
v 0.070079 -0.112334 0.106111
v 0.072400 -0.112943 0.130629
v 0.072557 -0.110484 0.159329
v 0.134855 -0.181764 0.064831
v 0.133667 -0.182910 0.085030
v 0.137362 -0.180296 0.035739
v 0.138950 -0.178903 0.017554
v 0.141491 -0.176878 -0.009563
vn -0.5854 -0.8103 -0.0278
vn -0.5815 -0.8055 -0.1137
vn -0.5821 -0.8051 -0.1140
vn -0.5814 -0.8056 -0.1137
vn -0.5808 -0.8061 -0.1134
vn -0.3916 -0.6597 -0.6414
vn -0.1929 -0.8665 -0.4603
vn -0.5172 -0.7565 -0.4004
vn -0.7863 -0.5779 -0.2187
vn -0.5900 -0.7989 -0.1168
vn -0.5900 -0.7988 -0.1171
vn -0.5938 -0.7960 -0.1174
vn -0.5758 -0.8174 -0.0148
vn -0.5871 -0.8095 -0.0015
vn -0.5881 -0.8088 -0.0017
vn -0.5878 -0.8090 -0.0010
vn 0.4608 -0.8866 0.0395
vn 0.1110 -0.9938 0.0000
vn -0.5896 -0.8077 0.0000
vn -0.5896 -0.8077 -0.0004
vn -0.6150 -0.7875 0.0391
vn -0.5616 -0.8274 -0.0019
vn -0.5734 -0.8193 -0.0011
vn -0.5683 -0.8228 0.0018
vn -0.6684 -0.7430 0.0330
vn -0.6364 -0.7710 0.0250
vn -0.5471 -0.8358 -0.0472
vn -0.5471 -0.8365 -0.0311
vn -0.5470 -0.8365 -0.0312
vn -0.5470 -0.8365 -0.0319
vn -0.8278 -0.5579 0.0590
vn -0.8273 -0.5586 0.0589
vn -0.7708 -0.6352 0.0488
vn -0.5639 -0.8245 -0.0476
vn -0.5619 -0.8262 -0.0402
vn -0.5615 -0.8262 -0.0464
vn -0.5641 -0.8248 -0.0392
vn -0.3881 -0.9216 -0.0029
vn -0.9501 0.3002 0.0848
vn -0.9497 0.3013 0.0848
vn -0.9497 0.3013 0.0849
vn -0.6046 -0.7912 -0.0915
vn -0.5618 -0.8261 -0.0443
vn -0.5975 -0.8017 0.0168
vn -0.6826 -0.7301 0.0326
vn -0.5930 -0.8037 0.0486
vn -0.5931 -0.8037 0.0485
vn -0.5934 -0.8035 0.0484
vn -0.6159 -0.7868 0.0396
vn -0.3201 -0.9473 -0.0097
vn -0.4190 -0.9080 0.0010
vn -0.5979 -0.8015 0.0120
vn -0.5694 -0.8220 0.0018
vn -0.8524 -0.4593 -0.2498
vn -0.6739 -0.7316 -0.1034
vn -0.9219 -0.1827 -0.3417
vn -0.9221 -0.1804 -0.3424
vn -0.9227 -0.1793 -0.3413
vn -0.9222 -0.1801 -0.3423
vn 0.6015 -0.7968 0.0573
vn -0.6097 -0.7927 0.0000
vn -0.6840 -0.7209 -0.1113
vn 0.1386 -0.9899 -0.0285
vn -0.5939 -0.7959 -0.1181
vn -0.4073 -0.9133 0.0047
vn -0.8339 -0.5326 -0.1450
vn -0.3043 -0.9516 -0.0429
vn -0.4276 -0.9004 -0.0805
vn -0.5586 -0.8294 0.0000
vn -0.5468 -0.8366 -0.0328
vn -0.7536 -0.6570 -0.0197
vn -0.6049 -0.7957 0.0317
vn -0.6028 -0.7973 0.0311
vn -0.6043 -0.7961 0.0306
vn -0.6020 -0.7983 0.0155
vn -0.6028 -0.7970 0.0386
vn -0.5885 -0.8085 -0.0005
vn -0.5310 -0.8467 0.0344
vn -0.9144 -0.3969 -0.0799
vn -0.5559 -0.8288 -0.0637
vn -0.5935 -0.8034 0.0483
vn -0.5383 -0.8426 0.0164
vn -0.8057 -0.5923 -0.0023
vn -0.8054 -0.5887 0.0695
vn -0.8065 -0.5910 -0.0184
vn -0.8085 -0.5791 0.1046
vn -0.8084 -0.5796 0.1027
vn -0.8089 -0.5791 0.1013
vn -0.8083 -0.5800 0.1010
vn -0.8363 -0.5323 0.1310
vn -0.8173 -0.5583 0.1428
vn -0.8100 -0.5750 0.1154
vn -0.7962 -0.5885 0.1407
vn -0.8015 -0.5757 0.1618
vn -0.8007 -0.5783 0.1566
vn -0.8020 -0.5750 0.1619
vn -0.8157 -0.5588 0.1494
vn -0.7853 -0.5841 0.2052
vn -0.7245 -0.6893 0.0059
vn -0.7026 -0.7107 -0.0368
vn -0.7220 -0.6918 -0.0122
vn -0.7109 -0.7028 -0.0278
vn -0.6735 -0.7371 -0.0562
vn -0.7537 -0.6572 0.0047
vn -0.7537 -0.6572 0.0025
vn -0.7539 -0.6570 0.0026
vn -0.7543 -0.6565 0.0050
vn -0.7556 -0.6527 0.0553
vn -0.7552 -0.6530 0.0577
vn -0.7547 -0.6537 0.0557
vn -0.7548 -0.6532 0.0601
vn -0.7343 -0.6695 0.1120
vn 0.7853 0.5841 -0.2052
vn -0.8055 -0.5728 0.1516
vn -0.8094 -0.5864 -0.0328
vn -0.7011 -0.7084 -0.0814
vn -0.6932 -0.7144 -0.0958
vn -0.6915 -0.7131 -0.1150
vn -0.6930 -0.7103 -0.1234
vn -0.6925 -0.7122 -0.1153
vn -0.6983 -0.7058 -0.1194
vn -0.6963 -0.7068 -0.1247
vn -0.7266 -0.6856 -0.0443
vn -0.7300 -0.6816 -0.0508
vn -0.7300 -0.6816 -0.0503
vn -0.7224 -0.6892 -0.0563
vn 0.7962 0.5885 -0.1407
vn 0.5854 0.8103 0.0278
vn 0.5815 0.8055 0.1137
vn 0.5805 0.8064 0.1128
vn 0.5821 0.8051 0.1140
vn 0.5898 0.7994 0.1145
vn 0.3916 0.6597 0.6414
vn 0.1929 0.8665 0.4603
vn 0.5172 0.7565 0.4004
vn 0.7863 0.5779 0.2187
vn 0.5900 0.7989 0.1168
vn 0.5758 0.8174 0.0148
vn 0.5871 0.8095 0.0015
vn 0.5886 0.8085 0.0004
vn 0.5881 0.8088 0.0017
vn -0.4608 0.8866 -0.0395
vn -0.1110 0.9938 0.0000
vn 0.5896 0.8077 0.0000
vn 0.6150 0.7875 -0.0391
vn 0.5616 0.8274 0.0019
vn 0.5683 0.8228 -0.0018
vn 0.5734 0.8193 0.0011
vn 0.6684 0.7430 -0.0330
vn 0.6364 0.7710 -0.0250
vn 0.5471 0.8358 0.0472
vn 0.5471 0.8365 0.0311
vn 0.5470 0.8365 0.0319
vn 0.5470 0.8365 0.0312
vn 0.8278 0.5579 -0.0590
vn 0.8273 0.5586 -0.0589
vn 0.7708 0.6352 -0.0488
vn 0.5639 0.8245 0.0476
vn 0.5615 0.8262 0.0464
vn 0.5619 0.8262 0.0402
vn 0.5641 0.8248 0.0392
vn 0.3881 0.9216 0.0029
vn 0.9501 -0.3002 -0.0848
vn 0.9497 -0.3013 -0.0849
vn 0.9497 -0.3013 -0.0848
vn 0.6046 0.7912 0.0915
vn 0.5618 0.8261 0.0443
vn 0.5975 0.8017 -0.0168
vn 0.6826 0.7301 -0.0326
vn 0.5930 0.8037 -0.0486
vn 0.5934 0.8035 -0.0484
vn 0.5931 0.8037 -0.0485
vn 0.6159 0.7868 -0.0396
vn 0.3201 0.9473 0.0097
vn 0.4190 0.9080 -0.0010
vn 0.5979 0.8015 -0.0120
vn 0.5694 0.8220 -0.0018
vn 0.8524 0.4593 0.2498
vn 0.6739 0.7316 0.1034
vn 0.9219 0.1827 0.3417
vn 0.9227 0.1793 0.3413
vn 0.9221 0.1804 0.3424
vn 0.9222 0.1801 0.3423
vn -0.6015 0.7968 -0.0573
vn 0.6097 0.7927 0.0000
vn 0.6840 0.7209 0.1113
vn -0.1386 0.9899 0.0285
vn 0.5939 0.7959 0.1181
vn 0.4073 0.9133 -0.0047
vn 0.8339 0.5326 0.1450
vn 0.3043 0.9516 0.0429
vn 0.4276 0.9004 0.0805
vn 0.5586 0.8294 0.0000
vn 0.5468 0.8366 0.0328
vn 0.7536 0.6570 0.0197
vn 0.6049 0.7957 -0.0317
vn 0.6043 0.7961 -0.0306
vn 0.6028 0.7973 -0.0311
vn 0.6020 0.7983 -0.0155
vn 0.6028 0.7970 -0.0386
vn 0.5887 0.8083 0.0004
vn 0.5885 0.8085 0.0005
vn 0.5310 0.8467 -0.0344
vn 0.9144 0.3969 0.0799
vn 0.5559 0.8288 0.0637
vn 0.5935 0.8034 -0.0483
vn 0.5383 0.8426 -0.0164
vn 0.8057 0.5923 0.0023
vn 0.8054 0.5887 -0.0695
vn 0.8065 0.5910 0.0184
vn 0.8085 0.5791 -0.1046
vn 0.8083 0.5800 -0.1010
vn 0.8363 0.5323 -0.1310
vn 0.8173 0.5583 -0.1428
vn 0.8100 0.5750 -0.1154
vn 0.8015 0.5757 -0.1618
vn 0.8020 0.5750 -0.1619
vn 0.8007 0.5783 -0.1566
vn 0.8157 0.5588 -0.1494
vn 0.7245 0.6893 -0.0059
vn 0.7026 0.7107 0.0368
vn 0.7220 0.6918 0.0122
vn 0.7109 0.7028 0.0278
vn 0.6735 0.7371 0.0562
vn 0.7537 0.6572 -0.0047
vn 0.7539 0.6570 -0.0026
vn 0.7537 0.6572 -0.0025
vn 0.7543 0.6565 -0.0050
vn 0.7556 0.6527 -0.0553
vn 0.7547 0.6537 -0.0557
vn 0.7552 0.6530 -0.0577
vn 0.7548 0.6532 -0.0601
vn 0.7343 0.6695 -0.1120
vn 0.8055 0.5728 -0.1516
vn 0.8094 0.5864 0.0328
vn 0.7011 0.7084 0.0814
vn 0.6932 0.7144 0.0958
vn 0.6915 0.7131 0.1150
vn 0.6925 0.7122 0.1153
vn 0.6930 0.7103 0.1234
vn 0.6983 0.7058 0.1194
vn 0.6963 0.7068 0.1247
vn 0.7300 0.6816 0.0503
vn 0.7224 0.6892 0.0563
usemtl None.127
s 1
f 1//1 3//1 2//1
f 4//2 6//3 5//4
f 4//2 5//4 7//5
f 8//6 10//6 9//6
f 8//7 9//7 11//7
f 6//8 13//8 12//8
f 6//9 12//9 5//9
f 7//10 5//11 14//12
f 3//13 15//13 2//13
f 3//14 16//15 15//16
f 17//17 18//17 5//17
f 17//18 5//18 19//18
f 20//19 22//19 21//20
f 23//21 25//21 24//21
f 23//22 26//23 25//24
f 27//25 25//25 28//25
f 27//26 29//26 25//26
f 30//27 32//27 31//27
f 30//28 33//29 32//30
f 34//31 35//32 25//32
f 34//33 25//33 36//33
f 37//34 15//35 38//36
f 37//34 2//37 15//35
f 39//38 25//38 40//38
f 39//39 41//40 25//41
f 42//42 43//42 5//42
f 44//43 38//36 15//35
f 45//44 25//44 29//44
f 45//45 36//45 25//45
f 46//46 47//47 25//48
f 46//49 25//49 48//49
f 49//50 40//50 25//50
f 49//51 25//51 35//51
f 50//52 28//52 25//52
f 50//53 25//24 26//23
f 51//54 5//54 52//54
f 51//55 53//55 5//55
f 52//56 5//57 54//58
f 12//59 54//58 5//57
f 18//60 55//60 5//60
f 19//61 25//61 56//61
f 56//61 25//61 57//61
f 58//61 25//61 59//61
f 58//61 57//61 25//61
f 59//61 25//61 60//61
f 60//61 25//61 61//61
f 62//61 25//61 63//61
f 63//61 25//61 64//61
f 64//61 25//61 65//61
f 66//61 25//61 67//61
f 66//61 68//61 25//61
f 67//61 25//61 69//61
f 69//61 25//61 70//61
f 70//61 25//61 32//61
f 22//19 71//19 21//20
f 53//62 72//62 5//62
f 53//63 73//63 72//63
f 14//12 5//11 10//64
f 74//65 25//65 41//65
f 5//66 11//66 9//66
f 5//67 9//67 10//67
f 5//68 55//68 11//68
f 65//61 25//61 75//61
f 75//61 25//61 68//61
f 44//69 15//69 76//69
f 44//70 32//30 33//29
f 44//69 76//69 32//69
f 5//71 43//71 25//71
f 77//61 25//61 62//61
f 77//61 61//61 25//61
f 25//72 79//73 78//74
f 25//75 78//75 24//75
f 25//72 80//76 79//73
f 71//19 15//16 21//20
f 21//20 15//16 81//77
f 15//16 16//15 81//77
f 32//78 74//78 31//78
f 25//79 43//79 48//79
f 25//80 19//80 5//80
f 80//81 25//48 47//47
f 32//82 25//82 74//82
f 82//83 84//83 83//83
f 82//84 85//84 84//84
f 84//85 86//85 83//85
f 84//86 88//87 87//88
f 88//87 89//89 87//88
f 88//90 91//90 90//90
f 88//91 90//91 92//91
f 88//92 84//92 85//92
f 89//93 94//93 93//93
f 92//94 94//95 88//96
f 95//97 90//97 91//97
f 95//98 96//98 90//98
f 97//99 5//99 98//99
f 97//100 99//100 5//100
f 98//101 5//101 100//101
f 99//102 101//102 5//102
f 101//103 42//103 5//103
f 102//104 100//105 103//106
f 102//104 103//106 104//107
f 104//108 103//109 105//110
f 105//110 103//109 106//111
f 106//112 103//112 84//112
f 90//113 96//113 107//113
f 89//114 88//96 94//95
f 86//115 84//115 103//115
f 108//116 109//116 5//116
f 110//117 108//117 5//117
f 110//118 5//119 111//120
f 111//120 5//119 112//121
f 72//122 112//121 5//119
f 5//123 103//124 100//125
f 5//123 109//126 103//124
f 93//127 94//127 113//127
f 114//128 116//128 115//128
f 117//129 119//130 118//131
f 117//129 120//132 119//130
f 121//133 123//133 122//133
f 121//134 124//134 123//134
f 118//135 126//135 125//135
f 118//136 119//136 126//136
f 120//132 127//137 119//130
f 115//138 116//138 128//138
f 115//139 128//140 129//141
f 130//142 119//142 131//142
f 130//143 132//143 119//143
f 133//144 135//144 134//144
f 136//145 138//145 137//145
f 136//146 137//147 139//148
f 140//149 141//149 137//149
f 140//150 137//150 142//150
f 143//151 145//151 144//151
f 143//152 144//153 146//154
f 147//155 137//156 148//156
f 147//157 149//157 137//157
f 150//158 151//159 128//160
f 150//158 128//160 116//161
f 152//162 153//162 137//162
f 152//163 137//164 154//165
f 155//166 119//166 156//166
f 157//167 128//160 151//159
f 158//168 142//168 137//168
f 158//169 137//169 149//169
f 159//170 137//171 160//172
f 159//173 161//173 137//173
f 162//174 137//174 153//174
f 162//175 148//175 137//175
f 163//176 137//176 141//176
f 163//177 139//148 137//147
f 164//178 165//178 119//178
f 164//179 119//179 166//179
f 165//180 167//181 119//182
f 126//183 119//182 167//181
f 131//184 119//184 168//184
f 132//185 169//185 137//185
f 169//185 170//185 137//185
f 171//185 172//185 137//185
f 171//185 137//185 170//185
f 172//185 173//185 137//185
f 173//185 174//185 137//185
f 175//185 176//185 137//185
f 176//185 177//185 137//185
f 177//185 178//185 137//185
f 179//185 180//185 137//185
f 179//185 137//185 181//185
f 180//185 182//185 137//185
f 182//185 183//185 137//185
f 183//185 144//185 137//185
f 134//144 135//144 184//144
f 166//186 119//186 185//186
f 166//187 185//187 186//187
f 127//188 122//188 119//188
f 187//189 154//189 137//189
f 119//190 123//190 124//190
f 119//191 122//191 123//191
f 119//192 124//192 168//192
f 178//185 188//185 137//185
f 188//185 181//185 137//185
f 157//193 189//193 128//193
f 157//194 146//154 144//153
f 157//193 144//193 189//193
f 119//195 137//195 156//195
f 190//185 175//185 137//185
f 190//185 137//185 174//185
f 137//196 192//197 191//198
f 137//199 138//199 192//199
f 137//196 191//198 193//200
f 184//144 135//144 128//144
f 135//201 194//202 128//140
f 128//140 194//202 129//141
f 144//203 145//203 187//203
f 137//204 161//204 156//204
f 137//205 119//205 132//205
f 193//206 160//172 137//171
f 144//207 187//207 137//207
f 195//208 197//208 196//208
f 195//209 196//209 198//209
f 196//210 197//210 199//210
f 196//211 201//211 200//211
f 200//212 201//212 113//212
f 200//213 90//213 202//213
f 200//214 92//214 90//214
f 200//215 198//215 196//215
f 92//216 200//217 94//218
f 107//219 202//219 90//219
f 203//220 204//220 119//220
f 203//221 119//221 205//221
f 204//222 206//222 119//222
f 205//223 119//223 207//223
f 207//224 119//224 155//224
f 208//225 209//226 206//227
f 208//225 210//228 209//226
f 210//229 211//230 209//231
f 211//230 212//232 209//231
f 212//233 196//233 209//233
f 113//234 94//218 200//217
f 199//235 209//235 196//235
f 213//236 119//236 214//236
f 215//237 119//237 213//237
f 215//238 216//239 119//240
f 216//239 217//241 119//240
f 185//242 119//240 217//241
f 119//243 206//243 209//243
f 119//244 209//244 214//244
