# Blender v2.79 (sub 0) OBJ File: ''
# www.blender.org
mtllib crack_restart_keyway_685.mtl
o crack_restart_keyway_685
v 0.073362 -0.113216 -0.472461
v 0.072942 -0.113355 -0.459453
v 0.084669 -0.121385 -0.472461
v 0.147226 -0.162039 -0.087633
v 0.115323 -0.147316 -0.073424
v 0.150733 -0.164623 -0.087292
v 0.143382 -0.159202 -0.088100
v 0.131068 -0.149873 -0.089874
v 0.127501 -0.150668 -0.086863
v 0.135361 -0.153081 -0.089189
v 0.126540 -0.147825 -0.091832
v 0.152181 -0.169045 -0.080799
v 0.154210 -0.167189 -0.086931
v 0.139589 -0.156321 -0.088616
v 0.120406 -0.147382 -0.426347
v 0.095812 -0.129465 -0.472461
v 0.120406 -0.147382 -0.103551
v 0.114631 -0.144474 -0.094849
v 0.120866 -0.146923 -0.098614
v 0.120406 -0.147382 -0.118922
v 0.120406 -0.147382 -0.472461
v 0.108117 -0.138417 -0.472461
v 0.120406 -0.147382 -0.457089
v 0.074031 -0.112742 -0.186296
v 0.074430 -0.112420 -0.173289
v 0.090274 -0.126685 -0.153699
v 0.074016 -0.112680 -0.199304
v 0.073556 -0.113079 -0.238326
v 0.082500 -0.122686 -0.297578
v 0.073186 -0.113201 -0.251334
v 0.073853 -0.112782 -0.225319
v 0.070708 -0.114925 -0.394416
v 0.069988 -0.115211 -0.381408
v 0.120406 -0.147382 -0.395604
v 0.070963 -0.114598 -0.407423
v 0.072186 -0.114051 -0.290356
v 0.071478 -0.114275 -0.303364
v 0.072617 -0.113559 -0.277349
v 0.072612 -0.113749 -0.446446
v 0.071896 -0.114012 -0.433438
v 0.074598 -0.112098 -0.081618
v 0.071606 -0.111245 -0.054992
v 0.115967 -0.144847 -0.090502
v 0.071544 -0.114462 -0.420431
v 0.070547 -0.115014 -0.368401
v 0.070436 -0.114930 -0.355393
v 0.090632 -0.132125 -0.376755
v 0.073094 -0.113407 -0.264341
v 0.074689 -0.112275 -0.160281
v 0.075700 -0.111558 -0.134267
v 0.075098 -0.112000 -0.147274
v 0.076300 -0.111245 -0.121259
v 0.106668 -0.141548 -0.120719
v 0.076570 -0.110940 -0.108252
v 0.071654 -0.114402 -0.316371
v 0.071546 -0.114232 -0.329378
v 0.074042 -0.112734 -0.212311
v 0.146829 -0.173683 -0.061411
v 0.148176 -0.172560 -0.068129
v 0.145959 -0.174288 -0.051018
v 0.150289 -0.170724 -0.074801
v 0.122213 -0.145575 -0.094013
v 0.120406 -0.147382 -0.134293
v 0.120406 -0.147382 -0.149664
v 0.120406 -0.147382 -0.165036
v 0.120406 -0.147382 -0.180407
v 0.101500 -0.135031 -0.155339
v 0.120406 -0.147382 -0.195778
v 0.120406 -0.147382 -0.211149
v 0.120406 -0.147382 -0.226521
v 0.120406 -0.147382 -0.241892
v 0.120406 -0.147382 -0.257263
v 0.120406 -0.147382 -0.272634
v 0.120406 -0.147382 -0.288006
v 0.120406 -0.147382 -0.303377
v 0.120406 -0.147382 -0.318748
v 0.120406 -0.147382 -0.334119
v 0.120406 -0.147382 -0.349490
v 0.120406 -0.147382 -0.364862
v 0.120406 -0.147382 -0.380233
v 0.120406 -0.147382 -0.441718
v 0.143370 -0.175261 -0.027796
v 0.144745 -0.174761 -0.039711
v 0.072206 -0.113065 -0.026550
v 0.137744 -0.179993 0.036104
v 0.071824 -0.114308 -0.342386
v 0.075922 -0.111397 -0.096437
v 0.120406 -0.147382 -0.410975
v 0.093792 -0.129828 -0.176009
v 0.095790 -0.129226 -0.164093
v 0.103577 -0.135112 -0.472461
v 0.098940 -0.123642 0.278577
v 0.133067 -0.183150 0.211612
v 0.132308 -0.183846 0.191508
v 0.135211 -0.182037 0.235406
v 0.077542 -0.109713 0.198576
v 0.078267 -0.108391 0.212311
v 0.080752 -0.106109 0.238326
v 0.137952 -0.180419 0.255743
v 0.139446 -0.179602 0.265410
v 0.142740 -0.175417 0.296743
v 0.141763 -0.176703 0.286282
v 0.131681 -0.162111 0.293574
v 0.141763 -0.176703 0.286282
v 0.082182 -0.102815 0.264475
v 0.080752 -0.106109 0.238326
v 0.070288 -0.112228 -0.001446
v 0.071421 -0.113558 0.025353
v 0.069986 -0.112534 0.052171
v 0.071147 -0.113732 0.078652
v 0.070078 -0.112335 0.106111
v 0.131698 -0.184043 0.162077
v 0.132124 -0.183934 0.137095
v 0.132795 -0.183190 0.112658
v 0.134234 -0.182484 0.085526
v 0.135406 -0.181341 0.064540
v 0.139319 -0.178607 0.017364
v 0.141699 -0.176711 -0.009347
v 0.072821 -0.112678 0.129754
v 0.075572 -0.109858 0.181113
v 0.073362 -0.113216 -0.472461
v 0.084669 -0.121385 -0.472461
v 0.072942 -0.113355 -0.459453
v 0.147226 -0.162039 -0.087633
v 0.150733 -0.164623 -0.087292
v 0.115323 -0.147316 -0.073424
v 0.143382 -0.159202 -0.088100
v 0.131068 -0.149873 -0.089874
v 0.135361 -0.153081 -0.089189
v 0.127501 -0.150668 -0.086863
v 0.126540 -0.147825 -0.091832
v 0.154210 -0.167189 -0.086931
v 0.152181 -0.169045 -0.080799
v 0.139589 -0.156321 -0.088616
v 0.120406 -0.147382 -0.426347
v 0.095812 -0.129465 -0.472461
v 0.120406 -0.147382 -0.103551
v 0.120866 -0.146923 -0.098614
v 0.114631 -0.144474 -0.094849
v 0.120406 -0.147382 -0.118922
v 0.120406 -0.147382 -0.472461
v 0.120406 -0.147382 -0.457089
v 0.108117 -0.138417 -0.472461
v 0.074031 -0.112742 -0.186296
v 0.090274 -0.126685 -0.153699
v 0.074430 -0.112420 -0.173289
v 0.074016 -0.112680 -0.199304
v 0.073556 -0.113079 -0.238326
v 0.073186 -0.113201 -0.251334
v 0.082500 -0.122686 -0.297578
v 0.073853 -0.112782 -0.225319
v 0.070708 -0.114925 -0.394416
v 0.120406 -0.147382 -0.395604
v 0.069988 -0.115211 -0.381408
v 0.070963 -0.114598 -0.407423
v 0.072186 -0.114051 -0.290356
v 0.071478 -0.114275 -0.303364
v 0.072617 -0.113559 -0.277349
v 0.072612 -0.113749 -0.446446
v 0.071896 -0.114012 -0.433438
v 0.074598 -0.112098 -0.081618
v 0.115967 -0.144847 -0.090502
v 0.071606 -0.111245 -0.054992
v 0.071544 -0.114462 -0.420431
v 0.070547 -0.115014 -0.368401
v 0.090632 -0.132125 -0.376755
v 0.070436 -0.114930 -0.355393
v 0.073094 -0.113407 -0.264341
v 0.074689 -0.112275 -0.160281
v 0.075700 -0.111558 -0.134267
v 0.075098 -0.112000 -0.147274
v 0.076300 -0.111245 -0.121259
v 0.106668 -0.141548 -0.120719
v 0.076570 -0.110940 -0.108252
v 0.071654 -0.114402 -0.316371
v 0.071546 -0.114232 -0.329378
v 0.074042 -0.112734 -0.212311
v 0.146829 -0.173683 -0.061411
v 0.148176 -0.172560 -0.068129
v 0.145959 -0.174288 -0.051018
v 0.150289 -0.170724 -0.074801
v 0.122213 -0.145575 -0.094013
v 0.120406 -0.147382 -0.134293
v 0.120406 -0.147382 -0.149664
v 0.120406 -0.147382 -0.165036
v 0.101500 -0.135031 -0.155339
v 0.120406 -0.147382 -0.180407
v 0.120406 -0.147382 -0.195778
v 0.120406 -0.147382 -0.211149
v 0.120406 -0.147382 -0.226521
v 0.120406 -0.147382 -0.241892
v 0.120406 -0.147382 -0.257263
v 0.120406 -0.147382 -0.272634
v 0.120406 -0.147382 -0.288006
v 0.120406 -0.147382 -0.303377
v 0.120406 -0.147382 -0.318748
v 0.120406 -0.147382 -0.334119
v 0.120406 -0.147382 -0.349490
v 0.120406 -0.147382 -0.364862
v 0.120406 -0.147382 -0.380233
v 0.120406 -0.147382 -0.441718
v 0.144745 -0.174761 -0.039711
v 0.143370 -0.175261 -0.027796
v 0.137744 -0.179993 0.036104
v 0.072206 -0.113065 -0.026550
v 0.071824 -0.114308 -0.342386
v 0.075922 -0.111397 -0.096437
v 0.120406 -0.147382 -0.410975
v 0.093792 -0.129828 -0.176009
v 0.095790 -0.129226 -0.164093
v 0.103577 -0.135112 -0.472461
v 0.132308 -0.183846 0.191508
v 0.133067 -0.183150 0.211612
v 0.135211 -0.182037 0.235406
v 0.077542 -0.109713 0.198576
v 0.078267 -0.108391 0.212311
v 0.137952 -0.180419 0.255743
v 0.139446 -0.179602 0.265410
v 0.070288 -0.112228 -0.001446
v 0.071421 -0.113558 0.025353
v 0.069986 -0.112534 0.052171
v 0.071147 -0.113732 0.078652
v 0.070078 -0.112335 0.106111
v 0.131698 -0.184043 0.162077
v 0.132124 -0.183934 0.137095
v 0.132795 -0.183190 0.112658
v 0.134234 -0.182484 0.085526
v 0.135406 -0.181341 0.064540
v 0.139319 -0.178607 0.017364
v 0.141699 -0.176711 -0.009347
v 0.072821 -0.112678 0.129754
v 0.075572 -0.109858 0.181113
vn -0.5854 -0.8103 -0.0276
vn -0.5171 -0.7619 -0.3901
vn -0.5227 -0.7603 -0.3858
vn -0.5226 -0.7608 -0.3849
vn -0.5208 -0.7673 -0.3743
vn -0.3922 -0.6614 -0.6393
vn -0.1939 -0.8672 -0.4587
vn -0.5169 -0.7568 -0.4001
vn -0.5238 -0.7539 -0.3966
vn -0.5238 -0.7589 -0.3868
vn -0.5238 -0.7587 -0.3873
vn -0.5271 -0.7573 -0.3856
vn -0.5759 -0.8174 -0.0145
vn -0.5870 -0.8096 -0.0015
vn -0.5879 -0.8089 -0.0016
vn -0.5875 -0.8092 -0.0010
vn -0.3016 -0.9463 0.1161
vn -0.4497 -0.8932 0.0000
vn -0.5894 -0.8079 0.0000
vn -0.5892 -0.8080 -0.0004
vn -0.6949 -0.7181 0.0391
vn -0.6480 -0.7616 -0.0029
vn -0.6592 -0.7520 -0.0017
vn -0.6547 -0.7559 0.0016
vn -0.6481 -0.7611 0.0256
vn -0.6254 -0.7796 0.0320
vn -0.6249 -0.7801 0.0322
vn -0.6249 -0.7801 0.0321
vn -0.5470 -0.8357 -0.0487
vn -0.5471 -0.8365 -0.0318
vn -0.5469 -0.8366 -0.0325
vn -0.5469 -0.8365 -0.0324
vn -0.6201 -0.7831 0.0477
vn -0.6215 -0.7820 0.0473
vn -0.6208 -0.7824 0.0500
vn -0.6202 -0.7828 0.0502
vn -0.5640 -0.8245 -0.0469
vn -0.5624 -0.8259 -0.0401
vn -0.5613 -0.8265 -0.0439
vn -0.5639 -0.8249 -0.0393
vn -0.6260 -0.7785 -0.0454
vn -0.6226 -0.7817 -0.0373
vn -0.6207 -0.7829 -0.0438
vn -0.5619 -0.8261 -0.0438
vn -0.6487 -0.7611 -0.0006
vn -0.6385 -0.7686 0.0391
vn -0.6721 -0.7403 0.0165
vn -0.6414 -0.7665 0.0325
vn -0.6887 -0.7235 0.0467
vn 0.6538 -0.7567 -0.0045
vn 0.6551 -0.7555 -0.0047
vn -0.6837 -0.7295 0.0217
vn -0.7059 -0.7066 0.0496
vn -0.7063 -0.7072 0.0312
vn -0.5989 -0.8008 -0.0015
vn -0.6010 -0.7992 -0.0055
vn -0.6028 -0.7979 -0.0056
vn -0.6065 -0.7951 -0.0004
vn -0.6556 -0.7551 0.0018
vn -0.6775 -0.7355 0.0126
vn -0.5656 -0.7875 -0.2450
vn -0.6167 -0.7812 -0.0971
vn -0.6159 -0.7818 -0.0973
vn -0.6137 -0.7828 -0.1025
vn -0.5256 -0.7629 -0.3764
vn -0.5253 -0.7625 -0.3776
vn -0.5254 -0.7630 -0.3766
vn -0.5251 -0.7620 -0.3789
vn -0.1708 -0.9310 0.3227
vn -0.2943 -0.8939 -0.3382
vn -0.1390 -0.9894 -0.0422
vn -0.3909 -0.9204 0.0000
vn -0.5469 -0.8372 0.0000
vn -0.5468 -0.8373 0.0002
vn -0.5469 -0.8372 -0.0001
vn -0.5459 -0.8378 0.0000
vn -0.5459 -0.8379 0.0000
vn -0.6121 -0.7845 -0.0994
vn -0.6124 -0.7837 -0.1036
vn -0.6728 -0.7353 -0.0816
vn -0.5256 -0.7551 -0.3919
vn -0.6680 -0.7439 0.0201
vn -0.5662 -0.7578 -0.3241
vn -0.7350 -0.6710 -0.0974
vn -0.2853 -0.9470 -0.1477
vn -0.5547 -0.8264 -0.0967
vn -0.5734 -0.8031 0.1623
vn -0.3034 -0.9521 -0.0374
vn -0.5588 -0.8293 -0.0000
vn -0.5468 -0.8366 -0.0332
vn -0.6043 -0.7905 0.0997
vn -0.9561 -0.0155 0.2925
vn -0.9562 -0.0173 0.2923
vn -0.6231 -0.7821 0.0119
vn -0.2664 -0.9593 0.0931
vn -0.8160 -0.5541 0.1648
vn -0.5674 -0.8234 0.0043
vn -0.5883 -0.8086 -0.0005
vn -0.6985 -0.7040 -0.1281
vn -0.5811 -0.8076 0.1006
vn -0.6037 -0.7869 -0.1280
vn -0.5962 -0.8028 -0.0081
vn -0.5711 -0.7730 -0.2763
vn -0.7248 -0.6857 -0.0663
vn -0.6220 -0.7821 -0.0369
vn -0.3927 -0.9195 0.0169
vn -0.7017 -0.7119 0.0280
vn -0.6883 -0.7252 0.0170
vn -0.4225 -0.9041 0.0644
vn -0.8408 -0.5389 0.0504
vn -0.8104 -0.5773 0.1000
vn -0.7791 -0.6187 0.1007
vn -0.8198 -0.5583 0.1273
vn -0.7845 -0.6008 0.1535
vn -0.7785 -0.6038 0.1713
vn -0.7773 -0.6077 0.1626
vn -0.7807 -0.6017 0.1688
vn -0.7776 -0.6111 0.1477
vn 0.7776 0.6111 -0.1477
vn -0.8109 -0.5735 0.1166
vn 0.8109 0.5735 -0.1166
vn -0.7073 -0.7069 -0.0052
vn -0.7066 -0.7076 -0.0054
vn -0.7069 -0.7072 -0.0106
vn -0.7001 -0.7134 -0.0297
vn -0.7068 -0.7073 -0.0108
vn -0.0454 -0.9980 -0.0432
vn -0.4914 -0.8706 0.0252
vn -0.7816 -0.6032 0.1591
vn -0.7686 -0.6165 0.1709
vn -0.8611 -0.5080 0.0212
vn -0.8924 -0.4509 -0.0172
vn -0.9101 -0.4128 -0.0376
vn -0.9293 -0.3646 -0.0588
vn -0.9405 -0.3324 -0.0706
vn -0.6099 -0.7849 -0.1093
vn -0.6086 -0.7858 -0.1100
vn -0.6083 -0.7860 -0.1101
vn -0.6116 -0.7827 -0.1154
vn -0.5994 -0.7919 -0.1165
vn -0.9594 -0.2668 -0.0915
vn -0.6980 -0.7140 0.0542
vn -0.7034 -0.7072 0.0713
vn -0.7235 -0.6861 0.0764
vn -0.7596 -0.6440 0.0910
vn 0.5854 0.8103 0.0276
vn 0.5227 0.7603 0.3858
vn 0.5208 0.7673 0.3743
vn 0.3922 0.6614 0.6393
vn 0.1939 0.8672 0.4587
vn 0.5169 0.7568 0.4001
vn 0.5238 0.7539 0.3966
vn 0.5238 0.7589 0.3868
vn 0.5270 0.7573 0.3856
vn 0.5238 0.7587 0.3873
vn 0.5759 0.8174 0.0145
vn 0.5870 0.8096 0.0015
vn 0.5878 0.8090 0.0009
vn 0.5879 0.8089 0.0016
vn 0.3016 0.9463 -0.1161
vn 0.4497 0.8932 0.0000
vn 0.5894 0.8079 0.0000
vn 0.6949 0.7181 -0.0391
vn 0.6480 0.7616 0.0029
vn 0.6547 0.7559 -0.0016
vn 0.6592 0.7520 0.0017
vn 0.6481 0.7611 -0.0256
vn 0.6254 0.7796 -0.0320
vn 0.6249 0.7801 -0.0321
vn 0.6249 0.7801 -0.0322
vn 0.5470 0.8357 0.0487
vn 0.5471 0.8365 0.0318
vn 0.5469 0.8365 0.0324
vn 0.5469 0.8366 0.0325
vn 0.6201 0.7831 -0.0477
vn 0.6208 0.7824 -0.0500
vn 0.6215 0.7820 -0.0473
vn 0.6202 0.7828 -0.0502
vn 0.5640 0.8245 0.0469
vn 0.5613 0.8265 0.0439
vn 0.5624 0.8259 0.0401
vn 0.5639 0.8249 0.0393
vn 0.6260 0.7785 0.0454
vn 0.6207 0.7829 0.0438
vn 0.6226 0.7817 0.0373
vn 0.5619 0.8261 0.0438
vn 0.6487 0.7611 0.0006
vn 0.6385 0.7686 -0.0391
vn 0.6721 0.7403 -0.0165
vn 0.6414 0.7665 -0.0325
vn 0.6887 0.7235 -0.0467
vn -0.6538 0.7567 0.0045
vn -0.6551 0.7555 0.0047
vn 0.6837 0.7295 -0.0217
vn 0.7059 0.7066 -0.0496
vn 0.7063 0.7072 -0.0312
vn 0.6010 0.7992 0.0055
vn 0.5969 0.8023 0.0079
vn 0.5938 0.8046 0.0062
vn 0.6065 0.7951 0.0004
vn 0.6556 0.7551 -0.0018
vn 0.6775 0.7355 -0.0126
vn 0.5656 0.7875 0.2450
vn 0.6167 0.7812 0.0971
vn 0.6137 0.7829 0.1026
vn 0.6159 0.7818 0.0973
vn 0.5256 0.7629 0.3764
vn 0.5254 0.7630 0.3766
vn 0.5253 0.7625 0.3776
vn 0.5251 0.7620 0.3789
vn 0.1708 0.9310 -0.3227
vn 0.2943 0.8939 0.3382
vn 0.1390 0.9894 0.0422
vn 0.3909 0.9204 0.0000
vn 0.5469 0.8372 0.0000
vn 0.5469 0.8372 0.0001
vn 0.5468 0.8373 -0.0002
vn 0.5459 0.8379 0.0000
vn 0.5459 0.8378 -0.0000
vn 0.6124 0.7837 0.1036
vn 0.6121 0.7845 0.0994
vn 0.6728 0.7353 0.0816
vn 0.5256 0.7551 0.3919
vn 0.6680 0.7439 -0.0201
vn 0.5662 0.7578 0.3241
vn 0.7350 0.6710 0.0974
vn 0.2853 0.9470 0.1477
vn 0.5547 0.8264 0.0967
vn 0.5734 0.8031 -0.1623
vn 0.3034 0.9521 0.0374
vn 0.5588 0.8293 0.0000
vn 0.5468 0.8366 0.0332
vn 0.6043 0.7905 -0.0997
vn 0.9561 0.0155 -0.2925
vn 0.9562 0.0173 -0.2923
vn 0.6231 0.7821 -0.0119
vn 0.2664 0.9593 -0.0931
vn 0.8160 0.5541 -0.1648
vn 0.5674 0.8234 -0.0043
vn 0.5885 0.8085 0.0003
vn 0.5883 0.8086 0.0005
vn 0.6985 0.7040 0.1281
vn 0.5811 0.8076 -0.1006
vn 0.6037 0.7869 0.1280
vn 0.5962 0.8028 0.0081
vn 0.5711 0.7730 0.2763
vn 0.7248 0.6857 0.0663
vn 0.6220 0.7821 0.0369
vn 0.3927 0.9195 -0.0169
vn 0.7017 0.7119 -0.0280
vn 0.6883 0.7252 -0.0170
vn 0.4225 0.9041 -0.0644
vn 0.8408 0.5389 -0.0504
vn 0.8104 0.5773 -0.1000
vn 0.7791 0.6187 -0.1007
vn 0.8198 0.5583 -0.1273
vn 0.7845 0.6008 -0.1535
vn 0.7785 0.6038 -0.1713
vn 0.7073 0.7069 0.0052
vn 0.7069 0.7072 0.0106
vn 0.7066 0.7076 0.0054
vn 0.7001 0.7134 0.0297
vn 0.7068 0.7073 0.0108
vn 0.0454 0.9980 0.0432
vn 0.4914 0.8706 -0.0252
vn 0.7816 0.6032 -0.1591
vn 0.7686 0.6165 -0.1709
vn 0.8611 0.5080 -0.0212
vn 0.8924 0.4509 0.0172
vn 0.9101 0.4128 0.0376
vn 0.9293 0.3646 0.0588
vn 0.9405 0.3324 0.0706
vn 0.6105 0.7844 0.1099
vn 0.6098 0.7850 0.1093
vn 0.6099 0.7849 0.1093
vn 0.6086 0.7858 0.1100
vn 0.5994 0.7919 0.1165
vn 0.9594 0.2668 0.0915
vn 0.6980 0.7140 -0.0542
vn 0.7034 0.7072 -0.0713
vn 0.7235 0.6861 -0.0764
vn 0.7596 0.6440 -0.0910
usemtl None.131
s 1
f 1//1 3//1 2//1
f 4//2 6//3 5//4
f 4//2 5//4 7//5
f 8//6 10//6 9//6
f 8//7 9//7 11//7
f 6//8 13//8 12//8
f 6//9 12//9 5//9
f 7//10 5//11 14//12
f 3//13 15//13 2//13
f 3//14 16//15 15//16
f 17//17 19//17 18//17
f 17//18 18//18 20//18
f 21//19 23//19 22//20
f 24//21 26//21 25//21
f 24//22 27//23 26//24
f 28//25 30//25 29//25
f 28//26 29//27 31//28
f 32//29 34//29 33//29
f 32//30 35//31 34//32
f 36//33 37//34 29//35
f 36//33 29//35 38//36
f 39//37 15//38 40//39
f 39//37 2//40 15//38
f 41//41 43//42 42//43
f 44//44 40//39 15//38
f 45//45 47//45 46//45
f 45//46 33//46 47//46
f 48//47 29//47 30//47
f 48//48 38//48 29//48
f 49//49 26//49 50//49
f 49//50 50//50 51//51
f 49//52 25//52 26//52
f 52//53 50//53 53//53
f 52//54 53//54 54//54
f 55//55 56//56 29//57
f 55//55 29//57 37//58
f 57//59 26//24 27//23
f 57//60 31//60 26//60
f 58//61 5//61 59//61
f 58//62 60//63 5//64
f 59//65 5//66 61//67
f 12//68 61//67 5//66
f 19//69 62//69 18//69
f 62//70 11//70 43//70
f 62//71 43//71 18//71
f 20//72 53//72 63//72
f 63//72 53//72 64//72
f 65//73 67//74 66//75
f 65//73 64//73 67//74
f 66//75 29//76 68//77
f 66//75 67//74 29//76
f 68//77 29//76 69//77
f 70//77 29//76 71//77
f 71//77 29//76 72//77
f 72//77 29//76 73//77
f 73//77 29//76 74//77
f 75//77 29//76 76//77
f 75//77 74//77 29//76
f 77//77 29//76 78//77
f 77//77 76//77 29//76
f 78//77 29//76 79//77
f 79//77 29//76 80//77
f 80//77 29//76 34//77
f 23//19 81//19 22//20
f 5//64 83//78 82//79
f 5//80 85//80 84//80
f 14//12 5//11 10//81
f 47//82 29//82 86//82
f 5//64 60//63 83//78
f 5//83 11//83 9//83
f 41//84 87//84 53//84
f 11//85 5//85 43//85
f 64//86 53//86 26//86
f 64//87 26//87 67//87
f 5//88 9//88 10//88
f 44//89 15//89 88//89
f 44//90 34//32 35//31
f 44//89 88//89 34//89
f 41//91 53//91 43//91
f 43//92 53//92 18//93
f 70//77 69//77 29//76
f 26//94 29//94 89//94
f 89//95 90//95 26//95
f 89//96 67//96 90//96
f 81//19 15//16 22//20
f 67//97 89//97 29//97
f 22//20 15//16 91//98
f 15//16 16//15 91//98
f 84//99 43//99 5//99
f 86//100 46//100 47//100
f 26//101 90//101 67//101
f 56//102 86//102 29//102
f 34//103 47//103 33//103
f 53//104 87//104 54//104
f 43//42 84//105 42//43
f 53//106 20//106 18//106
f 50//107 26//107 53//107
f 31//108 29//108 26//108
f 34//109 29//109 47//109
f 92//110 94//110 93//110
f 92//111 93//111 95//111
f 96//112 92//112 97//112
f 97//113 92//113 98//113
f 99//114 92//114 95//114
f 99//115 100//116 92//117
f 101//118 103//118 102//118
f 101//119 104//119 103//119
f 105//120 98//120 92//120
f 105//121 92//121 106//121
f 107//122 85//123 108//124
f 107//125 84//125 85//125
f 108//124 85//123 109//126
f 110//127 109//127 92//127
f 110//128 92//128 111//128
f 100//116 103//129 92//117
f 100//130 102//130 103//130
f 94//131 92//131 112//131
f 112//132 92//132 113//132
f 114//133 113//133 92//133
f 114//134 92//134 115//134
f 115//135 92//135 116//135
f 117//136 85//136 5//136
f 117//137 5//138 118//139
f 82//140 118//139 5//138
f 85//141 116//141 92//141
f 85//142 92//142 109//142
f 92//143 119//143 111//143
f 92//144 120//144 119//144
f 92//145 96//145 120//145
f 121//146 123//146 122//146
f 124//147 126//147 125//147
f 124//148 127//148 126//148
f 128//149 130//149 129//149
f 128//150 131//150 130//150
f 125//151 133//151 132//151
f 125//152 126//152 133//152
f 127//153 134//154 126//155
f 122//156 123//156 135//156
f 122//157 135//158 136//159
f 137//160 139//160 138//160
f 137//161 140//161 139//161
f 141//162 143//162 142//162
f 144//163 146//163 145//163
f 144//164 145//165 147//166
f 148//167 150//167 149//167
f 148//168 151//169 150//170
f 152//171 154//171 153//171
f 152//172 153//173 155//174
f 156//175 150//176 157//177
f 156//175 158//178 150//176
f 159//179 160//180 135//181
f 159//179 135//181 123//182
f 161//183 163//184 162//185
f 164//186 135//181 160//180
f 165//187 167//187 166//187
f 165//188 166//188 154//188
f 168//189 149//189 150//189
f 168//190 150//190 158//190
f 169//191 170//191 145//191
f 169//192 171//193 170//192
f 169//194 145//194 146//194
f 172//195 173//195 170//195
f 172//196 174//196 173//196
f 175//197 150//198 176//199
f 175//200 157//200 150//200
f 177//201 147//166 145//165
f 177//202 145//202 151//202
f 178//203 179//203 126//203
f 178//204 126//205 180//206
f 179//207 181//208 126//209
f 133//210 126//209 181//208
f 138//211 139//211 182//211
f 182//212 162//212 131//212
f 182//213 139//213 162//213
f 140//214 183//214 173//214
f 183//214 184//214 173//214
f 185//215 187//216 186//217
f 185//215 186//217 184//215
f 187//216 188//218 150//219
f 187//216 150//219 186//217
f 188//218 189//218 150//219
f 190//218 191//218 150//219
f 191//218 192//218 150//219
f 192//218 193//218 150//219
f 193//218 194//218 150//219
f 195//218 196//218 150//219
f 195//218 150//219 194//218
f 197//218 198//218 150//219
f 197//218 150//219 196//218
f 198//218 199//218 150//219
f 199//218 200//218 150//219
f 200//218 153//218 150//219
f 142//162 143//162 201//162
f 126//205 203//220 202//221
f 126//222 205//222 204//222
f 134//154 129//223 126//155
f 166//224 206//224 150//224
f 126//205 202//221 180//206
f 126//225 130//225 131//225
f 161//226 173//226 207//226
f 131//227 162//227 126//227
f 184//228 145//228 173//228
f 184//229 186//229 145//229
f 126//230 129//230 130//230
f 164//231 208//231 135//231
f 164//232 155//174 153//173
f 164//231 153//231 208//231
f 161//233 162//233 173//233
f 162//234 139//235 173//234
f 190//218 150//219 189//218
f 145//236 209//236 150//236
f 209//237 145//237 210//237
f 209//238 210//238 186//238
f 201//162 143//162 135//162
f 186//239 150//239 209//239
f 143//240 211//241 135//158
f 135//158 211//241 136//159
f 205//242 126//242 162//242
f 206//243 166//243 167//243
f 145//244 186//244 210//244
f 176//199 150//198 206//245
f 153//246 154//246 166//246
f 173//247 174//247 207//247
f 162//185 163//184 205//248
f 173//249 139//249 140//249
f 170//250 173//250 145//250
f 151//251 145//251 150//251
f 153//252 166//252 150//252
f 92//253 213//253 212//253
f 92//254 214//254 213//254
f 215//255 216//255 92//255
f 216//256 106//256 92//256
f 217//257 214//257 92//257
f 217//258 92//258 218//258
f 219//259 220//260 204//261
f 219//262 204//262 205//262
f 220//260 221//263 204//261
f 222//264 92//264 221//264
f 222//265 223//265 92//265
f 218//266 92//266 103//266
f 218//267 103//267 104//267
f 212//268 224//268 92//268
f 224//269 225//269 92//269
f 226//270 92//270 225//270
f 226//271 227//271 92//271
f 227//272 228//272 92//272
f 229//273 126//274 204//275
f 229//273 230//276 126//274
f 203//277 126//277 230//277
f 204//278 92//278 228//278
f 204//279 221//279 92//279
f 92//280 223//280 231//280
f 92//281 231//281 232//281
f 92//282 232//282 215//282
