# Blender v2.79 (sub 0) OBJ File: ''
# www.blender.org
mtllib crack_restart_keyway_345.mtl
o crack_restart_keyway_345
v 0.147213 -0.162046 -0.087644
v 0.145384 -0.160727 -0.087883
v 0.146872 -0.166121 -0.080179
v 0.149044 -0.163300 -0.087407
v 0.139528 -0.156359 -0.088664
v 0.143310 -0.159245 -0.088170
v 0.135295 -0.153122 -0.089247
v 0.131068 -0.149873 -0.089874
v 0.119645 -0.149436 -0.078377
v 0.126719 -0.147646 -0.091582
v 0.122213 -0.145575 -0.094013
v 0.120406 -0.147382 -0.103551
v 0.120406 -0.147382 -0.118922
v 0.108657 -0.141935 -0.146121
v 0.120866 -0.146923 -0.098614
v 0.120406 -0.147382 -0.472461
v 0.108555 -0.138068 -0.472461
v 0.120406 -0.147382 -0.457089
v 0.070755 -0.114899 -0.394416
v 0.070445 -0.114923 -0.381408
v 0.090632 -0.132125 -0.376755
v 0.070895 -0.114641 -0.407423
v 0.072544 -0.113797 -0.290356
v 0.104118 -0.140766 -0.280913
v 0.071936 -0.113987 -0.303364
v 0.072676 -0.113522 -0.277349
v 0.072639 -0.113730 -0.446446
v 0.071768 -0.114092 -0.433438
v 0.086761 -0.122265 -0.472461
v 0.073244 -0.113269 -0.464872
v 0.071337 -0.114577 -0.342386
v 0.090182 -0.130200 -0.321279
v 0.070653 -0.114793 -0.355393
v 0.071307 -0.114382 -0.329378
v 0.071362 -0.114564 -0.420431
v 0.070755 -0.114899 -0.368401
v 0.072890 -0.113552 -0.264341
v 0.073139 -0.113231 -0.251334
v 0.071606 -0.114429 -0.316371
v 0.114540 -0.144630 -0.094786
v 0.120406 -0.147382 -0.134293
v 0.120406 -0.147382 -0.149664
v 0.120406 -0.147382 -0.165036
v 0.120406 -0.147382 -0.180407
v 0.074961 -0.112212 -0.166761
v 0.120406 -0.147382 -0.195778
v 0.120406 -0.147382 -0.211149
v 0.120406 -0.147382 -0.226521
v 0.120406 -0.147382 -0.241892
v 0.120406 -0.147382 -0.257263
v 0.120406 -0.147382 -0.272634
v 0.120406 -0.147382 -0.288006
v 0.120406 -0.147382 -0.303377
v 0.120406 -0.147382 -0.334119
v 0.120406 -0.147382 -0.349490
v 0.120406 -0.147382 -0.318748
v 0.120406 -0.147382 -0.364862
v 0.120406 -0.147382 -0.380233
v 0.120406 -0.147382 -0.395604
v 0.120406 -0.147382 -0.410975
v 0.120406 -0.147382 -0.426347
v 0.087736 -0.119723 -0.089708
v 0.085733 -0.117425 -0.091224
v 0.092966 -0.125100 -0.085560
v 0.104480 -0.136359 -0.079679
v 0.106873 -0.138656 -0.078579
v 0.129332 -0.156949 -0.076112
v 0.149871 -0.167545 -0.081597
v 0.103359 -0.134183 -0.472461
v 0.120406 -0.147382 -0.441718
v 0.076184 -0.111395 -0.125260
v 0.076984 -0.110777 -0.114755
v 0.078446 -0.109739 -0.101593
v 0.076527 -0.111115 -0.120583
v 0.075253 -0.112017 -0.141350
v 0.075422 -0.111755 -0.134267
v 0.074974 -0.112078 -0.147274
v 0.083565 -0.114924 -0.092955
v 0.077679 -0.110154 -0.108252
v 0.080968 -0.111881 -0.095147
v 0.078886 -0.109460 -0.096920
v 0.090035 -0.122091 -0.087675
v 0.109464 -0.141104 -0.077386
v 0.115568 -0.146477 -0.076837
v 0.114215 -0.145389 -0.077038
v 0.117772 -0.148234 -0.076559
v 0.114540 -0.144630 -0.094786
v 0.111012 -0.142611 -0.077167
v 0.112323 -0.143718 -0.077089
v 0.120694 -0.150635 -0.075983
v 0.122810 -0.152657 -0.075866
v 0.119645 -0.149436 -0.078377
v 0.127757 -0.155897 -0.076106
v 0.124433 -0.153656 -0.076139
v 0.125620 -0.154492 -0.076127
v 0.136207 -0.160833 -0.077414
v 0.134445 -0.159960 -0.076832
v 0.132352 -0.159237 -0.075805
v 0.130731 -0.157893 -0.076030
v 0.149044 -0.163300 -0.087407
v 0.152228 -0.167839 -0.082698
v 0.150816 -0.164547 -0.087218
v 0.152510 -0.165875 -0.087026
v 0.154169 -0.167228 -0.086961
v 0.153704 -0.167651 -0.085056
v 0.073819 -0.112933 -0.232038
v 0.075053 -0.112151 -0.153612
v 0.074983 -0.112067 -0.160281
v 0.073741 -0.112853 -0.199304
v 0.074163 -0.112745 -0.207479
v 0.074271 -0.112572 -0.212311
v 0.074227 -0.112703 -0.217274
v 0.073533 -0.113096 -0.472461
v 0.074548 -0.112488 -0.180668
v 0.074764 -0.112210 -0.173289
v 0.074273 -0.112570 -0.186296
v 0.074166 -0.112743 -0.191135
v 0.096358 -0.129030 -0.472461
v 0.154169 -0.167228 -0.086961
v 0.078446 -0.109739 -0.101593
v 0.147213 -0.162046 -0.087644
v 0.145384 -0.160727 -0.087883
v 0.139528 -0.156359 -0.088664
v 0.143310 -0.159245 -0.088170
v 0.135295 -0.153122 -0.089247
v 0.131068 -0.149873 -0.089874
v 0.126719 -0.147646 -0.091582
v 0.122213 -0.145575 -0.094013
v 0.120406 -0.147382 -0.103551
v 0.108657 -0.141935 -0.146121
v 0.120406 -0.147382 -0.118922
v 0.120866 -0.146923 -0.098614
v 0.120406 -0.147382 -0.472461
v 0.120406 -0.147382 -0.457089
v 0.108555 -0.138068 -0.472461
v 0.070755 -0.114899 -0.394416
v 0.090632 -0.132125 -0.376755
v 0.070445 -0.114923 -0.381408
v 0.070895 -0.114641 -0.407423
v 0.072544 -0.113797 -0.290356
v 0.071936 -0.113987 -0.303364
v 0.104118 -0.140766 -0.280913
v 0.072676 -0.113522 -0.277349
v 0.072639 -0.113730 -0.446446
v 0.071768 -0.114092 -0.433438
v 0.073244 -0.113269 -0.464872
v 0.086761 -0.122265 -0.472461
v 0.071337 -0.114577 -0.342386
v 0.070653 -0.114793 -0.355393
v 0.090182 -0.130200 -0.321279
v 0.071307 -0.114382 -0.329378
v 0.071362 -0.114564 -0.420431
v 0.070755 -0.114899 -0.368401
v 0.072890 -0.113552 -0.264341
v 0.073139 -0.113231 -0.251334
v 0.071606 -0.114429 -0.316371
v 0.120406 -0.147382 -0.134293
v 0.120406 -0.147382 -0.149664
v 0.120406 -0.147382 -0.165036
v 0.120406 -0.147382 -0.180407
v 0.074961 -0.112212 -0.166761
v 0.120406 -0.147382 -0.195778
v 0.120406 -0.147382 -0.211149
v 0.120406 -0.147382 -0.226521
v 0.120406 -0.147382 -0.241892
v 0.120406 -0.147382 -0.257263
v 0.120406 -0.147382 -0.272634
v 0.120406 -0.147382 -0.288006
v 0.120406 -0.147382 -0.303377
v 0.120406 -0.147382 -0.334119
v 0.120406 -0.147382 -0.349490
v 0.120406 -0.147382 -0.318748
v 0.120406 -0.147382 -0.364862
v 0.120406 -0.147382 -0.380233
v 0.120406 -0.147382 -0.395604
v 0.120406 -0.147382 -0.410975
v 0.120406 -0.147382 -0.426347
v 0.103359 -0.134183 -0.472461
v 0.120406 -0.147382 -0.441718
v 0.076184 -0.111395 -0.125260
v 0.076984 -0.110777 -0.114755
v 0.076527 -0.111115 -0.120583
v 0.075422 -0.111755 -0.134267
v 0.075253 -0.112017 -0.141350
v 0.074974 -0.112078 -0.147274
v 0.077679 -0.110154 -0.108252
v 0.150816 -0.164547 -0.087218
v 0.152510 -0.165875 -0.087026
v 0.073819 -0.112933 -0.232038
v 0.075053 -0.112151 -0.153612
v 0.074983 -0.112067 -0.160281
v 0.073741 -0.112853 -0.199304
v 0.074163 -0.112745 -0.207479
v 0.074271 -0.112572 -0.212311
v 0.074227 -0.112703 -0.217274
v 0.073533 -0.113096 -0.472461
v 0.074548 -0.112488 -0.180668
v 0.074764 -0.112210 -0.173289
v 0.074273 -0.112570 -0.186296
v 0.074166 -0.112743 -0.191135
v 0.096358 -0.129030 -0.472461
vn 0.4885 0.7563 0.4352
vn 0.4874 0.7567 0.4357
vn 0.4819 0.7588 0.4381
vn 0.4680 0.7665 0.4398
vn 0.5170 0.7491 0.4142
vn 0.5158 0.7493 0.4153
vn 0.5175 0.7490 0.4138
vn 0.5157 0.7492 0.4156
vn 0.4954 0.7341 0.4643
vn 0.3379 0.8914 0.3019
vn 0.4816 0.7589 0.4383
vn 0.2763 0.9215 0.2729
vn 0.4206 0.9072 0.0000
vn 0.7639 0.6321 -0.1299
vn 0.6179 0.7862 0.0000
vn 0.6458 0.7633 0.0176
vn 0.6463 0.7629 0.0168
vn 0.6405 0.7675 0.0253
vn 0.6424 0.7660 0.0232
vn 0.6561 0.7535 -0.0417
vn 0.6532 0.7568 -0.0226
vn 0.6532 0.7569 -0.0223
vn 0.6541 0.7563 -0.0092
vn 0.5865 0.8076 0.0617
vn 0.5688 0.8215 0.0392
vn 0.5690 0.8214 0.0397
vn 0.5692 0.8212 0.0404
vn 0.6685 0.7422 -0.0475
vn 0.6448 0.7643 -0.0100
vn 0.6453 0.7639 -0.0119
vn 0.6449 0.7642 -0.0102
vn 0.6115 0.7898 0.0477
vn 0.6508 0.7591 -0.0169
vn 0.6472 0.7617 -0.0312
vn 0.6469 0.7619 -0.0317
vn 0.6462 0.7624 -0.0329
vn 0.6542 0.7562 -0.0090
vn 0.6453 0.7638 -0.0121
vn 0.1474 0.9367 -0.3176
vn 0.3459 0.9382 0.0096
vn 0.0931 0.9630 0.2531
vn 0.3763 0.9265 0.0000
vn 0.6018 0.7849 0.1478
vn 0.6125 0.7894 -0.0410
vn 0.4942 0.8693 0.0000
vn 0.4560 0.8900 0.0000
vn 0.5445 0.8374 0.0474
vn 0.5323 0.7771 -0.3358
vn 0.6879 0.7072 0.1633
vn 0.6863 0.7237 0.0728
vn 0.6792 0.7322 0.0514
vn 0.6747 0.7365 0.0476
vn 0.6791 0.7323 0.0511
vn 0.6386 0.7691 0.0275
vn 0.4838 0.7565 0.4401
vn 0.5467 0.7113 0.4419
vn 0.5825 0.8112 0.0506
vn 0.5986 0.8007 0.0236
vn 0.5982 0.8013 0.0000
vn 0.6210 0.7838 -0.0015
vn -0.4975 0.8673 -0.0131
vn 0.3413 0.9364 -0.0814
vn 0.3413 0.9364 -0.0813
vn 0.6715 0.7400 -0.0381
vn 0.7016 0.7031 -0.1162
vn 0.5595 0.8120 0.1665
vn 0.6637 0.7469 -0.0391
vn 0.6633 0.7472 -0.0413
vn 0.6631 0.7473 -0.0435
vn 0.6636 0.7471 -0.0389
vn 0.6530 0.7526 -0.0853
vn 0.7843 0.6127 -0.0970
vn 0.6891 0.7229 0.0516
vn 0.6832 0.7281 0.0563
vn 0.9621 0.2420 -0.1259
vn 0.7940 0.5975 -0.1121
vn 0.7926 0.5996 -0.1109
vn 0.7944 0.5970 -0.1124
vn 0.7921 0.6003 -0.1104
vn 0.7111 0.7030 0.0147
vn 0.6744 0.7369 0.0474
vn 0.5985 0.7997 0.0480
vn 0.6220 0.7818 0.0448
vn 0.6109 0.7839 0.1111
vn 0.6152 0.7794 0.1182
vn 0.6121 0.7827 0.1129
vn -0.6792 -0.7322 -0.0514
vn -0.6796 -0.7317 -0.0519
vn -0.6800 -0.7314 -0.0524
vn -0.6744 -0.7369 -0.0474
vn 0.6924 0.7194 0.0562
vn 0.6432 0.7646 0.0412
vn 0.6607 0.7494 0.0441
vn 0.6878 0.7233 0.0609
vn 0.6161 0.7785 0.1200
vn -0.6878 -0.7233 -0.0609
vn -0.6161 -0.7785 -0.1200
vn -0.6152 -0.7794 -0.1182
vn -0.6121 -0.7827 -0.1128
vn 0.5207 0.7777 0.3523
vn 0.5468 0.7807 0.3023
vn 0.5347 0.7796 0.3261
vn 0.5018 0.7691 0.3958
vn 0.4876 0.7482 0.4500
vn 0.5093 0.7386 0.4417
vn 0.5057 0.7405 0.4425
vn 0.5112 0.7376 0.4412
vn 0.5003 0.7435 0.4438
vn -0.4971 -0.6881 -0.5287
vn -0.5468 -0.7807 -0.3023
vn -0.5018 -0.7691 -0.3958
vn -0.5467 -0.7113 -0.4419
vn 0.3415 0.7814 0.5223
vn -0.3415 -0.7814 -0.5223
vn 0.4973 0.7678 0.4039
vn 0.5450 0.7496 0.3756
vn 0.5790 0.7276 0.3679
vn 0.3347 0.8993 0.2813
vn 0.6453 0.7631 -0.0345
vn 0.6635 0.7482 -0.0002
vn 0.6633 0.7483 -0.0004
vn 0.6632 0.7485 0.0011
vn 0.6630 0.7486 0.0025
vn 0.7416 0.6692 0.0471
vn 0.7344 0.6775 0.0412
vn 0.7356 0.6761 0.0422
vn 0.7337 0.6782 0.0405
vn 0.6546 0.7556 -0.0257
vn 0.6535 0.7564 -0.0266
vn 0.6508 0.7587 -0.0289
vn 0.6012 0.7976 -0.0477
vn 0.6135 0.7886 -0.0415
vn 0.6134 0.7887 -0.0416
vn 0.6131 0.7889 -0.0417
vn 0.6121 0.7897 -0.0423
vn 0.6118 0.7899 -0.0425
vn 0.0000 0.0000 1.0000
vn 0.5868 0.7695 -0.2520
vn 0.5700 0.8188 0.0689
vn 0.5726 0.8187 0.0422
vn 0.6592 0.7517 -0.0197
vn 0.6679 0.7440 -0.0189
vn 0.5668 0.8227 -0.0423
vn 0.6497 0.7596 -0.0298
vn -0.5123 -0.7887 -0.3397
vn -0.5347 -0.7796 -0.3261
vn -0.3347 -0.8993 -0.2813
vn -0.6220 -0.7818 -0.0448
vn -0.6607 -0.7494 -0.0441
vn -0.6432 -0.7646 -0.0412
vn -0.6924 -0.7194 -0.0562
vn -0.6109 -0.7839 -0.1107
vn -0.7921 -0.6003 0.1104
vn -0.4885 -0.7563 -0.4352
vn -0.4820 -0.7588 -0.4381
vn -0.4874 -0.7567 -0.4357
vn -0.4680 -0.7665 -0.4398
vn -0.5170 -0.7491 -0.4142
vn -0.5175 -0.7490 -0.4138
vn -0.5158 -0.7493 -0.4153
vn -0.5157 -0.7492 -0.4156
vn -0.4954 -0.7341 -0.4643
vn -0.3379 -0.8914 -0.3019
vn -0.4816 -0.7589 -0.4383
vn -0.2763 -0.9215 -0.2729
vn -0.4206 -0.9072 0.0000
vn -0.7639 -0.6321 0.1299
vn -0.6179 -0.7862 0.0000
vn -0.6463 -0.7629 -0.0168
vn -0.6435 -0.7652 -0.0221
vn -0.6425 -0.7660 -0.0232
vn -0.6390 -0.7687 -0.0269
vn -0.6561 -0.7535 0.0417
vn -0.6532 -0.7568 0.0226
vn -0.6541 -0.7563 0.0092
vn -0.6532 -0.7569 0.0223
vn -0.5865 -0.8076 -0.0617
vn -0.5693 -0.8211 -0.0396
vn -0.5688 -0.8215 -0.0392
vn -0.5695 -0.8210 -0.0397
vn -0.6685 -0.7422 0.0475
vn -0.6448 -0.7643 0.0100
vn -0.6449 -0.7642 0.0102
vn -0.6453 -0.7639 0.0119
vn -0.6115 -0.7898 -0.0477
vn -0.6508 -0.7591 0.0169
vn -0.6472 -0.7617 0.0312
vn -0.6542 -0.7562 0.0090
vn -0.6453 -0.7638 0.0121
vn -0.1474 -0.9367 0.3176
vn -0.3459 -0.9382 -0.0096
vn -0.0931 -0.9630 -0.2531
vn -0.3763 -0.9265 0.0000
vn -0.6018 -0.7849 -0.1478
vn -0.6125 -0.7894 0.0410
vn -0.4942 -0.8693 -0.0000
vn -0.4560 -0.8900 0.0000
vn -0.5445 -0.8374 -0.0474
vn -0.5323 -0.7771 0.3358
vn -0.6879 -0.7072 -0.1633
vn -0.6863 -0.7237 -0.0728
vn -0.6386 -0.7691 -0.0275
vn -0.4838 -0.7565 -0.4401
vn -0.5825 -0.8112 -0.0506
vn -0.5986 -0.8007 -0.0236
vn -0.5982 -0.8013 0.0000
vn -0.6210 -0.7838 0.0015
vn 0.4975 -0.8673 0.0131
vn -0.3413 -0.9364 0.0813
vn -0.6715 -0.7400 0.0381
vn -0.7016 -0.7031 0.1162
vn -0.5595 -0.8120 -0.1665
vn -0.6637 -0.7469 0.0391
vn -0.6631 -0.7473 0.0435
vn -0.6633 -0.7472 0.0413
vn -0.6636 -0.7471 0.0389
vn -0.6530 -0.7526 0.0853
vn -0.7843 -0.6127 0.0970
vn -0.6891 -0.7229 -0.0516
vn -0.6832 -0.7281 -0.0563
vn -0.9621 -0.2420 0.1259
vn -0.7944 -0.5970 0.1124
vn -0.5985 -0.7997 -0.0480
vn -0.5207 -0.7777 -0.3523
vn -0.4876 -0.7482 -0.4500
vn -0.5093 -0.7386 -0.4417
vn -0.5112 -0.7376 -0.4412
vn -0.5057 -0.7405 -0.4425
vn -0.5003 -0.7435 -0.4438
vn -0.4973 -0.7678 -0.4039
vn -0.5450 -0.7496 -0.3756
vn -0.5790 -0.7276 -0.3679
vn -0.6462 -0.7624 0.0335
vn -0.6453 -0.7631 0.0345
vn -0.6491 -0.7601 0.0304
vn -0.6635 -0.7482 0.0002
vn -0.6632 -0.7485 -0.0011
vn -0.6633 -0.7483 0.0004
vn -0.6630 -0.7486 -0.0025
vn -0.7416 -0.6692 -0.0471
vn -0.7356 -0.6761 -0.0422
vn -0.7344 -0.6775 -0.0412
vn -0.7337 -0.6782 -0.0405
vn -0.6546 -0.7556 0.0257
vn -0.5692 -0.8212 -0.0404
vn -0.6012 -0.7976 0.0477
vn -0.6135 -0.7886 0.0415
vn -0.6131 -0.7889 0.0417
vn -0.6134 -0.7887 0.0416
vn -0.6121 -0.7897 0.0423
vn -0.6118 -0.7899 0.0425
vn 0.0000 0.0000 -1.0000
vn -0.5868 -0.7695 0.2520
vn -0.5700 -0.8188 -0.0689
vn -0.5726 -0.8187 -0.0422
vn -0.6592 -0.7517 0.0197
vn -0.6679 -0.7440 0.0189
vn -0.5668 -0.8227 0.0423
vn -0.6497 -0.7596 0.0298
usemtl None.055
s 1
f 1//1 2//2 3//3
f 1//4 3//4 4//4
f 5//5 3//6 6//7
f 5//5 7//8 3//6
f 8//9 9//9 7//9
f 8//10 10//10 9//10
f 6//11 3//3 2//2
f 10//12 11//12 9//12
f 12//13 13//13 14//13
f 12//14 14//14 15//14
f 16//15 17//15 18//15
f 19//16 20//17 21//18
f 19//16 21//18 22//19
f 23//20 24//20 25//20
f 23//21 26//22 24//23
f 27//24 28//24 21//24
f 27//25 29//26 30//27
f 31//28 32//28 33//28
f 31//29 34//30 32//31
f 35//32 21//32 28//32
f 36//33 21//33 20//33
f 37//34 38//35 24//36
f 37//37 24//23 26//22
f 39//38 32//31 34//30
f 15//39 40//39 11//39
f 15//40 14//40 40//40
f 11//41 40//41 9//41
f 13//13 41//13 14//13
f 41//13 42//13 14//13
f 42//13 43//13 14//13
f 43//42 44//42 24//42
f 43//43 45//43 14//43
f 43//44 24//44 45//44
f 44//42 46//42 24//42
f 46//42 47//42 24//42
f 47//42 48//42 24//42
f 48//42 49//42 24//42
f 49//42 50//42 24//42
f 50//42 51//42 24//42
f 51//42 52//42 24//42
f 52//42 53//42 24//42
f 54//45 55//45 32//45
f 54//45 32//45 56//45
f 55//45 57//45 32//45
f 58//46 59//46 21//46
f 58//46 21//46 57//46
f 59//46 60//46 21//46
f 60//46 61//46 21//46
f 57//47 36//47 32//47
f 57//48 21//48 36//48
f 62//49 40//49 63//49
f 62//50 64//50 40//50
f 65//51 66//52 40//53
f 21//18 35//54 22//19
f 9//55 67//55 7//55
f 3//56 68//56 4//56
f 18//57 69//57 29//57
f 18//58 17//58 69//58
f 18//59 29//59 70//59
f 32//60 36//60 33//60
f 71//61 72//61 73//61
f 71//62 74//63 72//63
f 71//64 40//64 14//64
f 71//65 73//65 40//65
f 24//66 53//66 25//66
f 14//67 75//68 76//69
f 14//67 77//70 75//68
f 14//71 76//71 71//71
f 73//72 78//72 63//72
f 73//73 63//73 40//73
f 40//74 64//74 65//74
f 79//75 73//75 72//75
f 73//76 80//77 78//78
f 80//77 73//76 81//79
f 82//80 64//80 62//80
f 40//53 66//52 83//81
f 9//82 40//82 84//82
f 84//83 40//83 85//83
f 84//84 86//85 9//86
f 66//87 65//88 87//89
f 66//90 87//90 83//90
f 40//91 83//91 88//91
f 40//92 88//92 89//92
f 40//93 89//93 85//93
f 9//94 90//94 91//94
f 9//86 86//85 90//95
f 90//96 92//96 91//96
f 90//97 86//98 92//99
f 9//100 93//100 67//100
f 9//101 94//101 95//101
f 9//102 91//102 94//102
f 9//103 95//103 93//103
f 7//104 96//104 3//104
f 7//105 97//106 96//107
f 7//105 67//108 97//106
f 97//109 98//109 99//109
f 95//110 94//110 92//110
f 95//111 92//111 93//111
f 68//112 3//112 100//112
f 68//113 101//113 4//113
f 68//114 100//114 101//114
f 4//115 101//115 102//115
f 103//116 102//116 101//116
f 103//117 101//117 104//117
f 104//118 101//118 105//118
f 106//119 24//36 38//35
f 107//120 77//121 14//122
f 107//120 14//122 108//123
f 109//124 24//125 110//126
f 110//126 24//125 111//127
f 111//128 24//129 112//130
f 30//27 29//26 113//27
f 114//131 115//131 24//131
f 114//132 24//133 116//134
f 117//135 116//134 24//133
f 117//135 24//133 109//136
f 69//137 118//137 29//137
f 53//138 32//138 39//138
f 53//45 56//45 32//45
f 70//139 27//139 21//139
f 70//140 29//140 27//140
f 70//46 21//46 61//46
f 24//141 115//141 45//141
f 108//142 14//142 45//142
f 53//143 39//143 25//143
f 106//144 112//130 24//129
f 99//145 67//145 97//145
f 94//146 91//146 92//146
f 105//147 101//147 119//147
f 85//148 87//148 84//148
f 85//149 89//149 87//149
f 89//150 88//150 87//150
f 88//151 83//151 87//151
f 86//98 84//152 92//99
f 81//153 120//153 80//153
f 121//154 3//155 122//156
f 121//157 100//157 3//157
f 123//158 124//159 3//160
f 123//158 3//160 125//161
f 126//162 125//162 92//162
f 126//163 92//163 127//163
f 124//164 122//156 3//155
f 127//165 92//165 128//165
f 129//166 130//166 131//166
f 129//167 132//167 130//167
f 133//168 134//168 135//168
f 136//169 137//169 138//169
f 136//170 139//171 137//172
f 140//173 141//173 142//173
f 140//174 142//175 143//176
f 144//177 137//177 145//177
f 144//178 146//179 147//180
f 148//181 149//181 150//181
f 148//182 150//183 151//184
f 152//185 145//185 137//185
f 153//186 138//186 137//186
f 154//187 142//187 155//187
f 154//188 143//176 142//175
f 156//189 151//184 150//183
f 132//190 128//190 87//190
f 132//191 87//191 130//191
f 128//192 92//192 87//192
f 131//166 130//166 157//166
f 157//166 130//166 158//166
f 158//166 130//166 159//166
f 159//193 142//193 160//193
f 159//194 130//194 161//194
f 159//195 161//195 142//195
f 160//193 142//193 162//193
f 162//193 142//193 163//193
f 163//193 142//193 164//193
f 164//193 142//193 165//193
f 165//193 142//193 166//193
f 166//193 142//193 167//193
f 167//193 142//193 168//193
f 168//193 142//193 169//193
f 170//196 150//196 171//196
f 170//196 172//196 150//196
f 171//196 150//196 173//196
f 174//197 137//197 175//197
f 174//197 173//197 137//197
f 175//197 137//197 176//197
f 176//197 137//197 177//197
f 173//198 150//198 153//198
f 173//199 153//199 137//199
f 62//200 63//200 87//200
f 62//201 87//201 64//201
f 137//172 139//171 152//202
f 92//203 125//203 67//203
f 134//204 147//204 178//204
f 134//205 178//205 135//205
f 134//206 179//206 147//206
f 150//207 149//207 153//207
f 180//208 120//208 181//208
f 180//209 181//209 182//209
f 180//210 130//210 87//210
f 180//211 87//211 120//211
f 142//212 141//212 169//212
f 130//213 183//214 184//215
f 130//213 184//215 185//216
f 130//217 180//217 183//217
f 120//218 63//218 78//218
f 120//219 87//219 63//219
f 87//89 65//88 64//220
f 186//221 181//221 120//221
f 120//222 78//222 80//222
f 92//223 84//223 87//223
f 92//224 67//224 93//224
f 125//225 3//225 96//225
f 125//226 96//227 97//228
f 125//226 97//228 67//229
f 100//230 187//230 101//230
f 188//231 101//231 187//231
f 188//232 119//232 101//232
f 189//233 155//234 142//235
f 190//236 130//237 185//238
f 190//236 191//239 130//237
f 192//240 193//241 142//242
f 193//241 194//243 142//242
f 194//244 195//244 142//244
f 146//245 196//245 147//245
f 197//246 142//246 198//246
f 197//247 199//248 142//249
f 200//250 142//249 199//248
f 200//250 192//251 142//249
f 178//252 147//252 201//252
f 169//253 156//253 150//253
f 169//196 150//196 172//196
f 179//254 137//254 144//254
f 179//255 144//178 147//180
f 179//197 177//197 137//197
f 142//256 161//256 198//256
f 191//257 161//257 130//257
f 169//258 141//258 156//258
f 189//233 142//235 195//259
