# Blender v2.79 (sub 0) OBJ File: ''
# www.blender.org
mtllib crack_restart_keyway_395.mtl
o crack_restart_keyway_395
v 0.073536 -0.113093 -0.472461
v 0.072984 -0.113328 -0.459453
v 0.084922 -0.121226 -0.472461
v 0.147218 -0.162043 -0.087639
v 0.114707 -0.144644 -0.086147
v 0.150813 -0.164550 -0.087221
v 0.143326 -0.159235 -0.088154
v 0.152232 -0.168999 -0.080771
v 0.154210 -0.167189 -0.086931
v 0.139530 -0.156358 -0.088662
v 0.120406 -0.147382 -0.103551
v 0.120406 -0.147382 -0.118922
v 0.102183 -0.136748 -0.100564
v 0.120866 -0.146923 -0.098614
v 0.120406 -0.147382 -0.472461
v 0.108327 -0.138250 -0.472461
v 0.120406 -0.147382 -0.457089
v 0.073540 -0.113091 -0.238326
v 0.073859 -0.112779 -0.225319
v 0.092676 -0.129458 -0.139412
v 0.073109 -0.113250 -0.251334
v 0.070761 -0.114896 -0.394416
v 0.070284 -0.115025 -0.381408
v 0.120406 -0.147382 -0.410975
v 0.070904 -0.114635 -0.407423
v 0.072663 -0.113713 -0.446446
v 0.071826 -0.114056 -0.433438
v 0.071395 -0.114545 -0.342386
v 0.090632 -0.132125 -0.376755
v 0.070663 -0.114787 -0.355393
v 0.071374 -0.114340 -0.329378
v 0.071405 -0.114539 -0.420431
v 0.070828 -0.114859 -0.368401
v 0.072949 -0.113510 -0.264341
v 0.072710 -0.113500 -0.277349
v 0.076508 -0.111114 -0.121259
v 0.082192 -0.118261 -0.125904
v 0.075543 -0.111670 -0.134267
v 0.077615 -0.110199 -0.108252
v 0.071613 -0.114424 -0.316371
v 0.120406 -0.147382 -0.303377
v 0.071823 -0.114058 -0.303364
v 0.146476 -0.173996 -0.061080
v 0.122461 -0.161141 -0.046591
v 0.145476 -0.174808 -0.057288
v 0.148171 -0.172564 -0.068132
v 0.149862 -0.171097 -0.075036
v 0.114602 -0.144525 -0.094828
v 0.122213 -0.145575 -0.094013
v 0.120406 -0.147382 -0.134293
v 0.106555 -0.141744 -0.120726
v 0.120406 -0.147382 -0.149664
v 0.120406 -0.147382 -0.165036
v 0.120406 -0.147382 -0.180407
v 0.120406 -0.147382 -0.195778
v 0.120406 -0.147382 -0.211149
v 0.120406 -0.147382 -0.226521
v 0.120406 -0.147382 -0.241892
v 0.120406 -0.147382 -0.257263
v 0.120406 -0.147382 -0.272634
v 0.120406 -0.147382 -0.288006
v 0.120406 -0.147382 -0.349490
v 0.120406 -0.147382 -0.364862
v 0.120406 -0.147382 -0.334119
v 0.120406 -0.147382 -0.380233
v 0.120406 -0.147382 -0.395604
v 0.135305 -0.153116 -0.089237
v 0.131068 -0.149873 -0.089874
v 0.126614 -0.147751 -0.091728
v 0.089596 -0.122451 -0.086913
v 0.096491 -0.136460 -0.061846
v 0.120406 -0.147382 -0.426347
v 0.097544 -0.132972 -0.106349
v 0.074261 -0.112680 -0.191330
v 0.074311 -0.112543 -0.186296
v 0.074538 -0.112494 -0.180690
v 0.074691 -0.112256 -0.173289
v 0.073943 -0.112726 -0.199304
v 0.074911 -0.112246 -0.166658
v 0.103475 -0.134677 -0.472461
v 0.096069 -0.129260 -0.472461
v 0.120406 -0.147382 -0.441718
v 0.093434 -0.129738 -0.112757
v 0.120406 -0.147382 -0.318748
v 0.072503 -0.113826 -0.290356
v 0.075346 -0.111955 -0.141542
v 0.075029 -0.112043 -0.147274
v 0.077956 -0.110059 -0.103046
v 0.078416 -0.109866 -0.094934
v 0.077578 -0.110156 -0.088742
v 0.080971 -0.116865 -0.077495
v 0.092075 -0.130970 -0.065729
v 0.083165 -0.119840 -0.074992
v 0.087601 -0.125398 -0.070224
v 0.076440 -0.110671 -0.082306
v 0.077578 -0.110156 -0.088742
v 0.144179 -0.175843 -0.052960
v 0.142856 -0.176788 -0.048635
v 0.141630 -0.177482 -0.041464
v 0.075060 -0.112146 -0.153596
v 0.074942 -0.112096 -0.160281
v 0.074162 -0.112745 -0.207481
v 0.074158 -0.112652 -0.212311
v 0.074127 -0.112769 -0.217069
v 0.089596 -0.122451 -0.086913
v 0.142856 -0.176788 -0.048635
v 0.073536 -0.113093 -0.472461
v 0.084922 -0.121226 -0.472461
v 0.072984 -0.113328 -0.459453
v 0.147218 -0.162043 -0.087639
v 0.150813 -0.164550 -0.087221
v 0.114707 -0.144644 -0.086147
v 0.143326 -0.159235 -0.088154
v 0.154210 -0.167189 -0.086931
v 0.152232 -0.168999 -0.080771
v 0.139530 -0.156358 -0.088662
v 0.120406 -0.147382 -0.103551
v 0.102183 -0.136748 -0.100564
v 0.120406 -0.147382 -0.118922
v 0.120866 -0.146923 -0.098614
v 0.120406 -0.147382 -0.472461
v 0.120406 -0.147382 -0.457089
v 0.108327 -0.138250 -0.472461
v 0.073540 -0.113091 -0.238326
v 0.092676 -0.129458 -0.139412
v 0.073859 -0.112779 -0.225319
v 0.073109 -0.113250 -0.251334
v 0.070761 -0.114896 -0.394416
v 0.091207 -0.129527 -0.420536
v 0.070284 -0.115025 -0.381408
v 0.070904 -0.114635 -0.407423
v 0.072663 -0.113713 -0.446446
v 0.071826 -0.114056 -0.433438
v 0.071395 -0.114545 -0.342386
v 0.070663 -0.114787 -0.355393
v 0.090632 -0.132125 -0.376755
v 0.071374 -0.114340 -0.329378
v 0.071405 -0.114539 -0.420431
v 0.070828 -0.114859 -0.368401
v 0.072949 -0.113510 -0.264341
v 0.072710 -0.113500 -0.277349
v 0.076508 -0.111114 -0.121259
v 0.075543 -0.111670 -0.134267
v 0.082192 -0.118261 -0.125904
v 0.077615 -0.110199 -0.108252
v 0.071613 -0.114424 -0.316371
v 0.120406 -0.147382 -0.303377
v 0.071823 -0.114058 -0.303364
v 0.146476 -0.173996 -0.061080
v 0.145476 -0.174808 -0.057288
v 0.148171 -0.172564 -0.068132
v 0.149862 -0.171097 -0.075036
v 0.122213 -0.145575 -0.094013
v 0.114602 -0.144525 -0.094828
v 0.106555 -0.141744 -0.120726
v 0.120406 -0.147382 -0.134293
v 0.120406 -0.147382 -0.149664
v 0.120406 -0.147382 -0.165036
v 0.120406 -0.147382 -0.180407
v 0.120406 -0.147382 -0.195778
v 0.120406 -0.147382 -0.211149
v 0.120406 -0.147382 -0.226521
v 0.120406 -0.147382 -0.241892
v 0.120406 -0.147382 -0.257263
v 0.120406 -0.147382 -0.272634
v 0.120406 -0.147382 -0.288006
v 0.120406 -0.147382 -0.349490
v 0.104507 -0.139379 -0.370901
v 0.120406 -0.147382 -0.364862
v 0.120406 -0.147382 -0.334119
v 0.120406 -0.147382 -0.380233
v 0.120406 -0.147382 -0.395604
v 0.120406 -0.147382 -0.410975
v 0.120406 -0.147382 -0.426347
v 0.135305 -0.153116 -0.089237
v 0.126614 -0.147751 -0.091728
v 0.131068 -0.149873 -0.089874
v 0.097544 -0.132972 -0.106349
v 0.074311 -0.112543 -0.186296
v 0.074261 -0.112680 -0.191330
v 0.074691 -0.112256 -0.173289
v 0.074538 -0.112494 -0.180690
v 0.073943 -0.112726 -0.199304
v 0.074911 -0.112246 -0.166658
v 0.096069 -0.129260 -0.472461
v 0.103475 -0.134677 -0.472461
v 0.120406 -0.147382 -0.441718
v 0.093434 -0.129738 -0.112757
v 0.120406 -0.147382 -0.318748
v 0.072503 -0.113826 -0.290356
v 0.075346 -0.111955 -0.141542
v 0.075029 -0.112043 -0.147274
v 0.078416 -0.109866 -0.094934
v 0.077956 -0.110059 -0.103046
v 0.144179 -0.175843 -0.052960
v 0.075060 -0.112146 -0.153596
v 0.074942 -0.112096 -0.160281
v 0.074162 -0.112745 -0.207481
v 0.074158 -0.112652 -0.212311
v 0.074127 -0.112769 -0.217069
vn -0.5808 -0.8131 -0.0393
vn -0.5804 -0.8134 -0.0385
vn -0.5800 -0.8137 -0.0390
vn -0.3800 -0.6540 -0.6541
vn -0.3739 -0.6411 -0.6702
vn -0.5431 -0.7423 -0.3925
vn -0.4434 -0.7805 -0.4408
vn -0.3535 -0.5941 -0.7226
vn -0.3532 -0.5934 -0.7233
vn -0.3582 -0.5957 -0.7189
vn -0.5040 -0.8637 0.0000
vn -0.4846 -0.8657 0.1256
vn -0.6031 -0.7977 0.0000
vn -0.7398 -0.6720 0.0338
vn -0.7424 -0.6692 0.0326
vn -0.7459 -0.6651 0.0342
vn -0.7421 -0.6695 0.0328
vn -0.5541 -0.8321 -0.0233
vn -0.5532 -0.8327 -0.0262
vn -0.5540 -0.8320 -0.0286
vn -0.5528 -0.8329 -0.0250
vn -0.5801 -0.8136 -0.0384
vn -0.6113 -0.7891 -0.0601
vn -0.6240 -0.7798 0.0496
vn -0.6641 -0.7476 0.0107
vn -0.5529 -0.8328 -0.0274
vn -0.5496 -0.8340 -0.0488
vn -0.6582 -0.7529 -0.0042
vn -0.6478 -0.7609 0.0368
vn -0.7118 -0.7020 0.0228
vn -0.6727 -0.7398 0.0118
vn -0.7527 -0.6530 0.0838
vn -0.7420 -0.6614 0.1097
vn -0.5606 -0.8280 0.0050
vn -0.5577 -0.8300 0.0032
vn -0.5618 -0.8273 0.0013
vn -0.5653 -0.8242 0.0323
vn -0.5652 -0.8240 0.0383
vn -0.5652 -0.8241 0.0382
vn -0.5885 -0.7447 -0.3147
vn -0.5829 -0.7576 -0.2939
vn -0.4351 -0.7725 -0.4624
vn -0.5125 -0.8058 -0.2967
vn -0.1631 -0.9329 0.3211
vn -0.4527 -0.8693 -0.1984
vn -0.3770 -0.9262 0.0000
vn -0.3890 -0.9104 0.1412
vn -0.5428 -0.8398 0.0000
vn -0.5401 -0.8416 0.0004
vn -0.5452 -0.8383 0.0036
vn -0.4560 -0.8900 0.0000
vn -0.3508 -0.5866 -0.7300
vn -0.3425 -0.9131 -0.2213
vn -0.3385 -0.9145 -0.2218
vn -0.3424 -0.9129 -0.2223
vn -0.9693 -0.1829 0.1644
vn -0.3402 -0.9151 -0.2163
vn -0.3556 -0.6046 -0.7128
vn -0.1354 -0.9907 -0.0119
vn -0.5657 -0.8246 -0.0000
vn -0.4786 -0.8757 -0.0638
vn -0.7333 0.1235 0.6686
vn -0.7329 0.1244 0.6689
vn -0.6164 -0.7828 -0.0848
vn -0.7126 -0.7011 0.0262
vn -0.7246 -0.6882 0.0356
vn -0.7263 -0.6864 0.0371
vn -0.7236 -0.6893 0.0366
vn -0.7221 -0.6911 0.0328
vn -0.7244 -0.6885 0.0353
vn -0.7148 -0.6989 0.0244
vn -0.7163 -0.6975 0.0210
vn -0.7150 -0.6987 0.0248
vn -0.5485 -0.8045 -0.2280
vn -0.5916 -0.8061 -0.0146
vn -0.5903 -0.8070 -0.0169
vn -0.5922 -0.8055 -0.0186
vn -0.5929 -0.8052 -0.0124
vn -0.5972 -0.8021 0.0000
vn -0.5840 -0.8104 -0.0471
vn -0.5693 -0.8215 -0.0336
vn -0.7219 -0.6919 0.0133
vn -0.5411 -0.8409 0.0066
vn -0.5685 -0.8191 0.0764
vn -0.6108 -0.7662 -0.1998
vn -0.5290 -0.8486 -0.0052
vn -0.6602 -0.7499 0.0426
vn -0.7282 -0.6483 -0.2222
vn -0.6074 -0.7728 -0.1839
vn -0.7797 -0.6208 0.0814
vn -0.6769 -0.7333 0.0640
vn -0.6768 -0.7333 0.0641
vn -0.6763 -0.7339 0.0634
vn -0.8281 -0.4805 0.2886
vn -0.5751 -0.8180 -0.0078
vn -0.7373 -0.6749 0.0287
vn -0.7121 -0.7015 0.0288
vn -0.7321 -0.6796 0.0464
vn -0.7128 -0.6996 0.0502
vn -0.7681 -0.6368 0.0669
vn -0.7646 -0.6419 0.0586
vn -0.7716 -0.6332 0.0605
vn -0.7757 -0.6167 -0.1339
vn -0.6900 -0.6959 -0.1991
vn -0.6747 -0.7087 -0.2064
vn -0.6736 -0.7106 -0.2029
vn -0.6710 -0.7123 -0.2060
vn -0.7215 -0.6684 -0.1810
vn 0.7215 0.6684 0.1810
vn -0.6710 -0.7168 -0.1894
vn -0.6753 -0.7082 -0.2058
vn -0.5933 -0.7244 -0.3510
vn -0.5964 -0.7261 -0.3421
vn -0.5934 -0.7244 -0.3507
vn -0.5935 -0.7291 -0.3409
vn -0.6101 -0.7718 -0.1790
vn -0.7042 -0.7099 0.0081
vn -0.7038 -0.7104 0.0080
vn -0.7040 -0.7101 0.0077
vn -0.7038 -0.7103 0.0071
vn -0.6384 -0.7696 -0.0153
vn -0.6418 -0.7667 -0.0152
vn -0.6403 -0.7680 -0.0142
vn -0.6410 -0.7674 -0.0142
vn -0.7176 -0.6961 0.0218
vn -0.7260 -0.6873 0.0225
vn -0.7179 -0.6958 0.0217
vn -0.7696 -0.6350 0.0675
vn -0.5651 -0.8238 0.0442
vn -0.5588 -0.8293 0.0000
vn -0.7113 -0.7026 0.0200
vn -0.7230 -0.6904 0.0243
vn -0.6878 -0.6919 -0.2195
vn 0.6878 0.6919 0.2195
vn 0.6710 0.7123 0.2060
vn 0.6736 0.7106 0.2029
vn 0.6747 0.7087 0.2064
vn 0.6101 0.7718 0.1790
vn 0.5808 0.8131 0.0393
vn 0.5800 0.8137 0.0390
vn 0.5804 0.8134 0.0385
vn 0.3800 0.6540 0.6541
vn 0.3739 0.6411 0.6702
vn 0.5431 0.7423 0.3925
vn 0.4434 0.7805 0.4408
vn 0.3535 0.5941 0.7226
vn 0.3582 0.5957 0.7189
vn 0.3532 0.5934 0.7233
vn 0.5040 0.8637 0.0000
vn 0.4846 0.8657 -0.1256
vn 0.6031 0.7977 0.0000
vn 0.7398 0.6720 -0.0338
vn 0.7459 0.6651 -0.0342
vn 0.7424 0.6692 -0.0326
vn 0.7421 0.6695 -0.0328
vn 0.6090 0.7928 0.0242
vn 0.6068 0.7942 0.0301
vn 0.6017 0.7981 0.0314
vn 0.6001 0.7994 0.0282
vn 0.5801 0.8136 0.0384
vn 0.6113 0.7891 0.0601
vn 0.6240 0.7798 -0.0496
vn 0.6641 0.7476 -0.0107
vn 0.6034 0.7969 0.0291
vn 0.6030 0.7963 0.0491
vn 0.6582 0.7529 0.0042
vn 0.6478 0.7609 -0.0368
vn 0.7118 0.7020 -0.0228
vn 0.6727 0.7398 -0.0118
vn 0.7527 0.6530 -0.0838
vn 0.7420 0.6614 -0.1097
vn 0.5606 0.8280 -0.0050
vn 0.5653 0.8242 -0.0323
vn 0.5652 0.8241 -0.0382
vn 0.5652 0.8240 -0.0383
vn 0.5885 0.7447 0.3147
vn 0.5829 0.7576 0.2939
vn 0.4351 0.7725 0.4624
vn 0.5125 0.8058 0.2967
vn 0.1631 0.9329 -0.3211
vn 0.4527 0.8693 0.1984
vn 0.3770 0.9262 0.0000
vn 0.3890 0.9104 -0.1412
vn 0.5428 0.8398 0.0000
vn 0.4496 0.8932 0.0000
vn 0.5217 0.8531 0.0000
vn 0.4969 0.8669 0.0389
vn 0.3508 0.5866 0.7300
vn 0.3425 0.9131 0.2213
vn 0.3424 0.9129 0.2223
vn 0.3384 0.9145 0.2218
vn 0.9693 0.1829 -0.1644
vn 0.3402 0.9151 0.2163
vn 0.3556 0.6046 0.7128
vn 0.1354 0.9907 0.0119
vn 0.5389 0.8234 0.1778
vn 0.4786 0.8757 0.0638
vn 0.7333 -0.1235 -0.6686
vn 0.7329 -0.1244 -0.6689
vn 0.6164 0.7828 0.0848
vn 0.7126 0.7011 -0.0262
vn 0.7246 0.6882 -0.0356
vn 0.7236 0.6893 -0.0366
vn 0.7263 0.6864 -0.0371
vn 0.7221 0.6911 -0.0328
vn 0.7244 0.6885 -0.0353
vn 0.7148 0.6989 -0.0244
vn 0.7150 0.6987 -0.0248
vn 0.7163 0.6975 -0.0210
vn 0.5485 0.8045 0.2280
vn 0.5916 0.8061 0.0146
vn 0.5922 0.8055 0.0186
vn 0.5903 0.8070 0.0169
vn 0.5929 0.8052 0.0124
vn 0.5972 0.8021 0.0000
vn 0.5840 0.8104 0.0471
vn 0.5693 0.8215 0.0336
vn 0.7219 0.6919 -0.0133
vn 0.5411 0.8409 -0.0066
vn 0.4560 0.8900 0.0000
vn 0.4663 0.8846 -0.0091
vn 0.5685 0.8191 -0.0764
vn 0.6108 0.7662 0.1998
vn 0.5290 0.8486 0.0052
vn 0.6602 0.7499 -0.0426
vn 0.7282 0.6483 0.2222
vn 0.6351 0.7705 0.0541
vn 0.7797 0.6208 -0.0814
vn 0.6769 0.7333 -0.0640
vn 0.6763 0.7339 -0.0634
vn 0.6768 0.7333 -0.0641
vn 0.8281 0.4805 -0.2886
vn 0.5751 0.8180 0.0078
vn 0.7373 0.6749 -0.0287
vn 0.7121 0.7015 -0.0288
vn 0.7321 0.6796 -0.0464
vn 0.7128 0.6996 -0.0502
vn 0.4429 0.8946 0.0589
vn 0.7681 0.6368 -0.0669
vn 0.7716 0.6332 -0.0605
vn 0.7646 0.6419 -0.0586
vn 0.7757 0.6167 0.1339
vn 0.6900 0.6959 0.1991
vn 0.6710 0.7168 0.1894
vn 0.6753 0.7082 0.2058
vn 0.5933 0.7244 0.3510
vn 0.5934 0.7244 0.3507
vn 0.5964 0.7261 0.3422
vn 0.5935 0.7291 0.3409
vn 0.7042 0.7099 -0.0081
vn 0.7040 0.7101 -0.0077
vn 0.7038 0.7104 -0.0080
vn 0.7038 0.7103 -0.0071
vn 0.6384 0.7696 0.0153
vn 0.6403 0.7680 0.0142
vn 0.6418 0.7667 0.0152
vn 0.6410 0.7674 0.0142
vn 0.7176 0.6961 -0.0218
vn 0.7179 0.6958 -0.0217
vn 0.7260 0.6873 -0.0225
vn 0.7696 0.6350 -0.0675
vn 0.5651 0.8238 -0.0442
vn 0.5588 0.8293 0.0000
vn 0.5657 0.8246 0.0000
vn 0.7113 0.7026 -0.0200
vn 0.7230 0.6904 -0.0243
usemtl None.066
s 1
f 1//1 3//2 2//3
f 4//4 6//4 5//4
f 4//5 5//5 7//5
f 6//6 9//6 8//6
f 6//7 8//7 5//7
f 7//8 5//9 10//10
f 11//11 13//11 12//11
f 11//12 14//12 13//12
f 15//13 17//13 16//13
f 18//14 20//15 19//16
f 18//14 21//17 20//15
f 22//18 24//19 23//20
f 22//18 25//21 24//19
f 26//22 2//3 3//2
f 26//23 3//23 27//23
f 28//24 30//24 29//24
f 28//25 29//25 31//25
f 32//26 24//19 25//21
f 32//27 27//27 24//27
f 33//28 29//28 30//28
f 33//29 23//29 29//29
f 34//30 20//30 21//30
f 34//31 35//31 20//31
f 36//32 38//32 37//32
f 36//33 37//33 39//33
f 40//34 31//35 41//36
f 40//37 41//38 42//39
f 43//40 45//40 44//40
f 43//41 44//41 46//41
f 8//42 47//42 5//42
f 47//43 46//43 5//43
f 14//44 49//44 48//44
f 14//45 48//45 13//45
f 12//46 51//46 50//46
f 12//47 13//47 51//47
f 50//46 51//46 52//46
f 53//48 20//49 54//48
f 53//48 52//50 20//49
f 54//48 20//49 55//48
f 55//48 20//49 56//48
f 56//48 20//49 57//48
f 57//48 20//49 58//48
f 58//48 20//49 59//48
f 59//48 20//49 60//48
f 60//48 20//49 61//48
f 61//48 20//49 41//48
f 62//51 29//51 63//51
f 62//51 64//51 29//51
f 63//51 29//51 65//51
f 65//51 29//51 66//51
f 66//51 29//51 24//51
f 10//10 5//9 67//52
f 5//53 69//54 68//55
f 70//56 37//56 71//56
f 69//54 5//53 49//57
f 5//58 68//58 67//58
f 5//59 48//59 49//59
f 24//60 27//60 72//60
f 13//61 5//61 71//61
f 13//62 37//62 73//63
f 13//64 71//64 37//64
f 20//65 75//65 74//65
f 20//66 77//67 76//68
f 20//69 74//69 78//69
f 20//66 76//68 75//70
f 20//71 79//72 77//73
f 46//74 44//74 5//74
f 17//75 81//76 80//77
f 17//75 80//77 16//78
f 17//79 82//79 81//79
f 81//80 27//80 3//80
f 81//81 82//81 27//81
f 20//82 83//82 37//82
f 20//49 52//50 83//83
f 29//51 64//51 84//51
f 29//84 84//84 31//84
f 5//85 44//85 71//85
f 48//86 5//86 13//86
f 83//87 51//87 13//87
f 83//88 52//88 51//88
f 24//89 29//89 23//89
f 37//90 70//90 39//90
f 83//91 13//92 73//93
f 83//94 73//94 37//94
f 85//95 41//95 20//95
f 85//96 20//96 35//96
f 86//97 20//97 37//97
f 86//98 37//98 38//98
f 86//99 87//99 20//99
f 70//100 89//101 88//102
f 89//103 91//103 90//103
f 70//104 71//104 92//104
f 70//105 94//106 93//107
f 95//108 90//108 91//108
f 95//109 91//109 96//109
f 70//110 91//110 89//110
f 94//106 70//105 92//111
f 45//112 97//113 44//114
f 98//115 44//114 97//113
f 98//116 99//116 44//116
f 87//117 100//118 20//119
f 100//118 101//120 20//119
f 78//121 102//122 20//123
f 102//122 103//124 20//123
f 103//125 104//126 20//127
f 39//128 70//100 88//102
f 41//38 85//129 42//39
f 41//36 31//35 84//130
f 82//60 72//60 27//60
f 101//131 79//72 20//71
f 20//127 104//126 19//132
f 91//133 70//133 93//133
f 91//134 93//134 105//134
f 93//135 94//136 105//137
f 99//138 106//138 44//138
f 107//139 109//140 108//141
f 110//142 112//142 111//142
f 110//143 113//143 112//143
f 111//144 115//144 114//144
f 111//145 112//145 115//145
f 113//146 116//147 112//148
f 117//149 119//149 118//149
f 117//150 118//150 120//150
f 121//151 123//151 122//151
f 124//152 126//153 125//154
f 124//152 125//154 127//155
f 128//156 130//157 129//158
f 128//156 129//158 131//159
f 132//160 108//141 109//140
f 132//161 133//161 108//161
f 134//162 136//162 135//162
f 134//163 137//163 136//163
f 138//164 131//159 129//158
f 138//165 129//165 133//165
f 139//166 135//166 136//166
f 139//167 136//167 130//167
f 140//168 127//168 125//168
f 140//169 125//169 141//169
f 142//170 144//170 143//170
f 142//171 145//171 144//171
f 146//172 147//172 137//172
f 146//173 148//174 147//175
f 149//176 44//176 150//176
f 149//177 151//177 44//177
f 115//178 112//178 152//178
f 152//179 112//179 151//179
f 120//180 154//180 153//180
f 120//181 118//181 154//181
f 119//182 156//182 155//182
f 119//183 155//183 118//183
f 156//182 157//182 155//182
f 158//184 159//184 125//184
f 158//184 125//184 157//184
f 159//184 160//184 125//184
f 160//184 161//184 125//184
f 161//184 162//184 125//184
f 162//184 163//184 125//184
f 163//184 164//184 125//184
f 164//184 165//184 125//184
f 165//184 166//184 125//184
f 166//184 147//184 125//184
f 167//185 169//185 168//185
f 167//185 168//185 170//185
f 169//185 171//185 168//185
f 171//185 172//185 168//185
f 172//186 173//186 129//186
f 172//187 129//187 168//187
f 173//186 174//186 129//186
f 116//147 175//188 112//148
f 112//189 177//190 176//191
f 105//192 71//192 144//192
f 176//191 153//193 112//189
f 112//194 175//194 177//194
f 112//195 153//195 154//195
f 129//196 174//196 133//196
f 118//197 71//197 112//197
f 118//198 178//199 144//198
f 118//200 144//200 71//200
f 125//201 180//201 179//201
f 125//202 182//203 181//204
f 125//205 183//205 180//205
f 125//202 179//206 182//203
f 125//207 181//208 184//209
f 151//210 112//210 44//210
f 122//211 186//212 185//213
f 122//211 123//214 186//212
f 122//215 185//215 187//215
f 185//216 108//216 133//216
f 185//217 133//217 187//217
f 125//218 144//218 188//218
f 125//219 188//219 157//219
f 136//220 189//220 170//220
f 136//221 170//221 168//221
f 136//222 137//222 189//222
f 112//223 71//223 44//223
f 154//224 118//224 112//224
f 188//225 118//225 155//225
f 188//226 155//226 157//226
f 129//227 130//227 136//227
f 144//228 145//228 105//228
f 188//229 178//230 118//231
f 188//232 144//232 178//232
f 190//233 125//233 147//233
f 190//234 141//234 125//234
f 191//235 144//235 125//235
f 191//236 143//236 144//236
f 191//237 125//237 192//237
f 168//238 129//238 136//238
f 105//239 194//240 193//241
f 193//242 96//242 91//242
f 105//243 92//243 71//243
f 105//244 193//244 91//244
f 94//136 92//245 105//137
f 150//246 44//247 195//248
f 106//249 195//248 44//247
f 192//250 125//251 196//252
f 196//252 125//251 197//253
f 183//254 125//255 198//256
f 198//256 125//255 199//257
f 199//258 125//259 200//260
f 145//261 194//240 105//239
f 147//175 148//174 190//262
f 147//263 189//263 137//263
f 187//264 133//264 174//264
f 197//265 125//207 184//209
f 125//259 126//266 200//260
