# Blender v2.79 (sub 0) OBJ File: ''
# www.blender.org
mtllib crack_restart_keyway_650.mtl
o crack_restart_keyway_650
v 0.073381 -0.113204 -0.472461
v 0.072954 -0.113347 -0.459453
v 0.084688 -0.121373 -0.472461
v 0.147228 -0.162038 -0.087631
v 0.143382 -0.159202 -0.088100
v 0.125973 -0.154534 -0.075243
v 0.131068 -0.149873 -0.089874
v 0.127492 -0.150680 -0.086876
v 0.135355 -0.153085 -0.089195
v 0.126540 -0.147825 -0.091832
v 0.150735 -0.164621 -0.087290
v 0.152179 -0.169047 -0.080800
v 0.154210 -0.167189 -0.086931
v 0.139584 -0.156324 -0.088620
v 0.120406 -0.147382 -0.426347
v 0.095826 -0.129454 -0.472461
v 0.120406 -0.147382 -0.103551
v 0.114631 -0.144474 -0.094849
v 0.120866 -0.146923 -0.098614
v 0.120406 -0.147382 -0.118922
v 0.120406 -0.147382 -0.472461
v 0.108126 -0.138411 -0.472461
v 0.120406 -0.147382 -0.457089
v 0.073542 -0.113089 -0.238326
v 0.120406 -0.147382 -0.226521
v 0.073177 -0.113207 -0.251334
v 0.073856 -0.112780 -0.225319
v 0.070717 -0.114920 -0.394416
v 0.070003 -0.115201 -0.381408
v 0.120406 -0.147382 -0.395604
v 0.070957 -0.114602 -0.407423
v 0.072220 -0.114027 -0.290356
v 0.072633 -0.113549 -0.277349
v 0.104169 -0.140680 -0.280926
v 0.071480 -0.114273 -0.303364
v 0.072627 -0.113738 -0.446446
v 0.071893 -0.114014 -0.433438
v 0.071824 -0.114308 -0.342386
v 0.071547 -0.114231 -0.329378
v 0.071652 -0.114403 -0.316371
v 0.071529 -0.114471 -0.420431
v 0.070563 -0.115005 -0.368401
v 0.070485 -0.114898 -0.355393
v 0.090632 -0.132125 -0.376755
v 0.073091 -0.113409 -0.264341
v 0.076342 -0.111218 -0.121259
v 0.075691 -0.111565 -0.134267
v 0.076737 -0.110822 -0.108252
v 0.120406 -0.147382 -0.288006
v 0.074052 -0.112727 -0.212311
v 0.074020 -0.112677 -0.199304
v 0.146803 -0.173707 -0.061415
v 0.148172 -0.172563 -0.068132
v 0.150277 -0.170734 -0.074807
v 0.122213 -0.145575 -0.094013
v 0.115966 -0.144849 -0.090503
v 0.120406 -0.147382 -0.134293
v 0.120406 -0.147382 -0.149664
v 0.120406 -0.147382 -0.165036
v 0.120406 -0.147382 -0.180407
v 0.120406 -0.147382 -0.195778
v 0.120406 -0.147382 -0.241892
v 0.120406 -0.147382 -0.257263
v 0.120406 -0.147382 -0.272634
v 0.120406 -0.147382 -0.318748
v 0.120406 -0.147382 -0.303377
v 0.120406 -0.147382 -0.334119
v 0.120406 -0.147382 -0.349490
v 0.120406 -0.147382 -0.364862
v 0.120406 -0.147382 -0.380233
v 0.120406 -0.147382 -0.441718
v 0.144538 -0.174922 -0.039560
v 0.145831 -0.174391 -0.050924
v 0.074571 -0.112120 -0.081618
v 0.109320 -0.141392 -0.089212
v 0.075862 -0.111432 -0.096478
v 0.120406 -0.147382 -0.410975
v 0.074686 -0.112395 -0.166194
v 0.074766 -0.112220 -0.160281
v 0.074473 -0.112392 -0.173289
v 0.075209 -0.111930 -0.147274
v 0.120406 -0.147382 -0.211149
v 0.074050 -0.112729 -0.186296
v 0.103573 -0.135093 -0.472461
v 0.071499 -0.113172 0.127718
v 0.072239 -0.110737 0.159329
v 0.075009 -0.110415 0.182430
v 0.130666 -0.184972 0.188104
v 0.116313 -0.158416 0.240614
v 0.131921 -0.183932 0.212264
v 0.130278 -0.185148 0.175844
v 0.130595 -0.184973 0.143426
v 0.086080 -0.118590 0.220045
v 0.132535 -0.183619 0.219384
v 0.134068 -0.182818 0.236056
v 0.125969 -0.170656 0.244301
v 0.077208 -0.109923 0.197884
v 0.078929 -0.108302 0.215503
v 0.069957 -0.112388 -0.001446
v 0.072064 -0.113154 -0.026847
v 0.071351 -0.113603 0.025500
v 0.070465 -0.113202 0.065258
v 0.071452 -0.111368 -0.054992
v 0.069917 -0.112413 0.106110
v 0.143075 -0.175500 -0.027765
v 0.131412 -0.184204 0.113436
v 0.133114 -0.183326 0.084547
v 0.134332 -0.182166 0.065107
v 0.136972 -0.180606 0.035367
v 0.138562 -0.179215 0.017754
v 0.141276 -0.177051 -0.009787
v 0.134643 -0.182554 0.244895
v 0.134068 -0.182818 0.236056
v 0.077208 -0.109923 0.197884
v 0.073381 -0.113204 -0.472461
v 0.084688 -0.121373 -0.472461
v 0.072954 -0.113347 -0.459453
v 0.147228 -0.162038 -0.087631
v 0.125973 -0.154534 -0.075243
v 0.143382 -0.159202 -0.088100
v 0.131068 -0.149873 -0.089874
v 0.135355 -0.153085 -0.089195
v 0.127492 -0.150680 -0.086876
v 0.126540 -0.147825 -0.091832
v 0.150735 -0.164621 -0.087290
v 0.154210 -0.167189 -0.086931
v 0.152179 -0.169047 -0.080800
v 0.139584 -0.156324 -0.088620
v 0.120406 -0.147382 -0.426347
v 0.095826 -0.129454 -0.472461
v 0.120406 -0.147382 -0.103551
v 0.120866 -0.146923 -0.098614
v 0.114631 -0.144474 -0.094849
v 0.120406 -0.147382 -0.118922
v 0.120406 -0.147382 -0.472461
v 0.120406 -0.147382 -0.457089
v 0.108126 -0.138411 -0.472461
v 0.073542 -0.113089 -0.238326
v 0.073177 -0.113207 -0.251334
v 0.120406 -0.147382 -0.226521
v 0.073856 -0.112780 -0.225319
v 0.070717 -0.114920 -0.394416
v 0.120406 -0.147382 -0.395604
v 0.070003 -0.115201 -0.381408
v 0.070957 -0.114602 -0.407423
v 0.072220 -0.114027 -0.290356
v 0.104169 -0.140680 -0.280926
v 0.072633 -0.113549 -0.277349
v 0.071480 -0.114273 -0.303364
v 0.072627 -0.113738 -0.446446
v 0.071893 -0.114014 -0.433438
v 0.071824 -0.114308 -0.342386
v 0.071652 -0.114403 -0.316371
v 0.071547 -0.114231 -0.329378
v 0.071529 -0.114471 -0.420431
v 0.070563 -0.115005 -0.368401
v 0.090632 -0.132125 -0.376755
v 0.070485 -0.114898 -0.355393
v 0.073091 -0.113409 -0.264341
v 0.076342 -0.111218 -0.121259
v 0.075691 -0.111565 -0.134267
v 0.076737 -0.110822 -0.108252
v 0.120406 -0.147382 -0.288006
v 0.074052 -0.112727 -0.212311
v 0.074020 -0.112677 -0.199304
v 0.146803 -0.173707 -0.061415
v 0.148172 -0.172563 -0.068132
v 0.150277 -0.170734 -0.074807
v 0.122213 -0.145575 -0.094013
v 0.115966 -0.144849 -0.090503
v 0.120406 -0.147382 -0.134293
v 0.120406 -0.147382 -0.149664
v 0.120406 -0.147382 -0.165036
v 0.120406 -0.147382 -0.180407
v 0.120406 -0.147382 -0.195778
v 0.120406 -0.147382 -0.241892
v 0.120406 -0.147382 -0.257263
v 0.120406 -0.147382 -0.272634
v 0.120406 -0.147382 -0.318748
v 0.120406 -0.147382 -0.303377
v 0.120406 -0.147382 -0.334119
v 0.120406 -0.147382 -0.349490
v 0.120406 -0.147382 -0.364862
v 0.120406 -0.147382 -0.380233
v 0.120406 -0.147382 -0.441718
v 0.144538 -0.174922 -0.039560
v 0.145831 -0.174391 -0.050924
v 0.109320 -0.141392 -0.089212
v 0.074571 -0.112120 -0.081618
v 0.075862 -0.111432 -0.096478
v 0.120406 -0.147382 -0.410975
v 0.074766 -0.112220 -0.160281
v 0.074686 -0.112395 -0.166194
v 0.074473 -0.112392 -0.173289
v 0.075209 -0.111930 -0.147274
v 0.120406 -0.147382 -0.211149
v 0.074050 -0.112729 -0.186296
v 0.103573 -0.135093 -0.472461
v 0.071499 -0.113172 0.127718
v 0.075009 -0.110415 0.182430
v 0.072239 -0.110737 0.159329
v 0.130666 -0.184972 0.188104
v 0.131921 -0.183932 0.212264
v 0.130278 -0.185148 0.175844
v 0.130595 -0.184973 0.143426
v 0.132535 -0.183619 0.219384
v 0.069957 -0.112388 -0.001446
v 0.072064 -0.113154 -0.026847
v 0.071351 -0.113603 0.025500
v 0.070465 -0.113202 0.065258
v 0.071452 -0.111368 -0.054992
v 0.069917 -0.112413 0.106110
v 0.143075 -0.175500 -0.027765
v 0.131412 -0.184204 0.113436
v 0.133114 -0.183326 0.084547
v 0.134332 -0.182166 0.065107
v 0.136972 -0.180606 0.035367
v 0.138562 -0.179215 0.017754
v 0.141276 -0.177051 -0.009787
vn -0.5854 -0.8103 -0.0281
vn -0.5075 -0.7565 -0.4125
vn -0.5078 -0.7560 -0.4131
vn -0.5128 -0.7536 -0.4112
vn -0.3910 -0.6580 -0.6436
vn -0.1919 -0.8659 -0.4620
vn -0.5177 -0.7561 -0.4004
vn -0.5174 -0.7562 -0.4006
vn -0.5176 -0.7561 -0.4005
vn -0.5179 -0.7560 -0.4003
vn -0.5110 -0.7502 -0.4196
vn -0.5758 -0.8174 -0.0151
vn -0.5873 -0.8094 -0.0017
vn -0.5882 -0.8087 -0.0018
vn -0.5879 -0.8089 -0.0011
vn -0.3016 -0.9463 0.1161
vn -0.4497 -0.8932 0.0000
vn -0.4498 -0.8932 0.0000
vn -0.5899 -0.8075 0.0000
vn -0.5898 -0.8075 -0.0004
vn -0.5938 -0.8039 0.0328
vn -0.5943 -0.8039 0.0240
vn -0.5941 -0.8040 0.0243
vn -0.5957 -0.8025 0.0334
vn -0.5471 -0.8357 -0.0481
vn -0.5472 -0.8365 -0.0305
vn -0.5470 -0.8365 -0.0316
vn -0.5470 -0.8365 -0.0315
vn -0.6490 -0.7592 0.0488
vn -0.6489 -0.7592 0.0509
vn -0.6482 -0.7599 0.0485
vn -0.6486 -0.7594 0.0513
vn -0.5643 -0.8241 -0.0483
vn -0.5626 -0.8258 -0.0401
vn -0.5614 -0.8263 -0.0448
vn -0.5643 -0.8247 -0.0390
vn -0.5460 -0.8377 -0.0067
vn -0.5617 -0.8261 -0.0447
vn -0.6484 -0.7613 0.0024
vn -0.6390 -0.7682 0.0391
vn -0.6546 -0.7558 0.0161
vn -0.6498 -0.7594 0.0311
vn -0.6766 -0.7350 0.0444
vn -0.6699 -0.7406 0.0520
vn -0.6713 -0.7402 0.0390
vn -0.6718 -0.7394 0.0429
vn -0.5602 -0.8284 0.0001
vn -0.5608 -0.8279 0.0002
vn -0.5606 -0.8281 0.0009
vn -0.5985 -0.8010 0.0115
vn -0.5963 -0.8027 0.0123
vn -0.5997 -0.8002 -0.0013
vn -0.5999 -0.8001 0.0012
vn -0.7985 -0.5451 -0.2556
vn -0.4904 -0.7932 -0.3610
vn -0.5463 -0.7478 -0.3772
vn -0.5450 -0.7489 -0.3770
vn -0.5479 -0.7443 -0.3820
vn -0.5372 -0.7519 -0.3822
vn -0.1708 -0.9310 0.3227
vn -0.2941 -0.8938 -0.3386
vn -0.1390 -0.9894 -0.0427
vn -0.3815 -0.9244 0.0000
vn -0.5603 -0.8283 0.0000
vn -0.4560 -0.8900 0.0000
vn -0.4378 -0.8348 -0.3337
vn -0.3906 -0.6293 -0.6719
vn -0.6946 -0.7193 -0.0072
vn -0.6334 -0.7662 -0.1082
vn -0.6537 -0.7488 -0.1094
vn -0.6547 -0.7479 -0.1094
vn -0.2945 -0.8824 -0.3669
vn -0.5717 -0.7536 -0.3243
vn -0.6561 -0.7207 -0.2241
vn -0.6440 -0.7600 -0.0874
vn -0.6437 -0.7598 -0.0911
vn -0.6439 -0.7599 -0.0892
vn -0.4511 -0.8903 0.0618
vn -0.4835 -0.8471 -0.2206
vn -0.5585 -0.8295 -0.0000
vn -0.5468 -0.8366 -0.0325
vn -0.6591 -0.7514 0.0312
vn -0.6465 -0.7626 0.0191
vn -0.6650 -0.7455 0.0443
vn -0.6667 -0.7443 0.0393
vn -0.5987 -0.8009 0.0000
vn -0.6097 -0.7926 -0.0120
vn -0.5930 -0.8042 0.0401
vn -0.5887 -0.8084 -0.0005
vn -0.5856 -0.8048 0.0968
vn -0.5394 -0.8386 0.0766
vn -0.5713 -0.7726 -0.2771
vn -0.6441 -0.7600 -0.0872
vn -0.6388 -0.7684 0.0387
vn -0.5456 -0.8345 0.0771
vn -0.8162 -0.5738 0.0671
vn -0.8491 -0.5270 0.0344
vn -0.8971 -0.4416 -0.0112
vn -0.8195 -0.5605 0.1194
vn -0.7959 -0.5977 0.0962
vn -0.7987 -0.5941 0.0950
vn -0.7989 -0.5930 0.1008
vn -0.7947 -0.5985 0.1011
vn -0.7956 -0.5975 0.0999
vn -0.8489 -0.5118 0.1321
vn -0.8456 -0.5160 0.1368
vn -0.8425 -0.5206 0.1385
vn -0.8402 -0.5264 0.1305
vn -0.6245 -0.7805 -0.0283
vn -0.6234 -0.7812 -0.0344
vn -0.6254 -0.7798 -0.0288
vn -0.6051 -0.7962 -0.0046
vn -0.6056 -0.7958 -0.0050
vn -0.6065 -0.7951 -0.0048
vn -0.6061 -0.7954 -0.0055
vn -0.6284 -0.7770 -0.0356
vn -0.7100 -0.7042 0.0041
vn -0.7483 -0.6626 0.0315
vn -0.8021 -0.5917 0.0813
vn -0.6256 -0.7716 -0.1154
vn -0.9278 -0.3716 -0.0348
vn -0.9666 -0.2480 -0.0645
vn -0.9770 -0.2005 -0.0732
vn -0.9948 0.0564 -0.0853
vn -0.6060 -0.7850 -0.1284
vn -0.6194 -0.7755 -0.1220
vn -0.9934 -0.0670 -0.0929
vn -0.6970 -0.7171 -0.0027
vn -0.7232 -0.6855 -0.0840
vn -0.6317 -0.7734 -0.0522
vn -0.4711 -0.8320 -0.2928
vn -0.5997 -0.8002 -0.0018
vn -0.6134 -0.7850 0.0864
vn -0.8077 -0.5854 0.0700
vn 0.8077 0.5854 -0.0700
vn 0.8402 0.5264 -0.1305
vn 0.8425 0.5206 -0.1385
vn 0.8489 0.5118 -0.1321
vn 0.5854 0.8103 0.0281
vn 0.5075 0.7565 0.4125
vn 0.5128 0.7536 0.4112
vn 0.5078 0.7560 0.4131
vn 0.3910 0.6580 0.6436
vn 0.1919 0.8659 0.4620
vn 0.5174 0.7562 0.4006
vn 0.5179 0.7560 0.4003
vn 0.5110 0.7502 0.4196
vn 0.5758 0.8174 0.0151
vn 0.5873 0.8094 0.0017
vn 0.5888 0.8083 0.0004
vn 0.5882 0.8087 0.0018
vn 0.3016 0.9463 -0.1161
vn 0.4497 0.8932 0.0000
vn 0.4498 0.8932 0.0000
vn 0.5899 0.8075 0.0000
vn 0.5939 0.8039 -0.0327
vn 0.5941 0.8040 -0.0243
vn 0.5943 0.8039 -0.0240
vn 0.5957 0.8025 -0.0334
vn 0.5471 0.8357 0.0481
vn 0.5472 0.8365 0.0305
vn 0.5470 0.8365 0.0315
vn 0.5470 0.8365 0.0316
vn 0.6490 0.7592 -0.0488
vn 0.6482 0.7599 -0.0485
vn 0.6489 0.7592 -0.0509
vn 0.6486 0.7594 -0.0513
vn 0.5643 0.8241 0.0483
vn 0.5614 0.8263 0.0448
vn 0.5626 0.8258 0.0401
vn 0.5643 0.8247 0.0390
vn 0.5460 0.8377 0.0067
vn 0.5617 0.8261 0.0447
vn 0.6484 0.7613 -0.0024
vn 0.6390 0.7682 -0.0391
vn 0.6546 0.7558 -0.0161
vn 0.6498 0.7594 -0.0311
vn 0.6767 0.7350 -0.0443
vn 0.6766 0.7347 -0.0485
vn 0.6699 0.7406 -0.0520
vn 0.6718 0.7394 -0.0429
vn 0.5606 0.8281 -0.0009
vn 0.5963 0.8027 -0.0123
vn 0.5985 0.8012 -0.0016
vn 0.5999 0.8001 -0.0012
vn 0.5995 0.8004 0.0012
vn 0.7985 0.5451 0.2556
vn 0.4904 0.7932 0.3610
vn 0.5463 0.7478 0.3772
vn 0.5479 0.7443 0.3820
vn 0.5450 0.7489 0.3770
vn 0.5372 0.7519 0.3822
vn 0.1708 0.9310 -0.3227
vn 0.2941 0.8938 0.3386
vn 0.1390 0.9894 0.0427
vn 0.3815 0.9244 0.0000
vn 0.5603 0.8283 0.0000
vn 0.4560 0.8900 0.0000
vn 0.4378 0.8348 0.3337
vn 0.3906 0.6293 0.6719
vn 0.6946 0.7193 0.0072
vn 0.6334 0.7662 0.1082
vn 0.6282 0.7694 0.1154
vn 0.6238 0.7739 0.1091
vn 0.6537 0.7488 0.1094
vn 0.6547 0.7479 0.1094
vn 0.2945 0.8824 0.3669
vn 0.5717 0.7536 0.3243
vn 0.6561 0.7207 0.2241
vn 0.6440 0.7600 0.0874
vn 0.6439 0.7599 0.0892
vn 0.6437 0.7598 0.0911
vn 0.4511 0.8903 -0.0618
vn 0.4835 0.8471 0.2206
vn 0.5585 0.8295 0.0000
vn 0.5468 0.8366 0.0325
vn 0.6606 0.7500 -0.0323
vn 0.6591 0.7514 -0.0312
vn 0.6561 0.7538 -0.0375
vn 0.6465 0.7626 -0.0191
vn 0.6667 0.7443 -0.0393
vn 0.5987 0.8009 0.0000
vn 0.5985 0.8011 0.0007
vn 0.6097 0.7926 0.0120
vn 0.5930 0.8042 -0.0401
vn 0.5890 0.8082 0.0004
vn 0.5887 0.8084 0.0005
vn 0.5856 0.8048 -0.0968
vn 0.5394 0.8386 -0.0766
vn 0.5713 0.7726 0.2771
vn 0.6441 0.7600 0.0872
vn 0.6388 0.7684 -0.0387
vn 0.6714 0.7397 -0.0456
vn 0.5456 0.8345 -0.0771
vn 0.8162 0.5738 -0.0671
vn 0.8491 0.5270 -0.0344
vn 0.8971 0.4416 0.0112
vn 0.8195 0.5605 -0.1194
vn 0.7973 0.5960 -0.0957
vn 0.7989 0.5930 -0.1008
vn 0.7987 0.5941 -0.0950
vn 0.7953 0.5977 -0.1018
vn 0.7956 0.5975 -0.0999
vn 0.8456 0.5160 -0.1368
vn 0.6245 0.7805 0.0283
vn 0.6254 0.7798 0.0288
vn 0.6234 0.7812 0.0343
vn 0.6051 0.7962 0.0046
vn 0.6065 0.7951 0.0048
vn 0.6056 0.7958 0.0050
vn 0.6061 0.7954 0.0055
vn 0.6284 0.7770 0.0356
vn 0.7100 0.7042 -0.0041
vn 0.7483 0.6626 -0.0315
vn 0.8021 0.5917 -0.0813
vn 0.6256 0.7716 0.1154
vn 0.9278 0.3716 0.0348
vn 0.9666 0.2480 0.0645
vn 0.9770 0.2005 0.0732
vn 0.9948 -0.0564 0.0853
vn 0.6060 0.7850 0.1284
vn 0.6194 0.7755 0.1220
vn 0.9934 0.0670 0.0929
vn 0.6970 0.7171 0.0027
vn 0.7232 0.6855 0.0840
vn 0.6317 0.7734 0.0522
vn 0.4711 0.8320 0.2928
vn 0.6134 0.7850 -0.0864
usemtl None.124
s 1
f 1//1 3//1 2//1
f 4//2 6//3 5//4
f 7//5 9//5 8//5
f 7//6 8//6 10//6
f 11//7 13//8 12//9
f 11//7 12//9 4//10
f 5//4 6//3 14//11
f 3//12 15//12 2//12
f 3//13 16//14 15//15
f 17//16 19//16 18//16
f 17//17 18//17 20//18
f 21//19 23//19 22//20
f 24//21 26//22 25//23
f 24//21 25//23 27//24
f 28//25 30//25 29//25
f 28//26 31//27 30//28
f 32//29 34//30 33//31
f 32//29 35//32 34//30
f 36//33 15//34 37//35
f 36//33 2//36 15//34
f 38//37 40//37 39//37
f 41//38 37//35 15//34
f 42//39 44//39 43//39
f 42//40 29//40 44//40
f 45//41 34//41 26//41
f 45//42 33//42 34//42
f 46//43 47//44 18//45
f 46//43 18//45 48//46
f 40//47 49//48 35//49
f 50//50 27//51 25//52
f 50//50 25//52 51//53
f 52//54 4//54 53//54
f 52//55 6//55 4//55
f 53//56 4//57 54//58
f 12//59 54//58 4//57
f 19//60 55//60 18//60
f 55//61 10//61 56//61
f 55//62 56//62 18//62
f 20//18 18//17 57//18
f 57//18 18//17 58//17
f 59//17 18//17 60//17
f 59//17 58//17 18//17
f 60//17 18//17 61//17
f 62//63 34//63 63//63
f 62//63 25//63 34//63
f 63//63 34//63 64//63
f 64//63 34//63 49//63
f 65//64 66//64 40//47
f 65//64 40//47 67//64
f 68//65 67//65 44//65
f 68//65 44//65 69//65
f 69//65 44//65 70//65
f 70//65 44//65 30//65
f 23//19 71//19 22//20
f 14//66 6//66 8//66
f 14//67 8//67 9//67
f 44//68 40//68 38//68
f 52//69 72//69 6//69
f 52//70 73//71 72//70
f 6//72 56//72 10//72
f 6//73 10//73 8//73
f 18//74 75//74 74//74
f 18//75 74//76 76//77
f 56//78 75//78 18//78
f 56//79 6//79 75//79
f 66//64 49//48 40//47
f 41//80 15//80 77//80
f 41//81 30//28 31//27
f 41//80 77//80 30//80
f 18//82 79//82 78//82
f 18//83 78//83 80//83
f 18//45 81//84 79//85
f 71//19 15//15 22//20
f 82//86 83//86 25//86
f 82//86 61//86 83//86
f 18//87 80//87 61//87
f 61//88 80//88 83//88
f 22//20 15//15 84//89
f 15//15 16//14 84//89
f 38//90 43//90 44//90
f 67//91 40//91 44//91
f 30//92 44//92 29//92
f 18//75 76//77 48//93
f 6//94 74//94 75//94
f 81//84 18//45 47//44
f 85//95 87//95 86//95
f 88//96 90//96 89//96
f 88//97 89//97 91//97
f 89//98 92//98 91//98
f 87//99 89//99 93//99
f 89//100 90//101 94//102
f 89//100 94//102 95//103
f 89//100 95//103 96//104
f 97//105 87//106 93//107
f 97//105 93//107 98//108
f 99//109 100//110 6//111
f 99//112 6//113 101//114
f 101//114 6//113 102//115
f 100//110 103//116 6//111
f 102//117 89//117 104//117
f 104//118 89//118 85//118
f 87//119 85//119 89//119
f 72//120 105//120 6//120
f 92//121 89//121 106//121
f 106//122 89//122 107//122
f 108//123 107//123 89//123
f 109//124 108//124 110//124
f 105//125 111//125 6//125
f 111//126 110//126 6//126
f 110//127 108//127 89//127
f 110//128 89//128 102//128
f 110//129 102//129 6//129
f 103//130 74//130 6//130
f 49//131 34//131 35//131
f 83//132 51//53 25//52
f 34//133 25//133 26//133
f 96//134 95//134 112//134
f 112//135 113//135 96//135
f 98//136 93//137 114//138
f 115//139 117//139 116//139
f 118//140 120//141 119//142
f 121//143 123//143 122//143
f 121//144 124//144 123//144
f 125//145 127//145 126//145
f 125//146 118//146 127//146
f 120//141 128//147 119//142
f 116//148 117//148 129//148
f 116//149 129//150 130//151
f 131//152 133//152 132//152
f 131//153 134//154 133//153
f 135//155 137//155 136//155
f 138//156 140//157 139//158
f 138//156 141//159 140//157
f 142//160 144//160 143//160
f 142//161 143//162 145//163
f 146//164 148//165 147//166
f 146//164 147//166 149//167
f 150//168 151//169 129//170
f 150//168 129//170 117//171
f 152//172 154//172 153//172
f 155//173 129//170 151//169
f 156//174 158//174 157//174
f 156//175 157//175 144//175
f 159//176 139//176 147//176
f 159//177 147//177 148//177
f 160//178 133//179 161//180
f 160//178 162//181 133//179
f 153//182 149//182 163//182
f 164//183 140//183 141//183
f 164//184 165//185 140//186
f 166//187 167//187 118//187
f 166//188 118//188 119//188
f 167//189 168//190 118//191
f 127//192 118//191 168//190
f 132//193 133//193 169//193
f 169//194 170//194 124//194
f 169//195 133//195 170//195
f 134//154 171//154 133//153
f 171//154 172//153 133//153
f 173//153 174//153 133//153
f 173//153 133//153 172//153
f 174//153 175//153 133//153
f 176//196 177//196 147//196
f 176//196 147//196 140//196
f 177//196 178//196 147//196
f 178//196 163//196 147//196
f 179//197 153//197 180//197
f 179//197 181//197 153//197
f 182//198 157//198 181//198
f 182//198 183//198 157//198
f 183//198 184//198 157//198
f 184//198 143//198 157//198
f 136//155 137//155 185//155
f 128//199 123//199 119//199
f 128//200 122//200 123//200
f 157//201 152//201 153//201
f 166//202 119//203 186//204
f 166//205 186//205 187//206
f 119//207 124//207 170//207
f 119//208 123//208 124//208
f 133//209 189//209 188//209
f 133//210 190//211 189//212
f 170//213 133//213 188//213
f 170//214 188//214 119//214
f 180//197 153//197 163//197
f 155//215 191//215 129//215
f 155//216 145//163 143//162
f 155//215 143//215 191//215
f 133//217 193//218 192//219
f 133//220 194//220 193//220
f 133//217 192//219 195//221
f 185//155 137//155 129//155
f 196//222 140//186 197//223
f 196//222 197//223 175//222
f 133//224 175//224 194//224
f 175//225 197//225 194//225
f 137//226 198//227 129//150
f 129//150 198//227 130//151
f 152//228 157//228 158//228
f 181//229 157//229 153//229
f 143//230 144//230 157//230
f 133//210 162//231 190//211
f 119//232 188//232 189//232
f 195//233 161//180 133//179
f 199//234 201//234 200//234
f 202//235 89//235 203//235
f 202//236 204//236 89//236
f 89//237 204//237 205//237
f 200//238 93//238 89//238
f 89//239 206//240 203//241
f 89//239 113//242 206//240
f 89//243 96//243 113//243
f 114//138 93//137 200//244
f 207//245 119//246 208//247
f 207//248 209//249 119//250
f 209//249 210//251 119//250
f 208//247 119//246 211//252
f 210//253 212//253 89//253
f 212//254 199//254 89//254
f 200//255 89//255 199//255
f 186//204 119//203 213//256
f 205//257 214//257 89//257
f 214//258 215//258 89//258
f 216//259 89//259 215//259
f 217//260 218//260 216//260
f 213//261 119//261 219//261
f 219//262 119//262 218//262
f 218//263 89//263 216//263
f 218//264 210//264 89//264
f 218//265 119//265 210//265
f 211//266 119//266 189//266
f 163//267 149//267 147//267
f 197//223 140//186 165//185
f 147//268 139//268 140//268
