# Blender v2.79 (sub 0) OBJ File: ''
# www.blender.org
mtllib crack_restart_keyway_370.mtl
o crack_restart_keyway_370
v 0.147218 -0.162044 -0.087640
v 0.150831 -0.164534 -0.087206
v 0.152273 -0.168961 -0.080747
v 0.143321 -0.159238 -0.088159
v 0.154210 -0.167189 -0.086931
v 0.120406 -0.147382 -0.103551
v 0.107515 -0.140856 -0.106216
v 0.120406 -0.147382 -0.118922
v 0.120866 -0.146923 -0.098614
v 0.120406 -0.147382 -0.472461
v 0.120406 -0.147382 -0.457089
v 0.108414 -0.138181 -0.472461
v 0.072526 -0.113810 -0.290356
v 0.104510 -0.139413 -0.370892
v 0.072700 -0.113507 -0.277349
v 0.071898 -0.114011 -0.303364
v 0.071366 -0.114561 -0.342386
v 0.070688 -0.114771 -0.355393
v 0.071304 -0.114384 -0.329378
v 0.071387 -0.114550 -0.420431
v 0.071810 -0.114066 -0.433438
v 0.072654 -0.113719 -0.446446
v 0.070799 -0.114874 -0.368401
v 0.070362 -0.114976 -0.381408
v 0.090632 -0.132125 -0.376755
v 0.071609 -0.114427 -0.316371
v 0.122213 -0.145575 -0.094013
v 0.114582 -0.144559 -0.094815
v 0.126646 -0.147718 -0.091683
v 0.106546 -0.141759 -0.120727
v 0.120406 -0.147382 -0.134293
v 0.120406 -0.147382 -0.149664
v 0.120406 -0.147382 -0.165036
v 0.093400 -0.129776 -0.112752
v 0.120406 -0.147382 -0.180407
v 0.120406 -0.147382 -0.195778
v 0.120406 -0.147382 -0.211149
v 0.073754 -0.112976 -0.232134
v 0.120406 -0.147382 -0.226521
v 0.120406 -0.147382 -0.241892
v 0.120406 -0.147382 -0.257263
v 0.120406 -0.147382 -0.272634
v 0.120406 -0.147382 -0.288006
v 0.120406 -0.147382 -0.303377
v 0.120406 -0.147382 -0.318748
v 0.120406 -0.147382 -0.334119
v 0.120406 -0.147382 -0.349490
v 0.120406 -0.147382 -0.364862
v 0.120406 -0.147382 -0.380233
v 0.120406 -0.147382 -0.395604
v 0.120406 -0.147382 -0.410975
v 0.120406 -0.147382 -0.426347
v 0.120406 -0.147382 -0.441718
v 0.139528 -0.156359 -0.088664
v 0.123817 -0.150381 -0.083263
v 0.135301 -0.153118 -0.089241
v 0.139267 -0.168048 -0.066973
v 0.117343 -0.148404 -0.076020
v 0.131068 -0.149873 -0.089874
v 0.087461 -0.119420 -0.089110
v 0.085387 -0.117065 -0.090961
v 0.089856 -0.122178 -0.086518
v 0.123418 -0.156225 -0.069625
v 0.104300 -0.137733 -0.076794
v 0.073251 -0.113264 -0.464806
v 0.103440 -0.134529 -0.472461
v 0.108240 -0.141380 -0.075178
v 0.111682 -0.144785 -0.073582
v 0.117343 -0.148404 -0.076020
v 0.105666 -0.139034 -0.076158
v 0.121320 -0.154175 -0.070303
v 0.118411 -0.151319 -0.071335
v 0.116566 -0.149603 -0.071742
v 0.120089 -0.152925 -0.070827
v 0.070759 -0.114897 -0.394416
v 0.070900 -0.114638 -0.407423
v 0.146446 -0.169997 -0.072051
v 0.076564 -0.111093 -0.120524
v 0.076258 -0.111345 -0.125107
v 0.077671 -0.110160 -0.108252
v 0.077016 -0.110754 -0.114755
v 0.072921 -0.113530 -0.264341
v 0.073116 -0.113245 -0.251334
v 0.075545 -0.111668 -0.134267
v 0.075338 -0.111960 -0.141526
v 0.075026 -0.112045 -0.147274
v 0.113154 -0.146180 -0.073006
v 0.083540 -0.114968 -0.092826
v 0.094460 -0.127081 -0.083145
v 0.081488 -0.112974 -0.097747
v 0.078433 -0.109749 -0.101593
v 0.081311 -0.112551 -0.094535
v 0.078663 -0.109644 -0.096506
v 0.114582 -0.144559 -0.094815
v 0.092388 -0.124794 -0.084548
v 0.150609 -0.170437 -0.077067
v 0.149684 -0.171253 -0.075134
v 0.148738 -0.172068 -0.071735
v 0.147617 -0.173037 -0.066756
v 0.143290 -0.169921 -0.066843
v 0.075069 -0.112140 -0.153579
v 0.074961 -0.112082 -0.160281
v 0.073851 -0.112783 -0.199304
v 0.074217 -0.112709 -0.191239
v 0.074162 -0.112746 -0.207482
v 0.074204 -0.112619 -0.212311
v 0.074160 -0.112747 -0.217136
v 0.073533 -0.113095 -0.472461
v 0.088844 -0.123979 -0.472461
v 0.074928 -0.112234 -0.166692
v 0.074707 -0.112246 -0.173289
v 0.074533 -0.112498 -0.180700
v 0.074297 -0.112553 -0.186296
v 0.148738 -0.172068 -0.071735
v 0.146446 -0.169997 -0.072051
v 0.081488 -0.112974 -0.097747
v 0.078433 -0.109749 -0.101593
v 0.147218 -0.162044 -0.087640
v 0.152273 -0.168961 -0.080747
v 0.150831 -0.164534 -0.087206
v 0.143321 -0.159238 -0.088159
v 0.154210 -0.167189 -0.086931
v 0.120406 -0.147382 -0.103551
v 0.120406 -0.147382 -0.118922
v 0.107515 -0.140856 -0.106216
v 0.120866 -0.146923 -0.098614
v 0.120406 -0.147382 -0.472461
v 0.108414 -0.138181 -0.472461
v 0.120406 -0.147382 -0.457089
v 0.072526 -0.113810 -0.290356
v 0.072700 -0.113507 -0.277349
v 0.104510 -0.139413 -0.370892
v 0.071898 -0.114011 -0.303364
v 0.071366 -0.114561 -0.342386
v 0.070688 -0.114771 -0.355393
v 0.071304 -0.114384 -0.329378
v 0.071387 -0.114550 -0.420431
v 0.072654 -0.113719 -0.446446
v 0.071810 -0.114066 -0.433438
v 0.070799 -0.114874 -0.368401
v 0.090632 -0.132125 -0.376755
v 0.070362 -0.114976 -0.381408
v 0.071609 -0.114427 -0.316371
v 0.122213 -0.145575 -0.094013
v 0.126646 -0.147718 -0.091683
v 0.120406 -0.147382 -0.134293
v 0.106546 -0.141759 -0.120727
v 0.120406 -0.147382 -0.149664
v 0.120406 -0.147382 -0.165036
v 0.093400 -0.129776 -0.112752
v 0.120406 -0.147382 -0.180407
v 0.120406 -0.147382 -0.195778
v 0.120406 -0.147382 -0.211149
v 0.120406 -0.147382 -0.226521
v 0.073754 -0.112976 -0.232134
v 0.120406 -0.147382 -0.241892
v 0.120406 -0.147382 -0.257263
v 0.120406 -0.147382 -0.272634
v 0.120406 -0.147382 -0.288006
v 0.120406 -0.147382 -0.303377
v 0.120406 -0.147382 -0.318748
v 0.120406 -0.147382 -0.334119
v 0.120406 -0.147382 -0.349490
v 0.120406 -0.147382 -0.364862
v 0.120406 -0.147382 -0.380233
v 0.120406 -0.147382 -0.395604
v 0.120406 -0.147382 -0.410975
v 0.120406 -0.147382 -0.426347
v 0.120406 -0.147382 -0.441718
v 0.139528 -0.156359 -0.088664
v 0.135301 -0.153118 -0.089241
v 0.123817 -0.150381 -0.083263
v 0.131068 -0.149873 -0.089874
v 0.103440 -0.134529 -0.472461
v 0.073251 -0.113264 -0.464806
v 0.070759 -0.114897 -0.394416
v 0.070900 -0.114638 -0.407423
v 0.076258 -0.111345 -0.125107
v 0.076564 -0.111093 -0.120524
v 0.077016 -0.110754 -0.114755
v 0.077671 -0.110160 -0.108252
v 0.072921 -0.113530 -0.264341
v 0.073116 -0.113245 -0.251334
v 0.075338 -0.111960 -0.141526
v 0.075545 -0.111668 -0.134267
v 0.075026 -0.112045 -0.147274
v 0.150609 -0.170437 -0.077067
v 0.149684 -0.171253 -0.075134
v 0.075069 -0.112140 -0.153579
v 0.074961 -0.112082 -0.160281
v 0.073851 -0.112783 -0.199304
v 0.074217 -0.112709 -0.191239
v 0.074162 -0.112746 -0.207482
v 0.074204 -0.112619 -0.212311
v 0.074160 -0.112747 -0.217136
v 0.088844 -0.123979 -0.472461
v 0.073533 -0.113095 -0.472461
v 0.074928 -0.112234 -0.166692
v 0.074707 -0.112246 -0.173289
v 0.074533 -0.112498 -0.180700
v 0.074297 -0.112553 -0.186296
vn -0.4801 -0.7699 -0.4205
vn -0.4984 -0.7670 -0.4041
vn -0.4965 -0.7670 -0.4064
vn -0.4973 -0.7670 -0.4055
vn -0.5507 -0.7407 -0.3847
vn -0.4517 -0.8922 0.0000
vn -0.4686 -0.8745 0.1250
vn -0.6087 -0.7934 0.0000
vn -0.5828 -0.8121 0.0267
vn -0.5613 -0.8266 0.0399
vn -0.5623 -0.8260 0.0391
vn -0.5614 -0.8266 0.0397
vn -0.5753 -0.8168 0.0432
vn -0.5954 -0.8034 0.0081
vn -0.5930 -0.8051 0.0109
vn -0.5949 -0.8038 0.0087
vn -0.3103 -0.9496 -0.0454
vn -0.6493 -0.7600 0.0278
vn -0.5929 -0.8052 0.0112
vn -0.5626 -0.8258 0.0389
vn -0.1580 -0.9342 0.3200
vn -0.3837 -0.9214 -0.0614
vn -0.0350 -0.7679 -0.6397
vn -0.3759 -0.9266 0.0000
vn -0.3839 -0.9197 0.0829
vn -0.5461 -0.8377 0.0000
vn -0.5935 -0.8048 0.0000
vn -0.4482 -0.8940 0.0000
vn -0.5778 -0.8157 0.0273
vn -0.5705 -0.8208 0.0299
vn -0.5724 -0.8195 0.0289
vn -0.4560 -0.8900 0.0000
vn -0.4579 -0.8888 -0.0210
vn -0.4557 -0.6937 -0.5578
vn -0.4556 -0.6945 -0.5569
vn -0.4544 -0.6984 -0.5530
vn -0.4463 -0.7855 -0.4287
vn -0.5426 -0.7776 0.3177
vn -0.6594 -0.6243 -0.4190
vn -0.2785 -0.8849 -0.3734
vn -0.6885 -0.7141 -0.1263
vn -0.6887 -0.7124 -0.1347
vn -0.6887 -0.7126 -0.1337
vn -0.6885 -0.7146 -0.1242
vn -0.2091 -0.9636 -0.1664
vn -0.4539 -0.6997 -0.5516
vn -0.5222 -0.7782 -0.3488
vn -0.6295 -0.7742 -0.0659
vn -0.5914 -0.8045 -0.0555
vn -0.5909 -0.8048 -0.0551
vn -0.5955 -0.8011 -0.0600
vn -0.5905 -0.8052 -0.0545
vn -0.5322 -0.8454 -0.0454
vn -0.5885 -0.8083 -0.0169
vn -0.5157 -0.7516 -0.4112
vn -0.5892 -0.8025 -0.0944
vn -0.5884 -0.8085 0.0014
vn -0.6012 -0.7442 -0.2912
vn -0.6002 -0.7487 -0.2816
vn -0.6002 -0.7480 -0.2832
vn 0.6012 0.7442 0.2912
vn 0.6002 0.7480 0.2832
vn 0.6002 0.7487 0.2815
vn -0.6082 -0.7613 -0.2249
vn 0.6082 0.7613 0.2249
vn -0.5929 -0.7349 -0.3294
vn -0.6013 -0.7282 -0.3290
vn -0.5946 -0.7335 -0.3293
vn -0.6061 -0.7301 -0.3154
vn -0.6076 -0.7290 -0.3152
vn -0.6114 -0.7261 -0.3144
vn -0.6073 -0.7297 -0.3142
vn -0.6045 -0.7310 -0.3166
vn -0.6424 -0.7659 -0.0243
vn -0.6417 -0.7665 -0.0257
vn -0.4443 -0.8956 -0.0227
vn -0.4912 -0.7670 -0.4129
vn -0.5062 -0.7485 -0.4284
vn -0.7575 -0.6471 0.0857
vn -0.7577 -0.6469 0.0862
vn -0.7575 -0.6472 0.0855
vn -0.7578 -0.6385 0.1346
vn -0.7591 -0.6436 0.0973
vn -0.6555 -0.7365 0.1671
vn -0.7062 -0.6371 0.3089
vn -0.6153 -0.7882 0.0091
vn -0.5760 -0.8170 0.0276
vn -0.5785 -0.8153 0.0265
vn -0.7270 -0.6498 -0.2219
vn -0.6405 -0.7627 0.0902
vn -0.7405 -0.6702 0.0499
vn -0.7392 -0.6717 0.0481
vn -0.7396 -0.6713 0.0485
vn -0.7407 -0.6700 0.0501
vn -0.7565 -0.6488 0.0818
vn -0.6117 -0.7259 -0.3145
vn -0.5999 -0.7491 -0.2810
vn -0.7944 -0.5961 0.1164
vn -0.6845 -0.7289 0.0144
vn -0.6908 -0.7123 -0.1243
vn -0.6911 -0.7117 -0.1258
vn -0.6922 -0.7098 -0.1306
vn -0.9055 -0.3537 0.2343
vn -0.7915 -0.5978 0.1275
vn -0.7509 -0.6588 0.0465
vn -0.7502 -0.6596 0.0455
vn -0.7532 -0.6563 0.0452
vn -0.7536 -0.6558 0.0452
vn -0.7529 -0.6564 0.0476
vn 0.6885 0.7146 0.1242
vn 0.6887 0.7126 0.1337
vn 0.6885 0.7141 0.1263
vn -0.6840 -0.7247 -0.0833
vn 0.6840 0.7247 0.0833
vn -0.6927 -0.7089 -0.1326
vn -0.6043 -0.7566 -0.2498
vn 0.5999 0.7491 0.2810
vn -0.6035 -0.7264 -0.3289
vn -0.6776 -0.5237 -0.5164
vn -0.6040 -0.7204 -0.3408
vn -0.6955 -0.4794 -0.5352
vn -0.6215 -0.7309 -0.2822
vn -0.5491 -0.7715 -0.3215
vn -0.4044 -0.8846 -0.2321
vn -0.7000 -0.7141 0.0058
vn -0.6997 -0.7144 0.0056
vn -0.7002 -0.7139 0.0060
vn -0.6992 -0.7150 0.0051
vn -0.7508 -0.6593 0.0401
vn -0.5877 -0.8086 -0.0260
vn -0.5875 -0.8088 -0.0261
vn -0.5868 -0.8093 -0.0264
vn -0.5866 -0.8094 -0.0264
vn -0.7343 -0.6783 0.0247
vn -0.5789 -0.8144 -0.0393
vn -0.7208 -0.6928 0.0216
vn -0.7261 -0.6871 0.0253
vn -0.7188 -0.6949 0.0202
vn -0.7267 -0.6865 0.0256
vn -0.7486 -0.6619 0.0396
vn -0.7458 -0.6650 0.0380
vn -0.7462 -0.6646 0.0383
vn -0.7495 -0.6608 0.0401
vn -0.7370 -0.6751 0.0334
vn -0.5848 -0.8091 -0.0587
vn -0.5834 -0.8113 -0.0391
vn -0.7498 -0.6609 0.0304
vn 0.6927 0.7089 0.1326
vn 0.6911 0.7117 0.1258
vn 0.6922 0.7098 0.1306
vn 0.6215 0.7309 0.2822
vn 0.5491 0.7715 0.3215
vn 0.6045 0.7310 0.3167
vn 0.6073 0.7297 0.3142
vn 0.6061 0.7301 0.3154
vn 0.6076 0.7290 0.3152
vn 0.6114 0.7262 0.3145
vn 0.7532 0.6563 -0.0452
vn 0.7502 0.6596 -0.0455
vn 0.7506 0.6592 -0.0457
vn 0.7535 0.6559 -0.0449
vn 0.7529 0.6564 -0.0476
vn 0.4044 0.8846 0.2321
vn 0.4801 0.7699 0.4205
vn 0.4984 0.7670 0.4041
vn 0.5507 0.7407 0.3847
vn 0.4517 0.8922 0.0000
vn 0.4686 0.8745 -0.1250
vn 0.6087 0.7934 0.0000
vn 0.5828 0.8121 -0.0267
vn 0.5613 0.8266 -0.0399
vn 0.5614 0.8266 -0.0397
vn 0.5623 0.8260 -0.0391
vn 0.5753 0.8168 -0.0432
vn 0.5954 0.8034 -0.0081
vn 0.5949 0.8038 -0.0087
vn 0.5930 0.8051 -0.0109
vn 0.3103 0.9496 0.0454
vn 0.6493 0.7600 -0.0278
vn 0.5929 0.8052 -0.0112
vn 0.5626 0.8258 -0.0389
vn 0.1580 0.9342 -0.3200
vn 0.3837 0.9214 0.0614
vn 0.0350 0.7679 0.6397
vn 0.3759 0.9266 0.0000
vn 0.3839 0.9197 -0.0829
vn 0.5461 0.8377 0.0000
vn 0.5935 0.8048 0.0000
vn 0.4482 0.8940 0.0000
vn 0.5778 0.8157 -0.0273
vn 0.4560 0.8900 0.0000
vn 0.4579 0.8888 0.0210
vn 0.4557 0.6937 0.5578
vn 0.4544 0.6984 0.5530
vn 0.4556 0.6945 0.5569
vn 0.4380 0.8216 0.3649
vn 0.5426 0.7776 -0.3177
vn 0.6594 0.6243 0.4190
vn 0.2785 0.8849 0.3734
vn 0.6887 0.7124 0.1347
vn 0.2091 0.9636 0.1664
vn 0.4539 0.6997 0.5516
vn 0.6295 0.7742 0.0659
vn 0.5914 0.8045 0.0555
vn 0.5955 0.8011 0.0600
vn 0.5909 0.8048 0.0551
vn 0.5905 0.8052 0.0545
vn 0.5322 0.8454 0.0454
vn 0.5885 0.8083 0.0169
vn 0.5102 0.7469 0.4264
vn 0.5892 0.8025 0.0944
vn 0.5884 0.8085 -0.0014
vn 0.5929 0.7349 0.3294
vn 0.5946 0.7335 0.3293
vn 0.6013 0.7282 0.3290
vn 0.6423 0.7660 0.0245
vn 0.6424 0.7659 0.0243
vn 0.6420 0.7663 0.0250
vn 0.6417 0.7665 0.0257
vn 0.4443 0.8956 0.0227
vn 0.4956 0.7670 0.4075
vn 0.4992 0.7615 0.4134
vn 0.4988 0.7607 0.4153
vn 0.4974 0.7571 0.4235
vn 0.7578 0.6466 -0.0871
vn 0.7577 0.6469 -0.0862
vn 0.7590 0.6439 -0.0963
vn 0.7578 0.6385 -0.1346
vn 0.7591 0.6436 -0.0973
vn 0.6555 0.7365 -0.1671
vn 0.7062 0.6371 -0.3089
vn 0.6153 0.7882 -0.0091
vn 0.5780 0.8156 -0.0269
vn 0.5785 0.8153 -0.0265
vn 0.5760 0.8170 -0.0276
vn 0.7270 0.6498 0.2219
vn 0.6405 0.7627 -0.0902
vn 0.7405 0.6702 -0.0499
vn 0.7396 0.6713 -0.0485
vn 0.7392 0.6717 -0.0481
vn 0.7407 0.6700 -0.0501
vn 0.7565 0.6488 -0.0818
vn 0.6117 0.7259 0.3145
vn 0.7944 0.5961 -0.1164
vn 0.6845 0.7289 -0.0144
vn 0.6908 0.7123 0.1243
vn 0.9055 0.3537 -0.2343
vn 0.7915 0.5978 -0.1275
vn 0.6043 0.7566 0.2498
vn 0.6035 0.7264 0.3289
vn 0.4991 0.7617 0.4132
vn 0.6776 0.5237 0.5164
vn 0.6040 0.7204 0.3408
vn 0.6955 0.4794 0.5352
vn 0.7000 0.7141 -0.0058
vn 0.7002 0.7139 -0.0060
vn 0.6997 0.7144 -0.0056
vn 0.6992 0.7150 -0.0051
vn 0.7508 0.6593 -0.0401
vn 0.5877 0.8086 0.0260
vn 0.5868 0.8093 0.0264
vn 0.5875 0.8088 0.0261
vn 0.5866 0.8094 0.0264
vn 0.7343 0.6783 -0.0247
vn 0.5789 0.8144 0.0393
vn 0.7208 0.6928 -0.0216
vn 0.7188 0.6949 -0.0202
vn 0.7261 0.6871 -0.0253
vn 0.7267 0.6865 -0.0256
vn 0.7486 0.6619 -0.0396
vn 0.7462 0.6646 -0.0383
vn 0.7458 0.6650 -0.0380
vn 0.7495 0.6608 -0.0401
vn 0.7370 0.6751 -0.0334
vn 0.5848 0.8091 0.0587
vn 0.5834 0.8113 0.0391
vn 0.5691 0.8217 -0.0304
vn 0.7498 0.6609 -0.0304
usemtl None.061
s 1
f 1//1 2//1 3//1
f 1//2 3//3 4//4
f 2//5 5//5 3//5
f 6//6 7//6 8//6
f 6//7 9//7 7//7
f 10//8 11//8 12//8
f 13//9 14//9 15//9
f 13//10 16//11 14//12
f 17//13 18//13 14//13
f 17//14 14//15 19//16
f 20//17 21//17 22//17
f 23//18 24//18 25//18
f 26//19 19//16 14//15
f 26//20 14//12 16//11
f 9//21 27//21 28//21
f 9//22 28//22 7//22
f 27//23 29//23 28//23
f 8//24 30//24 31//24
f 8//25 7//25 30//25
f 31//24 30//24 32//24
f 33//26 32//26 34//26
f 33//26 34//26 35//26
f 35//26 34//26 36//26
f 36//26 34//26 37//26
f 37//27 38//27 39//27
f 39//27 38//27 40//27
f 40//27 38//27 41//27
f 41//27 38//27 42//27
f 42//28 14//28 43//28
f 42//29 38//30 14//31
f 43//28 14//28 44//28
f 44//28 14//28 45//28
f 45//28 14//28 46//28
f 46//28 14//28 47//28
f 47//28 14//28 48//28
f 48//28 14//28 49//28
f 49//32 25//32 50//32
f 49//33 14//33 25//33
f 50//32 25//32 51//32
f 51//32 25//32 52//32
f 52//32 25//32 53//32
f 11//8 53//8 12//8
f 54//34 55//35 56//36
f 54//37 57//37 55//37
f 23//38 25//38 14//38
f 55//39 58//39 29//39
f 55//40 29//40 59//40
f 60//41 61//42 28//43
f 60//41 28//43 62//44
f 29//45 58//45 28//45
f 55//35 59//46 56//36
f 55//47 57//47 63//47
f 28//48 58//48 64//48
f 20//49 12//50 25//51
f 20//49 22//52 12//50
f 53//53 25//53 12//53
f 37//54 34//54 38//54
f 4//55 57//55 54//55
f 12//56 65//56 66//56
f 14//57 18//57 23//57
f 67//58 58//59 68//60
f 67//61 68//62 69//63
f 67//64 70//64 58//64
f 67//65 69//65 70//65
f 58//66 55//67 71//68
f 58//69 72//70 73//71
f 58//69 71//72 74//73
f 58//69 74//73 72//70
f 75//74 25//74 24//74
f 75//75 20//75 25//75
f 75//76 76//76 20//76
f 57//77 4//4 3//3
f 57//78 3//78 77//78
f 34//79 78//80 79//81
f 34//82 80//82 81//82
f 34//83 81//83 78//83
f 34//84 7//84 28//84
f 34//85 28//85 80//85
f 14//86 82//86 15//86
f 14//31 83//87 82//88
f 30//89 34//89 32//89
f 30//90 7//90 34//90
f 34//91 84//92 85//93
f 34//91 85//93 86//94
f 34//79 79//81 84//95
f 87//96 58//69 73//71
f 87//97 68//60 58//59
f 80//98 61//98 88//98
f 80//99 28//99 61//99
f 64//100 89//101 28//102
f 80//103 88//103 90//103
f 80//104 90//104 91//104
f 90//105 88//106 92//107
f 90//105 93//108 91//109
f 90//105 92//107 93//108
f 62//110 94//111 60//112
f 62//113 28//113 95//113
f 62//114 95//114 94//114
f 28//102 89//101 95//115
f 64//116 58//116 70//116
f 68//62 87//117 69//63
f 55//67 63//118 71//68
f 3//119 96//119 77//119
f 77//120 97//120 98//120
f 77//121 96//121 97//121
f 77//122 98//122 99//122
f 77//123 99//123 100//123
f 77//124 100//124 57//124
f 101//125 34//126 86//127
f 101//125 102//128 34//126
f 103//129 34//129 104//129
f 103//130 105//131 34//132
f 105//131 106//133 34//132
f 106//134 107//134 34//134
f 65//135 108//135 109//135
f 110//136 34//137 102//138
f 110//136 111//139 34//137
f 112//140 113//141 34//142
f 112//140 34//142 111//143
f 104//144 34//144 113//144
f 109//145 66//145 65//145
f 12//146 22//146 65//146
f 38//30 83//87 14//31
f 38//147 34//147 107//147
f 95//148 89//149 94//150
f 99//151 114//151 115//151
f 99//152 115//152 100//152
f 74//153 71//154 69//155
f 74//153 69//155 72//156
f 72//156 69//155 73//157
f 92//158 88//159 116//160
f 92//158 116//160 93//161
f 93//162 116//162 117//162
f 100//163 115//163 57//163
f 118//164 119//164 120//164
f 118//165 121//165 119//165
f 120//166 119//166 122//166
f 123//167 124//167 125//167
f 123//168 125//168 126//168
f 127//169 128//169 129//169
f 130//170 131//170 132//170
f 130//171 132//172 133//173
f 134//174 132//174 135//174
f 134//175 136//176 132//177
f 137//178 138//178 139//178
f 140//179 141//179 142//179
f 143//180 132//177 136//176
f 143//181 133//173 132//172
f 126//182 94//182 144//182
f 126//183 125//183 94//183
f 144//184 94//184 145//184
f 124//185 146//185 147//185
f 124//186 147//186 125//186
f 146//185 148//185 147//185
f 149//187 150//187 148//187
f 149//187 151//187 150//187
f 151//187 152//187 150//187
f 152//187 153//187 150//187
f 153//188 154//188 155//188
f 154//188 156//188 155//188
f 156//188 157//188 155//188
f 157//188 158//188 155//188
f 158//189 159//189 132//189
f 158//190 132//190 155//190
f 159//189 160//189 132//189
f 160//189 161//189 132//189
f 161//189 162//189 132//189
f 162//189 163//189 132//189
f 163//189 164//189 132//189
f 164//189 165//189 132//189
f 165//191 166//191 141//191
f 165//192 141//192 132//192
f 166//191 167//191 141//191
f 167//191 168//191 141//191
f 168//191 169//191 141//191
f 129//169 128//169 169//169
f 170//193 171//194 172//195
f 170//196 172//196 63//196
f 140//197 132//197 141//197
f 172//198 145//198 69//198
f 172//199 173//199 145//199
f 60//112 94//111 61//200
f 145//201 94//201 69//201
f 172//195 171//194 173//202
f 94//203 64//203 69//203
f 137//204 141//205 128//206
f 137//204 128//206 138//207
f 169//208 128//208 141//208
f 153//209 155//209 150//209
f 121//210 170//210 63//210
f 128//211 174//211 175//211
f 132//212 140//212 135//212
f 69//213 71//214 172//215
f 176//216 142//217 141//218
f 176//216 141//218 137//219
f 176//220 137//220 177//220
f 63//221 119//221 121//221
f 63//222 115//223 119//224
f 150//225 178//226 179//227
f 150//228 180//228 181//228
f 150//225 179//227 180//229
f 150//230 94//230 125//230
f 150//231 181//231 94//231
f 132//232 131//232 182//232
f 132//233 182//234 183//235
f 147//236 148//236 150//236
f 147//237 150//237 125//237
f 150//238 184//239 185//240
f 150//238 186//241 184//239
f 150//242 185//242 178//242
f 87//243 73//157 69//155
f 181//244 88//244 61//244
f 181//245 61//245 94//245
f 64//246 94//150 89//149
f 181//247 116//247 88//247
f 181//248 117//248 116//248
f 64//249 70//249 69//249
f 172//215 71//214 63//250
f 57//251 115//223 63//222
f 119//252 115//252 187//252
f 115//253 114//253 188//253
f 115//254 188//254 187//254
f 189//255 186//256 150//257
f 189//255 150//257 190//258
f 191//259 192//259 150//259
f 191//260 150//261 193//262
f 193//262 150//261 194//263
f 194//264 150//264 195//264
f 175//265 196//265 197//265
f 198//266 190//267 150//268
f 198//266 150//268 199//269
f 200//270 150//271 201//272
f 200//270 199//273 150//271
f 192//274 201//274 150//274
f 196//275 175//275 174//275
f 128//276 175//276 138//276
f 155//277 132//233 183//235
f 155//278 195//278 150//278
