# Blender v2.79 (sub 0) OBJ File: ''
# www.blender.org
mtllib crack_restart_keyway_645.mtl
o crack_restart_keyway_645
v 0.073384 -0.113201 -0.472461
v 0.072956 -0.113346 -0.459453
v 0.084691 -0.121371 -0.472461
v 0.147228 -0.162037 -0.087631
v 0.143382 -0.159202 -0.088100
v 0.121000 -0.151295 -0.073083
v 0.150736 -0.164621 -0.087289
v 0.152178 -0.169047 -0.080800
v 0.154210 -0.167189 -0.086931
v 0.139583 -0.156325 -0.088621
v 0.120406 -0.147382 -0.426347
v 0.095829 -0.129452 -0.472461
v 0.120406 -0.147382 -0.103551
v 0.115966 -0.144849 -0.090503
v 0.120866 -0.146923 -0.098614
v 0.120406 -0.147382 -0.118922
v 0.120406 -0.147382 -0.472461
v 0.108127 -0.138409 -0.472461
v 0.120406 -0.147382 -0.457089
v 0.070718 -0.114919 -0.394416
v 0.069962 -0.115227 -0.381408
v 0.120406 -0.147382 -0.395604
v 0.070956 -0.114602 -0.407423
v 0.072227 -0.114022 -0.290356
v 0.072635 -0.113548 -0.277349
v 0.094975 -0.133213 -0.288855
v 0.071498 -0.114262 -0.303364
v 0.072630 -0.113736 -0.446446
v 0.071893 -0.114014 -0.433438
v 0.071824 -0.114308 -0.342386
v 0.071539 -0.114236 -0.329378
v 0.120406 -0.147382 -0.334119
v 0.070508 -0.114884 -0.355393
v 0.071527 -0.114472 -0.420431
v 0.070571 -0.115001 -0.368401
v 0.090632 -0.132125 -0.376755
v 0.073091 -0.113409 -0.264341
v 0.073175 -0.113208 -0.251334
v 0.104076 -0.139933 -0.265445
v 0.075220 -0.111924 -0.147274
v 0.075685 -0.111568 -0.134267
v 0.093693 -0.129457 -0.112796
v 0.074773 -0.112216 -0.160281
v 0.076349 -0.111214 -0.121259
v 0.076761 -0.110805 -0.108252
v 0.071652 -0.114403 -0.316371
v 0.074054 -0.112726 -0.212311
v 0.094737 -0.130580 -0.254785
v 0.073857 -0.112780 -0.225319
v 0.074022 -0.112676 -0.199304
v 0.146798 -0.173711 -0.061415
v 0.148172 -0.172563 -0.068132
v 0.150275 -0.170736 -0.074809
v 0.122213 -0.145575 -0.094013
v 0.126540 -0.147825 -0.091832
v 0.120406 -0.147382 -0.134293
v 0.106657 -0.141569 -0.120719
v 0.120406 -0.147382 -0.149664
v 0.120406 -0.147382 -0.165036
v 0.120406 -0.147382 -0.180407
v 0.074479 -0.112389 -0.173289
v 0.120406 -0.147382 -0.195778
v 0.120406 -0.147382 -0.211149
v 0.120406 -0.147382 -0.226521
v 0.120406 -0.147382 -0.241892
v 0.120406 -0.147382 -0.257263
v 0.120406 -0.147382 -0.272634
v 0.120406 -0.147382 -0.288006
v 0.104169 -0.140680 -0.280926
v 0.120406 -0.147382 -0.349490
v 0.120406 -0.147382 -0.364862
v 0.120406 -0.147382 -0.380233
v 0.120406 -0.147382 -0.441718
v 0.135354 -0.153086 -0.089196
v 0.144507 -0.174958 -0.039694
v 0.145800 -0.174416 -0.050901
v 0.131068 -0.149873 -0.089874
v 0.120406 -0.147382 -0.303377
v 0.120406 -0.147382 -0.318748
v 0.120406 -0.147382 -0.410975
v 0.074056 -0.112724 -0.186296
v 0.074692 -0.112391 -0.166207
v 0.103572 -0.135089 -0.472461
v 0.075878 -0.111423 -0.096467
v 0.073540 -0.113091 -0.238326
v 0.130632 -0.184996 0.188125
v 0.129799 -0.185385 0.163220
v 0.071387 -0.113580 0.132731
v 0.131865 -0.184000 0.214324
v 0.074429 -0.110749 0.180858
v 0.091173 -0.125927 0.217017
v 0.077311 -0.109858 0.198098
v 0.115218 -0.157105 0.231915
v 0.122861 -0.167066 0.234820
v 0.134290 -0.182693 0.237859
v 0.078910 -0.108291 0.209338
v 0.074576 -0.112116 -0.081618
v 0.071415 -0.111397 -0.054992
v 0.069807 -0.112460 -0.001446
v 0.071962 -0.113219 -0.027061
v 0.071020 -0.113811 0.026194
v 0.070114 -0.113458 0.064964
v 0.070092 -0.112626 0.110345
v 0.132952 -0.183447 0.084406
v 0.130369 -0.185195 0.135625
v 0.143011 -0.175551 -0.027758
v 0.131229 -0.184338 0.113538
v 0.136850 -0.180702 0.035251
v 0.134157 -0.182300 0.065200
v 0.138450 -0.179305 0.017812
v 0.141201 -0.177111 -0.009865
v 0.131865 -0.184000 0.214324
v 0.071387 -0.113580 0.132731
v 0.073384 -0.113201 -0.472461
v 0.084691 -0.121371 -0.472461
v 0.072956 -0.113346 -0.459453
v 0.147228 -0.162037 -0.087631
v 0.121000 -0.151295 -0.073083
v 0.143382 -0.159202 -0.088100
v 0.150736 -0.164621 -0.087289
v 0.154210 -0.167189 -0.086931
v 0.152178 -0.169047 -0.080800
v 0.139583 -0.156325 -0.088621
v 0.120406 -0.147382 -0.426347
v 0.095829 -0.129452 -0.472461
v 0.120406 -0.147382 -0.103551
v 0.120866 -0.146923 -0.098614
v 0.115966 -0.144849 -0.090503
v 0.120406 -0.147382 -0.118922
v 0.120406 -0.147382 -0.472461
v 0.120406 -0.147382 -0.457089
v 0.108127 -0.138409 -0.472461
v 0.070718 -0.114919 -0.394416
v 0.120406 -0.147382 -0.395604
v 0.069962 -0.115227 -0.381408
v 0.070956 -0.114602 -0.407423
v 0.072227 -0.114022 -0.290356
v 0.094975 -0.133213 -0.288855
v 0.072635 -0.113548 -0.277349
v 0.071498 -0.114262 -0.303364
v 0.072630 -0.113736 -0.446446
v 0.071893 -0.114014 -0.433438
v 0.071824 -0.114308 -0.342386
v 0.120406 -0.147382 -0.334119
v 0.071539 -0.114236 -0.329378
v 0.070508 -0.114884 -0.355393
v 0.071527 -0.114472 -0.420431
v 0.070571 -0.115001 -0.368401
v 0.090632 -0.132125 -0.376755
v 0.073091 -0.113409 -0.264341
v 0.104076 -0.139933 -0.265445
v 0.073175 -0.113208 -0.251334
v 0.075220 -0.111924 -0.147274
v 0.093693 -0.129457 -0.112796
v 0.075685 -0.111568 -0.134267
v 0.074773 -0.112216 -0.160281
v 0.076349 -0.111214 -0.121259
v 0.076761 -0.110805 -0.108252
v 0.071652 -0.114403 -0.316371
v 0.074054 -0.112726 -0.212311
v 0.073857 -0.112780 -0.225319
v 0.094737 -0.130580 -0.254785
v 0.074022 -0.112676 -0.199304
v 0.146798 -0.173711 -0.061415
v 0.148172 -0.172563 -0.068132
v 0.150275 -0.170736 -0.074809
v 0.122213 -0.145575 -0.094013
v 0.126540 -0.147825 -0.091832
v 0.106657 -0.141569 -0.120719
v 0.120406 -0.147382 -0.134293
v 0.120406 -0.147382 -0.149664
v 0.120406 -0.147382 -0.165036
v 0.074479 -0.112389 -0.173289
v 0.120406 -0.147382 -0.180407
v 0.120406 -0.147382 -0.195778
v 0.120406 -0.147382 -0.211149
v 0.120406 -0.147382 -0.226521
v 0.120406 -0.147382 -0.241892
v 0.120406 -0.147382 -0.257263
v 0.120406 -0.147382 -0.272634
v 0.104169 -0.140680 -0.280926
v 0.120406 -0.147382 -0.288006
v 0.120406 -0.147382 -0.349490
v 0.120406 -0.147382 -0.364862
v 0.120406 -0.147382 -0.380233
v 0.120406 -0.147382 -0.441718
v 0.135354 -0.153086 -0.089196
v 0.145800 -0.174416 -0.050901
v 0.144507 -0.174958 -0.039694
v 0.131068 -0.149873 -0.089874
v 0.120406 -0.147382 -0.303377
v 0.120406 -0.147382 -0.318748
v 0.120406 -0.147382 -0.410975
v 0.074056 -0.112724 -0.186296
v 0.074692 -0.112391 -0.166207
v 0.103572 -0.135089 -0.472461
v 0.075878 -0.111423 -0.096467
v 0.073540 -0.113091 -0.238326
v 0.130632 -0.184996 0.188125
v 0.129799 -0.185385 0.163220
v 0.074429 -0.110749 0.180858
v 0.077311 -0.109858 0.198098
v 0.074576 -0.112116 -0.081618
v 0.071415 -0.111397 -0.054992
v 0.069807 -0.112460 -0.001446
v 0.071962 -0.113219 -0.027061
v 0.071020 -0.113811 0.026194
v 0.070114 -0.113458 0.064964
v 0.132952 -0.183447 0.084406
v 0.070092 -0.112626 0.110345
v 0.130369 -0.185195 0.135625
v 0.143011 -0.175551 -0.027758
v 0.131229 -0.184338 0.113538
v 0.136850 -0.180702 0.035251
v 0.134157 -0.182300 0.065200
v 0.138450 -0.179305 0.017812
v 0.141201 -0.177111 -0.009865
vn -0.5854 -0.8102 -0.0283
vn -0.5210 -0.7683 -0.3719
vn -0.5177 -0.7560 -0.4006
vn -0.5176 -0.7560 -0.4007
vn -0.5178 -0.7560 -0.4006
vn -0.5245 -0.7615 -0.3808
vn -0.5246 -0.7612 -0.3813
vn -0.5285 -0.7591 -0.3800
vn -0.5758 -0.8175 -0.0151
vn -0.5873 -0.8094 -0.0017
vn -0.5883 -0.8086 -0.0019
vn -0.5879 -0.8089 -0.0012
vn -0.2259 -0.9678 0.1110
vn -0.4955 -0.8686 0.0000
vn -0.5900 -0.8074 0.0000
vn -0.5899 -0.8075 -0.0005
vn -0.5471 -0.8355 -0.0516
vn -0.5472 -0.8364 -0.0304
vn -0.5468 -0.8367 -0.0306
vn -0.5470 -0.8365 -0.0313
vn -0.6459 -0.7618 0.0492
vn -0.6459 -0.7618 0.0491
vn -0.6459 -0.7619 0.0480
vn -0.6459 -0.7617 0.0503
vn -0.5643 -0.8242 -0.0485
vn -0.5622 -0.8260 -0.0401
vn -0.5611 -0.8265 -0.0451
vn -0.5644 -0.8246 -0.0389
vn -0.5618 -0.8272 -0.0077
vn -0.5618 -0.8273 -0.0068
vn -0.5618 -0.8273 -0.0067
vn -0.5711 -0.8155 0.0939
vn -0.5617 -0.8261 -0.0449
vn -0.6483 -0.7613 0.0037
vn -0.6382 -0.7687 0.0432
vn -0.6499 -0.7599 0.0159
vn -0.6479 -0.7613 0.0248
vn -0.6473 -0.7620 0.0167
vn -0.6494 -0.7599 0.0309
vn -0.6508 -0.7585 0.0336
vn -0.6474 -0.7614 0.0324
vn -0.7247 -0.6876 0.0438
vn -0.7270 -0.6854 0.0406
vn -0.7304 -0.6815 0.0448
vn -0.7265 -0.6860 0.0404
vn -0.7371 -0.6743 0.0456
vn -0.7364 -0.6742 0.0559
vn -0.7356 -0.6751 0.0555
vn -0.7343 -0.6774 0.0446
vn -0.5617 -0.8273 -0.0057
vn -0.5760 -0.8146 -0.0686
vn -0.6285 -0.7778 0.0010
vn -0.6381 -0.7698 0.0129
vn -0.6519 -0.7583 0.0013
vn -0.7971 -0.5466 -0.2565
vn -0.5474 -0.7472 -0.3769
vn -0.5458 -0.7484 -0.3768
vn -0.5491 -0.7432 -0.3822
vn -0.5369 -0.7519 -0.3825
vn 0.0400 -0.9620 0.2701
vn -0.2941 -0.8938 -0.3386
vn -0.3894 -0.9211 0.0000
vn -0.6061 -0.7954 0.0000
vn -0.5572 -0.8304 0.0000
vn -0.6018 -0.7979 -0.0340
vn -0.5477 -0.8367 0.0000
vn -0.5087 -0.8171 0.2713
vn -0.4150 -0.9098 0.0000
vn -0.3815 -0.9244 0.0000
vn -0.3994 -0.9158 0.0418
vn -0.4560 -0.8900 0.0000
vn -0.5274 -0.7570 -0.3857
vn -0.5754 -0.8102 0.1119
vn -0.6703 -0.7335 -0.1128
vn -0.2925 -0.9144 -0.2799
vn -0.2956 -0.9206 -0.2552
vn -0.7343 -0.6422 -0.2198
vn -0.5172 -0.7692 -0.3753
vn -0.4632 -0.8471 -0.2606
vn -0.4867 -0.8736 0.0000
vn -0.5585 -0.8295 0.0000
vn -0.5468 -0.8366 -0.0324
vn -0.4018 -0.8905 -0.2134
vn 0.7018 -0.7124 -0.0045
vn 0.7013 -0.7128 -0.0044
vn -0.7139 -0.6996 0.0304
vn -0.6999 -0.7140 0.0208
vn -0.5876 -0.8084 0.0344
vn -0.5163 -0.7792 -0.3554
vn -0.5887 -0.8083 -0.0006
vn -0.6470 -0.7618 0.0329
vn -0.6478 -0.7610 0.0360
vn -0.5706 -0.7738 -0.2751
vn -0.7499 -0.6545 -0.0962
vn -0.7513 -0.6536 -0.0915
vn -0.7483 -0.6572 -0.0905
vn -0.3890 -0.7584 0.5229
vn -0.5593 -0.8289 -0.0135
vn -0.6203 -0.7836 0.0339
vn -0.7826 -0.6214 0.0359
vn -0.7907 -0.6092 0.0604
vn -0.7646 -0.6388 0.0859
vn -0.8351 -0.5242 0.1667
vn -0.8031 -0.5879 0.0969
vn -0.8113 -0.5749 0.1062
vn -0.8145 -0.5692 0.1125
vn -0.8123 -0.5717 0.1154
vn -0.8429 -0.5033 0.1901
vn -0.7503 -0.6540 -0.0963
vn -0.7290 -0.6811 -0.0682
vn -0.6305 -0.7756 -0.0301
vn -0.6291 -0.7764 -0.0365
vn -0.6315 -0.7748 -0.0307
vn -0.6146 -0.7888 -0.0116
vn -0.6093 -0.7929 -0.0070
vn -0.6067 -0.7949 -0.0108
vn -0.6088 -0.7933 -0.0070
vn -0.6348 -0.7717 -0.0379
vn -0.7457 -0.6662 0.0119
vn -0.7455 -0.6663 0.0142
vn -0.7452 -0.6667 0.0121
vn -0.7713 -0.6361 -0.0203
vn -0.3611 -0.9280 -0.0913
vn -0.7697 -0.6361 -0.0547
vn -0.7696 -0.6362 -0.0551
vn -0.7711 -0.6343 -0.0553
vn -0.7706 -0.6341 -0.0650
vn -0.7282 -0.6778 -0.1016
vn -0.7308 -0.6718 -0.1209
vn -0.7333 -0.6672 -0.1308
vn -0.7327 -0.6696 -0.1215
vn -0.7363 -0.6646 -0.1270
vn -0.7349 -0.6652 -0.1323
vn -0.7271 -0.6762 -0.1188
vn -0.6478 -0.7612 -0.0301
vn -0.7293 -0.6787 -0.0863
vn -0.7451 -0.6668 0.0147
vn -0.6264 -0.7795 0.0021
vn -0.3753 -0.8345 0.4034
vn -0.6233 -0.7818 0.0196
vn -0.6474 -0.7618 0.0250
vn 0.8123 0.5717 -0.1154
vn 0.8136 0.5699 -0.1157
vn 0.8123 0.5718 -0.1146
vn 0.8031 0.5879 -0.0969
vn 0.8113 0.5749 -0.1062
vn 0.5854 0.8102 0.0283
vn 0.5210 0.7683 0.3719
vn 0.5268 0.7653 0.3699
vn 0.5216 0.7661 0.3756
vn 0.5176 0.7560 0.4007
vn 0.5178 0.7560 0.4006
vn 0.5285 0.7591 0.3801
vn 0.5758 0.8175 0.0151
vn 0.5873 0.8094 0.0017
vn 0.5889 0.8082 0.0005
vn 0.5883 0.8086 0.0019
vn 0.2259 0.9678 -0.1110
vn 0.4955 0.8686 0.0000
vn 0.5900 0.8074 0.0000
vn 0.5471 0.8355 0.0516
vn 0.5472 0.8364 0.0304
vn 0.5470 0.8365 0.0313
vn 0.5468 0.8367 0.0306
vn 0.6459 0.7618 -0.0492
vn 0.6459 0.7619 -0.0480
vn 0.6459 0.7618 -0.0491
vn 0.6459 0.7617 -0.0503
vn 0.5643 0.8242 0.0485
vn 0.5611 0.8265 0.0451
vn 0.5622 0.8260 0.0401
vn 0.5644 0.8246 0.0389
vn 0.5618 0.8272 0.0077
vn 0.5618 0.8273 0.0067
vn 0.5618 0.8273 0.0068
vn 0.5711 0.8155 -0.0939
vn 0.5617 0.8261 0.0449
vn 0.6483 0.7613 -0.0037
vn 0.6382 0.7687 -0.0432
vn 0.6499 0.7599 -0.0159
vn 0.6473 0.7620 -0.0167
vn 0.6479 0.7613 -0.0248
vn 0.6494 0.7599 -0.0309
vn 0.7248 0.6876 -0.0437
vn 0.7304 0.6815 -0.0448
vn 0.7270 0.6854 -0.0406
vn 0.7265 0.6860 -0.0404
vn 0.7371 0.6743 -0.0455
vn 0.7356 0.6751 -0.0555
vn 0.7364 0.6742 -0.0559
vn 0.7343 0.6774 -0.0446
vn 0.5617 0.8273 0.0057
vn 0.5760 0.8146 0.0686
vn 0.6285 0.7778 -0.0010
vn 0.6381 0.7698 -0.0129
vn 0.6519 0.7583 -0.0013
vn 0.7971 0.5466 0.2565
vn 0.5474 0.7472 0.3769
vn 0.5491 0.7432 0.3822
vn 0.5458 0.7485 0.3768
vn 0.5369 0.7519 0.3825
vn -0.0400 0.9620 -0.2701
vn 0.2941 0.8938 0.3386
vn 0.3894 0.9211 0.0000
vn 0.6061 0.7954 0.0000
vn 0.5572 0.8304 0.0000
vn 0.6018 0.7979 0.0340
vn 0.5477 0.8367 0.0000
vn 0.5087 0.8171 -0.2713
vn 0.4150 0.9098 0.0000
vn 0.3815 0.9244 0.0000
vn 0.3994 0.9158 -0.0418
vn 0.4560 0.8900 0.0000
vn 0.5274 0.7570 0.3857
vn 0.5754 0.8102 -0.1119
vn 0.6703 0.7335 0.1128
vn 0.2925 0.9144 0.2799
vn 0.2956 0.9206 0.2552
vn 0.7343 0.6422 0.2198
vn 0.5172 0.7692 0.3753
vn 0.4632 0.8471 0.2606
vn 0.4867 0.8736 0.0000
vn 0.5585 0.8295 0.0000
vn 0.5468 0.8366 0.0324
vn 0.4018 0.8905 0.2134
vn -0.7018 0.7124 0.0045
vn -0.7013 0.7128 0.0044
vn 0.7139 0.6996 -0.0304
vn 0.6999 0.7140 -0.0208
vn 0.5876 0.8084 -0.0344
vn 0.5163 0.7792 0.3554
vn 0.5890 0.8081 0.0004
vn 0.5887 0.8083 0.0006
vn 0.6470 0.7618 -0.0329
vn 0.6478 0.7610 -0.0360
vn 0.6478 0.7611 -0.0324
vn 0.6502 0.7590 -0.0349
vn 0.5706 0.7738 0.2751
vn 0.7499 0.6545 0.0962
vn 0.7483 0.6572 0.0905
vn 0.7513 0.6536 0.0915
vn 0.3890 0.7584 -0.5229
vn 0.5593 0.8289 0.0135
vn 0.6203 0.7836 -0.0339
vn 0.7826 0.6214 -0.0359
vn 0.7907 0.6092 -0.0604
vn 0.7646 0.6388 -0.0859
vn 0.8351 0.5242 -0.1667
vn 0.8145 0.5692 -0.1125
vn 0.8429 0.5033 -0.1901
vn 0.7503 0.6540 0.0963
vn 0.7290 0.6811 0.0682
vn 0.6305 0.7756 0.0301
vn 0.6315 0.7748 0.0307
vn 0.6292 0.7764 0.0365
vn 0.6146 0.7888 0.0116
vn 0.6067 0.7949 0.0108
vn 0.6093 0.7929 0.0070
vn 0.6088 0.7933 0.0070
vn 0.6348 0.7717 0.0379
vn 0.7457 0.6662 -0.0119
vn 0.7452 0.6667 -0.0121
vn 0.7455 0.6663 -0.0142
vn 0.7713 0.6361 0.0203
vn 0.3611 0.9280 0.0913
vn 0.7697 0.6361 0.0547
vn 0.7711 0.6343 0.0554
vn 0.7696 0.6362 0.0551
vn 0.7706 0.6341 0.0650
vn 0.7282 0.6778 0.1016
vn 0.7308 0.6718 0.1209
vn 0.7327 0.6696 0.1215
vn 0.7333 0.6672 0.1309
vn 0.7363 0.6646 0.1270
vn 0.7349 0.6652 0.1323
vn 0.7271 0.6762 0.1188
vn 0.6478 0.7612 0.0301
vn 0.7293 0.6787 0.0863
vn 0.7451 0.6668 -0.0147
vn 0.6264 0.7795 -0.0021
vn 0.3753 0.8345 -0.4034
vn 0.6233 0.7818 -0.0196
vn 0.6474 0.7618 -0.0250
usemtl None.122
s 1
f 1//1 3//1 2//1
f 4//2 6//2 5//2
f 7//3 9//4 8//3
f 7//3 8//3 4//5
f 5//6 6//7 10//8
f 3//9 11//9 2//9
f 3//10 12//11 11//12
f 13//13 15//13 14//13
f 13//14 14//14 16//14
f 17//15 19//15 18//16
f 20//17 22//17 21//17
f 20//18 23//19 22//20
f 24//21 26//22 25//23
f 24//21 27//24 26//22
f 28//25 11//26 29//27
f 28//25 2//28 11//26
f 30//29 32//30 31//31
f 30//32 33//32 32//32
f 34//33 29//27 11//26
f 35//34 36//34 33//34
f 35//35 21//35 36//35
f 37//36 39//37 38//38
f 37//39 25//40 39//41
f 40//42 42//43 41//44
f 40//42 43//45 42//43
f 44//46 41//47 42//48
f 44//46 42//48 45//49
f 46//50 31//31 32//30
f 46//51 32//51 26//51
f 46//52 26//52 27//52
f 47//53 49//53 48//53
f 47//54 48//54 50//54
f 51//55 4//55 52//55
f 52//56 4//57 53//58
f 8//59 53//58 4//57
f 15//60 54//60 14//60
f 54//61 55//61 14//61
f 16//62 57//62 56//62
f 56//62 57//62 58//62
f 59//63 61//63 60//63
f 59//64 58//64 42//64
f 59//65 42//65 61//65
f 60//63 61//63 62//63
f 62//63 61//63 63//63
f 64//66 48//66 65//66
f 65//66 48//66 66//66
f 66//67 48//67 39//67
f 66//68 39//68 67//68
f 67//69 69//69 68//69
f 67//70 39//70 69//70
f 70//71 32//71 36//71
f 70//71 36//71 71//71
f 71//71 36//71 72//71
f 72//71 36//71 22//71
f 19//15 73//15 18//16
f 10//8 6//7 74//72
f 36//73 32//73 33//73
f 51//74 76//74 75//74
f 55//75 77//75 14//75
f 77//76 6//76 14//76
f 58//77 57//77 42//77
f 6//78 77//78 74//78
f 68//79 69//79 26//79
f 68//80 26//80 78//80
f 78//80 26//80 79//80
f 34//81 11//81 80//81
f 34//82 22//20 23//19
f 34//81 80//81 22//81
f 42//83 14//83 6//83
f 64//66 63//66 48//66
f 81//84 50//85 61//85
f 42//86 43//86 82//86
f 42//87 82//87 61//87
f 73//15 11//12 18//16
f 63//88 61//88 48//88
f 4//89 51//89 6//89
f 18//16 11//12 83//90
f 11//12 12//11 83//90
f 69//91 39//41 26//92
f 26//92 39//41 25//40
f 22//93 36//93 21//93
f 42//94 84//95 45//96
f 57//97 16//97 42//97
f 42//98 16//98 14//98
f 49//99 85//99 48//99
f 86//100 88//100 87//100
f 86//101 89//101 88//101
f 88//102 91//102 90//102
f 90//103 91//103 92//103
f 88//104 94//104 93//104
f 88//105 93//105 91//105
f 94//106 88//106 89//106
f 94//107 89//107 95//107
f 96//108 92//108 91//108
f 97//109 84//95 42//94
f 97//110 42//110 98//110
f 99//111 100//112 6//113
f 99//114 6//115 101//116
f 101//116 6//115 102//117
f 100//112 98//118 6//113
f 102//119 104//120 103//121
f 87//122 88//122 105//122
f 75//123 106//123 51//123
f 105//124 88//125 107//126
f 107//126 88//125 104//127
f 108//128 109//128 102//128
f 108//129 102//130 110//131
f 110//131 102//130 111//132
f 106//133 111//132 102//130
f 106//134 102//134 51//134
f 102//135 6//135 51//135
f 102//136 109//136 104//136
f 104//120 88//137 103//121
f 98//138 42//138 6//138
f 26//80 32//80 79//80
f 48//139 85//139 39//139
f 61//140 50//140 48//140
f 39//37 85//141 38//38
f 95//142 112//143 94//144
f 93//145 94//145 113//145
f 93//146 113//146 91//146
f 114//147 116//147 115//147
f 117//148 119//149 118//150
f 120//151 122//151 121//151
f 120//152 117//152 122//152
f 119//149 123//153 118//150
f 115//154 116//154 124//154
f 115//155 124//156 125//157
f 126//158 128//158 127//158
f 126//159 129//159 128//159
f 130//160 132//160 131//160
f 133//161 135//161 134//161
f 133//162 134//163 136//164
f 137//165 139//166 138//167
f 137//165 138//167 140//168
f 141//169 142//170 124//171
f 141//169 124//171 116//172
f 143//173 145//174 144//175
f 143//176 144//176 146//176
f 147//177 124//171 142//170
f 148//178 146//178 149//178
f 148//179 149//179 135//179
f 150//180 152//181 151//182
f 150//183 151//183 139//183
f 153//184 155//185 154//186
f 153//184 154//186 156//187
f 157//188 154//189 155//190
f 157//188 158//191 154//189
f 159//192 144//175 145//174
f 159//193 138//193 144//193
f 159//194 140//194 138//194
f 160//195 162//195 161//195
f 160//196 163//196 162//196
f 164//197 165//197 117//197
f 165//198 166//199 117//200
f 122//201 117//200 166//199
f 127//202 128//202 167//202
f 167//203 128//203 168//203
f 129//204 170//204 169//204
f 170//204 171//204 169//204
f 172//205 174//205 173//205
f 172//206 154//206 171//206
f 172//207 173//207 154//207
f 174//205 175//205 173//205
f 175//205 176//205 173//205
f 177//208 178//208 162//208
f 178//208 179//208 162//208
f 179//209 151//209 162//209
f 179//210 180//210 151//210
f 180//211 182//211 181//211
f 180//212 181//212 151//212
f 183//213 149//213 144//213
f 183//213 184//213 149//213
f 184//213 185//213 149//213
f 185//213 134//213 149//213
f 131//160 132//160 186//160
f 123//153 187//214 118//150
f 149//215 146//215 144//215
f 164//216 189//216 188//216
f 168//217 128//217 190//217
f 190//218 128//218 118//218
f 171//219 154//219 169//219
f 118//220 187//220 190//220
f 182//221 138//221 181//221
f 182//222 191//222 138//222
f 191//222 192//222 138//222
f 147//223 193//223 124//223
f 147//224 136//164 134//163
f 147//223 134//223 193//223
f 154//225 118//225 128//225
f 177//208 162//208 176//208
f 194//226 173//227 163//227
f 154//228 195//228 156//228
f 154//229 173//229 195//229
f 186//160 132//160 124//160
f 176//230 162//230 173//230
f 117//231 118//231 164//231
f 132//232 196//233 124//156
f 124//156 196//233 125//157
f 181//234 138//235 151//236
f 138//235 139//237 151//236
f 134//238 135//238 149//238
f 154//239 158//240 197//241
f 169//242 154//242 129//242
f 154//243 128//243 129//243
f 161//244 162//244 198//244
f 199//245 200//245 113//245
f 199//246 113//246 112//246
f 113//247 201//247 91//247
f 201//248 202//248 91//248
f 94//144 112//143 113//249
f 96//250 91//250 202//250
f 203//251 154//239 197//241
f 203//252 204//252 154//252
f 205//253 118//254 206//255
f 205//256 207//257 118//258
f 207//257 208//259 118//258
f 206//255 118//254 204//260
f 208//261 210//262 209//263
f 200//264 211//264 113//264
f 189//265 164//265 212//265
f 211//266 213//267 113//268
f 213//267 209//269 113//268
f 214//270 208//270 215//270
f 214//271 216//272 208//273
f 216//272 217//274 208//273
f 212//275 208//273 217//274
f 212//276 164//276 208//276
f 208//277 164//277 118//277
f 208//278 209//278 215//278
f 209//263 210//262 113//279
f 204//280 118//280 154//280
f 138//222 192//222 144//222
f 162//281 151//281 198//281
f 173//282 162//282 163//282
f 151//182 152//181 198//283
