# Blender v2.79 (sub 0) OBJ File: ''
# www.blender.org
mtllib crack_restart_keyway_150.mtl
o crack_restart_keyway_150
v 0.073499 -0.113119 -0.472461
v 0.072762 -0.113468 -0.459453
v 0.085036 -0.121155 -0.472461
v 0.120406 -0.147382 -0.472461
v 0.109138 -0.137603 -0.472461
v 0.120406 -0.147382 -0.457089
v 0.070607 -0.114981 -0.394416
v 0.070407 -0.114948 -0.381408
v 0.070894 -0.114641 -0.407423
v 0.072566 -0.113781 -0.446446
v 0.092063 -0.125636 -0.472461
v 0.071615 -0.114188 -0.433438
v 0.071272 -0.114613 -0.420431
v 0.070866 -0.114837 -0.368401
v 0.070780 -0.114838 -0.374905
v 0.120406 -0.147382 -0.257263
v 0.120406 -0.147382 -0.264949
v 0.111821 -0.145264 -0.263090
v 0.115232 -0.146425 -0.256356
v 0.120406 -0.147382 -0.248432
v 0.120406 -0.147382 -0.272634
v 0.109709 -0.144337 -0.268700
v 0.120406 -0.147382 -0.280320
v 0.107571 -0.143262 -0.275232
v 0.120406 -0.147382 -0.288006
v 0.105456 -0.142064 -0.281412
v 0.120406 -0.147382 -0.303377
v 0.120406 -0.147382 -0.295691
v 0.120406 -0.147382 -0.318748
v 0.120406 -0.147382 -0.334119
v 0.120406 -0.147382 -0.349490
v 0.120406 -0.147382 -0.364862
v 0.120406 -0.147382 -0.380233
v 0.120406 -0.147382 -0.395604
v 0.120406 -0.147382 -0.410975
v 0.120406 -0.147382 -0.426347
v 0.120406 -0.147382 -0.441718
v 0.089110 -0.131623 -0.320637
v 0.091678 -0.133746 -0.314045
v 0.109138 -0.137603 -0.472461
v 0.086912 -0.129821 -0.325617
v 0.103107 -0.133114 -0.472461
v 0.076902 -0.120840 -0.348976
v 0.078502 -0.122422 -0.345762
v 0.075516 -0.119463 -0.351802
v 0.070585 -0.114904 -0.377855
v 0.096305 -0.137305 -0.302784
v 0.093670 -0.135334 -0.309516
v 0.101829 -0.140628 -0.290144
v 0.070837 -0.114803 -0.361897
v 0.071060 -0.114581 -0.357661
v 0.073202 -0.116835 -0.355297
v 0.098524 -0.138812 -0.297686
v 0.120406 -0.147382 -0.264949
v 0.120406 -0.147382 -0.257263
v 0.080713 -0.124468 -0.340115
v 0.082846 -0.126424 -0.335363
v 0.084730 -0.128013 -0.330281
v 0.070837 -0.114803 -0.361897
v 0.070866 -0.114837 -0.368401
v 0.073499 -0.113119 -0.472461
v 0.085036 -0.121155 -0.472461
v 0.072762 -0.113468 -0.459453
v 0.120406 -0.147382 -0.472461
v 0.120406 -0.147382 -0.457089
v 0.070607 -0.114981 -0.394416
v 0.070407 -0.114948 -0.381408
v 0.070894 -0.114641 -0.407423
v 0.072566 -0.113781 -0.446446
v 0.092063 -0.125636 -0.472461
v 0.071615 -0.114188 -0.433438
v 0.071272 -0.114613 -0.420431
v 0.070780 -0.114838 -0.374905
v 0.120406 -0.147382 -0.272634
v 0.120406 -0.147382 -0.280320
v 0.120406 -0.147382 -0.288006
v 0.120406 -0.147382 -0.303377
v 0.120406 -0.147382 -0.295691
v 0.120406 -0.147382 -0.318748
v 0.120406 -0.147382 -0.334119
v 0.120406 -0.147382 -0.349490
v 0.120406 -0.147382 -0.364862
v 0.120406 -0.147382 -0.380233
v 0.120406 -0.147382 -0.395604
v 0.120406 -0.147382 -0.410975
v 0.120406 -0.147382 -0.426347
v 0.120406 -0.147382 -0.441718
v 0.103107 -0.133114 -0.472461
v 0.070585 -0.114904 -0.377855
v 0.099936 -0.139607 -0.294691
vn -0.5707 -0.8194 -0.0543
vn -0.6554 -0.7552 0.0000
vn -0.5149 -0.8572 -0.0057
vn -0.5563 -0.8303 -0.0340
vn -0.5467 -0.8368 -0.0284
vn -0.5830 -0.8096 -0.0680
vn -0.5363 -0.8439 -0.0174
vn -0.5599 -0.8275 -0.0418
vn -0.4977 -0.8673 0.0067
vn -0.2395 -0.9709 0.0000
vn -0.1819 -0.9833 0.0000
vn -0.1934 -0.9786 -0.0707
vn -0.2738 -0.9618 0.0000
vn -0.3056 -0.9521 0.0000
vn -0.2939 -0.9539 -0.0608
vn -0.3351 -0.9422 0.0000
vn -0.6555 -0.7552 0.0000
vn -0.5688 -0.8213 -0.0453
vn -0.5645 -0.8243 -0.0424
vn -0.5620 -0.8258 -0.0461
vn 0.5688 0.8213 0.0453
vn 0.5621 0.8258 0.0461
vn 0.5664 0.8230 0.0426
vn -0.5729 -0.8185 -0.0433
vn 0.5728 0.8183 0.0477
vn 0.0000 0.0000 -1.0000
vn -0.6366 -0.7687 -0.0618
vn -0.6363 -0.7690 -0.0617
vn -0.6364 -0.7688 -0.0626
vn -0.6370 -0.7684 -0.0620
vn -0.5376 -0.8431 -0.0091
vn -0.4450 -0.8949 0.0334
vn -0.5729 -0.8174 -0.0604
vn -0.4170 -0.9077 0.0479
vn -0.5330 -0.8452 -0.0388
vn 0.5330 0.8452 0.0388
vn -0.3788 -0.9251 -0.0270
vn -0.5628 -0.8255 -0.0419
vn -0.3446 -0.9387 -0.0112
vn -0.7604 -0.6452 0.0739
vn -0.6534 -0.7570 0.0010
vn -0.3524 -0.9280 -0.1209
vn 0.5628 0.8255 0.0419
vn 0.2395 0.9709 0.0000
vn 0.1934 0.9786 0.0707
vn -0.2522 -0.9655 -0.0646
vn 0.2522 0.9655 0.0646
vn -0.6089 -0.7915 -0.0527
vn -0.6092 -0.7913 -0.0523
vn -0.6090 -0.7917 -0.0490
vn -0.5734 -0.8181 -0.0440
vn -0.5794 -0.8140 -0.0404
vn -0.5734 -0.8181 -0.0432
vn -0.7775 -0.6275 0.0429
vn -0.6049 -0.7946 -0.0511
vn -0.5790 -0.8141 -0.0447
vn 0.6091 0.7913 0.0523
vn 0.6089 0.7915 0.0527
vn 0.6090 0.7917 0.0490
vn 0.5734 0.8181 0.0432
vn 0.5794 0.8140 0.0403
vn 0.1819 0.9833 0.0000
vn 0.6363 0.7690 0.0617
vn 0.6366 0.7687 0.0618
vn 0.6364 0.7688 0.0624
vn 0.7604 0.6452 -0.0739
vn 0.6534 0.7570 -0.0010
vn 0.7774 0.6275 -0.0429
vn 0.6370 0.7684 0.0620
vn 0.5707 0.8194 0.0543
vn 0.6554 0.7552 0.0000
vn 0.5149 0.8572 0.0057
vn 0.5563 0.8303 0.0340
vn 0.5467 0.8368 0.0284
vn 0.5830 0.8096 0.0680
vn 0.5363 0.8439 0.0174
vn 0.5599 0.8275 0.0418
vn 0.4977 0.8673 -0.0067
vn 0.2738 0.9618 0.0000
vn 0.3056 0.9521 0.0000
vn 0.2939 0.9539 0.0608
vn 0.3351 0.9422 0.0000
vn 0.6555 0.7552 0.0000
vn 0.0000 0.0000 1.0000
vn 0.5376 0.8431 0.0091
vn 0.4450 0.8949 -0.0334
vn 0.5729 0.8174 0.0604
vn 0.4170 0.9077 -0.0479
vn 0.3788 0.9251 0.0270
vn 0.3446 0.9387 0.0112
vn 0.3524 0.9280 0.1209
vn 0.6049 0.7946 0.0511
vn 0.6082 0.7922 0.0504
vn 0.3573 0.9307 0.0786
vn 0.3298 0.9415 0.0696
vn 0.3570 0.9321 0.0607
vn -0.6082 -0.7922 -0.0504
vn -0.3573 -0.9307 -0.0786
vn -0.3298 -0.9415 -0.0696
vn -0.3570 -0.9321 -0.0607
usemtl None.013
s 1
f 1//1 3//1 2//1
f 4//2 6//2 5//2
f 7//3 5//3 8//3
f 7//4 9//4 5//4
f 10//5 2//5 11//5
f 10//6 11//6 12//6
f 13//7 5//7 9//7
f 13//8 12//8 5//8
f 14//9 15//9 5//9
f 16//10 18//10 17//10
f 16//11 20//11 19//11
f 16//12 19//12 18//12
f 21//13 17//13 22//13
f 21//14 24//14 23//14
f 21//15 22//15 24//15
f 25//16 23//16 26//16
f 27//17 28//17 5//2
f 27//17 5//2 29//2
f 29//2 5//2 30//2
f 30//2 5//2 31//2
f 31//2 5//2 32//2
f 32//2 5//2 33//2
f 33//2 5//2 34//2
f 34//2 5//2 35//2
f 35//2 5//2 36//2
f 36//2 5//2 37//2
f 6//2 37//2 5//2
f 38//18 5//19 39//20
f 38//21 39//22 40//23
f 38//18 41//24 5//19
f 38//21 40//23 41//25
f 5//26 11//26 42//26
f 5//27 44//28 43//29
f 5//27 43//29 45//30
f 2//31 3//31 11//31
f 8//32 5//32 46//32
f 5//33 12//33 11//33
f 5//34 15//34 46//34
f 25//16 26//16 28//16
f 47//35 48//35 5//35
f 47//36 40//36 48//36
f 5//37 28//37 47//37
f 5//19 48//38 39//20
f 26//39 49//39 28//39
f 50//40 52//40 51//40
f 50//41 14//41 52//41
f 47//42 28//42 53//42
f 48//43 40//23 39//22
f 18//44 55//44 54//44
f 18//45 19//45 55//45
f 18//46 22//46 17//46
f 18//47 54//47 22//47
f 5//48 57//49 56//50
f 5//51 58//52 57//53
f 45//54 52//54 14//54
f 44//55 5//48 56//50
f 5//51 41//56 58//52
f 57//57 40//58 56//59
f 57//60 58//61 40//23
f 41//25 40//23 58//61
f 19//62 20//62 55//62
f 44//63 40//64 43//65
f 51//66 52//66 59//66
f 52//67 60//67 59//67
f 52//68 45//68 60//68
f 45//69 43//65 40//64
f 61//70 63//70 62//70
f 64//71 40//71 65//71
f 66//72 67//72 40//72
f 66//73 40//73 68//73
f 69//74 70//74 63//74
f 69//75 71//75 70//75
f 72//76 68//76 40//76
f 72//77 40//77 71//77
f 60//78 40//78 73//78
f 74//79 22//79 54//79
f 74//80 75//80 24//80
f 74//81 24//81 22//81
f 76//82 26//82 75//82
f 77//83 40//71 78//83
f 77//83 79//71 40//71
f 79//71 80//71 40//71
f 80//71 81//71 40//71
f 81//71 82//71 40//71
f 82//71 83//71 40//71
f 83//71 84//71 40//71
f 84//71 85//71 40//71
f 85//71 86//71 40//71
f 86//71 87//71 40//71
f 65//71 40//71 87//71
f 40//84 88//84 70//84
f 63//85 70//85 62//85
f 67//86 89//86 40//86
f 40//87 70//87 71//87
f 40//88 89//88 73//88
f 76//82 78//82 26//82
f 40//89 47//89 78//89
f 26//90 78//90 49//90
f 47//91 53//91 78//91
f 44//92 56//59 40//58
f 40//93 60//93 45//93
f 78//94 53//94 90//94
f 75//95 26//95 24//95
f 78//96 90//96 49//96
f 5//97 45//97 14//97
f 28//98 90//98 53//98
f 23//99 24//99 26//99
f 28//100 49//100 90//100
