# Blender v2.79 (sub 0) OBJ File: ''
# www.blender.org
mtllib crack_restart_keyway_475.mtl
o crack_restart_keyway_475
v 0.073512 -0.113110 -0.472461
v 0.072990 -0.113324 -0.459453
v 0.084835 -0.121281 -0.472461
v 0.147219 -0.162043 -0.087639
v 0.127502 -0.150668 -0.086862
v 0.150763 -0.164596 -0.087266
v 0.143343 -0.159225 -0.088138
v 0.131068 -0.149873 -0.089874
v 0.135320 -0.153107 -0.089225
v 0.126540 -0.147825 -0.091832
v 0.152184 -0.169042 -0.080797
v 0.154210 -0.167189 -0.086931
v 0.139541 -0.156351 -0.088653
v 0.120406 -0.147382 -0.103551
v 0.114627 -0.144481 -0.094846
v 0.120866 -0.146923 -0.098614
v 0.093236 -0.127625 -0.100252
v 0.120406 -0.147382 -0.118922
v 0.120406 -0.147382 -0.472461
v 0.108202 -0.138349 -0.472461
v 0.120406 -0.147382 -0.457089
v 0.073501 -0.113118 -0.238326
v 0.104076 -0.139933 -0.265445
v 0.073118 -0.113244 -0.251334
v 0.073911 -0.112746 -0.225319
v 0.072401 -0.113899 -0.290356
v 0.095066 -0.132957 -0.288933
v 0.071641 -0.114172 -0.303364
v 0.072682 -0.113518 -0.277349
v 0.072675 -0.113704 -0.446446
v 0.071868 -0.114029 -0.433438
v 0.120406 -0.147382 -0.426347
v 0.071561 -0.114453 -0.342386
v 0.070585 -0.114835 -0.355393
v 0.071507 -0.114256 -0.329378
v 0.071448 -0.114516 -0.420431
v 0.070806 -0.114871 -0.368401
v 0.070105 -0.115137 -0.381408
v 0.073032 -0.113451 -0.264341
v 0.076532 -0.111099 -0.121259
v 0.075540 -0.111671 -0.134267
v 0.077247 -0.110460 -0.108252
v 0.071630 -0.114415 -0.316371
v 0.074100 -0.112693 -0.212311
v 0.074081 -0.112639 -0.199304
v 0.146586 -0.173897 -0.061442
v 0.148189 -0.172549 -0.068122
v 0.143974 -0.175809 -0.046491
v 0.150140 -0.170855 -0.074883
v 0.122213 -0.145575 -0.094013
v 0.115967 -0.144847 -0.090502
v 0.120406 -0.147382 -0.134293
v 0.106575 -0.141709 -0.120725
v 0.120406 -0.147382 -0.149664
v 0.120406 -0.147382 -0.165036
v 0.120406 -0.147382 -0.180407
v 0.120406 -0.147382 -0.195778
v 0.120406 -0.147382 -0.211149
v 0.120406 -0.147382 -0.226521
v 0.120406 -0.147382 -0.241892
v 0.120406 -0.147382 -0.257263
v 0.120406 -0.147382 -0.272634
v 0.120406 -0.147382 -0.288006
v 0.104155 -0.140704 -0.280923
v 0.120406 -0.147382 -0.334119
v 0.120406 -0.147382 -0.349490
v 0.120406 -0.147382 -0.318748
v 0.120406 -0.147382 -0.364862
v 0.120406 -0.147382 -0.380233
v 0.120406 -0.147382 -0.395604
v 0.118123 -0.146793 -0.083320
v 0.077150 -0.110672 -0.095600
v 0.075162 -0.111728 -0.082916
v 0.120406 -0.147382 -0.303377
v 0.120406 -0.147382 -0.410975
v 0.074460 -0.112466 -0.184865
v 0.074661 -0.112275 -0.173289
v 0.074383 -0.112598 -0.191583
v 0.074849 -0.112287 -0.166531
v 0.074882 -0.112139 -0.160281
v 0.074988 -0.112194 -0.153745
v 0.095945 -0.129359 -0.472461
v 0.120406 -0.147382 -0.441718
v 0.103532 -0.134918 -0.472461
v 0.070752 -0.114900 -0.394416
v 0.070927 -0.114621 -0.407423
v 0.075324 -0.111969 -0.141497
v 0.074975 -0.112077 -0.147274
v 0.068930 -0.114761 -0.028215
v 0.137591 -0.180011 -0.009502
v 0.070025 -0.112506 -0.054990
v 0.065617 -0.114480 -0.001444
v 0.066015 -0.115456 0.015234
v 0.080741 -0.134557 0.040576
v 0.066397 -0.116159 0.027916
v 0.133360 -0.183411 0.023086
v 0.117042 -0.173035 0.059254
v 0.131172 -0.184969 0.044134
v 0.100452 -0.156810 0.052955
v 0.073073 -0.112116 -0.071758
v 0.066015 -0.115456 0.015234
v 0.137591 -0.180011 -0.009502
v 0.130184 -0.185452 0.061392
v 0.131172 -0.184969 0.044134
v 0.073512 -0.113110 -0.472461
v 0.084835 -0.121281 -0.472461
v 0.072990 -0.113324 -0.459453
v 0.147219 -0.162043 -0.087639
v 0.150763 -0.164596 -0.087266
v 0.127502 -0.150668 -0.086862
v 0.143343 -0.159225 -0.088138
v 0.131068 -0.149873 -0.089874
v 0.135320 -0.153107 -0.089225
v 0.126540 -0.147825 -0.091832
v 0.154210 -0.167189 -0.086931
v 0.152184 -0.169042 -0.080797
v 0.139541 -0.156351 -0.088653
v 0.120406 -0.147382 -0.103551
v 0.120866 -0.146923 -0.098614
v 0.114627 -0.144481 -0.094846
v 0.093236 -0.127625 -0.100252
v 0.120406 -0.147382 -0.118922
v 0.120406 -0.147382 -0.472461
v 0.120406 -0.147382 -0.457089
v 0.108202 -0.138349 -0.472461
v 0.073501 -0.113118 -0.238326
v 0.073118 -0.113244 -0.251334
v 0.104076 -0.139933 -0.265445
v 0.073911 -0.112746 -0.225319
v 0.072401 -0.113899 -0.290356
v 0.071641 -0.114172 -0.303364
v 0.095066 -0.132957 -0.288933
v 0.072682 -0.113518 -0.277349
v 0.072675 -0.113704 -0.446446
v 0.120406 -0.147382 -0.426347
v 0.071868 -0.114029 -0.433438
v 0.071561 -0.114453 -0.342386
v 0.070585 -0.114835 -0.355393
v 0.071507 -0.114256 -0.329378
v 0.071448 -0.114516 -0.420431
v 0.070806 -0.114871 -0.368401
v 0.070105 -0.115137 -0.381408
v 0.073032 -0.113451 -0.264341
v 0.076532 -0.111099 -0.121259
v 0.075540 -0.111671 -0.134267
v 0.077247 -0.110460 -0.108252
v 0.071630 -0.114415 -0.316371
v 0.074100 -0.112693 -0.212311
v 0.074081 -0.112639 -0.199304
v 0.146586 -0.173897 -0.061442
v 0.148189 -0.172549 -0.068122
v 0.143974 -0.175809 -0.046491
v 0.150140 -0.170855 -0.074883
v 0.122213 -0.145575 -0.094013
v 0.115967 -0.144847 -0.090502
v 0.106575 -0.141709 -0.120725
v 0.120406 -0.147382 -0.134293
v 0.120406 -0.147382 -0.149664
v 0.120406 -0.147382 -0.165036
v 0.120406 -0.147382 -0.180407
v 0.120406 -0.147382 -0.195778
v 0.120406 -0.147382 -0.211149
v 0.120406 -0.147382 -0.226521
v 0.120406 -0.147382 -0.241892
v 0.120406 -0.147382 -0.257263
v 0.120406 -0.147382 -0.272634
v 0.104155 -0.140704 -0.280923
v 0.120406 -0.147382 -0.288006
v 0.120406 -0.147382 -0.334119
v 0.120406 -0.147382 -0.349490
v 0.120406 -0.147382 -0.318748
v 0.120406 -0.147382 -0.364862
v 0.120406 -0.147382 -0.380233
v 0.120406 -0.147382 -0.395604
v 0.118123 -0.146793 -0.083320
v 0.077150 -0.110672 -0.095600
v 0.075162 -0.111728 -0.082916
v 0.120406 -0.147382 -0.303377
v 0.120406 -0.147382 -0.410975
v 0.074661 -0.112275 -0.173289
v 0.074460 -0.112466 -0.184865
v 0.074383 -0.112598 -0.191583
v 0.074882 -0.112139 -0.160281
v 0.074849 -0.112287 -0.166531
v 0.074988 -0.112194 -0.153745
v 0.095945 -0.129359 -0.472461
v 0.120406 -0.147382 -0.441718
v 0.103532 -0.134918 -0.472461
v 0.070752 -0.114900 -0.394416
v 0.070927 -0.114621 -0.407423
v 0.075324 -0.111969 -0.141497
v 0.074975 -0.112077 -0.147274
v 0.068930 -0.114761 -0.028215
v 0.070025 -0.112506 -0.054990
v 0.065617 -0.114480 -0.001444
v 0.133360 -0.183411 0.023086
v 0.073073 -0.112116 -0.071758
vn 0.5848 0.8104 0.0368
vn 0.5849 0.8103 0.0369
vn 0.5854 0.8098 0.0377
vn 0.4007 0.6505 0.6452
vn 0.4153 0.6786 0.6058
vn 0.3984 0.6531 0.6440
vn 0.1940 0.8672 0.4586
vn 0.5257 0.7506 0.4004
vn 0.4021 0.6478 0.6470
vn 0.3005 0.9467 -0.1160
vn 0.5934 0.7945 0.1292
vn 0.5881 0.8088 0.0000
vn 0.5949 0.8038 0.0000
vn 0.5944 0.8042 0.0007
vn 0.5919 0.8060 0.0039
vn 0.6458 0.7631 -0.0264
vn 0.6455 0.7635 -0.0202
vn 0.6483 0.7612 -0.0173
vn 0.6374 0.7694 -0.0421
vn 0.6446 0.7626 -0.0537
vn 0.6445 0.7638 -0.0363
vn 0.5600 0.8267 0.0554
vn 0.5611 0.8263 0.0494
vn 0.5604 0.8266 0.0522
vn 0.5855 0.8098 0.0378
vn 0.7154 0.6948 -0.0741
vn 0.6313 0.7755 -0.0091
vn 0.5608 0.8265 0.0491
vn 0.5815 0.8135 0.0076
vn 0.7014 0.7109 -0.0523
vn 0.6485 0.7610 -0.0188
vn 0.6486 0.7608 -0.0226
vn 0.5026 0.8612 -0.0762
vn 0.7073 0.7069 -0.0063
vn 0.7466 0.6612 -0.0735
vn 0.6312 0.7755 -0.0150
vn 0.6177 0.7864 0.0038
vn 0.6601 0.7511 -0.0127
vn 0.6705 0.7419 -0.0021
vn 0.5584 0.7770 0.2908
vn 0.6334 0.7459 0.2060
vn 0.5099 0.7571 0.4083
vn 0.6825 0.6379 0.3568
vn 0.1697 0.9312 -0.3225
vn 0.2943 0.8939 0.3382
vn 0.1382 0.9896 0.0407
vn 0.3795 0.9252 0.0000
vn 0.3947 0.8567 -0.3322
vn 0.4150 0.9098 0.0000
vn 0.3801 0.9250 0.0000
vn 0.3987 0.9161 -0.0436
vn 0.4947 0.8691 0.0000
vn 0.3982 0.6349 0.6621
vn 0.4703 0.8022 0.3678
vn 0.7276 0.6857 0.0171
vn 0.7346 0.6589 0.1617
vn 0.7377 0.6533 0.1700
vn 0.7371 0.6545 0.1684
vn 0.2869 0.9429 0.1694
vn 0.5927 0.8045 0.0400
vn 0.5924 0.8046 0.0402
vn 0.5929 0.8043 0.0392
vn 0.4670 0.8384 0.2810
vn 0.6338 0.7622 -0.1313
vn 0.5574 0.8303 0.0000
vn 0.6462 0.7628 -0.0226
vn 0.6458 0.7632 -0.0228
vn 0.6442 0.7645 -0.0238
vn 0.6464 0.7627 -0.0224
vn 0.6370 0.7703 -0.0290
vn 0.5509 0.8343 0.0181
vn 0.6485 0.7609 -0.0213
vn 0.6541 0.7562 -0.0182
vn 0.6478 0.7615 -0.0215
vn 0.6563 0.7543 -0.0169
vn 0.6803 0.7329 -0.0049
vn 0.5867 0.8089 0.0382
vn 0.5864 0.8092 0.0377
vn 0.5876 0.8082 0.0393
vn 0.5765 0.8171 0.0000
vn 0.4778 0.7866 0.3910
vn 0.5918 0.8061 0.0039
vn 0.5910 0.8066 0.0053
vn 0.5807 0.8136 0.0298
vn 0.6654 0.7457 -0.0338
vn 0.6487 0.7607 -0.0229
vn 0.3919 0.9200 0.0045
vn 0.4787 0.8771 0.0398
vn 0.4489 0.8932 0.0252
vn 0.5194 0.8541 0.0265
vn 0.7231 0.6907 -0.0040
vn 0.5760 0.8159 -0.0505
vn 0.5763 0.8157 -0.0503
vn 0.5750 0.8166 -0.0508
vn 0.5769 0.8152 -0.0501
vn 0.6652 0.7465 -0.0122
vn 0.6759 0.7330 0.0766
vn 0.6734 0.7339 0.0891
vn 0.6732 0.7340 0.0894
vn 0.6759 0.7330 0.0760
vn 0.6746 0.7376 0.0271
vn 0.6890 0.7118 0.1361
vn 0.7850 0.6194 0.0107
vn 0.7150 0.6879 0.1252
vn 0.6959 0.7016 0.1532
vn 0.7057 0.6894 0.1635
vn 0.6771 0.7296 0.0962
vn 0.6366 0.7521 0.1706
vn 0.6466 0.7374 0.1954
vn 0.4518 0.8521 0.2643
vn 0.7255 0.6722 0.1475
vn 0.5942 0.8035 0.0363
vn 0.7341 0.6598 0.1604
vn -0.6890 -0.7118 -0.1361
vn -0.7850 -0.6194 -0.0107
vn -0.6959 -0.7016 -0.1532
vn 0.6804 0.7304 0.0594
vn -0.6804 -0.7304 -0.0594
vn -0.5848 -0.8104 -0.0368
vn -0.5853 -0.8099 -0.0375
vn -0.5849 -0.8103 -0.0369
vn -0.4007 -0.6505 -0.6452
vn -0.4153 -0.6786 -0.6058
vn -0.3984 -0.6531 -0.6440
vn -0.1940 -0.8672 -0.4586
vn -0.5257 -0.7506 -0.4004
vn -0.4021 -0.6478 -0.6470
vn -0.3005 -0.9467 0.1160
vn -0.5934 -0.7945 -0.1292
vn -0.5881 -0.8088 0.0000
vn -0.5949 -0.8038 0.0000
vn -0.6458 -0.7631 0.0264
vn -0.6483 -0.7612 0.0173
vn -0.6462 -0.7627 0.0250
vn -0.6374 -0.7694 0.0421
vn -0.6446 -0.7626 0.0537
vn -0.6445 -0.7638 0.0363
vn -0.5600 -0.8267 -0.0554
vn -0.5604 -0.8266 -0.0522
vn -0.5611 -0.8263 -0.0494
vn -0.5874 -0.8084 -0.0392
vn -0.7154 -0.6948 0.0741
vn -0.6313 -0.7755 0.0091
vn -0.5608 -0.8265 -0.0491
vn -0.5815 -0.8135 -0.0076
vn -0.7014 -0.7109 0.0523
vn -0.6485 -0.7610 0.0188
vn -0.6484 -0.7610 0.0214
vn -0.5026 -0.8612 0.0762
vn -0.7073 -0.7069 0.0063
vn -0.7466 -0.6612 0.0735
vn -0.6312 -0.7755 0.0150
vn -0.6177 -0.7864 -0.0038
vn -0.6601 -0.7511 0.0127
vn -0.6705 -0.7419 0.0021
vn -0.5584 -0.7770 -0.2908
vn -0.6334 -0.7459 -0.2060
vn -0.5099 -0.7571 -0.4083
vn -0.6825 -0.6379 -0.3568
vn -0.1697 -0.9312 0.3225
vn -0.2943 -0.8939 -0.3382
vn -0.1382 -0.9896 -0.0407
vn -0.3795 -0.9252 0.0000
vn -0.3947 -0.8567 0.3322
vn -0.4150 -0.9098 0.0000
vn -0.3801 -0.9250 0.0000
vn -0.3987 -0.9161 0.0436
vn -0.4947 -0.8691 -0.0000
vn -0.3982 -0.6349 -0.6621
vn -0.4703 -0.8022 -0.3678
vn -0.7276 -0.6857 -0.0171
vn -0.7346 -0.6589 -0.1617
vn -0.7371 -0.6545 -0.1684
vn -0.7377 -0.6533 -0.1700
vn -0.2869 -0.9429 -0.1694
vn -0.5927 -0.8045 -0.0400
vn -0.5929 -0.8043 -0.0392
vn -0.5924 -0.8046 -0.0402
vn -0.4670 -0.8384 -0.2810
vn -0.6338 -0.7622 0.1313
vn -0.5574 -0.8303 0.0000
vn -0.6463 -0.7628 0.0227
vn -0.6442 -0.7645 0.0238
vn -0.6458 -0.7632 0.0228
vn -0.6392 -0.7685 0.0275
vn -0.6370 -0.7703 0.0290
vn -0.5509 -0.8343 -0.0181
vn -0.6485 -0.7609 0.0213
vn -0.6478 -0.7615 0.0215
vn -0.6541 -0.7562 0.0181
vn -0.6563 -0.7543 0.0169
vn -0.6803 -0.7329 0.0049
vn -0.5876 -0.8082 -0.0393
vn -0.5765 -0.8171 0.0000
vn -0.4778 -0.7866 -0.3910
vn -0.5915 -0.8063 -0.0044
vn -0.5910 -0.8066 -0.0053
vn -0.5918 -0.8061 -0.0039
vn -0.5921 -0.8059 -0.0035
vn -0.5807 -0.8136 -0.0298
vn -0.6654 -0.7457 0.0338
vn -0.6487 -0.7607 0.0229
vn -0.3919 -0.9200 -0.0045
vn -0.4787 -0.8771 -0.0398
vn -0.4489 -0.8932 -0.0252
vn -0.5194 -0.8541 -0.0265
vn -0.7231 -0.6907 0.0040
vn -0.5760 -0.8159 0.0505
vn -0.5750 -0.8166 0.0508
vn -0.5763 -0.8157 0.0503
vn -0.5769 -0.8152 0.0501
vn -0.6652 -0.7465 0.0122
vn -0.6759 -0.7330 -0.0766
vn -0.6732 -0.7340 -0.0894
vn -0.6734 -0.7339 -0.0891
vn -0.6759 -0.7330 -0.0760
vn -0.6746 -0.7376 -0.0271
vn -0.7150 -0.6879 -0.1252
vn -0.7057 -0.6894 -0.1635
vn -0.6771 -0.7296 -0.0962
vn -0.6366 -0.7521 -0.1706
vn -0.6466 -0.7374 -0.1954
vn -0.4518 -0.8521 -0.2643
vn -0.7255 -0.6722 -0.1475
vn -0.5942 -0.8035 -0.0363
vn -0.7341 -0.6598 -0.1604
usemtl None.084
s 1
f 1//1 2//2 3//3
f 4//4 5//4 6//4
f 4//5 7//5 5//5
f 8//6 5//6 9//6
f 8//7 10//7 5//7
f 6//8 11//8 12//8
f 7//9 13//9 5//9
f 14//10 15//10 16//10
f 14//11 17//11 15//11
f 14//12 18//12 17//12
f 19//13 20//14 21//15
f 22//16 23//17 24//18
f 22//19 25//19 23//19
f 26//20 27//20 28//20
f 26//21 29//21 27//21
f 30//22 31//23 32//24
f 30//25 3//3 2//2
f 33//26 27//26 34//26
f 33//27 35//27 27//27
f 36//28 32//24 31//23
f 37//29 34//29 27//29
f 37//30 27//30 38//30
f 39//31 23//17 29//32
f 39//31 24//18 23//17
f 40//33 23//33 41//33
f 40//34 17//34 23//34
f 40//35 42//35 17//35
f 43//36 28//36 27//36
f 43//37 27//37 35//37
f 44//38 23//38 25//38
f 44//39 45//39 23//39
f 46//40 47//40 5//40
f 46//41 5//41 48//41
f 11//42 6//42 49//42
f 49//43 6//43 47//43
f 16//44 15//44 50//44
f 50//45 51//45 10//45
f 50//46 15//46 51//46
f 18//47 52//47 53//47
f 18//48 53//48 17//48
f 52//47 54//47 53//47
f 54//47 55//47 53//47
f 55//49 56//49 23//49
f 56//49 57//49 23//49
f 57//49 58//49 23//49
f 59//49 60//49 23//49
f 60//49 61//49 23//49
f 61//49 62//49 23//49
f 62//50 63//50 64//50
f 62//51 64//51 23//51
f 65//52 66//52 27//52
f 65//52 27//52 67//52
f 66//52 68//52 27//52
f 68//52 69//52 27//52
f 69//52 70//52 27//52
f 13//53 9//53 5//53
f 5//54 10//54 71//54
f 17//55 42//55 72//55
f 17//56 72//57 73//58
f 10//59 51//59 71//59
f 71//60 51//61 17//62
f 63//63 27//63 64//63
f 63//52 74//52 27//52
f 74//52 67//52 27//52
f 15//64 17//64 51//64
f 36//65 75//65 32//65
f 75//65 36//65 70//65
f 59//49 23//49 58//49
f 23//66 76//67 77//68
f 23//66 78//69 76//67
f 23//70 45//70 78//70
f 70//71 36//71 27//71
f 23//72 79//73 80//74
f 23//72 77//75 79//73
f 23//76 80//76 81//76
f 30//77 82//78 3//79
f 83//80 21//80 30//80
f 83//80 30//80 32//80
f 6//81 5//81 47//81
f 21//15 84//82 82//83
f 21//15 20//14 84//82
f 21//84 82//78 30//77
f 64//85 27//85 23//85
f 27//86 29//32 23//17
f 23//87 53//87 55//87
f 85//88 38//88 27//88
f 85//89 36//89 86//89
f 85//90 27//90 36//90
f 17//91 53//91 23//91
f 23//92 87//93 41//94
f 23//92 88//95 87//93
f 23//96 81//96 88//96
f 89//97 90//98 91//99
f 89//97 92//100 90//98
f 93//101 90//101 92//101
f 93//102 94//102 90//102
f 93//103 95//103 94//103
f 96//104 97//104 98//104
f 90//105 94//105 99//105
f 90//106 99//106 96//106
f 99//107 97//107 96//107
f 90//108 71//108 91//108
f 48//109 5//109 90//109
f 90//110 5//110 71//110
f 91//111 17//111 100//111
f 91//112 71//60 17//62
f 100//113 17//56 73//58
f 94//114 101//114 102//114
f 94//115 95//115 101//115
f 94//116 102//116 99//116
f 98//117 97//117 103//117
f 103//118 97//118 104//118
f 105//119 106//120 107//121
f 108//122 109//122 110//122
f 108//123 110//123 111//123
f 112//124 113//124 110//124
f 112//125 110//125 114//125
f 109//126 115//126 116//126
f 111//127 110//127 117//127
f 118//128 119//128 120//128
f 118//129 120//129 121//129
f 118//130 121//130 122//130
f 123//131 124//131 125//131
f 126//132 127//133 128//134
f 126//135 128//135 129//135
f 130//136 131//136 132//136
f 130//137 132//137 133//137
f 134//138 135//139 136//140
f 134//141 107//121 106//120
f 137//142 138//142 132//142
f 137//143 132//143 139//143
f 140//144 136//140 135//139
f 141//145 132//145 138//145
f 141//146 142//146 132//146
f 143//147 133//148 128//134
f 143//147 128//134 127//133
f 144//149 145//149 128//149
f 144//150 128//150 121//150
f 144//151 121//151 146//151
f 147//152 132//152 131//152
f 147//153 139//153 132//153
f 148//154 129//154 128//154
f 148//155 128//155 149//155
f 150//156 110//156 151//156
f 150//157 152//157 110//157
f 116//158 153//158 109//158
f 153//159 151//159 109//159
f 119//160 154//160 120//160
f 154//161 114//161 155//161
f 154//162 155//162 120//162
f 122//163 156//163 157//163
f 122//164 121//164 156//164
f 157//163 156//163 158//163
f 158//163 156//163 159//163
f 159//165 128//165 160//165
f 160//165 128//165 161//165
f 161//165 128//165 162//165
f 163//165 128//165 164//165
f 164//165 128//165 165//165
f 165//165 128//165 166//165
f 166//166 167//166 168//166
f 166//167 128//167 167//167
f 169//168 132//168 170//168
f 169//168 171//168 132//168
f 170//168 132//168 172//168
f 172//168 132//168 173//168
f 173//168 132//168 174//168
f 117//169 110//169 113//169
f 110//170 175//170 114//170
f 121//171 176//171 146//171
f 121//172 177//173 176//174
f 114//175 175//175 155//175
f 175//176 121//177 155//178
f 168//179 167//179 132//179
f 168//168 132//168 178//168
f 178//168 132//168 171//168
f 120//180 155//180 121//180
f 140//181 135//181 179//181
f 179//181 174//181 140//181
f 163//165 162//165 128//165
f 128//182 180//183 181//184
f 128//182 181//184 182//185
f 128//182 182//185 149//186
f 174//187 132//187 140//187
f 128//188 183//189 184//190
f 128//188 184//190 180//191
f 128//192 185//192 183//192
f 134//141 106//120 186//193
f 187//194 134//194 124//194
f 187//194 135//194 134//194
f 109//195 151//195 110//195
f 124//196 186//197 188//198
f 124//196 188//198 125//199
f 124//200 134//200 186//200
f 167//201 128//201 132//201
f 132//202 128//202 133//202
f 128//203 159//203 156//203
f 189//204 132//204 142//204
f 189//205 190//205 140//205
f 189//206 140//206 132//206
f 121//207 128//207 156//207
f 128//208 145//209 191//210
f 128//208 191//210 192//211
f 128//212 192//212 185//212
f 193//213 194//214 102//215
f 193//213 102//215 195//216
f 101//217 195//217 102//217
f 196//218 104//218 97//218
f 102//219 196//219 99//219
f 99//220 196//220 97//220
f 102//221 194//221 175//221
f 152//222 102//222 110//222
f 102//223 175//223 110//223
f 194//224 197//224 121//224
f 194//225 121//177 175//176
f 197//226 177//173 121//172
