# Blender v2.79 (sub 0) OBJ File: ''
# www.blender.org
mtllib crack_restart_keyway_390.mtl
o crack_restart_keyway_390
v 0.073532 -0.113096 -0.472461
v 0.120406 -0.147382 -0.457089
v 0.072984 -0.113329 -0.459453
v 0.084926 -0.121223 -0.472461
v 0.147218 -0.162044 -0.087640
v 0.150815 -0.164548 -0.087219
v 0.149846 -0.171112 -0.075045
v 0.143326 -0.159235 -0.088155
v 0.154210 -0.167189 -0.086931
v 0.152235 -0.168995 -0.080768
v 0.139530 -0.156358 -0.088662
v 0.126617 -0.147747 -0.091724
v 0.122890 -0.147995 -0.088172
v 0.122213 -0.145575 -0.094013
v 0.131068 -0.149873 -0.089874
v 0.096075 -0.129256 -0.472461
v 0.120406 -0.147382 -0.103551
v 0.107564 -0.140801 -0.106229
v 0.120406 -0.147382 -0.118922
v 0.120866 -0.146923 -0.098614
v 0.120406 -0.147382 -0.472461
v 0.108335 -0.138244 -0.472461
v 0.073544 -0.113088 -0.238326
v 0.092671 -0.129465 -0.139412
v 0.073855 -0.112781 -0.225319
v 0.073106 -0.113252 -0.251334
v 0.072507 -0.113824 -0.290356
v 0.071834 -0.114051 -0.303364
v 0.071613 -0.114425 -0.316371
v 0.072662 -0.113714 -0.446446
v 0.071825 -0.114057 -0.433438
v 0.071391 -0.114547 -0.342386
v 0.070699 -0.114764 -0.355393
v 0.090632 -0.132125 -0.376755
v 0.071362 -0.114347 -0.329378
v 0.071403 -0.114541 -0.420431
v 0.070904 -0.114635 -0.407423
v 0.070825 -0.114860 -0.368401
v 0.070296 -0.115017 -0.381408
v 0.072945 -0.113512 -0.264341
v 0.104130 -0.140747 -0.280916
v 0.072710 -0.113501 -0.277349
v 0.076507 -0.111115 -0.121259
v 0.075542 -0.111670 -0.134267
v 0.088828 -0.123366 -0.106437
v 0.077623 -0.110194 -0.108252
v 0.078420 -0.109863 -0.094934
v 0.077653 -0.110099 -0.088789
v 0.077977 -0.110044 -0.103036
v 0.146481 -0.173992 -0.061077
v 0.145494 -0.174792 -0.057290
v 0.123124 -0.161487 -0.047355
v 0.148169 -0.172566 -0.068133
v 0.114599 -0.144529 -0.094826
v 0.118738 -0.145751 -0.090762
v 0.120406 -0.147382 -0.134293
v 0.109191 -0.141957 -0.136796
v 0.120406 -0.147382 -0.149664
v 0.120406 -0.147382 -0.165036
v 0.120406 -0.147382 -0.180407
v 0.120406 -0.147382 -0.195778
v 0.120406 -0.147382 -0.211149
v 0.120406 -0.147382 -0.226521
v 0.120406 -0.147382 -0.241892
v 0.120406 -0.147382 -0.257263
v 0.120406 -0.147382 -0.272634
v 0.120406 -0.147382 -0.288006
v 0.120406 -0.147382 -0.303377
v 0.120406 -0.147382 -0.349490
v 0.120406 -0.147382 -0.364862
v 0.120406 -0.147382 -0.334119
v 0.120406 -0.147382 -0.380233
v 0.120406 -0.147382 -0.395604
v 0.120406 -0.147382 -0.410975
v 0.120406 -0.147382 -0.426347
v 0.135305 -0.153116 -0.089238
v 0.096503 -0.135865 -0.062580
v 0.109336 -0.141367 -0.089223
v 0.107780 -0.139833 -0.096389
v 0.103440 -0.143572 -0.058009
v 0.102166 -0.136766 -0.100559
v 0.074305 -0.112547 -0.186296
v 0.074253 -0.112685 -0.191313
v 0.074692 -0.112255 -0.173289
v 0.074535 -0.112497 -0.180697
v 0.073938 -0.112729 -0.199304
v 0.074913 -0.112244 -0.166662
v 0.120406 -0.147382 -0.441718
v 0.103472 -0.134663 -0.472461
v 0.070760 -0.114896 -0.394416
v 0.120406 -0.147382 -0.318748
v 0.075346 -0.111955 -0.141542
v 0.075029 -0.112043 -0.147274
v 0.077133 -0.110314 -0.085508
v 0.130091 -0.167383 -0.044852
v 0.144178 -0.175844 -0.052960
v 0.142679 -0.176916 -0.047929
v 0.141544 -0.177636 -0.042643
v 0.075062 -0.112145 -0.153593
v 0.074944 -0.112094 -0.160281
v 0.074162 -0.112746 -0.207483
v 0.074163 -0.112649 -0.212311
v 0.074129 -0.112768 -0.217073
v 0.142679 -0.176916 -0.047929
v 0.076662 -0.110489 -0.082229
v 0.073532 -0.113096 -0.472461
v 0.072984 -0.113329 -0.459453
v 0.120406 -0.147382 -0.457089
v 0.084926 -0.121223 -0.472461
v 0.147218 -0.162044 -0.087640
v 0.149846 -0.171112 -0.075045
v 0.150815 -0.164548 -0.087219
v 0.143326 -0.159235 -0.088155
v 0.152235 -0.168995 -0.080768
v 0.154210 -0.167189 -0.086931
v 0.139530 -0.156358 -0.088662
v 0.126617 -0.147747 -0.091724
v 0.122213 -0.145575 -0.094013
v 0.122890 -0.147995 -0.088172
v 0.131068 -0.149873 -0.089874
v 0.096075 -0.129256 -0.472461
v 0.120406 -0.147382 -0.103551
v 0.120406 -0.147382 -0.118922
v 0.107564 -0.140801 -0.106229
v 0.120866 -0.146923 -0.098614
v 0.120406 -0.147382 -0.472461
v 0.108335 -0.138244 -0.472461
v 0.073544 -0.113088 -0.238326
v 0.073855 -0.112781 -0.225319
v 0.092671 -0.129465 -0.139412
v 0.073106 -0.113252 -0.251334
v 0.072507 -0.113824 -0.290356
v 0.071613 -0.114425 -0.316371
v 0.071834 -0.114051 -0.303364
v 0.072662 -0.113714 -0.446446
v 0.071825 -0.114057 -0.433438
v 0.071391 -0.114547 -0.342386
v 0.090632 -0.132125 -0.376755
v 0.070699 -0.114764 -0.355393
v 0.071362 -0.114347 -0.329378
v 0.071403 -0.114541 -0.420431
v 0.070904 -0.114635 -0.407423
v 0.070825 -0.114860 -0.368401
v 0.070296 -0.115017 -0.381408
v 0.072945 -0.113512 -0.264341
v 0.104130 -0.140747 -0.280916
v 0.072710 -0.113501 -0.277349
v 0.076507 -0.111115 -0.121259
v 0.075542 -0.111670 -0.134267
v 0.088828 -0.123366 -0.106437
v 0.077623 -0.110194 -0.108252
v 0.078420 -0.109863 -0.094934
v 0.077653 -0.110099 -0.088789
v 0.077977 -0.110044 -0.103036
v 0.146481 -0.173992 -0.061077
v 0.145494 -0.174792 -0.057290
v 0.148169 -0.172566 -0.068133
v 0.114599 -0.144529 -0.094826
v 0.118738 -0.145751 -0.090762
v 0.120406 -0.147382 -0.134293
v 0.120406 -0.147382 -0.149664
v 0.120406 -0.147382 -0.165036
v 0.120406 -0.147382 -0.180407
v 0.120406 -0.147382 -0.195778
v 0.120406 -0.147382 -0.211149
v 0.120406 -0.147382 -0.226521
v 0.120406 -0.147382 -0.241892
v 0.120406 -0.147382 -0.257263
v 0.120406 -0.147382 -0.272634
v 0.120406 -0.147382 -0.288006
v 0.120406 -0.147382 -0.303377
v 0.120406 -0.147382 -0.349490
v 0.120406 -0.147382 -0.364862
v 0.120406 -0.147382 -0.334119
v 0.120406 -0.147382 -0.380233
v 0.120406 -0.147382 -0.395604
v 0.120406 -0.147382 -0.410975
v 0.120406 -0.147382 -0.426347
v 0.135305 -0.153116 -0.089238
v 0.093860 -0.127055 -0.088363
v 0.109336 -0.141367 -0.089223
v 0.107780 -0.139833 -0.096389
v 0.097291 -0.131011 -0.078670
v 0.102166 -0.136766 -0.100559
v 0.074253 -0.112685 -0.191313
v 0.074305 -0.112547 -0.186296
v 0.074535 -0.112497 -0.180697
v 0.074692 -0.112255 -0.173289
v 0.073938 -0.112729 -0.199304
v 0.074913 -0.112244 -0.166662
v 0.120406 -0.147382 -0.441718
v 0.103472 -0.134663 -0.472461
v 0.070760 -0.114896 -0.394416
v 0.120406 -0.147382 -0.318748
v 0.075346 -0.111955 -0.141542
v 0.075029 -0.112043 -0.147274
v 0.077133 -0.110314 -0.085508
v 0.144178 -0.175844 -0.052960
v 0.075062 -0.112145 -0.153593
v 0.074944 -0.112094 -0.160281
v 0.074162 -0.112746 -0.207483
v 0.074163 -0.112649 -0.212311
v 0.074129 -0.112768 -0.217073
vn 0.5783 0.8148 0.0409
vn 0.5816 0.8126 0.0388
vn 0.5816 0.8124 0.0430
vn 0.5801 0.8133 0.0451
vn 0.4794 0.7596 0.4395
vn 0.4854 0.7542 0.4423
vn 0.4754 0.7580 0.4465
vn 0.4859 0.7542 0.4416
vn 0.5440 0.7420 0.3918
vn 0.3978 0.7940 0.4598
vn 0.5104 0.7482 0.4240
vn 0.2664 0.9010 0.3424
vn 0.2667 0.9008 0.3427
vn 0.2731 0.8992 0.3418
vn 0.2788 0.8924 0.3548
vn 0.5843 0.8109 0.0314
vn 0.4561 0.8899 0.0000
vn 0.4730 0.8721 -0.1252
vn 0.6036 0.7973 0.0000
vn 0.7443 0.6670 -0.0335
vn 0.7444 0.6669 -0.0335
vn 0.7442 0.6671 -0.0335
vn 0.3092 0.9504 -0.0326
vn 0.5840 0.8096 0.0589
vn 0.5850 0.8089 0.0591
vn 0.5833 0.8100 0.0609
vn 0.5816 0.8126 0.0384
vn 0.6274 0.7773 -0.0463
vn 0.6646 0.7471 -0.0100
vn 0.6108 0.7902 0.0492
vn 0.6366 0.7706 0.0300
vn 0.6345 0.7726 0.0240
vn 0.6424 0.7657 0.0315
vn 0.6573 0.7537 0.0008
vn 0.6481 0.7607 -0.0355
vn 0.6503 0.7596 -0.0125
vn 0.6506 0.7591 -0.0232
vn 0.6510 0.7587 -0.0227
vn 0.6544 0.7561 -0.0112
vn 0.7060 0.7034 -0.0824
vn 0.7291 0.6832 -0.0414
vn 0.7645 0.6351 -0.1106
vn 0.8344 0.5369 0.1248
vn 0.7670 0.6391 -0.0562
vn 0.5840 0.7500 0.3106
vn 0.5792 0.7610 0.2923
vn 0.5862 0.7549 0.2942
vn 0.5824 0.7555 0.3000
vn 0.1625 0.9331 -0.3209
vn 0.3882 0.9195 0.0611
vn 0.1155 0.9775 0.1763
vn 0.2734 0.8994 0.3410
vn 0.4355 0.9002 0.0000
vn 0.4374 0.8992 -0.0107
vn 0.5426 0.8400 0.0000
vn 0.5778 0.7990 0.1667
vn 0.3775 0.9260 0.0000
vn 0.4560 0.8900 0.0000
vn 0.5505 0.7733 0.3147
vn 0.6033 0.7262 0.3298
vn 0.2879 0.5323 0.7961
vn 0.3036 0.9052 0.2975
vn 0.3862 0.8765 0.2875
vn 0.7881 0.6144 0.0372
vn 0.5575 0.8283 0.0563
vn 0.4004 0.9063 -0.1353
vn 0.4376 0.8874 0.1453
vn 0.5144 0.8546 0.0713
vn 0.6774 0.4048 -0.6142
vn 0.6751 0.7270 0.1254
vn 0.5304 0.8424 -0.0945
vn 0.7137 0.6999 -0.0270
vn 0.7251 0.6881 -0.0281
vn 0.7132 0.7004 -0.0267
vn 0.7255 0.6873 -0.0360
vn 0.7242 0.6886 -0.0374
vn 0.7272 0.6853 -0.0378
vn 0.7212 0.6919 -0.0322
vn 0.7252 0.6877 -0.0359
vn 0.5875 0.7780 0.2227
vn 0.7155 0.6982 -0.0250
vn 0.4480 0.8934 -0.0349
vn 0.5831 0.7549 0.3003
vn 0.5915 0.8062 0.0154
vn 0.5929 0.8052 0.0131
vn 0.5922 0.8055 0.0197
vn 0.5900 0.8072 0.0179
vn 0.6090 0.7896 -0.0751
vn 0.6765 0.7146 0.1783
vn 0.5790 0.8100 -0.0924
vn 0.6812 0.7321 0.0086
vn 0.6440 0.7644 0.0289
vn 0.6394 0.7682 0.0300
vn 0.5984 0.7746 0.2048
vn 0.5663 0.8233 -0.0385
vn 0.6530 0.7568 -0.0290
vn 0.7133 0.6993 -0.0468
vn 0.7129 0.6997 -0.0466
vn 0.7130 0.6994 -0.0499
vn 0.7130 0.6994 -0.0502
vn 0.7136 0.6826 0.1578
vn 0.5736 0.7817 0.2447
vn 0.6236 0.6948 0.3583
vn 0.6195 0.7096 0.3358
vn 0.6227 0.7463 0.2353
vn 0.7044 0.7098 -0.0078
vn 0.7042 0.7099 -0.0074
vn 0.7041 0.7101 -0.0077
vn 0.7041 0.7101 -0.0070
vn 0.6375 0.7703 0.0159
vn 0.6380 0.7699 0.0156
vn 0.6384 0.7696 0.0158
vn 0.7196 0.6940 -0.0225
vn 0.7196 0.6940 -0.0228
vn 0.7284 0.6848 -0.0232
vn 0.7646 0.6407 -0.0703
vn 0.6164 0.7791 0.1142
vn 0.5608 0.8279 -0.0059
vn 0.5818 0.8105 -0.0675
vn 0.7251 0.6881 -0.0252
vn 0.5853 0.8083 0.0634
vn 0.6598 0.7514 -0.0065
vn 0.7117 0.7022 -0.0200
vn -0.6227 -0.7463 -0.2353
vn 0.7245 0.6749 0.1401
vn -0.5783 -0.8148 -0.0409
vn -0.5816 -0.8124 -0.0430
vn -0.5816 -0.8126 -0.0388
vn -0.5801 -0.8133 -0.0451
vn -0.4794 -0.7596 -0.4395
vn -0.4754 -0.7580 -0.4465
vn -0.4854 -0.7542 -0.4423
vn -0.4859 -0.7542 -0.4416
vn -0.5440 -0.7420 -0.3918
vn -0.3978 -0.7940 -0.4598
vn -0.5104 -0.7482 -0.4240
vn -0.2664 -0.9010 -0.3424
vn -0.2788 -0.8924 -0.3548
vn -0.5843 -0.8109 -0.0314
vn -0.4561 -0.8899 0.0000
vn -0.4730 -0.8721 0.1252
vn -0.6036 -0.7973 0.0000
vn -0.7443 -0.6670 0.0335
vn -0.7444 -0.6669 0.0335
vn -0.7442 -0.6671 0.0335
vn -0.3092 -0.9504 0.0326
vn -0.5840 -0.8096 -0.0589
vn -0.5816 -0.8126 -0.0384
vn -0.6274 -0.7773 0.0463
vn -0.6646 -0.7471 0.0100
vn -0.6108 -0.7902 -0.0492
vn -0.6366 -0.7706 -0.0300
vn -0.6424 -0.7657 -0.0315
vn -0.6345 -0.7726 -0.0239
vn -0.6573 -0.7537 -0.0008
vn -0.6481 -0.7607 0.0355
vn -0.6503 -0.7596 0.0124
vn -0.6510 -0.7587 0.0227
vn -0.6506 -0.7591 0.0232
vn -0.6544 -0.7561 0.0112
vn -0.7060 -0.7034 0.0824
vn -0.7291 -0.6832 0.0414
vn -0.7645 -0.6351 0.1106
vn -0.8344 -0.5369 -0.1248
vn -0.7670 -0.6391 0.0562
vn -0.5840 -0.7500 -0.3106
vn -0.5792 -0.7610 -0.2923
vn -0.5824 -0.7555 -0.3000
vn -0.5862 -0.7549 -0.2942
vn -0.1625 -0.9331 0.3209
vn -0.3882 -0.9195 -0.0611
vn -0.1155 -0.9775 -0.1763
vn -0.2734 -0.8994 -0.3410
vn -0.5426 -0.8400 0.0000
vn -0.3775 -0.9260 0.0000
vn -0.4560 -0.8900 0.0000
vn -0.5505 -0.7733 -0.3147
vn -0.6033 -0.7262 -0.3298
vn -0.2879 -0.5323 -0.7961
vn -0.3036 -0.9052 -0.2975
vn -0.3862 -0.8765 -0.2875
vn -0.7223 -0.6889 0.0605
vn -0.5575 -0.8283 -0.0563
vn -0.4004 -0.9063 0.1353
vn -0.4376 -0.8874 -0.1453
vn -0.6605 -0.7506 -0.0173
vn -0.6602 -0.7510 -0.0109
vn -0.6588 -0.7521 -0.0182
vn -0.6774 -0.4048 0.6142
vn -0.6751 -0.7270 -0.1254
vn -0.6733 -0.7283 -0.1276
vn -0.6794 -0.7216 -0.1330
vn -0.5304 -0.8424 0.0945
vn -0.7137 -0.6999 0.0270
vn -0.7132 -0.7004 0.0267
vn -0.7251 -0.6881 0.0282
vn -0.7255 -0.6873 0.0360
vn -0.7272 -0.6853 0.0378
vn -0.7242 -0.6886 0.0374
vn -0.7212 -0.6919 0.0322
vn -0.7252 -0.6877 0.0359
vn -0.5875 -0.7780 -0.2227
vn -0.7151 -0.6986 0.0248
vn -0.7168 -0.6970 0.0210
vn -0.7155 -0.6982 0.0250
vn -0.4480 -0.8934 0.0349
vn -0.5831 -0.7549 -0.3003
vn -0.5915 -0.8062 -0.0154
vn -0.5922 -0.8055 -0.0197
vn -0.5929 -0.8052 -0.0131
vn -0.5900 -0.8072 -0.0179
vn -0.7416 -0.6314 -0.2268
vn -0.5520 -0.8291 0.0890
vn -0.6765 -0.7146 -0.1783
vn -0.5790 -0.8100 0.0924
vn -0.6739 -0.7258 -0.1382
vn -0.6440 -0.7644 -0.0289
vn -0.6394 -0.7682 -0.0300
vn -0.5984 -0.7746 -0.2048
vn -0.5663 -0.8233 0.0385
vn -0.6530 -0.7568 0.0290
vn -0.7133 -0.6993 0.0468
vn -0.7130 -0.6994 0.0499
vn -0.7129 -0.6997 0.0466
vn -0.7130 -0.6994 0.0502
vn -0.7119 -0.6844 -0.1577
vn -0.2444 -0.9250 -0.2910
vn -0.7138 -0.6819 -0.1598
vn -0.5736 -0.7817 -0.2447
vn -0.6236 -0.6948 -0.3583
vn -0.6195 -0.7096 -0.3358
vn -0.7044 -0.7098 0.0078
vn -0.7041 -0.7101 0.0077
vn -0.7042 -0.7099 0.0074
vn -0.7041 -0.7101 0.0070
vn -0.6375 -0.7703 -0.0159
vn -0.6384 -0.7696 -0.0158
vn -0.6380 -0.7699 -0.0156
vn -0.7196 -0.6940 0.0225
vn -0.7284 -0.6848 0.0232
vn -0.7196 -0.6940 0.0228
vn -0.7646 -0.6407 0.0703
vn -0.6530 -0.7573 -0.0095
vn -0.5608 -0.8279 0.0059
vn -0.5818 -0.8105 0.0675
vn -0.9213 -0.3409 0.1869
vn -0.9213 -0.3409 0.1870
vn -0.9212 -0.3415 0.1867
vn -0.7251 -0.6881 0.0252
vn -0.5853 -0.8083 -0.0634
vn -0.6598 -0.7514 0.0065
vn -0.7117 -0.7022 0.0200
vn -0.7123 -0.6880 -0.1390
usemtl None.065
s 1
f 1//1 3//2 2//3
f 1//1 2//3 4//4
f 5//5 7//6 6//7
f 5//5 8//8 7//6
f 6//9 10//9 9//9
f 6//10 7//10 10//10
f 8//11 11//11 7//11
f 12//12 14//13 13//14
f 12//15 13//15 15//15
f 4//16 2//16 16//16
f 17//17 19//17 18//17
f 17//18 18//18 20//18
f 21//19 22//19 2//19
f 23//20 25//21 24//21
f 23//20 24//21 26//22
f 27//23 29//23 28//23
f 30//24 31//25 2//26
f 30//27 2//3 3//2
f 32//28 34//28 33//28
f 32//29 35//29 34//29
f 36//30 34//30 31//30
f 36//31 37//32 34//33
f 38//34 33//34 34//34
f 38//35 34//35 39//35
f 40//36 26//37 41//38
f 40//36 41//38 42//39
f 43//40 24//40 44//40
f 43//41 45//41 24//41
f 43//42 46//42 45//42
f 47//43 48//43 45//43
f 47//44 45//44 49//44
f 50//45 52//45 51//45
f 50//46 53//47 52//48
f 20//49 54//49 14//49
f 20//50 18//50 54//50
f 14//51 54//51 55//51
f 14//13 55//52 13//14
f 19//17 56//17 18//17
f 56//53 58//53 57//53
f 56//54 57//54 18//54
f 58//55 59//55 24//55
f 58//56 24//56 57//56
f 59//55 60//55 24//55
f 60//55 61//55 24//55
f 61//55 62//55 24//55
f 62//55 63//55 24//55
f 63//55 64//55 24//55
f 65//57 66//57 41//57
f 65//57 41//57 64//57
f 66//57 67//57 41//57
f 67//57 68//57 41//57
f 69//58 70//58 34//58
f 69//58 34//58 71//58
f 70//58 72//58 34//58
f 72//58 73//58 34//58
f 74//58 75//58 34//58
f 74//58 34//58 73//58
f 11//59 76//59 52//59
f 11//60 52//60 7//60
f 13//61 76//61 15//61
f 13//62 55//62 52//62
f 13//63 52//63 76//63
f 77//64 45//64 48//64
f 78//65 54//65 79//65
f 78//66 55//66 54//66
f 78//67 80//67 55//67
f 78//68 79//68 77//68
f 81//69 45//69 79//69
f 81//70 18//70 45//70
f 81//71 79//71 18//71
f 24//72 83//73 82//74
f 24//75 85//76 84//77
f 24//72 86//78 83//73
f 24//75 82//79 85//76
f 55//80 80//80 52//80
f 24//81 84//81 87//81
f 88//58 34//58 75//58
f 88//58 2//58 34//58
f 41//82 24//82 64//82
f 53//47 7//83 52//48
f 2//84 22//85 89//86
f 2//84 89//86 16//87
f 24//88 45//88 57//88
f 80//89 78//89 77//89
f 54//90 18//90 79//90
f 45//91 18//91 57//91
f 90//92 39//93 34//33
f 90//92 34//33 37//32
f 91//58 34//58 68//58
f 91//58 71//58 34//58
f 27//94 41//94 68//94
f 27//95 68//95 29//95
f 27//96 42//96 41//96
f 92//97 44//98 24//99
f 92//97 24//99 93//100
f 48//101 94//101 77//101
f 51//102 52//102 95//102
f 51//103 95//103 96//103
f 97//104 96//104 95//104
f 97//105 95//105 98//105
f 93//106 24//107 99//108
f 99//108 24//107 100//109
f 86//110 24//111 101//112
f 101//112 24//111 102//111
f 102//113 24//114 103//115
f 46//116 49//116 45//116
f 79//117 45//117 77//117
f 29//118 68//118 35//118
f 68//119 34//119 35//119
f 24//114 25//120 103//115
f 31//25 34//121 2//26
f 24//122 41//122 26//122
f 100//123 24//123 87//123
f 98//124 95//124 104//124
f 94//125 105//125 77//125
f 106//126 108//127 107//128
f 106//126 109//129 108//127
f 110//130 112//131 111//132
f 110//130 111//132 113//133
f 112//134 115//134 114//134
f 112//135 114//135 111//135
f 113//136 111//136 116//136
f 117//137 119//137 118//137
f 117//138 120//138 119//138
f 109//139 121//139 108//139
f 122//140 124//140 123//140
f 122//141 125//141 124//141
f 126//142 108//142 127//142
f 128//143 130//144 129//144
f 128//143 131//145 130//144
f 132//146 134//146 133//146
f 135//147 108//147 136//147
f 135//148 107//128 108//127
f 137//149 139//149 138//149
f 137//150 138//150 140//150
f 141//151 136//151 138//151
f 141//152 138//153 142//154
f 143//155 138//155 139//155
f 143//156 144//156 138//156
f 145//157 146//158 131//159
f 145//157 147//160 146//158
f 148//161 149//161 130//161
f 148//162 130//162 150//162
f 148//163 150//163 151//163
f 152//164 150//164 153//164
f 152//165 154//165 150//165
f 155//166 156//166 52//166
f 155//167 52//168 157//169
f 125//170 118//170 158//170
f 125//171 158//171 124//171
f 118//172 159//172 158//172
f 118//173 119//173 159//173
f 123//140 124//140 160//140
f 161//174 130//174 162//174
f 161//174 160//174 130//174
f 162//174 130//174 163//174
f 163//174 130//174 164//174
f 164//174 130//174 165//174
f 165//174 130//174 166//174
f 166//174 130//174 167//174
f 168//175 146//175 169//175
f 168//175 167//175 146//175
f 169//175 146//175 170//175
f 170//175 146//175 171//175
f 172//176 138//176 173//176
f 172//176 174//176 138//176
f 173//176 138//176 175//176
f 175//176 138//176 176//176
f 177//176 138//176 178//176
f 177//176 176//176 138//176
f 116//177 52//177 179//177
f 116//178 111//178 52//178
f 119//179 120//179 179//179
f 119//180 52//180 159//180
f 119//181 179//181 52//181
f 180//182 153//182 150//182
f 181//183 182//183 158//183
f 181//184 158//184 159//184
f 181//185 159//185 80//185
f 181//186 183//187 182//188
f 184//189 182//189 150//189
f 184//190 150//191 124//192
f 184//193 124//193 182//193
f 130//194 186//195 185//196
f 130//197 188//198 187//199
f 130//194 185//196 189//200
f 130//197 187//199 186//201
f 159//202 52//202 80//202
f 130//203 190//204 188//205
f 191//176 178//176 138//176
f 191//176 138//176 108//176
f 146//206 167//206 130//206
f 157//169 52//168 111//207
f 108//208 192//209 127//210
f 108//208 121//211 192//209
f 77//212 183//212 181//212
f 130//213 160//213 150//213
f 80//214 77//214 181//214
f 158//215 182//215 124//215
f 150//191 160//216 124//192
f 193//217 138//153 144//218
f 193//217 142//154 138//153
f 194//176 171//176 138//176
f 194//176 138//176 174//176
f 132//219 171//219 146//219
f 132//220 133//220 171//220
f 132//221 146//221 147//221
f 195//222 130//223 149//224
f 195//222 196//225 130//223
f 153//226 180//226 197//226
f 180//227 183//227 77//227
f 180//228 77//228 105//228
f 156//229 95//229 52//229
f 156//230 198//230 95//230
f 104//231 95//231 198//231
f 196//232 199//233 130//234
f 199//233 200//235 130//234
f 189//236 201//237 130//238
f 201//237 202//238 130//238
f 202//239 203//240 130//241
f 151//242 150//242 154//242
f 182//188 183//187 150//243
f 133//244 140//244 171//244
f 171//245 140//245 138//245
f 150//246 183//247 180//248
f 130//241 203//240 129//249
f 136//250 108//250 138//250
f 130//251 131//251 146//251
f 200//252 190//204 130//203
f 197//253 180//253 105//253
