# Blender v2.79 (sub 0) OBJ File: ''
# www.blender.org
mtllib crack_restart_keyway_465.mtl
o crack_restart_keyway_465
v 0.073520 -0.113104 -0.472461
v 0.084844 -0.121275 -0.472461
v 0.072991 -0.113324 -0.459453
v 0.147219 -0.162043 -0.087639
v 0.150767 -0.164593 -0.087262
v 0.127508 -0.150660 -0.086853
v 0.143341 -0.159226 -0.088139
v 0.131068 -0.149873 -0.089874
v 0.135318 -0.153108 -0.089226
v 0.126540 -0.147825 -0.091832
v 0.154210 -0.167189 -0.086931
v 0.152186 -0.169040 -0.080796
v 0.139540 -0.156352 -0.088655
v 0.120406 -0.147382 -0.103551
v 0.120866 -0.146923 -0.098614
v 0.114627 -0.144483 -0.094845
v 0.103015 -0.137470 -0.112395
v 0.120406 -0.147382 -0.118922
v 0.120406 -0.147382 -0.472461
v 0.120406 -0.147382 -0.457089
v 0.108209 -0.138344 -0.472461
v 0.073503 -0.113116 -0.238326
v 0.073117 -0.113245 -0.251334
v 0.086853 -0.123868 -0.132599
v 0.073911 -0.112746 -0.225319
v 0.072414 -0.113890 -0.290356
v 0.072686 -0.113515 -0.277349
v 0.071664 -0.114157 -0.303364
v 0.072674 -0.113705 -0.446446
v 0.095954 -0.129352 -0.472461
v 0.071867 -0.114030 -0.433438
v 0.071542 -0.114464 -0.342386
v 0.070551 -0.114857 -0.355393
v 0.071492 -0.114266 -0.329378
v 0.071444 -0.114518 -0.420431
v 0.070924 -0.114623 -0.407423
v 0.070830 -0.114857 -0.368401
v 0.070078 -0.115154 -0.381408
v 0.073026 -0.113456 -0.264341
v 0.076532 -0.111099 -0.121259
v 0.075543 -0.111670 -0.134267
v 0.077288 -0.110431 -0.108252
v 0.077384 -0.110534 -0.095441
v 0.071629 -0.114416 -0.316371
v 0.074101 -0.112692 -0.212311
v 0.074100 -0.112627 -0.199304
v 0.150124 -0.170868 -0.074891
v 0.148189 -0.172549 -0.068122
v 0.122213 -0.145575 -0.094013
v 0.115967 -0.144847 -0.090502
v 0.106574 -0.141711 -0.120725
v 0.120406 -0.147382 -0.134293
v 0.120406 -0.147382 -0.149664
v 0.120406 -0.147382 -0.165036
v 0.120406 -0.147382 -0.180407
v 0.120406 -0.147382 -0.195778
v 0.120406 -0.147382 -0.211149
v 0.120406 -0.147382 -0.226521
v 0.120406 -0.147382 -0.241892
v 0.120406 -0.147382 -0.257263
v 0.120406 -0.147382 -0.272634
v 0.120406 -0.147382 -0.288006
v 0.120406 -0.147382 -0.349490
v 0.120406 -0.147382 -0.334119
v 0.120406 -0.147382 -0.364862
v 0.120406 -0.147382 -0.380233
v 0.120406 -0.147382 -0.395604
v 0.120406 -0.147382 -0.410975
v 0.120406 -0.147382 -0.426347
v 0.068952 -0.114751 -0.028215
v 0.075186 -0.111710 -0.082932
v 0.120406 -0.147382 -0.303377
v 0.074456 -0.112469 -0.184866
v 0.074385 -0.112597 -0.191586
v 0.074889 -0.112133 -0.160281
v 0.074857 -0.112281 -0.166548
v 0.075000 -0.112186 -0.153722
v 0.120406 -0.147382 -0.441718
v 0.146573 -0.173907 -0.061443
v 0.103528 -0.134903 -0.472461
v 0.120406 -0.147382 -0.318748
v 0.070754 -0.114899 -0.394416
v 0.075329 -0.111966 -0.141507
v 0.074984 -0.112071 -0.147274
v 0.069789 -0.112695 -0.054990
v 0.072949 -0.112208 -0.071704
v 0.137548 -0.180048 -0.013660
v 0.136520 -0.180869 -0.006326
v 0.138488 -0.179253 -0.020111
v 0.134618 -0.182389 0.008595
v 0.080172 -0.134908 0.035620
v 0.071047 -0.123220 0.028019
v 0.065265 -0.114650 -0.001444
v 0.065659 -0.116202 0.023438
v 0.130890 -0.185186 0.044283
v 0.097962 -0.154221 0.048790
v 0.074663 -0.112274 -0.173289
v 0.142047 -0.176859 -0.037750
v 0.139804 -0.178149 -0.027415
v 0.143929 -0.175847 -0.046573
v 0.117905 -0.173494 0.056390
v 0.065265 -0.114650 -0.001444
v 0.129976 -0.185666 0.058179
v 0.130890 -0.185186 0.044283
v 0.073520 -0.113104 -0.472461
v 0.072991 -0.113324 -0.459453
v 0.084844 -0.121275 -0.472461
v 0.147219 -0.162043 -0.087639
v 0.127508 -0.150660 -0.086853
v 0.150767 -0.164593 -0.087262
v 0.143341 -0.159226 -0.088139
v 0.131068 -0.149873 -0.089874
v 0.135318 -0.153108 -0.089226
v 0.126540 -0.147825 -0.091832
v 0.152186 -0.169040 -0.080796
v 0.154210 -0.167189 -0.086931
v 0.139540 -0.156352 -0.088655
v 0.120406 -0.147382 -0.103551
v 0.114627 -0.144483 -0.094845
v 0.120866 -0.146923 -0.098614
v 0.103015 -0.137470 -0.112395
v 0.120406 -0.147382 -0.118922
v 0.120406 -0.147382 -0.472461
v 0.108209 -0.138344 -0.472461
v 0.120406 -0.147382 -0.457089
v 0.073503 -0.113116 -0.238326
v 0.086853 -0.123868 -0.132599
v 0.073117 -0.113245 -0.251334
v 0.073911 -0.112746 -0.225319
v 0.072414 -0.113890 -0.290356
v 0.072686 -0.113515 -0.277349
v 0.071664 -0.114157 -0.303364
v 0.072674 -0.113705 -0.446446
v 0.071867 -0.114030 -0.433438
v 0.095954 -0.129352 -0.472461
v 0.071542 -0.114464 -0.342386
v 0.070551 -0.114857 -0.355393
v 0.071492 -0.114266 -0.329378
v 0.071444 -0.114518 -0.420431
v 0.070924 -0.114623 -0.407423
v 0.070830 -0.114857 -0.368401
v 0.070078 -0.115154 -0.381408
v 0.073026 -0.113456 -0.264341
v 0.076532 -0.111099 -0.121259
v 0.075543 -0.111670 -0.134267
v 0.077288 -0.110431 -0.108252
v 0.077384 -0.110534 -0.095441
v 0.071629 -0.114416 -0.316371
v 0.074101 -0.112692 -0.212311
v 0.074100 -0.112627 -0.199304
v 0.150124 -0.170868 -0.074891
v 0.148189 -0.172549 -0.068122
v 0.122213 -0.145575 -0.094013
v 0.115967 -0.144847 -0.090502
v 0.120406 -0.147382 -0.134293
v 0.106574 -0.141711 -0.120725
v 0.120406 -0.147382 -0.149664
v 0.120406 -0.147382 -0.165036
v 0.120406 -0.147382 -0.180407
v 0.120406 -0.147382 -0.195778
v 0.120406 -0.147382 -0.211149
v 0.120406 -0.147382 -0.226521
v 0.120406 -0.147382 -0.241892
v 0.120406 -0.147382 -0.257263
v 0.120406 -0.147382 -0.272634
v 0.120406 -0.147382 -0.288006
v 0.120406 -0.147382 -0.349490
v 0.120406 -0.147382 -0.334119
v 0.120406 -0.147382 -0.364862
v 0.120406 -0.147382 -0.380233
v 0.120406 -0.147382 -0.395604
v 0.120406 -0.147382 -0.410975
v 0.120406 -0.147382 -0.426347
v 0.075186 -0.111710 -0.082932
v 0.068952 -0.114751 -0.028215
v 0.120406 -0.147382 -0.303377
v 0.074385 -0.112597 -0.191586
v 0.074456 -0.112469 -0.184866
v 0.074857 -0.112281 -0.166548
v 0.074889 -0.112133 -0.160281
v 0.075000 -0.112186 -0.153722
v 0.120406 -0.147382 -0.441718
v 0.146573 -0.173907 -0.061443
v 0.103528 -0.134903 -0.472461
v 0.120406 -0.147382 -0.318748
v 0.070754 -0.114899 -0.394416
v 0.075329 -0.111966 -0.141507
v 0.074984 -0.112071 -0.147274
v 0.072949 -0.112208 -0.071704
v 0.069789 -0.112695 -0.054990
v 0.136520 -0.180869 -0.006326
v 0.137548 -0.180048 -0.013660
v 0.138488 -0.179253 -0.020111
v 0.134618 -0.182389 0.008595
v 0.074663 -0.112274 -0.173289
v 0.142047 -0.176859 -0.037750
v 0.139804 -0.178149 -0.027415
v 0.143929 -0.175847 -0.046573
vn 0.5847 0.8104 0.0375
vn 0.5853 0.8099 0.0376
vn 0.5851 0.8100 0.0401
vn 0.4052 0.6577 0.6350
vn 0.4049 0.6572 0.6357
vn 0.4048 0.6572 0.6357
vn 0.4177 0.6817 0.6007
vn 0.4174 0.6812 0.6015
vn 0.4176 0.6817 0.6007
vn 0.4001 0.6542 0.6419
vn 0.1953 0.8681 0.4563
vn 0.5269 0.7499 0.4001
vn 0.4036 0.6495 0.6444
vn 0.4040 0.6500 0.6437
vn 0.4037 0.6494 0.6444
vn 0.3002 0.9468 -0.1160
vn 0.4835 0.8748 0.0297
vn 0.4952 0.8688 0.0000
vn 0.5954 0.8035 0.0000
vn 0.5948 0.8039 0.0049
vn 0.5950 0.8037 0.0039
vn 0.7555 0.6545 -0.0289
vn 0.7561 0.6538 -0.0290
vn 0.7561 0.6538 -0.0289
vn 0.8073 0.5887 -0.0421
vn 0.7931 0.6082 -0.0341
vn 0.9255 0.3738 -0.0610
vn 0.9252 0.3744 -0.0610
vn 0.6001 0.7979 0.0572
vn 0.5882 0.8068 0.0553
vn 0.5929 0.8038 0.0496
vn 0.5874 0.8083 0.0392
vn 0.3037 0.9513 -0.0519
vn 0.4750 0.8799 -0.0116
vn 0.5919 0.8045 0.0494
vn 0.5621 0.8265 0.0291
vn 0.5502 0.8346 0.0279
vn 0.5548 0.8316 0.0250
vn 0.5349 0.8448 0.0115
vn 0.3624 0.9311 -0.0422
vn 0.6970 0.7168 -0.0165
vn 0.7275 0.6857 -0.0221
vn 0.7271 0.6862 -0.0221
vn 0.7410 0.6661 -0.0844
vn 0.7391 0.6691 -0.0776
vn 0.7364 0.6711 -0.0854
vn 0.7407 0.6674 -0.0773
vn 0.8135 0.5816 -0.0014
vn 0.5417 0.8406 0.0040
vn 0.4312 0.9021 -0.0191
vn 0.7046 0.7095 -0.0132
vn 0.6719 0.7406 -0.0036
vn 0.5048 0.7590 0.4112
vn 0.6940 0.6269 0.3541
vn 0.1694 0.9313 -0.3225
vn 0.2943 0.8939 0.3382
vn 0.1380 0.9896 0.0404
vn 0.3793 0.9253 0.0000
vn 0.5739 0.8189 0.0000
vn 0.5935 0.8049 0.0000
vn 0.5942 0.8043 0.0005
vn 0.4001 0.6368 0.6591
vn 0.3998 0.6362 0.6598
vn 0.3998 0.6369 0.6592
vn 0.5988 0.7930 0.1123
vn 0.2945 0.8540 0.4290
vn 0.9679 0.1691 0.1860
vn 0.5111 0.7320 -0.4505
vn 0.6599 0.7379 -0.1418
vn 0.8083 0.5008 -0.3095
vn 0.6251 0.7793 -0.0439
vn 0.7226 0.6910 -0.0186
vn 0.7228 0.6907 -0.0208
vn 0.7184 0.6952 -0.0236
vn 0.7449 0.6665 -0.0301
vn 0.7234 0.6901 -0.0201
vn 0.7233 0.6902 -0.0200
vn 0.7079 0.7062 -0.0065
vn 0.7076 0.7066 -0.0063
vn 0.7060 0.7082 -0.0099
vn 0.5876 0.8082 0.0397
vn 0.4780 0.7864 0.3913
vn 0.5572 0.7770 0.2928
vn 0.5920 0.8059 0.0064
vn 0.6339 0.7670 0.0997
vn 0.5632 0.8263 0.0067
vn 0.5641 0.8256 0.0064
vn 0.5632 0.8263 0.0019
vn 0.6921 0.7184 -0.0700
vn 0.6023 0.7969 0.0469
vn 0.5543 0.8320 0.0249
vn 0.3952 0.8758 -0.2771
vn 0.7374 0.6732 -0.0558
vn 0.7388 0.6720 -0.0503
vn 0.7358 0.6754 -0.0494
vn 0.7380 0.6724 -0.0564
vn 0.7116 0.7025 -0.0108
vn 0.2881 0.9541 0.0823
vn 0.7109 0.6809 0.1759
vn 0.6890 0.7003 0.1867
vn 0.7424 0.6503 0.1609
vn 0.6957 0.6956 0.1794
vn 0.6142 0.7771 0.1374
vn 0.7644 0.6411 0.0681
vn 0.6590 0.7470 0.0879
vn 0.7846 0.6195 0.0262
vn 0.6871 0.7152 0.1278
vn 0.6888 0.7152 0.1184
vn 0.7345 0.6783 -0.0214
vn 0.6068 0.7618 0.2268
vn 0.6101 0.7597 0.2250
vn 0.6119 0.7577 0.2267
vn 0.6197 0.7537 0.2187
vn 0.6312 0.7468 0.2097
vn 0.6107 0.7593 0.2248
vn 0.1301 0.9890 0.0698
vn 0.5632 0.8263 -0.0031
vn 0.6872 0.7255 0.0364
vn -0.7846 -0.6195 -0.0262
vn 0.7031 0.7076 0.0707
vn -0.6888 -0.7152 -0.1184
vn -0.6883 -0.7156 -0.1191
vn -0.6917 -0.7112 -0.1254
vn -0.6872 -0.7255 -0.0364
vn -0.7031 -0.7076 -0.0707
vn -0.5847 -0.8104 -0.0375
vn -0.5848 -0.8103 -0.0376
vn -0.5853 -0.8099 -0.0376
vn -0.4052 -0.6577 -0.6350
vn -0.4048 -0.6572 -0.6357
vn -0.4049 -0.6572 -0.6357
vn -0.4177 -0.6817 -0.6007
vn -0.4176 -0.6817 -0.6007
vn -0.4174 -0.6812 -0.6015
vn -0.4001 -0.6542 -0.6419
vn -0.1953 -0.8681 -0.4563
vn -0.5269 -0.7499 -0.4001
vn -0.4036 -0.6495 -0.6444
vn -0.4037 -0.6494 -0.6444
vn -0.4040 -0.6500 -0.6437
vn -0.3002 -0.9468 0.1160
vn -0.4835 -0.8748 -0.0297
vn -0.4952 -0.8688 0.0000
vn -0.5954 -0.8035 0.0000
vn -0.5912 -0.8065 -0.0025
vn -0.5948 -0.8039 -0.0049
vn -0.7555 -0.6545 0.0289
vn -0.7561 -0.6538 0.0289
vn -0.7561 -0.6538 0.0290
vn -0.8073 -0.5887 0.0421
vn -0.7931 -0.6082 0.0341
vn -0.9255 -0.3738 0.0610
vn -0.9252 -0.3744 0.0610
vn -0.6001 -0.7979 -0.0572
vn -0.5929 -0.8038 -0.0496
vn -0.5882 -0.8068 -0.0553
vn -0.5851 -0.8101 -0.0380
vn -0.3037 -0.9513 0.0519
vn -0.4750 -0.8799 0.0116
vn -0.5919 -0.8045 -0.0494
vn -0.5621 -0.8265 -0.0291
vn -0.5548 -0.8316 -0.0250
vn -0.5502 -0.8346 -0.0279
vn -0.5349 -0.8448 -0.0115
vn -0.3624 -0.9311 0.0422
vn -0.6970 -0.7168 0.0165
vn -0.7275 -0.6857 0.0221
vn -0.7271 -0.6862 0.0221
vn -0.7410 -0.6662 0.0843
vn -0.7364 -0.6711 0.0854
vn -0.7391 -0.6691 0.0776
vn -0.7407 -0.6674 0.0773
vn -0.8135 -0.5816 0.0014
vn -0.5417 -0.8406 -0.0040
vn -0.4312 -0.9021 0.0191
vn -0.7046 -0.7095 0.0132
vn -0.6719 -0.7406 0.0036
vn -0.5048 -0.7590 -0.4112
vn -0.6940 -0.6269 -0.3541
vn -0.1694 -0.9313 0.3225
vn -0.2943 -0.8939 -0.3382
vn -0.1380 -0.9896 -0.0404
vn -0.3793 -0.9253 0.0000
vn -0.5739 -0.8189 0.0000
vn -0.5935 -0.8049 0.0000
vn -0.4001 -0.6368 -0.6591
vn -0.3998 -0.6369 -0.6592
vn -0.3998 -0.6362 -0.6598
vn -0.5988 -0.7930 -0.1123
vn -0.2945 -0.8540 -0.4290
vn -0.9679 -0.1691 -0.1860
vn -0.5111 -0.7320 0.4505
vn -0.6599 -0.7379 0.1418
vn -0.8083 -0.5008 0.3095
vn -0.6251 -0.7793 0.0439
vn -0.7226 -0.6910 0.0186
vn -0.7184 -0.6952 0.0236
vn -0.7228 -0.6907 0.0208
vn -0.7449 -0.6665 0.0301
vn -0.7233 -0.6902 0.0200
vn -0.7234 -0.6901 0.0201
vn -0.7079 -0.7062 0.0065
vn -0.7060 -0.7082 0.0099
vn -0.7076 -0.7066 0.0063
vn -0.5876 -0.8082 -0.0397
vn -0.4780 -0.7864 -0.3913
vn -0.5572 -0.7770 -0.2928
vn -0.5911 -0.8066 -0.0057
vn -0.5920 -0.8059 -0.0064
vn -0.6339 -0.7670 -0.0997
vn -0.5632 -0.8263 -0.0067
vn -0.6921 -0.7184 0.0700
vn -0.6023 -0.7969 -0.0469
vn -0.5543 -0.8320 -0.0249
vn -0.3952 -0.8758 0.2771
vn -0.7374 -0.6732 0.0558
vn -0.7358 -0.6754 0.0494
vn -0.7388 -0.6720 0.0504
vn -0.7380 -0.6724 0.0564
vn -0.7116 -0.7025 0.0108
vn -0.2881 -0.9541 -0.0823
vn -0.7109 -0.6809 -0.1759
vn -0.6890 -0.7003 -0.1867
vn -0.7424 -0.6503 -0.1609
vn -0.6957 -0.6956 -0.1794
vn -0.6142 -0.7771 -0.1374
vn -0.7644 -0.6411 -0.0681
vn -0.6590 -0.7470 -0.0879
vn -0.6871 -0.7152 -0.1278
vn -0.7345 -0.6783 0.0214
vn -0.6068 -0.7618 -0.2268
vn -0.6119 -0.7577 -0.2267
vn -0.6101 -0.7597 -0.2250
vn -0.6197 -0.7537 -0.2187
vn -0.6312 -0.7468 -0.2097
vn -0.6107 -0.7593 -0.2248
vn -0.1301 -0.9890 -0.0698
vn -0.5632 -0.8263 0.0031
usemtl None.082
s 1
f 1//1 3//2 2//3
f 4//4 6//5 5//6
f 4//7 7//8 6//9
f 8//10 6//10 9//10
f 8//11 10//11 6//11
f 5//12 12//12 11//12
f 7//13 13//14 6//15
f 14//16 16//16 15//16
f 14//17 17//17 16//17
f 14//18 18//18 17//18
f 19//19 21//20 20//21
f 22//22 24//23 23//24
f 22//25 25//25 24//25
f 26//26 27//26 24//26
f 26//27 24//28 28//28
f 29//29 31//30 30//31
f 29//32 2//3 3//2
f 32//33 30//33 33//33
f 32//34 34//34 30//34
f 35//35 30//31 31//30
f 35//36 36//37 30//38
f 37//39 33//39 30//39
f 37//40 30//40 38//40
f 39//41 23//41 24//41
f 39//42 24//43 27//43
f 40//44 24//45 41//46
f 40//44 42//47 24//45
f 43//48 24//48 42//48
f 44//49 30//49 34//49
f 44//50 28//50 30//50
f 45//51 24//51 25//51
f 45//52 46//52 24//52
f 12//53 5//53 47//53
f 47//54 5//54 48//54
f 15//55 16//55 49//55
f 49//56 50//56 10//56
f 49//57 16//57 50//57
f 18//58 52//58 51//58
f 52//58 53//58 51//58
f 53//58 54//58 51//58
f 54//59 55//59 24//59
f 55//59 56//59 24//59
f 56//59 57//59 24//59
f 57//59 58//59 24//59
f 59//59 60//59 24//59
f 60//59 61//59 24//59
f 61//59 62//59 24//59
f 63//60 30//61 64//60
f 63//60 65//60 30//61
f 65//60 66//60 30//61
f 66//60 67//60 30//61
f 67//60 68//60 30//61
f 68//60 69//60 30//61
f 13//62 9//63 6//64
f 6//65 71//65 70//65
f 6//66 10//66 50//66
f 24//67 43//67 71//67
f 50//68 71//68 6//68
f 62//59 72//59 24//59
f 16//69 17//69 50//69
f 24//70 50//70 17//70
f 24//71 71//71 50//71
f 58//59 59//59 24//59
f 24//72 74//73 73//74
f 24//75 46//75 74//75
f 24//72 76//76 75//77
f 24//78 75//79 77//80
f 29//32 30//81 2//3
f 78//60 20//21 30//61
f 78//60 30//61 69//60
f 5//82 6//82 48//82
f 48//83 6//83 79//83
f 20//21 80//84 30//61
f 20//21 21//20 80//84
f 24//85 51//85 54//85
f 64//60 30//61 81//60
f 30//86 28//87 72//88
f 24//89 17//89 51//89
f 82//90 38//90 30//90
f 82//91 30//38 36//37
f 81//60 30//61 72//60
f 51//92 17//92 18//92
f 24//93 83//94 41//95
f 24//93 84//96 83//94
f 24//78 77//80 84//97
f 70//98 86//98 85//98
f 6//99 88//99 87//99
f 6//100 87//100 89//100
f 6//101 90//101 88//101
f 6//102 91//102 90//102
f 6//103 70//103 91//103
f 92//104 91//104 70//104
f 92//105 70//105 93//105
f 92//106 93//106 94//106
f 91//107 95//107 90//107
f 91//108 96//108 95//108
f 97//109 24//72 73//74
f 97//109 76//76 24//72
f 98//110 6//111 99//112
f 98//113 100//113 6//113
f 100//114 79//114 6//114
f 99//112 6//111 89//115
f 70//116 71//116 86//116
f 24//117 72//88 28//87
f 95//118 96//118 101//118
f 94//119 102//119 92//119
f 95//120 101//120 103//120
f 96//121 91//122 104//123
f 96//124 104//124 101//124
f 103//125 101//125 104//125
f 105//126 107//127 106//128
f 108//129 110//130 109//131
f 108//132 109//133 111//134
f 112//135 113//135 109//135
f 112//136 109//136 114//136
f 110//137 116//137 115//137
f 111//138 109//139 117//140
f 118//141 120//141 119//141
f 118//142 119//142 121//142
f 118//143 121//143 122//143
f 123//144 125//145 124//146
f 126//147 128//148 127//149
f 126//150 127//150 129//150
f 130//151 127//151 131//151
f 130//152 132//153 127//153
f 133//154 135//155 134//156
f 133//157 106//128 107//127
f 136//158 137//158 135//158
f 136//159 135//159 138//159
f 139//160 134//156 135//155
f 139//161 135//162 140//163
f 141//164 135//164 137//164
f 141//165 142//165 135//165
f 143//166 127//166 128//166
f 143//167 131//168 127//168
f 144//169 145//170 127//171
f 144//169 127//171 146//172
f 147//173 146//173 127//173
f 148//174 138//174 135//174
f 148//175 135//175 132//175
f 149//176 129//176 127//176
f 149//177 127//177 150//177
f 115//178 151//178 110//178
f 151//179 152//179 110//179
f 120//180 153//180 119//180
f 153//181 114//181 154//181
f 153//182 154//182 119//182
f 122//183 156//183 155//183
f 155//183 156//183 157//183
f 157//183 156//183 158//183
f 158//184 127//184 159//184
f 159//184 127//184 160//184
f 160//184 127//184 161//184
f 161//184 127//184 162//184
f 163//184 127//184 164//184
f 164//184 127//184 165//184
f 165//184 127//184 166//184
f 167//185 168//185 135//185
f 167//185 135//185 169//185
f 169//185 135//185 170//185
f 170//185 135//185 171//185
f 171//185 135//185 172//185
f 172//185 135//185 173//185
f 117//186 109//187 113//188
f 109//189 175//189 174//189
f 109//190 154//190 114//190
f 127//191 174//191 147//191
f 154//192 109//192 174//192
f 166//184 127//184 176//184
f 119//193 154//193 121//193
f 127//194 121//194 154//194
f 127//195 154//195 174//195
f 162//184 127//184 163//184
f 127//196 178//197 177//198
f 127//199 177//199 150//199
f 127//196 180//200 179//201
f 127//202 181//203 180//204
f 133//205 107//205 135//205
f 182//185 135//185 125//185
f 182//185 173//185 135//185
f 110//206 152//206 109//206
f 152//207 183//207 109//207
f 125//145 135//208 184//209
f 125//145 184//209 124//146
f 127//210 158//210 156//210
f 168//185 185//185 135//185
f 135//211 176//211 132//211
f 127//212 156//212 121//212
f 186//213 135//213 142//213
f 186//214 140//163 135//162
f 185//185 176//185 135//185
f 156//215 122//215 121//215
f 127//216 145//217 187//218
f 127//216 187//218 188//219
f 127//202 188//220 181//203
f 175//221 190//221 189//221
f 109//222 192//222 191//222
f 109//223 193//223 192//223
f 109//224 191//224 194//224
f 109//225 194//225 91//225
f 109//226 91//226 175//226
f 92//227 175//227 91//227
f 92//228 102//228 175//228
f 91//122 194//229 104//123
f 195//230 178//197 127//196
f 195//230 127//196 179//201
f 196//231 197//232 109//233
f 196//234 109//234 198//234
f 198//235 109//235 183//235
f 197//232 193//236 109//233
f 175//237 189//237 174//237
f 127//238 132//238 176//238
