# Blender v2.79 (sub 0) OBJ File: ''
# www.blender.org
mtllib crack_restart_keyway_710.mtl
o crack_restart_keyway_710
v 0.073350 -0.113225 -0.472461
v 0.072932 -0.113361 -0.459453
v 0.084656 -0.121393 -0.472461
v 0.147225 -0.162039 -0.087634
v 0.127508 -0.150660 -0.086853
v 0.150731 -0.164625 -0.087293
v 0.143382 -0.159202 -0.088100
v 0.131068 -0.149873 -0.089874
v 0.135365 -0.153079 -0.089186
v 0.126540 -0.147825 -0.091832
v 0.152183 -0.169044 -0.080798
v 0.154210 -0.167189 -0.086931
v 0.139592 -0.156319 -0.088614
v 0.120406 -0.147382 -0.457089
v 0.095802 -0.129473 -0.472461
v 0.120406 -0.147382 -0.103551
v 0.114631 -0.144474 -0.094849
v 0.120866 -0.146923 -0.098614
v 0.120406 -0.147382 -0.118922
v 0.120406 -0.147382 -0.472461
v 0.108112 -0.138422 -0.472461
v 0.074030 -0.112743 -0.186296
v 0.074388 -0.112446 -0.173289
v 0.102250 -0.136898 -0.128182
v 0.120406 -0.147382 -0.226521
v 0.074041 -0.112664 -0.199304
v 0.073567 -0.113071 -0.238326
v 0.089328 -0.126659 -0.264974
v 0.073186 -0.113201 -0.251334
v 0.073852 -0.112783 -0.225319
v 0.070700 -0.114929 -0.394416
v 0.069906 -0.115262 -0.381408
v 0.095514 -0.132018 -0.304020
v 0.070967 -0.114596 -0.407423
v 0.072163 -0.114067 -0.290356
v 0.072604 -0.113567 -0.277349
v 0.071422 -0.114309 -0.303364
v 0.072600 -0.113757 -0.446446
v 0.071898 -0.114011 -0.433438
v 0.071824 -0.114308 -0.342386
v 0.071550 -0.114229 -0.329378
v 0.070457 -0.114916 -0.355393
v 0.071555 -0.114456 -0.420431
v 0.070516 -0.115031 -0.368401
v 0.073094 -0.113407 -0.264341
v 0.074622 -0.112323 -0.160281
v 0.074953 -0.112091 -0.147274
v 0.076272 -0.111262 -0.121259
v 0.075688 -0.111566 -0.134267
v 0.076391 -0.111067 -0.108252
v 0.071655 -0.114401 -0.316371
v 0.074035 -0.112739 -0.212311
v 0.138531 -0.180017 0.258117
v 0.133775 -0.182795 0.188907
v 0.141932 -0.176295 0.292928
v 0.140931 -0.177637 0.281551
v 0.146848 -0.173667 -0.061409
v 0.148177 -0.172559 -0.068129
v 0.146035 -0.174227 -0.051074
v 0.150298 -0.170716 -0.074796
v 0.122213 -0.145575 -0.094013
v 0.115969 -0.144845 -0.090501
v 0.120406 -0.147382 -0.134293
v 0.120406 -0.147382 -0.149664
v 0.120406 -0.147382 -0.165036
v 0.120406 -0.147382 -0.180407
v 0.120406 -0.147382 -0.195778
v 0.120406 -0.147382 -0.211149
v 0.120406 -0.147382 -0.241892
v 0.120406 -0.147382 -0.257263
v 0.104170 -0.140678 -0.280927
v 0.120406 -0.147382 -0.272634
v 0.120406 -0.147382 -0.288006
v 0.120406 -0.147382 -0.334119
v 0.120406 -0.147382 -0.349490
v 0.120406 -0.147382 -0.318748
v 0.120406 -0.147382 -0.364862
v 0.120406 -0.147382 -0.380233
v 0.120406 -0.147382 -0.395604
v 0.120406 -0.147382 -0.410975
v 0.120406 -0.147382 -0.426347
v 0.120406 -0.147382 -0.441718
v 0.144893 -0.174646 -0.039819
v 0.105075 -0.140114 -0.066964
v 0.143602 -0.175072 -0.027821
v 0.111750 -0.143616 -0.082180
v 0.075770 -0.111487 -0.096541
v 0.074600 -0.112097 -0.081618
v 0.107917 -0.141789 -0.075145
v 0.094986 -0.133181 -0.288865
v 0.120406 -0.147382 -0.303377
v 0.103580 -0.135125 -0.472461
v 0.071718 -0.111156 -0.054992
v 0.112590 -0.138564 0.325475
v 0.081325 -0.103488 0.264341
v 0.083474 -0.103939 0.290356
v 0.080606 -0.106226 0.238326
v 0.145096 -0.173425 0.329559
v 0.130638 -0.158462 0.332104
v 0.145268 -0.173358 0.337912
v 0.142916 -0.174951 0.304721
v 0.145096 -0.173425 0.329559
v 0.142916 -0.174951 0.304721
v 0.141932 -0.176295 0.292928
v 0.070325 -0.112210 -0.001446
v 0.071432 -0.113552 0.025331
v 0.072262 -0.113030 -0.026433
v 0.070015 -0.112511 0.052171
v 0.071199 -0.113700 0.078761
v 0.070080 -0.112334 0.106111
v 0.072922 -0.112615 0.129544
v 0.073541 -0.109699 0.159331
v 0.077872 -0.109506 0.199259
v 0.133297 -0.183092 0.138078
v 0.079300 -0.108326 0.218315
v 0.133806 -0.182449 0.112090
v 0.135039 -0.181879 0.086230
v 0.136170 -0.180753 0.064137
v 0.138299 -0.179552 0.036634
v 0.139841 -0.178187 0.017095
v 0.142010 -0.176461 -0.009024
v 0.084433 -0.104413 0.307923
v 0.083474 -0.103939 0.290356
v 0.073350 -0.113225 -0.472461
v 0.084656 -0.121393 -0.472461
v 0.072932 -0.113361 -0.459453
v 0.147225 -0.162039 -0.087634
v 0.150731 -0.164625 -0.087293
v 0.127508 -0.150660 -0.086853
v 0.143382 -0.159202 -0.088100
v 0.131068 -0.149873 -0.089874
v 0.135365 -0.153079 -0.089186
v 0.126540 -0.147825 -0.091832
v 0.154210 -0.167189 -0.086931
v 0.152183 -0.169044 -0.080798
v 0.139592 -0.156319 -0.088614
v 0.120406 -0.147382 -0.457089
v 0.095802 -0.129473 -0.472461
v 0.120406 -0.147382 -0.103551
v 0.120866 -0.146923 -0.098614
v 0.114631 -0.144474 -0.094849
v 0.120406 -0.147382 -0.118922
v 0.120406 -0.147382 -0.472461
v 0.108112 -0.138422 -0.472461
v 0.074030 -0.112743 -0.186296
v 0.102250 -0.136898 -0.128182
v 0.074388 -0.112446 -0.173289
v 0.120406 -0.147382 -0.226521
v 0.074041 -0.112664 -0.199304
v 0.073567 -0.113071 -0.238326
v 0.073186 -0.113201 -0.251334
v 0.089328 -0.126659 -0.264974
v 0.073852 -0.112783 -0.225319
v 0.070700 -0.114929 -0.394416
v 0.095514 -0.132018 -0.304020
v 0.069906 -0.115262 -0.381408
v 0.070967 -0.114596 -0.407423
v 0.072163 -0.114067 -0.290356
v 0.072604 -0.113567 -0.277349
v 0.071422 -0.114309 -0.303364
v 0.072600 -0.113757 -0.446446
v 0.071898 -0.114011 -0.433438
v 0.071824 -0.114308 -0.342386
v 0.071550 -0.114229 -0.329378
v 0.070457 -0.114916 -0.355393
v 0.071555 -0.114456 -0.420431
v 0.070516 -0.115031 -0.368401
v 0.073094 -0.113407 -0.264341
v 0.074622 -0.112323 -0.160281
v 0.074953 -0.112091 -0.147274
v 0.076272 -0.111262 -0.121259
v 0.075688 -0.111566 -0.134267
v 0.076391 -0.111067 -0.108252
v 0.071655 -0.114401 -0.316371
v 0.074035 -0.112739 -0.212311
v 0.138531 -0.180017 0.258117
v 0.133775 -0.182795 0.188907
v 0.140931 -0.177637 0.281551
v 0.146848 -0.173667 -0.061409
v 0.148177 -0.172559 -0.068129
v 0.146035 -0.174227 -0.051074
v 0.150298 -0.170716 -0.074796
v 0.122213 -0.145575 -0.094013
v 0.115969 -0.144845 -0.090501
v 0.120406 -0.147382 -0.134293
v 0.120406 -0.147382 -0.149664
v 0.120406 -0.147382 -0.165036
v 0.120406 -0.147382 -0.180407
v 0.120406 -0.147382 -0.195778
v 0.120406 -0.147382 -0.211149
v 0.120406 -0.147382 -0.241892
v 0.104170 -0.140678 -0.280927
v 0.120406 -0.147382 -0.257263
v 0.120406 -0.147382 -0.272634
v 0.120406 -0.147382 -0.288006
v 0.120406 -0.147382 -0.334119
v 0.120406 -0.147382 -0.349490
v 0.120406 -0.147382 -0.318748
v 0.120406 -0.147382 -0.364862
v 0.120406 -0.147382 -0.380233
v 0.120406 -0.147382 -0.395604
v 0.120406 -0.147382 -0.410975
v 0.120406 -0.147382 -0.426347
v 0.120406 -0.147382 -0.441718
v 0.144893 -0.174646 -0.039819
v 0.143602 -0.175072 -0.027821
v 0.105075 -0.140114 -0.066964
v 0.111750 -0.143616 -0.082180
v 0.074600 -0.112097 -0.081618
v 0.075770 -0.111487 -0.096541
v 0.107917 -0.141789 -0.075145
v 0.094986 -0.133181 -0.288865
v 0.120406 -0.147382 -0.303377
v 0.103580 -0.135125 -0.472461
v 0.071718 -0.111156 -0.054992
v 0.081325 -0.103488 0.264341
v 0.080606 -0.106226 0.238326
v 0.070325 -0.112210 -0.001446
v 0.071432 -0.113552 0.025331
v 0.072262 -0.113030 -0.026433
v 0.070015 -0.112511 0.052171
v 0.071199 -0.113700 0.078761
v 0.070080 -0.112334 0.106111
v 0.072922 -0.112615 0.129544
v 0.073541 -0.109699 0.159331
v 0.133297 -0.183092 0.138078
v 0.077872 -0.109506 0.199259
v 0.079300 -0.108326 0.218315
v 0.133806 -0.182449 0.112090
v 0.135039 -0.181879 0.086230
v 0.136170 -0.180753 0.064137
v 0.138299 -0.179552 0.036634
v 0.139841 -0.178187 0.017095
v 0.142010 -0.176461 -0.009024
vn -0.5854 -0.8103 -0.0273
vn -0.5854 -0.8104 -0.0216
vn -0.5835 -0.8117 -0.0247
vn -0.3753 -0.6018 -0.7050
vn -0.3749 -0.6013 -0.7056
vn -0.3750 -0.6012 -0.7056
vn -0.3995 -0.6477 -0.6487
vn -0.3933 -0.6637 -0.6363
vn -0.1953 -0.8681 -0.4563
vn -0.5165 -0.7573 -0.3997
vn -0.4734 -0.7739 -0.4207
vn -0.3948 -0.6371 -0.6620
vn -0.3940 -0.6363 -0.6632
vn -0.3990 -0.6381 -0.6585
vn -0.5816 -0.8132 -0.0221
vn -0.5869 -0.8096 -0.0038
vn -0.5876 -0.8091 -0.0048
vn -0.5869 -0.8096 -0.0013
vn -0.3016 -0.9463 0.1161
vn -0.4497 -0.8932 0.0000
vn -0.5890 -0.8081 0.0000
vn -0.5889 -0.8082 -0.0011
vn -0.6911 -0.7219 0.0355
vn -0.6144 -0.7885 -0.0294
vn -0.6014 -0.7989 -0.0054
vn -0.6020 -0.7985 0.0037
vn -0.6011 -0.7992 -0.0050
vn -0.6205 -0.7837 0.0270
vn -0.6270 -0.7786 0.0261
vn -0.6232 -0.7815 0.0309
vn -0.6221 -0.7823 0.0310
vn -0.4374 -0.8979 -0.0497
vn -0.4843 -0.8743 -0.0323
vn -0.4885 -0.8720 -0.0321
vn -0.4870 -0.8728 -0.0317
vn -0.5898 -0.8061 0.0489
vn -0.5900 -0.8058 0.0509
vn -0.5898 -0.8060 0.0510
vn -0.5907 -0.8054 0.0486
vn -0.5820 -0.8122 -0.0401
vn -0.5827 -0.8114 -0.0456
vn -0.5801 -0.8132 -0.0469
vn -0.5807 -0.8131 -0.0396
vn -0.5909 -0.8067 -0.0075
vn -0.5915 -0.8063 -0.0071
vn -0.5905 -0.8070 -0.0062
vn -0.7003 -0.7058 0.1066
vn -0.5804 -0.8132 -0.0431
vn -0.5703 -0.8215 0.0047
vn -0.6357 -0.7707 0.0435
vn -0.6319 -0.7749 0.0167
vn -0.6312 -0.7749 0.0333
vn -0.6838 -0.7290 0.0304
vn -0.6768 -0.7359 0.0191
vn -0.6951 -0.7173 0.0480
vn -0.7000 -0.7139 0.0171
vn -0.5920 -0.8059 -0.0051
vn -0.5923 -0.8057 -0.0049
vn -0.5975 -0.8018 0.0049
vn -0.5963 -0.8027 0.0111
vn -0.9163 0.3977 0.0470
vn -0.7430 -0.6539 0.1425
vn -0.5926 -0.7677 -0.2438
vn -0.7087 -0.6993 -0.0936
vn -0.7041 -0.7038 -0.0943
vn -0.7052 -0.7023 -0.0976
vn -0.4933 -0.7854 -0.3740
vn -0.4934 -0.7854 -0.3739
vn -0.4933 -0.7854 -0.3739
vn -0.4934 -0.7854 -0.3738
vn -0.1708 -0.9310 0.3227
vn -0.2945 -0.8939 -0.3378
vn -0.1391 -0.9894 -0.0416
vn -0.5001 -0.8660 0.0000
vn -0.4948 -0.8689 -0.0137
vn -0.3817 -0.9243 -0.0000
vn -0.5252 -0.8510 -0.0000
vn -0.6149 -0.7829 -0.0940
vn -0.6166 -0.7821 -0.0905
vn -0.3929 -0.6307 -0.6692
vn -0.4578 -0.8490 -0.2638
vn -0.7050 -0.7025 -0.0977
vn -0.4681 -0.8040 -0.3668
vn -0.7411 -0.6660 -0.0853
vn -0.2708 -0.9626 0.0049
vn -0.8694 -0.2932 -0.3976
vn -0.8694 -0.2938 -0.3973
vn -0.8694 -0.2933 -0.3976
vn -0.4186 -0.9073 -0.0389
vn -0.6656 -0.7463 0.0023
vn -0.4638 -0.8461 -0.2625
vn -0.4838 -0.8711 -0.0837
vn -0.5659 -0.8244 -0.0054
vn -0.5576 -0.8301 -0.0075
vn -0.5616 -0.8273 -0.0092
vn -0.4871 -0.8728 -0.0314
vn -0.5589 -0.8292 0.0000
vn -0.8860 -0.3976 0.2387
vn -0.6292 -0.7717 0.0927
vn -0.5882 -0.8087 -0.0018
vn -0.6570 -0.7522 0.0497
vn -0.6555 -0.7516 -0.0738
vn -0.8639 -0.4990 -0.0684
vn -0.2667 -0.9582 0.1035
vn -0.7292 -0.6813 -0.0631
vn -0.6641 -0.7462 -0.0455
vn -0.6629 -0.7478 -0.0368
vn -0.6619 -0.7482 -0.0446
vn -0.6206 -0.7840 0.0093
vn -0.6967 -0.7141 0.0682
vn -0.5950 -0.8023 0.0485
vn -0.7420 -0.6630 0.0996
vn -0.7909 -0.6095 0.0548
vn -0.8116 -0.5782 0.0833
vn -0.7173 -0.6965 0.0204
vn -0.7062 -0.7002 0.1050
vn 0.7173 0.6965 -0.0204
vn 0.7062 0.7002 -0.1050
vn -0.6697 -0.7295 0.1390
vn 0.6697 0.7295 -0.1390
vn -0.6398 -0.7684 -0.0121
vn -0.6553 -0.7549 -0.0260
vn -0.6241 -0.7813 -0.0026
vn -0.6317 -0.7752 -0.0073
vn -0.6365 -0.7713 -0.0036
vn -0.6626 -0.7481 -0.0365
vn -0.5653 -0.8247 0.0181
vn -0.6321 -0.7748 -0.0065
vn -0.4700 -0.8814 0.0464
vn -0.2212 -0.9701 0.0996
vn -0.7603 -0.6439 0.0856
vn -0.7787 -0.6270 -0.0242
vn -0.8212 -0.5625 0.0964
vn -0.7876 -0.6115 0.0759
vn -0.7943 -0.6074 0.0110
vn -0.7614 -0.6476 -0.0309
vn -0.7166 -0.6957 -0.0495
vn -0.6665 -0.7420 -0.0719
vn -0.6439 -0.7606 -0.0831
vn -0.6107 -0.7851 -0.1030
vn -0.6117 -0.7844 -0.1028
vn -0.6105 -0.7853 -0.1027
vn -0.6128 -0.7828 -0.1084
vn -0.6046 -0.7890 -0.1095
vn -0.7516 -0.6546 0.0813
vn -0.7777 -0.6281 0.0255
vn -0.8394 -0.5321 0.1106
vn 0.7777 0.6281 -0.0255
vn 0.5854 0.8103 0.0273
vn 0.3753 0.6018 0.7050
vn 0.3750 0.6012 0.7056
vn 0.3749 0.6013 0.7056
vn 0.3995 0.6477 0.6487
vn 0.3933 0.6637 0.6363
vn 0.1953 0.8681 0.4563
vn 0.5165 0.7573 0.3997
vn 0.4734 0.7739 0.4207
vn 0.3948 0.6371 0.6620
vn 0.3989 0.6381 0.6586
vn 0.3940 0.6363 0.6632
vn 0.5816 0.8132 0.0221
vn 0.5869 0.8096 0.0038
vn 0.5869 0.8097 0.0030
vn 0.5876 0.8091 0.0048
vn 0.3016 0.9463 -0.1161
vn 0.4497 0.8932 0.0000
vn 0.5890 0.8081 0.0000
vn 0.6911 0.7219 -0.0355
vn 0.6144 0.7885 0.0294
vn 0.6014 0.7989 0.0054
vn 0.6270 0.7786 -0.0261
vn 0.6285 0.7774 -0.0257
vn 0.6262 0.7794 -0.0181
vn 0.6221 0.7823 -0.0310
vn 0.4374 0.8979 0.0497
vn 0.4843 0.8743 0.0323
vn 0.4870 0.8728 0.0317
vn 0.4885 0.8720 0.0321
vn 0.5898 0.8061 -0.0489
vn 0.5898 0.8060 -0.0510
vn 0.5900 0.8058 -0.0509
vn 0.5907 0.8054 -0.0486
vn 0.5820 0.8122 0.0400
vn 0.5801 0.8132 0.0469
vn 0.5827 0.8114 0.0456
vn 0.5807 0.8131 0.0396
vn 0.5909 0.8067 0.0075
vn 0.5905 0.8070 0.0062
vn 0.5915 0.8063 0.0071
vn 0.7003 0.7058 -0.1066
vn 0.5804 0.8132 0.0431
vn 0.5703 0.8215 -0.0047
vn 0.6357 0.7707 -0.0435
vn 0.6319 0.7749 -0.0167
vn 0.6312 0.7749 -0.0333
vn 0.6838 0.7290 -0.0304
vn 0.6768 0.7359 -0.0191
vn 0.6951 0.7173 -0.0480
vn 0.7000 0.7139 -0.0171
vn 0.5920 0.8059 0.0051
vn 0.5923 0.8057 0.0049
vn 0.5976 0.8017 -0.0107
vn 0.5975 0.8018 -0.0049
vn 0.5974 0.8019 -0.0051
vn 0.5963 0.8027 -0.0111
vn 0.9163 -0.3977 -0.0470
vn 0.7430 0.6539 -0.1425
vn 0.5926 0.7677 0.2438
vn 0.7087 0.6993 0.0936
vn 0.7052 0.7023 0.0976
vn 0.7041 0.7038 0.0943
vn 0.4933 0.7854 0.3740
vn 0.4933 0.7854 0.3739
vn 0.4934 0.7854 0.3739
vn 0.4934 0.7854 0.3738
vn 0.1708 0.9310 -0.3227
vn 0.2945 0.8939 0.3378
vn 0.1391 0.9894 0.0416
vn 0.5001 0.8660 0.0000
vn 0.4948 0.8689 0.0137
vn 0.3817 0.9243 0.0000
vn 0.5252 0.8510 0.0000
vn 0.6133 0.7844 0.0927
vn 0.6179 0.7808 0.0923
vn 0.6149 0.7829 0.0940
vn 0.6166 0.7821 0.0905
vn 0.3929 0.6307 0.6692
vn 0.4578 0.8490 0.2638
vn 0.7050 0.7025 0.0977
vn 0.4681 0.8040 0.3668
vn 0.7411 0.6660 0.0853
vn 0.2708 0.9626 -0.0049
vn 0.8694 0.2932 0.3976
vn 0.8694 0.2933 0.3976
vn 0.8694 0.2938 0.3973
vn 0.4186 0.9073 0.0389
vn 0.6656 0.7463 -0.0023
vn 0.4638 0.8461 0.2625
vn 0.4838 0.8711 0.0837
vn 0.5616 0.8273 0.0092
vn 0.4871 0.8728 0.0314
vn 0.5589 0.8292 0.0000
vn 0.8860 0.3976 -0.2387
vn 0.6292 0.7717 -0.0927
vn 0.5883 0.8087 0.0009
vn 0.5882 0.8087 0.0018
vn 0.6570 0.7522 -0.0497
vn 0.6555 0.7516 0.0738
vn 0.8639 0.4990 0.0684
vn 0.2667 0.9582 -0.1035
vn 0.7292 0.6813 0.0631
vn 0.6641 0.7462 0.0455
vn 0.6619 0.7482 0.0446
vn 0.6629 0.7478 0.0368
vn 0.6206 0.7840 -0.0093
vn 0.6967 0.7141 -0.0682
vn 0.5950 0.8023 -0.0485
vn 0.7420 0.6630 -0.0996
vn 0.7909 0.6095 -0.0548
vn 0.8116 0.5782 -0.0833
vn 0.6398 0.7684 0.0121
vn 0.6553 0.7549 0.0260
vn 0.6241 0.7813 0.0026
vn 0.6365 0.7713 0.0036
vn 0.6317 0.7752 0.0073
vn 0.6626 0.7481 0.0365
vn 0.5653 0.8247 -0.0181
vn 0.6321 0.7748 0.0065
vn 0.4700 0.8814 -0.0464
vn 0.2212 0.9701 -0.0996
vn 0.7603 0.6439 -0.0856
vn 0.7787 0.6270 0.0242
vn 0.8212 0.5625 -0.0964
vn 0.7876 0.6115 -0.0759
vn 0.7943 0.6074 -0.0110
vn 0.7614 0.6476 0.0309
vn 0.7166 0.6957 0.0495
vn 0.6665 0.7420 0.0719
vn 0.6439 0.7606 0.0831
vn 0.6107 0.7851 0.1030
vn 0.6105 0.7853 0.1027
vn 0.6117 0.7844 0.1028
vn 0.6128 0.7828 0.1084
vn 0.6046 0.7890 0.1095
vn 0.7516 0.6546 -0.0813
vn 0.8394 0.5321 -0.1106
usemtl None.137
s 1
f 1//1 3//2 2//3
f 4//4 6//5 5//6
f 4//7 5//7 7//7
f 8//8 9//8 5//8
f 8//9 5//9 10//9
f 6//10 12//10 11//10
f 6//11 11//11 5//11
f 7//12 5//13 13//14
f 3//2 14//15 2//3
f 3//16 15//17 14//18
f 16//19 18//19 17//19
f 16//20 17//20 19//20
f 20//21 14//18 21//22
f 22//23 24//23 23//23
f 22//24 25//24 24//24
f 22//25 26//26 25//27
f 27//28 29//29 28//30
f 27//28 28//30 30//31
f 31//32 33//32 32//32
f 31//33 34//34 33//35
f 35//36 33//37 36//38
f 35//36 37//39 33//37
f 38//40 14//41 39//42
f 38//40 2//43 14//41
f 40//44 33//45 41//46
f 40//47 42//47 33//47
f 43//48 39//42 14//41
f 44//49 33//49 42//49
f 44//50 32//50 33//50
f 45//51 28//51 29//51
f 45//52 36//52 28//52
f 46//53 24//53 47//53
f 46//54 23//54 24//54
f 48//55 49//55 24//55
f 48//56 24//56 50//56
f 51//57 41//46 33//45
f 51//57 33//45 37//58
f 52//59 25//27 26//26
f 52//60 30//60 25//60
f 53//61 55//61 54//61
f 53//62 56//62 55//62
f 57//63 5//63 58//63
f 57//64 59//65 5//66
f 58//67 5//68 60//69
f 11//70 60//69 5//68
f 18//71 61//71 17//71
f 61//72 10//72 62//72
f 61//73 62//73 17//73
f 19//74 24//74 63//74
f 19//75 17//75 24//75
f 63//74 24//74 64//74
f 65//74 24//74 66//74
f 65//74 64//74 24//74
f 66//74 24//74 67//74
f 67//74 24//74 68//74
f 69//76 71//76 70//76
f 69//76 25//76 71//76
f 70//76 71//76 72//76
f 72//76 71//76 73//76
f 74//77 33//77 75//77
f 74//77 76//77 33//77
f 75//77 33//77 77//77
f 77//77 33//77 78//77
f 78//77 33//77 79//77
f 79//77 33//77 80//77
f 80//77 33//77 81//77
f 81//77 33//77 82//77
f 83//78 85//78 84//78
f 83//79 84//79 86//79
f 13//14 5//13 9//80
f 83//81 86//81 5//81
f 83//82 5//66 59//65
f 86//83 10//83 5//83
f 24//84 88//84 87//84
f 10//85 86//85 62//85
f 62//86 86//87 89//88
f 89//89 24//89 62//89
f 89//90 88//90 24//90
f 73//91 71//91 90//91
f 73//77 33//77 91//77
f 73//92 90//92 33//92
f 91//77 33//77 76//77
f 43//93 82//94 33//95
f 43//96 33//35 34//34
f 43//93 14//97 82//94
f 62//98 24//98 17//98
f 68//74 24//74 25//74
f 71//99 25//99 28//99
f 14//18 92//100 21//22
f 14//18 15//17 92//100
f 71//101 28//101 90//101
f 89//102 84//102 88//102
f 90//103 28//103 33//103
f 86//104 84//104 89//104
f 24//105 87//105 50//105
f 88//106 84//107 93//108
f 33//109 28//109 36//109
f 49//110 47//110 24//110
f 30//111 28//111 25//111
f 54//112 55//112 94//112
f 95//113 94//113 96//113
f 95//114 97//114 94//114
f 98//115 100//115 99//115
f 98//116 99//116 101//116
f 99//117 100//117 102//117
f 99//118 102//118 103//118
f 99//119 55//119 101//119
f 99//120 103//120 104//120
f 105//121 84//121 106//121
f 105//122 107//122 84//122
f 106//123 84//124 108//125
f 107//126 93//108 84//107
f 109//127 84//127 110//127
f 109//128 108//125 84//124
f 110//129 84//129 111//129
f 111//130 84//130 112//130
f 112//131 114//131 113//131
f 112//132 84//132 114//132
f 113//133 94//133 115//133
f 113//134 54//134 94//134
f 113//135 114//135 54//135
f 116//136 114//136 84//136
f 116//137 84//137 117//137
f 117//138 84//138 118//138
f 119//139 118//139 84//139
f 119//140 84//141 120//142
f 120//142 84//141 121//143
f 85//144 121//143 84//141
f 55//145 99//145 94//145
f 96//146 94//146 122//146
f 94//147 97//147 115//147
f 122//148 94//148 123//148
f 124//149 126//149 125//149
f 127//150 129//151 128//152
f 127//153 130//153 129//153
f 131//154 129//154 132//154
f 131//155 133//155 129//155
f 128//156 135//156 134//156
f 128//157 129//157 135//157
f 130//158 136//159 129//160
f 125//161 126//161 137//161
f 125//162 137//163 138//164
f 139//165 141//165 140//165
f 139//166 142//166 141//166
f 143//167 144//167 137//167
f 145//168 147//168 146//168
f 145//169 146//169 148//169
f 145//170 148//170 149//170
f 150//171 152//172 151//173
f 150//174 153//174 152//174
f 154//175 156//175 155//175
f 154//176 155//177 157//178
f 158//179 159//180 155//181
f 158//179 155//181 160//182
f 161//183 162//184 137//185
f 161//183 137//185 126//186
f 163//187 164//188 155//189
f 163//190 155//190 165//190
f 166//191 137//185 162//184
f 167//192 165//192 155//192
f 167//193 155//193 156//193
f 168//194 151//173 152//172
f 168//195 152//195 159//195
f 169//196 170//196 146//196
f 169//197 146//197 147//197
f 171//198 146//198 172//198
f 171//199 173//199 146//199
f 174//200 155//189 164//188
f 174//200 160//201 155//189
f 175//202 149//203 148//204
f 175//202 148//204 153//205
f 176//206 177//206 104//206
f 176//207 104//207 178//207
f 179//208 180//208 129//208
f 179//209 129//210 181//211
f 180//212 182//213 129//214
f 135//215 129//214 182//213
f 140//216 141//216 183//216
f 183//217 184//217 133//217
f 183//218 141//218 184//218
f 142//219 185//219 146//219
f 142//220 146//220 141//220
f 185//219 186//219 146//219
f 187//219 188//219 146//219
f 187//219 146//219 186//219
f 188//219 189//219 146//219
f 189//219 190//219 146//219
f 191//221 193//221 192//221
f 191//221 192//221 148//221
f 193//221 194//221 192//221
f 194//221 195//221 192//221
f 196//222 197//222 155//222
f 196//222 155//222 198//222
f 197//222 199//222 155//222
f 199//222 200//222 155//222
f 200//222 201//222 155//222
f 201//222 202//222 155//222
f 202//222 203//222 155//222
f 203//222 204//222 155//222
f 205//223 207//224 206//225
f 205//223 208//226 207//224
f 136//159 132//227 129//160
f 205//228 129//228 208//228
f 205//229 181//211 129//210
f 208//230 129//230 133//230
f 146//231 210//231 209//231
f 133//232 184//232 208//232
f 184//233 211//234 208//235
f 211//236 184//236 146//236
f 211//237 146//237 209//237
f 195//238 212//238 192//238
f 195//222 213//222 155//222
f 195//239 155//239 212//239
f 213//222 198//222 155//222
f 166//240 155//240 204//240
f 166//241 157//178 155//177
f 166//242 204//242 137//242
f 184//243 141//243 146//243
f 190//219 148//219 146//219
f 192//244 152//244 148//244
f 137//163 144//245 214//246
f 137//163 214//246 138//164
f 192//247 212//247 152//247
f 211//248 209//248 207//248
f 212//249 155//249 152//249
f 208//250 211//250 207//250
f 146//251 173//251 210//251
f 209//252 215//253 207//254
f 155//255 159//255 152//255
f 172//256 146//256 170//256
f 153//257 148//257 152//257
f 177//258 94//258 104//258
f 216//259 123//259 94//259
f 216//260 94//260 217//260
f 218//261 219//261 207//261
f 218//262 207//262 220//262
f 219//263 221//264 207//265
f 220//266 207//254 215//253
f 222//267 223//267 207//267
f 222//268 207//265 221//264
f 223//269 224//269 207//269
f 224//270 225//270 207//270
f 225//271 227//271 226//271
f 225//272 226//272 207//272
f 227//273 228//273 94//273
f 227//274 94//274 177//274
f 227//275 177//275 226//275
f 229//276 207//276 226//276
f 229//277 230//277 207//277
f 230//278 231//278 207//278
f 232//279 207//279 231//279
f 232//280 233//281 207//282
f 233//281 234//283 207//282
f 206//284 207//282 234//283
f 104//285 94//285 99//285
f 94//286 228//286 217//286
