# Blender v2.79 (sub 0) OBJ File: ''
# www.blender.org
mtllib crack_restart_keyway_550.mtl
o crack_restart_keyway_550
v 0.073448 -0.113156 -0.472461
v 0.072982 -0.113330 -0.459453
v 0.084763 -0.121326 -0.472461
v 0.147228 -0.162037 -0.087631
v 0.127480 -0.150695 -0.086895
v 0.152177 -0.169049 -0.080801
v 0.150745 -0.164612 -0.087281
v 0.143382 -0.159202 -0.088100
v 0.131068 -0.149873 -0.089874
v 0.135334 -0.153098 -0.089213
v 0.126540 -0.147825 -0.091832
v 0.154210 -0.167189 -0.086931
v 0.139563 -0.156337 -0.088636
v 0.120406 -0.147382 -0.426347
v 0.095884 -0.129408 -0.472461
v 0.120406 -0.147382 -0.103551
v 0.120406 -0.147382 -0.118922
v 0.107902 -0.139720 -0.096445
v 0.120866 -0.146923 -0.098614
v 0.120406 -0.147382 -0.472461
v 0.108161 -0.138383 -0.472461
v 0.120406 -0.147382 -0.457089
v 0.074136 -0.112668 -0.186296
v 0.120406 -0.147382 -0.211149
v 0.074042 -0.112663 -0.199304
v 0.073501 -0.113118 -0.238326
v 0.073887 -0.112761 -0.225319
v 0.120406 -0.147382 -0.226521
v 0.073130 -0.113237 -0.251334
v 0.070743 -0.114906 -0.394416
v 0.070140 -0.115115 -0.381408
v 0.120406 -0.147382 -0.395604
v 0.070935 -0.114616 -0.407423
v 0.072325 -0.113953 -0.290356
v 0.072669 -0.113526 -0.277349
v 0.104165 -0.140688 -0.280925
v 0.071640 -0.114410 -0.316371
v 0.072666 -0.113710 -0.446446
v 0.071881 -0.114022 -0.433438
v 0.071479 -0.114498 -0.420431
v 0.070697 -0.114931 -0.368401
v 0.070619 -0.114815 -0.355393
v 0.090632 -0.132125 -0.376755
v 0.073074 -0.113421 -0.264341
v 0.076483 -0.111130 -0.121259
v 0.077077 -0.110581 -0.108252
v 0.090207 -0.126776 -0.153706
v 0.075559 -0.111658 -0.134267
v 0.071501 -0.114260 -0.329378
v 0.074082 -0.112706 -0.212311
v 0.146692 -0.173804 -0.061429
v 0.148181 -0.172556 -0.068127
v 0.150224 -0.170781 -0.074837
v 0.114631 -0.144476 -0.094848
v 0.122213 -0.145575 -0.094013
v 0.115965 -0.144850 -0.090503
v 0.120406 -0.147382 -0.134293
v 0.120406 -0.147382 -0.149664
v 0.120406 -0.147382 -0.165036
v 0.120406 -0.147382 -0.180407
v 0.101394 -0.135195 -0.155349
v 0.120406 -0.147382 -0.195778
v 0.120406 -0.147382 -0.241892
v 0.120406 -0.147382 -0.257263
v 0.120406 -0.147382 -0.272634
v 0.120406 -0.147382 -0.288006
v 0.120406 -0.147382 -0.334119
v 0.120406 -0.147382 -0.349490
v 0.120406 -0.147382 -0.318748
v 0.120406 -0.147382 -0.364862
v 0.120406 -0.147382 -0.380233
v 0.120406 -0.147382 -0.441718
v 0.143634 -0.175671 -0.039544
v 0.145287 -0.174829 -0.050523
v 0.074680 -0.112033 -0.081618
v 0.069699 -0.114312 -0.027107
v 0.070598 -0.112404 -0.050609
v 0.111603 -0.143885 -0.082054
v 0.076179 -0.111245 -0.096262
v 0.120406 -0.147382 -0.303377
v 0.120406 -0.147382 -0.410975
v 0.093792 -0.129828 -0.176009
v 0.074607 -0.112309 -0.173289
v 0.095555 -0.129430 -0.164087
v 0.074771 -0.112339 -0.166369
v 0.074807 -0.112191 -0.160281
v 0.075018 -0.112174 -0.153683
v 0.103553 -0.135011 -0.472461
v 0.071669 -0.114394 -0.342386
v 0.075235 -0.111953 -0.145256
v 0.067089 -0.115156 0.018356
v 0.066068 -0.115661 0.052184
v 0.091025 -0.146948 0.083197
v 0.134295 -0.182649 0.036174
v 0.065709 -0.116940 0.064553
v 0.081449 -0.136488 0.076136
v 0.066068 -0.115661 0.052184
v 0.131294 -0.184501 0.066711
v 0.130160 -0.185547 0.081964
v 0.129520 -0.185902 0.090908
v 0.109795 -0.166403 0.093286
v 0.122596 -0.179381 0.097244
v 0.129520 -0.185902 0.090908
v 0.141742 -0.176579 -0.027622
v 0.139787 -0.178248 -0.011334
v 0.129035 -0.186160 0.098565
v 0.073448 -0.113156 -0.472461
v 0.084763 -0.121326 -0.472461
v 0.072982 -0.113330 -0.459453
v 0.147228 -0.162037 -0.087631
v 0.152177 -0.169049 -0.080801
v 0.127480 -0.150695 -0.086895
v 0.150745 -0.164612 -0.087281
v 0.143382 -0.159202 -0.088100
v 0.131068 -0.149873 -0.089874
v 0.135334 -0.153098 -0.089213
v 0.126540 -0.147825 -0.091832
v 0.154210 -0.167189 -0.086931
v 0.139563 -0.156337 -0.088636
v 0.120406 -0.147382 -0.426347
v 0.095884 -0.129408 -0.472461
v 0.120406 -0.147382 -0.103551
v 0.107902 -0.139720 -0.096445
v 0.120406 -0.147382 -0.118922
v 0.120866 -0.146923 -0.098614
v 0.120406 -0.147382 -0.472461
v 0.120406 -0.147382 -0.457089
v 0.108161 -0.138383 -0.472461
v 0.074136 -0.112668 -0.186296
v 0.074042 -0.112663 -0.199304
v 0.120406 -0.147382 -0.211149
v 0.073501 -0.113118 -0.238326
v 0.120406 -0.147382 -0.226521
v 0.073887 -0.112761 -0.225319
v 0.073130 -0.113237 -0.251334
v 0.070743 -0.114906 -0.394416
v 0.120406 -0.147382 -0.395604
v 0.070140 -0.115115 -0.381408
v 0.070935 -0.114616 -0.407423
v 0.072325 -0.113953 -0.290356
v 0.104165 -0.140688 -0.280925
v 0.072669 -0.113526 -0.277349
v 0.071640 -0.114410 -0.316371
v 0.072666 -0.113710 -0.446446
v 0.071881 -0.114022 -0.433438
v 0.071479 -0.114498 -0.420431
v 0.070697 -0.114931 -0.368401
v 0.090632 -0.132125 -0.376755
v 0.070619 -0.114815 -0.355393
v 0.073074 -0.113421 -0.264341
v 0.076483 -0.111130 -0.121259
v 0.090207 -0.126776 -0.153706
v 0.077077 -0.110581 -0.108252
v 0.075559 -0.111658 -0.134267
v 0.071501 -0.114260 -0.329378
v 0.074082 -0.112706 -0.212311
v 0.146692 -0.173804 -0.061429
v 0.148181 -0.172556 -0.068127
v 0.150224 -0.170781 -0.074837
v 0.122213 -0.145575 -0.094013
v 0.114631 -0.144476 -0.094848
v 0.115965 -0.144850 -0.090503
v 0.120406 -0.147382 -0.134293
v 0.120406 -0.147382 -0.149664
v 0.120406 -0.147382 -0.165036
v 0.101394 -0.135195 -0.155349
v 0.120406 -0.147382 -0.180407
v 0.120406 -0.147382 -0.195778
v 0.120406 -0.147382 -0.241892
v 0.120406 -0.147382 -0.257263
v 0.120406 -0.147382 -0.272634
v 0.120406 -0.147382 -0.288006
v 0.120406 -0.147382 -0.334119
v 0.120406 -0.147382 -0.349490
v 0.120406 -0.147382 -0.318748
v 0.120406 -0.147382 -0.364862
v 0.120406 -0.147382 -0.380233
v 0.120406 -0.147382 -0.441718
v 0.145287 -0.174829 -0.050523
v 0.143634 -0.175671 -0.039544
v 0.074680 -0.112033 -0.081618
v 0.069699 -0.114312 -0.027107
v 0.070598 -0.112404 -0.050609
v 0.111603 -0.143885 -0.082054
v 0.076179 -0.111245 -0.096262
v 0.120406 -0.147382 -0.303377
v 0.120406 -0.147382 -0.410975
v 0.093792 -0.129828 -0.176009
v 0.074607 -0.112309 -0.173289
v 0.095555 -0.129430 -0.164087
v 0.074807 -0.112191 -0.160281
v 0.074771 -0.112339 -0.166369
v 0.075018 -0.112174 -0.153683
v 0.103553 -0.135011 -0.472461
v 0.071669 -0.114394 -0.342386
v 0.075235 -0.111953 -0.145256
v 0.067089 -0.115156 0.018356
v 0.134295 -0.182649 0.036174
v 0.131294 -0.184501 0.066711
v 0.130160 -0.185547 0.081964
v 0.141742 -0.176579 -0.027622
v 0.139787 -0.178248 -0.011334
vn -0.5851 -0.8103 -0.0318
vn -0.4563 -0.7649 -0.4547
vn -0.5137 -0.7566 -0.4046
vn -0.5179 -0.7531 -0.4058
vn -0.5144 -0.7568 -0.4033
vn -0.3936 -0.6427 -0.6572
vn -0.3944 -0.6434 -0.6561
vn -0.3885 -0.6405 -0.6624
vn -0.3912 -0.6508 -0.6507
vn -0.1892 -0.8641 -0.4663
vn -0.5202 -0.7539 -0.4013
vn -0.3967 -0.6501 -0.6480
vn -0.5749 -0.8180 -0.0178
vn -0.5879 -0.8089 -0.0027
vn -0.5895 -0.8077 -0.0030
vn -0.5888 -0.8082 -0.0018
vn -0.5225 -0.8527 0.0000
vn -0.4658 -0.8760 0.1249
vn -0.5922 -0.8058 0.0000
vn -0.5922 -0.8058 -0.0008
vn -0.5987 -0.8009 0.0040
vn -0.5986 -0.8010 0.0010
vn -0.6008 -0.7994 0.0011
vn -0.5959 -0.8021 0.0397
vn -0.5937 -0.8043 0.0243
vn -0.5895 -0.8074 0.0231
vn -0.5904 -0.8070 0.0143
vn -0.5488 -0.8355 -0.0270
vn -0.5473 -0.8363 -0.0320
vn -0.5475 -0.8359 -0.0388
vn -0.5470 -0.8367 -0.0269
vn -0.6475 -0.7609 0.0413
vn -0.6503 -0.7586 0.0407
vn -0.6498 -0.7590 0.0421
vn -0.6480 -0.7610 0.0304
vn -0.5604 -0.8265 -0.0536
vn -0.5608 -0.8264 -0.0506
vn -0.5605 -0.8268 -0.0477
vn -0.5611 -0.8263 -0.0476
vn -0.6524 -0.7578 0.0028
vn -0.6434 -0.7646 0.0384
vn -0.5903 -0.8071 0.0140
vn -0.6511 -0.7585 0.0264
vn -0.6282 -0.7725 0.0925
vn -0.6832 -0.7276 0.0619
vn -0.6645 -0.7433 0.0774
vn -0.6269 -0.7791 -0.0023
vn -0.5988 -0.8009 0.0006
vn -0.5968 -0.8023 0.0123
vn -0.5993 -0.8006 0.0000
vn -0.5717 -0.7743 -0.2714
vn -0.5025 -0.7857 -0.3608
vn -0.4867 -0.7833 -0.3868
vn -0.1705 -0.9310 0.3227
vn -0.5011 -0.8107 -0.3029
vn -0.2940 -0.8938 -0.3387
vn -0.1387 -0.9894 -0.0426
vn -0.5397 -0.8419 0.0000
vn -0.3811 -0.9245 -0.0000
vn -0.4560 -0.8900 -0.0000
vn -0.3908 -0.6298 -0.6712
vn -0.6158 -0.7731 -0.1520
vn -0.6150 -0.7737 -0.1520
vn -0.6338 -0.7683 -0.0900
vn -0.5932 -0.8003 -0.0877
vn -0.4597 -0.8028 -0.3797
vn -0.4603 -0.8025 -0.3796
vn -0.4600 -0.8029 -0.3792
vn -0.6655 -0.7408 -0.0909
vn -0.6644 -0.7395 -0.1078
vn -0.2744 -0.9611 -0.0319
vn -0.5912 -0.7986 0.1128
vn -0.5624 -0.8268 -0.0131
vn -0.5704 -0.7968 0.1994
vn -0.4583 -0.8783 -0.1363
vn -0.6527 -0.7559 -0.0509
vn -0.5578 -0.8300 0.0000
vn -0.5469 -0.8367 -0.0305
vn -0.6280 -0.7730 -0.0895
vn -0.6702 -0.7409 0.0447
vn -0.3169 -0.9452 0.0784
vn -0.7922 -0.5947 0.1370
vn -0.6749 -0.7379 -0.0075
vn -0.6907 -0.7230 0.0151
vn -0.6922 -0.7213 0.0238
vn -0.6879 -0.7255 0.0204
vn -0.6888 -0.7249 0.0132
vn -0.6928 -0.7207 0.0240
vn -0.5653 -0.8240 -0.0378
vn -0.5563 -0.8309 -0.0111
vn -0.5607 -0.8280 -0.0044
vn -0.5461 -0.8377 -0.0059
vn -0.5506 -0.8348 0.0000
vn -0.5902 -0.8073 -0.0009
vn -0.6531 -0.7572 0.0126
vn -0.6057 -0.7922 0.0745
vn -0.6080 -0.7860 -0.1123
vn -0.5735 -0.7685 -0.2838
vn -0.4601 -0.8021 -0.3807
vn -0.6967 -0.7153 0.0536
vn -0.6925 -0.7204 0.0384
vn 0.1658 -0.9859 0.0215
vn 0.1614 -0.9867 0.0218
vn -0.7653 -0.6429 -0.0327
vn -0.6928 -0.7149 -0.0948
vn -0.7005 -0.7116 -0.0534
vn -0.7492 -0.6563 -0.0896
vn -0.6324 -0.7380 -0.2356
vn 0.7492 0.6563 0.0896
vn -0.7030 -0.7039 -0.1016
vn -0.7003 -0.7068 -0.1005
vn -0.6998 -0.7070 -0.1019
vn -0.7018 -0.7036 -0.1116
vn -0.7013 -0.7085 -0.0783
vn -0.7023 -0.7098 -0.0555
vn -0.7062 -0.7063 -0.0496
vn -0.7049 -0.7080 -0.0417
vn 0.7023 0.7097 0.0555
vn 0.7049 0.7080 0.0417
vn 0.7062 0.7063 0.0496
vn -0.7052 -0.7071 -0.0515
vn 0.7052 0.7071 0.0515
vn -0.4308 -0.8921 -0.1362
vn -0.4299 -0.8925 -0.1363
vn -0.6467 -0.7470 -0.1542
vn -0.6479 -0.7460 -0.1538
vn -0.6461 -0.7479 -0.1521
vn -0.6465 -0.7468 -0.1560
vn -0.6490 -0.7470 -0.1442
vn -0.5843 -0.8086 0.0690
vn -0.5132 -0.8502 -0.1177
vn -0.6843 -0.7292 -0.0013
vn -0.7166 -0.6941 -0.0688
vn 0.7166 0.6941 0.0688
vn 0.5851 0.8103 0.0318
vn 0.4563 0.7649 0.4547
vn 0.5137 0.7566 0.4046
vn 0.3936 0.6427 0.6572
vn 0.3885 0.6405 0.6625
vn 0.3944 0.6434 0.6561
vn 0.3912 0.6508 0.6507
vn 0.1892 0.8641 0.4663
vn 0.5202 0.7539 0.4013
vn 0.3967 0.6501 0.6480
vn 0.5749 0.8180 0.0178
vn 0.5879 0.8089 0.0027
vn 0.5903 0.8072 0.0008
vn 0.5895 0.8077 0.0030
vn 0.5225 0.8527 0.0000
vn 0.4658 0.8760 -0.1249
vn 0.5922 0.8058 0.0000
vn 0.5987 0.8009 -0.0040
vn 0.5990 0.8007 -0.0023
vn 0.5986 0.8010 -0.0010
vn 0.5959 0.8021 -0.0397
vn 0.5937 0.8043 -0.0243
vn 0.5904 0.8070 -0.0143
vn 0.5896 0.8074 -0.0231
vn 0.5488 0.8355 0.0270
vn 0.5475 0.8359 0.0388
vn 0.5473 0.8363 0.0320
vn 0.5470 0.8367 0.0269
vn 0.6475 0.7609 -0.0413
vn 0.6498 0.7590 -0.0421
vn 0.6503 0.7586 -0.0406
vn 0.6480 0.7610 -0.0304
vn 0.5604 0.8265 0.0536
vn 0.5605 0.8268 0.0477
vn 0.5608 0.8264 0.0506
vn 0.5611 0.8263 0.0476
vn 0.6524 0.7578 -0.0028
vn 0.6434 0.7646 -0.0384
vn 0.5903 0.8071 -0.0140
vn 0.6511 0.7585 -0.0264
vn 0.6282 0.7725 -0.0925
vn 0.6832 0.7276 -0.0619
vn 0.6645 0.7433 -0.0774
vn 0.6269 0.7791 0.0023
vn 0.5993 0.8005 -0.0008
vn 0.6032 0.7976 -0.0084
vn 0.5928 0.8053 -0.0034
vn 0.5968 0.8023 -0.0123
vn 0.5993 0.8006 0.0000
vn 0.5717 0.7743 0.2714
vn 0.5025 0.7857 0.3608
vn 0.4867 0.7833 0.3868
vn 0.1705 0.9310 -0.3227
vn 0.5011 0.8107 0.3029
vn 0.2940 0.8938 0.3387
vn 0.1387 0.9894 0.0426
vn 0.5397 0.8419 0.0000
vn 0.3811 0.9245 0.0000
vn 0.4560 0.8900 0.0000
vn 0.3908 0.6298 0.6712
vn 0.6158 0.7731 0.1520
vn 0.6150 0.7737 0.1520
vn 0.6338 0.7683 0.0900
vn 0.5932 0.8003 0.0877
vn 0.4597 0.8028 0.3797
vn 0.4600 0.8029 0.3792
vn 0.4603 0.8025 0.3796
vn 0.6655 0.7408 0.0909
vn 0.6644 0.7395 0.1078
vn 0.2744 0.9611 0.0319
vn 0.5912 0.7986 -0.1128
vn 0.5624 0.8268 0.0131
vn 0.5704 0.7968 -0.1994
vn 0.4583 0.8783 0.1363
vn 0.6527 0.7559 0.0509
vn 0.5578 0.8300 0.0000
vn 0.5469 0.8367 0.0305
vn 0.6280 0.7730 0.0895
vn 0.6702 0.7409 -0.0447
vn 0.3169 0.9452 -0.0784
vn 0.7922 0.5947 -0.1370
vn 0.6749 0.7379 0.0075
vn 0.6907 0.7230 -0.0151
vn 0.6879 0.7255 -0.0204
vn 0.6922 0.7213 -0.0238
vn 0.6888 0.7249 -0.0132
vn 0.6928 0.7207 -0.0240
vn 0.5653 0.8240 0.0378
vn 0.5563 0.8309 0.0111
vn 0.5461 0.8377 0.0059
vn 0.5607 0.8280 0.0044
vn 0.5506 0.8348 0.0000
vn 0.5905 0.8070 0.0007
vn 0.5902 0.8073 0.0009
vn 0.6531 0.7572 -0.0126
vn 0.6057 0.7922 -0.0745
vn 0.6080 0.7860 0.1123
vn 0.5735 0.7685 0.2838
vn 0.4601 0.8021 0.3807
vn 0.6967 0.7153 -0.0536
vn 0.6925 0.7204 -0.0384
vn -0.1658 0.9859 -0.0215
vn -0.1614 0.9867 -0.0218
vn 0.7653 0.6429 0.0327
vn 0.6928 0.7149 0.0948
vn 0.7005 0.7116 0.0534
vn 0.6324 0.7380 0.2356
vn 0.7029 0.7039 0.1016
vn 0.6998 0.7070 0.1019
vn 0.7003 0.7068 0.1005
vn 0.7018 0.7036 0.1116
vn 0.7013 0.7085 0.0783
vn 0.4308 0.8921 0.1362
vn 0.4299 0.8925 0.1363
vn 0.6466 0.7469 0.1551
vn 0.6469 0.7465 0.1556
vn 0.6479 0.7460 0.1538
vn 0.6465 0.7468 0.1560
vn 0.6490 0.7470 0.1442
vn 0.5843 0.8086 -0.0690
vn 0.5132 0.8502 0.1177
vn 0.6843 0.7292 0.0013
usemtl None.102
s 1
f 1//1 3//1 2//1
f 4//2 6//2 5//2
f 4//3 7//4 6//5
f 4//6 5//7 8//8
f 9//9 10//9 5//9
f 9//10 5//10 11//10
f 7//4 12//11 6//5
f 8//8 5//7 13//12
f 3//13 14//13 2//13
f 3//14 15//15 14//16
f 16//17 18//17 17//17
f 16//18 19//18 18//18
f 20//19 22//19 21//20
f 23//21 25//22 24//23
f 26//24 28//24 27//24
f 26//25 29//26 28//27
f 30//28 32//29 31//30
f 30//28 33//31 32//29
f 34//32 36//33 35//34
f 34//32 37//35 36//33
f 38//36 14//37 39//38
f 40//39 39//38 14//37
f 41//40 43//40 42//40
f 41//41 31//41 43//41
f 44//42 28//27 29//26
f 44//43 35//43 36//43
f 44//44 36//44 28//44
f 45//45 47//45 46//45
f 45//46 48//46 47//46
f 37//47 49//47 36//47
f 50//48 24//23 25//22
f 50//49 27//49 28//49
f 50//48 28//50 24//23
f 51//51 5//51 52//51
f 52//52 5//52 53//52
f 53//53 5//53 6//53
f 19//54 55//54 54//54
f 19//55 54//55 18//55
f 55//56 11//56 56//56
f 55//57 56//57 54//57
f 17//17 18//17 57//17
f 57//17 18//17 58//17
f 59//58 61//58 60//58
f 59//58 58//58 61//58
f 60//58 61//58 62//58
f 63//59 36//59 64//59
f 63//59 28//59 36//59
f 64//59 36//59 65//59
f 65//59 36//59 66//59
f 67//60 43//60 68//60
f 67//60 69//60 43//60
f 68//60 43//60 70//60
f 70//60 43//60 71//60
f 71//60 43//60 32//60
f 22//19 72//19 21//20
f 13//61 5//61 10//61
f 51//62 74//63 73//62
f 75//64 51//64 76//64
f 75//65 76//65 77//65
f 5//66 78//67 11//68
f 79//69 46//69 18//69
f 79//70 18//70 75//70
f 11//71 78//71 56//71
f 56//72 18//72 54//72
f 58//73 18//73 47//73
f 58//74 47//74 61//74
f 18//75 56//75 78//75
f 78//76 75//76 18//76
f 66//59 36//59 80//59
f 40//77 14//77 81//77
f 40//78 32//29 33//31
f 40//77 81//77 32//77
f 23//79 24//79 82//79
f 23//80 82//80 83//80
f 82//81 84//81 47//81
f 82//82 61//82 84//82
f 82//83 47//83 83//83
f 47//84 86//85 85//86
f 47//84 85//86 83//87
f 47//84 87//88 86//85
f 38//89 2//89 14//89
f 72//19 14//16 21//20
f 61//90 82//91 62//92
f 62//92 82//91 24//93
f 21//20 14//16 88//94
f 14//16 15//15 88//94
f 75//95 78//95 51//95
f 89//96 42//96 43//96
f 47//97 84//97 61//97
f 32//98 43//98 31//98
f 5//66 51//99 78//67
f 46//100 47//100 18//100
f 69//60 80//60 43//60
f 48//101 87//101 47//101
f 48//102 90//103 87//102
f 91//104 93//104 92//104
f 91//105 94//105 93//105
f 91//106 76//106 94//106
f 92//107 96//107 95//107
f 96//108 92//108 93//108
f 95//109 96//109 97//109
f 98//110 99//111 93//112
f 98//110 93//112 94//113
f 99//114 100//114 93//114
f 101//115 100//116 102//117
f 101//118 102//119 103//120
f 101//115 93//121 100//116
f 101//118 103//120 93//122
f 73//123 104//124 51//124
f 104//125 105//126 76//127
f 104//128 76//128 51//128
f 105//126 94//129 76//127
f 80//130 49//130 43//130
f 80//131 36//131 49//131
f 49//132 89//132 43//132
f 100//133 106//133 102//133
f 102//134 106//134 103//134
f 107//135 109//135 108//135
f 110//136 112//136 111//136
f 110//137 111//137 113//137
f 110//138 114//139 112//140
f 115//141 112//141 116//141
f 115//142 117//142 112//142
f 113//143 111//143 118//143
f 114//139 119//144 112//140
f 108//145 109//145 120//145
f 108//146 120//147 121//148
f 122//149 124//149 123//149
f 122//150 123//150 125//150
f 126//151 128//151 127//151
f 129//152 131//153 130//154
f 132//155 134//155 133//155
f 132//156 133//157 135//158
f 136//159 138//160 137//161
f 136//159 137//161 139//162
f 140//163 142//164 141//165
f 140//163 141//165 143//166
f 144//167 145//168 120//169
f 146//170 120//169 145//168
f 147//171 149//171 148//171
f 147//172 148//172 138//172
f 150//173 135//158 133//157
f 150//174 141//174 142//174
f 150//175 133//175 141//175
f 151//176 153//176 152//176
f 151//177 152//177 154//177
f 143//178 141//178 155//178
f 156//179 130//154 131//153
f 156//180 133//181 134//182
f 156//180 131//183 133//181
f 157//184 158//184 112//184
f 158//185 159//185 112//185
f 159//186 111//186 112//186
f 125//187 161//187 160//187
f 125//188 123//188 161//188
f 160//189 162//189 117//189
f 160//190 161//190 162//190
f 124//149 163//149 123//149
f 163//149 164//149 123//149
f 165//191 167//191 166//191
f 165//191 166//191 164//191
f 167//191 168//191 166//191
f 169//192 170//192 141//192
f 169//192 141//192 133//192
f 170//192 171//192 141//192
f 171//192 172//192 141//192
f 173//193 174//193 148//193
f 173//193 148//193 175//193
f 174//193 176//193 148//193
f 176//193 177//193 148//193
f 177//193 137//193 148//193
f 127//151 128//151 178//151
f 119//194 116//194 112//194
f 157//195 180//195 179//196
f 181//197 182//197 157//197
f 181//198 183//198 182//198
f 112//199 117//200 184//201
f 185//202 123//202 153//202
f 185//203 181//203 123//203
f 117//204 162//204 184//204
f 162//205 161//205 123//205
f 164//206 152//206 123//206
f 164//207 166//207 152//207
f 123//208 184//208 162//208
f 184//209 123//209 181//209
f 172//192 186//192 141//192
f 146//210 187//210 120//210
f 146//211 139//162 137//161
f 146//210 137//210 187//210
f 129//212 188//212 131//212
f 129//213 189//213 188//213
f 188//214 152//214 190//214
f 188//215 190//215 166//215
f 188//216 189//216 152//216
f 152//217 192//218 191//219
f 152//217 189//220 192//218
f 152//217 191//219 193//221
f 144//222 120//222 109//222
f 178//151 128//151 120//151
f 166//223 168//224 188//225
f 168//224 131//226 188//225
f 128//227 194//228 120//147
f 120//147 194//228 121//148
f 181//229 157//229 184//229
f 195//230 148//230 149//230
f 152//231 166//231 190//231
f 137//232 138//232 148//232
f 112//199 184//201 157//233
f 153//234 123//234 152//234
f 175//193 148//193 186//193
f 154//235 152//235 193//235
f 154//236 193//236 196//237
f 197//238 97//238 93//238
f 197//239 93//239 198//239
f 197//240 198//240 182//240
f 96//241 93//241 97//241
f 199//242 93//243 200//244
f 199//242 198//245 93//243
f 200//246 93//246 103//246
f 180//247 157//248 201//248
f 201//249 182//250 202//251
f 201//249 157//252 182//250
f 202//251 182//250 198//253
f 186//254 148//254 155//254
f 186//255 155//255 141//255
f 155//256 148//256 195//256
