# Blender v2.79 (sub 0) OBJ File: ''
# www.blender.org
mtllib crack_restart_keyway_295.mtl
o crack_restart_keyway_295
v 0.073499 -0.113119 -0.472461
v 0.072820 -0.113431 -0.459453
v 0.085126 -0.121098 -0.472461
v 0.120406 -0.147382 -0.103551
v 0.120406 -0.147382 -0.118922
v 0.106513 -0.141816 -0.120729
v 0.114329 -0.144993 -0.094641
v 0.120866 -0.146923 -0.098614
v 0.120406 -0.147382 -0.472461
v 0.108927 -0.137772 -0.472461
v 0.120406 -0.147382 -0.457089
v 0.070746 -0.114904 -0.394416
v 0.070516 -0.114879 -0.381408
v 0.092500 -0.131933 -0.290325
v 0.096710 -0.128749 -0.472461
v 0.070892 -0.114643 -0.407423
v 0.072614 -0.113748 -0.290356
v 0.072639 -0.113545 -0.277349
v 0.071594 -0.114435 -0.316371
v 0.071466 -0.114282 -0.303364
v 0.072614 -0.113747 -0.446446
v 0.071654 -0.114164 -0.433438
v 0.071337 -0.114577 -0.342386
v 0.070814 -0.114692 -0.355393
v 0.071566 -0.114220 -0.329378
v 0.071282 -0.114607 -0.420431
v 0.070721 -0.114918 -0.368401
v 0.072846 -0.113583 -0.264341
v 0.073164 -0.113215 -0.251334
v 0.076504 -0.111117 -0.121259
v 0.076856 -0.110868 -0.114755
v 0.075936 -0.111521 -0.127763
v 0.122213 -0.145575 -0.094013
v 0.122504 -0.146613 -0.091018
v 0.123285 -0.144503 -0.092038
v 0.115186 -0.144980 -0.092349
v 0.118929 -0.146187 -0.092031
v 0.120406 -0.147382 -0.134293
v 0.120406 -0.147382 -0.149664
v 0.120406 -0.147382 -0.165036
v 0.120406 -0.147382 -0.180407
v 0.120406 -0.147382 -0.195778
v 0.120406 -0.147382 -0.211149
v 0.120406 -0.147382 -0.226521
v 0.120406 -0.147382 -0.241892
v 0.120406 -0.147382 -0.257263
v 0.120406 -0.147382 -0.272634
v 0.120406 -0.147382 -0.288006
v 0.120406 -0.147382 -0.303377
v 0.120406 -0.147382 -0.349490
v 0.120406 -0.147382 -0.364862
v 0.120406 -0.147382 -0.334119
v 0.120406 -0.147382 -0.380233
v 0.120406 -0.147382 -0.395604
v 0.120406 -0.147382 -0.410975
v 0.120406 -0.147382 -0.426347
v 0.120406 -0.147382 -0.441718
v 0.125362 -0.149429 -0.086960
v 0.120516 -0.148040 -0.085324
v 0.125282 -0.145794 -0.091253
v 0.110022 -0.141412 -0.084656
v 0.101323 -0.133960 -0.087573
v 0.103184 -0.133438 -0.472461
v 0.075181 -0.112065 -0.141201
v 0.074857 -0.112151 -0.147274
v 0.075357 -0.111801 -0.134267
v 0.074615 -0.112314 -0.224794
v 0.074412 -0.112472 -0.212311
v 0.075030 -0.112166 -0.153659
v 0.075024 -0.112038 -0.160281
v 0.074186 -0.112730 -0.207433
v 0.073534 -0.112983 -0.199304
v 0.074347 -0.112622 -0.233115
v 0.075006 -0.112182 -0.166854
v 0.074832 -0.112167 -0.173289
v 0.074556 -0.112482 -0.180653
v 0.074266 -0.112576 -0.186296
v 0.074101 -0.112786 -0.191001
v 0.120406 -0.147382 -0.318748
v 0.098572 -0.131297 -0.089063
v 0.086997 -0.119419 -0.097550
v 0.089927 -0.122312 -0.094979
v 0.092670 -0.125771 -0.093009
v 0.094625 -0.127790 -0.091484
v 0.077714 -0.110129 -0.108252
v 0.080467 -0.112750 -0.103245
v 0.083571 -0.116564 -0.100294
v 0.078462 -0.109685 -0.103802
v 0.077714 -0.110129 -0.108252
v 0.106513 -0.141816 -0.120729
v 0.128861 -0.148113 -0.090324
v 0.127324 -0.147041 -0.090739
v 0.127708 -0.149047 -0.088716
v 0.127324 -0.147041 -0.090739
v 0.114586 -0.144556 -0.084461
v 0.122504 -0.146613 -0.091018
v 0.073499 -0.113119 -0.472461
v 0.085126 -0.121098 -0.472461
v 0.072820 -0.113431 -0.459453
v 0.120406 -0.147382 -0.103551
v 0.120406 -0.147382 -0.118922
v 0.120866 -0.146923 -0.098614
v 0.114329 -0.144993 -0.094641
v 0.120406 -0.147382 -0.472461
v 0.120406 -0.147382 -0.457089
v 0.108927 -0.137772 -0.472461
v 0.070746 -0.114904 -0.394416
v 0.092500 -0.131933 -0.290325
v 0.070516 -0.114879 -0.381408
v 0.070892 -0.114643 -0.407423
v 0.096710 -0.128749 -0.472461
v 0.072614 -0.113748 -0.290356
v 0.072639 -0.113545 -0.277349
v 0.071594 -0.114435 -0.316371
v 0.071466 -0.114282 -0.303364
v 0.072614 -0.113747 -0.446446
v 0.071654 -0.114164 -0.433438
v 0.071337 -0.114577 -0.342386
v 0.070814 -0.114692 -0.355393
v 0.071566 -0.114220 -0.329378
v 0.071282 -0.114607 -0.420431
v 0.070721 -0.114918 -0.368401
v 0.072846 -0.113583 -0.264341
v 0.073164 -0.113215 -0.251334
v 0.076504 -0.111117 -0.121259
v 0.076856 -0.110868 -0.114755
v 0.075936 -0.111521 -0.127763
v 0.122213 -0.145575 -0.094013
v 0.123285 -0.144503 -0.092038
v 0.115186 -0.144980 -0.092349
v 0.120406 -0.147382 -0.134293
v 0.120406 -0.147382 -0.149664
v 0.120406 -0.147382 -0.165036
v 0.120406 -0.147382 -0.180407
v 0.120406 -0.147382 -0.195778
v 0.120406 -0.147382 -0.211149
v 0.120406 -0.147382 -0.226521
v 0.120406 -0.147382 -0.241892
v 0.120406 -0.147382 -0.257263
v 0.120406 -0.147382 -0.272634
v 0.120406 -0.147382 -0.288006
v 0.120406 -0.147382 -0.303377
v 0.120406 -0.147382 -0.349490
v 0.120406 -0.147382 -0.364862
v 0.120406 -0.147382 -0.334119
v 0.120406 -0.147382 -0.380233
v 0.120406 -0.147382 -0.395604
v 0.120406 -0.147382 -0.410975
v 0.120406 -0.147382 -0.426347
v 0.120406 -0.147382 -0.441718
v 0.125282 -0.145794 -0.091253
v 0.103184 -0.133438 -0.472461
v 0.075181 -0.112065 -0.141201
v 0.074857 -0.112151 -0.147274
v 0.075357 -0.111801 -0.134267
v 0.074615 -0.112314 -0.224794
v 0.074412 -0.112472 -0.212311
v 0.075030 -0.112166 -0.153659
v 0.075024 -0.112038 -0.160281
v 0.074186 -0.112730 -0.207433
v 0.073534 -0.112983 -0.199304
v 0.074347 -0.112622 -0.233115
v 0.075006 -0.112182 -0.166854
v 0.074832 -0.112167 -0.173289
v 0.074556 -0.112482 -0.180653
v 0.074266 -0.112576 -0.186296
v 0.074101 -0.112786 -0.191001
v 0.120406 -0.147382 -0.318748
vn -0.5651 -0.8235 -0.0493
vn -0.3695 -0.9292 0.0003
vn -0.3715 -0.9284 -0.0004
vn -0.3719 -0.9283 0.0000
vn -0.2190 -0.9694 0.1105
vn -0.3691 -0.9294 -0.0026
vn -0.6419 -0.7668 0.0000
vn -0.5897 -0.8076 -0.0089
vn -0.5233 -0.8519 -0.0230
vn -0.5326 -0.8460 -0.0271
vn -0.6748 -0.7379 0.0128
vn -0.6761 -0.7368 0.0089
vn -0.6766 -0.7363 0.0122
vn -0.6742 -0.7372 0.0459
vn 0.2861 -0.9581 0.0141
vn -0.5505 -0.8344 -0.0290
vn -0.6099 -0.7893 -0.0703
vn -0.6835 -0.7292 0.0326
vn -0.6823 -0.7303 0.0339
vn -0.6820 -0.7305 0.0337
vn -0.6798 -0.7327 0.0321
vn -0.5135 -0.8579 -0.0178
vn -0.5531 -0.8320 -0.0442
vn -0.5547 -0.8309 -0.0434
vn -0.5512 -0.8332 -0.0445
vn -0.6544 -0.7559 0.0178
vn -0.6325 -0.7745 0.0076
vn -0.6551 -0.7546 0.0374
vn -0.6763 -0.7366 0.0086
vn -0.7141 -0.6970 0.0653
vn -0.7120 -0.6942 0.1053
vn -0.7105 -0.6958 0.1047
vn -0.7120 -0.6959 0.0934
vn -0.6334 -0.7738 -0.0114
vn -0.0943 -0.9476 0.3052
vn 0.8689 -0.4354 -0.2353
vn -0.2043 -0.7874 -0.5816
vn -0.2045 -0.7870 -0.5821
vn -0.2045 -0.7874 -0.5815
vn -0.0204 -0.9453 -0.3256
vn -0.0763 -0.9965 0.0342
vn -0.4843 -0.8749 0.0000
vn -0.4433 -0.8962 -0.0156
vn -0.6181 -0.7861 0.0000
vn -0.3642 -0.8654 -0.3441
vn 0.1673 -0.7509 -0.6389
vn -0.6354 -0.7690 -0.0698
vn -0.5938 -0.8040 -0.0296
vn -0.0004 0.0000 -1.0000
vn -0.5506 -0.8337 -0.0420
vn -0.5161 -0.8561 -0.0269
vn -0.5614 -0.7992 0.2145
vn -0.7041 -0.7086 0.0452
vn -0.7040 -0.7086 0.0476
vn -0.7037 -0.7089 0.0474
vn -0.7031 -0.7096 0.0449
vn -0.7721 -0.6351 -0.0206
vn -0.6783 -0.7346 -0.0160
vn -0.6779 -0.7350 -0.0138
vn -0.6763 -0.7365 -0.0166
vn -0.6780 -0.7350 -0.0136
vn -0.8783 -0.4704 -0.0851
vn -0.8504 -0.5218 -0.0670
vn -0.6224 -0.7800 0.0658
vn -0.6512 -0.7573 0.0490
vn -0.6983 -0.7156 0.0173
vn -0.6984 -0.7155 0.0174
vn -0.6986 -0.7153 0.0176
vn -0.6983 -0.7156 0.0172
vn -0.7202 -0.6916 0.0546
vn -0.7249 -0.6870 0.0511
vn -0.7306 -0.6805 0.0565
vn -0.7340 -0.6772 0.0505
vn -0.7305 -0.6806 0.0559
vn -0.7418 -0.6673 0.0665
vn -0.6753 -0.7374 0.0128
vn -0.6157 -0.7829 0.0891
vn -0.7098 -0.7023 0.0553
vn -0.7249 -0.6868 0.0533
vn -0.7767 -0.6294 -0.0236
vn -0.7297 -0.6831 0.0310
vn -0.8240 -0.5405 0.1701
vn -0.7073 -0.6986 0.1077
vn -0.7575 -0.6512 -0.0457
vn -0.7575 -0.6513 -0.0449
vn -0.7572 -0.6516 -0.0457
vn -0.7115 -0.6965 0.0933
vn -0.8369 -0.5126 0.1918
vn 0.8369 0.5126 -0.1918
vn -0.6859 -0.7245 0.0687
vn 0.6859 0.7245 -0.0687
vn 0.7297 0.6831 -0.0310
vn -0.3183 -0.7027 -0.6364
vn 0.3183 0.7027 0.6364
vn -0.5098 -0.7755 -0.3724
vn 0.3642 0.8654 0.3441
vn 0.5651 0.8235 0.0493
vn 0.3719 0.9283 0.0000
vn 0.2190 0.9694 -0.1105
vn 0.3691 0.9294 0.0026
vn 0.6419 0.7668 0.0000
vn 0.5897 0.8076 0.0089
vn 0.5233 0.8519 0.0230
vn 0.5227 0.8522 0.0226
vn 0.5282 0.8489 0.0193
vn 0.5326 0.8460 0.0271
vn 0.6748 0.7379 -0.0128
vn 0.6766 0.7363 -0.0122
vn 0.6761 0.7368 -0.0089
vn 0.6742 0.7372 -0.0459
vn -0.2861 0.9581 -0.0141
vn 0.5505 0.8344 0.0290
vn 0.6099 0.7893 0.0703
vn 0.6835 0.7292 -0.0326
vn 0.6820 0.7305 -0.0337
vn 0.6823 0.7303 -0.0339
vn 0.6798 0.7327 -0.0321
vn 0.5135 0.8579 0.0178
vn 0.5531 0.8320 0.0442
vn 0.6544 0.7559 -0.0178
vn 0.6325 0.7745 -0.0076
vn 0.6551 0.7546 -0.0374
vn 0.6763 0.7366 -0.0086
vn 0.7141 0.6970 -0.0653
vn 0.7120 0.6942 -0.1053
vn 0.7120 0.6959 -0.0934
vn 0.7105 0.6958 -0.1046
vn 0.6334 0.7738 0.0114
vn 0.0943 0.9476 -0.3052
vn -0.8689 0.4354 0.2353
vn 0.0763 0.9965 -0.0342
vn 0.4843 0.8749 0.0000
vn 0.4433 0.8962 0.0156
vn 0.6181 0.7861 0.0000
vn -0.1673 0.7509 0.6389
vn 0.6354 0.7690 0.0698
vn 0.5938 0.8040 0.0296
vn 0.0004 0.0000 1.0000
vn 0.5506 0.8337 0.0420
vn 0.5161 0.8561 0.0269
vn 0.5614 0.7992 -0.2145
vn 0.7041 0.7086 -0.0452
vn 0.7037 0.7089 -0.0474
vn 0.7040 0.7086 -0.0476
vn 0.7031 0.7096 -0.0449
vn 0.7721 0.6351 0.0206
vn 0.6783 0.7346 0.0160
vn 0.6763 0.7365 0.0166
vn 0.6779 0.7350 0.0138
vn 0.6780 0.7350 0.0136
vn 0.8783 0.4704 0.0851
vn 0.8504 0.5218 0.0670
vn 0.6224 0.7800 -0.0658
vn 0.6512 0.7573 -0.0490
vn 0.6983 0.7156 -0.0173
vn 0.6986 0.7153 -0.0176
vn 0.6984 0.7155 -0.0174
vn 0.6983 0.7156 -0.0172
vn 0.7203 0.6915 -0.0545
vn 0.7306 0.6805 -0.0565
vn 0.7249 0.6870 -0.0511
vn 0.7341 0.6772 -0.0505
vn 0.7305 0.6806 -0.0559
vn 0.7418 0.6673 -0.0665
vn 0.6753 0.7374 -0.0128
vn 0.6157 0.7829 -0.0891
vn 0.7098 0.7023 -0.0553
vn 0.7249 0.6868 -0.0533
vn 0.7767 0.6294 0.0236
vn 0.8240 0.5405 -0.1701
vn 0.7073 0.6986 -0.1077
vn 0.7575 0.6512 0.0457
vn 0.7572 0.6516 0.0457
vn 0.7575 0.6513 0.0449
vn 0.7115 0.6965 -0.0933
vn 0.6880 0.7168 -0.1133
vn -0.0579 0.4518 0.8902
vn 0.1501 0.9430 0.2969
vn 0.2003 0.9316 0.3034
vn 0.5673 0.8235 -0.0011
vn 0.5057 0.8627 -0.0079
vn 0.2688 0.7090 0.6520
vn 0.3354 0.7220 0.6051
vn -0.6880 -0.7168 0.1133
vn 0.0579 -0.4518 -0.8902
vn -0.3089 -0.9507 0.0276
vn -0.1520 -0.9806 0.1241
vn -0.5673 -0.8235 0.0011
vn -0.2688 -0.7090 -0.6520
vn -0.3354 -0.7220 -0.6051
usemtl None.044
s 1
f 1//1 3//1 2//1
f 4//2 6//3 5//4
f 4//5 8//5 7//5
f 4//2 7//6 6//3
f 9//7 11//7 10//7
f 12//8 14//8 13//8
f 12//9 16//9 15//9
f 12//10 15//10 14//10
f 17//11 14//12 18//13
f 17//14 19//14 14//14
f 17//15 20//15 19//15
f 21//16 2//16 3//16
f 21//17 3//17 22//17
f 23//18 24//19 14//20
f 23//18 14//20 25//21
f 26//22 15//22 16//22
f 26//23 22//24 15//25
f 27//26 14//26 24//26
f 27//27 13//27 14//27
f 28//28 14//28 29//28
f 28//29 18//13 14//12
f 30//30 6//30 31//30
f 30//31 32//32 6//33
f 19//34 25//34 14//34
f 8//35 33//35 7//35
f 33//36 35//36 34//36
f 33//37 37//38 36//39
f 33//40 34//40 37//40
f 33//41 36//41 7//41
f 5//4 6//3 38//4
f 38//4 6//3 39//4
f 39//4 6//3 40//4
f 40//4 6//3 41//4
f 41//4 6//3 42//4
f 42//42 14//42 43//42
f 42//43 6//43 14//43
f 43//42 14//42 44//42
f 44//42 14//42 45//42
f 45//42 14//42 46//42
f 46//42 14//42 47//42
f 47//42 14//42 48//42
f 48//42 14//42 49//42
f 50//44 15//44 51//44
f 50//44 52//44 15//44
f 51//44 15//44 53//44
f 53//44 15//44 54//44
f 54//44 15//44 55//44
f 55//44 15//44 56//44
f 56//44 15//44 57//44
f 11//7 57//7 10//7
f 58//45 59//45 34//45
f 58//46 34//46 60//46
f 61//47 62//47 36//47
f 57//48 15//48 10//48
f 10//49 15//49 63//49
f 15//25 22//24 3//50
f 15//51 52//51 14//51
f 7//52 36//52 62//52
f 64//53 65//54 6//55
f 64//53 6//55 66//56
f 67//57 14//57 68//57
f 69//58 6//59 65//60
f 69//58 70//61 6//59
f 71//62 14//62 72//62
f 71//63 68//63 14//63
f 29//64 14//64 73//64
f 73//65 14//65 67//65
f 74//66 6//67 70//68
f 74//66 75//69 6//67
f 76//70 6//71 75//72
f 76//70 77//73 6//71
f 78//74 6//71 77//73
f 78//75 72//75 6//75
f 14//42 52//42 79//42
f 14//76 6//76 72//76
f 6//77 7//77 62//77
f 49//42 14//42 79//42
f 62//78 80//78 6//78
f 6//79 82//79 81//79
f 83//80 82//80 6//80
f 83//81 6//81 84//81
f 31//82 86//82 85//82
f 31//83 6//83 86//83
f 6//84 87//85 86//86
f 66//87 6//33 32//32
f 88//88 85//88 86//88
f 88//89 86//89 89//89
f 84//90 6//90 80//90
f 84//91 80//91 90//91
f 84//92 90//92 83//92
f 91//93 93//93 92//93
f 91//94 94//94 93//94
f 59//95 95//95 34//95
f 59//96 58//96 96//96
f 97//97 99//97 98//97
f 100//98 101//98 90//98
f 100//99 103//99 102//99
f 100//100 90//100 103//100
f 104//101 106//101 105//101
f 107//102 109//102 108//102
f 107//103 111//104 110//105
f 107//106 108//106 111//106
f 112//107 113//108 108//109
f 112//110 108//110 114//110
f 112//111 114//111 115//111
f 116//112 98//112 99//112
f 116//113 117//113 98//113
f 118//114 108//115 119//116
f 118//114 120//117 108//115
f 121//118 110//105 111//104
f 121//119 111//119 117//119
f 122//120 119//120 108//120
f 122//121 108//121 109//121
f 123//122 124//122 108//122
f 123//123 108//109 113//108
f 125//124 126//124 90//124
f 125//125 90//126 127//127
f 114//128 108//128 120//128
f 102//129 103//129 128//129
f 128//130 96//130 129//130
f 128//131 103//131 130//131
f 101//98 131//98 90//98
f 131//98 132//98 90//98
f 132//98 133//98 90//98
f 133//98 134//98 90//98
f 134//98 135//98 90//98
f 135//132 136//132 108//132
f 135//133 108//133 90//133
f 136//132 137//132 108//132
f 137//132 138//132 108//132
f 138//132 139//132 108//132
f 139//132 140//132 108//132
f 140//132 141//132 108//132
f 141//132 142//132 108//132
f 143//134 144//134 111//134
f 143//134 111//134 145//134
f 144//134 146//134 111//134
f 146//134 147//134 111//134
f 147//134 148//134 111//134
f 148//134 149//134 111//134
f 149//134 150//134 111//134
f 105//101 106//101 150//101
f 58//135 151//135 96//135
f 61//136 130//136 62//136
f 150//137 106//137 111//137
f 106//138 152//138 111//138
f 111//139 98//139 117//139
f 111//140 108//140 145//140
f 103//141 62//141 130//141
f 153//142 90//143 154//144
f 153//142 155//145 90//143
f 156//146 157//146 108//146
f 158//147 154//148 90//149
f 158//147 90//149 159//150
f 160//151 161//151 108//151
f 160//152 108//152 157//152
f 124//153 162//153 108//153
f 162//154 156//154 108//154
f 163//155 159//156 90//157
f 163//155 90//157 164//158
f 165//159 164//160 90//161
f 165//159 90//161 166//162
f 167//163 166//162 90//161
f 167//164 90//164 161//164
f 108//132 168//132 145//132
f 108//165 161//165 90//165
f 90//166 62//166 103//166
f 142//132 168//132 108//132
f 62//167 90//167 80//167
f 90//168 81//168 82//168
f 83//169 90//169 82//169
f 126//170 89//170 86//170
f 126//171 86//171 90//171
f 90//172 86//173 87//174
f 155//175 127//127 90//126
f 90//176 87//176 81//176
f 129//177 96//177 151//177
f 128//178 130//178 59//178
f 128//179 59//179 96//179
f 61//180 95//180 130//180
f 130//181 95//181 59//181
f 94//182 151//182 93//182
f 151//183 58//183 93//183
f 6//184 81//184 87//184
f 35//185 60//185 34//185
f 37//186 95//186 36//186
f 37//187 34//187 95//187
f 61//188 36//188 95//188
f 92//189 93//189 60//189
f 60//190 93//190 58//190
