# Blender v2.79 (sub 0) OBJ File: ''
# www.blender.org
mtllib crack_restart_keyway_620.mtl
o crack_restart_keyway_620
v 0.073399 -0.113191 -0.472461
v 0.072964 -0.113341 -0.459453
v 0.084708 -0.121361 -0.472461
v 0.147229 -0.162037 -0.087630
v 0.143382 -0.159202 -0.088100
v 0.115965 -0.144850 -0.090503
v 0.150738 -0.164619 -0.087288
v 0.152177 -0.169048 -0.080801
v 0.154210 -0.167189 -0.086931
v 0.139579 -0.156327 -0.088624
v 0.120406 -0.147382 -0.457089
v 0.095841 -0.129442 -0.472461
v 0.120406 -0.147382 -0.103551
v 0.114631 -0.144474 -0.094849
v 0.120866 -0.146923 -0.098614
v 0.074633 -0.112070 -0.081618
v 0.120406 -0.147382 -0.118922
v 0.120406 -0.147382 -0.472461
v 0.108134 -0.138403 -0.472461
v 0.073529 -0.113098 -0.238326
v 0.073861 -0.112777 -0.225319
v 0.085709 -0.120806 -0.163257
v 0.073164 -0.113215 -0.251334
v 0.070726 -0.114915 -0.394416
v 0.070055 -0.115169 -0.381408
v 0.090632 -0.132125 -0.376755
v 0.070952 -0.114605 -0.407423
v 0.072254 -0.114003 -0.290356
v 0.072645 -0.113541 -0.277349
v 0.071598 -0.114199 -0.303364
v 0.072641 -0.113729 -0.446446
v 0.071890 -0.114016 -0.433438
v 0.071514 -0.114479 -0.420431
v 0.070601 -0.114984 -0.368401
v 0.070523 -0.114875 -0.355393
v 0.073088 -0.113411 -0.264341
v 0.075221 -0.111923 -0.147274
v 0.075655 -0.111590 -0.134267
v 0.086919 -0.123794 -0.132605
v 0.074792 -0.112202 -0.160281
v 0.076384 -0.111192 -0.121259
v 0.076840 -0.110749 -0.108252
v 0.071649 -0.114405 -0.316371
v 0.120406 -0.147382 -0.334119
v 0.071546 -0.114232 -0.329378
v 0.074061 -0.112721 -0.212311
v 0.074029 -0.112672 -0.199304
v 0.146775 -0.173731 -0.061418
v 0.148172 -0.172563 -0.068131
v 0.145657 -0.174531 -0.050796
v 0.150265 -0.170745 -0.074814
v 0.122213 -0.145575 -0.094013
v 0.126540 -0.147825 -0.091832
v 0.120406 -0.147382 -0.134293
v 0.120406 -0.147382 -0.149664
v 0.120406 -0.147382 -0.165036
v 0.120406 -0.147382 -0.180407
v 0.120406 -0.147382 -0.195778
v 0.120406 -0.147382 -0.211149
v 0.120406 -0.147382 -0.241892
v 0.120406 -0.147382 -0.257263
v 0.120406 -0.147382 -0.272634
v 0.120406 -0.147382 -0.288006
v 0.120406 -0.147382 -0.349490
v 0.120406 -0.147382 -0.364862
v 0.120406 -0.147382 -0.380233
v 0.120406 -0.147382 -0.395604
v 0.120406 -0.147382 -0.410975
v 0.120406 -0.147382 -0.426347
v 0.120406 -0.147382 -0.441718
v 0.135349 -0.153089 -0.089200
v 0.071824 -0.114308 -0.342386
v 0.144396 -0.175121 -0.040662
v 0.131068 -0.149873 -0.089874
v 0.120406 -0.147382 -0.303377
v 0.120406 -0.147382 -0.318748
v 0.120406 -0.147382 -0.226521
v 0.074062 -0.112720 -0.186296
v 0.074506 -0.112372 -0.173289
v 0.090246 -0.126723 -0.153702
v 0.074716 -0.112375 -0.166256
v 0.103568 -0.135072 -0.472461
v 0.071442 -0.113546 -0.028148
v 0.075961 -0.111374 -0.096410
v 0.069411 -0.112656 0.106109
v 0.069500 -0.114766 0.029380
v 0.068317 -0.114728 0.062915
v 0.071364 -0.113591 0.132731
v 0.085594 -0.129900 0.178047
v 0.071403 -0.111931 0.165777
v 0.129454 -0.185822 0.138689
v 0.131259 -0.184464 0.202080
v 0.130468 -0.185112 0.188223
v 0.121978 -0.173008 0.200289
v 0.130468 -0.185112 0.188223
v 0.071364 -0.113591 0.132731
v 0.129674 -0.185474 0.163295
v 0.106798 -0.155158 0.193330
v 0.071255 -0.111525 -0.054992
v 0.142657 -0.175838 -0.027720
v 0.130110 -0.185158 0.114167
v 0.129648 -0.185600 0.124266
v 0.137794 -0.179832 0.018150
v 0.140781 -0.177449 -0.010301
v 0.069004 -0.112847 -0.001445
v 0.133529 -0.182844 0.061834
v 0.129454 -0.185822 0.138689
v 0.073399 -0.113191 -0.472461
v 0.084708 -0.121361 -0.472461
v 0.072964 -0.113341 -0.459453
v 0.147229 -0.162037 -0.087630
v 0.115965 -0.144850 -0.090503
v 0.143382 -0.159202 -0.088100
v 0.150738 -0.164619 -0.087288
v 0.154210 -0.167189 -0.086931
v 0.152177 -0.169048 -0.080801
v 0.139579 -0.156327 -0.088624
v 0.120406 -0.147382 -0.457089
v 0.095841 -0.129442 -0.472461
v 0.120406 -0.147382 -0.103551
v 0.120866 -0.146923 -0.098614
v 0.114631 -0.144474 -0.094849
v 0.074633 -0.112070 -0.081618
v 0.120406 -0.147382 -0.118922
v 0.120406 -0.147382 -0.472461
v 0.108134 -0.138403 -0.472461
v 0.073529 -0.113098 -0.238326
v 0.085709 -0.120806 -0.163257
v 0.073861 -0.112777 -0.225319
v 0.073164 -0.113215 -0.251334
v 0.070726 -0.114915 -0.394416
v 0.090632 -0.132125 -0.376755
v 0.070055 -0.115169 -0.381408
v 0.070952 -0.114605 -0.407423
v 0.072254 -0.114003 -0.290356
v 0.072645 -0.113541 -0.277349
v 0.071598 -0.114199 -0.303364
v 0.072641 -0.113729 -0.446446
v 0.071890 -0.114016 -0.433438
v 0.071514 -0.114479 -0.420431
v 0.070601 -0.114984 -0.368401
v 0.070523 -0.114875 -0.355393
v 0.073088 -0.113411 -0.264341
v 0.075221 -0.111923 -0.147274
v 0.086919 -0.123794 -0.132605
v 0.075655 -0.111590 -0.134267
v 0.074792 -0.112202 -0.160281
v 0.076384 -0.111192 -0.121259
v 0.076840 -0.110749 -0.108252
v 0.071649 -0.114405 -0.316371
v 0.071546 -0.114232 -0.329378
v 0.120406 -0.147382 -0.334119
v 0.074061 -0.112721 -0.212311
v 0.074029 -0.112672 -0.199304
v 0.146775 -0.173731 -0.061418
v 0.148172 -0.172563 -0.068131
v 0.145657 -0.174531 -0.050796
v 0.150265 -0.170745 -0.074814
v 0.122213 -0.145575 -0.094013
v 0.126540 -0.147825 -0.091832
v 0.120406 -0.147382 -0.134293
v 0.120406 -0.147382 -0.149664
v 0.120406 -0.147382 -0.165036
v 0.120406 -0.147382 -0.180407
v 0.120406 -0.147382 -0.195778
v 0.120406 -0.147382 -0.211149
v 0.120406 -0.147382 -0.241892
v 0.120406 -0.147382 -0.257263
v 0.120406 -0.147382 -0.272634
v 0.120406 -0.147382 -0.288006
v 0.120406 -0.147382 -0.349490
v 0.120406 -0.147382 -0.364862
v 0.120406 -0.147382 -0.380233
v 0.120406 -0.147382 -0.395604
v 0.120406 -0.147382 -0.410975
v 0.120406 -0.147382 -0.426347
v 0.120406 -0.147382 -0.441718
v 0.135349 -0.153089 -0.089200
v 0.071824 -0.114308 -0.342386
v 0.144396 -0.175121 -0.040662
v 0.131068 -0.149873 -0.089874
v 0.120406 -0.147382 -0.303377
v 0.120406 -0.147382 -0.318748
v 0.120406 -0.147382 -0.226521
v 0.074062 -0.112720 -0.186296
v 0.074506 -0.112372 -0.173289
v 0.090246 -0.126723 -0.153702
v 0.074716 -0.112375 -0.166256
v 0.103568 -0.135072 -0.472461
v 0.071442 -0.113546 -0.028148
v 0.075961 -0.111374 -0.096410
v 0.069411 -0.112656 0.106109
v 0.068317 -0.114728 0.062915
v 0.069500 -0.114766 0.029380
v 0.129674 -0.185474 0.163295
v 0.071255 -0.111525 -0.054992
v 0.142657 -0.175838 -0.027720
v 0.130110 -0.185158 0.114167
v 0.129648 -0.185600 0.124266
v 0.140781 -0.177449 -0.010301
v 0.137794 -0.179832 0.018150
v 0.069004 -0.112847 -0.001445
v 0.133529 -0.182844 0.061834
vn -0.5854 -0.8103 -0.0289
vn -0.5854 -0.8104 -0.0239
vn -0.5837 -0.8115 -0.0267
vn 0.0033 -0.1592 -0.9872
vn 0.0032 -0.1591 -0.9872
vn 0.0026 -0.1601 -0.9871
vn -0.5177 -0.7554 -0.4017
vn -0.5180 -0.7556 -0.4009
vn -0.5177 -0.7557 -0.4011
vn -0.5171 -0.7560 -0.4014
vn -0.0247 -0.2107 -0.9772
vn -0.5820 -0.8128 -0.0243
vn -0.5874 -0.8093 -0.0057
vn -0.5885 -0.8084 -0.0074
vn -0.5875 -0.8092 -0.0020
vn -0.3016 -0.9463 0.1161
vn -0.6552 -0.7310 -0.1906
vn -0.6108 -0.7918 0.0000
vn -0.5905 -0.8070 0.0000
vn -0.5902 -0.8072 -0.0017
vn -0.6812 -0.7313 0.0354
vn -0.6395 -0.7684 0.0249
vn -0.6288 -0.7761 -0.0476
vn -0.6387 -0.7689 -0.0294
vn -0.6321 -0.7743 -0.0304
vn -0.6344 -0.7722 -0.0347
vn -0.7607 -0.6475 0.0459
vn -0.7769 -0.6278 0.0486
vn -0.5836 -0.8111 -0.0396
vn -0.5841 -0.8102 -0.0495
vn -0.5806 -0.8126 -0.0509
vn -0.5811 -0.8125 -0.0457
vn -0.6496 -0.7603 0.0025
vn -0.6406 -0.7670 0.0378
vn -0.5955 -0.8032 0.0156
vn -0.6750 -0.7372 0.0304
vn -0.7347 -0.6771 0.0414
vn -0.7360 -0.6759 0.0388
vn -0.7370 -0.6746 0.0419
vn -0.7353 -0.6767 0.0388
vn -0.7376 -0.6724 0.0619
vn -0.7443 -0.6661 0.0488
vn -0.5619 -0.8272 -0.0066
vn -0.5619 -0.8272 -0.0068
vn -0.5619 -0.8272 -0.0069
vn -0.5575 -0.8301 0.0110
vn -0.6058 -0.7955 0.0127
vn -0.5749 -0.8182 0.0017
vn -0.5740 -0.8189 0.0016
vn -0.5784 -0.8158 -0.0008
vn -0.7905 -0.5541 -0.2609
vn -0.4197 -0.8262 -0.3759
vn -0.6142 -0.7794 -0.1233
vn -0.6156 -0.7784 -0.1232
vn -0.6138 -0.7797 -0.1236
vn -0.5517 -0.7448 -0.3754
vn -0.5355 -0.7521 -0.3842
vn -0.1708 -0.9310 0.3227
vn -0.2940 -0.8938 -0.3387
vn -0.1389 -0.9894 -0.0430
vn -0.6081 -0.7939 0.0000
vn -0.4560 -0.8900 0.0000
vn -0.0185 -0.1985 -0.9799
vn -0.5720 -0.8131 0.1085
vn -0.6110 -0.7821 -0.1223
vn -0.2924 -0.9143 -0.2801
vn -0.0485 -0.2663 -0.9627
vn -0.6017 -0.7902 0.1163
vn -0.6337 -0.7728 -0.0349
vn -0.5908 -0.8041 -0.0663
vn -0.5682 -0.8229 -0.0016
vn -0.6248 -0.7797 0.0422
vn -0.5229 -0.8133 -0.2553
vn -0.6101 -0.7921 0.0188
vn -0.6135 -0.7891 0.0307
vn -0.6109 -0.7911 0.0297
vn -0.6115 -0.7910 0.0179
vn -0.7674 -0.6403 -0.0321
vn -0.6267 -0.7776 -0.0511
vn -0.5813 -0.8128 -0.0387
vn -0.5893 -0.8079 -0.0025
vn -0.6281 -0.7759 -0.0589
vn -0.5889 -0.8028 0.0939
vn -0.5672 -0.8232 0.0248
vn -0.5554 -0.8296 0.0569
vn -0.5619 -0.8272 -0.0072
vn -0.8625 -0.4979 -0.0903
vn -0.8733 -0.4766 -0.1008
vn 0.6113 -0.7911 0.0225
vn -0.8029 -0.5949 0.0380
vn -0.7947 -0.6062 0.0314
vn -0.7781 -0.6276 0.0246
vn -0.7767 -0.6291 0.0323
vn -0.7745 -0.6318 0.0308
vn -0.7805 -0.6208 0.0736
vn 0.7805 0.6208 -0.0736
vn 0.7747 0.6272 -0.0806
vn 0.7801 0.6200 -0.0837
vn 0.7947 0.6062 -0.0314
vn -0.7813 -0.6232 0.0339
vn -0.7906 -0.6121 0.0157
vn -0.7749 -0.6265 0.0833
vn -0.7751 -0.6309 0.0327
vn 0.7749 0.6265 -0.0833
vn -0.5809 -0.8119 -0.0571
vn -0.6117 -0.7811 -0.1255
vn -0.7618 -0.6448 -0.0631
vn -0.9523 0.2957 -0.0752
vn -0.6024 -0.7871 -0.1324
vn -0.6656 -0.7390 -0.1042
vn -0.6907 -0.7223 -0.0343
vn -0.6908 -0.7218 -0.0436
vn -0.6923 -0.7208 -0.0337
vn -0.6905 -0.7220 -0.0441
vn -0.7692 -0.6280 -0.1184
vn -0.6880 -0.7254 0.0192
vn -0.7601 -0.6451 -0.0782
vn -0.5550 -0.8317 0.0167
vn 0.7751 0.6309 -0.0327
vn 0.7767 0.6291 -0.0322
vn 0.7745 0.6318 -0.0307
vn -0.7684 -0.6396 -0.0202
vn 0.5854 0.8103 0.0289
vn -0.0033 0.1592 0.9872
vn -0.0026 0.1601 0.9871
vn -0.0032 0.1591 0.9872
vn 0.5180 0.7556 0.4009
vn 0.5171 0.7560 0.4014
vn 0.0247 0.2107 0.9772
vn 0.5820 0.8128 0.0243
vn 0.5874 0.8093 0.0057
vn 0.5874 0.8093 0.0046
vn 0.5885 0.8084 0.0074
vn 0.3016 0.9463 -0.1161
vn 0.6552 0.7310 0.1906
vn 0.6108 0.7918 0.0000
vn 0.5905 0.8070 0.0000
vn 0.6812 0.7313 -0.0354
vn 0.6395 0.7684 -0.0249
vn 0.6288 0.7761 0.0476
vn 0.6387 0.7689 0.0294
vn 0.6344 0.7722 0.0347
vn 0.6321 0.7743 0.0304
vn 0.7607 0.6475 -0.0459
vn 0.7769 0.6278 -0.0486
vn 0.5836 0.8111 0.0395
vn 0.5806 0.8126 0.0508
vn 0.5841 0.8102 0.0495
vn 0.5811 0.8125 0.0457
vn 0.6496 0.7603 -0.0025
vn 0.6406 0.7670 -0.0378
vn 0.5955 0.8032 -0.0156
vn 0.6750 0.7372 -0.0304
vn 0.7347 0.6771 -0.0414
vn 0.7370 0.6746 -0.0419
vn 0.7360 0.6759 -0.0388
vn 0.7353 0.6767 -0.0388
vn 0.7376 0.6724 -0.0619
vn 0.7443 0.6661 -0.0488
vn 0.5619 0.8272 0.0066
vn 0.5619 0.8272 0.0069
vn 0.5619 0.8272 0.0068
vn 0.5575 0.8301 -0.0110
vn 0.5547 0.8320 -0.0116
vn 0.5582 0.8296 -0.0139
vn 0.6058 0.7955 -0.0127
vn 0.5749 0.8182 -0.0017
vn 0.5784 0.8157 0.0008
vn 0.5740 0.8189 -0.0016
vn 0.7905 0.5541 0.2609
vn 0.4197 0.8262 0.3759
vn 0.6142 0.7794 0.1233
vn 0.6154 0.7788 0.1220
vn 0.6156 0.7784 0.1232
vn 0.5517 0.7448 0.3754
vn 0.5355 0.7521 0.3842
vn 0.1708 0.9310 -0.3227
vn 0.2940 0.8938 0.3387
vn 0.1389 0.9894 0.0430
vn 0.6081 0.7939 0.0000
vn 0.4560 0.8900 0.0000
vn 0.0185 0.1985 0.9799
vn 0.5720 0.8131 -0.1085
vn 0.6154 0.7787 0.1219
vn 0.2924 0.9143 0.2801
vn 0.0485 0.2663 0.9627
vn 0.6017 0.7902 -0.1163
vn 0.6337 0.7728 0.0349
vn 0.5908 0.8041 0.0663
vn 0.5682 0.8229 0.0016
vn 0.6248 0.7797 -0.0422
vn 0.5229 0.8133 0.2553
vn 0.6101 0.7921 -0.0188
vn 0.6109 0.7911 -0.0297
vn 0.6135 0.7891 -0.0307
vn 0.6115 0.7910 -0.0179
vn 0.7674 0.6403 0.0321
vn 0.6267 0.7776 0.0511
vn 0.5813 0.8128 0.0387
vn 0.5894 0.8079 0.0014
vn 0.5893 0.8079 0.0025
vn 0.6281 0.7759 0.0589
vn 0.5889 0.8028 -0.0939
vn 0.5672 0.8232 -0.0248
vn 0.5554 0.8296 -0.0569
vn 0.5619 0.8272 0.0072
vn 0.8625 0.4979 0.0903
vn 0.8733 0.4766 0.1008
vn -0.6113 0.7911 -0.0225
vn 0.8029 0.5949 -0.0380
vn 0.7781 0.6276 -0.0246
vn 0.7813 0.6232 -0.0339
vn 0.7906 0.6121 -0.0157
vn 0.5809 0.8119 0.0571
vn 0.6117 0.7811 0.1255
vn 0.7618 0.6448 0.0631
vn 0.9523 -0.2957 0.0752
vn 0.6024 0.7871 0.1324
vn 0.6656 0.7390 0.1042
vn 0.6907 0.7223 0.0344
vn 0.6923 0.7208 0.0337
vn 0.6908 0.7218 0.0436
vn 0.6905 0.7220 0.0441
vn 0.7692 0.6280 0.1184
vn 0.6880 0.7254 -0.0192
vn 0.7601 0.6451 0.0782
vn 0.5550 0.8317 -0.0167
vn 0.7684 0.6396 0.0202
usemtl None.117
s 1
f 1//1 3//2 2//3
f 4//4 6//5 5//6
f 7//7 9//8 8//9
f 7//7 8//9 4//10
f 5//11 6//11 10//11
f 3//2 11//12 2//3
f 3//13 12//14 11//15
f 13//16 15//16 14//16
f 13//17 14//17 16//17
f 13//18 16//18 17//18
f 18//19 11//15 19//20
f 20//21 22//21 21//21
f 20//22 23//22 22//22
f 24//23 26//23 25//23
f 24//24 27//25 26//26
f 28//27 22//27 29//27
f 28//28 30//28 22//28
f 31//29 11//30 32//31
f 33//32 32//31 11//30
f 34//33 26//33 35//33
f 34//34 25//34 26//34
f 36//35 22//35 23//35
f 36//36 29//36 22//36
f 37//37 39//38 38//39
f 37//37 40//40 39//38
f 41//41 38//41 39//41
f 41//42 39//42 42//42
f 43//43 45//44 44//45
f 43//46 44//46 30//46
f 46//47 21//47 22//47
f 46//48 22//49 47//50
f 48//51 4//51 49//51
f 48//52 6//52 4//52
f 48//53 50//54 6//55
f 49//56 4//56 51//56
f 8//57 51//57 4//57
f 15//58 52//58 14//58
f 52//59 53//59 6//59
f 52//60 6//60 14//60
f 17//18 16//18 54//18
f 54//18 16//18 55//18
f 56//61 22//61 57//61
f 56//61 55//61 22//61
f 57//61 22//61 58//61
f 58//61 22//61 59//61
f 60//61 22//61 61//61
f 61//61 22//61 62//61
f 62//61 22//61 63//61
f 64//62 44//62 26//62
f 64//62 26//62 65//62
f 65//62 26//62 66//62
f 66//62 26//62 67//62
f 67//62 26//62 68//62
f 68//62 26//62 69//62
f 69//62 26//62 70//62
f 10//63 6//63 71//63
f 26//64 44//64 72//64
f 6//55 50//54 73//65
f 53//66 74//66 6//66
f 6//67 74//67 71//67
f 63//61 22//61 75//61
f 75//61 22//61 76//61
f 14//68 6//68 16//68
f 33//69 26//26 27//25
f 33//70 11//70 26//70
f 77//61 22//61 60//61
f 77//61 59//61 22//61
f 78//71 47//50 22//49
f 78//72 22//72 79//72
f 22//73 55//73 80//73
f 22//74 40//75 81//76
f 22//74 81//76 79//77
f 22//78 80//78 39//78
f 22//79 39//79 40//79
f 31//29 2//80 11//30
f 70//62 26//62 11//62
f 11//15 82//81 19//20
f 11//15 12//14 82//81
f 6//82 83//82 16//82
f 72//83 35//83 26//83
f 39//84 80//84 55//84
f 39//85 55//85 16//85
f 44//45 45//44 72//86
f 39//87 84//87 42//87
f 39//88 16//88 84//88
f 85//89 87//89 86//89
f 88//90 85//90 89//90
f 88//91 89//91 90//91
f 85//92 91//93 89//94
f 92//95 94//95 93//95
f 92//96 95//97 94//98
f 90//99 89//99 96//99
f 97//100 93//100 98//100
f 97//101 98//101 91//101
f 93//102 94//102 98//102
f 89//94 91//93 98//103
f 94//98 95//97 98//104
f 99//105 16//105 83//105
f 73//65 100//106 6//55
f 101//107 102//107 85//107
f 100//108 104//108 103//108
f 100//109 103//109 6//109
f 103//110 83//110 6//110
f 105//111 103//112 86//113
f 105//111 83//114 103//112
f 103//115 106//115 85//115
f 103//116 85//116 86//116
f 85//117 106//117 101//117
f 22//118 30//118 44//118
f 22//61 44//61 76//61
f 98//119 107//120 89//121
f 85//122 102//122 91//122
f 108//123 110//123 109//123
f 111//124 113//125 112//126
f 114//127 116//127 115//127
f 114//128 111//128 116//128
f 113//129 117//129 112//129
f 109//130 110//130 118//130
f 109//131 118//132 119//133
f 120//134 122//134 121//134
f 120//135 123//135 122//135
f 120//136 124//136 123//136
f 125//137 126//137 118//137
f 127//138 129//138 128//138
f 127//139 128//139 130//139
f 131//140 133//140 132//140
f 131//141 132//142 134//143
f 135//144 136//144 128//144
f 135//145 128//145 137//145
f 138//146 139//147 118//148
f 140//149 118//148 139//147
f 141//150 142//150 132//150
f 141//151 132//151 133//151
f 143//152 130//152 128//152
f 143//153 128//153 136//153
f 144//154 146//155 145//156
f 144//154 145//156 147//157
f 148//158 145//158 146//158
f 148//159 149//159 145//159
f 150//160 152//161 151//162
f 150//163 137//164 152//165
f 153//166 128//166 129//166
f 153//167 154//168 128//169
f 155//170 156//170 111//170
f 155//171 111//171 112//171
f 155//172 112//173 157//174
f 156//175 158//175 111//175
f 116//176 111//176 158//176
f 121//177 122//177 159//177
f 159//178 112//178 160//178
f 159//179 122//179 112//179
f 124//136 161//136 123//136
f 161//136 162//136 123//136
f 163//180 164//180 128//180
f 163//180 128//180 162//180
f 164//180 165//180 128//180
f 165//180 166//180 128//180
f 167//180 168//180 128//180
f 168//180 169//180 128//180
f 169//180 170//180 128//180
f 171//181 132//181 152//181
f 171//181 172//181 132//181
f 172//181 173//181 132//181
f 173//181 174//181 132//181
f 174//181 175//181 132//181
f 175//181 176//181 132//181
f 176//181 177//181 132//181
f 117//182 178//182 112//182
f 132//183 179//183 152//183
f 112//173 180//184 157//174
f 160//185 112//185 181//185
f 112//186 178//186 181//186
f 170//180 182//180 128//180
f 182//180 183//180 128//180
f 122//187 123//187 112//187
f 140//188 134//143 132//142
f 140//189 132//189 118//189
f 184//180 167//180 128//180
f 184//180 128//180 166//180
f 185//190 128//169 154//168
f 185//191 186//191 128//191
f 128//192 187//192 162//192
f 128//193 188//194 147//195
f 128//193 186//196 188//194
f 128//197 145//197 187//197
f 128//198 147//198 145//198
f 138//146 118//148 110//199
f 177//181 118//181 132//181
f 118//132 126//200 189//201
f 118//132 189//201 119//133
f 112//202 123//202 190//202
f 179//203 132//203 142//203
f 145//204 162//204 187//204
f 145//205 123//205 162//205
f 152//161 179//206 151//162
f 145//207 149//207 191//207
f 145//208 191//208 123//208
f 192//209 194//209 193//209
f 96//210 89//210 192//210
f 192//211 89//121 107//120
f 195//212 98//212 95//212
f 195//213 107//213 98//213
f 196//214 190//214 123//214
f 180//215 112//215 197//215
f 198//216 192//216 199//216
f 197//217 201//217 200//217
f 197//218 112//218 201//218
f 201//219 112//219 190//219
f 202//220 194//221 201//222
f 202//220 201//222 190//223
f 201//224 192//224 203//224
f 201//225 194//225 192//225
f 192//226 198//226 203//226
f 128//227 152//165 137//164
f 128//180 183//180 152//180
f 192//228 107//228 199//228
