# Blender v2.79 (sub 0) OBJ File: ''
# www.blender.org
mtllib crack_restart_keyway_170.mtl
o crack_restart_keyway_170
v 0.073499 -0.113119 -0.472461
v 0.072762 -0.113468 -0.459453
v 0.090995 -0.133688 -0.341157
v 0.085060 -0.121140 -0.472461
v 0.096804 -0.128674 -0.472461
v 0.120406 -0.147382 -0.472461
v 0.109101 -0.137633 -0.472461
v 0.120406 -0.147382 -0.457089
v 0.070609 -0.114979 -0.394416
v 0.070790 -0.114707 -0.407423
v 0.072570 -0.113778 -0.446446
v 0.071630 -0.114179 -0.433438
v 0.071260 -0.114619 -0.420431
v 0.070825 -0.114860 -0.368401
v 0.070704 -0.114887 -0.374905
v 0.070923 -0.114623 -0.355393
v 0.120406 -0.147382 -0.257263
v 0.115443 -0.146535 -0.255241
v 0.118196 -0.147025 -0.250590
v 0.112696 -0.145334 -0.260757
v 0.120406 -0.147382 -0.264949
v 0.120406 -0.147382 -0.247916
v 0.120406 -0.147382 -0.272634
v 0.108785 -0.143410 -0.269496
v 0.120406 -0.147382 -0.280320
v 0.120406 -0.147382 -0.303377
v 0.120406 -0.147382 -0.318748
v 0.120406 -0.147382 -0.288006
v 0.120406 -0.147382 -0.334119
v 0.120406 -0.147382 -0.349490
v 0.120406 -0.147382 -0.364862
v 0.120406 -0.147382 -0.380233
v 0.120406 -0.147382 -0.395604
v 0.120406 -0.147382 -0.410975
v 0.120406 -0.147382 -0.426347
v 0.120406 -0.147382 -0.441718
v 0.103118 -0.133160 -0.472461
v 0.103568 -0.140598 -0.280689
v 0.120406 -0.147382 -0.288006
v 0.120406 -0.147382 -0.280320
v 0.100074 -0.138745 -0.288772
v 0.070383 -0.114962 -0.381408
v 0.070542 -0.114930 -0.377884
v 0.073533 -0.116822 -0.344897
v 0.071504 -0.114405 -0.347488
v 0.093652 -0.134843 -0.301408
v 0.097134 -0.137117 -0.293934
v 0.088819 -0.130708 -0.312511
v 0.091502 -0.132976 -0.305145
v 0.075555 -0.118950 -0.340915
v 0.077783 -0.121176 -0.336915
v 0.090995 -0.133688 -0.341157
v 0.085264 -0.127847 -0.320168
v 0.079766 -0.123051 -0.332474
v 0.082014 -0.125025 -0.327736
v 0.120406 -0.147382 -0.257263
v 0.070923 -0.114623 -0.355393
v 0.073499 -0.113119 -0.472461
v 0.072762 -0.113468 -0.459453
v 0.085060 -0.121140 -0.472461
v 0.096804 -0.128674 -0.472461
v 0.120406 -0.147382 -0.472461
v 0.120406 -0.147382 -0.457089
v 0.109101 -0.137633 -0.472461
v 0.070609 -0.114979 -0.394416
v 0.070790 -0.114707 -0.407423
v 0.072570 -0.113778 -0.446446
v 0.071630 -0.114179 -0.433438
v 0.071260 -0.114619 -0.420431
v 0.070825 -0.114860 -0.368401
v 0.070704 -0.114887 -0.374905
v 0.120406 -0.147382 -0.264949
v 0.120406 -0.147382 -0.272634
v 0.120406 -0.147382 -0.303377
v 0.120406 -0.147382 -0.318748
v 0.120406 -0.147382 -0.334119
v 0.120406 -0.147382 -0.349490
v 0.120406 -0.147382 -0.364862
v 0.120406 -0.147382 -0.380233
v 0.120406 -0.147382 -0.395604
v 0.120406 -0.147382 -0.410975
v 0.120406 -0.147382 -0.426347
v 0.120406 -0.147382 -0.441718
v 0.103118 -0.133160 -0.472461
v 0.070383 -0.114962 -0.381408
v 0.070542 -0.114930 -0.377884
vn 0.5648 0.8235 0.0538
vn 0.5633 0.8245 0.0542
vn 0.5647 0.8235 0.0538
vn 0.5692 0.8205 0.0527
vn 0.5391 0.8404 0.0559
vn 0.6531 0.7573 0.0000
vn 0.6398 0.7682 0.0250
vn 0.6343 0.7726 0.0282
vn 0.6383 0.7694 0.0258
vn 0.5380 0.8405 0.0648
vn 0.6565 0.7538 0.0277
vn 0.5970 0.8011 0.0441
vn 0.6339 0.7729 0.0281
vn 0.6951 0.7187 -0.0178
vn 0.6941 0.7197 -0.0164
vn 0.6937 0.7201 -0.0159
vn 0.6954 0.7184 -0.0183
vn 0.1696 0.9855 0.0034
vn 0.2096 0.9719 0.1073
vn 0.2567 0.9665 0.0000
vn 0.1595 0.9872 0.0000
vn 0.3234 0.9463 0.0000
vn 0.4221 0.9065 0.0000
vn 0.4221 0.9066 0.0000
vn 0.5652 0.8232 0.0532
vn 0.0010 -0.0000 1.0000
vn 0.3737 0.9275 0.0000
vn -0.3737 -0.9275 0.0000
vn 0.3893 0.9201 0.0427
vn -0.3893 -0.9201 -0.0427
vn 0.3719 0.9264 0.0594
vn -0.3719 -0.9264 -0.0594
vn 0.6611 0.7502 0.0105
vn 0.7121 0.7011 -0.0385
vn 0.5879 0.8069 0.0568
vn 0.6971 0.7166 -0.0232
vn 0.8018 0.5928 -0.0753
vn 0.3793 0.9195 0.1030
vn 0.6831 0.7300 -0.0240
vn 0.4573 0.8890 -0.0240
vn 0.6905 0.7231 0.0178
vn -0.6905 -0.7231 -0.0178
vn 0.6903 0.7226 0.0356
vn -0.6903 -0.7226 -0.0356
vn 0.2803 0.9134 0.2951
vn 0.6621 0.7489 -0.0276
vn 0.7216 0.6905 -0.0492
vn 0.6875 0.7261 -0.0004
vn 0.6800 0.7330 -0.0181
vn 0.6804 0.7326 -0.0176
vn -0.3793 -0.9195 -0.1030
vn -0.2803 -0.9134 -0.2951
vn -0.1679 -0.9858 -0.0028
vn -0.1696 -0.9855 -0.0034
vn -0.1613 -0.9869 -0.0006
vn -0.1595 -0.9872 0.0000
vn -0.2096 -0.9719 -0.1073
vn -0.6621 -0.7489 0.0276
vn -0.8018 -0.5928 0.0753
vn -0.5648 -0.8235 -0.0538
vn -0.5647 -0.8235 -0.0538
vn -0.5633 -0.8245 -0.0542
vn -0.5692 -0.8205 -0.0527
vn -0.5391 -0.8404 -0.0559
vn -0.6531 -0.7573 0.0000
vn -0.6398 -0.7682 -0.0250
vn -0.6383 -0.7694 -0.0258
vn -0.6343 -0.7726 -0.0282
vn -0.5380 -0.8405 -0.0648
vn -0.6565 -0.7538 -0.0277
vn -0.5970 -0.8011 -0.0441
vn -0.6339 -0.7729 -0.0281
vn -0.6951 -0.7187 0.0178
vn -0.6937 -0.7201 0.0159
vn -0.6943 -0.7195 0.0170
vn -0.6968 -0.7169 0.0224
vn -0.2567 -0.9665 0.0000
vn -0.3234 -0.9463 0.0000
vn -0.4221 -0.9065 0.0000
vn -0.4221 -0.9066 -0.0000
vn -0.5652 -0.8232 -0.0532
vn -0.0010 -0.0000 -1.0000
vn -0.6611 -0.7502 -0.0105
vn -0.7121 -0.7011 0.0385
vn -0.5879 -0.8069 -0.0568
vn -0.6971 -0.7166 0.0232
vn -0.6831 -0.7300 0.0240
vn -0.4573 -0.8890 0.0240
vn -0.7216 -0.6905 0.0492
vn -0.6875 -0.7261 0.0004
vn -0.6800 -0.7330 0.0181
vn -0.6804 -0.7326 0.0176
vn -0.3878 -0.9191 -0.0690
vn -0.2951 -0.9523 -0.0776
vn -0.6797 -0.7333 0.0185
vn 0.3878 0.9191 0.0690
vn 0.2951 0.9523 0.0776
vn 0.6797 0.7333 -0.0185
usemtl None.017
s 1
f 1//1 2//2 3//3
f 1//1 3//3 4//4
f 4//5 3//5 5//5
f 6//6 7//6 8//6
f 9//7 3//8 10//9
f 11//10 12//10 3//10
f 11//11 3//11 2//11
f 13//12 3//12 12//12
f 13//13 10//9 3//8
f 14//14 3//15 15//16
f 14//14 16//17 3//15
f 17//18 18//18 19//18
f 17//19 20//19 18//19
f 17//20 21//20 20//20
f 17//21 19//21 22//21
f 23//22 24//22 21//22
f 23//22 25//22 24//22
f 26//23 27//24 3//24
f 26//23 3//24 28//23
f 27//24 29//24 3//24
f 29//24 30//24 3//24
f 31//24 32//24 3//24
f 31//24 3//24 30//24
f 32//24 33//24 3//24
f 33//24 34//23 3//24
f 34//23 35//24 3//24
f 35//24 36//24 3//24
f 36//25 7//25 3//25
f 36//6 8//6 7//6
f 7//26 37//26 5//26
f 38//27 25//27 28//27
f 38//28 39//28 40//28
f 38//29 28//29 41//29
f 38//30 41//30 39//30
f 38//31 24//31 25//31
f 38//32 40//32 24//32
f 9//33 42//33 3//33
f 42//34 43//34 3//34
f 7//35 5//35 3//35
f 16//36 44//36 3//36
f 16//37 45//37 44//37
f 28//38 46//38 47//38
f 3//39 48//39 49//39
f 3//40 49//40 28//40
f 50//41 51//41 3//41
f 50//42 52//42 51//42
f 50//43 3//43 44//43
f 50//44 44//44 52//44
f 28//45 49//45 46//45
f 48//46 3//46 53//46
f 15//47 3//47 43//47
f 3//48 51//48 54//48
f 3//49 54//50 55//49
f 46//51 39//51 47//51
f 46//52 49//52 39//52
f 19//53 18//54 56//55
f 19//53 56//55 22//56
f 18//57 20//57 56//57
f 53//58 52//58 48//58
f 45//59 57//59 44//59
f 58//60 52//61 59//62
f 58//60 60//63 52//61
f 60//64 61//64 52//64
f 62//65 63//65 64//65
f 65//66 66//67 52//68
f 67//69 52//69 68//69
f 67//70 59//70 52//70
f 69//71 68//71 52//71
f 69//72 52//68 66//67
f 70//73 71//74 52//75
f 70//73 52//75 57//76
f 56//77 20//77 72//77
f 73//78 72//78 24//78
f 73//78 24//78 40//78
f 74//79 52//80 75//80
f 74//79 39//79 52//80
f 75//80 52//80 76//80
f 76//80 52//80 77//80
f 78//80 52//80 79//80
f 78//80 77//80 52//80
f 79//80 52//80 80//80
f 80//80 52//80 81//79
f 81//79 52//80 82//80
f 82//80 52//80 83//80
f 83//81 52//81 64//81
f 83//65 64//65 63//65
f 64//82 61//82 84//82
f 65//83 52//83 85//83
f 85//84 52//84 86//84
f 64//85 52//85 61//85
f 57//76 52//75 44//86
f 52//87 49//87 48//87
f 52//88 39//88 49//88
f 71//89 86//89 52//89
f 52//90 54//90 51//90
f 52//91 55//91 54//92
f 39//93 41//93 47//93
f 72//94 20//94 24//94
f 55//91 52//91 53//95
f 28//96 47//96 41//96
f 21//97 24//97 20//97
f 55//49 53//98 3//49
