# Blender v2.79 (sub 0) OBJ File: ''
# www.blender.org
mtllib crack_restart_keyway_380.mtl
o crack_restart_keyway_380
v 0.073531 -0.113097 -0.472461
v 0.072983 -0.113329 -0.459453
v 0.087302 -0.122904 -0.472461
v 0.147218 -0.162044 -0.087640
v 0.152254 -0.168978 -0.080758
v 0.150824 -0.164540 -0.087211
v 0.143323 -0.159237 -0.088157
v 0.127524 -0.160631 -0.065345
v 0.154210 -0.167189 -0.086931
v 0.120406 -0.147382 -0.103551
v 0.120406 -0.147382 -0.118922
v 0.102099 -0.136842 -0.100538
v 0.120866 -0.146923 -0.098614
v 0.120406 -0.147382 -0.472461
v 0.108376 -0.138211 -0.472461
v 0.120406 -0.147382 -0.457089
v 0.073555 -0.113080 -0.238326
v 0.073837 -0.112792 -0.225319
v 0.096438 -0.132582 -0.147722
v 0.073110 -0.113249 -0.251334
v 0.070760 -0.114896 -0.394416
v 0.096094 -0.129240 -0.472461
v 0.070902 -0.114637 -0.407423
v 0.072519 -0.113815 -0.290356
v 0.104127 -0.140752 -0.280915
v 0.071610 -0.114426 -0.316371
v 0.072705 -0.113504 -0.277349
v 0.071872 -0.114027 -0.303364
v 0.072659 -0.113716 -0.446446
v 0.071813 -0.114064 -0.433438
v 0.071375 -0.114556 -0.342386
v 0.081081 -0.123931 -0.352639
v 0.070738 -0.114740 -0.355393
v 0.071394 -0.114545 -0.420431
v 0.070811 -0.114868 -0.368401
v 0.090632 -0.132125 -0.376755
v 0.070336 -0.114992 -0.381408
v 0.076502 -0.111118 -0.121259
v 0.086988 -0.122721 -0.073611
v 0.075542 -0.111670 -0.134267
v 0.077656 -0.110170 -0.108252
v 0.078425 -0.109859 -0.094934
v 0.081362 -0.113056 -0.097726
v 0.078159 -0.109921 -0.102707
v 0.071325 -0.114371 -0.329378
v 0.146553 -0.173926 -0.061446
v 0.147514 -0.173118 -0.064573
v 0.148150 -0.172583 -0.068144
v 0.145494 -0.174792 -0.057290
v 0.149768 -0.171179 -0.075087
v 0.114590 -0.144545 -0.094820
v 0.122213 -0.145575 -0.094013
v 0.115887 -0.144941 -0.090532
v 0.126632 -0.147733 -0.091703
v 0.120406 -0.147382 -0.134293
v 0.108985 -0.142167 -0.132116
v 0.106548 -0.141756 -0.120727
v 0.120406 -0.147382 -0.149664
v 0.120406 -0.147382 -0.165036
v 0.120406 -0.147382 -0.180407
v 0.120406 -0.147382 -0.195778
v 0.120406 -0.147382 -0.211149
v 0.120406 -0.147382 -0.241892
v 0.120406 -0.147382 -0.226521
v 0.120406 -0.147382 -0.257263
v 0.120406 -0.147382 -0.272634
v 0.120406 -0.147382 -0.288006
v 0.120406 -0.147382 -0.303377
v 0.120406 -0.147382 -0.318748
v 0.120406 -0.147382 -0.349490
v 0.120406 -0.147382 -0.364862
v 0.120406 -0.147382 -0.334119
v 0.120406 -0.147382 -0.380233
v 0.120406 -0.147382 -0.395604
v 0.120406 -0.147382 -0.410975
v 0.120406 -0.147382 -0.426347
v 0.139529 -0.156358 -0.088663
v 0.135302 -0.153117 -0.089240
v 0.116457 -0.145374 -0.088674
v 0.131068 -0.149873 -0.089874
v 0.095082 -0.132457 -0.067119
v 0.074230 -0.112700 -0.191267
v 0.074299 -0.112552 -0.186296
v 0.074531 -0.112499 -0.180705
v 0.074701 -0.112250 -0.173289
v 0.074921 -0.112239 -0.166679
v 0.073887 -0.112761 -0.199304
v 0.120406 -0.147382 -0.441718
v 0.103457 -0.134601 -0.472461
v 0.100656 -0.139731 -0.062891
v 0.103977 -0.143740 -0.060498
v 0.072931 -0.113522 -0.264341
v 0.075345 -0.111955 -0.141540
v 0.075029 -0.112043 -0.147274
v 0.077864 -0.109944 -0.088995
v 0.078000 -0.111440 -0.082514
v 0.096785 -0.134698 -0.065829
v 0.116457 -0.145374 -0.088674
v 0.144240 -0.175756 -0.051949
v 0.136285 -0.170630 -0.050943
v 0.145494 -0.174792 -0.057290
v 0.076975 -0.110315 -0.083466
v 0.077864 -0.109944 -0.088995
v 0.113351 -0.152506 -0.055622
v 0.110957 -0.150332 -0.056827
v 0.127524 -0.160631 -0.065345
v 0.117943 -0.156101 -0.054145
v 0.108226 -0.147757 -0.058422
v 0.125540 -0.162609 -0.051012
v 0.122031 -0.159567 -0.051988
v 0.074140 -0.112761 -0.217094
v 0.074184 -0.112633 -0.212311
v 0.075066 -0.112142 -0.153584
v 0.074954 -0.112087 -0.160281
v 0.074162 -0.112746 -0.207483
v 0.073531 -0.113097 -0.472461
v 0.087302 -0.122904 -0.472461
v 0.072983 -0.113329 -0.459453
v 0.147218 -0.162044 -0.087640
v 0.150824 -0.164540 -0.087211
v 0.152254 -0.168978 -0.080758
v 0.143323 -0.159237 -0.088157
v 0.154210 -0.167189 -0.086931
v 0.120406 -0.147382 -0.103551
v 0.102099 -0.136842 -0.100538
v 0.120406 -0.147382 -0.118922
v 0.120866 -0.146923 -0.098614
v 0.120406 -0.147382 -0.472461
v 0.120406 -0.147382 -0.457089
v 0.108376 -0.138211 -0.472461
v 0.073555 -0.113080 -0.238326
v 0.096438 -0.132582 -0.147722
v 0.073837 -0.112792 -0.225319
v 0.073110 -0.113249 -0.251334
v 0.070760 -0.114896 -0.394416
v 0.070902 -0.114637 -0.407423
v 0.096094 -0.129240 -0.472461
v 0.072519 -0.113815 -0.290356
v 0.071610 -0.114426 -0.316371
v 0.104127 -0.140752 -0.280915
v 0.072705 -0.113504 -0.277349
v 0.071872 -0.114027 -0.303364
v 0.072659 -0.113716 -0.446446
v 0.071813 -0.114064 -0.433438
v 0.071375 -0.114556 -0.342386
v 0.070738 -0.114740 -0.355393
v 0.090632 -0.132125 -0.376755
v 0.071394 -0.114545 -0.420431
v 0.070811 -0.114868 -0.368401
v 0.070336 -0.114992 -0.381408
v 0.076502 -0.111118 -0.121259
v 0.075542 -0.111670 -0.134267
v 0.077656 -0.110170 -0.108252
v 0.078425 -0.109859 -0.094934
v 0.078159 -0.109921 -0.102707
v 0.081362 -0.113056 -0.097726
v 0.071325 -0.114371 -0.329378
v 0.146553 -0.173926 -0.061446
v 0.148150 -0.172583 -0.068144
v 0.147514 -0.173118 -0.064573
v 0.149768 -0.171179 -0.075087
v 0.122213 -0.145575 -0.094013
v 0.114590 -0.144545 -0.094820
v 0.115887 -0.144941 -0.090532
v 0.126632 -0.147733 -0.091703
v 0.108985 -0.142167 -0.132116
v 0.120406 -0.147382 -0.134293
v 0.106548 -0.141756 -0.120727
v 0.120406 -0.147382 -0.149664
v 0.120406 -0.147382 -0.165036
v 0.120406 -0.147382 -0.180407
v 0.120406 -0.147382 -0.195778
v 0.120406 -0.147382 -0.211149
v 0.120406 -0.147382 -0.241892
v 0.120406 -0.147382 -0.226521
v 0.120406 -0.147382 -0.257263
v 0.120406 -0.147382 -0.272634
v 0.120406 -0.147382 -0.288006
v 0.120406 -0.147382 -0.303377
v 0.120406 -0.147382 -0.318748
v 0.120406 -0.147382 -0.349490
v 0.120406 -0.147382 -0.364862
v 0.120406 -0.147382 -0.334119
v 0.120406 -0.147382 -0.380233
v 0.120406 -0.147382 -0.395604
v 0.120406 -0.147382 -0.410975
v 0.120406 -0.147382 -0.426347
v 0.139529 -0.156358 -0.088663
v 0.135302 -0.153117 -0.089240
v 0.131068 -0.149873 -0.089874
v 0.074299 -0.112552 -0.186296
v 0.074230 -0.112700 -0.191267
v 0.074701 -0.112250 -0.173289
v 0.074531 -0.112499 -0.180705
v 0.074921 -0.112239 -0.166679
v 0.073887 -0.112761 -0.199304
v 0.120406 -0.147382 -0.441718
v 0.103457 -0.134601 -0.472461
v 0.072931 -0.113522 -0.264341
v 0.075345 -0.111955 -0.141540
v 0.075029 -0.112043 -0.147274
v 0.074140 -0.112761 -0.217094
v 0.074184 -0.112633 -0.212311
v 0.075066 -0.112142 -0.153584
v 0.074954 -0.112087 -0.160281
v 0.074162 -0.112746 -0.207483
vn 0.5796 0.8139 0.0389
vn 0.5795 0.8140 0.0387
vn 0.5796 0.8140 0.0388
vn 0.4816 0.7683 0.4216
vn 0.5024 0.7691 0.3950
vn 0.5021 0.7694 0.3948
vn 0.5029 0.7686 0.3955
vn 0.5067 0.7642 0.3992
vn 0.5477 0.7411 0.3883
vn 0.4990 0.8666 0.0000
vn 0.4794 0.8686 -0.1254
vn 0.6063 0.7953 0.0000
vn 0.7180 0.6954 -0.0317
vn 0.7165 0.6969 -0.0310
vn 0.7218 0.6913 -0.0336
vn 0.7222 0.6909 -0.0337
vn 0.5445 0.8385 0.0226
vn 0.5450 0.8381 0.0228
vn 0.5503 0.8346 0.0257
vn 0.6531 0.7567 -0.0284
vn 0.6532 0.7566 -0.0287
vn 0.6551 0.7545 -0.0406
vn 0.6531 0.7568 -0.0274
vn 0.4362 0.8991 -0.0363
vn 0.6056 0.7935 0.0606
vn 0.5795 0.8141 0.0387
vn 0.6700 0.7411 -0.0433
vn 0.5522 0.8333 0.0268
vn 0.5846 0.8099 0.0488
vn 0.5843 0.8101 0.0485
vn 0.5842 0.8102 0.0484
vn 0.6642 0.7476 -0.0027
vn 0.6648 0.7470 -0.0036
vn 0.6640 0.7477 -0.0025
vn 0.6489 0.7603 -0.0309
vn 0.6577 0.7532 0.0046
vn 0.8869 0.4541 -0.0847
vn 0.9180 0.3811 -0.1092
vn 0.7228 0.6904 -0.0302
vn 0.5819 0.8132 -0.0093
vn -0.6434 0.7656 0.0001
vn -0.4316 0.8988 0.0772
vn 0.5093 0.8127 0.2830
vn 0.5400 0.6773 0.4996
vn 0.1601 0.9337 -0.3204
vn 0.4485 0.8722 0.1952
vn 0.1282 0.9903 0.0527
vn 0.2709 0.9052 0.3274
vn 0.4154 0.9097 0.0000
vn 0.3706 0.9276 0.0458
vn 0.5254 0.8509 0.0000
vn 0.4374 0.8793 0.1884
vn 0.3772 0.9261 0.0000
vn 0.5122 0.8589 0.0000
vn 0.4560 0.8900 0.0000
vn 0.4405 0.8887 -0.1275
vn 0.5981 0.8015 0.0000
vn 0.5205 0.7514 0.4056
vn 0.5187 0.7526 0.4055
vn 0.5185 0.7529 0.4053
vn 0.5179 0.7536 0.4047
vn 0.3197 0.8553 0.4077
vn 0.2486 0.8733 0.4189
vn 0.2634 0.9542 0.1416
vn 0.5170 0.7539 0.4054
vn 0.5631 0.8186 -0.1133
vn 0.6725 0.7064 0.2209
vn 0.6355 0.7707 -0.0475
vn 0.6998 0.7137 -0.0314
vn 0.7006 0.7128 -0.0320
vn 0.6995 0.7140 -0.0309
vn 0.7045 0.7088 -0.0364
vn 0.7066 0.7066 -0.0391
vn 0.7072 0.7059 -0.0399
vn 0.6979 0.7157 -0.0244
vn 0.6981 0.7156 -0.0244
vn 0.6966 0.7171 -0.0212
vn 0.7043 0.7090 -0.0354
vn 0.7042 0.7091 -0.0359
vn 0.4822 0.8744 0.0539
vn 0.5901 0.8071 0.0205
vn 0.5909 0.8065 0.0190
vn 0.5884 0.8082 0.0232
vn 0.5916 0.8061 0.0179
vn 0.5840 0.8103 0.0482
vn 0.6650 0.7024 0.2538
vn 0.5394 0.8415 0.0306
vn 0.6742 0.7328 -0.0919
vn 0.5525 0.8286 -0.0906
vn 0.6413 0.7669 0.0266
vn 0.6234 0.7796 0.0591
vn 0.6965 0.7175 -0.0007
vn 0.6662 -0.6255 -0.4061
vn 0.6544 0.7560 -0.0103
vn 0.6499 0.7597 -0.0249
vn 0.3878 0.9116 -0.1364
vn 0.6909 0.7213 -0.0490
vn 0.6913 0.7210 -0.0470
vn 0.6908 0.7213 -0.0490
vn 0.6909 0.7213 -0.0491
vn 0.4564 0.8893 -0.0282
vn 0.7685 0.6346 0.0817
vn 0.5981 0.7706 0.2202
vn 0.7699 0.6306 -0.0982
vn 0.7415 0.6644 0.0933
vn 0.6839 0.6767 0.2727
vn 0.6816 0.6805 0.2690
vn 0.6835 0.6774 0.2720
vn -0.6816 -0.6805 -0.2690
vn -0.6839 -0.6767 -0.2727
vn -0.6835 -0.6774 -0.2720
vn 0.6814 0.6809 0.2686
vn -0.6814 -0.6809 -0.2686
vn 0.5454 0.7931 0.2712
vn -0.5454 -0.7931 -0.2712
vn 0.6609 0.7342 0.1555
vn -0.6609 -0.7342 -0.1555
vn -0.6650 -0.7024 -0.2538
vn 0.5937 0.7746 0.2181
vn 0.5945 0.7729 0.2218
vn 0.5940 0.7739 0.2195
vn -0.5937 -0.7746 -0.2181
vn -0.5940 -0.7739 -0.2195
vn -0.5945 -0.7729 -0.2218
vn 0.5740 0.8017 0.1668
vn 0.5802 0.7955 0.1747
vn 0.5744 0.8012 0.1675
vn -0.5740 -0.8017 -0.1668
vn -0.5744 -0.8013 -0.1675
vn -0.5802 -0.7955 -0.1747
vn 0.5954 0.7711 0.2256
vn 0.5103 0.8201 0.2589
vn 0.5865 0.7874 0.1898
vn 0.5978 0.7616 0.2501
vn 0.6122 0.7674 0.1906
vn 0.5545 0.7784 0.2941
vn 0.5811 0.7947 0.1757
vn -0.5954 -0.7711 -0.2256
vn 0.7087 0.7050 -0.0263
vn 0.7074 0.7064 -0.0255
vn 0.7078 0.7060 -0.0257
vn 0.7128 0.7007 -0.0289
vn 0.6921 0.7218 -0.0064
vn 0.6922 0.7217 -0.0073
vn 0.6921 0.7218 -0.0065
vn 0.6920 0.7219 -0.0056
vn 0.6303 0.7760 0.0226
vn 0.6324 0.7744 0.0213
vn 0.6310 0.7755 0.0222
vn 0.6329 0.7740 0.0210
vn -0.6122 -0.7674 -0.1906
vn -0.5811 -0.7947 -0.1757
vn 0.5767 0.8135 0.0751
vn 0.5379 0.8392 -0.0795
vn 0.6893 0.7244 -0.0098
vn 0.6652 0.7376 0.1157
vn 0.6591 0.7520 -0.0081
vn 0.6964 0.7174 -0.0206
vn 0.8065 0.5796 0.1166
vn -0.5796 -0.8139 -0.0389
vn -0.5796 -0.8140 -0.0388
vn -0.5795 -0.8140 -0.0387
vn -0.4816 -0.7683 -0.4216
vn -0.5021 -0.7694 -0.3948
vn -0.5067 -0.7642 -0.3992
vn -0.5477 -0.7411 -0.3883
vn -0.4990 -0.8666 0.0000
vn -0.4794 -0.8686 0.1254
vn -0.6063 -0.7953 0.0000
vn -0.7180 -0.6953 0.0317
vn -0.7218 -0.6913 0.0336
vn -0.7165 -0.6969 0.0310
vn -0.7222 -0.6909 0.0337
vn -0.5445 -0.8385 -0.0226
vn -0.5503 -0.8346 -0.0257
vn -0.5450 -0.8381 -0.0228
vn -0.6551 -0.7545 0.0406
vn -0.6531 -0.7568 0.0274
vn -0.4362 -0.8991 0.0363
vn -0.6056 -0.7935 -0.0606
vn -0.5795 -0.8141 -0.0387
vn -0.6316 -0.7742 0.0419
vn -0.5522 -0.8333 -0.0268
vn -0.5846 -0.8099 -0.0488
vn -0.6557 -0.7550 0.0037
vn -0.6489 -0.7603 0.0309
vn -0.8869 -0.4541 0.0847
vn -0.9180 -0.3811 0.1092
vn -0.7228 -0.6904 0.0302
vn -0.5819 -0.8132 0.0093
vn 0.6434 -0.7656 -0.0001
vn 0.4316 -0.8988 -0.0772
vn -0.5093 -0.8127 -0.2830
vn -0.5400 -0.6773 -0.4996
vn -0.1601 -0.9337 0.3204
vn -0.4485 -0.8722 -0.1952
vn -0.1282 -0.9903 -0.0527
vn -0.2709 -0.9052 -0.3274
vn -0.4154 -0.9097 0.0000
vn -0.3706 -0.9276 -0.0458
vn -0.5254 -0.8509 -0.0000
vn -0.4374 -0.8793 -0.1884
vn -0.3772 -0.9261 0.0000
vn -0.4560 -0.8900 0.0000
vn -0.5981 -0.8015 0.0000
vn -0.5205 -0.7514 -0.4056
vn -0.5185 -0.7529 -0.4053
vn -0.5187 -0.7526 -0.4055
vn -0.5179 -0.7536 -0.4047
vn -0.3197 -0.8553 -0.4077
vn -0.2486 -0.8733 -0.4189
vn -0.2634 -0.9542 -0.1416
vn -0.5170 -0.7539 -0.4054
vn -0.5631 -0.8186 0.1133
vn -0.6725 -0.7064 -0.2209
vn -0.6355 -0.7707 0.0475
vn -0.7018 -0.7116 0.0331
vn -0.7032 -0.7101 0.0350
vn -0.7006 -0.7128 0.0319
vn -0.7072 -0.7059 0.0399
vn -0.7066 -0.7066 0.0391
vn -0.6979 -0.7157 0.0244
vn -0.6966 -0.7171 0.0212
vn -0.6981 -0.7156 0.0244
vn -0.7043 -0.7090 0.0354
vn -0.4822 -0.8744 -0.0539
vn -0.5901 -0.8071 -0.0205
vn -0.5884 -0.8082 -0.0232
vn -0.5909 -0.8065 -0.0190
vn -0.5916 -0.8061 -0.0179
vn -0.5840 -0.8103 -0.0482
vn -0.5394 -0.8415 -0.0306
vn -0.6742 -0.7328 0.0919
vn -0.5525 -0.8286 0.0906
vn -0.6413 -0.7669 -0.0266
vn -0.6234 -0.7796 -0.0591
vn -0.6965 -0.7175 0.0007
vn -0.6662 0.6255 0.4061
vn -0.6544 -0.7560 0.0103
vn -0.6499 -0.7597 0.0249
vn -0.3878 -0.9116 0.1364
vn -0.6909 -0.7213 0.0490
vn -0.6908 -0.7213 0.0490
vn -0.6913 -0.7210 0.0470
vn -0.6909 -0.7213 0.0491
vn -0.4564 -0.8893 0.0282
vn -0.7685 -0.6346 -0.0817
vn -0.5981 -0.7706 -0.2202
vn -0.7699 -0.6306 0.0982
vn -0.7415 -0.6644 -0.0933
vn -0.5103 -0.8201 -0.2589
vn -0.5865 -0.7874 -0.1898
vn -0.5978 -0.7616 -0.2501
vn -0.5545 -0.7784 -0.2941
vn -0.7087 -0.7050 0.0263
vn -0.7078 -0.7060 0.0257
vn -0.7074 -0.7064 0.0255
vn -0.7128 -0.7007 0.0289
vn -0.6921 -0.7218 0.0064
vn -0.6921 -0.7218 0.0065
vn -0.6922 -0.7217 0.0073
vn -0.6920 -0.7219 0.0056
vn -0.6303 -0.7760 -0.0226
vn -0.6310 -0.7755 -0.0222
vn -0.6324 -0.7744 -0.0213
vn -0.6329 -0.7740 -0.0210
vn -0.5767 -0.8135 -0.0751
vn -0.5389 -0.8389 0.0761
vn -0.6644 -0.7473 0.0097
vn -0.6652 -0.7376 -0.1157
vn -0.6591 -0.7520 0.0081
vn -0.6964 -0.7174 0.0206
vn -0.8065 -0.5796 -0.1166
usemtl None.063
s 1
f 1//1 2//2 3//3
f 4//4 5//4 6//4
f 4//5 7//6 8//7
f 4//5 8//7 5//8
f 6//9 5//9 9//9
f 10//10 11//10 12//10
f 10//11 12//11 13//11
f 14//12 15//12 16//12
f 17//13 18//14 19//15
f 17//13 19//15 20//16
f 21//17 22//18 23//19
f 24//20 25//21 26//22
f 24//20 27//23 25//21
f 24//24 26//24 28//24
f 29//25 30//25 3//25
f 29//26 3//3 2//2
f 31//27 32//27 33//27
f 34//28 23//19 22//18
f 34//29 22//30 30//31
f 35//32 33//33 32//34
f 35//35 36//35 37//35
f 35//32 32//34 36//36
f 38//37 39//37 40//37
f 38//38 41//38 39//38
f 42//39 43//39 44//39
f 26//40 31//40 45//40
f 46//41 47//41 48//41
f 46//42 48//42 49//42
f 48//43 50//43 8//43
f 50//44 5//44 8//44
f 13//45 51//45 52//45
f 13//46 12//46 51//46
f 52//47 51//47 53//47
f 52//48 53//48 54//48
f 11//49 55//49 56//49
f 11//50 56//50 57//50
f 55//51 58//51 19//51
f 55//52 19//52 56//52
f 58//51 59//51 19//51
f 59//51 60//51 19//51
f 60//51 61//51 19//51
f 61//51 62//51 19//51
f 63//53 25//53 64//53
f 63//53 65//53 25//53
f 65//53 66//53 25//53
f 66//53 67//53 25//53
f 67//53 68//53 25//53
f 68//53 69//53 25//53
f 70//54 71//54 32//54
f 70//54 32//54 72//54
f 71//54 73//54 32//54
f 73//55 74//55 36//55
f 73//56 36//56 32//56
f 75//57 76//57 22//57
f 75//57 22//57 74//57
f 77//58 78//59 8//60
f 77//58 8//60 7//61
f 8//62 54//62 79//62
f 8//63 80//63 54//63
f 54//64 53//64 79//64
f 8//60 78//59 80//65
f 39//66 53//66 12//66
f 39//67 81//67 53//67
f 39//68 12//68 57//68
f 19//69 82//70 83//71
f 19//72 84//73 85//74
f 19//75 85//76 86//77
f 19//69 87//78 82//70
f 19//72 83//79 84//73
f 74//80 22//80 36//80
f 88//57 22//57 76//57
f 88//57 16//57 22//57
f 16//81 89//82 22//83
f 16//81 15//84 89//82
f 22//30 3//85 30//31
f 79//86 90//86 91//86
f 79//87 53//87 81//87
f 19//88 40//88 56//88
f 51//89 12//89 53//89
f 21//90 37//90 36//90
f 21//91 36//91 22//91
f 39//92 57//92 40//92
f 39//93 41//93 43//93
f 69//53 72//53 25//53
f 25//94 27//94 92//94
f 25//95 92//95 20//95
f 57//96 12//96 11//96
f 93//97 40//98 19//99
f 93//97 19//99 94//100
f 64//101 25//101 19//101
f 43//102 42//102 95//102
f 79//103 91//103 8//103
f 43//104 41//104 44//104
f 39//105 43//105 96//105
f 81//106 97//107 79//108
f 97//109 81//110 98//111
f 97//107 90//112 79//108
f 97//109 98//111 90//113
f 99//114 49//114 100//114
f 99//115 100//115 101//115
f 102//116 96//116 95//116
f 102//117 103//117 96//117
f 90//118 98//118 91//118
f 104//119 8//120 105//121
f 104//122 105//123 106//124
f 104//125 107//126 8//127
f 104//128 106//129 107//130
f 8//120 108//131 105//121
f 100//132 48//132 8//132
f 100//133 8//133 109//133
f 8//134 91//134 108//134
f 109//135 8//135 110//135
f 48//136 100//136 49//136
f 8//127 107//126 110//137
f 108//138 106//124 105//123
f 111//139 112//140 19//141
f 111//139 19//141 18//142
f 113//143 94//144 19//145
f 113//143 19//145 114//146
f 87//147 19//148 115//149
f 115//149 19//148 112//150
f 110//151 106//151 109//151
f 110//152 107//130 106//129
f 25//153 72//153 26//153
f 72//154 32//154 26//154
f 64//51 19//51 62//51
f 26//155 32//155 31//155
f 56//156 40//156 57//156
f 19//157 25//157 20//157
f 114//158 19//75 86//77
f 95//159 96//159 43//159
f 116//160 117//161 118//162
f 119//163 120//163 121//163
f 119//164 106//164 122//164
f 119//165 121//165 106//165
f 120//166 123//166 121//166
f 124//167 125//167 126//167
f 124//168 127//168 125//168
f 128//169 129//169 130//169
f 131//170 132//171 133//172
f 131//170 134//173 132//171
f 135//174 136//175 137//176
f 138//177 139//177 140//177
f 138//178 140//178 141//178
f 138//179 142//179 139//179
f 143//180 117//180 144//180
f 143//181 118//162 117//161
f 145//182 146//182 147//182
f 148//183 137//176 136//175
f 148//184 144//184 137//184
f 149//185 147//185 146//185
f 149//186 150//186 147//186
f 151//187 152//187 39//187
f 151//188 39//188 153//188
f 154//189 155//189 156//189
f 139//190 157//190 145//190
f 158//191 159//191 160//191
f 158//192 101//192 159//192
f 159//193 106//193 161//193
f 161//194 106//194 121//194
f 127//195 162//195 163//195
f 127//196 163//196 125//196
f 162//197 164//197 163//197
f 162//198 165//198 164//198
f 126//199 166//199 167//199
f 126//200 168//200 166//200
f 167//201 132//201 169//201
f 167//202 166//202 132//202
f 169//201 132//201 170//201
f 170//201 132//201 171//201
f 171//201 132//201 172//201
f 172//201 132//201 173//201
f 174//203 175//203 140//203
f 174//203 140//203 176//203
f 176//203 140//203 177//203
f 177//203 140//203 178//203
f 178//203 140//203 179//203
f 179//203 140//203 180//203
f 181//204 147//204 182//204
f 181//204 183//204 147//204
f 182//204 147//204 184//204
f 184//204 147//204 185//204
f 186//205 137//205 187//205
f 186//205 185//205 137//205
f 188//206 106//207 189//208
f 188//206 122//209 106//207
f 106//210 98//210 165//210
f 106//211 165//211 190//211
f 165//212 98//212 164//212
f 106//207 190//213 189//208
f 39//214 125//214 164//214
f 39//215 164//215 81//215
f 39//216 168//216 125//216
f 132//217 191//218 192//219
f 132//217 193//220 194//221
f 132//222 195//223 193//224
f 132//217 192//219 196//225
f 132//217 194//221 191//218
f 185//226 147//226 137//226
f 197//205 187//205 137//205
f 197//205 137//205 129//205
f 129//227 137//228 198//229
f 129//227 198//229 130//230
f 137//231 144//231 117//231
f 98//232 81//232 164//232
f 132//233 166//233 152//233
f 163//234 164//234 125//234
f 135//235 147//235 150//235
f 135//236 137//236 147//236
f 39//237 152//237 168//237
f 39//238 156//238 153//238
f 180//203 140//203 183//203
f 140//239 199//239 141//239
f 140//240 134//240 199//240
f 168//241 126//241 125//241
f 200//242 132//243 152//244
f 200//242 201//245 132//243
f 175//246 132//246 140//246
f 156//247 103//247 154//247
f 98//248 106//248 91//248
f 156//249 155//249 153//249
f 39//250 96//250 156//250
f 100//251 106//251 159//251
f 100//252 109//252 106//252
f 106//253 108//253 91//253
f 159//254 101//254 100//254
f 202//255 132//256 203//257
f 202//255 133//258 132//256
f 204//259 132//260 201//261
f 204//259 205//262 132//260
f 196//263 206//264 132//265
f 206//264 203//266 132//265
f 140//267 139//267 183//267
f 183//268 139//268 147//268
f 175//201 173//201 132//201
f 139//269 145//269 147//269
f 166//270 168//270 152//270
f 132//271 134//271 140//271
f 205//272 195//223 132//222
f 103//273 156//273 96//273
