# Blender v2.79 (sub 0) OBJ File: ''
# www.blender.org
mtllib crack_restart_keyway_95.mtl
o crack_restart_keyway_95
v 0.120406 -0.147382 -0.472461
v 0.120406 -0.147382 -0.457089
v 0.109392 -0.137401 -0.472461
v 0.072509 -0.113822 -0.446446
v 0.071571 -0.114303 -0.428916
v 0.071590 -0.114204 -0.433438
v 0.072776 -0.113459 -0.459453
v 0.087907 -0.123105 -0.472461
v 0.071677 -0.114389 -0.420431
v 0.074926 -0.118429 -0.408778
v 0.070860 -0.114788 -0.413927
v 0.120406 -0.147382 -0.257263
v 0.112272 -0.145898 -0.260183
v 0.120406 -0.147382 -0.264949
v 0.114420 -0.146557 -0.256446
v 0.120406 -0.147382 -0.248433
v 0.115787 -0.146827 -0.254571
v 0.120406 -0.147382 -0.272634
v 0.102488 -0.142029 -0.290191
v 0.120406 -0.147382 -0.280320
v 0.109068 -0.144849 -0.269764
v 0.120406 -0.147382 -0.288006
v 0.120406 -0.147382 -0.295691
v 0.120406 -0.147382 -0.303377
v 0.120406 -0.147382 -0.318748
v 0.100570 -0.135576 -0.432601
v 0.120406 -0.147382 -0.334119
v 0.120406 -0.147382 -0.349490
v 0.120406 -0.147382 -0.364862
v 0.120406 -0.147382 -0.380233
v 0.120406 -0.147382 -0.395604
v 0.120406 -0.147382 -0.410975
v 0.120406 -0.147382 -0.426347
v 0.120406 -0.147382 -0.441718
v 0.103036 -0.132809 -0.472461
v 0.073465 -0.113211 -0.469071
v 0.073579 -0.113063 -0.472461
v 0.079282 -0.117150 -0.472461
v 0.093490 -0.136116 -0.323948
v 0.091907 -0.134883 -0.330792
v 0.091045 -0.134234 -0.334105
v 0.089576 -0.133159 -0.340174
v 0.079235 -0.123170 -0.379232
v 0.094798 -0.137155 -0.318143
v 0.111078 -0.145434 -0.263849
v 0.098430 -0.139939 -0.303388
v 0.096743 -0.138847 -0.309880
v 0.095629 -0.137938 -0.314442
v 0.120406 -0.147382 -0.257263
v 0.120406 -0.147382 -0.264949
v 0.085028 -0.128819 -0.357683
v 0.085665 -0.129297 -0.354504
v 0.100570 -0.135576 -0.432601
v 0.083259 -0.127120 -0.364121
v 0.086747 -0.130443 -0.350351
v 0.077699 -0.121595 -0.384244
v 0.075302 -0.119109 -0.391390
v 0.076430 -0.120020 -0.388235
v 0.074926 -0.118429 -0.408778
v 0.073770 -0.118086 -0.394617
v 0.080981 -0.124944 -0.372980
v 0.082015 -0.125935 -0.368938
v 0.072332 -0.116659 -0.397743
v 0.071083 -0.114650 -0.400226
v 0.071206 -0.114445 -0.407423
v 0.071206 -0.114445 -0.407423
v 0.087750 -0.131753 -0.346995
v 0.120406 -0.147382 -0.472461
v 0.109392 -0.137401 -0.472461
v 0.120406 -0.147382 -0.457089
v 0.072509 -0.113822 -0.446446
v 0.071590 -0.114204 -0.433438
v 0.071571 -0.114303 -0.428916
v 0.087907 -0.123105 -0.472461
v 0.072776 -0.113459 -0.459453
v 0.071677 -0.114389 -0.420431
v 0.070860 -0.114788 -0.413927
v 0.120406 -0.147382 -0.272634
v 0.120406 -0.147382 -0.280320
v 0.120406 -0.147382 -0.288006
v 0.120406 -0.147382 -0.295691
v 0.120406 -0.147382 -0.303377
v 0.120406 -0.147382 -0.318748
v 0.120406 -0.147382 -0.334119
v 0.120406 -0.147382 -0.349490
v 0.120406 -0.147382 -0.364862
v 0.120406 -0.147382 -0.380233
v 0.120406 -0.147382 -0.395604
v 0.120406 -0.147382 -0.410975
v 0.120406 -0.147382 -0.426347
v 0.120406 -0.147382 -0.441718
v 0.103036 -0.132809 -0.472461
v 0.073465 -0.113211 -0.469071
v 0.079282 -0.117150 -0.472461
v 0.073579 -0.113063 -0.472461
vn -0.6715 -0.7410 0.0000
vn 0.1114 -0.9935 -0.0213
vn -0.5582 -0.8290 -0.0346
vn -0.5801 -0.8128 -0.0533
vn -0.5722 -0.8110 -0.1216
vn -0.1795 -0.9838 0.0000
vn -0.1479 -0.9850 -0.0887
vn -0.1193 -0.9929 0.0000
vn -0.1417 -0.9891 -0.0391
vn -0.2862 -0.9582 0.0000
vn -0.2319 -0.9709 -0.0593
vn -0.2180 -0.9759 0.0000
vn -0.5114 -0.8593 -0.0000
vn -0.5115 -0.8593 0.0000
vn -0.5397 -0.8370 -0.0904
vn -0.5525 -0.8304 -0.0716
vn 0.0000 0.0000 -1.0000
vn -0.5816 -0.8116 -0.0550
vn -0.5740 -0.8165 -0.0622
vn -0.5681 -0.8228 -0.0188
vn -0.5955 -0.8007 -0.0643
vn -0.5954 -0.8011 -0.0617
vn -0.5954 -0.8010 -0.0615
vn -0.5956 -0.8007 -0.0648
vn -0.7842 -0.6205 0.0035
vn -0.5094 -0.8597 -0.0375
vn -0.5097 -0.8595 -0.0375
vn -0.5067 -0.8613 -0.0373
vn -0.4903 -0.8708 -0.0356
vn -0.5059 -0.8618 -0.0372
vn -0.5838 -0.8107 -0.0449
vn -0.3713 -0.9280 -0.0315
vn -0.2073 -0.9779 -0.0263
vn -0.5135 -0.8572 -0.0377
vn -0.3595 -0.9310 -0.0632
vn -0.3466 -0.9371 -0.0418
vn -0.3708 -0.9219 -0.1118
vn 0.1795 0.9838 0.0000
vn 0.1479 0.9850 0.0887
vn -0.2103 -0.9761 -0.0550
vn 0.2103 0.9761 0.0550
vn -0.5078 -0.8610 -0.0277
vn 0.5078 0.8610 0.0277
vn -0.5911 -0.8050 -0.0500
vn -0.5866 -0.8084 -0.0484
vn -0.5852 -0.8095 -0.0478
vn 0.5911 0.8050 0.0500
vn 0.5852 0.8095 0.0478
vn 0.5866 0.8084 0.0484
vn -0.6187 -0.7837 -0.0551
vn 0.6187 0.7837 0.0551
vn -0.6915 -0.7222 -0.0150
vn -0.5964 -0.8025 -0.0185
vn 0.5964 0.8025 0.0185
vn -0.5227 -0.8522 -0.0220
vn 0.5227 0.8522 0.0220
vn -0.7917 -0.6109 0.0107
vn -0.6042 -0.7948 -0.0568
vn -0.5859 -0.8090 -0.0482
vn -0.5861 -0.8088 -0.0484
vn -0.6634 -0.7474 -0.0360
vn -0.7359 -0.6763 -0.0318
vn 0.7359 0.6763 0.0318
vn -0.7925 -0.6033 -0.0895
vn 0.7925 0.6033 0.0895
vn -0.7161 -0.6940 0.0747
vn 0.4903 0.8708 0.0356
vn 0.5062 0.8616 0.0372
vn 0.5067 0.8613 0.0373
vn 0.5094 0.8597 0.0375
vn 0.2073 0.9779 0.0263
vn 0.1417 0.9891 0.0391
vn -0.6943 -0.7161 -0.0720
vn 0.6943 0.7161 0.0720
vn 0.7917 0.6109 -0.0107
vn 0.6917 0.7220 0.0150
vn 0.6042 0.7948 0.0568
vn 0.5861 0.8088 0.0484
vn 0.5858 0.8090 0.0482
vn 0.1193 0.9929 0.0000
vn -0.5146 -0.8566 -0.0388
vn 0.5146 0.8566 0.0388
vn -0.3688 -0.9247 -0.0942
vn 0.5838 0.8107 0.0449
vn 0.6634 0.7474 0.0360
vn 0.6715 0.7410 0.0000
vn -0.1114 0.9935 0.0213
vn 0.5582 0.8290 0.0346
vn 0.5801 0.8128 0.0533
vn 0.5722 0.8110 0.1216
vn 0.2862 0.9582 0.0000
vn 0.2319 0.9709 0.0593
vn 0.2180 0.9759 0.0000
vn 0.5114 0.8593 0.0000
vn 0.5115 0.8593 0.0000
vn 0.5397 0.8370 0.0904
vn 0.5525 0.8304 0.0716
vn 0.0000 0.0000 1.0000
vn 0.5816 0.8116 0.0550
vn 0.5740 0.8165 0.0622
vn 0.5681 0.8228 0.0188
vn 0.5955 0.8007 0.0643
vn 0.5954 0.8010 0.0615
vn 0.5954 0.8011 0.0617
vn 0.5956 0.8007 0.0648
vn 0.7842 0.6205 -0.0035
vn 0.5097 0.8595 0.0375
vn 0.3713 0.9280 0.0315
vn 0.5135 0.8572 0.0377
vn 0.3595 0.9310 0.0632
vn 0.3466 0.9371 0.0418
vn 0.3708 0.9219 0.1118
vn 0.7161 0.6940 -0.0747
vn 0.3688 0.9247 0.0942
usemtl None.159
s 1
f 1//1 2//1 3//1
f 4//2 5//2 6//2
f 4//3 7//3 8//3
f 4//4 8//4 5//4
f 9//5 10//5 11//5
f 12//6 13//6 14//6
f 12//7 15//7 13//7
f 12//8 16//8 17//8
f 12//9 17//9 15//9
f 18//10 19//10 20//10
f 18//11 21//11 19//11
f 18//12 14//12 21//12
f 22//10 19//10 23//10
f 22//10 20//10 19//10
f 24//10 19//10 25//10
f 24//10 23//10 19//10
f 25//13 26//13 27//13
f 27//13 26//13 28//13
f 28//13 26//13 29//13
f 29//13 26//13 30//13
f 30//13 26//13 31//14
f 31//14 26//13 32//13
f 32//13 26//13 33//13
f 2//1 34//1 3//1
f 34//13 33//13 26//13
f 34//15 26//15 8//15
f 34//16 8//16 3//16
f 3//17 8//17 35//17
f 36//18 37//18 38//18
f 36//19 8//19 7//19
f 36//20 38//20 8//20
f 26//21 5//22 8//23
f 26//21 10//24 5//22
f 5//25 10//25 9//25
f 26//26 39//27 40//28
f 26//29 41//29 42//29
f 26//26 40//28 41//30
f 10//31 26//31 43//31
f 44//32 26//32 25//32
f 21//33 14//33 45//33
f 39//27 26//26 44//34
f 46//35 47//35 25//35
f 46//36 25//36 19//36
f 44//37 25//37 48//37
f 13//38 49//38 50//38
f 13//39 15//39 49//39
f 13//40 45//40 14//40
f 13//41 50//41 45//41
f 51//42 26//42 52//42
f 51//43 52//43 53//43
f 51//44 54//45 26//46
f 51//47 53//48 54//49
f 52//50 26//50 55//50
f 52//51 55//51 53//51
f 10//52 43//52 56//52
f 57//53 10//53 58//53
f 57//54 58//54 59//54
f 57//55 60//55 10//55
f 57//56 59//56 60//56
f 10//57 56//57 58//57
f 26//58 61//58 43//58
f 26//46 62//59 61//60
f 60//61 63//61 10//61
f 64//62 65//62 10//62
f 64//63 59//63 66//63
f 64//64 10//64 63//64
f 64//65 63//65 59//65
f 11//66 10//66 65//66
f 41//67 53//67 42//67
f 41//68 40//69 53//70
f 45//71 50//71 21//71
f 15//72 17//72 49//72
f 55//73 26//73 67//73
f 55//74 67//74 53//74
f 56//75 59//75 58//75
f 56//76 43//76 59//76
f 61//77 53//77 43//77
f 61//78 62//79 53//48
f 17//80 16//80 49//80
f 67//81 26//81 42//81
f 67//82 42//82 53//82
f 26//46 54//45 62//59
f 25//83 47//83 48//83
f 43//84 53//84 59//84
f 63//85 60//85 59//85
f 68//86 69//86 70//86
f 71//87 72//87 73//87
f 71//88 74//88 75//88
f 71//89 73//89 74//89
f 76//90 77//90 59//90
f 78//91 79//91 19//91
f 78//92 19//92 21//92
f 78//93 21//93 50//93
f 80//91 81//91 19//91
f 80//91 19//91 79//91
f 82//91 83//91 19//91
f 82//91 19//91 81//91
f 83//94 84//94 53//94
f 84//94 85//94 53//94
f 85//94 86//94 53//94
f 86//94 87//94 53//94
f 87//94 88//95 53//94
f 88//95 89//94 53//94
f 89//94 90//94 53//94
f 70//86 69//86 91//86
f 91//94 53//94 90//94
f 91//96 74//96 53//96
f 91//97 69//97 74//97
f 69//98 92//98 74//98
f 93//99 94//99 95//99
f 93//100 75//100 74//100
f 93//101 74//101 94//101
f 53//102 74//103 73//104
f 53//102 73//104 59//105
f 73//106 76//106 59//106
f 53//70 40//69 39//107
f 44//108 83//108 53//108
f 39//107 44//109 53//70
f 46//110 83//110 47//110
f 46//111 19//111 83//111
f 44//112 48//112 83//112
f 77//113 66//113 59//113
f 53//48 62//79 54//49
f 83//114 48//114 47//114
