# Blender v2.79 (sub 0) OBJ File: ''
# www.blender.org
mtllib crack_restart_keyway_25.mtl
o crack_restart_keyway_25
v 0.120406 -0.147382 -0.472461
v 0.120406 -0.147382 -0.457089
v 0.111050 -0.138056 -0.452456
v 0.115174 -0.142172 -0.472461
v 0.120406 -0.147382 -0.303377
v 0.114969 -0.146464 -0.305710
v 0.120406 -0.147382 -0.311062
v 0.117878 -0.146951 -0.298647
v 0.120406 -0.147382 -0.293082
v 0.120406 -0.147382 -0.318748
v 0.112190 -0.146088 -0.316909
v 0.120406 -0.147382 -0.326434
v 0.120406 -0.147382 -0.349490
v 0.104664 -0.143018 -0.353083
v 0.120406 -0.147382 -0.357176
v 0.105557 -0.143299 -0.348651
v 0.120406 -0.147382 -0.341805
v 0.120406 -0.147382 -0.364862
v 0.102626 -0.141720 -0.362680
v 0.098522 -0.138580 -0.395539
v 0.120406 -0.147382 -0.372547
v 0.120406 -0.147382 -0.380233
v 0.120406 -0.147382 -0.387919
v 0.120406 -0.147382 -0.395604
v 0.120406 -0.147382 -0.410975
v 0.120406 -0.147382 -0.426347
v 0.097002 -0.133985 -0.428459
v 0.120406 -0.147382 -0.441718
v 0.097169 -0.134984 -0.419539
v 0.098080 -0.137600 -0.401917
v 0.097233 -0.135868 -0.411281
v 0.109865 -0.137024 -0.472461
v 0.104926 -0.131579 -0.472461
v 0.096452 -0.131891 -0.440598
v 0.096553 -0.133180 -0.433874
v 0.096865 -0.131043 -0.446749
v 0.097432 -0.128571 -0.466129
v 0.097858 -0.128450 -0.472461
v 0.102453 -0.130328 -0.472461
v 0.102453 -0.130328 -0.472461
v 0.097049 -0.128967 -0.460189
v 0.111050 -0.138056 -0.452456
v 0.104926 -0.131579 -0.472461
v 0.096821 -0.129821 -0.453707
v 0.120406 -0.147382 -0.334119
v 0.107307 -0.144284 -0.339647
v 0.114107 -0.146348 -0.309315
v 0.109161 -0.145014 -0.332108
v 0.110220 -0.145653 -0.325410
v 0.120406 -0.147382 -0.334119
v 0.120406 -0.147382 -0.303377
v 0.120406 -0.147382 -0.311062
v 0.113481 -0.146265 -0.311933
v 0.112968 -0.146197 -0.314080
v 0.120406 -0.147382 -0.472461
v 0.120406 -0.147382 -0.457089
v 0.115174 -0.142172 -0.472461
v 0.120406 -0.147382 -0.318748
v 0.120406 -0.147382 -0.326434
v 0.120406 -0.147382 -0.349490
v 0.120406 -0.147382 -0.357176
v 0.120406 -0.147382 -0.341805
v 0.120406 -0.147382 -0.364862
v 0.120406 -0.147382 -0.372547
v 0.120406 -0.147382 -0.380233
v 0.120406 -0.147382 -0.387919
v 0.120406 -0.147382 -0.395604
v 0.120406 -0.147382 -0.410975
v 0.120406 -0.147382 -0.426347
v 0.120406 -0.147382 -0.441718
v 0.109865 -0.137024 -0.472461
vn -0.7057 -0.7085 0.0002
vn -0.7060 -0.7082 0.0000
vn -0.7001 -0.7140 0.0026
vn -0.6969 -0.7172 0.0038
vn -0.1676 -0.9859 0.0001
vn -0.1681 -0.9858 0.0005
vn -0.1604 -0.9870 0.0077
vn -0.1671 -0.9859 0.0005
vn -0.1681 -0.9858 0.0000
vn -0.1556 -0.9878 0.0000
vn -0.1552 -0.9879 -0.0011
vn -0.2657 -0.9640 -0.0048
vn -0.2668 -0.9638 -0.0013
vn -0.2671 -0.9637 0.0000
vn -0.2651 -0.9642 -0.0007
vn -0.2651 -0.9642 0.0000
vn -0.3034 -0.9529 0.0000
vn -0.3732 -0.9278 0.0000
vn -0.3088 -0.9497 -0.0522
vn -0.4968 -0.8679 0.0000
vn -0.7399 -0.6700 -0.0612
vn -0.6839 -0.7259 -0.0724
vn -0.6961 -0.7179 0.0042
vn -0.7407 -0.6718 0.0092
vn -0.4868 -0.8601 -0.1522
vn -0.4886 -0.8586 -0.1552
vn -0.4898 -0.8576 -0.1570
vn -0.4857 -0.8614 -0.1485
vn -0.5513 -0.8051 -0.2189
vn -0.5296 -0.8443 -0.0816
vn -0.3780 -0.9248 -0.0431
vn 0.3780 0.9248 0.0431
vn -0.5069 -0.8573 -0.0898
vn 0.5069 0.8573 0.0898
vn -0.4680 -0.8727 -0.1393
vn 0.4680 0.8727 0.1393
vn -0.4487 -0.8869 -0.1097
vn 0.4487 0.8869 0.1097
vn -0.4856 -0.8615 -0.1482
vn -0.4880 -0.8630 -0.1309
vn 0.4880 0.8630 0.1309
vn 0.4856 0.8615 0.1482
vn 0.4857 0.8614 0.1485
vn 0.4886 0.8586 0.1552
vn -0.4013 -0.9159 -0.0000
vn -0.4352 -0.8939 -0.1072
vn -0.4877 -0.8675 -0.0983
vn -0.2832 -0.9566 -0.0692
vn -0.2026 -0.9769 -0.0675
vn -0.1602 -0.9871 0.0068
vn -0.2131 -0.9761 -0.0421
vn -0.2158 -0.9747 -0.0589
vn 0.2158 0.9747 0.0589
vn 0.2131 0.9761 0.0421
vn 0.1681 0.9858 -0.0005
vn 0.1677 0.9858 -0.0000
vn 0.1604 0.9870 -0.0077
vn 0.1602 0.9871 -0.0068
vn 0.1670 0.9859 -0.0006
vn -0.1601 -0.9871 0.0070
vn 0.1601 0.9871 -0.0070
vn -0.1600 -0.9871 0.0066
vn -0.1754 -0.9844 -0.0097
vn 0.1754 0.9844 0.0097
vn 0.1552 0.9879 0.0010
vn 0.1601 0.9871 -0.0068
vn 0.2026 0.9769 0.0675
vn 0.1681 0.9858 0.0000
vn 0.7060 0.7082 0.0000
vn 0.7056 0.7086 -0.0003
vn 0.6969 0.7172 -0.0038
vn 0.7052 0.7091 -0.0003
vn 0.1556 0.9878 0.0000
vn 0.2657 0.9640 0.0048
vn 0.2671 0.9637 0.0000
vn 0.2668 0.9638 0.0013
vn 0.2651 0.9642 0.0007
vn 0.2651 0.9642 0.0000
vn 0.3034 0.9529 0.0000
vn 0.3732 0.9278 0.0000
vn 0.3088 0.9497 0.0522
vn 0.4968 0.8679 0.0000
vn 0.6961 0.7179 -0.0042
vn 0.7407 0.6718 -0.0092
vn 0.4868 0.8601 0.1522
vn 0.4898 0.8576 0.1570
vn 0.5513 0.8051 0.2189
vn 0.5296 0.8443 0.0816
vn 0.4013 0.9159 0.0000
vn 0.4352 0.8939 0.1072
vn 0.4877 0.8675 0.0983
vn 0.2832 0.9566 0.0692
usemtl None.034
s 1
f 1//1 2//2 3//3
f 1//1 3//3 4//4
f 5//5 6//6 7//7
f 5//5 8//8 6//6
f 5//5 9//9 8//8
f 10//10 11//11 12//10
f 10//10 7//7 11//11
f 13//12 14//13 15//14
f 13//12 16//15 14//13
f 13//12 17//16 16//15
f 18//17 15//17 19//17
f 18//18 20//18 21//18
f 18//19 19//19 20//19
f 22//18 20//18 23//18
f 22//18 21//18 20//18
f 24//18 20//18 25//18
f 24//18 23//18 20//18
f 26//20 27//20 28//20
f 28//2 3//3 2//2
f 29//21 27//21 30//21
f 29//22 30//22 31//22
f 3//3 32//23 4//4
f 3//24 33//24 32//24
f 34//25 3//26 35//27
f 34//25 36//28 3//26
f 35//29 3//29 28//29
f 35//30 28//30 27//30
f 37//31 38//31 39//31
f 37//32 40//32 38//32
f 37//33 3//33 41//33
f 37//34 41//34 42//34
f 37//35 33//35 3//35
f 37//36 42//36 43//36
f 37//37 39//37 33//37
f 37//38 43//38 40//38
f 3//26 36//28 44//39
f 44//40 41//40 3//40
f 44//41 42//41 41//41
f 44//42 36//43 42//44
f 25//45 30//45 26//45
f 25//46 20//46 30//46
f 26//47 30//47 27//47
f 15//48 14//48 19//48
f 16//15 17//16 45//16
f 16//49 45//49 46//49
f 12//10 11//11 45//10
f 7//7 6//6 47//50
f 45//51 48//51 46//51
f 48//52 45//52 49//52
f 48//53 49//53 50//53
f 48//54 50//54 46//54
f 6//55 51//56 52//57
f 6//55 52//57 47//58
f 6//55 8//59 51//56
f 47//50 53//60 7//7
f 47//58 52//57 53//61
f 7//7 53//60 54//62
f 7//7 54//62 11//11
f 45//63 11//63 49//63
f 49//64 11//64 50//64
f 11//65 54//66 52//57
f 46//67 50//67 16//67
f 53//61 52//57 54//66
f 8//59 9//68 51//56
f 55//69 42//69 56//69
f 55//70 57//71 42//72
f 58//73 59//73 11//65
f 58//73 11//65 52//57
f 60//74 61//75 14//76
f 60//74 14//76 16//77
f 60//74 16//77 62//78
f 63//79 19//79 61//79
f 63//80 64//80 20//80
f 63//81 20//81 19//81
f 65//80 66//80 20//80
f 65//80 20//80 64//80
f 67//80 68//80 20//80
f 67//80 20//80 66//80
f 69//82 70//82 27//82
f 70//69 56//69 42//69
f 42//72 57//71 71//83
f 42//84 71//84 43//84
f 34//85 35//86 42//44
f 34//85 42//44 36//43
f 35//87 70//87 42//87
f 35//88 27//88 70//88
f 68//89 69//89 30//89
f 68//90 30//90 20//90
f 69//91 27//91 30//91
f 61//92 19//92 14//92
f 16//77 50//78 62//78
f 59//73 50//73 11//65
