# Blender v2.79 (sub 0) OBJ File: ''
# www.blender.org
mtllib crack_restart_keyway_745.mtl
o crack_restart_keyway_745
v 0.073335 -0.113236 -0.472461
v 0.072920 -0.113368 -0.459453
v 0.084641 -0.121403 -0.472461
v 0.147223 -0.162040 -0.087635
v 0.131699 -0.162439 -0.053276
v 0.152185 -0.169041 -0.080796
v 0.150729 -0.164626 -0.087295
v 0.143382 -0.159202 -0.088100
v 0.131068 -0.149873 -0.089874
v 0.127515 -0.150651 -0.086841
v 0.135370 -0.153076 -0.089182
v 0.126540 -0.147825 -0.091832
v 0.154210 -0.167189 -0.086931
v 0.139595 -0.156317 -0.088611
v 0.120406 -0.147382 -0.457089
v 0.095792 -0.129481 -0.472461
v 0.120406 -0.147382 -0.103551
v 0.106718 -0.141464 -0.120715
v 0.120866 -0.146923 -0.098614
v 0.120406 -0.147382 -0.118922
v 0.120406 -0.147382 -0.472461
v 0.108106 -0.138426 -0.472461
v 0.085200 -0.104257 0.316371
v 0.086051 -0.101884 0.342386
v 0.093108 -0.108209 0.364965
v 0.080057 -0.106278 0.242956
v 0.082243 -0.104232 0.282081
v 0.074037 -0.112738 -0.186296
v 0.074378 -0.112452 -0.173289
v 0.074023 -0.112676 -0.199304
v 0.073578 -0.113063 -0.238326
v 0.073853 -0.112782 -0.225319
v 0.104171 -0.140677 -0.280927
v 0.073189 -0.113200 -0.251334
v 0.070686 -0.114937 -0.394416
v 0.069845 -0.115301 -0.381408
v 0.090632 -0.132125 -0.376755
v 0.070969 -0.114594 -0.407423
v 0.072136 -0.114086 -0.290356
v 0.071380 -0.114336 -0.303364
v 0.072585 -0.113579 -0.277349
v 0.072587 -0.113767 -0.446446
v 0.071900 -0.114010 -0.433438
v 0.074618 -0.112082 -0.081618
v 0.071784 -0.111103 -0.054992
v 0.097195 -0.134214 -0.055474
v 0.075646 -0.111559 -0.096625
v 0.071568 -0.114449 -0.420431
v 0.070452 -0.115066 -0.368401
v 0.070383 -0.114962 -0.355393
v 0.073094 -0.113407 -0.264341
v 0.074589 -0.112346 -0.160281
v 0.074819 -0.112175 -0.147274
v 0.076233 -0.111287 -0.121259
v 0.076167 -0.111226 -0.108252
v 0.071656 -0.114401 -0.316371
v 0.071550 -0.114229 -0.329378
v 0.139028 -0.179695 0.257906
v 0.142427 -0.175382 0.305017
v 0.146868 -0.173649 -0.061407
v 0.148180 -0.172557 -0.068127
v 0.150307 -0.170708 -0.074791
v 0.114631 -0.144474 -0.094849
v 0.122213 -0.145575 -0.094013
v 0.115972 -0.144842 -0.090500
v 0.120406 -0.147382 -0.134293
v 0.120406 -0.147382 -0.149664
v 0.120406 -0.147382 -0.165036
v 0.120406 -0.147382 -0.180407
v 0.120406 -0.147382 -0.195778
v 0.120406 -0.147382 -0.211149
v 0.120406 -0.147382 -0.241892
v 0.120406 -0.147382 -0.257263
v 0.120406 -0.147382 -0.272634
v 0.120406 -0.147382 -0.288006
v 0.120406 -0.147382 -0.303377
v 0.120406 -0.147382 -0.349490
v 0.120406 -0.147382 -0.334119
v 0.120406 -0.147382 -0.364862
v 0.120406 -0.147382 -0.380233
v 0.120406 -0.147382 -0.395604
v 0.120406 -0.147382 -0.410975
v 0.120406 -0.147382 -0.426347
v 0.142391 -0.176155 -0.008629
v 0.143874 -0.174853 -0.027850
v 0.145078 -0.174502 -0.039953
v 0.072336 -0.112983 -0.026278
v 0.146128 -0.174151 -0.051143
v 0.074028 -0.112744 -0.212311
v 0.120406 -0.147382 -0.226521
v 0.120406 -0.147382 -0.441718
v 0.103584 -0.135139 -0.472461
v 0.071824 -0.114308 -0.342386
v 0.120406 -0.147382 -0.318748
v 0.075305 -0.111982 -0.141458
v 0.075634 -0.111605 -0.134267
v 0.146885 -0.172160 0.358596
v 0.144512 -0.173913 0.327808
v 0.105850 -0.121579 0.374735
v 0.148631 -0.170679 0.382559
v 0.134193 -0.151891 0.391583
v 0.149637 -0.169888 0.395889
v 0.146885 -0.172160 0.358596
v 0.148631 -0.170679 0.382559
v 0.118914 -0.135505 0.383289
v 0.070371 -0.112188 -0.001446
v 0.071499 -0.113510 0.025190
v 0.070074 -0.112464 0.052171
v 0.071371 -0.113592 0.079124
v 0.070313 -0.112222 0.106112
v 0.087536 -0.129429 0.125646
v 0.073112 -0.112495 0.129150
v 0.073653 -0.109610 0.159331
v 0.078035 -0.109403 0.199598
v 0.078539 -0.108259 0.212311
v 0.143263 -0.174797 0.314067
v 0.136147 -0.181175 0.194831
v 0.135091 -0.181644 0.160033
v 0.135050 -0.181832 0.139548
v 0.135280 -0.181369 0.111262
v 0.136196 -0.181009 0.087242
v 0.137186 -0.179972 0.063600
v 0.139001 -0.178996 0.037302
v 0.140469 -0.177683 0.016772
v 0.086175 -0.100401 0.359005
v 0.086051 -0.101884 0.342386
v 0.073335 -0.113236 -0.472461
v 0.084641 -0.121403 -0.472461
v 0.072920 -0.113368 -0.459453
v 0.147223 -0.162040 -0.087635
v 0.152185 -0.169041 -0.080796
v 0.131699 -0.162439 -0.053276
v 0.150729 -0.164626 -0.087295
v 0.143382 -0.159202 -0.088100
v 0.131068 -0.149873 -0.089874
v 0.135370 -0.153076 -0.089182
v 0.127515 -0.150651 -0.086841
v 0.126540 -0.147825 -0.091832
v 0.154210 -0.167189 -0.086931
v 0.139595 -0.156317 -0.088611
v 0.120406 -0.147382 -0.457089
v 0.095792 -0.129481 -0.472461
v 0.120406 -0.147382 -0.103551
v 0.120866 -0.146923 -0.098614
v 0.106718 -0.141464 -0.120715
v 0.120406 -0.147382 -0.118922
v 0.120406 -0.147382 -0.472461
v 0.108106 -0.138426 -0.472461
v 0.085200 -0.104257 0.316371
v 0.080057 -0.106278 0.242956
v 0.082243 -0.104232 0.282081
v 0.074037 -0.112738 -0.186296
v 0.074378 -0.112452 -0.173289
v 0.074023 -0.112676 -0.199304
v 0.073578 -0.113063 -0.238326
v 0.104171 -0.140677 -0.280927
v 0.073853 -0.112782 -0.225319
v 0.073189 -0.113200 -0.251334
v 0.070686 -0.114937 -0.394416
v 0.090632 -0.132125 -0.376755
v 0.069845 -0.115301 -0.381408
v 0.070969 -0.114594 -0.407423
v 0.072136 -0.114086 -0.290356
v 0.071380 -0.114336 -0.303364
v 0.072585 -0.113579 -0.277349
v 0.072587 -0.113767 -0.446446
v 0.071900 -0.114010 -0.433438
v 0.074618 -0.112082 -0.081618
v 0.097195 -0.134214 -0.055474
v 0.071784 -0.111103 -0.054992
v 0.075646 -0.111559 -0.096625
v 0.071568 -0.114449 -0.420431
v 0.070452 -0.115066 -0.368401
v 0.070383 -0.114962 -0.355393
v 0.073094 -0.113407 -0.264341
v 0.074589 -0.112346 -0.160281
v 0.074819 -0.112175 -0.147274
v 0.076233 -0.111287 -0.121259
v 0.076167 -0.111226 -0.108252
v 0.071656 -0.114401 -0.316371
v 0.071550 -0.114229 -0.329378
v 0.139028 -0.179695 0.257906
v 0.142427 -0.175382 0.305017
v 0.146868 -0.173649 -0.061407
v 0.148180 -0.172557 -0.068127
v 0.150307 -0.170708 -0.074791
v 0.122213 -0.145575 -0.094013
v 0.114631 -0.144474 -0.094849
v 0.115972 -0.144842 -0.090500
v 0.120406 -0.147382 -0.134293
v 0.120406 -0.147382 -0.149664
v 0.120406 -0.147382 -0.165036
v 0.120406 -0.147382 -0.180407
v 0.120406 -0.147382 -0.195778
v 0.120406 -0.147382 -0.211149
v 0.120406 -0.147382 -0.241892
v 0.120406 -0.147382 -0.257263
v 0.120406 -0.147382 -0.272634
v 0.120406 -0.147382 -0.288006
v 0.120406 -0.147382 -0.303377
v 0.120406 -0.147382 -0.349490
v 0.120406 -0.147382 -0.334119
v 0.120406 -0.147382 -0.364862
v 0.120406 -0.147382 -0.380233
v 0.120406 -0.147382 -0.395604
v 0.120406 -0.147382 -0.410975
v 0.120406 -0.147382 -0.426347
v 0.143874 -0.174853 -0.027850
v 0.142391 -0.176155 -0.008629
v 0.145078 -0.174502 -0.039953
v 0.072336 -0.112983 -0.026278
v 0.146128 -0.174151 -0.051143
v 0.074028 -0.112744 -0.212311
v 0.120406 -0.147382 -0.226521
v 0.120406 -0.147382 -0.441718
v 0.103584 -0.135139 -0.472461
v 0.071824 -0.114308 -0.342386
v 0.120406 -0.147382 -0.318748
v 0.075305 -0.111982 -0.141458
v 0.075634 -0.111605 -0.134267
v 0.144512 -0.173913 0.327808
v 0.070371 -0.112188 -0.001446
v 0.071499 -0.113510 0.025190
v 0.070074 -0.112464 0.052171
v 0.071371 -0.113592 0.079124
v 0.087536 -0.129429 0.125646
v 0.070313 -0.112222 0.106112
v 0.073112 -0.112495 0.129150
v 0.073653 -0.109610 0.159331
v 0.078035 -0.109403 0.199598
v 0.078539 -0.108259 0.212311
v 0.143263 -0.174797 0.314067
v 0.136147 -0.181175 0.194831
v 0.135091 -0.181644 0.160033
v 0.135050 -0.181832 0.139548
v 0.135280 -0.181369 0.111262
v 0.136196 -0.181009 0.087242
v 0.137186 -0.179972 0.063600
v 0.139001 -0.178996 0.037302
v 0.140469 -0.177683 0.016772
vn -0.5854 -0.8103 -0.0269
vn -0.5854 -0.8105 -0.0211
vn -0.5834 -0.8118 -0.0243
vn -0.6238 -0.7257 -0.2903
vn -0.5194 -0.7564 -0.3975
vn -0.5174 -0.7582 -0.3968
vn -0.5191 -0.7564 -0.3980
vn -0.5534 -0.7915 -0.2592
vn -0.3943 -0.6663 -0.6329
vn -0.1969 -0.8691 -0.4537
vn -0.5162 -0.7578 -0.3991
vn -0.5623 -0.7845 -0.2616
vn -0.5637 -0.7834 -0.2617
vn -0.5636 -0.7835 -0.2617
vn -0.5815 -0.8133 -0.0216
vn -0.5867 -0.8098 -0.0037
vn -0.5874 -0.8093 -0.0047
vn -0.5867 -0.8098 -0.0012
vn -0.5236 -0.8424 0.1271
vn -0.3968 -0.9179 0.0000
vn -0.5886 -0.8084 0.0000
vn -0.5884 -0.8086 -0.0009
vn -0.7960 -0.5999 0.0808
vn -0.7595 -0.6466 0.0710
vn -0.7597 -0.6465 0.0708
vn -0.7599 -0.6461 0.0711
vn -0.8652 -0.4960 0.0742
vn -0.8656 -0.4951 0.0743
vn -0.6975 -0.7158 0.0340
vn -0.6569 -0.7540 -0.0029
vn -0.6457 -0.7631 0.0279
vn -0.6470 -0.7619 0.0294
vn -0.6463 -0.7625 0.0301
vn -0.6473 -0.7620 0.0184
vn -0.6195 -0.7826 -0.0620
vn -0.6349 -0.7719 -0.0342
vn -0.6306 -0.7753 -0.0348
vn -0.6321 -0.7740 -0.0376
vn -0.6469 -0.7608 0.0521
vn -0.6469 -0.7608 0.0522
vn -0.6468 -0.7608 0.0520
vn -0.5816 -0.8125 -0.0401
vn -0.5807 -0.8130 -0.0426
vn -0.5799 -0.8134 -0.0455
vn -0.5805 -0.8133 -0.0398
vn -0.6726 -0.7386 -0.0444
vn -0.6727 -0.7388 -0.0399
vn -0.6721 -0.7391 -0.0443
vn -0.6551 -0.7522 -0.0711
vn -0.5802 -0.8134 -0.0423
vn -0.6449 -0.7642 0.0027
vn -0.6344 -0.7718 0.0435
vn -0.6544 -0.7560 0.0168
vn -0.6484 -0.7605 0.0354
vn -0.6819 -0.7312 0.0208
vn -0.6831 -0.7301 0.0173
vn -0.6859 -0.7274 0.0217
vn -0.6829 -0.7303 0.0170
vn -0.7372 -0.6757 -0.0006
vn -0.6257 -0.7800 -0.0086
vn -0.6213 -0.7836 -0.0059
vn -0.6250 -0.7806 -0.0070
vn -0.6224 -0.7827 -0.0093
vn -0.7857 -0.6083 0.1124
vn -0.7856 -0.6084 0.1121
vn -0.7856 -0.6087 0.1111
vn -0.6576 -0.7127 -0.2442
vn -0.7106 -0.5860 -0.3894
vn -0.7089 -0.5904 -0.3858
vn -0.7064 -0.5916 -0.3887
vn -0.7085 -0.5910 -0.3856
vn -0.1708 -0.9310 0.3227
vn -0.3640 -0.9314 0.0030
vn -0.2949 -0.8940 -0.3373
vn -0.1392 -0.9894 -0.0408
vn -0.5991 -0.8007 0.0000
vn -0.5665 -0.8215 -0.0653
vn -0.3817 -0.9243 0.0000
vn -0.4560 -0.8900 0.0000
vn -0.6002 -0.7936 -0.1001
vn -0.6203 -0.7798 -0.0841
vn -0.6195 -0.7806 -0.0829
vn -0.6197 -0.7803 -0.0843
vn -0.6577 -0.7497 -0.0728
vn -0.6339 -0.7731 0.0225
vn -0.5649 -0.7825 -0.2618
vn -0.6206 -0.7797 -0.0829
vn -0.6206 -0.7797 -0.0828
vn -0.5582 -0.8247 0.0905
vn -0.9499 -0.3123 0.0087
vn -0.2941 -0.9061 -0.3041
vn -0.3565 -0.8945 -0.2697
vn -0.4170 -0.9074 0.0518
vn -0.4494 -0.8927 0.0336
vn -0.6316 -0.7744 -0.0377
vn -0.5918 -0.8033 -0.0668
vn -0.7031 -0.7107 -0.0237
vn -0.5984 -0.8012 0.0000
vn -0.5967 -0.8025 0.0019
vn -0.6002 -0.7998 0.0011
vn -0.5984 -0.8012 0.0040
vn -0.5878 -0.8090 -0.0016
vn -0.5765 -0.8104 0.1046
vn -0.5720 -0.8131 0.1085
vn -0.5628 -0.8266 0.0000
vn -0.6222 -0.7828 -0.0084
vn -0.6261 -0.7732 -0.1010
vn -0.6754 -0.7357 -0.0513
vn -0.6728 -0.7390 -0.0355
vn -0.7104 -0.6989 0.0826
vn -0.9988 -0.0149 0.0465
vn -0.9988 -0.0149 0.0463
vn -0.9989 -0.0064 0.0461
vn -0.7029 -0.7090 0.0567
vn -0.6659 -0.7460 0.0111
vn -0.7776 -0.6215 0.0953
vn -0.7563 -0.6462 0.1021
vn -0.7563 -0.6461 0.1027
vn -0.7560 -0.6465 0.1021
vn -0.7667 -0.6349 0.0953
vn -0.7667 -0.6349 0.0951
vn -0.7666 -0.6350 0.0955
vn 0.7667 0.6349 -0.0953
vn 0.7667 0.6349 -0.0951
vn 0.7666 0.6350 -0.0955
vn -0.7538 -0.6481 0.1082
vn -0.7535 -0.6493 0.1033
vn 0.7538 0.6481 -0.1082
vn 0.7563 0.6461 -0.1027
vn 0.7535 0.6493 -0.1033
vn -0.6645 -0.7472 -0.0089
vn -0.6642 -0.7475 -0.0076
vn -0.6638 -0.7479 -0.0087
vn -0.6654 -0.7459 -0.0288
vn -0.6638 -0.7479 -0.0061
vn -0.7039 -0.7102 0.0070
vn -0.7078 -0.7064 0.0039
vn -0.7112 -0.7030 0.0078
vn -0.7062 -0.7080 0.0044
vn -0.7500 -0.6561 0.0834
vn -0.7514 -0.6542 0.0861
vn -0.7508 -0.6553 0.0831
vn -0.7404 -0.6676 0.0779
vn -0.7431 -0.6638 0.0843
vn -0.7294 -0.6782 0.0899
vn -0.7848 -0.6096 0.1116
vn -0.7851 -0.6095 0.1106
vn -0.7492 -0.6615 0.0317
vn -0.7418 -0.6706 0.0076
vn -0.7385 -0.6741 -0.0170
vn -0.7409 -0.6705 -0.0383
vn -0.7481 -0.6608 -0.0603
vn -0.9936 0.0921 -0.0652
vn -0.7019 -0.7058 -0.0956
vn -0.7609 -0.6433 -0.0848
vn -0.6815 -0.7318 -0.0070
vn -0.7582 -0.6472 0.0794
vn -0.7604 -0.6476 0.0499
vn -0.7847 -0.6157 0.0715
vn -0.5005 -0.8593 -0.1053
vn -0.7695 -0.6356 0.0625
vn 0.7695 0.6356 -0.0625
vn 0.5854 0.8103 0.0269
vn 0.6238 0.7257 0.2903
vn 0.5194 0.7564 0.3975
vn 0.5534 0.7915 0.2592
vn 0.5623 0.7850 0.2599
vn 0.5579 0.7880 0.2604
vn 0.3943 0.6663 0.6329
vn 0.1969 0.8691 0.4537
vn 0.5162 0.7578 0.3991
vn 0.5623 0.7845 0.2616
vn 0.5815 0.8133 0.0216
vn 0.5867 0.8098 0.0037
vn 0.5866 0.8099 0.0027
vn 0.5874 0.8093 0.0047
vn 0.5236 0.8424 -0.1271
vn 0.3968 0.9179 0.0000
vn 0.5886 0.8084 0.0000
vn 0.7960 0.5999 -0.0808
vn 0.7595 0.6466 -0.0710
vn 0.7599 0.6461 -0.0711
vn 0.7597 0.6465 -0.0708
vn 0.8652 0.4960 -0.0742
vn 0.8656 0.4951 -0.0743
vn 0.6975 0.7158 -0.0340
vn 0.6569 0.7540 0.0029
vn 0.6463 0.7625 -0.0301
vn 0.6485 0.7607 -0.0274
vn 0.6491 0.7602 -0.0269
vn 0.6473 0.7620 -0.0185
vn 0.6195 0.7826 0.0620
vn 0.6349 0.7719 0.0342
vn 0.6321 0.7740 0.0376
vn 0.6306 0.7753 0.0348
vn 0.6469 0.7608 -0.0521
vn 0.6469 0.7608 -0.0522
vn 0.6468 0.7608 -0.0520
vn 0.5816 0.8125 0.0401
vn 0.5799 0.8134 0.0455
vn 0.5807 0.8130 0.0426
vn 0.5805 0.8133 0.0398
vn 0.6726 0.7386 0.0444
vn 0.6721 0.7391 0.0442
vn 0.6727 0.7388 0.0399
vn 0.6551 0.7522 0.0711
vn 0.5802 0.8134 0.0423
vn 0.6449 0.7642 -0.0027
vn 0.6344 0.7718 -0.0435
vn 0.6544 0.7560 -0.0168
vn 0.6484 0.7605 -0.0354
vn 0.6819 0.7311 -0.0208
vn 0.6859 0.7274 -0.0217
vn 0.6831 0.7301 -0.0173
vn 0.6829 0.7303 -0.0170
vn 0.7372 0.6757 0.0006
vn 0.6257 0.7800 0.0086
vn 0.6250 0.7806 0.0070
vn 0.6213 0.7836 0.0059
vn 0.6224 0.7827 0.0093
vn 0.7857 0.6083 -0.1124
vn 0.7856 0.6087 -0.1111
vn 0.7856 0.6084 -0.1121
vn 0.6576 0.7127 0.2442
vn 0.7106 0.5860 0.3894
vn 0.7064 0.5916 0.3887
vn 0.7089 0.5904 0.3858
vn 0.7085 0.5910 0.3856
vn 0.1708 0.9310 -0.3227
vn 0.3640 0.9314 -0.0030
vn 0.2949 0.8940 0.3373
vn 0.1392 0.9894 0.0408
vn 0.5991 0.8007 0.0000
vn 0.6000 0.8000 -0.0010
vn 0.5665 0.8215 0.0653
vn 0.5971 0.8021 -0.0010
vn 0.3817 0.9243 0.0000
vn 0.4560 0.8900 0.0000
vn 0.6002 0.7936 0.1001
vn 0.6203 0.7798 0.0839
vn 0.6197 0.7803 0.0843
vn 0.6195 0.7806 0.0829
vn 0.6577 0.7497 0.0728
vn 0.6339 0.7731 -0.0225
vn 0.5649 0.7825 0.2618
vn 0.6206 0.7797 0.0828
vn 0.6206 0.7797 0.0829
vn 0.5582 0.8247 -0.0905
vn 0.9499 0.3123 -0.0087
vn 0.2941 0.9061 0.3041
vn 0.3565 0.8945 0.2697
vn 0.4170 0.9074 -0.0518
vn 0.4494 0.8927 -0.0336
vn 0.6316 0.7744 0.0377
vn 0.5918 0.8033 0.0668
vn 0.7031 0.7107 0.0237
vn 0.5984 0.8012 0.0000
vn 0.5984 0.8012 -0.0040
vn 0.5880 0.8089 0.0008
vn 0.5878 0.8090 0.0016
vn 0.5754 0.8112 -0.1042
vn 0.5756 0.8104 -0.1094
vn 0.5765 0.8104 -0.1046
vn 0.5720 0.8131 -0.1085
vn 0.5628 0.8266 0.0000
vn 0.6222 0.7828 0.0084
vn 0.6261 0.7732 0.1010
vn 0.6754 0.7357 0.0513
vn 0.6728 0.7390 0.0355
vn 0.7104 0.6989 -0.0826
vn 0.9988 0.0149 -0.0465
vn 0.9989 0.0064 -0.0461
vn 0.9988 0.0149 -0.0463
vn 0.7029 0.7090 -0.0567
vn 0.6659 0.7460 -0.0111
vn 0.7776 0.6215 -0.0953
vn 0.7563 0.6462 -0.1021
vn 0.7560 0.6465 -0.1021
vn 0.6645 0.7472 0.0089
vn 0.6638 0.7479 0.0087
vn 0.6642 0.7475 0.0076
vn 0.6654 0.7459 0.0288
vn 0.6638 0.7479 0.0061
vn 0.7039 0.7102 -0.0070
vn 0.7112 0.7030 -0.0078
vn 0.7078 0.7064 -0.0039
vn 0.7062 0.7080 -0.0044
vn 0.7500 0.6561 -0.0834
vn 0.7508 0.6553 -0.0831
vn 0.7514 0.6542 -0.0861
vn 0.7405 0.6676 -0.0779
vn 0.7431 0.6638 -0.0843
vn 0.7294 0.6782 -0.0899
vn 0.7851 0.6095 -0.1106
vn 0.7848 0.6096 -0.1116
vn 0.7492 0.6615 -0.0317
vn 0.7418 0.6706 -0.0076
vn 0.7385 0.6741 0.0170
vn 0.7409 0.6705 0.0383
vn 0.7481 0.6608 0.0603
vn 0.9936 -0.0921 0.0652
vn 0.7019 0.7058 0.0956
vn 0.7609 0.6433 0.0848
vn 0.6815 0.7318 0.0070
vn 0.7582 0.6472 -0.0794
vn 0.7604 0.6476 -0.0499
vn 0.7847 0.6157 -0.0715
vn 0.5005 0.8593 0.1053
usemtl None.144
s 1
f 1//1 3//2 2//3
f 4//4 6//4 5//4
f 4//5 7//6 6//7
f 4//8 5//8 8//8
f 9//9 11//9 10//9
f 9//10 10//10 12//10
f 7//6 13//11 6//7
f 8//12 5//13 14//14
f 3//2 15//15 2//3
f 3//16 16//17 15//18
f 17//19 19//19 18//19
f 17//20 18//20 20//20
f 21//21 15//18 22//22
f 23//23 25//23 24//23
f 23//24 26//25 25//26
f 23//27 27//28 26//27
f 28//29 18//29 29//29
f 28//30 30//30 18//30
f 31//31 33//32 32//33
f 31//31 34//34 33//32
f 35//35 37//35 36//35
f 35//36 38//37 37//38
f 39//39 40//40 33//39
f 39//39 33//39 41//41
f 42//42 15//43 43//44
f 42//42 2//45 15//43
f 44//46 46//47 45//48
f 44//49 47//49 46//49
f 48//50 43//44 15//43
f 49//51 37//51 50//51
f 49//52 36//52 37//52
f 51//53 33//32 34//34
f 51//54 41//54 33//54
f 52//55 18//56 53//57
f 52//55 29//58 18//56
f 54//59 46//59 55//59
f 56//60 57//61 33//62
f 56//60 33//62 40//63
f 58//64 59//65 26//66
f 60//67 5//67 61//67
f 61//68 5//69 62//70
f 62//70 5//69 6//71
f 19//72 64//72 63//72
f 19//73 63//73 18//73
f 64//74 12//74 65//74
f 64//75 65//75 63//75
f 20//20 18//20 66//20
f 66//20 18//20 67//20
f 68//76 30//76 69//76
f 68//20 67//20 18//20
f 68//77 18//77 30//77
f 69//76 30//76 70//76
f 70//76 30//76 71//76
f 72//78 33//78 73//78
f 73//78 33//78 74//78
f 74//78 33//78 75//78
f 75//78 33//78 76//78
f 77//79 78//79 37//79
f 77//79 37//79 79//79
f 79//79 37//79 80//79
f 80//79 37//79 81//79
f 81//79 37//79 82//79
f 82//79 37//79 83//79
f 5//80 85//80 84//80
f 5//81 86//82 85//83
f 5//84 84//84 87//84
f 5//85 87//85 46//85
f 14//14 5//13 11//86
f 5//81 60//87 88//88
f 5//81 88//88 86//82
f 89//89 33//89 72//89
f 5//90 12//90 10//90
f 12//91 5//91 65//91
f 5//92 10//92 11//92
f 65//93 46//93 63//93
f 18//94 63//94 46//94
f 48//95 37//38 38//37
f 48//96 15//96 37//96
f 46//97 54//97 18//97
f 90//98 89//99 72//98
f 90//98 71//100 89//99
f 91//79 83//79 37//79
f 91//79 37//79 15//79
f 71//100 30//101 89//99
f 15//18 92//102 22//22
f 15//18 16//17 92//102
f 93//103 50//103 37//103
f 78//104 93//104 37//104
f 78//105 94//105 93//105
f 57//61 93//106 33//62
f 65//107 5//107 46//107
f 46//108 47//108 55//108
f 46//47 87//109 45//48
f 95//110 53//110 18//110
f 95//111 54//112 96//113
f 95//114 18//114 54//114
f 32//115 33//115 89//115
f 97//116 26//116 98//116
f 26//25 97//26 25//26
f 25//117 97//118 99//119
f 100//120 101//120 97//121
f 100//120 102//122 101//120
f 101//123 104//123 103//124
f 101//123 102//125 104//123
f 101//126 105//127 97//118
f 101//128 103//129 105//130
f 106//131 84//132 107//133
f 106//134 87//134 84//134
f 107//133 84//132 108//135
f 109//136 111//137 110//138
f 109//136 108//139 111//137
f 110//140 111//141 112//142
f 112//142 111//141 113//143
f 113//143 111//141 114//144
f 114//145 111//145 115//145
f 26//66 116//146 98//147
f 116//146 26//66 59//65
f 117//148 111//148 118//148
f 118//149 111//149 119//149
f 120//150 119//150 111//150
f 120//151 111//151 121//151
f 121//152 111//152 122//152
f 123//153 122//153 124//153
f 84//154 124//154 108//154
f 124//155 122//155 111//155
f 124//156 111//156 108//156
f 115//157 111//157 26//157
f 111//158 117//158 58//158
f 111//159 58//159 26//159
f 76//160 33//160 93//160
f 76//105 93//105 94//105
f 24//161 25//161 125//161
f 125//162 25//162 126//162
f 97//118 105//127 99//119
f 127//163 129//163 128//163
f 130//164 132//164 131//164
f 130//165 131//165 133//165
f 130//166 134//167 132//168
f 135//169 137//169 136//169
f 135//170 138//170 137//170
f 133//171 131//171 139//171
f 134//167 140//172 132//168
f 128//173 129//173 141//173
f 128//174 141//175 142//176
f 143//177 145//177 144//177
f 143//178 146//178 145//178
f 147//179 148//179 141//179
f 149//180 126//180 25//180
f 149//181 25//182 150//183
f 149//184 150//184 151//185
f 152//186 153//186 145//186
f 152//187 145//187 154//187
f 155//188 157//188 156//188
f 155//189 156//190 158//191
f 159//192 161//192 160//192
f 159//193 160//194 162//195
f 163//196 156//196 164//197
f 163//196 165//198 156//196
f 166//199 167//200 141//201
f 166//199 141//201 129//202
f 168//203 170//204 169//205
f 168//206 169//206 171//206
f 172//207 141//201 167//200
f 173//208 174//208 160//208
f 173//209 160//209 161//209
f 175//210 158//191 156//190
f 175//211 156//211 165//211
f 176//212 177//213 145//214
f 176//212 145//214 153//215
f 178//216 179//216 169//216
f 180//217 156//218 181//219
f 180//217 164//220 156//218
f 182//221 150//222 183//223
f 184//224 185//224 132//224
f 185//225 186//226 132//227
f 186//226 131//228 132//227
f 144//229 188//229 187//229
f 144//230 145//230 188//230
f 187//231 189//231 138//231
f 187//232 188//232 189//232
f 146//178 190//178 145//178
f 190//178 191//178 145//178
f 192//233 193//233 154//234
f 192//178 145//178 191//178
f 192//235 154//235 145//235
f 193//233 194//233 154//234
f 194//233 195//236 154//234
f 196//237 197//237 156//237
f 197//237 198//237 156//237
f 198//237 199//237 156//237
f 199//237 200//237 156//237
f 201//238 160//238 202//238
f 201//238 203//238 160//238
f 203//238 204//238 160//238
f 204//238 205//238 160//238
f 205//238 206//238 160//238
f 206//238 207//238 160//238
f 132//239 209//239 208//239
f 132//240 208//241 210//242
f 132//243 211//243 209//243
f 132//244 169//244 211//244
f 140//245 136//245 132//245
f 132//240 212//246 184//247
f 132//240 210//242 212//246
f 213//248 196//248 156//248
f 132//249 137//249 138//249
f 138//250 189//250 132//250
f 132//251 136//251 137//251
f 189//252 188//252 169//252
f 145//253 169//253 188//253
f 172//254 162//195 160//194
f 172//255 160//255 141//255
f 169//256 145//256 178//256
f 214//257 196//257 213//257
f 214//257 213//257 195//257
f 215//238 160//238 207//238
f 215//238 141//238 160//238
f 195//236 213//258 154//234
f 141//175 148//259 216//260
f 141//175 216//260 142//176
f 217//261 160//262 174//263
f 202//264 160//262 217//261
f 202//265 217//265 218//265
f 181//219 156//218 217//266
f 189//267 169//267 132//267
f 169//268 179//268 171//268
f 169//205 170//204 211//269
f 219//270 145//270 177//270
f 219//271 220//272 178//273
f 219//274 178//274 145//274
f 157//275 213//275 156//275
f 103//276 221//276 150//276
f 150//183 25//182 103//182
f 25//277 99//278 103//129
f 222//279 223//280 209//281
f 222//282 209//282 211//282
f 223//280 224//283 209//281
f 225//284 227//285 226//286
f 225//284 226//286 224//287
f 227//288 228//289 226//290
f 228//289 229//291 226//290
f 229//291 230//292 226//290
f 230//293 231//293 226//293
f 150//222 221//294 232//295
f 232//295 183//223 150//222
f 233//296 234//296 226//296
f 234//297 235//297 226//297
f 236//298 226//298 235//298
f 236//299 237//299 226//299
f 237//300 238//300 226//300
f 239//301 240//301 238//301
f 209//302 224//302 240//302
f 240//303 226//303 238//303
f 240//304 224//304 226//304
f 231//305 150//305 226//305
f 226//306 182//306 233//306
f 226//307 150//307 182//307
f 200//308 217//308 156//308
f 200//265 218//265 217//265
f 103//129 99//278 105//130
