# Blender v2.79 (sub 0) OBJ File: ''
# www.blender.org
mtllib crack_restart_keyway_690.mtl
o crack_restart_keyway_690
v 0.073360 -0.113218 -0.472461
v 0.072940 -0.113356 -0.459453
v 0.084666 -0.121387 -0.472461
v 0.147226 -0.162039 -0.087633
v 0.115968 -0.144846 -0.090502
v 0.150733 -0.164623 -0.087292
v 0.143382 -0.159202 -0.088100
v 0.152181 -0.169045 -0.080799
v 0.154210 -0.167189 -0.086931
v 0.139589 -0.156321 -0.088616
v 0.120406 -0.147382 -0.426347
v 0.095810 -0.129467 -0.472461
v 0.120406 -0.147382 -0.103551
v 0.120866 -0.146923 -0.098614
v 0.120406 -0.147382 -0.118922
v 0.120406 -0.147382 -0.472461
v 0.108116 -0.138418 -0.472461
v 0.120406 -0.147382 -0.457089
v 0.074031 -0.112742 -0.186296
v 0.074418 -0.112427 -0.173289
v 0.074021 -0.112677 -0.199304
v 0.073559 -0.113077 -0.238326
v 0.073853 -0.112782 -0.225319
v 0.120406 -0.147382 -0.226521
v 0.073186 -0.113201 -0.251334
v 0.070706 -0.114926 -0.394416
v 0.069983 -0.115214 -0.381408
v 0.120406 -0.147382 -0.395604
v 0.070964 -0.114598 -0.407423
v 0.072181 -0.114055 -0.290356
v 0.072614 -0.113561 -0.277349
v 0.094976 -0.133210 -0.288856
v 0.071461 -0.114285 -0.303364
v 0.072609 -0.113751 -0.446446
v 0.071897 -0.114012 -0.433438
v 0.071824 -0.114308 -0.342386
v 0.071553 -0.114227 -0.329378
v 0.070447 -0.114922 -0.355393
v 0.071547 -0.114461 -0.420431
v 0.073094 -0.113407 -0.264341
v 0.104170 -0.140678 -0.280927
v 0.076294 -0.111249 -0.121259
v 0.120406 -0.147382 -0.134293
v 0.075700 -0.111558 -0.134267
v 0.076532 -0.110968 -0.108252
v 0.071654 -0.114402 -0.316371
v 0.074041 -0.112735 -0.212311
v 0.146834 -0.173679 -0.061411
v 0.148176 -0.172560 -0.068129
v 0.145975 -0.174275 -0.051030
v 0.150291 -0.170722 -0.074800
v 0.122213 -0.145575 -0.094013
v 0.126540 -0.147825 -0.091832
v 0.120406 -0.147382 -0.180407
v 0.120406 -0.147382 -0.195778
v 0.120406 -0.147382 -0.165036
v 0.120406 -0.147382 -0.211149
v 0.120406 -0.147382 -0.241892
v 0.120406 -0.147382 -0.257263
v 0.120406 -0.147382 -0.272634
v 0.120406 -0.147382 -0.288006
v 0.120406 -0.147382 -0.334119
v 0.120406 -0.147382 -0.349490
v 0.120406 -0.147382 -0.318748
v 0.120406 -0.147382 -0.364862
v 0.120406 -0.147382 -0.380233
v 0.120406 -0.147382 -0.441718
v 0.144775 -0.174737 -0.039733
v 0.105690 -0.148686 0.034913
v 0.143418 -0.175221 -0.027802
v 0.072186 -0.113077 -0.026590
v 0.074597 -0.112099 -0.081618
v 0.135362 -0.153081 -0.089189
v 0.070542 -0.115016 -0.368401
v 0.131068 -0.149873 -0.089874
v 0.075883 -0.111420 -0.096463
v 0.120406 -0.147382 -0.149664
v 0.120406 -0.147382 -0.303377
v 0.120406 -0.147382 -0.410975
v 0.074673 -0.112286 -0.160281
v 0.103578 -0.135115 -0.472461
v 0.075063 -0.112022 -0.147274
v 0.071634 -0.111223 -0.054992
v 0.077599 -0.109678 0.198693
v 0.133393 -0.182927 0.211426
v 0.132690 -0.183580 0.191839
v 0.078259 -0.108394 0.212311
v 0.097844 -0.120532 0.282718
v 0.135399 -0.181908 0.235298
v 0.139412 -0.179627 0.265557
v 0.138004 -0.180385 0.255773
v 0.141107 -0.177483 0.281445
v 0.081736 -0.103160 0.264341
v 0.080818 -0.106056 0.238326
v 0.082738 -0.103019 0.272251
v 0.143311 -0.174636 0.303606
v 0.142257 -0.175987 0.293284
v 0.138083 -0.168653 0.302354
v 0.142257 -0.175987 0.293284
v 0.070288 -0.112228 -0.001446
v 0.071387 -0.113580 0.025424
v 0.069985 -0.112535 0.052171
v 0.118651 -0.145469 0.294960
v 0.132031 -0.183808 0.161876
v 0.132382 -0.183749 0.137311
v 0.133004 -0.183037 0.112541
v 0.071153 -0.113728 0.078666
v 0.134401 -0.182358 0.085672
v 0.135571 -0.181213 0.064453
v 0.137869 -0.179894 0.036223
v 0.139436 -0.178513 0.017304
v 0.141765 -0.176658 -0.009278
v 0.070080 -0.112334 0.106111
v 0.072856 -0.112656 0.129681
v 0.075513 -0.109790 0.179702
v 0.081736 -0.103160 0.264341
v 0.073360 -0.113218 -0.472461
v 0.084666 -0.121387 -0.472461
v 0.072940 -0.113356 -0.459453
v 0.147226 -0.162039 -0.087633
v 0.150733 -0.164623 -0.087292
v 0.115968 -0.144846 -0.090502
v 0.143382 -0.159202 -0.088100
v 0.154210 -0.167189 -0.086931
v 0.152181 -0.169045 -0.080799
v 0.139589 -0.156321 -0.088616
v 0.120406 -0.147382 -0.426347
v 0.095810 -0.129467 -0.472461
v 0.120406 -0.147382 -0.103551
v 0.120866 -0.146923 -0.098614
v 0.120406 -0.147382 -0.118922
v 0.120406 -0.147382 -0.472461
v 0.120406 -0.147382 -0.457089
v 0.108116 -0.138418 -0.472461
v 0.074031 -0.112742 -0.186296
v 0.074021 -0.112677 -0.199304
v 0.074418 -0.112427 -0.173289
v 0.073559 -0.113077 -0.238326
v 0.120406 -0.147382 -0.226521
v 0.073853 -0.112782 -0.225319
v 0.073186 -0.113201 -0.251334
v 0.070706 -0.114926 -0.394416
v 0.120406 -0.147382 -0.395604
v 0.069983 -0.115214 -0.381408
v 0.070964 -0.114598 -0.407423
v 0.072181 -0.114055 -0.290356
v 0.094976 -0.133210 -0.288856
v 0.072614 -0.113561 -0.277349
v 0.071461 -0.114285 -0.303364
v 0.072609 -0.113751 -0.446446
v 0.071897 -0.114012 -0.433438
v 0.071824 -0.114308 -0.342386
v 0.071553 -0.114227 -0.329378
v 0.070447 -0.114922 -0.355393
v 0.071547 -0.114461 -0.420431
v 0.073094 -0.113407 -0.264341
v 0.104170 -0.140678 -0.280927
v 0.076294 -0.111249 -0.121259
v 0.075700 -0.111558 -0.134267
v 0.120406 -0.147382 -0.134293
v 0.076532 -0.110968 -0.108252
v 0.071654 -0.114402 -0.316371
v 0.074041 -0.112735 -0.212311
v 0.146834 -0.173679 -0.061411
v 0.148176 -0.172560 -0.068129
v 0.145975 -0.174275 -0.051030
v 0.150291 -0.170722 -0.074800
v 0.122213 -0.145575 -0.094013
v 0.126540 -0.147825 -0.091832
v 0.120406 -0.147382 -0.180407
v 0.120406 -0.147382 -0.195778
v 0.120406 -0.147382 -0.165036
v 0.120406 -0.147382 -0.211149
v 0.120406 -0.147382 -0.241892
v 0.120406 -0.147382 -0.257263
v 0.120406 -0.147382 -0.272634
v 0.120406 -0.147382 -0.288006
v 0.120406 -0.147382 -0.334119
v 0.120406 -0.147382 -0.349490
v 0.120406 -0.147382 -0.318748
v 0.120406 -0.147382 -0.364862
v 0.120406 -0.147382 -0.380233
v 0.120406 -0.147382 -0.441718
v 0.144775 -0.174737 -0.039733
v 0.143418 -0.175221 -0.027802
v 0.105690 -0.148686 0.034913
v 0.072186 -0.113077 -0.026590
v 0.074597 -0.112099 -0.081618
v 0.135362 -0.153081 -0.089189
v 0.070542 -0.115016 -0.368401
v 0.131068 -0.149873 -0.089874
v 0.075883 -0.111420 -0.096463
v 0.120406 -0.147382 -0.149664
v 0.120406 -0.147382 -0.303377
v 0.120406 -0.147382 -0.410975
v 0.074673 -0.112286 -0.160281
v 0.103578 -0.135115 -0.472461
v 0.075063 -0.112022 -0.147274
v 0.071634 -0.111223 -0.054992
v 0.077599 -0.109678 0.198693
v 0.132690 -0.183580 0.191839
v 0.133393 -0.182927 0.211426
v 0.078259 -0.108394 0.212311
v 0.135399 -0.181908 0.235298
v 0.139412 -0.179627 0.265557
v 0.141107 -0.177483 0.281445
v 0.138004 -0.180385 0.255773
v 0.080818 -0.106056 0.238326
v 0.070288 -0.112228 -0.001446
v 0.071387 -0.113580 0.025424
v 0.069985 -0.112535 0.052171
v 0.132031 -0.183808 0.161876
v 0.132382 -0.183749 0.137311
v 0.133004 -0.183037 0.112541
v 0.071153 -0.113728 0.078666
v 0.134401 -0.182358 0.085672
v 0.135571 -0.181213 0.064453
v 0.137869 -0.179894 0.036223
v 0.139436 -0.178513 0.017304
v 0.141765 -0.176658 -0.009278
v 0.070080 -0.112334 0.106111
v 0.072856 -0.112656 0.129681
v 0.075513 -0.109790 0.179702
vn -0.5854 -0.8103 -0.0275
vn 0.0750 -0.0298 -0.9967
vn 0.0760 -0.0284 -0.9967
vn 0.0759 -0.0283 -0.9967
vn 0.0048 -0.1561 -0.9877
vn -0.5169 -0.7568 -0.4001
vn -0.4101 -0.7938 -0.4491
vn -0.0195 -0.2010 -0.9794
vn -0.0190 -0.2005 -0.9795
vn -0.0230 -0.2038 -0.9788
vn -0.5759 -0.8174 -0.0145
vn -0.5870 -0.8096 -0.0014
vn -0.5880 -0.8089 -0.0016
vn -0.5875 -0.8092 -0.0009
vn -0.2264 -0.9677 0.1111
vn -0.4961 -0.8682 0.0000
vn -0.5893 -0.8079 0.0000
vn -0.5893 -0.8079 -0.0004
vn 0.7110 -0.7032 -0.0042
vn 0.7088 -0.7054 -0.0040
vn 0.7088 -0.7054 -0.0039
vn -0.5944 -0.8036 0.0313
vn -0.5947 -0.8035 0.0248
vn -0.5957 -0.8026 0.0317
vn -0.5947 -0.8036 0.0247
vn -0.5469 -0.8357 -0.0489
vn -0.5470 -0.8365 -0.0319
vn -0.5468 -0.8366 -0.0321
vn -0.5469 -0.8366 -0.0326
vn -0.6445 -0.7630 0.0498
vn -0.6445 -0.7630 0.0504
vn -0.6445 -0.7631 0.0492
vn -0.5638 -0.8246 -0.0467
vn -0.5624 -0.8259 -0.0402
vn -0.5618 -0.8261 -0.0437
vn -0.5639 -0.8249 -0.0394
vn -0.6212 -0.7836 -0.0081
vn -0.6224 -0.7826 -0.0074
vn -0.6202 -0.7844 -0.0062
vn -0.7700 -0.6283 0.1112
vn -0.5619 -0.8261 -0.0436
vn -0.6545 -0.7559 0.0166
vn -0.6492 -0.7599 0.0330
vn -0.6508 -0.7585 0.0341
vn -0.6487 -0.7603 0.0337
vn -0.6246 -0.7795 0.0470
vn -0.6284 -0.7774 0.0283
vn -0.6230 -0.7822 -0.0029
vn -0.6261 -0.7797 -0.0023
vn -0.5980 -0.8014 0.0109
vn -0.5963 -0.8027 0.0115
vn -0.5976 -0.8018 0.0028
vn -0.5981 -0.8014 0.0027
vn -0.5312 -0.8122 -0.2414
vn -0.6294 -0.7710 -0.0964
vn -0.6277 -0.7724 -0.0967
vn -0.6295 -0.7713 -0.0942
vn -0.4473 -0.8158 -0.3666
vn -0.4468 -0.8157 -0.3676
vn -0.4469 -0.8152 -0.3684
vn -0.4462 -0.8155 -0.3686
vn 0.0396 -0.9620 0.2702
vn -0.2944 -0.8939 -0.3381
vn -0.5991 -0.8007 0.0000
vn -0.3817 -0.9243 -0.0000
vn -0.4868 -0.8735 0.0000
vn -0.6850 -0.7207 -0.1071
vn -0.6537 -0.7526 -0.0796
vn -0.6512 -0.7577 -0.0420
vn -0.0163 -0.1946 -0.9807
vn -0.6002 -0.7999 0.0014
vn -0.6303 -0.7703 -0.0965
vn -0.2928 -0.9145 -0.2793
vn -0.6717 -0.7351 -0.0918
vn -0.6253 -0.7804 -0.0000
vn -0.0511 -0.2735 -0.9605
vn -0.6229 -0.7821 -0.0178
vn -0.4633 -0.8470 -0.2605
vn -0.5588 -0.8293 -0.0000
vn -0.5468 -0.8366 -0.0333
vn 0.2737 -0.9618 0.0050
vn 0.2713 -0.9625 0.0051
vn -0.6075 -0.7941 0.0181
vn -0.5882 -0.8087 -0.0005
vn -0.6489 -0.7600 0.0367
vn 0.6285 -0.7778 -0.0031
vn 0.6302 -0.7765 -0.0031
vn -0.6051 -0.7948 0.0461
vn -0.6304 -0.7704 -0.0959
vn -0.5303 -0.8470 0.0357
vn -0.6599 -0.7486 -0.0650
vn -0.5998 -0.7991 -0.0404
vn -0.5998 -0.7991 -0.0405
vn -0.6003 -0.7987 -0.0405
vn -0.5523 -0.8334 -0.0209
vn -0.7986 -0.5999 0.0487
vn -0.7998 -0.5928 0.0947
vn -0.7975 -0.5913 0.1199
vn -0.8157 -0.5709 0.0929
vn -0.8284 -0.5366 0.1608
vn -0.7787 -0.6200 0.0965
vn -0.7842 -0.6106 0.1102
vn -0.7597 -0.6303 0.1601
vn 0.7597 0.6303 -0.1601
vn -0.7144 -0.6997 -0.0060
vn -0.7140 -0.7002 -0.0015
vn -0.7145 -0.6996 -0.0098
vn -0.7025 -0.7111 -0.0290
vn -0.7113 -0.7028 -0.0091
vn -0.7884 -0.5986 0.1415
vn -0.7927 -0.5939 0.1376
vn -0.7920 -0.5933 0.1436
vn -0.7902 -0.5954 0.1448
vn -0.7742 -0.6117 0.1627
vn -0.8006 -0.5988 0.0222
vn -0.8090 -0.5876 -0.0130
vn -0.7363 -0.6756 -0.0379
vn -0.7314 -0.6797 -0.0552
vn -0.7293 -0.6799 -0.0769
vn -0.6915 -0.7168 -0.0898
vn -0.6897 -0.7158 -0.1094
vn -0.6908 -0.7137 -0.1160
vn -0.6898 -0.7155 -0.1100
vn -0.6961 -0.7092 -0.1118
vn -0.6941 -0.7103 -0.1170
vn -0.7256 -0.6877 -0.0233
vn -0.7115 -0.7026 -0.0003
vn -0.7544 -0.6564 0.0038
vn -0.7677 -0.6350 0.0856
vn -0.7687 -0.6349 0.0774
vn -0.7685 -0.6346 0.0818
vn -0.7651 -0.6392 0.0783
vn -0.7647 -0.6383 0.0878
vn -0.6136 -0.7849 0.0864
vn -0.7776 -0.6099 0.1526
vn 0.7842 0.6106 -0.1102
vn -0.8177 -0.5606 0.1308
vn -0.7802 -0.6109 0.1349
vn 0.7802 0.6109 -0.1349
vn 0.5854 0.8103 0.0275
vn -0.0750 0.0298 0.9967
vn -0.0759 0.0283 0.9967
vn -0.0760 0.0284 0.9967
vn -0.0048 0.1561 0.9877
vn 0.5169 0.7568 0.4001
vn 0.4101 0.7938 0.4491
vn 0.0195 0.2010 0.9794
vn 0.0230 0.2037 0.9788
vn 0.0190 0.2005 0.9795
vn 0.5759 0.8174 0.0145
vn 0.5870 0.8096 0.0014
vn 0.5884 0.8086 0.0004
vn 0.5880 0.8089 0.0016
vn 0.2264 0.9677 -0.1111
vn 0.4961 0.8682 0.0000
vn 0.5893 0.8079 0.0000
vn -0.7110 0.7032 0.0042
vn -0.7088 0.7054 0.0039
vn -0.7088 0.7054 0.0040
vn 0.5944 0.8036 -0.0312
vn 0.5957 0.8026 -0.0317
vn 0.5947 0.8035 -0.0249
vn 0.5947 0.8036 -0.0247
vn 0.5469 0.8357 0.0489
vn 0.5470 0.8365 0.0319
vn 0.5469 0.8366 0.0326
vn 0.5468 0.8366 0.0321
vn 0.6445 0.7630 -0.0498
vn 0.6445 0.7630 -0.0504
vn 0.6445 0.7631 -0.0492
vn 0.5638 0.8246 0.0467
vn 0.5618 0.8261 0.0437
vn 0.5624 0.8259 0.0402
vn 0.5639 0.8249 0.0394
vn 0.6212 0.7836 0.0081
vn 0.6202 0.7844 0.0062
vn 0.6224 0.7826 0.0074
vn 0.7700 0.6283 -0.1112
vn 0.5619 0.8261 0.0436
vn 0.6545 0.7559 -0.0166
vn 0.6492 0.7599 -0.0330
vn 0.6246 0.7795 -0.0470
vn 0.6284 0.7774 -0.0283
vn 0.6230 0.7822 0.0029
vn 0.6261 0.7797 0.0023
vn 0.5963 0.8027 -0.0115
vn 0.5981 0.8014 -0.0027
vn 0.5992 0.8006 -0.0001
vn 0.5975 0.8019 -0.0007
vn 0.5312 0.8122 0.2414
vn 0.6294 0.7710 0.0964
vn 0.6279 0.7721 0.0982
vn 0.6277 0.7724 0.0967
vn 0.4473 0.8158 0.3666
vn 0.4469 0.8152 0.3684
vn 0.4468 0.8157 0.3676
vn 0.4462 0.8155 0.3686
vn -0.0396 0.9620 -0.2702
vn 0.2944 0.8939 0.3381
vn 0.5991 0.8007 0.0000
vn 0.3817 0.9243 0.0000
vn 0.4868 0.8735 0.0000
vn 0.6850 0.7207 0.1071
vn 0.6537 0.7526 0.0796
vn 0.6512 0.7577 0.0420
vn 0.0163 0.1946 0.9807
vn 0.6002 0.7999 -0.0014
vn 0.6279 0.7721 0.0983
vn 0.2928 0.9145 0.2793
vn 0.6717 0.7351 0.0918
vn 0.6253 0.7804 0.0000
vn 0.0511 0.2735 0.9605
vn 0.6229 0.7821 0.0178
vn 0.4633 0.8470 0.2605
vn 0.5588 0.8293 0.0000
vn 0.5468 0.8366 0.0333
vn -0.2737 0.9618 -0.0050
vn -0.2713 0.9625 -0.0051
vn 0.6075 0.7941 -0.0181
vn 0.5885 0.8085 0.0003
vn 0.5882 0.8087 0.0005
vn 0.6489 0.7600 -0.0367
vn -0.6285 0.7778 0.0031
vn -0.6302 0.7765 0.0031
vn 0.6051 0.7948 -0.0461
vn 0.6304 0.7704 0.0959
vn 0.5303 0.8470 -0.0357
vn 0.6599 0.7486 0.0650
vn 0.5998 0.7991 0.0404
vn 0.6003 0.7987 0.0405
vn 0.5998 0.7991 0.0405
vn 0.5523 0.8334 0.0209
vn 0.7986 0.5999 -0.0487
vn 0.7998 0.5928 -0.0947
vn 0.7975 0.5913 -0.1199
vn 0.8157 0.5709 -0.0929
vn 0.8284 0.5366 -0.1608
vn 0.7787 0.6200 -0.0965
vn 0.7144 0.6997 0.0060
vn 0.7145 0.6996 0.0098
vn 0.7140 0.7002 0.0015
vn 0.7025 0.7111 0.0290
vn 0.7113 0.7028 0.0091
vn 0.7927 0.5939 -0.1376
vn 0.7902 0.5954 -0.1448
vn 0.7742 0.6117 -0.1627
vn 0.7778 0.6094 -0.1539
vn 0.7748 0.6132 -0.1538
vn 0.8006 0.5988 -0.0222
vn 0.8090 0.5876 0.0130
vn 0.7363 0.6756 0.0379
vn 0.7314 0.6797 0.0552
vn 0.7293 0.6799 0.0769
vn 0.6915 0.7168 0.0898
vn 0.6897 0.7158 0.1094
vn 0.6898 0.7155 0.1100
vn 0.6908 0.7137 0.1160
vn 0.6960 0.7092 0.1118
vn 0.6941 0.7103 0.1170
vn 0.7256 0.6877 0.0233
vn 0.7115 0.7026 0.0003
vn 0.7544 0.6564 -0.0038
vn 0.7677 0.6350 -0.0856
vn 0.7685 0.6346 -0.0818
vn 0.7687 0.6349 -0.0774
vn 0.7651 0.6391 -0.0783
vn 0.7647 0.6383 -0.0878
vn 0.6136 0.7849 -0.0864
vn 0.7776 0.6099 -0.1526
vn 0.8177 0.5606 -0.1308
usemtl None.132
s 1
f 1//1 3//1 2//1
f 4//2 6//3 5//4
f 4//5 5//5 7//5
f 6//6 9//6 8//6
f 6//7 8//7 5//7
f 7//8 5//9 10//10
f 3//11 11//11 2//11
f 3//12 12//13 11//14
f 13//15 14//15 5//15
f 13//16 5//16 15//16
f 16//17 18//17 17//18
f 19//19 21//20 20//21
f 22//22 24//23 23//24
f 22//22 25//25 24//23
f 26//26 28//26 27//26
f 26//27 29//28 28//29
f 30//30 32//30 31//31
f 30//30 33//32 32//30
f 34//33 11//34 35//35
f 34//33 2//36 11//34
f 36//37 32//38 37//39
f 36//40 38//40 32//40
f 39//41 35//35 11//34
f 40//42 41//42 25//42
f 40//43 31//44 41//45
f 42//46 44//46 43//46
f 42//47 43//47 45//47
f 46//48 37//39 32//38
f 46//48 32//38 33//49
f 47//50 23//51 24//52
f 47//50 24//52 21//53
f 48//54 5//54 49//54
f 48//55 50//56 5//57
f 49//58 5//59 51//60
f 8//61 51//60 5//59
f 14//62 52//62 5//62
f 52//63 53//63 5//63
f 54//64 21//64 55//64
f 54//64 56//64 21//64
f 55//64 21//64 57//64
f 58//65 41//65 59//65
f 58//65 24//65 41//65
f 59//65 41//65 60//65
f 60//65 41//65 61//65
f 62//66 32//66 63//66
f 62//66 64//66 32//66
f 63//66 32//66 65//66
f 65//66 32//66 66//66
f 66//66 32//66 28//66
f 18//17 67//17 17//18
f 68//67 70//67 69//67
f 68//68 69//68 71//68
f 68//69 71//69 72//69
f 10//10 5//9 73//70
f 74//71 32//71 38//71
f 68//72 5//57 50//56
f 5//73 53//73 75//73
f 43//74 72//74 76//74
f 77//75 43//75 44//75
f 77//75 44//75 56//75
f 5//76 75//76 73//76
f 43//77 5//77 72//77
f 61//78 41//78 32//78
f 61//66 32//66 78//66
f 78//66 32//66 64//66
f 39//79 11//79 79//79
f 39//80 28//29 29//28
f 39//79 79//79 28//79
f 21//81 80//81 20//82
f 21//83 56//83 80//83
f 67//17 11//14 17//18
f 17//18 11//14 81//84
f 11//14 12//13 81//84
f 32//85 41//45 31//44
f 44//86 82//87 80//86
f 44//88 80//88 56//88
f 68//72 72//89 5//57
f 28//90 74//90 27//90
f 43//91 76//91 45//91
f 72//92 71//93 83//94
f 43//16 15//16 5//16
f 28//95 32//95 74//95
f 84//96 86//96 85//96
f 84//97 85//97 87//97
f 85//98 88//98 87//98
f 85//99 89//99 88//99
f 90//100 92//100 91//100
f 93//101 94//101 88//101
f 93//102 88//102 95//102
f 96//103 98//103 97//103
f 96//104 99//104 98//104
f 100//105 69//106 101//107
f 100//108 71//108 69//108
f 101//107 69//106 102//109
f 91//110 103//111 88//112
f 91//110 88//112 89//113
f 91//114 92//114 103//114
f 86//115 84//115 104//115
f 104//116 84//116 105//116
f 106//117 105//117 107//117
f 106//118 107//118 108//118
f 108//119 107//119 109//119
f 110//120 109//120 69//120
f 110//121 69//122 111//123
f 111//123 69//122 112//124
f 70//125 112//124 69//122
f 69//126 109//126 107//126
f 69//106 107//127 102//109
f 105//128 113//128 107//128
f 105//129 114//130 113//131
f 105//129 115//132 114//130
f 105//129 84//133 115//132
f 21//64 24//64 57//64
f 41//134 24//134 25//134
f 92//135 97//135 103//135
f 88//136 116//136 95//136
f 94//137 87//137 88//137
f 103//138 97//138 98//138
f 98//139 99//139 103//139
f 117//140 119//140 118//140
f 120//141 122//142 121//143
f 120//144 123//144 122//144
f 121//145 125//145 124//145
f 121//146 122//146 125//146
f 123//147 126//148 122//149
f 118//150 119//150 127//150
f 118//151 127//152 128//153
f 129//154 122//154 130//154
f 129//155 131//155 122//155
f 132//156 134//156 133//156
f 135//157 137//158 136//159
f 138//160 140//161 139//162
f 138//160 139//162 141//163
f 142//164 144//164 143//164
f 142//165 143//166 145//167
f 146//168 148//169 147//168
f 146//168 147//168 149//170
f 150//171 151//172 127//173
f 150//171 127//173 119//174
f 152//175 153//176 147//177
f 152//178 147//178 154//178
f 155//179 127//173 151//172
f 156//180 141//180 157//180
f 156//181 157//181 148//181
f 158//182 160//182 159//182
f 158//183 161//183 160//183
f 162//184 147//177 153//176
f 162//184 149//185 147//177
f 163//186 139//186 140//186
f 163//187 136//188 139//189
f 164//190 165//190 122//190
f 164//191 122//192 166//193
f 165//194 167//195 122//196
f 125//197 122//196 167//195
f 130//198 122//198 168//198
f 168//199 122//199 169//199
f 170//200 171//200 136//188
f 170//200 136//188 172//200
f 171//200 173//200 136//188
f 174//201 175//201 157//201
f 174//201 157//201 139//201
f 175//201 176//201 157//201
f 176//201 177//201 157//201
f 178//202 179//202 147//202
f 178//202 147//202 180//202
f 179//202 181//202 147//202
f 181//202 182//202 147//202
f 182//202 143//202 147//202
f 133//156 134//156 183//156
f 184//203 186//203 185//203
f 184//204 187//204 186//204
f 184//205 188//205 187//205
f 126//148 189//206 122//149
f 190//207 154//207 147//207
f 184//208 166//193 122//192
f 122//209 191//209 169//209
f 160//210 192//210 188//210
f 193//211 159//211 160//211
f 193//211 172//211 159//211
f 122//212 189//212 191//212
f 160//213 188//213 122//213
f 177//214 147//214 157//214
f 177//202 194//202 147//202
f 194//202 180//202 147//202
f 155//215 195//215 127//215
f 155//216 145//167 143//166
f 155//215 143//215 195//215
f 136//217 137//218 196//217
f 136//219 196//219 172//219
f 183//156 134//156 127//156
f 134//220 197//221 127//152
f 127//152 197//221 128//153
f 147//222 148//222 157//222
f 159//223 196//223 198//224
f 159//225 172//225 196//225
f 184//226 122//226 188//226
f 143//227 144//227 190//227
f 160//228 161//228 192//228
f 188//229 199//230 187//231
f 160//155 122//155 131//155
f 143//232 190//232 147//232
f 200//233 202//233 201//233
f 200//234 203//234 202//234
f 202//235 203//235 88//235
f 202//236 88//236 204//236
f 205//237 207//237 206//237
f 116//238 88//238 208//238
f 209//239 210//240 186//241
f 209//242 186//242 187//242
f 210//240 211//243 186//241
f 207//244 88//244 103//244
f 207//245 204//245 88//245
f 207//246 103//247 206//248
f 201//249 212//249 200//249
f 212//250 213//250 200//250
f 214//251 215//251 213//251
f 214//252 216//252 215//252
f 216//253 217//253 215//253
f 218//254 186//254 217//254
f 218//255 219//256 186//257
f 219//256 220//258 186//257
f 185//259 186//257 220//258
f 186//260 215//260 217//260
f 186//241 211//243 215//261
f 213//262 215//262 221//262
f 213//263 221//264 222//265
f 213//263 222//265 223//266
f 213//263 223//266 200//267
f 136//188 173//200 139//189
f 157//268 141//268 139//268
f 206//248 103//247 99//269
f 208//270 88//270 203//270
