# Blender v2.79 (sub 0) OBJ File: ''
# www.blender.org
mtllib crack_restart_keyway_30.mtl
o crack_restart_keyway_30
v 0.120406 -0.147382 -0.472461
v 0.120406 -0.147382 -0.457089
v 0.110982 -0.138106 -0.452461
v 0.113750 -0.140802 -0.472461
v 0.120406 -0.147382 -0.288006
v 0.117448 -0.147100 -0.288308
v 0.120406 -0.147382 -0.295691
v 0.120406 -0.147382 -0.282107
v 0.120406 -0.147382 -0.303377
v 0.112867 -0.146188 -0.305712
v 0.120406 -0.147382 -0.311062
v 0.113909 -0.146405 -0.301654
v 0.114643 -0.146581 -0.298086
v 0.120406 -0.147382 -0.318748
v 0.110387 -0.145567 -0.317367
v 0.120406 -0.147382 -0.326434
v 0.120406 -0.147382 -0.349490
v 0.120406 -0.147382 -0.341805
v 0.103456 -0.142492 -0.350686
v 0.120406 -0.147382 -0.357176
v 0.120406 -0.147382 -0.364862
v 0.120406 -0.147382 -0.372547
v 0.120406 -0.147382 -0.395604
v 0.095358 -0.133122 -0.426525
v 0.120406 -0.147382 -0.410975
v 0.120406 -0.147382 -0.426347
v 0.120406 -0.147382 -0.441718
v 0.095547 -0.133979 -0.419357
v 0.095625 -0.134657 -0.413104
v 0.104744 -0.131724 -0.472461
v 0.109892 -0.137002 -0.472461
v 0.094882 -0.130919 -0.440831
v 0.095069 -0.129927 -0.447517
v 0.095198 -0.132191 -0.433556
v 0.095666 -0.127921 -0.466114
v 0.110982 -0.138106 -0.452461
v 0.104744 -0.131724 -0.472461
v 0.102495 -0.130510 -0.472461
v 0.102495 -0.130510 -0.472461
v 0.095284 -0.128568 -0.458312
v 0.096078 -0.127784 -0.472461
v 0.095201 -0.129171 -0.452969
v 0.096665 -0.136203 -0.403888
v 0.096417 -0.135805 -0.406225
v 0.096042 -0.135297 -0.408843
v 0.120406 -0.147382 -0.380233
v 0.097347 -0.137263 -0.397026
v 0.097870 -0.138266 -0.389021
v 0.120406 -0.147382 -0.395604
v 0.098756 -0.139027 -0.380311
v 0.098411 -0.138727 -0.384488
v 0.099870 -0.139979 -0.371950
v 0.104409 -0.143113 -0.343836
v 0.105539 -0.143712 -0.337571
v 0.099315 -0.139529 -0.376290
v 0.101902 -0.141528 -0.358954
v 0.111864 -0.145988 -0.310341
v 0.108814 -0.145025 -0.324189
v 0.120406 -0.147382 -0.326434
v 0.107335 -0.144402 -0.330830
v 0.120406 -0.147382 -0.334119
v 0.115414 -0.146770 -0.294531
v 0.120406 -0.147382 -0.288006
v 0.120406 -0.147382 -0.295691
v 0.120406 -0.147382 -0.472461
v 0.120406 -0.147382 -0.457089
v 0.113750 -0.140802 -0.472461
v 0.120406 -0.147382 -0.303377
v 0.120406 -0.147382 -0.311062
v 0.120406 -0.147382 -0.318748
v 0.120406 -0.147382 -0.349490
v 0.120406 -0.147382 -0.341805
v 0.120406 -0.147382 -0.357176
v 0.120406 -0.147382 -0.364862
v 0.120406 -0.147382 -0.372547
v 0.120406 -0.147382 -0.410975
v 0.120406 -0.147382 -0.426347
v 0.120406 -0.147382 -0.441718
v 0.109892 -0.137002 -0.472461
v 0.120406 -0.147382 -0.380233
v 0.120406 -0.147382 -0.334119
vn -0.7017 -0.7125 -0.0002
vn -0.7015 -0.7127 0.0000
vn -0.7023 -0.7119 -0.0012
vn -0.7025 -0.7117 -0.0013
vn -0.0949 -0.9955 0.0000
vn -0.1564 -0.9877 0.0000
vn -0.1567 -0.9876 -0.0005
vn -0.1610 -0.9869 -0.0067
vn -0.1527 -0.9882 -0.0154
vn -0.1527 -0.9881 -0.0155
vn -0.1523 -0.9882 -0.0137
vn -0.1377 -0.9905 0.0000
vn -0.1532 -0.9881 -0.0172
vn -0.1783 -0.9840 0.0000
vn -0.2772 -0.9608 0.0000
vn -0.4948 -0.8690 0.0000
vn -0.4947 -0.8690 0.0000
vn -0.4009 -0.9112 -0.0947
vn -0.3976 -0.9122 -0.0986
vn -0.3981 -0.9120 -0.0989
vn -0.3995 -0.9116 -0.0972
vn -0.7159 -0.6982 0.0005
vn -0.7017 -0.7124 -0.0011
vn -0.5402 -0.8301 -0.1383
vn -0.5410 -0.8321 -0.1220
vn -0.5369 -0.8379 -0.0987
vn -0.4620 -0.8765 -0.1356
vn 0.4620 0.8765 0.1356
vn -0.4696 -0.8700 -0.1504
vn 0.4696 0.8700 0.1504
vn -0.4905 -0.8661 -0.0958
vn -0.4879 -0.8666 -0.1052
vn -0.4878 -0.8667 -0.1045
vn 0.4905 0.8661 0.0958
vn 0.4878 0.8667 0.1046
vn 0.4879 0.8666 0.1052
vn -0.3906 -0.9195 -0.0452
vn 0.3906 0.9195 0.0452
vn -0.5048 -0.8212 -0.2662
vn -0.4852 -0.8644 -0.1316
vn -0.4874 -0.8668 -0.1054
vn -0.3887 -0.9138 -0.1180
vn -0.3903 -0.9136 -0.1142
vn -0.3898 -0.9137 -0.1153
vn -0.3990 -0.9117 -0.0979
vn -0.3871 -0.9139 -0.1219
vn -0.3959 -0.9139 -0.0894
vn -0.3948 -0.9132 -0.1011
vn -0.3957 -0.9141 -0.0887
vn 0.3959 0.9139 0.0894
vn 0.3957 0.9141 0.0887
vn 0.3948 0.9132 0.1011
vn -0.3945 -0.9132 -0.1019
vn 0.3945 0.9132 0.1019
vn -0.3818 -0.9236 -0.0354
vn -0.3812 -0.9239 -0.0349
vn -0.3862 -0.9213 -0.0463
vn -0.3865 -0.9211 -0.0475
vn -0.3391 -0.9407 0.0000
vn -0.2519 -0.9666 -0.0475
vn -0.2512 -0.9665 -0.0527
vn -0.2512 -0.9665 -0.0525
vn -0.2520 -0.9666 -0.0470
vn -0.3855 -0.9216 -0.0463
vn -0.3582 -0.9320 -0.0551
vn -0.1617 -0.9868 -0.0076
vn -0.1631 -0.9863 -0.0248
vn -0.2048 -0.9783 -0.0305
vn 0.2048 0.9783 0.0305
vn -0.2075 -0.9772 -0.0455
vn 0.2075 0.9772 0.0455
vn -0.2397 -0.9709 0.0000
vn -0.2312 -0.9722 -0.0379
vn -0.1271 -0.9916 -0.0238
vn -0.1241 -0.9922 -0.0122
vn -0.1274 -0.9915 -0.0251
vn -0.1244 -0.9922 -0.0120
vn 0.3898 0.9137 0.1153
vn 0.3903 0.9136 0.1142
vn 0.3887 0.9138 0.1180
vn 0.3871 0.9139 0.1219
vn 0.4874 0.8668 0.1054
vn 0.3990 0.9117 0.0979
vn 0.3981 0.9120 0.0989
vn 0.3995 0.9116 0.0972
vn 0.0949 0.9955 0.0000
vn 0.1244 0.9922 0.0120
vn 0.1271 0.9916 0.0238
vn 0.1241 0.9922 0.0122
vn 0.7017 0.7125 0.0002
vn 0.7023 0.7119 0.0012
vn 0.7015 0.7127 0.0000
vn 0.7025 0.7117 0.0013
vn 0.1564 0.9877 0.0000
vn 0.1527 0.9882 0.0154
vn 0.1523 0.9882 0.0137
vn 0.1527 0.9881 0.0155
vn 0.1377 0.9905 0.0000
vn 0.1532 0.9881 0.0172
vn 0.1783 0.9840 0.0000
vn 0.2772 0.9608 0.0000
vn 0.4948 0.8690 0.0000
vn 0.4947 0.8690 0.0000
vn 0.4009 0.9112 0.0947
vn 0.3976 0.9122 0.0986
vn 0.7159 0.6982 -0.0005
vn 0.7017 0.7124 0.0011
vn 0.5402 0.8301 0.1383
vn 0.5410 0.8321 0.1220
vn 0.5369 0.8379 0.0987
vn 0.5048 0.8212 0.2662
vn 0.4852 0.8644 0.1316
vn 0.3818 0.9236 0.0354
vn 0.3861 0.9213 0.0463
vn 0.3812 0.9239 0.0349
vn 0.3865 0.9211 0.0475
vn 0.3391 0.9407 0.0000
vn 0.2519 0.9666 0.0475
vn 0.2512 0.9665 0.0525
vn 0.2512 0.9665 0.0527
vn 0.2520 0.9666 0.0470
vn 0.3855 0.9216 0.0463
vn 0.3582 0.9320 0.0551
vn 0.1617 0.9868 0.0076
vn 0.1631 0.9863 0.0248
vn 0.2397 0.9709 0.0000
vn 0.2312 0.9722 0.0379
vn 0.1274 0.9915 0.0251
vn 0.2223 0.9750 0.0000
vn 0.3956 0.9165 0.0594
vn 0.3470 0.9368 0.0440
vn -0.2223 -0.9750 0.0000
vn -0.3956 -0.9165 -0.0594
vn -0.3470 -0.9368 -0.0440
usemtl None.045
s 1
f 1//1 2//2 3//3
f 1//1 3//3 4//4
f 5//5 6//5 7//5
f 5//5 8//5 6//5
f 9//6 10//7 11//8
f 9//9 12//10 10//11
f 9//12 7//12 13//12
f 9//9 13//13 12//10
f 14//14 15//14 16//14
f 14//14 11//14 15//14
f 17//15 18//15 19//15
f 17//15 19//15 20//15
f 21//15 20//15 19//15
f 21//15 19//15 22//15
f 23//16 24//17 25//17
f 25//17 24//17 26//17
f 26//17 24//17 27//17
f 27//2 3//3 2//2
f 28//18 24//19 23//20
f 28//18 23//20 29//21
f 3//22 30//22 31//22
f 31//23 4//4 3//3
f 32//24 33//24 27//24
f 32//25 27//25 34//25
f 24//26 34//26 27//26
f 35//27 30//27 3//27
f 35//28 36//28 37//28
f 35//29 38//29 30//29
f 35//30 37//30 39//30
f 35//31 3//32 40//33
f 35//34 40//35 36//36
f 35//37 41//37 38//37
f 35//38 39//38 41//38
f 3//39 27//39 33//39
f 3//40 33//40 42//40
f 42//41 40//33 3//32
f 23//42 43//43 44//44
f 23//20 45//45 29//21
f 23//42 44//44 45//46
f 22//15 19//15 46//15
f 47//47 23//48 48//49
f 47//50 48//51 49//52
f 47//47 43//53 23//48
f 47//50 49//52 43//54
f 23//55 50//56 51//57
f 23//55 51//57 48//58
f 23//59 46//59 52//59
f 53//60 19//61 18//62
f 53//60 18//62 54//63
f 52//64 55//64 23//64
f 52//65 46//65 56//65
f 11//8 10//7 57//66
f 11//67 57//67 15//67
f 58//68 16//68 15//68
f 58//69 15//69 59//69
f 58//70 60//70 16//70
f 58//71 59//71 60//71
f 54//72 18//72 61//72
f 54//73 61//73 60//73
f 7//74 62//75 13//76
f 7//74 6//77 62//75
f 44//78 43//79 49//80
f 44//78 49//80 45//81
f 40//35 42//82 36//36
f 45//83 49//84 29//85
f 6//86 63//86 64//86
f 6//87 64//88 62//89
f 6//86 8//86 63//86
f 65//90 36//91 66//92
f 65//90 67//93 36//91
f 68//94 69//94 10//94
f 68//95 10//96 12//97
f 68//98 13//98 64//98
f 68//95 12//97 13//99
f 70//100 59//100 15//100
f 70//100 15//100 69//100
f 71//101 19//101 72//101
f 71//101 73//101 19//101
f 74//101 19//101 73//101
f 74//101 75//101 19//101
f 49//102 76//103 24//103
f 76//103 77//103 24//103
f 77//103 78//103 24//103
f 78//92 66//92 36//91
f 28//104 49//84 24//105
f 28//104 29//85 49//84
f 36//106 79//106 37//106
f 79//107 36//91 67//93
f 32//108 78//108 33//108
f 32//109 34//109 78//109
f 24//110 78//110 34//110
f 36//111 33//111 78//111
f 36//112 42//112 33//112
f 75//101 80//101 19//101
f 49//113 51//114 50//115
f 49//113 48//116 51//114
f 49//117 52//117 80//117
f 53//118 72//119 19//120
f 53//118 54//121 72//119
f 52//122 49//122 55//122
f 52//123 56//123 80//123
f 69//124 57//124 10//124
f 69//125 15//125 57//125
f 54//126 81//126 72//126
f 54//127 60//127 81//127
f 64//88 13//128 62//89
f 59//129 81//129 60//129
f 49//130 50//130 55//130
f 80//131 56//131 19//131
f 16//132 60//132 61//132
f 23//133 55//133 50//133
f 46//134 19//134 56//134
