# Blender v2.79 (sub 0) OBJ File: ''
# www.blender.org
mtllib crack_restart_keyway_670.mtl
o crack_restart_keyway_670
v 0.073370 -0.113211 -0.472461
v 0.072947 -0.113351 -0.459453
v 0.084676 -0.121380 -0.472461
v 0.147227 -0.162038 -0.087632
v 0.129789 -0.158141 -0.072076
v 0.150734 -0.164622 -0.087291
v 0.143382 -0.159202 -0.088100
v 0.131068 -0.149873 -0.089874
v 0.127497 -0.150673 -0.086868
v 0.135359 -0.153083 -0.089191
v 0.126540 -0.147825 -0.091832
v 0.152180 -0.169046 -0.080799
v 0.154210 -0.167189 -0.086931
v 0.139587 -0.156323 -0.088618
v 0.120406 -0.147382 -0.426347
v 0.095817 -0.129461 -0.472461
v 0.120406 -0.147382 -0.103551
v 0.114631 -0.144474 -0.094849
v 0.120866 -0.146923 -0.098614
v 0.120406 -0.147382 -0.118922
v 0.120406 -0.147382 -0.472461
v 0.108121 -0.138415 -0.472461
v 0.120406 -0.147382 -0.457089
v 0.073550 -0.113084 -0.238326
v 0.073854 -0.112781 -0.225319
v 0.093217 -0.131643 -0.290188
v 0.073184 -0.113203 -0.251334
v 0.070712 -0.114923 -0.394416
v 0.069988 -0.115211 -0.381408
v 0.103599 -0.139470 -0.401370
v 0.070961 -0.114599 -0.407423
v 0.072200 -0.114041 -0.290356
v 0.072624 -0.113554 -0.277349
v 0.071442 -0.114297 -0.303364
v 0.072618 -0.113744 -0.446446
v 0.071895 -0.114013 -0.433438
v 0.071824 -0.114308 -0.342386
v 0.071544 -0.114233 -0.329378
v 0.070463 -0.114912 -0.355393
v 0.074586 -0.112108 -0.081618
v 0.102221 -0.136950 -0.128183
v 0.075947 -0.111382 -0.096420
v 0.107857 -0.141900 -0.075094
v 0.071538 -0.114466 -0.420431
v 0.070553 -0.115011 -0.368401
v 0.073093 -0.113408 -0.264341
v 0.074720 -0.112254 -0.160281
v 0.075154 -0.111965 -0.147274
v 0.090269 -0.126692 -0.153699
v 0.074452 -0.112406 -0.173289
v 0.076317 -0.111234 -0.121259
v 0.075700 -0.111558 -0.134267
v 0.076664 -0.110874 -0.108252
v 0.071653 -0.114402 -0.316371
v 0.146818 -0.173694 -0.061413
v 0.148174 -0.172562 -0.068130
v 0.145914 -0.174324 -0.050985
v 0.150284 -0.170728 -0.074803
v 0.122213 -0.145575 -0.094013
v 0.115967 -0.144848 -0.090502
v 0.120406 -0.147382 -0.134293
v 0.120406 -0.147382 -0.149664
v 0.120406 -0.147382 -0.165036
v 0.120406 -0.147382 -0.180407
v 0.101490 -0.135047 -0.155340
v 0.120406 -0.147382 -0.195778
v 0.120406 -0.147382 -0.226521
v 0.120406 -0.147382 -0.241892
v 0.104904 -0.139355 -0.237469
v 0.120406 -0.147382 -0.257263
v 0.106845 -0.138492 -0.251578
v 0.104076 -0.139933 -0.265445
v 0.120406 -0.147382 -0.272634
v 0.120406 -0.147382 -0.288006
v 0.104170 -0.140679 -0.280927
v 0.120406 -0.147382 -0.318748
v 0.120406 -0.147382 -0.303377
v 0.120406 -0.147382 -0.334119
v 0.120406 -0.147382 -0.349490
v 0.120406 -0.147382 -0.364862
v 0.120406 -0.147382 -0.380233
v 0.120406 -0.147382 -0.395604
v 0.120406 -0.147382 -0.410975
v 0.120406 -0.147382 -0.441718
v 0.144662 -0.174826 -0.039651
v 0.105814 -0.148444 0.211442
v 0.143244 -0.175363 -0.027783
v 0.072066 -0.113153 -0.026843
v 0.111722 -0.143667 -0.082156
v 0.120406 -0.147382 -0.211149
v 0.074044 -0.112733 -0.186296
v 0.093792 -0.129828 -0.176009
v 0.095769 -0.129245 -0.164092
v 0.103575 -0.135104 -0.472461
v 0.074047 -0.112731 -0.212311
v 0.130958 -0.184766 0.187928
v 0.132272 -0.183693 0.212064
v 0.130898 -0.184714 0.175908
v 0.131346 -0.184390 0.149590
v 0.072626 -0.110429 0.159329
v 0.075801 -0.109924 0.184152
v 0.114555 -0.144840 0.266476
v 0.133071 -0.183264 0.219898
v 0.095544 -0.122303 0.254239
v 0.131708 -0.166755 0.272919
v 0.134877 -0.182266 0.235596
v 0.077528 -0.109722 0.198546
v 0.078316 -0.108367 0.212311
v 0.080466 -0.106160 0.240453
v 0.138023 -0.180411 0.258345
v 0.140899 -0.177929 0.274737
v 0.070152 -0.112294 -0.001446
v 0.071333 -0.113614 0.025538
v 0.069984 -0.112535 0.052171
v 0.071516 -0.111317 -0.054992
v 0.071134 -0.113740 0.078625
v 0.070079 -0.112334 0.106111
v 0.072443 -0.112916 0.130539
v 0.138023 -0.180411 0.258345
v 0.132310 -0.183545 0.112931
v 0.133768 -0.182834 0.085119
v 0.134947 -0.181693 0.064783
v 0.137420 -0.180250 0.035795
v 0.139014 -0.178852 0.017521
v 0.141525 -0.176851 -0.009528
v 0.074024 -0.112674 -0.199304
v 0.078316 -0.108367 0.212311
v 0.073370 -0.113211 -0.472461
v 0.084676 -0.121380 -0.472461
v 0.072947 -0.113351 -0.459453
v 0.147227 -0.162038 -0.087632
v 0.150734 -0.164622 -0.087291
v 0.129789 -0.158141 -0.072076
v 0.143382 -0.159202 -0.088100
v 0.131068 -0.149873 -0.089874
v 0.135359 -0.153083 -0.089191
v 0.127497 -0.150673 -0.086868
v 0.126540 -0.147825 -0.091832
v 0.154210 -0.167189 -0.086931
v 0.152180 -0.169046 -0.080799
v 0.139587 -0.156323 -0.088618
v 0.120406 -0.147382 -0.426347
v 0.095817 -0.129461 -0.472461
v 0.120406 -0.147382 -0.103551
v 0.120866 -0.146923 -0.098614
v 0.114631 -0.144474 -0.094849
v 0.120406 -0.147382 -0.118922
v 0.120406 -0.147382 -0.472461
v 0.120406 -0.147382 -0.457089
v 0.108121 -0.138415 -0.472461
v 0.073550 -0.113084 -0.238326
v 0.093217 -0.131643 -0.290188
v 0.073854 -0.112781 -0.225319
v 0.073184 -0.113203 -0.251334
v 0.070712 -0.114923 -0.394416
v 0.103599 -0.139470 -0.401370
v 0.069988 -0.115211 -0.381408
v 0.070961 -0.114599 -0.407423
v 0.072200 -0.114041 -0.290356
v 0.072624 -0.113554 -0.277349
v 0.071442 -0.114297 -0.303364
v 0.072618 -0.113744 -0.446446
v 0.071895 -0.114013 -0.433438
v 0.071824 -0.114308 -0.342386
v 0.071544 -0.114233 -0.329378
v 0.070463 -0.114912 -0.355393
v 0.074586 -0.112108 -0.081618
v 0.075947 -0.111382 -0.096420
v 0.102221 -0.136950 -0.128183
v 0.107857 -0.141900 -0.075094
v 0.071538 -0.114466 -0.420431
v 0.070553 -0.115011 -0.368401
v 0.073093 -0.113408 -0.264341
v 0.074720 -0.112254 -0.160281
v 0.090269 -0.126692 -0.153699
v 0.075154 -0.111965 -0.147274
v 0.074452 -0.112406 -0.173289
v 0.076317 -0.111234 -0.121259
v 0.075700 -0.111558 -0.134267
v 0.076664 -0.110874 -0.108252
v 0.071653 -0.114402 -0.316371
v 0.146818 -0.173694 -0.061413
v 0.148174 -0.172562 -0.068130
v 0.145914 -0.174324 -0.050985
v 0.150284 -0.170728 -0.074803
v 0.122213 -0.145575 -0.094013
v 0.115967 -0.144848 -0.090502
v 0.120406 -0.147382 -0.134293
v 0.120406 -0.147382 -0.149664
v 0.120406 -0.147382 -0.165036
v 0.101490 -0.135047 -0.155340
v 0.120406 -0.147382 -0.180407
v 0.120406 -0.147382 -0.195778
v 0.120406 -0.147382 -0.226521
v 0.104904 -0.139355 -0.237469
v 0.120406 -0.147382 -0.241892
v 0.106845 -0.138492 -0.251578
v 0.120406 -0.147382 -0.257263
v 0.104076 -0.139933 -0.265445
v 0.120406 -0.147382 -0.272634
v 0.104170 -0.140679 -0.280927
v 0.120406 -0.147382 -0.288006
v 0.120406 -0.147382 -0.318748
v 0.120406 -0.147382 -0.303377
v 0.120406 -0.147382 -0.334119
v 0.120406 -0.147382 -0.349490
v 0.120406 -0.147382 -0.364862
v 0.120406 -0.147382 -0.380233
v 0.120406 -0.147382 -0.395604
v 0.120406 -0.147382 -0.410975
v 0.120406 -0.147382 -0.441718
v 0.144662 -0.174826 -0.039651
v 0.143244 -0.175363 -0.027783
v 0.105814 -0.148444 0.211442
v 0.072066 -0.113153 -0.026843
v 0.111722 -0.143667 -0.082156
v 0.120406 -0.147382 -0.211149
v 0.074044 -0.112733 -0.186296
v 0.093792 -0.129828 -0.176009
v 0.095769 -0.129245 -0.164092
v 0.103575 -0.135104 -0.472461
v 0.074047 -0.112731 -0.212311
v 0.130958 -0.184766 0.187928
v 0.132272 -0.183693 0.212064
v 0.130898 -0.184714 0.175908
v 0.131346 -0.184390 0.149590
v 0.075801 -0.109924 0.184152
v 0.072626 -0.110429 0.159329
v 0.133071 -0.183264 0.219898
v 0.134877 -0.182266 0.235596
v 0.077528 -0.109722 0.198546
v 0.070152 -0.112294 -0.001446
v 0.071333 -0.113614 0.025538
v 0.069984 -0.112535 0.052171
v 0.071516 -0.111317 -0.054992
v 0.071134 -0.113740 0.078625
v 0.070079 -0.112334 0.106111
v 0.072443 -0.112916 0.130539
v 0.132310 -0.183545 0.112931
v 0.133768 -0.182834 0.085119
v 0.134947 -0.181693 0.064783
v 0.137420 -0.180250 0.035795
v 0.139014 -0.178852 0.017521
v 0.141525 -0.176851 -0.009528
v 0.074024 -0.112674 -0.199304
vn -0.5854 -0.8102 -0.0278
vn -0.5152 -0.7611 -0.3942
vn -0.5171 -0.7570 -0.3995
vn -0.5187 -0.7607 -0.3903
vn -0.5221 -0.7598 -0.3874
vn -0.3917 -0.6600 -0.6410
vn -0.1931 -0.8667 -0.4600
vn -0.5172 -0.7565 -0.4003
vn -0.5196 -0.7542 -0.4015
vn -0.5250 -0.7552 -0.3925
vn -0.5759 -0.8174 -0.0147
vn -0.5871 -0.8095 -0.0015
vn -0.5881 -0.8088 -0.0017
vn -0.5877 -0.8091 -0.0011
vn -0.3016 -0.9463 0.1161
vn -0.4497 -0.8932 0.0000
vn -0.5896 -0.8077 0.0000
vn -0.5894 -0.8078 -0.0004
vn -0.6388 -0.7687 0.0328
vn -0.6501 -0.7594 0.0252
vn -0.6043 -0.7951 -0.0512
vn -0.6021 -0.7978 -0.0314
vn -0.6019 -0.7979 -0.0315
vn -0.6019 -0.7979 -0.0331
vn -0.5167 -0.8549 0.0475
vn -0.5188 -0.8535 0.0488
vn -0.5186 -0.8536 0.0489
vn -0.5225 -0.8513 0.0472
vn -0.5639 -0.8245 -0.0475
vn -0.5621 -0.8261 -0.0402
vn -0.5611 -0.8266 -0.0444
vn -0.5641 -0.8248 -0.0392
vn -0.6311 -0.7756 -0.0091
vn -0.6240 -0.7814 -0.0042
vn -0.6227 -0.7824 -0.0081
vn -0.5065 -0.8572 0.0928
vn -0.7539 -0.6491 -0.1012
vn -0.6672 -0.7448 0.0014
vn -0.5618 -0.8261 -0.0442
vn -0.5936 -0.8047 0.0020
vn -0.5701 -0.8207 0.0374
vn -0.6597 -0.7514 0.0165
vn -0.6483 -0.7607 0.0319
vn -0.6888 -0.7239 0.0391
vn -0.6854 -0.7278 0.0226
vn -0.6986 -0.7138 0.0502
vn -0.6968 -0.7155 0.0513
vn -0.6971 -0.7158 0.0411
vn -0.6988 -0.7143 0.0384
vn -0.7398 -0.6688 -0.0735
vn -0.6228 -0.7824 -0.0046
vn -0.6236 -0.7818 -0.0038
vn -0.5648 -0.7875 -0.2467
vn -0.6356 -0.7654 -0.1013
vn -0.6333 -0.7672 -0.1016
vn -0.6339 -0.7664 -0.1040
vn -0.5208 -0.7667 -0.3754
vn -0.5202 -0.7654 -0.3790
vn -0.5214 -0.7661 -0.3757
vn -0.5204 -0.7651 -0.3792
vn -0.1708 -0.9310 0.3227
vn -0.2942 -0.8938 -0.3384
vn -0.1390 -0.9894 -0.0424
vn -0.4976 -0.8674 0.0000
vn -0.5462 -0.8376 0.0000
vn -0.4598 -0.8880 -0.0000
vn -0.5482 -0.8363 0.0000
vn -0.4832 -0.8673 -0.1195
vn -0.4832 -0.8557 0.1854
vn -0.4150 -0.9098 0.0000
vn -0.3816 -0.9243 0.0000
vn -0.3994 -0.9158 0.0417
vn -0.4259 -0.9048 0.0000
vn -0.9659 -0.2264 -0.1257
vn -0.6494 -0.7602 -0.0206
vn -0.6442 -0.7646 -0.0198
vn -0.6476 -0.7615 -0.0265
vn -0.6502 -0.7591 -0.0300
vn -0.5249 -0.7546 -0.3938
vn -0.6335 -0.7667 -0.1039
vn -0.5749 -0.8043 -0.1502
vn -0.4583 -0.8165 -0.3510
vn -0.8714 -0.4789 -0.1067
vn -0.2712 -0.9625 -0.0018
vn -0.5581 -0.8267 -0.0710
vn -0.5731 -0.8024 0.1663
vn -0.3708 -0.8509 -0.3721
vn -0.8650 -0.3074 -0.3965
vn -0.8649 -0.3080 -0.3963
vn -0.4099 -0.9112 -0.0414
vn -0.4659 -0.8424 -0.2709
vn -0.8812 -0.4098 0.2356
vn -0.5587 -0.8294 -0.0000
vn -0.6016 -0.7980 -0.0348
vn -0.5154 -0.8283 -0.2196
vn -0.5750 -0.7819 0.2408
vn -0.5965 -0.8026 0.0000
vn -0.6028 -0.7979 0.0033
vn -0.5927 -0.8054 0.0080
vn -0.6553 -0.7554 0.0027
vn -0.6965 -0.7165 0.0399
vn -0.2712 -0.9581 0.0919
vn -0.8140 -0.5578 0.1623
vn -0.5987 -0.8010 -0.0000
vn -0.5986 -0.8010 0.0000
vn -0.5987 -0.8010 -0.0001
vn -0.2296 -0.9690 -0.0909
vn -0.8567 -0.4668 0.2196
vn -0.6523 -0.7573 0.0325
vn -0.5529 -0.8332 -0.0045
vn -0.6104 -0.7818 -0.1275
vn -0.5884 -0.8086 -0.0005
vn -0.5018 -0.8649 0.0140
vn -0.6632 -0.7484 -0.0092
vn -0.6043 -0.7867 -0.1265
vn -0.5807 -0.8058 -0.1162
vn -0.4925 -0.8702 -0.0130
vn -0.6968 -0.7154 0.0516
vn -0.6903 -0.7228 0.0328
vn -0.5988 -0.8008 0.0120
vn -0.6430 -0.7653 0.0306
vn -0.7984 -0.5980 0.0701
vn -0.8217 -0.5699 0.0016
vn -0.8318 -0.5547 -0.0210
vn -0.8218 -0.5578 0.1165
vn -0.7961 -0.5823 0.1649
vn -0.7980 -0.5812 0.1592
vn -0.7953 -0.5840 0.1627
vn -0.7962 -0.5822 0.1646
vn -0.8621 -0.4897 0.1303
vn -0.7996 -0.5789 0.1597
vn -0.7955 -0.5951 0.1137
vn -0.8198 -0.5633 0.1029
vn -0.8195 -0.5632 0.1062
vn -0.8195 -0.5632 0.1060
vn -0.8192 -0.5643 0.1024
vn -0.8140 -0.5617 0.1478
vn -0.7709 -0.6277 0.1081
vn -0.8210 -0.5486 0.1583
vn -0.7701 -0.5968 0.2255
vn -0.6988 -0.7153 -0.0044
vn -0.7027 -0.7115 -0.0019
vn -0.7011 -0.7130 -0.0056
vn -0.6423 -0.7661 -0.0225
vn -0.6889 -0.7249 -0.0028
vn -0.6552 -0.7546 -0.0364
vn -0.6602 -0.7491 -0.0539
vn -0.7040 -0.7102 -0.0017
vn -0.7219 -0.6920 0.0077
vn -0.7945 -0.6040 0.0625
vn -0.7936 -0.6053 0.0622
vn -0.7967 -0.6015 0.0590
vn -0.7899 -0.6105 0.0578
vn 0.7701 0.5968 -0.2255
vn -0.8419 -0.5385 -0.0346
vn -0.8684 -0.4924 -0.0581
vn -0.8927 -0.4440 -0.0767
vn -0.9209 -0.3775 -0.0974
vn -0.9355 -0.3367 -0.1074
vn -0.9410 -0.3196 -0.1110
vn -0.9459 -0.3037 -0.1138
vn -0.9418 -0.3362 -0.0001
vn -0.9334 -0.3590 -0.0001
vn -0.9418 -0.3362 -0.0002
vn 0.7709 0.6277 -0.1081
vn 0.5854 0.8102 0.0278
vn 0.5203 0.7580 0.3933
vn 0.5210 0.7573 0.3938
vn 0.5192 0.7576 0.3954
vn 0.5163 0.7638 0.3874
vn 0.5221 0.7598 0.3874
vn 0.5174 0.7619 0.3896
vn 0.3917 0.6600 0.6410
vn 0.1931 0.8667 0.4600
vn 0.5172 0.7565 0.4003
vn 0.5223 0.7543 0.3977
vn 0.5250 0.7552 0.3925
vn 0.5759 0.8174 0.0147
vn 0.5871 0.8095 0.0015
vn 0.5885 0.8085 0.0005
vn 0.5881 0.8088 0.0017
vn 0.3016 0.9463 -0.1161
vn 0.4497 0.8932 0.0000
vn 0.5896 0.8077 0.0000
vn 0.6388 0.7687 -0.0328
vn 0.6401 0.7676 -0.0336
vn 0.6397 0.7680 -0.0302
vn 0.6501 0.7594 -0.0252
vn 0.6043 0.7951 0.0512
vn 0.6021 0.7978 0.0314
vn 0.6019 0.7979 0.0331
vn 0.6019 0.7979 0.0315
vn 0.5167 0.8549 -0.0475
vn 0.5186 0.8536 -0.0489
vn 0.5188 0.8535 -0.0488
vn 0.5225 0.8513 -0.0472
vn 0.5639 0.8244 0.0476
vn 0.5611 0.8266 0.0444
vn 0.5621 0.8261 0.0401
vn 0.5641 0.8248 0.0392
vn 0.6311 0.7756 0.0091
vn 0.6228 0.7824 0.0080
vn 0.6240 0.7814 0.0042
vn 0.5065 0.8572 -0.0928
vn 0.7539 0.6491 0.1012
vn 0.6672 0.7448 -0.0014
vn 0.5618 0.8261 0.0442
vn 0.5936 0.8047 -0.0020
vn 0.5701 0.8207 -0.0374
vn 0.6597 0.7514 -0.0165
vn 0.6483 0.7607 -0.0319
vn 0.6888 0.7239 -0.0391
vn 0.6911 0.7219 -0.0342
vn 0.6872 0.7256 -0.0344
vn 0.6854 0.7278 -0.0226
vn 0.6986 0.7137 -0.0502
vn 0.6971 0.7158 -0.0410
vn 0.6968 0.7155 -0.0513
vn 0.6988 0.7143 -0.0384
vn 0.7398 0.6688 0.0735
vn 0.6228 0.7824 0.0046
vn 0.6236 0.7818 0.0038
vn 0.5648 0.7875 0.2467
vn 0.6356 0.7654 0.1013
vn 0.6339 0.7664 0.1040
vn 0.6333 0.7672 0.1016
vn 0.5208 0.7667 0.3754
vn 0.5214 0.7661 0.3757
vn 0.5202 0.7654 0.3790
vn 0.5204 0.7651 0.3792
vn 0.1708 0.9310 -0.3227
vn 0.2942 0.8938 0.3384
vn 0.1390 0.9894 0.0424
vn 0.4976 0.8674 0.0000
vn 0.5462 0.8376 0.0000
vn 0.5468 0.8373 -0.0014
vn 0.5496 0.8355 0.0022
vn 0.4598 0.8880 0.0000
vn 0.5482 0.8363 0.0000
vn 0.4832 0.8673 0.1195
vn 0.4832 0.8557 -0.1854
vn 0.4150 0.9098 0.0000
vn 0.3816 0.9243 0.0000
vn 0.3994 0.9158 -0.0417
vn 0.4259 0.9048 0.0000
vn 0.9659 0.2264 0.1257
vn 0.6519 0.7578 0.0279
vn 0.6472 0.7618 0.0275
vn 0.6494 0.7602 0.0206
vn 0.6502 0.7591 0.0300
vn 0.5249 0.7546 0.3938
vn 0.6335 0.7667 0.1039
vn 0.5749 0.8043 0.1502
vn 0.4583 0.8165 0.3510
vn 0.8714 0.4789 0.1067
vn 0.2712 0.9625 0.0018
vn 0.5581 0.8267 0.0710
vn 0.5731 0.8024 -0.1663
vn 0.3708 0.8509 0.3721
vn 0.8650 0.3074 0.3965
vn 0.8649 0.3080 0.3963
vn 0.4099 0.9112 0.0414
vn 0.4659 0.8424 0.2709
vn 0.8812 0.4098 -0.2356
vn 0.5587 0.8294 0.0000
vn 0.6016 0.7980 0.0348
vn 0.5154 0.8283 0.2196
vn 0.5750 0.7819 -0.2408
vn 0.5965 0.8026 0.0000
vn 0.6553 0.7554 -0.0027
vn 0.6965 0.7165 -0.0399
vn 0.2712 0.9581 -0.0919
vn 0.8140 0.5578 -0.1623
vn 0.5938 0.8046 -0.0028
vn 0.5987 0.8010 0.0001
vn 0.5986 0.8010 0.0000
vn 0.2296 0.9690 0.0909
vn 0.8567 0.4668 -0.2196
vn 0.6523 0.7573 -0.0325
vn 0.5529 0.8332 0.0045
vn 0.6104 0.7818 0.1275
vn 0.5887 0.8083 0.0003
vn 0.5884 0.8086 0.0005
vn 0.5018 0.8649 -0.0140
vn 0.6632 0.7484 0.0092
vn 0.6043 0.7867 0.1265
vn 0.5807 0.8058 0.1162
vn 0.4925 0.8702 0.0130
vn 0.6968 0.7154 -0.0516
vn 0.6903 0.7228 -0.0328
vn 0.5988 0.8008 -0.0120
vn 0.5999 0.8001 -0.0002
vn 0.6430 0.7653 -0.0306
vn 0.7984 0.5980 -0.0701
vn 0.8217 0.5699 -0.0016
vn 0.8318 0.5547 0.0210
vn 0.8193 0.5633 -0.1069
vn 0.8218 0.5578 -0.1165
vn 0.8236 0.5568 -0.1081
vn 0.7961 0.5823 -0.1649
vn 0.7953 0.5840 -0.1627
vn 0.7980 0.5812 -0.1592
vn 0.7962 0.5822 -0.1646
vn 0.8621 0.4897 -0.1303
vn 0.7996 0.5789 -0.1597
vn 0.7955 0.5951 -0.1137
vn 0.8195 0.5632 -0.1062
vn 0.8192 0.5643 -0.1024
vn 0.8140 0.5617 -0.1478
vn 0.8210 0.5486 -0.1583
vn 0.6988 0.7153 0.0044
vn 0.7011 0.7130 0.0056
vn 0.7027 0.7115 0.0019
vn 0.6423 0.7661 0.0225
vn 0.6889 0.7248 0.0028
vn 0.6552 0.7546 0.0364
vn 0.6602 0.7491 0.0539
vn 0.7040 0.7102 0.0017
vn 0.7219 0.6920 -0.0077
vn 0.7945 0.6040 -0.0625
vn 0.7967 0.6015 -0.0590
vn 0.7936 0.6053 -0.0622
vn 0.7899 0.6105 -0.0578
vn 0.8419 0.5385 0.0346
vn 0.8684 0.4924 0.0581
vn 0.8927 0.4440 0.0767
vn 0.9209 0.3775 0.0974
vn 0.9355 0.3367 0.1074
vn 0.9410 0.3196 0.1110
vn 0.9459 0.3037 0.1138
vn 0.9418 0.3362 0.0001
vn 0.9418 0.3362 0.0002
vn 0.9334 0.3590 0.0001
usemtl None.128
s 1
f 1//1 3//1 2//1
f 4//2 6//3 5//4
f 4//2 5//4 7//5
f 8//6 10//6 9//6
f 8//7 9//7 11//7
f 6//3 13//8 12//9
f 6//3 12//9 5//4
f 7//5 5//4 14//10
f 3//11 15//11 2//11
f 3//12 16//13 15//14
f 17//15 19//15 18//15
f 17//16 18//16 20//16
f 21//17 23//17 22//18
f 24//19 26//19 25//19
f 24//20 27//20 26//20
f 28//21 30//21 29//21
f 28//22 31//23 30//24
f 32//25 30//26 33//27
f 32//25 34//28 30//26
f 35//29 15//30 36//31
f 35//29 2//32 15//30
f 37//33 30//34 38//35
f 37//36 39//36 30//36
f 40//37 42//37 41//37
f 40//38 41//38 43//38
f 44//39 36//31 15//30
f 45//40 30//40 39//40
f 45//41 29//41 30//41
f 46//42 26//42 27//42
f 46//43 33//43 26//43
f 47//44 49//44 48//44
f 47//45 50//45 49//45
f 51//46 52//47 41//48
f 51//46 41//48 53//49
f 42//50 53//50 41//50
f 54//51 38//35 30//34
f 54//51 30//34 34//52
f 55//53 5//53 56//53
f 55//54 57//55 5//56
f 56//57 5//58 58//59
f 12//60 58//59 5//58
f 19//61 59//61 18//61
f 59//62 11//62 60//62
f 59//63 60//63 18//63
f 20//64 41//64 61//64
f 61//64 41//64 62//64
f 63//65 65//65 64//65
f 63//65 62//65 65//65
f 64//65 65//65 66//65
f 67//66 69//66 68//66
f 68//67 71//67 70//67
f 68//68 69//68 71//68
f 70//69 71//69 72//69
f 70//70 72//70 73//70
f 73//71 75//71 74//71
f 73//72 72//72 75//72
f 76//73 77//73 30//73
f 76//73 30//73 78//73
f 79//73 78//73 30//73
f 79//73 30//73 80//73
f 80//73 30//73 81//73
f 81//73 30//73 82//73
f 82//73 30//73 83//73
f 23//17 84//17 22//18
f 85//74 87//74 86//74
f 85//75 86//76 88//77
f 85//78 88//78 43//78
f 14//10 5//4 10//79
f 85//80 5//56 57//55
f 85//81 43//81 5//81
f 5//82 89//82 11//82
f 5//83 11//83 9//83
f 11//84 89//84 60//84
f 62//85 41//85 49//85
f 62//86 49//86 65//86
f 5//87 9//87 10//87
f 60//88 89//89 43//88
f 43//90 41//90 60//90
f 74//91 75//91 26//91
f 77//73 74//73 30//73
f 18//92 60//92 41//92
f 44//93 15//93 83//93
f 44//94 30//24 31//23
f 44//95 83//95 30//95
f 67//96 25//96 69//96
f 67//97 90//98 25//99
f 91//100 92//100 49//100
f 91//101 49//101 50//101
f 92//102 93//102 49//102
f 92//103 65//103 93//103
f 84//17 15//14 22//18
f 90//104 66//105 91//106
f 71//107 69//107 26//107
f 71//108 26//108 72//108
f 72//109 26//109 75//109
f 65//110 92//110 66//110
f 66//111 92//111 91//111
f 22//18 15//14 94//112
f 15//14 16//13 94//112
f 26//113 30//113 74//113
f 26//114 33//114 30//114
f 49//115 93//115 65//115
f 43//116 89//116 5//116
f 41//117 20//117 18//117
f 48//118 41//48 52//47
f 48//119 49//119 41//119
f 25//99 90//98 95//120
f 25//121 26//121 69//121
f 96//122 97//122 86//122
f 96//123 86//123 98//123
f 86//124 99//124 98//124
f 86//125 101//125 100//125
f 86//126 103//127 102//128
f 86//126 102//128 104//129
f 103//130 106//130 105//130
f 103//127 105//131 102//128
f 103//132 86//132 97//132
f 107//133 101//134 86//135
f 107//133 86//135 108//136
f 108//137 86//137 104//137
f 108//138 104//138 109//138
f 110//139 105//139 106//139
f 110//140 111//140 105//140
f 112//141 86//142 113//143
f 112//144 88//77 86//76
f 113//143 86//142 114//145
f 115//146 43//146 88//146
f 115//147 40//147 43//147
f 116//148 114//145 86//142
f 116//149 86//149 117//149
f 117//150 86//151 118//152
f 118//152 86//151 100//153
f 105//154 111//154 119//154
f 99//155 86//155 120//155
f 120//156 86//156 121//156
f 122//157 121//157 86//157
f 123//158 122//158 86//158
f 123//159 86//159 124//159
f 124//160 86//160 125//160
f 87//161 125//161 86//161
f 91//162 126//163 95//164
f 91//106 95//106 90//104
f 109//165 104//165 127//165
f 128//166 130//166 129//166
f 131//167 133//168 132//169
f 131//170 134//171 133//172
f 135//173 137//173 136//173
f 135//174 138//174 137//174
f 132//175 140//175 139//175
f 132//169 133//168 140//176
f 134//171 141//177 133//172
f 129//178 130//178 142//178
f 129//179 142//180 143//181
f 144//182 146//182 145//182
f 144//183 147//183 146//183
f 148//184 150//184 149//184
f 151//185 153//186 152//187
f 151//188 152//188 154//188
f 155//189 157//189 156//189
f 155//190 156//191 158//192
f 159//193 160//194 156//195
f 159//193 156//195 161//196
f 162//197 163//198 142//199
f 162//197 142//199 130//200
f 164//201 165//202 156//203
f 164//204 156//204 166//204
f 167//205 169//205 168//205
f 167//206 170//206 169//206
f 171//207 142//199 163//198
f 172//208 166//208 156//208
f 172//209 156//209 157//209
f 173//210 154//210 152//210
f 173//211 152//211 160//211
f 174//212 176//213 175//214
f 174//215 175//215 177//215
f 178//216 169//217 179//218
f 178//216 180//219 169//217
f 168//220 169//220 180//220
f 181//221 156//203 165//202
f 181//221 161//222 156//203
f 182//223 183//223 133//223
f 182//224 133//225 184//226
f 183//227 185//228 133//229
f 140//230 133//229 185//228
f 145//231 146//231 186//231
f 186//232 187//232 138//232
f 186//233 146//233 187//233
f 147//234 188//234 169//234
f 188//234 189//234 169//234
f 190//235 192//235 191//236
f 190//235 191//236 189//235
f 192//235 193//237 191//236
f 194//238 196//238 195//238
f 196//239 198//239 197//239
f 196//240 197//240 195//240
f 198//241 199//241 197//241
f 198//242 200//242 199//242
f 200//243 202//243 201//243
f 200//244 201//244 199//244
f 203//245 156//245 204//245
f 203//245 205//245 156//245
f 206//245 156//245 205//245
f 206//245 207//245 156//245
f 207//245 208//245 156//245
f 208//245 209//245 156//245
f 209//245 210//245 156//245
f 149//184 150//184 211//184
f 212//246 214//246 213//246
f 212//247 215//248 214//249
f 212//247 170//250 215//248
f 141//177 136//251 133//172
f 212//252 184//226 133//225
f 212//253 133//253 170//253
f 133//254 138//254 216//254
f 133//255 137//255 138//255
f 138//256 187//256 216//256
f 189//257 175//257 169//257
f 189//258 191//258 175//258
f 133//259 136//259 137//259
f 187//260 170//260 216//261
f 170//262 187//262 169//262
f 202//263 152//263 201//263
f 204//245 156//245 202//245
f 146//264 169//264 187//264
f 171//265 210//265 142//265
f 171//266 158//192 156//191
f 171//267 156//267 210//267
f 194//268 195//268 153//268
f 194//269 153//269 217//269
f 218//270 175//270 219//270
f 218//271 177//271 175//271
f 219//272 175//272 220//272
f 219//273 220//273 191//273
f 211//184 150//184 142//184
f 217//274 218//275 193//276
f 197//277 152//277 195//277
f 197//278 199//278 152//278
f 199//279 201//279 152//279
f 191//236 193//237 219//280
f 193//281 218//281 219//281
f 150//282 221//283 142//180
f 142//180 221//283 143//181
f 152//284 202//284 156//284
f 152//285 156//285 160//285
f 175//286 191//286 220//286
f 170//287 133//287 216//287
f 169//288 146//288 147//288
f 176//289 179//218 169//217
f 176//213 169//290 175//214
f 153//291 222//292 217//274
f 153//186 195//293 152//187
f 223//294 214//294 224//294
f 223//295 225//295 214//295
f 214//296 225//296 226//296
f 214//297 228//298 227//299
f 214//300 102//301 229//302
f 214//300 104//303 102//301
f 229//304 105//304 230//304
f 229//302 102//301 105//305
f 229//306 224//306 214//306
f 231//307 214//297 227//299
f 231//308 127//308 214//308
f 127//309 104//309 214//309
f 119//310 230//310 105//310
f 232//311 233//312 214//313
f 232//314 214//314 215//314
f 233//312 234//315 214//313
f 235//316 215//316 170//316
f 235//317 170//317 167//317
f 236//318 214//313 234//315
f 236//319 237//319 214//319
f 237//320 238//321 214//322
f 238//321 228//323 214//322
f 226//324 239//324 214//324
f 239//325 240//325 214//325
f 241//326 214//326 240//326
f 242//327 214//327 241//327
f 242//328 243//328 214//328
f 243//329 244//329 214//329
f 213//330 214//330 244//330
f 218//331 222//332 245//333
f 218//275 217//274 222//292
