# Blender v2.79 (sub 0) OBJ File: ''
# www.blender.org
mtllib crack_restart_keyway_605.mtl
o crack_restart_keyway_605
v 0.073408 -0.113184 -0.472461
v 0.072968 -0.113338 -0.459453
v 0.084718 -0.121355 -0.472461
v 0.147229 -0.162037 -0.087630
v 0.152177 -0.169049 -0.080801
v 0.150739 -0.164618 -0.087287
v 0.134422 -0.160633 -0.075720
v 0.143382 -0.159202 -0.088100
v 0.131068 -0.149873 -0.089874
v 0.127483 -0.150692 -0.086891
v 0.135346 -0.153091 -0.089202
v 0.126540 -0.147825 -0.091832
v 0.154210 -0.167189 -0.086931
v 0.139576 -0.156329 -0.088626
v 0.120406 -0.147382 -0.426347
v 0.095849 -0.129436 -0.472461
v 0.120406 -0.147382 -0.103551
v 0.115965 -0.144850 -0.090503
v 0.120866 -0.146923 -0.098614
v 0.106630 -0.141614 -0.120721
v 0.120406 -0.147382 -0.118922
v 0.120406 -0.147382 -0.472461
v 0.108139 -0.138400 -0.472461
v 0.120406 -0.147382 -0.457089
v 0.073524 -0.113102 -0.238326
v 0.073865 -0.112775 -0.225319
v 0.090632 -0.132125 -0.376755
v 0.073156 -0.113220 -0.251334
v 0.070728 -0.114914 -0.394416
v 0.070080 -0.115153 -0.381408
v 0.120406 -0.147382 -0.395604
v 0.070949 -0.114607 -0.407423
v 0.072646 -0.113724 -0.446446
v 0.071888 -0.114017 -0.433438
v 0.071824 -0.114308 -0.342386
v 0.070490 -0.114895 -0.355393
v 0.071545 -0.114232 -0.329378
v 0.071507 -0.114483 -0.420431
v 0.070610 -0.114979 -0.368401
v 0.073086 -0.113413 -0.264341
v 0.072650 -0.113538 -0.277349
v 0.076404 -0.111179 -0.121259
v 0.075637 -0.111603 -0.134267
v 0.076891 -0.110713 -0.108252
v 0.071646 -0.114406 -0.316371
v 0.071668 -0.114155 -0.303364
v 0.074065 -0.112718 -0.212311
v 0.074033 -0.112669 -0.199304
v 0.146761 -0.173743 -0.061420
v 0.148173 -0.172562 -0.068131
v 0.132131 -0.163771 -0.053982
v 0.145579 -0.174594 -0.050738
v 0.150258 -0.170751 -0.074818
v 0.122213 -0.145575 -0.094013
v 0.120406 -0.147382 -0.134293
v 0.120406 -0.147382 -0.180407
v 0.120406 -0.147382 -0.195778
v 0.120406 -0.147382 -0.165036
v 0.120406 -0.147382 -0.211149
v 0.120406 -0.147382 -0.226521
v 0.120406 -0.147382 -0.241892
v 0.120406 -0.147382 -0.257263
v 0.120406 -0.147382 -0.272634
v 0.120406 -0.147382 -0.288006
v 0.120406 -0.147382 -0.349490
v 0.120406 -0.147382 -0.334119
v 0.120406 -0.147382 -0.364862
v 0.120406 -0.147382 -0.380233
v 0.120406 -0.147382 -0.441718
v 0.144271 -0.175219 -0.040587
v 0.076001 -0.111350 -0.096383
v 0.074670 -0.112041 -0.081618
v 0.071111 -0.113754 -0.028840
v 0.120406 -0.147382 -0.149664
v 0.120406 -0.147382 -0.303377
v 0.120406 -0.147382 -0.410975
v 0.074064 -0.112719 -0.186296
v 0.074523 -0.112361 -0.173289
v 0.074743 -0.112331 -0.164967
v 0.075041 -0.112159 -0.153636
v 0.103565 -0.135061 -0.472461
v 0.120406 -0.147382 -0.318748
v 0.072267 -0.113994 -0.290356
v 0.075305 -0.111911 -0.145143
v 0.068603 -0.114922 0.079175
v 0.069478 -0.112624 0.106109
v 0.084855 -0.131169 0.159367
v 0.067856 -0.114234 0.052178
v 0.071387 -0.113580 0.132731
v 0.070332 -0.113407 0.145198
v 0.076781 -0.121624 0.151673
v 0.100609 -0.150016 0.169620
v 0.130262 -0.185244 0.099152
v 0.129289 -0.185970 0.134720
v 0.129809 -0.185453 0.108677
v 0.129386 -0.185818 0.145373
v 0.115701 -0.167565 0.179270
v 0.130465 -0.185070 0.182676
v 0.129386 -0.185818 0.145373
v 0.068396 -0.113140 -0.001445
v 0.069254 -0.114921 0.029897
v 0.142486 -0.175977 -0.027702
v 0.132717 -0.183407 0.065960
v 0.131466 -0.184565 0.083106
v 0.136937 -0.180545 0.022326
v 0.140526 -0.177654 -0.010566
v 0.071126 -0.111628 -0.054991
v 0.071387 -0.113580 0.132731
v 0.073408 -0.113184 -0.472461
v 0.084718 -0.121355 -0.472461
v 0.072968 -0.113338 -0.459453
v 0.147229 -0.162037 -0.087630
v 0.150739 -0.164618 -0.087287
v 0.152177 -0.169049 -0.080801
v 0.134422 -0.160633 -0.075720
v 0.143382 -0.159202 -0.088100
v 0.131068 -0.149873 -0.089874
v 0.135346 -0.153091 -0.089202
v 0.127483 -0.150692 -0.086891
v 0.126540 -0.147825 -0.091832
v 0.154210 -0.167189 -0.086931
v 0.139576 -0.156329 -0.088626
v 0.120406 -0.147382 -0.426347
v 0.095849 -0.129436 -0.472461
v 0.120406 -0.147382 -0.103551
v 0.120866 -0.146923 -0.098614
v 0.115965 -0.144850 -0.090503
v 0.106630 -0.141614 -0.120721
v 0.120406 -0.147382 -0.118922
v 0.120406 -0.147382 -0.472461
v 0.120406 -0.147382 -0.457089
v 0.108139 -0.138400 -0.472461
v 0.073524 -0.113102 -0.238326
v 0.090632 -0.132125 -0.376755
v 0.073865 -0.112775 -0.225319
v 0.073156 -0.113220 -0.251334
v 0.070728 -0.114914 -0.394416
v 0.120406 -0.147382 -0.395604
v 0.070080 -0.115153 -0.381408
v 0.070949 -0.114607 -0.407423
v 0.072646 -0.113724 -0.446446
v 0.071888 -0.114017 -0.433438
v 0.071824 -0.114308 -0.342386
v 0.070490 -0.114895 -0.355393
v 0.071545 -0.114232 -0.329378
v 0.071507 -0.114483 -0.420431
v 0.070610 -0.114979 -0.368401
v 0.073086 -0.113413 -0.264341
v 0.072650 -0.113538 -0.277349
v 0.076404 -0.111179 -0.121259
v 0.075637 -0.111603 -0.134267
v 0.076891 -0.110713 -0.108252
v 0.071646 -0.114406 -0.316371
v 0.071668 -0.114155 -0.303364
v 0.074065 -0.112718 -0.212311
v 0.074033 -0.112669 -0.199304
v 0.146761 -0.173743 -0.061420
v 0.132131 -0.163771 -0.053982
v 0.148173 -0.172562 -0.068131
v 0.145579 -0.174594 -0.050738
v 0.150258 -0.170751 -0.074818
v 0.122213 -0.145575 -0.094013
v 0.120406 -0.147382 -0.134293
v 0.120406 -0.147382 -0.180407
v 0.120406 -0.147382 -0.195778
v 0.120406 -0.147382 -0.165036
v 0.120406 -0.147382 -0.211149
v 0.120406 -0.147382 -0.226521
v 0.120406 -0.147382 -0.241892
v 0.120406 -0.147382 -0.257263
v 0.120406 -0.147382 -0.272634
v 0.120406 -0.147382 -0.288006
v 0.120406 -0.147382 -0.349490
v 0.120406 -0.147382 -0.334119
v 0.120406 -0.147382 -0.364862
v 0.120406 -0.147382 -0.380233
v 0.120406 -0.147382 -0.441718
v 0.144271 -0.175219 -0.040587
v 0.074670 -0.112041 -0.081618
v 0.076001 -0.111350 -0.096383
v 0.071111 -0.113754 -0.028840
v 0.120406 -0.147382 -0.149664
v 0.120406 -0.147382 -0.303377
v 0.120406 -0.147382 -0.410975
v 0.074064 -0.112719 -0.186296
v 0.074523 -0.112361 -0.173289
v 0.074743 -0.112331 -0.164967
v 0.075041 -0.112159 -0.153636
v 0.103565 -0.135061 -0.472461
v 0.120406 -0.147382 -0.318748
v 0.072267 -0.113994 -0.290356
v 0.075305 -0.111911 -0.145143
v 0.068603 -0.114922 0.079175
v 0.069478 -0.112624 0.106109
v 0.067856 -0.114234 0.052178
v 0.130262 -0.185244 0.099152
v 0.129289 -0.185970 0.134720
v 0.129809 -0.185453 0.108677
v 0.068396 -0.113140 -0.001445
v 0.069254 -0.114921 0.029897
v 0.142486 -0.175977 -0.027702
v 0.132717 -0.183407 0.065960
v 0.131466 -0.184565 0.083106
v 0.136937 -0.180545 0.022326
v 0.140526 -0.177654 -0.010566
v 0.071126 -0.111628 -0.054991
vn -0.5854 -0.8102 -0.0294
vn -0.5166 -0.7560 -0.4019
vn -0.5178 -0.7551 -0.4022
vn -0.5169 -0.7561 -0.4015
vn -0.4843 -0.7614 -0.4310
vn -0.4955 -0.7461 -0.4448
vn -0.4963 -0.7452 -0.4454
vn -0.4991 -0.7436 -0.4450
vn -0.3900 -0.6539 -0.6483
vn -0.1898 -0.8645 -0.4654
vn -0.5183 -0.7553 -0.4011
vn -0.5016 -0.7405 -0.4473
vn -0.5756 -0.8176 -0.0160
vn -0.5875 -0.8092 -0.0021
vn -0.5888 -0.8082 -0.0022
vn -0.5882 -0.8087 -0.0013
vn -0.2257 -0.9679 0.1110
vn -0.4205 -0.9067 0.0328
vn -0.3862 -0.9224 0.0000
vn -0.5908 -0.8068 0.0000
vn -0.5908 -0.8068 -0.0005
vn -0.5994 -0.7997 0.0358
vn -0.6453 -0.7635 0.0252
vn -0.5479 -0.8360 -0.0293
vn -0.5472 -0.8363 -0.0344
vn -0.5473 -0.8358 -0.0426
vn -0.5471 -0.8366 -0.0291
vn -0.5646 -0.8239 -0.0502
vn -0.5619 -0.8262 -0.0399
vn -0.5606 -0.8268 -0.0464
vn -0.5860 -0.8046 0.0964
vn -0.6980 -0.7160 -0.0108
vn -0.6904 -0.7234 -0.0046
vn -0.6857 -0.7278 -0.0092
vn -0.5615 -0.8262 -0.0460
vn -0.6507 -0.7593 -0.0011
vn -0.6412 -0.7665 0.0364
vn -0.6845 -0.7289 0.0145
vn -0.6371 -0.7702 0.0288
vn -0.7106 -0.7017 0.0522
vn -0.7086 -0.7026 0.0647
vn -0.7089 -0.7030 0.0582
vn -0.7090 -0.7033 0.0517
vn -0.6896 -0.7242 -0.0043
vn -0.6551 -0.7554 0.0157
vn -0.6993 -0.7146 0.0139
vn -0.7584 -0.6518 0.0006
vn -0.7608 -0.6490 -0.0000
vn -0.7675 -0.6411 0.0003
vn -0.6308 -0.7306 -0.2613
vn -0.6026 -0.7875 -0.1294
vn -0.6030 -0.7872 -0.1293
vn -0.6034 -0.7868 -0.1297
vn -0.6798 -0.6263 -0.3816
vn -0.6877 -0.6097 -0.3940
vn 0.0401 -0.9620 0.2701
vn -0.2940 -0.8938 -0.3387
vn -0.4560 -0.8900 0.0000
vn -0.5043 -0.7384 -0.4477
vn -0.7053 -0.6873 -0.1736
vn -0.6008 -0.7893 -0.1266
vn -0.7383 -0.6675 -0.0970
vn -0.7377 -0.6680 -0.0978
vn -0.7388 -0.6676 -0.0922
vn -0.2941 -0.8500 -0.4371
vn -0.4741 -0.8752 0.0964
vn -0.3812 -0.7955 -0.4711
vn -0.5071 -0.8595 0.0646
vn -0.5582 -0.8297 0.0000
vn -0.5469 -0.8366 -0.0314
vn -0.6808 -0.7323 0.0154
vn -0.7637 -0.6455 -0.0007
vn -0.7116 -0.7012 0.0444
vn -0.4088 -0.9126 -0.0083
vn -0.6927 -0.7209 0.0217
vn -0.6896 -0.7236 0.0275
vn -0.6918 -0.7218 0.0209
vn -0.6978 -0.7157 0.0292
vn -0.5648 -0.8244 -0.0384
vn -0.4620 -0.8696 -0.1742
vn -0.5893 -0.8079 -0.0007
vn -0.5725 -0.7703 -0.2809
vn -0.7357 -0.6712 -0.0912
vn -0.5849 -0.8098 0.0456
vn -0.7048 -0.7081 0.0419
vn -0.7047 -0.7082 0.0426
vn -0.7047 -0.7082 0.0424
vn -0.7044 -0.7086 0.0416
vn -0.8587 -0.5075 0.0712
vn -0.7114 -0.7028 0.0018
vn -0.8206 -0.5702 0.0384
vn -0.7636 -0.6432 -0.0557
vn -0.7272 -0.6815 -0.0823
vn -0.7668 -0.6419 -0.0018
vn -0.7945 -0.6067 -0.0279
vn -0.7740 -0.6330 0.0161
vn -0.7672 -0.6405 0.0351
vn -0.7673 -0.6403 0.0350
vn 0.7672 0.6404 -0.0351
vn 0.7672 0.6405 -0.0351
vn 0.7673 0.6403 -0.0350
vn -0.5932 -0.8045 -0.0295
vn -0.6489 -0.7606 -0.0173
vn -0.6008 -0.7888 -0.1296
vn -0.8149 -0.5713 -0.0980
vn -0.8270 -0.5502 -0.1161
vn -0.8477 -0.5124 -0.1375
vn -0.5787 -0.8026 -0.1447
vn -0.6676 -0.7443 -0.0151
vn -0.6693 -0.7413 -0.0497
vn -0.6570 -0.7456 -0.1114
vn -0.8078 -0.5833 -0.0853
vn -0.6682 -0.7190 -0.1914
vn -0.7046 -0.7073 -0.0579
vn -0.7318 -0.6759 -0.0869
vn -0.6065 -0.7942 0.0378
vn -0.8123 -0.5810 -0.0514
vn 0.7636 0.6432 0.0557
vn 0.7272 0.6815 0.0823
vn 0.5854 0.8102 0.0294
vn 0.5166 0.7560 0.4019
vn 0.4843 0.7614 0.4310
vn 0.4955 0.7461 0.4448
vn 0.4991 0.7436 0.4450
vn 0.4964 0.7452 0.4454
vn 0.3900 0.6539 0.6483
vn 0.1898 0.8645 0.4654
vn 0.5183 0.7553 0.4011
vn 0.5016 0.7405 0.4473
vn 0.5756 0.8176 0.0160
vn 0.5875 0.8092 0.0021
vn 0.5894 0.8079 0.0005
vn 0.5888 0.8082 0.0022
vn 0.2257 0.9679 -0.1110
vn 0.4205 0.9067 -0.0328
vn 0.3862 0.9224 0.0000
vn 0.5908 0.8068 0.0000
vn 0.5994 0.7997 -0.0358
vn 0.6453 0.7635 -0.0252
vn 0.5479 0.8360 0.0292
vn 0.5473 0.8358 0.0426
vn 0.5472 0.8363 0.0344
vn 0.5471 0.8366 0.0291
vn 0.5646 0.8238 0.0503
vn 0.5606 0.8268 0.0464
vn 0.5619 0.8262 0.0399
vn 0.5860 0.8046 -0.0964
vn 0.6980 0.7160 0.0108
vn 0.6858 0.7278 0.0092
vn 0.6904 0.7234 0.0046
vn 0.5615 0.8262 0.0460
vn 0.6507 0.7593 0.0011
vn 0.6412 0.7665 -0.0364
vn 0.6845 0.7289 -0.0145
vn 0.6371 0.7702 -0.0288
vn 0.7106 0.7017 -0.0521
vn 0.7089 0.7030 -0.0582
vn 0.7086 0.7026 -0.0647
vn 0.7090 0.7033 -0.0517
vn 0.6896 0.7242 0.0043
vn 0.6551 0.7554 -0.0157
vn 0.6993 0.7146 -0.0139
vn 0.7584 0.6518 -0.0006
vn 0.7675 0.6411 -0.0003
vn 0.7608 0.6490 0.0000
vn 0.6308 0.7306 0.2613
vn 0.6026 0.7875 0.1294
vn 0.6034 0.7868 0.1297
vn 0.6030 0.7872 0.1293
vn 0.6798 0.6263 0.3816
vn 0.6877 0.6097 0.3940
vn -0.0401 0.9620 -0.2701
vn 0.2940 0.8938 0.3387
vn 0.4560 0.8900 0.0000
vn 0.5043 0.7384 0.4477
vn 0.7053 0.6873 0.1736
vn 0.6008 0.7893 0.1266
vn 0.7383 0.6675 0.0970
vn 0.7388 0.6676 0.0922
vn 0.7377 0.6680 0.0978
vn 0.2941 0.8500 0.4371
vn 0.4741 0.8752 -0.0964
vn 0.3812 0.7955 0.4711
vn 0.5071 0.8595 -0.0646
vn 0.5582 0.8297 0.0000
vn 0.5469 0.8366 0.0314
vn 0.6808 0.7323 -0.0154
vn 0.7637 0.6455 0.0007
vn 0.7116 0.7012 -0.0444
vn 0.4088 0.9126 0.0083
vn 0.6927 0.7209 -0.0217
vn 0.6918 0.7218 -0.0209
vn 0.6897 0.7236 -0.0274
vn 0.6978 0.7157 -0.0292
vn 0.5648 0.8244 0.0384
vn 0.4620 0.8696 0.1742
vn 0.5896 0.8077 0.0005
vn 0.5893 0.8079 0.0007
vn 0.5725 0.7703 0.2809
vn 0.7357 0.6712 0.0912
vn 0.5849 0.8098 -0.0456
vn 0.7048 0.7081 -0.0419
vn 0.7047 0.7082 -0.0424
vn 0.7047 0.7082 -0.0426
vn 0.7044 0.7086 -0.0416
vn 0.8587 0.5075 -0.0712
vn 0.7114 0.7028 -0.0018
vn 0.8206 0.5702 -0.0384
vn 0.7668 0.6419 0.0018
vn 0.7945 0.6067 0.0279
vn 0.7740 0.6330 -0.0161
vn 0.5932 0.8045 0.0295
vn 0.6489 0.7606 0.0173
vn 0.6008 0.7888 0.1296
vn 0.8149 0.5713 0.0980
vn 0.8270 0.5502 0.1161
vn 0.8477 0.5124 0.1375
vn 0.5787 0.8026 0.1447
vn 0.6676 0.7443 0.0151
vn 0.6693 0.7413 0.0497
vn 0.6570 0.7456 0.1114
vn 0.8078 0.5833 0.0853
vn 0.6682 0.7190 0.1914
vn 0.7046 0.7073 0.0579
vn 0.7318 0.6759 0.0869
vn 0.6065 0.7942 -0.0378
vn 0.8123 0.5810 0.0514
usemtl None.114
s 1
f 1//1 3//1 2//1
f 4//2 6//3 5//4
f 4//5 5//5 7//5
f 4//6 7//7 8//8
f 9//9 11//9 10//9
f 9//10 10//10 12//10
f 6//3 13//11 5//4
f 8//8 7//7 14//12
f 3//13 15//13 2//13
f 3//14 16//15 15//16
f 17//17 19//17 18//17
f 17//18 18//18 20//18
f 17//19 20//19 21//19
f 22//20 24//20 23//21
f 25//22 27//22 26//22
f 25//23 28//23 27//23
f 29//24 31//25 30//26
f 29//24 32//27 31//25
f 33//28 15//29 34//30
f 35//31 36//31 27//31
f 35//32 27//33 37//34
f 38//35 34//30 15//29
f 39//36 27//36 36//36
f 39//37 30//37 27//37
f 40//38 27//38 28//38
f 40//39 41//39 27//39
f 42//40 43//41 20//42
f 42//40 20//42 44//43
f 45//44 37//34 27//33
f 45//45 27//45 46//45
f 47//46 26//46 27//46
f 47//47 27//48 48//49
f 49//50 51//50 50//50
f 49//51 52//52 51//53
f 50//54 51//54 53//54
f 53//55 51//55 5//55
f 19//56 54//56 18//56
f 54//57 12//57 18//57
f 21//19 20//19 55//19
f 56//58 27//58 57//58
f 56//58 58//58 27//58
f 57//58 27//58 59//58
f 59//58 27//58 60//58
f 60//58 27//58 61//58
f 61//58 27//58 62//58
f 62//58 27//58 63//58
f 63//58 27//58 64//58
f 65//58 66//58 27//58
f 65//58 27//58 67//58
f 67//58 27//58 68//58
f 68//58 27//58 31//58
f 24//20 69//20 23//21
f 14//12 7//7 11//59
f 51//60 10//60 7//60
f 51//53 52//52 70//61
f 20//62 72//63 71//64
f 12//65 10//65 18//65
f 10//66 73//66 18//66
f 74//19 55//19 20//19
f 74//19 20//19 58//19
f 7//67 10//67 11//67
f 18//68 73//68 20//68
f 64//58 27//58 75//58
f 38//69 15//69 76//69
f 38//70 31//25 32//27
f 38//69 76//69 31//69
f 77//71 27//71 20//71
f 77//72 48//49 27//48
f 77//73 20//73 78//73
f 20//74 27//74 58//74
f 20//75 79//76 78//77
f 20//75 80//78 79//76
f 33//28 2//79 15//29
f 69//20 15//16 23//21
f 5//80 51//80 7//80
f 23//21 15//16 81//81
f 15//16 16//15 81//81
f 66//58 82//58 27//58
f 31//82 27//82 30//82
f 44//83 20//62 71//64
f 82//58 75//58 27//58
f 83//84 27//84 41//84
f 84//85 80//86 20//87
f 84//85 20//87 43//88
f 85//89 87//89 86//89
f 85//90 88//90 87//90
f 89//91 86//91 87//91
f 89//92 91//92 90//92
f 89//93 87//93 91//93
f 87//94 93//94 92//94
f 94//95 92//95 95//95
f 94//96 96//96 92//96
f 96//97 97//97 92//97
f 96//98 98//98 97//98
f 97//99 99//99 92//100
f 97//99 98//101 99//99
f 100//102 87//102 101//102
f 101//103 87//103 88//103
f 70//61 102//104 51//53
f 103//105 104//105 87//105
f 105//106 103//106 87//106
f 105//107 87//107 106//107
f 102//108 106//108 51//108
f 106//109 87//109 100//109
f 106//110 100//110 73//110
f 106//111 73//111 51//111
f 87//112 104//112 93//112
f 51//113 73//113 10//113
f 107//114 20//114 73//114
f 107//115 72//115 20//115
f 27//116 83//116 46//116
f 92//117 93//117 95//117
f 91//118 108//118 90//118
f 91//119 87//119 108//119
f 109//120 111//120 110//120
f 112//121 114//121 113//121
f 112//122 115//122 114//122
f 112//123 116//124 115//125
f 117//126 119//126 118//126
f 117//127 120//127 119//127
f 113//128 114//128 121//128
f 116//124 122//129 115//125
f 110//130 111//130 123//130
f 110//131 123//132 124//133
f 125//134 127//134 126//134
f 125//135 128//135 127//135
f 125//136 129//136 128//136
f 130//137 132//137 131//137
f 133//138 135//138 134//138
f 133//139 134//139 136//139
f 137//140 139//141 138//142
f 137//140 138//142 140//143
f 141//144 142//145 123//146
f 143//147 134//147 144//147
f 143//148 145//149 134//150
f 146//151 123//146 142//145
f 147//152 144//152 134//152
f 147//153 134//153 139//153
f 148//154 136//154 134//154
f 148//155 134//155 149//155
f 150//156 128//157 151//158
f 150//156 152//159 128//157
f 153//160 134//150 145//149
f 153//161 154//161 134//161
f 155//162 134//162 135//162
f 155//163 156//164 134//165
f 157//166 159//166 158//166
f 157//167 158//168 160//169
f 159//170 161//170 158//170
f 161//171 114//171 158//171
f 126//172 127//172 162//172
f 162//173 127//173 120//173
f 129//136 163//136 128//136
f 164//174 165//174 134//174
f 164//174 134//174 166//174
f 165//174 167//174 134//174
f 167//174 168//174 134//174
f 168//174 169//174 134//174
f 169//174 170//174 134//174
f 170//174 171//174 134//174
f 171//174 172//174 134//174
f 173//174 134//174 174//174
f 173//174 175//174 134//174
f 175//174 176//174 134//174
f 176//174 138//174 134//174
f 131//137 132//137 177//137
f 122//129 118//175 115//125
f 158//176 115//176 119//176
f 158//168 178//177 160//169
f 128//178 180//179 179//180
f 120//181 127//181 119//181
f 119//182 127//182 181//182
f 182//136 128//136 163//136
f 182//136 166//136 128//136
f 115//183 118//183 119//183
f 127//184 128//184 181//184
f 172//174 183//174 134//174
f 146//185 184//185 123//185
f 146//186 140//143 138//142
f 146//185 138//185 184//185
f 185//187 128//187 134//187
f 185//188 134//165 156//164
f 185//189 186//189 128//189
f 128//190 166//190 134//190
f 128//191 186//192 187//193
f 128//191 187//193 188//194
f 141//144 123//146 111//195
f 177//137 132//137 123//137
f 114//196 115//196 158//196
f 132//197 189//198 123//132
f 123//132 189//198 124//133
f 174//174 134//174 190//174
f 138//199 139//199 134//199
f 152//200 180//179 128//178
f 190//174 134//174 183//174
f 191//201 149//201 134//201
f 192//202 128//203 188//204
f 192//202 151//205 128//203
f 193//206 194//206 87//206
f 193//207 87//207 195//207
f 108//208 87//208 194//208
f 87//209 92//209 196//209
f 197//210 198//210 92//210
f 197//211 92//211 99//211
f 199//212 200//212 87//212
f 200//213 195//213 87//213
f 178//177 158//168 201//214
f 202//215 87//215 203//215
f 204//216 87//216 202//216
f 204//217 205//217 87//217
f 201//218 158//218 205//218
f 205//219 199//219 87//219
f 205//220 181//220 199//220
f 205//221 158//221 181//221
f 87//222 196//222 203//222
f 158//223 119//223 181//223
f 206//224 181//224 128//224
f 206//225 128//225 179//225
f 134//226 154//226 191//226
f 92//227 198//227 196//227
