# Blender v2.79 (sub 0) OBJ File: ''
# www.blender.org
mtllib crack_restart_keyway_595.mtl
o crack_restart_keyway_595
v 0.073415 -0.113179 -0.472461
v 0.072971 -0.113336 -0.459453
v 0.084726 -0.121349 -0.472461
v 0.147229 -0.162037 -0.087630
v 0.152177 -0.169049 -0.080801
v 0.150740 -0.164617 -0.087286
v 0.124874 -0.152606 -0.079167
v 0.143382 -0.159202 -0.088100
v 0.131068 -0.149873 -0.089874
v 0.127481 -0.150694 -0.086893
v 0.135344 -0.153092 -0.089205
v 0.126540 -0.147825 -0.091832
v 0.154210 -0.167189 -0.086931
v 0.139574 -0.156330 -0.088628
v 0.120406 -0.147382 -0.426347
v 0.095855 -0.129431 -0.472461
v 0.120406 -0.147382 -0.103551
v 0.115965 -0.144850 -0.090503
v 0.120866 -0.146923 -0.098614
v 0.120406 -0.147382 -0.118922
v 0.120406 -0.147382 -0.472461
v 0.108143 -0.138397 -0.472461
v 0.120406 -0.147382 -0.457089
v 0.073518 -0.113106 -0.238326
v 0.073868 -0.112773 -0.225319
v 0.094953 -0.133274 -0.288836
v 0.073151 -0.113223 -0.251334
v 0.070731 -0.114912 -0.394416
v 0.070036 -0.115181 -0.381408
v 0.120406 -0.147382 -0.395604
v 0.070946 -0.114609 -0.407423
v 0.072277 -0.113987 -0.290356
v 0.072654 -0.113536 -0.277349
v 0.071728 -0.114118 -0.303364
v 0.072651 -0.113721 -0.446446
v 0.071887 -0.114018 -0.433438
v 0.071824 -0.114308 -0.342386
v 0.071537 -0.114237 -0.329378
v 0.120406 -0.147382 -0.318748
v 0.070450 -0.114921 -0.355393
v 0.071502 -0.114486 -0.420431
v 0.070616 -0.114976 -0.368401
v 0.090632 -0.132125 -0.376755
v 0.073084 -0.113414 -0.264341
v 0.076420 -0.111169 -0.121259
v 0.075620 -0.111615 -0.134267
v 0.076925 -0.110689 -0.108252
v 0.071644 -0.114407 -0.316371
v 0.146748 -0.173755 -0.061422
v 0.148174 -0.172562 -0.068130
v 0.145526 -0.174637 -0.050699
v 0.150253 -0.170756 -0.074821
v 0.122213 -0.145575 -0.094013
v 0.120406 -0.147382 -0.134293
v 0.120406 -0.147382 -0.180407
v 0.120406 -0.147382 -0.195778
v 0.074071 -0.112714 -0.186296
v 0.120406 -0.147382 -0.165036
v 0.120406 -0.147382 -0.211149
v 0.120406 -0.147382 -0.226521
v 0.120406 -0.147382 -0.241892
v 0.104904 -0.139355 -0.237469
v 0.120406 -0.147382 -0.257263
v 0.106798 -0.138525 -0.251569
v 0.104076 -0.139933 -0.265445
v 0.120406 -0.147382 -0.272634
v 0.120406 -0.147382 -0.288006
v 0.104167 -0.140683 -0.280926
v 0.120406 -0.147382 -0.349490
v 0.120406 -0.147382 -0.334119
v 0.120406 -0.147382 -0.364862
v 0.120406 -0.147382 -0.380233
v 0.120406 -0.147382 -0.441718
v 0.098840 -0.137058 -0.056831
v 0.144158 -0.175308 -0.040516
v 0.074692 -0.112023 -0.081618
v 0.110677 -0.145012 -0.068797
v 0.076034 -0.111330 -0.096360
v 0.120406 -0.147382 -0.149664
v 0.120406 -0.147382 -0.303377
v 0.120406 -0.147382 -0.410975
v 0.074068 -0.112716 -0.212311
v 0.074537 -0.112353 -0.173289
v 0.074750 -0.112326 -0.164980
v 0.075047 -0.112155 -0.153624
v 0.103563 -0.135052 -0.472461
v 0.075306 -0.111910 -0.145120
v 0.068582 -0.114932 0.079175
v 0.132372 -0.183672 0.066142
v 0.067262 -0.114708 0.052180
v 0.069651 -0.112540 0.106110
v 0.067749 -0.115346 0.025596
v 0.068025 -0.113319 -0.001445
v 0.089237 -0.137344 0.145950
v 0.071067 -0.113574 0.130466
v 0.069651 -0.112540 0.106110
v 0.129026 -0.186125 0.138946
v 0.114158 -0.168055 0.162150
v 0.129232 -0.185821 0.167963
v 0.129026 -0.186125 0.138946
v 0.071060 -0.111681 -0.054991
v 0.070927 -0.113869 -0.029224
v 0.142302 -0.176125 -0.027682
v 0.131205 -0.184762 0.082878
v 0.129985 -0.185450 0.099123
v 0.135446 -0.181816 0.033912
v 0.137058 -0.180423 0.018530
v 0.140376 -0.177775 -0.010722
v 0.074038 -0.112666 -0.199304
v 0.129266 -0.185777 0.114641
v 0.129510 -0.185678 0.108416
v 0.099393 -0.150265 0.153474
v 0.073415 -0.113179 -0.472461
v 0.084726 -0.121349 -0.472461
v 0.072971 -0.113336 -0.459453
v 0.147229 -0.162037 -0.087630
v 0.150740 -0.164617 -0.087286
v 0.152177 -0.169049 -0.080801
v 0.124874 -0.152606 -0.079167
v 0.143382 -0.159202 -0.088100
v 0.131068 -0.149873 -0.089874
v 0.135344 -0.153092 -0.089205
v 0.127481 -0.150694 -0.086893
v 0.126540 -0.147825 -0.091832
v 0.154210 -0.167189 -0.086931
v 0.139574 -0.156330 -0.088628
v 0.120406 -0.147382 -0.426347
v 0.095855 -0.129431 -0.472461
v 0.120406 -0.147382 -0.103551
v 0.120866 -0.146923 -0.098614
v 0.115965 -0.144850 -0.090503
v 0.120406 -0.147382 -0.118922
v 0.120406 -0.147382 -0.472461
v 0.120406 -0.147382 -0.457089
v 0.108143 -0.138397 -0.472461
v 0.073518 -0.113106 -0.238326
v 0.094953 -0.133274 -0.288836
v 0.073868 -0.112773 -0.225319
v 0.073151 -0.113223 -0.251334
v 0.070731 -0.114912 -0.394416
v 0.120406 -0.147382 -0.395604
v 0.070036 -0.115181 -0.381408
v 0.070946 -0.114609 -0.407423
v 0.072277 -0.113987 -0.290356
v 0.072654 -0.113536 -0.277349
v 0.071728 -0.114118 -0.303364
v 0.072651 -0.113721 -0.446446
v 0.071887 -0.114018 -0.433438
v 0.071824 -0.114308 -0.342386
v 0.120406 -0.147382 -0.318748
v 0.071537 -0.114237 -0.329378
v 0.070450 -0.114921 -0.355393
v 0.071502 -0.114486 -0.420431
v 0.070616 -0.114976 -0.368401
v 0.090632 -0.132125 -0.376755
v 0.073084 -0.113414 -0.264341
v 0.076420 -0.111169 -0.121259
v 0.075620 -0.111615 -0.134267
v 0.076925 -0.110689 -0.108252
v 0.071644 -0.114407 -0.316371
v 0.146748 -0.173755 -0.061422
v 0.148174 -0.172562 -0.068130
v 0.145526 -0.174637 -0.050699
v 0.150253 -0.170756 -0.074821
v 0.122213 -0.145575 -0.094013
v 0.120406 -0.147382 -0.134293
v 0.120406 -0.147382 -0.180407
v 0.074071 -0.112714 -0.186296
v 0.120406 -0.147382 -0.195778
v 0.120406 -0.147382 -0.165036
v 0.120406 -0.147382 -0.211149
v 0.120406 -0.147382 -0.226521
v 0.104904 -0.139355 -0.237469
v 0.120406 -0.147382 -0.241892
v 0.106798 -0.138525 -0.251569
v 0.120406 -0.147382 -0.257263
v 0.104076 -0.139933 -0.265445
v 0.120406 -0.147382 -0.272634
v 0.104167 -0.140683 -0.280926
v 0.120406 -0.147382 -0.288006
v 0.120406 -0.147382 -0.349490
v 0.120406 -0.147382 -0.334119
v 0.120406 -0.147382 -0.364862
v 0.120406 -0.147382 -0.380233
v 0.120406 -0.147382 -0.441718
v 0.144158 -0.175308 -0.040516
v 0.098840 -0.137058 -0.056831
v 0.110677 -0.145012 -0.068797
v 0.074692 -0.112023 -0.081618
v 0.076034 -0.111330 -0.096360
v 0.120406 -0.147382 -0.149664
v 0.120406 -0.147382 -0.303377
v 0.120406 -0.147382 -0.410975
v 0.074068 -0.112716 -0.212311
v 0.074537 -0.112353 -0.173289
v 0.074750 -0.112326 -0.164980
v 0.075047 -0.112155 -0.153624
v 0.103563 -0.135052 -0.472461
v 0.075306 -0.111910 -0.145120
v 0.068582 -0.114932 0.079175
v 0.067262 -0.114708 0.052180
v 0.132372 -0.183672 0.066142
v 0.067749 -0.115346 0.025596
v 0.068025 -0.113319 -0.001445
v 0.071060 -0.111681 -0.054991
v 0.070927 -0.113869 -0.029224
v 0.142302 -0.176125 -0.027682
v 0.131205 -0.184762 0.082878
v 0.129985 -0.185450 0.099123
v 0.135446 -0.181816 0.033912
v 0.137058 -0.180423 0.018530
v 0.140376 -0.177775 -0.010722
v 0.074038 -0.112666 -0.199304
v 0.129510 -0.185678 0.108416
v 0.129266 -0.185777 0.114641
vn -0.5853 -0.8103 -0.0298
vn -0.5162 -0.7561 -0.4024
vn -0.5179 -0.7547 -0.4028
vn -0.5164 -0.7563 -0.4017
vn -0.4843 -0.7614 -0.4309
vn -0.4877 -0.7389 -0.4649
vn -0.3900 -0.6530 -0.6492
vn -0.1894 -0.8643 -0.4660
vn -0.5186 -0.7551 -0.4011
vn -0.4889 -0.7347 -0.4704
vn -0.4888 -0.7340 -0.4715
vn -0.4944 -0.7319 -0.4689
vn -0.5755 -0.8177 -0.0163
vn -0.5876 -0.8091 -0.0021
vn -0.5889 -0.8082 -0.0025
vn -0.5885 -0.8085 -0.0015
vn -0.2257 -0.9679 0.1110
vn -0.4953 -0.8687 0.0000
vn -0.5910 -0.8067 0.0000
vn -0.5910 -0.8067 -0.0006
vn -0.6374 -0.7697 0.0369
vn -0.6529 -0.7571 0.0252
vn -0.5473 -0.8356 -0.0465
vn -0.5474 -0.8364 -0.0285
vn -0.5469 -0.8367 -0.0288
vn -0.5471 -0.8365 -0.0299
vn -0.6491 -0.7594 0.0450
vn -0.6495 -0.7596 0.0352
vn -0.6490 -0.7595 0.0451
vn -0.6489 -0.7601 0.0350
vn -0.5607 -0.8264 -0.0518
vn -0.5611 -0.8263 -0.0490
vn -0.5606 -0.8267 -0.0466
vn -0.5601 -0.8284 -0.0078
vn -0.5603 -0.8283 -0.0070
vn -0.5602 -0.8283 -0.0064
vn -0.5928 -0.7991 0.1003
vn -0.5914 -0.8001 0.1004
vn -0.5933 -0.7991 0.0972
vn -0.5614 -0.8262 -0.0463
vn -0.6518 -0.7583 -0.0051
vn -0.6403 -0.7671 0.0406
vn -0.6633 -0.7482 0.0144
vn -0.6542 -0.7558 0.0287
vn -0.6765 -0.7334 0.0668
vn -0.6712 -0.7394 0.0533
vn -0.5604 -0.8282 -0.0062
vn -0.5593 -0.8287 0.0220
vn -0.5548 -0.7908 -0.2586
vn -0.6301 -0.7647 -0.1347
vn -0.6299 -0.7648 -0.1349
vn -0.6300 -0.7648 -0.1348
vn -0.4987 -0.7853 -0.3669
vn -0.4935 -0.7815 -0.3818
vn 0.0401 -0.9620 0.2701
vn -0.2940 -0.8938 -0.3387
vn -0.5991 -0.8007 0.0000
vn -0.5962 -0.8029 0.0000
vn -0.5966 -0.8025 -0.0007
vn -0.5990 -0.8007 0.0000
vn -0.4598 -0.8880 -0.0000
vn -0.5455 -0.8381 0.0000
vn -0.4826 -0.8681 -0.1159
vn -0.4820 -0.8572 0.1815
vn -0.4150 -0.9098 0.0000
vn -0.3814 -0.9244 0.0000
vn -0.3993 -0.9159 0.0420
vn -0.4560 -0.8900 0.0000
vn -0.4919 -0.7278 -0.4779
vn -0.5886 -0.8033 0.0908
vn -0.6029 -0.7819 -0.1585
vn -0.6298 -0.7649 -0.1350
vn -0.2944 -0.8807 -0.3712
vn -0.4976 -0.7879 -0.3629
vn -0.6353 -0.7554 -0.1604
vn -0.6328 -0.7692 -0.0893
vn -0.6320 -0.7693 -0.0937
vn -0.6328 -0.7687 -0.0934
vn -0.5440 -0.8276 -0.1387
vn -0.3640 -0.8680 -0.3377
vn -0.4621 -0.8488 -0.2568
vn -0.4848 -0.8746 0.0000
vn -0.5581 -0.8297 0.0000
vn -0.5469 -0.8366 -0.0313
vn -0.5517 -0.8133 0.1849
vn -0.5990 -0.8007 0.0001
vn -0.5966 -0.8025 -0.0083
vn -0.6702 -0.7408 0.0446
vn -0.6402 -0.7680 0.0189
vn -0.6504 -0.7591 0.0284
vn -0.5649 -0.8243 -0.0383
vn -0.1779 -0.9807 -0.0816
vn -0.8727 -0.4381 0.2156
vn -0.6435 -0.7647 0.0333
vn -0.5894 -0.8078 -0.0007
vn -0.1577 -0.8871 0.4338
vn -0.1576 -0.8871 0.4338
vn -0.1581 -0.8873 0.4333
vn -0.5718 -0.7716 -0.2787
vn -0.6327 -0.7693 -0.0889
vn -0.6628 -0.7477 0.0400
vn -0.6622 -0.7482 0.0417
vn -0.6621 -0.7483 0.0416
vn -0.6605 -0.7498 0.0395
vn -0.6757 -0.7371 0.0136
vn -0.6381 -0.7693 0.0325
vn -0.7298 -0.6830 0.0300
vn -0.7215 -0.6866 0.0896
vn -0.7274 -0.6862 0.0031
vn -0.7072 -0.7045 -0.0600
vn -0.7586 -0.6508 -0.0322
vn -0.8009 -0.5984 0.0212
vn 0.8009 0.5984 -0.0212
vn -0.7644 -0.6446 0.0122
vn 0.7644 0.6446 -0.0122
vn 0.7704 0.6375 -0.0058
vn 0.7640 0.6451 -0.0050
vn -0.6579 -0.7488 -0.0801
vn -0.6567 -0.7511 -0.0678
vn -0.6549 -0.7516 -0.0789
vn -0.6698 -0.7404 -0.0553
vn -0.6559 -0.7518 -0.0672
vn -0.6094 -0.7808 -0.1378
vn -0.6064 -0.7830 -0.1385
vn -0.6084 -0.7810 -0.1408
vn -0.8066 -0.5846 -0.0869
vn -0.8040 -0.5871 -0.0941
vn -0.8044 -0.5865 -0.0943
vn -0.7997 -0.5944 -0.0852
vn -0.9588 0.2739 -0.0757
vn -0.6097 -0.7802 -0.1398
vn -0.6099 -0.7792 -0.1442
vn -0.6955 -0.7139 -0.0810
vn -0.6379 -0.7616 -0.1147
vn -0.7376 -0.0915 -0.6690
vn -0.7380 -0.0926 -0.6684
vn -0.5858 -0.8015 -0.1204
vn -0.8395 -0.5434 0.0002
vn -0.8428 -0.5383 0.0001
vn -0.7829 -0.6208 -0.0406
vn -0.7878 -0.6134 -0.0553
vn -0.7760 -0.6305 -0.0167
vn -0.7767 -0.6290 -0.0317
vn -0.7702 -0.6377 0.0031
vn 0.5853 0.8103 0.0298
vn 0.5162 0.7561 0.4024
vn 0.4843 0.7614 0.4309
vn 0.4877 0.7389 0.4649
vn 0.4910 0.7378 0.4633
vn 0.4877 0.7386 0.4655
vn 0.3900 0.6530 0.6492
vn 0.1894 0.8643 0.4660
vn 0.5186 0.7551 0.4011
vn 0.4889 0.7347 0.4704
vn 0.5755 0.8177 0.0163
vn 0.5876 0.8091 0.0021
vn 0.5897 0.8076 0.0007
vn 0.5889 0.8082 0.0025
vn 0.2257 0.9679 -0.1110
vn 0.4953 0.8687 0.0000
vn 0.5910 0.8067 0.0000
vn 0.6374 0.7697 -0.0369
vn 0.6529 0.7571 -0.0252
vn 0.5473 0.8356 0.0465
vn 0.5474 0.8364 0.0285
vn 0.5471 0.8365 0.0299
vn 0.5469 0.8367 0.0288
vn 0.6491 0.7594 -0.0449
vn 0.6490 0.7595 -0.0451
vn 0.6495 0.7596 -0.0352
vn 0.6489 0.7601 -0.0350
vn 0.5607 0.8264 0.0518
vn 0.5606 0.8267 0.0466
vn 0.5611 0.8263 0.0490
vn 0.5601 0.8284 0.0078
vn 0.5602 0.8283 0.0064
vn 0.5603 0.8283 0.0070
vn 0.5928 0.7991 -0.1003
vn 0.5614 0.8262 0.0463
vn 0.6518 0.7583 0.0051
vn 0.6403 0.7671 -0.0406
vn 0.6633 0.7482 -0.0144
vn 0.6542 0.7558 -0.0287
vn 0.6765 0.7334 -0.0668
vn 0.6712 0.7394 -0.0533
vn 0.5604 0.8282 0.0062
vn 0.5593 0.8287 -0.0220
vn 0.5548 0.7908 0.2586
vn 0.6301 0.7647 0.1347
vn 0.6300 0.7648 0.1348
vn 0.6299 0.7648 0.1349
vn 0.4987 0.7853 0.3669
vn 0.4935 0.7815 0.3818
vn -0.0401 0.9620 -0.2701
vn 0.2940 0.8938 0.3387
vn 0.5991 0.8007 0.0000
vn 0.5991 0.8007 -0.0001
vn 0.5990 0.8007 -0.0000
vn 0.4598 0.8880 0.0000
vn 0.5455 0.8381 0.0000
vn 0.4826 0.8681 0.1159
vn 0.4820 0.8572 -0.1815
vn 0.4150 0.9098 0.0000
vn 0.3814 0.9244 0.0000
vn 0.3993 0.9159 -0.0420
vn 0.4560 0.8900 0.0000
vn 0.4919 0.7278 0.4779
vn 0.5886 0.8033 -0.0908
vn 0.6029 0.7819 0.1585
vn 0.6298 0.7649 0.1350
vn 0.2944 0.8807 0.3712
vn 0.4976 0.7879 0.3629
vn 0.6353 0.7554 0.1604
vn 0.6328 0.7692 0.0893
vn 0.6328 0.7687 0.0934
vn 0.6320 0.7693 0.0937
vn 0.5440 0.8276 0.1387
vn 0.3640 0.8680 0.3377
vn 0.4621 0.8488 0.2568
vn 0.4848 0.8746 0.0000
vn 0.5581 0.8297 0.0000
vn 0.5469 0.8366 0.0313
vn 0.5517 0.8133 -0.1849
vn 0.5990 0.8007 -0.0001
vn 0.5966 0.8025 0.0083
vn 0.6702 0.7408 -0.0446
vn 0.6402 0.7680 -0.0189
vn 0.6504 0.7591 -0.0284
vn 0.5649 0.8243 0.0383
vn 0.1779 0.9807 0.0816
vn 0.8727 0.4381 -0.2156
vn 0.6435 0.7647 -0.0333
vn 0.5898 0.8076 0.0005
vn 0.5894 0.8078 0.0007
vn 0.1577 0.8871 -0.4338
vn 0.1581 0.8873 -0.4333
vn 0.1576 0.8871 -0.4338
vn 0.5718 0.7716 0.2787
vn 0.6327 0.7693 0.0889
vn 0.6628 0.7477 -0.0400
vn 0.6621 0.7483 -0.0416
vn 0.6622 0.7482 -0.0417
vn 0.6605 0.7498 -0.0395
vn 0.6757 0.7371 -0.0136
vn 0.6381 0.7693 -0.0325
vn 0.7298 0.6830 -0.0300
vn 0.7215 0.6866 -0.0896
vn 0.7274 0.6862 -0.0031
vn 0.7072 0.7045 0.0600
vn 0.7586 0.6508 0.0322
vn 0.6579 0.7488 0.0801
vn 0.6549 0.7516 0.0788
vn 0.6567 0.7511 0.0678
vn 0.6698 0.7404 0.0553
vn 0.6559 0.7518 0.0672
vn 0.6094 0.7808 0.1378
vn 0.6084 0.7810 0.1408
vn 0.6064 0.7830 0.1384
vn 0.8066 0.5847 0.0869
vn 0.8044 0.5865 0.0943
vn 0.8040 0.5871 0.0941
vn 0.7997 0.5944 0.0852
vn 0.9588 -0.2739 0.0757
vn 0.6097 0.7802 0.1398
vn 0.6099 0.7792 0.1442
vn 0.6955 0.7139 0.0810
vn 0.6379 0.7616 0.1147
vn 0.7376 0.0915 0.6690
vn 0.7380 0.0926 0.6684
vn 0.5858 0.8015 0.1204
vn 0.8395 0.5434 -0.0002
vn 0.8428 0.5383 -0.0001
vn 0.7829 0.6208 0.0406
vn 0.7878 0.6134 0.0553
vn 0.7760 0.6305 0.0167
vn 0.7767 0.6290 0.0317
vn 0.7702 0.6377 -0.0031
usemtl None.111
s 1
f 1//1 3//1 2//1
f 4//2 6//3 5//4
f 4//5 5//5 7//5
f 4//6 7//6 8//6
f 9//7 11//7 10//7
f 9//8 10//8 12//8
f 6//3 13//9 5//4
f 8//10 7//11 14//12
f 3//13 15//13 2//13
f 3//14 16//15 15//16
f 17//17 19//17 18//17
f 17//18 18//18 20//18
f 21//19 23//19 22//20
f 24//21 26//21 25//21
f 24//22 27//22 26//22
f 28//23 30//23 29//23
f 28//24 31//25 30//26
f 32//27 26//28 33//29
f 32//27 34//30 26//28
f 35//31 15//32 36//33
f 37//34 39//35 38//36
f 37//37 40//38 39//39
f 41//40 36//33 15//32
f 42//41 43//41 40//41
f 42//42 29//42 43//42
f 44//43 26//43 27//43
f 44//44 33//44 26//44
f 45//45 46//45 18//45
f 45//46 18//46 47//46
f 48//47 38//36 39//35
f 48//48 39//48 34//48
f 49//49 7//49 50//49
f 49//50 51//51 7//52
f 50//53 7//53 52//53
f 52//54 7//54 5//54
f 19//55 53//55 18//55
f 53//56 12//56 18//56
f 20//18 18//18 54//18
f 55//57 57//58 56//57
f 55//57 58//59 57//58
f 56//57 57//58 59//60
f 60//61 62//61 61//61
f 61//62 64//62 63//62
f 61//63 62//63 64//63
f 63//64 64//64 65//64
f 63//65 65//65 66//65
f 66//66 68//66 67//66
f 66//67 65//67 68//67
f 69//68 70//68 43//68
f 69//68 43//68 71//68
f 71//68 43//68 72//68
f 72//68 43//68 30//68
f 23//19 73//19 22//20
f 14//12 7//11 11//69
f 43//70 39//39 40//38
f 7//71 75//71 74//71
f 7//52 51//51 75//72
f 7//73 18//73 12//73
f 7//74 12//74 10//74
f 18//75 77//75 76//75
f 18//76 76//77 78//78
f 18//79 7//79 77//79
f 79//18 54//18 18//18
f 79//18 18//18 58//18
f 7//80 10//80 11//80
f 67//81 68//81 26//81
f 67//82 26//82 80//82
f 80//82 26//82 39//82
f 41//83 15//83 81//83
f 41//84 30//26 31//25
f 41//83 81//83 30//83
f 60//85 82//85 62//85
f 60//60 59//60 82//86
f 57//58 58//59 18//87
f 57//88 18//88 83//88
f 18//89 84//89 83//89
f 18//90 85//90 84//90
f 35//91 2//91 15//91
f 73//19 15//16 22//20
f 59//60 57//58 82//86
f 64//92 62//92 26//92
f 64//93 26//93 65//93
f 65//94 26//94 68//94
f 22//20 15//16 86//95
f 15//16 16//15 86//95
f 70//68 39//68 43//68
f 7//96 74//97 77//98
f 30//99 43//99 29//99
f 18//76 78//78 47//100
f 87//101 85//102 18//103
f 87//101 18//103 46//104
f 25//105 26//105 82//105
f 82//106 26//106 62//106
f 88//107 90//107 89//107
f 88//108 89//108 91//108
f 90//109 92//109 89//109
f 92//110 93//110 89//110
f 91//111 89//111 94//111
f 95//112 91//112 94//112
f 95//113 94//113 96//113
f 97//114 99//114 98//114
f 99//115 100//116 98//117
f 76//118 77//119 101//120
f 102//121 74//121 93//121
f 101//120 77//119 102//122
f 75//123 103//124 74//125
f 104//126 94//127 89//128
f 104//126 105//129 94//127
f 106//130 89//130 107//130
f 107//131 74//125 108//132
f 103//124 108//132 74//125
f 74//133 89//133 93//133
f 74//134 107//134 89//134
f 77//135 74//136 102//135
f 26//137 34//137 39//137
f 57//138 109//139 82//138
f 94//140 111//140 110//140
f 94//141 105//141 111//141
f 94//142 110//142 97//142
f 112//143 94//143 97//143
f 112//144 97//144 98//144
f 113//145 115//145 114//145
f 116//146 118//146 117//146
f 116//147 119//147 118//147
f 116//148 120//149 119//150
f 121//151 123//151 122//151
f 121//152 124//152 123//152
f 117//153 118//153 125//153
f 120//149 126//154 119//150
f 114//155 115//155 127//155
f 114//156 127//157 128//158
f 129//159 131//159 130//159
f 129//160 132//160 131//160
f 133//161 135//161 134//161
f 136//162 138//162 137//162
f 136//163 137//163 139//163
f 140//164 142//164 141//164
f 140//165 141//166 143//167
f 144//168 145//169 137//170
f 144//168 137//170 146//171
f 147//172 148//173 127//174
f 149//175 151//176 150//177
f 149//178 150//178 152//178
f 153//179 127//174 148//173
f 154//180 152//180 155//180
f 154//181 155//181 142//181
f 156//182 139//182 137//182
f 156//183 137//183 145//183
f 157//184 131//184 158//184
f 157//185 159//185 131//185
f 160//186 150//177 151//176
f 160//187 146//187 150//187
f 161//188 162//188 119//188
f 161//189 119//190 163//191
f 162//192 164//192 119//192
f 164//193 118//193 119//193
f 130//194 131//194 165//194
f 165//195 131//195 124//195
f 132//160 166//160 131//160
f 167//196 169//196 168//197
f 167//196 168//197 170//196
f 169//196 171//198 168//197
f 172//199 174//199 173//199
f 174//200 176//200 175//200
f 174//201 175//201 173//201
f 176//202 177//202 175//202
f 176//203 178//203 177//203
f 178//204 180//204 179//204
f 178//205 179//205 177//205
f 181//206 155//206 182//206
f 181//206 183//206 155//206
f 183//206 184//206 155//206
f 184//206 141//206 155//206
f 134//161 135//161 185//161
f 126//207 122//207 119//207
f 155//208 152//208 150//208
f 119//209 187//209 186//209
f 119//190 186//210 163//191
f 119//211 124//211 131//211
f 119//212 123//212 124//212
f 131//213 189//213 188//213
f 131//214 190//215 189//216
f 131//217 188//217 119//217
f 191//160 131//160 166//160
f 191//160 170//160 131//160
f 119//218 122//218 123//218
f 180//219 137//219 179//219
f 180//220 192//220 137//220
f 192//220 150//220 137//220
f 153//221 193//221 127//221
f 153//222 143//167 141//166
f 153//221 141//221 193//221
f 172//223 173//223 194//223
f 172//198 194//224 171//198
f 168//225 131//225 170//225
f 168//226 195//226 131//226
f 131//227 195//227 196//227
f 131//228 196//228 197//228
f 147//229 127//229 115//229
f 185//161 135//161 127//161
f 171//198 194//224 168//197
f 175//230 137//230 173//230
f 175//231 177//231 137//231
f 177//232 179//232 137//232
f 135//233 198//234 127//157
f 127//157 198//234 128//158
f 182//206 155//206 150//206
f 119//235 188//236 187//237
f 141//238 142//238 155//238
f 131//214 159//239 190//215
f 199//240 131//241 197//242
f 199//240 158//243 131//241
f 138//244 194//244 137//244
f 194//245 173//245 137//245
f 200//246 202//246 201//246
f 200//247 96//247 202//247
f 201//248 202//248 203//248
f 203//249 202//249 204//249
f 96//250 94//250 202//250
f 189//251 205//252 188//253
f 206//254 204//254 187//254
f 205//252 206//255 188//253
f 186//256 187//257 207//258
f 208//259 202//260 94//261
f 208//259 94//261 209//262
f 210//263 211//263 202//263
f 211//264 212//265 187//257
f 207//258 187//257 212//265
f 187//266 204//266 202//266
f 187//267 202//267 211//267
f 188//268 206//268 187//269
f 137//270 150//270 146//270
f 168//271 194//271 213//272
f 94//273 215//273 214//273
f 94//274 214//274 209//274
f 94//275 100//275 215//275
f 112//276 100//276 94//276
f 112//277 98//117 100//116
