# Blender v2.79 (sub 0) OBJ File: ''
# www.blender.org
mtllib crack_restart_keyway_610.mtl
o crack_restart_keyway_610
v 0.073404 -0.113187 -0.472461
v 0.072967 -0.113339 -0.459453
v 0.084714 -0.121357 -0.472461
v 0.147229 -0.162037 -0.087630
v 0.104712 -0.140511 -0.067056
v 0.150738 -0.164618 -0.087287
v 0.143382 -0.159202 -0.088100
v 0.131068 -0.149873 -0.089874
v 0.127484 -0.150690 -0.086889
v 0.135347 -0.153090 -0.089201
v 0.126540 -0.147825 -0.091832
v 0.152177 -0.169049 -0.080801
v 0.154210 -0.167189 -0.086931
v 0.139577 -0.156328 -0.088625
v 0.120406 -0.147382 -0.457089
v 0.095845 -0.129438 -0.472461
v 0.120406 -0.147382 -0.103551
v 0.115965 -0.144850 -0.090503
v 0.120866 -0.146923 -0.098614
v 0.120406 -0.147382 -0.118922
v 0.120406 -0.147382 -0.472461
v 0.108137 -0.138401 -0.472461
v 0.073526 -0.113100 -0.238326
v 0.095035 -0.133043 -0.288907
v 0.073159 -0.113219 -0.251334
v 0.073863 -0.112776 -0.225319
v 0.072644 -0.113726 -0.446446
v 0.071889 -0.114016 -0.433438
v 0.071510 -0.114481 -0.420431
v 0.070950 -0.114606 -0.407423
v 0.070607 -0.114980 -0.368401
v 0.070503 -0.114887 -0.355393
v 0.103591 -0.139484 -0.401371
v 0.070096 -0.115143 -0.381408
v 0.073086 -0.113412 -0.264341
v 0.072649 -0.113539 -0.277349
v 0.076396 -0.111184 -0.121259
v 0.075644 -0.111598 -0.134267
v 0.076868 -0.110729 -0.108252
v 0.071647 -0.114406 -0.316371
v 0.071539 -0.114236 -0.329378
v 0.071640 -0.114173 -0.303364
v 0.074063 -0.112719 -0.212311
v 0.101429 -0.135141 -0.155345
v 0.074033 -0.112669 -0.199304
v 0.146767 -0.173738 -0.061419
v 0.148173 -0.172563 -0.068131
v 0.145612 -0.174568 -0.050762
v 0.150261 -0.170748 -0.074816
v 0.122213 -0.145575 -0.094013
v 0.120406 -0.147382 -0.134293
v 0.120406 -0.147382 -0.149664
v 0.120406 -0.147382 -0.165036
v 0.120406 -0.147382 -0.180407
v 0.120406 -0.147382 -0.195778
v 0.120406 -0.147382 -0.211149
v 0.120406 -0.147382 -0.226521
v 0.120406 -0.147382 -0.241892
v 0.104904 -0.139355 -0.237469
v 0.120406 -0.147382 -0.257263
v 0.106825 -0.138506 -0.251574
v 0.104076 -0.139933 -0.265445
v 0.120406 -0.147382 -0.272634
v 0.120406 -0.147382 -0.288006
v 0.104168 -0.140682 -0.280926
v 0.120406 -0.147382 -0.303377
v 0.120406 -0.147382 -0.318748
v 0.120406 -0.147382 -0.334119
v 0.120406 -0.147382 -0.349490
v 0.120406 -0.147382 -0.364862
v 0.120406 -0.147382 -0.380233
v 0.120406 -0.147382 -0.395604
v 0.120406 -0.147382 -0.410975
v 0.144324 -0.175177 -0.040619
v 0.120406 -0.147382 -0.426347
v 0.074067 -0.112716 -0.186296
v 0.074516 -0.112366 -0.173289
v 0.074738 -0.112334 -0.164959
v 0.075050 -0.112153 -0.153618
v 0.120406 -0.147382 -0.441718
v 0.103566 -0.135065 -0.472461
v 0.074658 -0.112051 -0.081618
v 0.071824 -0.114308 -0.342386
v 0.075321 -0.111902 -0.145112
v 0.070727 -0.114914 -0.394416
v 0.075986 -0.111359 -0.096393
v 0.072262 -0.113997 -0.290356
v 0.068571 -0.114937 0.079175
v 0.129864 -0.185338 0.114305
v 0.067911 -0.114190 0.052178
v 0.069466 -0.112630 0.106109
v 0.071387 -0.113580 0.132731
v 0.087011 -0.132827 0.166885
v 0.070828 -0.112310 0.153833
v 0.074962 -0.117759 0.157389
v 0.101175 -0.150179 0.176954
v 0.129737 -0.185430 0.163258
v 0.114613 -0.165959 0.184903
v 0.130301 -0.185219 0.189802
v 0.129335 -0.185906 0.138760
v 0.129737 -0.185430 0.163258
v 0.071292 -0.113639 -0.028460
v 0.110931 -0.151587 -0.012787
v 0.071167 -0.111595 -0.054991
v 0.068723 -0.112982 -0.001445
v 0.135933 -0.181429 0.034377
v 0.069433 -0.114809 0.029522
v 0.132846 -0.183308 0.065892
v 0.137551 -0.180027 0.018276
v 0.140630 -0.177570 -0.010458
v 0.142559 -0.175918 -0.027710
v 0.131659 -0.184420 0.083275
v 0.129365 -0.185916 0.134783
v 0.071387 -0.113580 0.132731
v 0.073404 -0.113187 -0.472461
v 0.084714 -0.121357 -0.472461
v 0.072967 -0.113339 -0.459453
v 0.147229 -0.162037 -0.087630
v 0.150738 -0.164618 -0.087287
v 0.104712 -0.140511 -0.067056
v 0.143382 -0.159202 -0.088100
v 0.131068 -0.149873 -0.089874
v 0.135347 -0.153090 -0.089201
v 0.127484 -0.150690 -0.086889
v 0.126540 -0.147825 -0.091832
v 0.154210 -0.167189 -0.086931
v 0.152177 -0.169049 -0.080801
v 0.139577 -0.156328 -0.088625
v 0.120406 -0.147382 -0.457089
v 0.095845 -0.129438 -0.472461
v 0.120406 -0.147382 -0.103551
v 0.120866 -0.146923 -0.098614
v 0.115965 -0.144850 -0.090503
v 0.120406 -0.147382 -0.118922
v 0.120406 -0.147382 -0.472461
v 0.108137 -0.138401 -0.472461
v 0.073526 -0.113100 -0.238326
v 0.073159 -0.113219 -0.251334
v 0.095035 -0.133043 -0.288907
v 0.073863 -0.112776 -0.225319
v 0.072644 -0.113726 -0.446446
v 0.071889 -0.114016 -0.433438
v 0.071510 -0.114481 -0.420431
v 0.070950 -0.114606 -0.407423
v 0.070607 -0.114980 -0.368401
v 0.103591 -0.139484 -0.401371
v 0.070503 -0.114887 -0.355393
v 0.070096 -0.115143 -0.381408
v 0.073086 -0.113412 -0.264341
v 0.072649 -0.113539 -0.277349
v 0.076396 -0.111184 -0.121259
v 0.075644 -0.111598 -0.134267
v 0.076868 -0.110729 -0.108252
v 0.071647 -0.114406 -0.316371
v 0.071539 -0.114236 -0.329378
v 0.071640 -0.114173 -0.303364
v 0.074063 -0.112719 -0.212311
v 0.101429 -0.135141 -0.155345
v 0.074033 -0.112669 -0.199304
v 0.146767 -0.173738 -0.061419
v 0.148173 -0.172563 -0.068131
v 0.145612 -0.174568 -0.050762
v 0.150261 -0.170748 -0.074816
v 0.122213 -0.145575 -0.094013
v 0.120406 -0.147382 -0.134293
v 0.120406 -0.147382 -0.149664
v 0.120406 -0.147382 -0.165036
v 0.120406 -0.147382 -0.180407
v 0.120406 -0.147382 -0.195778
v 0.120406 -0.147382 -0.211149
v 0.120406 -0.147382 -0.226521
v 0.104904 -0.139355 -0.237469
v 0.120406 -0.147382 -0.241892
v 0.106825 -0.138506 -0.251574
v 0.120406 -0.147382 -0.257263
v 0.104076 -0.139933 -0.265445
v 0.120406 -0.147382 -0.272634
v 0.104168 -0.140682 -0.280926
v 0.120406 -0.147382 -0.288006
v 0.120406 -0.147382 -0.303377
v 0.120406 -0.147382 -0.318748
v 0.120406 -0.147382 -0.334119
v 0.120406 -0.147382 -0.349490
v 0.120406 -0.147382 -0.364862
v 0.120406 -0.147382 -0.380233
v 0.120406 -0.147382 -0.395604
v 0.120406 -0.147382 -0.410975
v 0.144324 -0.175177 -0.040619
v 0.120406 -0.147382 -0.426347
v 0.074067 -0.112716 -0.186296
v 0.074516 -0.112366 -0.173289
v 0.074738 -0.112334 -0.164959
v 0.075050 -0.112153 -0.153618
v 0.120406 -0.147382 -0.441718
v 0.103566 -0.135065 -0.472461
v 0.074658 -0.112051 -0.081618
v 0.071824 -0.114308 -0.342386
v 0.075321 -0.111902 -0.145112
v 0.070727 -0.114914 -0.394416
v 0.075986 -0.111359 -0.096393
v 0.072262 -0.113997 -0.290356
v 0.068571 -0.114937 0.079175
v 0.067911 -0.114190 0.052178
v 0.129864 -0.185338 0.114305
v 0.069466 -0.112630 0.106109
v 0.129335 -0.185906 0.138760
v 0.071292 -0.113639 -0.028460
v 0.071167 -0.111595 -0.054991
v 0.110931 -0.151587 -0.012787
v 0.068723 -0.112982 -0.001445
v 0.135933 -0.181429 0.034377
v 0.132846 -0.183308 0.065892
v 0.069433 -0.114809 0.029522
v 0.137551 -0.180027 0.018276
v 0.140630 -0.177570 -0.010458
v 0.142559 -0.175918 -0.027710
v 0.131659 -0.184420 0.083275
v 0.129365 -0.185916 0.134783
vn -0.5853 -0.8103 -0.0291
vn -0.5853 -0.8104 -0.0242
vn -0.5837 -0.8115 -0.0269
vn -0.5400 -0.7821 -0.3108
vn -0.5441 -0.7806 -0.3076
vn -0.5441 -0.7808 -0.3070
vn -0.5422 -0.7853 -0.2989
vn -0.3902 -0.6545 -0.6476
vn -0.1901 -0.8647 -0.4649
vn -0.5182 -0.7554 -0.4011
vn -0.5549 -0.7391 -0.3818
vn -0.5453 -0.7786 -0.3104
vn -0.5454 -0.7783 -0.3111
vn -0.5503 -0.7761 -0.3080
vn -0.5820 -0.8128 -0.0246
vn -0.5875 -0.8092 -0.0059
vn -0.5886 -0.8084 -0.0077
vn -0.5876 -0.8092 -0.0021
vn -0.2257 -0.9679 0.1110
vn -0.4953 -0.8687 0.0000
vn -0.5907 -0.8069 0.0000
vn -0.5905 -0.8071 -0.0019
vn -0.6471 -0.7619 0.0252
vn -0.6331 -0.7733 0.0357
vn -0.5839 -0.8109 -0.0396
vn -0.5846 -0.8098 -0.0495
vn -0.5807 -0.8125 -0.0512
vn -0.5812 -0.8125 -0.0460
vn -0.5747 -0.8177 -0.0326
vn -0.5957 -0.8032 0.0010
vn -0.5747 -0.8177 0.0328
vn -0.6573 -0.7535 0.0149
vn -0.6480 -0.7611 0.0292
vn -0.6760 -0.7350 0.0522
vn -0.6744 -0.7357 0.0624
vn -0.6741 -0.7360 0.0617
vn -0.6695 -0.7411 0.0502
vn -0.6257 -0.7801 -0.0050
vn -0.6229 -0.7823 -0.0085
vn -0.6262 -0.7797 -0.0049
vn -0.5940 -0.8044 0.0141
vn -0.6502 -0.7597 0.0133
vn -0.6356 -0.7720 0.0015
vn -0.6354 -0.7722 0.0012
vn -0.6365 -0.7713 -0.0005
vn -0.5778 -0.7748 -0.2567
vn -0.6044 -0.7865 -0.1268
vn -0.6050 -0.7861 -0.1266
vn -0.6048 -0.7864 -0.1255
vn -0.5549 -0.7366 -0.3867
vn -0.5583 -0.7395 -0.3761
vn -0.5547 -0.7370 -0.3863
vn -0.5562 -0.7416 -0.3751
vn 0.0401 -0.9620 0.2701
vn -0.2940 -0.8938 -0.3387
vn -0.5421 -0.8403 -0.0000
vn -0.4598 -0.8880 -0.0000
vn -0.5471 -0.8371 0.0000
vn -0.4829 -0.8677 -0.1180
vn -0.4827 -0.8563 0.1838
vn -0.4150 -0.9098 0.0000
vn -0.3814 -0.9244 0.0000
vn -0.3993 -0.9159 0.0419
vn -0.4251 -0.9051 0.0000
vn -0.5482 -0.7730 -0.3193
vn -0.6053 -0.7863 -0.1241
vn -0.2941 -0.8502 -0.4366
vn -0.4404 -0.8967 -0.0454
vn -0.2207 -0.9472 0.2328
vn -0.4661 -0.8418 -0.2724
vn -0.4923 -0.8703 0.0124
vn -0.5524 -0.8336 0.0000
vn -0.5415 -0.7842 -0.3031
vn -0.4736 -0.8804 0.0251
vn -0.6331 -0.7741 -0.0011
vn -0.6619 -0.7483 0.0430
vn -0.6537 -0.7565 0.0203
vn -0.6551 -0.7544 0.0423
vn -0.6538 -0.7560 0.0305
vn -0.6556 -0.7545 0.0301
vn -0.5813 -0.8128 -0.0386
vn -0.1865 -0.9788 -0.0843
vn -0.8826 -0.4166 0.2178
vn -0.6578 -0.7525 0.0325
vn -0.5894 -0.8078 -0.0027
vn -0.6348 -0.7548 -0.1650
vn -0.5107 -0.8551 0.0899
vn -0.6449 -0.7600 0.0806
vn -0.6319 -0.7750 -0.0096
vn -0.6094 -0.7925 -0.0246
vn -0.6041 -0.7957 -0.0433
vn -0.6025 -0.7976 -0.0292
vn -0.6319 -0.7701 -0.0882
vn -0.6316 -0.7697 -0.0927
vn -0.6320 -0.7699 -0.0879
vn -0.6426 -0.7650 0.0435
vn -0.6426 -0.7650 0.0436
vn -0.6426 -0.7648 0.0461
vn -0.6548 -0.7546 0.0431
vn -0.6616 -0.7487 0.0407
vn -0.6597 -0.7512 0.0198
vn -0.5964 -0.8025 0.0159
vn -0.7543 -0.6566 0.0003
vn -0.7712 -0.6316 0.0797
vn -0.7706 -0.6364 0.0329
vn -0.7753 -0.6315 -0.0012
vn -0.7749 -0.6321 -0.0000
vn -0.7747 -0.6323 -0.0004
vn -0.8012 -0.5982 0.0148
vn -0.7835 -0.6213 0.0083
vn -0.7747 -0.6323 0.0001
vn -0.7778 -0.6281 0.0215
vn -0.7759 -0.6304 0.0250
vn -0.7686 -0.6389 0.0310
vn 0.7778 0.6281 -0.0215
vn 0.7754 0.6311 -0.0221
vn 0.7770 0.6290 -0.0250
vn -0.6796 -0.7320 -0.0475
vn -0.6795 -0.7317 -0.0532
vn -0.6798 -0.7315 -0.0528
vn -0.6810 -0.7308 -0.0470
vn -0.6666 -0.7416 -0.0747
vn -0.6994 -0.7062 -0.1106
vn -0.6968 -0.7051 -0.1314
vn -0.6466 -0.7510 -0.1335
vn -0.6501 -0.7478 -0.1349
vn -0.6443 -0.7512 -0.1436
vn -0.6955 -0.7161 -0.0596
vn -0.6406 -0.7546 -0.1423
vn -0.6426 -0.7549 -0.1312
vn -0.6787 -0.7339 -0.0277
vn -0.7333 -0.6792 -0.0307
vn -0.7055 -0.7026 -0.0931
vn -0.7251 -0.6858 -0.0622
vn -0.6320 -0.7675 -0.1078
vn -0.7269 -0.6392 0.2510
vn -0.6313 -0.7699 -0.0928
vn -0.6267 -0.7793 -0.0030
vn -0.6425 -0.7652 0.0411
vn -0.8009 -0.5979 -0.0312
vn -0.8771 0.4803 -0.0078
vn 0.8012 0.5982 -0.0148
vn 0.7835 0.6213 -0.0083
vn 0.5853 0.8103 0.0291
vn 0.5400 0.7821 0.3109
vn 0.5439 0.7835 0.3004
vn 0.5441 0.7806 0.3076
vn 0.5480 0.7826 0.2952
vn 0.3902 0.6545 0.6476
vn 0.1901 0.8647 0.4649
vn 0.5182 0.7554 0.4011
vn 0.5549 0.7391 0.3818
vn 0.5551 0.7370 0.3856
vn 0.5549 0.7379 0.3842
vn 0.5453 0.7786 0.3104
vn 0.5820 0.8128 0.0246
vn 0.5860 0.8098 0.0288
vn 0.5812 0.8129 0.0377
vn 0.5875 0.8092 0.0059
vn 0.5877 0.8091 0.0049
vn 0.5886 0.8084 0.0077
vn 0.2257 0.9679 -0.1110
vn 0.4953 0.8687 0.0000
vn 0.5907 0.8069 0.0000
vn 0.6471 0.7619 -0.0252
vn 0.6331 0.7733 -0.0357
vn 0.5829 0.8109 0.0519
vn 0.5807 0.8125 0.0512
vn 0.5816 0.8122 0.0461
vn 0.5812 0.8125 0.0460
vn 0.5747 0.8177 0.0326
vn 0.5957 0.8032 -0.0010
vn 0.5747 0.8177 -0.0328
vn 0.6573 0.7535 -0.0149
vn 0.6480 0.7611 -0.0292
vn 0.6761 0.7350 -0.0521
vn 0.6741 0.7360 -0.0617
vn 0.6744 0.7357 -0.0624
vn 0.6695 0.7411 -0.0502
vn 0.6257 0.7801 0.0050
vn 0.6262 0.7797 0.0049
vn 0.6229 0.7823 0.0085
vn 0.5940 0.8044 -0.0141
vn 0.6502 0.7597 -0.0133
vn 0.6356 0.7720 -0.0015
vn 0.6365 0.7713 0.0005
vn 0.6354 0.7722 -0.0012
vn 0.5778 0.7748 0.2567
vn 0.6044 0.7865 0.1268
vn 0.6048 0.7864 0.1255
vn 0.6050 0.7861 0.1266
vn 0.5583 0.7395 0.3761
vn 0.5562 0.7416 0.3751
vn -0.0401 0.9620 -0.2701
vn 0.2940 0.8938 0.3387
vn 0.5421 0.8403 0.0000
vn 0.4598 0.8880 0.0000
vn 0.5471 0.8371 0.0000
vn 0.4829 0.8677 0.1180
vn 0.4827 0.8563 -0.1838
vn 0.4150 0.9098 0.0000
vn 0.3814 0.9244 0.0000
vn 0.3993 0.9159 -0.0419
vn 0.4251 0.9051 0.0000
vn 0.5482 0.7730 0.3193
vn 0.6053 0.7863 0.1241
vn 0.2941 0.8502 0.4366
vn 0.4404 0.8967 0.0454
vn 0.2207 0.9472 -0.2328
vn 0.4661 0.8418 0.2724
vn 0.4923 0.8703 -0.0124
vn 0.5524 0.8336 0.0000
vn 0.5415 0.7842 0.3031
vn 0.4736 0.8804 -0.0251
vn 0.6331 0.7741 0.0011
vn 0.6619 0.7483 -0.0430
vn 0.6543 0.7559 -0.0211
vn 0.6537 0.7565 -0.0203
vn 0.6532 0.7566 -0.0293
vn 0.6556 0.7545 -0.0301
vn 0.5813 0.8128 0.0386
vn 0.1865 0.9788 0.0843
vn 0.8826 0.4166 -0.2178
vn 0.6578 0.7525 -0.0325
vn 0.5895 0.8078 0.0014
vn 0.5894 0.8078 0.0027
vn 0.6348 0.7548 0.1650
vn 0.5107 0.8551 -0.0899
vn 0.6449 0.7600 -0.0806
vn 0.6319 0.7750 0.0096
vn 0.6094 0.7925 0.0246
vn 0.6041 0.7957 0.0433
vn 0.6025 0.7976 0.0292
vn 0.6319 0.7701 0.0882
vn 0.6320 0.7699 0.0879
vn 0.6316 0.7697 0.0927
vn 0.6426 0.7650 -0.0435
vn 0.6426 0.7648 -0.0461
vn 0.6426 0.7650 -0.0436
vn 0.6548 0.7546 -0.0431
vn 0.6616 0.7487 -0.0407
vn 0.6597 0.7512 -0.0198
vn 0.5964 0.8025 -0.0159
vn 0.7543 0.6566 -0.0003
vn 0.7712 0.6316 -0.0797
vn 0.7706 0.6364 -0.0329
vn 0.7753 0.6315 0.0012
vn 0.7747 0.6323 0.0004
vn 0.7749 0.6321 0.0000
vn 0.7747 0.6323 -0.0001
vn 0.7759 0.6304 -0.0250
vn 0.7686 0.6389 -0.0310
vn 0.6797 0.7320 0.0475
vn 0.6798 0.7315 0.0528
vn 0.6795 0.7317 0.0532
vn 0.6810 0.7308 0.0470
vn 0.6666 0.7416 0.0747
vn 0.6994 0.7062 0.1106
vn 0.6968 0.7051 0.1314
vn 0.6466 0.7510 0.1335
vn 0.6443 0.7512 0.1436
vn 0.6501 0.7478 0.1349
vn 0.6955 0.7161 0.0596
vn 0.6406 0.7546 0.1423
vn 0.6426 0.7549 0.1312
vn 0.6787 0.7339 0.0277
vn 0.7333 0.6792 0.0307
vn 0.7055 0.7026 0.0931
vn 0.7251 0.6858 0.0622
vn 0.6320 0.7675 0.1078
vn 0.7269 0.6392 -0.2510
vn 0.6313 0.7699 0.0928
vn 0.6267 0.7793 0.0030
vn 0.6425 0.7652 -0.0411
vn 0.8009 0.5979 0.0312
vn 0.8771 -0.4803 0.0078
usemtl None.115
s 1
f 1//1 3//2 2//3
f 4//4 6//5 5//6
f 4//4 5//6 7//7
f 8//8 10//8 9//8
f 8//9 9//9 11//9
f 6//10 13//10 12//10
f 6//11 12//11 5//11
f 7//12 5//13 14//14
f 3//2 15//15 2//3
f 3//16 16//17 15//18
f 17//19 19//19 18//19
f 17//20 18//20 20//20
f 21//21 15//18 22//22
f 23//23 25//23 24//23
f 23//24 24//24 26//24
f 27//25 15//26 28//27
f 29//28 28//27 15//26
f 29//29 15//29 30//29
f 31//30 33//30 32//30
f 31//31 34//31 33//31
f 35//32 24//32 25//32
f 35//33 36//33 24//33
f 37//34 38//35 18//36
f 37//34 18//36 39//37
f 40//38 41//39 33//40
f 40//41 33//41 42//41
f 43//42 26//42 44//42
f 43//43 44//44 45//45
f 46//46 5//46 47//46
f 46//47 48//48 5//49
f 12//50 49//51 5//52
f 49//51 47//53 5//52
f 19//54 50//54 18//54
f 50//55 11//55 18//55
f 51//56 44//56 52//56
f 51//56 20//56 44//56
f 52//56 44//56 53//56
f 54//56 44//56 55//56
f 54//56 53//56 44//56
f 55//56 44//56 56//56
f 56//56 44//56 57//56
f 57//57 59//57 58//57
f 58//58 61//58 60//58
f 58//59 59//59 61//59
f 60//60 61//60 62//60
f 60//61 62//61 63//61
f 63//62 65//62 64//62
f 63//63 62//63 65//63
f 66//64 33//64 67//64
f 66//64 64//64 33//64
f 67//64 33//64 68//64
f 69//64 68//64 33//64
f 69//64 33//64 70//64
f 70//64 33//64 71//64
f 71//64 33//64 72//64
f 72//64 33//64 73//64
f 14//14 5//13 10//65
f 74//66 5//49 48//48
f 11//67 9//67 18//67
f 9//68 5//68 18//68
f 5//69 9//69 10//69
f 64//70 65//70 24//70
f 64//71 24//71 33//71
f 73//72 30//72 75//72
f 73//73 33//73 30//73
f 57//74 44//74 59//74
f 76//75 45//45 44//44
f 76//76 44//76 77//76
f 44//77 78//77 77//77
f 44//78 79//79 78//80
f 27//25 2//81 15//26
f 80//72 75//72 30//72
f 80//72 30//72 15//72
f 61//82 59//82 24//82
f 61//83 24//83 62//83
f 62//84 24//84 65//84
f 15//18 81//85 22//22
f 15//18 16//17 81//85
f 5//86 82//86 18//86
f 83//87 32//87 33//87
f 84//88 44//88 20//88
f 33//40 41//39 83//89
f 20//90 18//90 84//90
f 85//91 33//91 34//91
f 85//92 30//92 33//92
f 18//93 86//94 39//95
f 87//96 24//97 36//98
f 84//99 79//79 44//78
f 84//100 18//100 38//100
f 26//101 24//101 44//101
f 44//102 24//102 59//102
f 88//103 90//103 89//103
f 88//104 89//104 91//104
f 92//105 91//105 89//105
f 92//106 89//107 93//108
f 92//109 95//109 94//109
f 92//110 93//110 95//110
f 89//107 96//111 93//108
f 97//112 99//112 98//112
f 97//113 98//113 100//113
f 96//114 100//114 98//114
f 99//115 101//116 98//117
f 102//118 104//119 103//120
f 102//118 103//120 105//121
f 104//122 82//122 103//122
f 106//123 108//123 107//123
f 106//124 107//124 109//124
f 109//125 103//126 110//127
f 109//128 107//128 103//128
f 111//129 110//127 103//126
f 111//129 103//126 74//130
f 103//131 107//131 105//131
f 107//132 112//132 90//132
f 107//133 108//133 112//133
f 112//134 89//134 90//134
f 74//135 103//135 82//135
f 74//136 82//136 5//136
f 82//137 86//94 18//93
f 24//138 42//138 33//138
f 24//97 87//96 42//139
f 89//140 100//140 96//140
f 100//141 89//141 113//141
f 95//142 114//142 94//142
f 95//143 93//143 114//143
f 115//144 117//144 116//144
f 118//145 120//146 119//147
f 118//145 121//148 120//146
f 122//149 124//149 123//149
f 122//150 125//150 124//150
f 119//151 127//151 126//151
f 119//152 120//153 127//154
f 121//148 128//155 120//146
f 116//156 117//157 129//158
f 116//159 129//160 130//161
f 131//162 133//162 132//162
f 131//163 134//163 133//163
f 135//164 136//164 129//164
f 137//165 139//165 138//165
f 137//166 140//166 139//166
f 141//167 142//168 129//169
f 143//170 129//169 142//168
f 143//171 144//171 129//171
f 145//172 147//172 146//172
f 145//173 146//173 148//173
f 149//174 138//174 139//174
f 149//175 139//175 150//175
f 151//176 133//177 152//178
f 151//176 153//179 133//177
f 154//180 146//181 155//182
f 154//183 156//183 146//183
f 157//184 158//184 140//184
f 157//185 159//186 158//187
f 160//188 161//188 120//188
f 160//189 120//190 162//191
f 127//154 120//153 163//192
f 163//192 120//153 161//193
f 132//194 133//194 164//194
f 164//195 133//195 125//195
f 165//196 166//196 158//196
f 165//196 158//196 134//196
f 166//196 167//196 158//196
f 168//196 169//196 158//196
f 168//196 158//196 167//196
f 169//196 170//196 158//196
f 170//196 171//196 158//196
f 171//197 173//197 172//197
f 173//198 175//198 174//198
f 173//199 174//199 172//199
f 175//200 176//200 174//200
f 175//201 177//201 176//201
f 177//202 179//202 178//202
f 177//203 178//203 176//203
f 180//204 181//204 146//204
f 180//204 146//204 179//204
f 181//204 182//204 146//204
f 183//204 146//204 182//204
f 183//204 184//204 146//204
f 184//204 185//204 146//204
f 185//204 186//204 146//204
f 186//204 187//204 146//204
f 128//205 123//205 120//205
f 188//206 162//191 120//190
f 125//207 133//207 124//207
f 124//208 133//208 120//208
f 120//209 123//209 124//209
f 179//210 139//210 178//210
f 179//211 146//211 139//211
f 187//212 189//212 144//212
f 187//213 144//213 146//213
f 171//214 172//214 158//214
f 190//215 158//187 159//186
f 190//216 191//216 158//216
f 158//217 191//218 192//219
f 158//217 192//219 193//220
f 141//221 129//158 117//157
f 194//212 144//212 189//212
f 194//212 129//212 144//212
f 174//222 139//222 172//222
f 174//223 176//223 139//223
f 176//224 178//224 139//224
f 129//160 136//225 195//226
f 129//160 195//226 130//161
f 120//227 133//227 196//227
f 197//228 146//228 147//228
f 198//229 134//229 158//229
f 146//181 197//230 155//182
f 134//231 198//231 133//231
f 199//232 148//232 146//232
f 199//233 146//233 144//233
f 133//234 153//235 200//236
f 201//237 150//238 139//239
f 198//240 158//240 193//240
f 198//241 152//241 133//241
f 140//242 158//242 139//242
f 158//243 172//243 139//243
f 202//244 204//244 203//244
f 202//245 205//245 204//245
f 114//246 204//246 205//246
f 114//247 93//248 204//249
f 204//249 93//248 96//250
f 101//116 206//251 98//117
f 96//252 98//252 206//252
f 207//253 209//254 208//255
f 207//253 210//256 209//254
f 208//257 209//257 196//257
f 211//258 213//258 212//258
f 211//259 214//259 213//259
f 214//260 215//261 209//262
f 214//263 209//263 213//263
f 216//264 209//262 215//261
f 216//264 188//265 209//262
f 209//266 210//266 213//266
f 213//267 203//267 217//267
f 213//268 217//268 212//268
f 217//269 203//269 204//269
f 188//270 196//270 209//270
f 188//271 120//271 196//271
f 196//272 133//234 200//236
f 139//273 146//273 156//273
f 139//239 156//274 201//237
f 204//275 96//275 206//275
f 206//276 218//276 204//276
