# Blender v2.79 (sub 0) OBJ File: ''
# www.blender.org
mtllib crack_restart_keyway_175.mtl
o crack_restart_keyway_175
v 0.073499 -0.113119 -0.472461
v 0.072762 -0.113468 -0.459453
v 0.085066 -0.121135 -0.472461
v 0.096799 -0.128678 -0.472461
v 0.120406 -0.147382 -0.472461
v 0.109088 -0.137643 -0.472461
v 0.120406 -0.147382 -0.457089
v 0.070608 -0.114980 -0.394416
v 0.070375 -0.114968 -0.381408
v 0.070808 -0.114870 -0.368401
v 0.071239 -0.114631 -0.420431
v 0.070775 -0.114716 -0.407423
v 0.072572 -0.113777 -0.446446
v 0.071626 -0.114182 -0.433438
v 0.071315 -0.114589 -0.342386
v 0.073010 -0.116039 -0.337818
v 0.097629 -0.138004 -0.344683
v 0.071397 -0.114419 -0.350545
v 0.071394 -0.114493 -0.338892
v 0.120406 -0.147382 -0.257263
v 0.110889 -0.143963 -0.260511
v 0.117264 -0.146442 -0.249630
v 0.120406 -0.147382 -0.245123
v 0.120406 -0.147382 -0.264949
v 0.120406 -0.147382 -0.272634
v 0.107259 -0.142272 -0.266864
v 0.120406 -0.147382 -0.280320
v 0.120406 -0.147382 -0.288006
v 0.120406 -0.147382 -0.303377
v 0.120406 -0.147382 -0.318748
v 0.120406 -0.147382 -0.334119
v 0.120406 -0.147382 -0.349490
v 0.120406 -0.147382 -0.364862
v 0.120406 -0.147382 -0.380233
v 0.120406 -0.147382 -0.395604
v 0.120406 -0.147382 -0.410975
v 0.120406 -0.147382 -0.426347
v 0.120406 -0.147382 -0.441718
v 0.087006 -0.128858 -0.310155
v 0.089163 -0.130780 -0.305273
v 0.084196 -0.126501 -0.316024
v 0.082158 -0.124790 -0.320621
v 0.103125 -0.133188 -0.472461
v 0.100816 -0.138832 -0.279515
v 0.098948 -0.137640 -0.283352
v 0.103797 -0.140529 -0.273318
v 0.070920 -0.114625 -0.355393
v 0.080669 -0.123469 -0.323496
v 0.078248 -0.121161 -0.328624
v 0.092534 -0.133566 -0.297518
v 0.095105 -0.135228 -0.291658
v 0.097629 -0.138004 -0.344683
v 0.097540 -0.136710 -0.286314
v 0.075299 -0.118352 -0.334201
v 0.071315 -0.114589 -0.342386
v 0.073499 -0.113119 -0.472461
v 0.085066 -0.121135 -0.472461
v 0.072762 -0.113468 -0.459453
v 0.096799 -0.128678 -0.472461
v 0.120406 -0.147382 -0.472461
v 0.120406 -0.147382 -0.457089
v 0.109088 -0.137643 -0.472461
v 0.070608 -0.114980 -0.394416
v 0.070808 -0.114870 -0.368401
v 0.070375 -0.114968 -0.381408
v 0.071239 -0.114631 -0.420431
v 0.070775 -0.114716 -0.407423
v 0.072572 -0.113777 -0.446446
v 0.071626 -0.114182 -0.433438
v 0.071397 -0.114419 -0.350545
v 0.120406 -0.147382 -0.257263
v 0.120406 -0.147382 -0.264949
v 0.120406 -0.147382 -0.272634
v 0.120406 -0.147382 -0.280320
v 0.120406 -0.147382 -0.288006
v 0.120406 -0.147382 -0.303377
v 0.120406 -0.147382 -0.318748
v 0.120406 -0.147382 -0.334119
v 0.120406 -0.147382 -0.349490
v 0.120406 -0.147382 -0.364862
v 0.120406 -0.147382 -0.380233
v 0.120406 -0.147382 -0.395604
v 0.120406 -0.147382 -0.410975
v 0.120406 -0.147382 -0.426347
v 0.120406 -0.147382 -0.441718
v 0.103125 -0.133188 -0.472461
v 0.070920 -0.114625 -0.355393
vn 0.5688 0.8207 0.0542
vn 0.5407 0.8411 0.0157
vn 0.6523 0.7580 0.0000
vn -0.1281 0.9918 -0.0032
vn -0.4839 0.8751 -0.0000
vn 0.5151 0.8568 0.0240
vn 0.5607 0.8275 0.0278
vn 0.5791 0.8125 0.0674
vn 0.6643 0.7474 -0.0092
vn 0.6657 0.7459 0.0222
vn 0.7030 0.7103 -0.0354
vn 0.5637 0.8248 0.0452
vn 0.3318 0.9431 0.0204
vn 0.2866 0.9580 0.0000
vn 0.3381 0.9411 0.0000
vn 0.3623 0.9321 0.0000
vn 0.3807 0.9247 0.0000
vn 0.4352 0.8994 0.0416
vn 0.6601 0.7512 0.0041
vn 0.6467 0.7628 -0.0030
vn 0.6466 0.7628 -0.0031
vn 0.6465 0.7629 -0.0032
vn 0.6468 0.7626 -0.0029
vn 0.0005 0.0000 1.0000
vn 0.3997 0.9166 -0.0079
vn 0.5624 0.8267 -0.0170
vn 0.4013 0.9141 0.0573
vn 0.6630 0.7484 -0.0198
vn 0.6658 0.7458 0.0213
vn 0.6662 0.7455 0.0221
vn 0.6559 0.7549 0.0072
vn 0.5278 0.8493 0.0083
vn 0.6221 0.7808 0.0580
vn 0.6774 0.7291 -0.0976
vn 0.5833 0.7996 0.1429
vn 0.6411 0.7675 -0.0030
vn 0.5683 0.8227 -0.0160
vn -0.5624 -0.8267 0.0170
vn 0.5760 0.8172 -0.0172
vn -0.5760 -0.8172 0.0172
vn 0.5479 0.8364 -0.0177
vn -0.5479 -0.8364 0.0177
vn 0.6723 0.7388 0.0470
vn 0.6665 0.7451 0.0229
vn -0.7030 -0.7103 0.0354
vn -0.6662 -0.7455 -0.0221
vn -0.6658 -0.7458 -0.0213
vn -0.6665 -0.7451 -0.0229
vn -0.5688 -0.8207 -0.0542
vn -0.5407 -0.8411 -0.0157
vn -0.6523 -0.7580 0.0000
vn 0.1281 -0.9918 0.0032
vn 0.4839 -0.8751 0.0000
vn -0.5151 -0.8568 -0.0240
vn -0.5607 -0.8275 -0.0278
vn -0.5791 -0.8125 -0.0674
vn -0.6643 -0.7474 0.0092
vn -0.6657 -0.7459 -0.0222
vn -0.5637 -0.8248 -0.0452
vn -0.3318 -0.9431 -0.0204
vn -0.2866 -0.9580 0.0000
vn -0.3381 -0.9411 0.0000
vn -0.3623 -0.9321 0.0000
vn -0.3807 -0.9247 0.0000
vn -0.4352 -0.8994 -0.0416
vn -0.6601 -0.7512 -0.0041
vn -0.6467 -0.7628 0.0030
vn -0.6465 -0.7629 0.0032
vn -0.6466 -0.7628 0.0031
vn -0.6468 -0.7626 0.0029
vn -0.0005 -0.0000 -1.0000
vn -0.3997 -0.9166 0.0079
vn -0.4013 -0.9141 -0.0573
vn -0.6630 -0.7484 0.0198
vn -0.6559 -0.7549 -0.0072
vn -0.5278 -0.8493 -0.0083
vn -0.6221 -0.7808 -0.0580
vn -0.6774 -0.7291 0.0976
vn -0.5833 -0.7996 -0.1429
vn -0.6411 -0.7675 0.0030
vn -0.5683 -0.8227 0.0160
vn -0.6723 -0.7388 -0.0470
vn -0.3562 -0.9333 -0.0449
vn -0.3943 -0.9183 -0.0365
vn 0.3562 0.9333 0.0449
vn 0.3943 0.9183 0.0365
usemtl None.018
s 1
f 1//1 2//1 3//1
f 3//2 2//2 4//2
f 5//3 6//3 7//3
f 8//4 9//4 10//4
f 8//5 10//5 11//5
f 8//6 11//6 12//6
f 13//7 6//7 2//7
f 13//8 14//8 6//8
f 15//9 16//9 17//9
f 15//10 17//10 18//10
f 15//11 19//11 16//11
f 11//12 6//12 14//12
f 20//13 21//13 22//13
f 20//14 22//14 23//14
f 20//15 24//15 21//15
f 25//16 26//16 24//16
f 25//16 27//16 26//16
f 28//17 29//17 17//17
f 29//17 30//17 17//17
f 30//17 31//17 17//17
f 32//17 33//17 17//17
f 32//17 17//17 31//17
f 33//17 34//17 17//17
f 34//3 35//3 6//3
f 34//18 6//18 17//18
f 35//3 36//3 6//3
f 36//3 37//3 6//3
f 37//3 38//3 6//3
f 38//3 7//3 6//3
f 17//19 39//19 40//19
f 17//20 41//21 39//22
f 17//20 42//23 41//21
f 6//24 43//24 4//24
f 44//25 27//25 17//25
f 44//26 17//26 45//26
f 44//27 46//27 27//27
f 17//28 10//28 47//28
f 48//29 17//30 49//30
f 48//31 42//31 17//31
f 10//32 6//32 11//32
f 6//33 10//33 17//33
f 47//34 18//34 17//34
f 2//35 6//35 4//35
f 28//17 17//17 27//17
f 50//36 17//36 40//36
f 50//37 51//37 17//37
f 45//38 52//38 44//38
f 45//39 17//39 53//39
f 45//40 53//40 52//40
f 53//41 17//41 51//41
f 53//42 51//42 52//42
f 16//43 54//43 17//43
f 17//30 54//44 49//30
f 16//45 19//45 55//45
f 49//46 52//46 48//47
f 49//46 54//48 52//46
f 56//49 57//49 58//49
f 57//50 59//50 58//50
f 60//51 61//51 62//51
f 63//52 64//52 65//52
f 63//53 66//53 64//53
f 63//54 67//54 66//54
f 68//55 58//55 62//55
f 68//56 62//56 69//56
f 55//57 52//57 16//57
f 55//58 70//58 52//58
f 66//59 69//59 62//59
f 71//60 22//60 21//60
f 71//61 23//61 22//61
f 71//62 21//62 72//62
f 73//63 72//63 26//63
f 73//63 26//63 74//63
f 75//64 52//64 76//64
f 76//64 52//64 77//64
f 77//64 52//64 78//64
f 79//64 52//64 80//64
f 79//64 78//64 52//64
f 80//64 52//64 81//64
f 81//51 62//51 82//51
f 81//65 52//65 62//65
f 82//51 62//51 83//51
f 83//51 62//51 84//51
f 84//51 62//51 85//51
f 85//51 62//51 61//51
f 52//66 40//66 39//66
f 52//67 39//68 41//69
f 52//67 41//69 42//70
f 62//71 59//71 86//71
f 44//72 52//72 74//72
f 44//73 74//73 46//73
f 52//74 87//74 64//74
f 48//75 52//75 42//75
f 64//76 66//76 62//76
f 62//77 52//77 64//77
f 87//78 52//78 70//78
f 58//79 59//79 62//79
f 75//64 74//64 52//64
f 50//80 40//80 52//80
f 50//81 52//81 51//81
f 16//82 52//82 54//82
f 72//83 21//83 26//83
f 26//84 46//84 74//84
f 24//85 26//85 21//85
f 26//86 27//86 46//86
