# Blender v2.79 (sub 0) OBJ File: ''
# www.blender.org
mtllib crack_restart_keyway_110.mtl
o crack_restart_keyway_110
v 0.120406 -0.147382 -0.472461
v 0.120406 -0.147382 -0.457089
v 0.109344 -0.137439 -0.472461
v 0.072531 -0.113807 -0.446446
v 0.072761 -0.113468 -0.459453
v 0.088115 -0.123192 -0.472461
v 0.071577 -0.114212 -0.433438
v 0.071660 -0.114398 -0.420431
v 0.102207 -0.141299 -0.350429
v 0.071022 -0.114561 -0.407423
v 0.120406 -0.147382 -0.257263
v 0.112267 -0.145815 -0.260224
v 0.120406 -0.147382 -0.264949
v 0.114456 -0.146507 -0.256406
v 0.120406 -0.147382 -0.248433
v 0.115790 -0.146814 -0.254581
v 0.120406 -0.147382 -0.272634
v 0.107900 -0.144289 -0.273324
v 0.120406 -0.147382 -0.280320
v 0.109176 -0.144750 -0.269532
v 0.120406 -0.147382 -0.288006
v 0.104749 -0.143035 -0.282920
v 0.120406 -0.147382 -0.295691
v 0.120406 -0.147382 -0.303377
v 0.095189 -0.137137 -0.317093
v 0.120406 -0.147382 -0.318748
v 0.120406 -0.147382 -0.334119
v 0.120406 -0.147382 -0.349490
v 0.120406 -0.147382 -0.364862
v 0.120406 -0.147382 -0.380233
v 0.120406 -0.147382 -0.395604
v 0.120406 -0.147382 -0.410975
v 0.120406 -0.147382 -0.426347
v 0.120406 -0.147382 -0.441718
v 0.103048 -0.132863 -0.472461
v 0.072375 -0.117219 -0.383795
v 0.070501 -0.115039 -0.394416
v 0.070952 -0.114699 -0.402545
v 0.073468 -0.113210 -0.469065
v 0.073585 -0.113059 -0.472461
v 0.079393 -0.117192 -0.472461
v 0.093345 -0.135750 -0.323675
v 0.082833 -0.127213 -0.355104
v 0.081853 -0.126133 -0.358852
v 0.080193 -0.124608 -0.363581
v 0.083392 -0.127710 -0.353046
v 0.089735 -0.133063 -0.333414
v 0.087537 -0.131313 -0.339718
v 0.090984 -0.134034 -0.330251
v 0.102207 -0.141299 -0.350429
v 0.111161 -0.145390 -0.263607
v 0.102552 -0.141825 -0.290260
v 0.120406 -0.147382 -0.257263
v 0.120406 -0.147382 -0.264949
v 0.084261 -0.128471 -0.350094
v 0.085768 -0.129834 -0.345410
v 0.075871 -0.120350 -0.375366
v 0.078419 -0.122978 -0.368954
v 0.070154 -0.115232 -0.387912
v 0.070073 -0.115237 -0.385556
v 0.070154 -0.115232 -0.387912
v 0.120406 -0.147382 -0.472461
v 0.109344 -0.137439 -0.472461
v 0.120406 -0.147382 -0.457089
v 0.072531 -0.113807 -0.446446
v 0.088115 -0.123192 -0.472461
v 0.072761 -0.113468 -0.459453
v 0.071577 -0.114212 -0.433438
v 0.071660 -0.114398 -0.420431
v 0.071022 -0.114561 -0.407423
v 0.120406 -0.147382 -0.272634
v 0.120406 -0.147382 -0.280320
v 0.120406 -0.147382 -0.288006
v 0.120406 -0.147382 -0.295691
v 0.120406 -0.147382 -0.303377
v 0.120406 -0.147382 -0.318748
v 0.120406 -0.147382 -0.334119
v 0.120406 -0.147382 -0.349490
v 0.120406 -0.147382 -0.364862
v 0.120406 -0.147382 -0.380233
v 0.120406 -0.147382 -0.395604
v 0.120406 -0.147382 -0.410975
v 0.120406 -0.147382 -0.426347
v 0.120406 -0.147382 -0.441718
v 0.103048 -0.132863 -0.472461
v 0.070501 -0.115039 -0.394416
v 0.070952 -0.114699 -0.402545
v 0.073468 -0.113210 -0.469065
v 0.079393 -0.117192 -0.472461
v 0.073585 -0.113059 -0.472461
v 0.096750 -0.138475 -0.310544
v 0.098594 -0.139798 -0.303212
v 0.100749 -0.141002 -0.295809
vn -0.6685 -0.7437 0.0000
vn -0.5537 -0.8321 -0.0315
vn -0.5963 -0.7999 -0.0686
vn -0.6075 -0.7933 -0.0397
vn -0.6522 -0.7580 -0.0067
vn -0.1891 -0.9820 0.0000
vn -0.1573 -0.9836 -0.0881
vn -0.1221 -0.9925 0.0000
vn -0.1529 -0.9868 -0.0542
vn -0.2401 -0.9708 0.0000
vn -0.2379 -0.9705 -0.0379
vn -0.2282 -0.9736 0.0000
vn -0.2675 -0.9636 0.0000
vn -0.3764 -0.9265 0.0000
vn -0.3170 -0.9484 -0.0000
vn -0.3741 -0.9267 0.0369
vn -0.5671 -0.8220 -0.0519
vn -0.5677 -0.8211 -0.0585
vn -0.5670 -0.8221 -0.0516
vn -0.5671 -0.8221 -0.0512
vn -0.5560 -0.8284 -0.0679
vn 0.0000 0.0000 -1.0000
vn -0.5808 -0.8114 -0.0663
vn -0.5829 -0.8100 -0.0634
vn -0.5824 -0.8104 -0.0641
vn -0.6172 -0.7862 -0.0311
vn -0.5789 -0.8135 -0.0561
vn -0.5721 -0.8177 -0.0640
vn -0.5666 -0.8237 -0.0228
vn -0.5644 -0.8253 -0.0158
vn -0.5620 -0.8270 -0.0146
vn -0.5641 -0.8256 -0.0156
vn -0.5724 -0.8155 -0.0854
vn -0.5827 -0.8109 -0.0537
vn -0.5810 -0.8119 -0.0579
vn -0.5814 -0.8117 -0.0570
vn -0.5815 -0.8126 -0.0385
vn -0.5816 -0.8126 -0.0383
vn -0.5742 -0.8183 -0.0249
vn -0.5753 -0.8175 -0.0261
vn -0.5755 -0.8174 -0.0262
vn -0.5740 -0.8185 -0.0246
vn -0.5614 -0.8274 -0.0143
vn 0.5620 0.8270 0.0146
vn 0.5644 0.8253 0.0158
vn 0.5642 0.8255 0.0156
vn 0.5614 0.8274 0.0143
vn -0.2151 -0.9760 -0.0334
vn -0.3335 -0.9411 -0.0553
vn 0.1891 0.9820 0.0000
vn 0.1573 0.9836 0.0881
vn -0.2175 -0.9747 -0.0513
vn 0.2175 0.9747 0.0513
vn -0.5815 -0.8121 -0.0481
vn -0.5814 -0.8121 -0.0493
vn -0.5891 -0.8062 -0.0551
vn -0.5425 -0.8307 -0.1249
vn -0.6062 -0.7934 -0.0559
vn -0.5804 -0.8116 -0.0662
vn 0.2151 0.9760 0.0334
vn 0.1529 0.9867 0.0542
vn 0.5740 0.8185 0.0246
vn 0.5743 0.8183 0.0252
vn 0.5754 0.8175 0.0261
vn 0.5816 0.8126 0.0383
vn 0.5815 0.8121 0.0481
vn 0.5815 0.8126 0.0385
vn 0.5724 0.8155 0.0854
vn 0.5810 0.8119 0.0579
vn 0.5827 0.8109 0.0537
vn 0.5814 0.8117 0.0570
vn -0.5828 -0.8109 -0.0536
vn 0.5828 0.8109 0.0536
vn 0.5425 0.8307 0.1249
vn 0.1221 0.9925 0.0000
vn -0.6418 -0.7665 -0.0237
vn 0.6418 0.7665 0.0237
vn 0.6685 0.7437 0.0000
vn 0.5537 0.8321 0.0315
vn 0.5963 0.7999 0.0686
vn 0.6075 0.7933 0.0397
vn 0.6522 0.7580 0.0067
vn 0.2401 0.9708 0.0000
vn 0.2379 0.9705 0.0379
vn 0.2282 0.9736 0.0000
vn 0.2675 0.9636 0.0000
vn 0.3764 0.9265 0.0000
vn 0.3170 0.9484 0.0000
vn 0.3741 0.9267 -0.0369
vn 0.5671 0.8220 0.0519
vn 0.5670 0.8221 0.0516
vn 0.5677 0.8211 0.0585
vn 0.5671 0.8221 0.0512
vn 0.5560 0.8284 0.0679
vn 0.0000 0.0000 1.0000
vn 0.5889 0.8063 0.0559
vn 0.5829 0.8100 0.0634
vn 0.5876 0.8072 0.0573
vn 0.6172 0.7862 0.0311
vn 0.5789 0.8135 0.0561
vn 0.5721 0.8177 0.0640
vn 0.5666 0.8237 0.0228
vn 0.5782 0.8153 0.0318
vn 0.3335 0.9411 0.0553
vn 0.5814 0.8121 0.0493
vn 0.5891 0.8062 0.0551
vn 0.6062 0.7934 0.0559
vn 0.5804 0.8116 0.0662
vn 0.5783 0.8152 0.0321
vn 0.3190 0.9406 0.1161
vn 0.3283 0.9428 0.0578
vn 0.3277 0.9407 0.0873
vn 0.2611 0.9645 0.0403
vn 0.3210 0.9464 0.0361
vn -0.5783 -0.8152 -0.0321
vn -0.3190 -0.9406 -0.1161
vn -0.3283 -0.9428 -0.0578
vn -0.3277 -0.9407 -0.0873
vn -0.2611 -0.9645 -0.0403
vn -0.3210 -0.9464 -0.0361
usemtl None.004
s 1
f 1//1 2//1 3//1
f 4//2 5//2 6//2
f 4//3 6//3 7//3
f 8//4 9//4 10//4
f 8//5 7//5 9//5
f 11//6 12//6 13//6
f 11//7 14//7 12//7
f 11//8 15//8 16//8
f 11//9 16//9 14//9
f 17//10 18//10 19//10
f 17//11 20//11 18//11
f 17//12 13//12 20//12
f 21//13 22//13 23//13
f 21//13 19//13 22//13
f 24//14 25//14 26//14
f 26//15 9//15 27//15
f 26//16 25//16 9//16
f 27//15 9//15 28//15
f 28//15 9//15 29//15
f 29//15 9//15 30//15
f 31//15 9//15 32//15
f 31//15 30//15 9//15
f 32//15 9//15 33//15
f 33//15 9//15 34//15
f 2//1 34//1 3//1
f 34//17 9//18 7//19
f 34//17 7//19 6//20
f 34//21 6//21 3//21
f 3//22 6//22 35//22
f 9//23 36//24 37//25
f 10//26 9//26 38//26
f 39//27 40//27 41//27
f 39//28 6//28 5//28
f 39//29 41//29 6//29
f 23//13 22//13 24//13
f 25//30 42//31 9//32
f 9//33 43//33 44//33
f 9//34 44//35 45//36
f 9//37 46//38 43//38
f 9//39 47//40 48//41
f 9//39 49//42 47//40
f 9//32 42//31 49//43
f 42//44 25//45 50//46
f 42//44 50//46 49//47
f 20//48 13//48 51//48
f 22//49 52//49 24//49
f 12//50 53//50 54//50
f 12//51 14//51 53//51
f 12//52 51//52 13//52
f 12//53 54//53 51//53
f 55//54 9//37 56//55
f 55//54 46//38 9//37
f 9//56 57//56 36//56
f 57//57 9//57 58//57
f 37//58 36//58 59//58
f 37//25 38//59 9//23
f 51//60 54//60 20//60
f 14//61 16//61 53//61
f 49//62 50//63 47//64
f 46//65 55//66 50//67
f 46//65 50//67 43//65
f 43//68 50//68 44//68
f 44//69 50//70 45//71
f 58//72 9//34 45//36
f 58//73 45//71 50//70
f 58//74 50//74 57//74
f 16//75 15//75 53//75
f 60//76 59//76 36//76
f 60//77 36//77 61//77
f 62//78 63//78 64//78
f 65//79 66//79 67//79
f 65//80 68//80 66//80
f 69//81 70//81 50//81
f 69//82 50//82 68//82
f 71//83 72//83 18//83
f 71//84 18//84 20//84
f 71//85 20//85 54//85
f 73//86 74//86 22//86
f 73//86 22//86 72//86
f 75//87 76//87 25//87
f 76//88 77//88 50//88
f 76//89 50//89 25//89
f 77//88 78//88 50//88
f 78//88 79//88 50//88
f 79//88 80//88 50//88
f 81//88 82//88 50//88
f 81//88 50//88 80//88
f 82//88 83//88 50//88
f 83//88 84//88 50//88
f 64//78 63//78 84//78
f 84//90 68//91 50//92
f 84//90 66//93 68//91
f 84//94 63//94 66//94
f 63//95 85//95 66//95
f 50//96 86//97 36//98
f 70//99 87//99 50//99
f 88//100 89//100 90//100
f 88//101 67//101 66//101
f 88//102 66//102 89//102
f 74//86 75//86 22//86
f 50//63 48//103 47//64
f 22//104 75//104 52//104
f 55//66 56//105 50//67
f 50//96 36//98 57//106
f 86//107 61//107 36//107
f 86//108 50//108 87//108
f 50//63 56//109 48//103
f 25//110 91//110 75//110
f 92//111 93//111 75//111
f 92//112 75//112 91//112
f 72//113 22//113 18//113
f 75//114 93//114 52//114
f 9//115 48//115 56//115
f 25//116 24//116 91//116
f 92//117 24//117 93//117
f 92//118 91//118 24//118
f 19//119 18//119 22//119
f 24//120 52//120 93//120
