# Blender v2.79 (sub 0) OBJ File: ''
# www.blender.org
mtllib crack_restart_keyway_20.mtl
o crack_restart_keyway_20
v 0.120406 -0.147382 -0.472461
v 0.120406 -0.147382 -0.457089
v 0.111144 -0.137988 -0.452450
v 0.115180 -0.142167 -0.472461
v 0.120406 -0.147382 -0.349490
v 0.111995 -0.145657 -0.347731
v 0.111479 -0.145492 -0.350512
v 0.120406 -0.147382 -0.357176
v 0.120406 -0.147382 -0.341805
v 0.113511 -0.146040 -0.343766
v 0.120406 -0.147382 -0.380233
v 0.120406 -0.147382 -0.372547
v 0.106776 -0.143776 -0.367960
v 0.101526 -0.140035 -0.398897
v 0.120406 -0.147382 -0.387919
v 0.120406 -0.147382 -0.395604
v 0.120406 -0.147382 -0.403290
v 0.120406 -0.147382 -0.441718
v 0.120406 -0.147382 -0.426347
v 0.098463 -0.131871 -0.446438
v 0.109945 -0.136960 -0.472461
v 0.098608 -0.130488 -0.453768
v 0.098899 -0.129936 -0.456901
v 0.104680 -0.131775 -0.472461
v 0.098738 -0.133278 -0.440260
v 0.120406 -0.147382 -0.426347
v 0.098730 -0.134756 -0.432265
v 0.099064 -0.135956 -0.423787
v 0.098865 -0.135277 -0.428528
v 0.099194 -0.129115 -0.461774
v 0.099132 -0.128136 -0.467261
v 0.099193 -0.126169 -0.472461
v 0.099643 -0.137022 -0.417484
v 0.111144 -0.137988 -0.452450
v 0.104680 -0.131775 -0.472461
v 0.120406 -0.147382 -0.410975
v 0.100371 -0.138369 -0.408827
v 0.101197 -0.139622 -0.402038
v 0.120406 -0.147382 -0.403290
v 0.120406 -0.147382 -0.364862
v 0.110665 -0.145216 -0.354086
v 0.115093 -0.146348 -0.340491
v 0.117886 -0.146892 -0.334707
v 0.120406 -0.147382 -0.329489
v 0.120406 -0.147382 -0.341805
v 0.108317 -0.144541 -0.361531
v 0.120406 -0.147382 -0.364862
v 0.109652 -0.145030 -0.357558
v 0.120406 -0.147382 -0.472461
v 0.120406 -0.147382 -0.457089
v 0.115180 -0.142167 -0.472461
v 0.120406 -0.147382 -0.349490
v 0.120406 -0.147382 -0.357176
v 0.120406 -0.147382 -0.380233
v 0.120406 -0.147382 -0.372547
v 0.120406 -0.147382 -0.387919
v 0.120406 -0.147382 -0.395604
v 0.120406 -0.147382 -0.441718
v 0.109945 -0.136960 -0.472461
v 0.120406 -0.147382 -0.410975
vn -0.7115 -0.7027 0.0007
vn -0.7121 -0.7021 0.0000
vn -0.7049 -0.7093 0.0052
vn -0.7059 -0.7083 0.0056
vn -0.2049 -0.9786 -0.0196
vn -0.2045 -0.9787 -0.0166
vn -0.2049 -0.9786 -0.0200
vn -0.2071 -0.9783 0.0000
vn -0.1911 -0.9816 0.0000
vn -0.1910 -0.9816 -0.0000
vn -0.2042 -0.9788 -0.0165
vn -0.2558 -0.9667 0.0000
vn -0.3076 -0.9495 -0.0626
vn -0.3627 -0.9319 0.0000
vn -0.5772 -0.8166 0.0000
vn -0.5179 -0.8133 -0.2649
vn -0.7033 -0.7108 0.0056
vn -0.4883 -0.8505 -0.1952
vn -0.7017 -0.7125 0.0054
vn -0.4536 -0.8731 -0.1787
vn 0.4536 0.8731 0.1787
vn -0.4634 -0.8713 -0.1615
vn 0.4634 0.8713 0.1615
vn -0.4791 -0.8716 -0.1040
vn -0.4791 -0.8716 -0.1041
vn -0.4792 -0.8715 -0.1044
vn -0.4926 -0.8533 -0.1708
vn -0.4963 -0.8506 -0.1734
vn -0.5144 -0.8452 -0.1450
vn -0.3097 -0.8881 -0.3396
vn -0.7146 -0.6994 0.0137
vn -0.4791 -0.8717 -0.1034
vn 0.3097 0.8881 0.3396
vn 0.7146 0.6994 -0.0137
vn -0.4465 -0.8948 0.0000
vn -0.3804 -0.9174 -0.1170
vn -0.3790 -0.9173 -0.1218
vn -0.3822 -0.9175 -0.1106
vn -0.3786 -0.9173 -0.1232
vn -0.3779 -0.9222 -0.0817
vn 0.3790 0.9173 0.1218
vn 0.3804 0.9174 0.1170
vn 0.3822 0.9175 0.1106
vn 0.3786 0.9173 0.1232
vn -0.4792 -0.8715 -0.1042
vn -0.2243 -0.9742 -0.0242
vn -0.2171 -0.9762 0.0000
vn -0.2159 -0.9764 0.0012
vn -0.2100 -0.9777 0.0068
vn 0.3779 0.9222 0.0817
vn -0.1910 -0.9816 -0.0001
vn -0.1909 -0.9816 -0.0000
vn 0.5144 0.8452 0.1450
vn 0.4963 0.8506 0.1734
vn 0.1909 0.9816 0.0000
vn 0.1910 0.9816 0.0000
vn 0.4792 0.8715 0.1042
vn 0.4792 0.8715 0.1044
vn 0.4791 0.8716 0.1040
vn 0.4791 0.8716 0.1041
vn -0.2432 -0.9683 -0.0569
vn 0.2432 0.9683 0.0569
vn -0.2388 -0.9703 -0.0392
vn 0.2388 0.9703 0.0392
vn -0.2082 -0.9780 0.0084
vn 0.2082 0.9780 -0.0084
vn 0.1910 0.9816 0.0001
vn 0.7121 0.7021 0.0000
vn 0.7064 0.7078 -0.0054
vn 0.7059 0.7083 -0.0056
vn 0.7043 0.7098 -0.0056
vn 0.2049 0.9786 0.0196
vn 0.2049 0.9786 0.0200
vn 0.2045 0.9787 0.0166
vn 0.2071 0.9783 0.0000
vn 0.1911 0.9816 0.0000
vn 0.2042 0.9788 0.0165
vn 0.2558 0.9667 0.0000
vn 0.3076 0.9495 0.0626
vn 0.3627 0.9319 0.0000
vn 0.5772 0.8166 0.0000
vn 0.5179 0.8133 0.2649
vn 0.7033 0.7108 -0.0056
vn 0.4883 0.8505 0.1952
vn 0.7017 0.7125 -0.0054
vn 0.4926 0.8533 0.1708
vn 0.4791 0.8717 0.1034
vn 0.4465 0.8948 0.0000
vn 0.2243 0.9742 0.0242
vn 0.2171 0.9762 0.0000
usemtl None.023
s 1
f 1//1 2//2 3//3
f 1//1 3//3 4//4
f 5//5 6//6 7//7
f 5//8 7//8 8//8
f 5//9 9//10 10//10
f 5//5 10//11 6//6
f 11//12 12//12 13//12
f 11//13 13//13 14//13
f 11//14 14//14 15//14
f 16//14 14//14 17//14
f 18//2 3//3 2//2
f 18//15 19//15 20//15
f 18//16 20//16 3//16
f 3//3 21//17 4//4
f 3//18 22//18 23//18
f 21//17 3//3 24//19
f 25//20 20//20 19//20
f 25//21 26//21 20//21
f 25//22 19//22 27//22
f 25//23 27//23 26//23
f 19//24 28//25 29//26
f 22//27 3//27 20//27
f 3//28 23//28 30//28
f 3//29 30//29 31//29
f 3//30 31//30 32//30
f 3//31 32//31 24//31
f 19//24 33//32 28//25
f 32//33 31//33 34//33
f 32//34 34//34 35//34
f 17//35 33//35 36//35
f 17//36 37//37 33//38
f 17//36 38//39 37//37
f 17//40 14//40 38//40
f 33//35 19//35 36//35
f 37//41 39//42 33//43
f 37//41 38//44 39//42
f 19//24 29//26 27//45
f 15//14 14//14 16//14
f 12//12 40//12 13//12
f 8//46 7//46 41//46
f 8//47 41//48 40//49
f 38//50 14//50 39//50
f 9//10 42//51 10//10
f 9//10 43//52 42//51
f 9//10 44//52 43//52
f 31//53 30//53 34//53
f 30//54 23//54 34//54
f 44//55 45//56 43//55
f 27//57 29//58 26//59
f 29//58 28//60 26//59
f 13//61 40//61 46//61
f 13//62 46//62 47//62
f 46//63 40//63 48//63
f 46//64 48//64 47//64
f 41//48 48//65 40//49
f 41//66 47//66 48//66
f 43//55 45//56 42//67
f 49//68 34//68 50//68
f 49//69 51//70 34//71
f 52//72 7//73 6//74
f 52//75 53//75 7//75
f 52//76 10//56 45//56
f 52//72 6//74 10//77
f 54//78 13//78 55//78
f 54//79 14//79 13//79
f 54//80 56//80 14//80
f 57//80 39//80 14//80
f 58//68 50//68 34//68
f 58//81 20//81 26//81
f 58//82 34//82 20//82
f 34//71 51//70 59//83
f 34//84 23//84 22//84
f 59//83 35//85 34//71
f 22//86 20//86 34//86
f 26//59 28//60 33//87
f 39//88 60//88 33//88
f 33//88 60//88 26//88
f 56//80 57//80 14//80
f 55//78 13//78 47//78
f 53//89 41//89 7//89
f 53//90 47//90 41//90
f 45//56 10//56 42//67
