# Blender v2.79 (sub 0) OBJ File: ''
# www.blender.org
mtllib crack_restart_keyway_0.mtl
o crack_restart_keyway_0
v 0.120406 -0.147382 -0.472461
v 0.120406 -0.147382 -0.464775
v 0.115186 -0.142162 -0.472461
v 0.120406 -0.147382 -0.441718
v 0.120406 -0.147382 -0.437802
v 0.116045 -0.143022 -0.443298
v 0.120406 -0.147382 -0.449404
v 0.120406 -0.147382 -0.457089
v 0.102847 -0.129823 -0.457526
v 0.120406 -0.147382 -0.472461
v 0.115186 -0.142162 -0.472461
v 0.120406 -0.147382 -0.464775
v 0.120406 -0.147382 -0.441718
v 0.120406 -0.147382 -0.449404
v 0.105613 -0.132590 -0.472461
v 0.120406 -0.147382 -0.457089
v 0.099742 -0.126718 -0.467483
v 0.108169 -0.135145 -0.448778
v 0.111925 -0.138901 -0.445235
v 0.099193 -0.126169 -0.472461
v 0.105613 -0.132590 -0.472461
vn -0.7071 -0.7071 0.0000
vn -0.7070 -0.7072 0.0000
vn -0.7071 -0.7071 -0.0001
vn 0.7071 0.7071 0.0000
vn 0.7070 0.7072 0.0000
vn 0.7071 0.7071 0.0001
vn 0.7072 0.7071 -0.0000
vn -0.7072 -0.7071 0.0000
vn -0.7072 -0.7070 0.0000
usemtl None
s 1
f 1//1 2//1 3//1
f 4//2 5//2 6//3
f 4//2 6//3 7//1
f 8//1 9//1 2//1
f 8//1 7//1 9//1
f 10//4 11//4 12//4
f 13//5 6//6 5//5
f 13//5 14//4 6//6
f 11//4 15//4 9//4
f 11//4 9//4 16//4
f 11//4 16//4 12//4
f 9//4 15//4 17//7
f 9//4 18//4 16//4
f 14//4 19//4 6//6
f 14//4 18//4 19//4
f 14//4 16//4 18//4
f 15//4 20//7 17//7
f 3//1 9//1 21//1
f 3//1 2//1 9//1
f 9//1 17//8 21//1
f 17//8 20//9 21//1
f 19//1 7//1 6//3
f 19//1 18//1 7//1
f 7//1 18//1 9//1
