# Blender v2.79 (sub 0) OBJ File: ''
# www.blender.org
mtllib crack_restart_keyway_680.mtl
o crack_restart_keyway_680
v 0.073364 -0.113215 -0.472461
v 0.072943 -0.113354 -0.459453
v 0.084670 -0.121384 -0.472461
v 0.147226 -0.162038 -0.087632
v 0.107874 -0.141869 -0.075108
v 0.150733 -0.164623 -0.087292
v 0.143382 -0.159202 -0.088100
v 0.131068 -0.149873 -0.089874
v 0.127500 -0.150669 -0.086864
v 0.135361 -0.153082 -0.089190
v 0.126540 -0.147825 -0.091832
v 0.152181 -0.169045 -0.080799
v 0.154210 -0.167189 -0.086931
v 0.139588 -0.156322 -0.088617
v 0.120406 -0.147382 -0.426347
v 0.095813 -0.129464 -0.472461
v 0.120406 -0.147382 -0.103551
v 0.114631 -0.144474 -0.094849
v 0.120866 -0.146923 -0.098614
v 0.120406 -0.147382 -0.118922
v 0.120406 -0.147382 -0.472461
v 0.108118 -0.138417 -0.472461
v 0.120406 -0.147382 -0.457089
v 0.070708 -0.114924 -0.394416
v 0.070012 -0.115195 -0.381408
v 0.120406 -0.147382 -0.395604
v 0.070963 -0.114598 -0.407423
v 0.072189 -0.114049 -0.290356
v 0.072619 -0.113558 -0.277349
v 0.095007 -0.133122 -0.288882
v 0.071485 -0.114270 -0.303364
v 0.072613 -0.113748 -0.446446
v 0.071896 -0.114012 -0.433438
v 0.071824 -0.114308 -0.342386
v 0.071548 -0.114231 -0.329378
v 0.070429 -0.114933 -0.355393
v 0.071543 -0.114463 -0.420431
v 0.073094 -0.113407 -0.264341
v 0.073185 -0.113202 -0.251334
v 0.104170 -0.140678 -0.280927
v 0.074697 -0.112270 -0.160281
v 0.075116 -0.111989 -0.147274
v 0.074436 -0.112416 -0.173289
v 0.076303 -0.111243 -0.121259
v 0.102231 -0.136933 -0.128183
v 0.075701 -0.111557 -0.134267
v 0.076588 -0.110928 -0.108252
v 0.071654 -0.114402 -0.316371
v 0.146827 -0.173685 -0.061412
v 0.148176 -0.172560 -0.068130
v 0.145949 -0.174296 -0.051011
v 0.150288 -0.170725 -0.074801
v 0.122213 -0.145575 -0.094013
v 0.115967 -0.144847 -0.090502
v 0.120406 -0.147382 -0.134293
v 0.120406 -0.147382 -0.149664
v 0.120406 -0.147382 -0.165036
v 0.120406 -0.147382 -0.180407
v 0.120406 -0.147382 -0.195778
v 0.120406 -0.147382 -0.241892
v 0.120406 -0.147382 -0.257263
v 0.120406 -0.147382 -0.226521
v 0.120406 -0.147382 -0.272634
v 0.120406 -0.147382 -0.288006
v 0.120406 -0.147382 -0.303377
v 0.120406 -0.147382 -0.318748
v 0.120406 -0.147382 -0.334119
v 0.120406 -0.147382 -0.349490
v 0.120406 -0.147382 -0.364862
v 0.120406 -0.147382 -0.380233
v 0.120406 -0.147382 -0.441718
v 0.105954 -0.148311 0.211505
v 0.143352 -0.175275 -0.027795
v 0.144733 -0.174770 -0.039702
v 0.072275 -0.113021 -0.026405
v 0.070548 -0.115013 -0.368401
v 0.074599 -0.112097 -0.081618
v 0.075942 -0.111385 -0.096423
v 0.120406 -0.147382 -0.410975
v 0.073555 -0.113080 -0.238326
v 0.120406 -0.147382 -0.211149
v 0.074037 -0.112738 -0.186296
v 0.103577 -0.135111 -0.472461
v 0.071582 -0.111264 -0.054992
v 0.073854 -0.112782 -0.225319
v 0.074043 -0.112734 -0.212311
v 0.137910 -0.180447 0.255725
v 0.135120 -0.182099 0.235457
v 0.115855 -0.143949 0.280863
v 0.132886 -0.183274 0.211715
v 0.132091 -0.183996 0.191320
v 0.077519 -0.109728 0.198527
v 0.078286 -0.108382 0.212311
v 0.080595 -0.106234 0.238326
v 0.100091 -0.125140 0.269402
v 0.127471 -0.158125 0.285798
v 0.139440 -0.179607 0.265437
v 0.141318 -0.177297 0.281318
v 0.087871 -0.111049 0.258422
v 0.070316 -0.112215 -0.001446
v 0.071504 -0.113506 0.025179
v 0.069986 -0.112534 0.052171
v 0.071144 -0.113734 0.078646
v 0.070078 -0.112335 0.106111
v 0.131518 -0.184170 0.162185
v 0.132003 -0.184021 0.136994
v 0.132702 -0.183259 0.112711
v 0.134149 -0.182548 0.085452
v 0.135315 -0.181410 0.064588
v 0.137686 -0.180039 0.036048
v 0.139256 -0.178658 0.017397
v 0.141664 -0.176739 -0.009384
v 0.072793 -0.112696 0.129813
v 0.075528 -0.109896 0.181143
v 0.074018 -0.112679 -0.199304
v 0.142158 -0.176236 0.289154
v 0.141318 -0.177297 0.281318
v 0.081723 -0.104222 0.251696
v 0.080595 -0.106234 0.238326
v 0.073364 -0.113215 -0.472461
v 0.084670 -0.121384 -0.472461
v 0.072943 -0.113354 -0.459453
v 0.147226 -0.162038 -0.087632
v 0.150733 -0.164623 -0.087292
v 0.107874 -0.141869 -0.075108
v 0.143382 -0.159202 -0.088100
v 0.131068 -0.149873 -0.089874
v 0.135361 -0.153082 -0.089190
v 0.127500 -0.150669 -0.086864
v 0.126540 -0.147825 -0.091832
v 0.154210 -0.167189 -0.086931
v 0.152181 -0.169045 -0.080799
v 0.139588 -0.156322 -0.088617
v 0.120406 -0.147382 -0.426347
v 0.095813 -0.129464 -0.472461
v 0.120406 -0.147382 -0.103551
v 0.120866 -0.146923 -0.098614
v 0.114631 -0.144474 -0.094849
v 0.120406 -0.147382 -0.118922
v 0.120406 -0.147382 -0.472461
v 0.120406 -0.147382 -0.457089
v 0.108118 -0.138417 -0.472461
v 0.070708 -0.114924 -0.394416
v 0.120406 -0.147382 -0.395604
v 0.070012 -0.115195 -0.381408
v 0.070963 -0.114598 -0.407423
v 0.072189 -0.114049 -0.290356
v 0.095007 -0.133122 -0.288882
v 0.072619 -0.113558 -0.277349
v 0.071485 -0.114270 -0.303364
v 0.072613 -0.113748 -0.446446
v 0.071896 -0.114012 -0.433438
v 0.071824 -0.114308 -0.342386
v 0.071548 -0.114231 -0.329378
v 0.070429 -0.114933 -0.355393
v 0.071543 -0.114463 -0.420431
v 0.073094 -0.113407 -0.264341
v 0.104170 -0.140678 -0.280927
v 0.073185 -0.113202 -0.251334
v 0.074697 -0.112270 -0.160281
v 0.074436 -0.112416 -0.173289
v 0.075116 -0.111989 -0.147274
v 0.076303 -0.111243 -0.121259
v 0.075701 -0.111557 -0.134267
v 0.102231 -0.136933 -0.128183
v 0.076588 -0.110928 -0.108252
v 0.071654 -0.114402 -0.316371
v 0.146827 -0.173685 -0.061412
v 0.148176 -0.172560 -0.068130
v 0.145949 -0.174296 -0.051011
v 0.150288 -0.170725 -0.074801
v 0.122213 -0.145575 -0.094013
v 0.115967 -0.144847 -0.090502
v 0.120406 -0.147382 -0.134293
v 0.120406 -0.147382 -0.149664
v 0.120406 -0.147382 -0.165036
v 0.120406 -0.147382 -0.180407
v 0.120406 -0.147382 -0.195778
v 0.120406 -0.147382 -0.241892
v 0.120406 -0.147382 -0.257263
v 0.120406 -0.147382 -0.226521
v 0.120406 -0.147382 -0.272634
v 0.120406 -0.147382 -0.288006
v 0.120406 -0.147382 -0.303377
v 0.120406 -0.147382 -0.318748
v 0.120406 -0.147382 -0.334119
v 0.120406 -0.147382 -0.349490
v 0.120406 -0.147382 -0.364862
v 0.120406 -0.147382 -0.380233
v 0.120406 -0.147382 -0.441718
v 0.143352 -0.175275 -0.027795
v 0.105954 -0.148311 0.211505
v 0.144733 -0.174770 -0.039702
v 0.072275 -0.113021 -0.026405
v 0.070548 -0.115013 -0.368401
v 0.074599 -0.112097 -0.081618
v 0.075942 -0.111385 -0.096423
v 0.120406 -0.147382 -0.410975
v 0.120406 -0.147382 -0.211149
v 0.073555 -0.113080 -0.238326
v 0.074037 -0.112738 -0.186296
v 0.103577 -0.135111 -0.472461
v 0.071582 -0.111264 -0.054992
v 0.073854 -0.112782 -0.225319
v 0.074043 -0.112734 -0.212311
v 0.135120 -0.182099 0.235457
v 0.137910 -0.180447 0.255725
v 0.132091 -0.183996 0.191320
v 0.132886 -0.183274 0.211715
v 0.077519 -0.109728 0.198527
v 0.078286 -0.108382 0.212311
v 0.139440 -0.179607 0.265437
v 0.070316 -0.112215 -0.001446
v 0.071504 -0.113506 0.025179
v 0.069986 -0.112534 0.052171
v 0.071144 -0.113734 0.078646
v 0.070078 -0.112335 0.106111
v 0.131518 -0.184170 0.162185
v 0.132003 -0.184021 0.136994
v 0.132702 -0.183259 0.112711
v 0.134149 -0.182548 0.085452
v 0.135315 -0.181410 0.064588
v 0.137686 -0.180039 0.036048
v 0.139256 -0.178658 0.017397
v 0.141664 -0.176739 -0.009384
v 0.072793 -0.112696 0.129813
v 0.075528 -0.109896 0.181143
v 0.074018 -0.112679 -0.199304
vn -0.5854 -0.8103 -0.0276
vn -0.5159 -0.7535 -0.4075
vn -0.5186 -0.7568 -0.3979
vn -0.5154 -0.7546 -0.4060
vn -0.5153 -0.7629 -0.3905
vn -0.3922 -0.6610 -0.6397
vn -0.1937 -0.8671 -0.4589
vn -0.5169 -0.7568 -0.4001
vn -0.5166 -0.7571 -0.3999
vn -0.5166 -0.7535 -0.4066
vn -0.5166 -0.7532 -0.4072
vn -0.5205 -0.7523 -0.4038
vn -0.5759 -0.8174 -0.0146
vn -0.5870 -0.8096 -0.0015
vn -0.5880 -0.8089 -0.0018
vn -0.5876 -0.8092 -0.0011
vn -0.3016 -0.9463 0.1161
vn -0.4497 -0.8932 0.0000
vn -0.5894 -0.8079 0.0000
vn -0.5893 -0.8079 -0.0004
vn -0.5470 -0.8358 -0.0467
vn -0.5471 -0.8365 -0.0317
vn -0.5469 -0.8366 -0.0325
vn -0.5469 -0.8365 -0.0324
vn -0.6424 -0.7648 0.0489
vn -0.6424 -0.7648 0.0490
vn -0.6424 -0.7647 0.0501
vn -0.6424 -0.7649 0.0478
vn -0.5638 -0.8245 -0.0470
vn -0.5624 -0.8259 -0.0402
vn -0.5616 -0.8262 -0.0440
vn -0.5640 -0.8249 -0.0393
vn -0.6183 -0.7859 -0.0085
vn -0.6201 -0.7845 -0.0076
vn -0.6170 -0.7869 -0.0059
vn -0.7699 -0.6281 0.1128
vn -0.5618 -0.8261 -0.0439
vn -0.6545 -0.7559 0.0165
vn -0.6500 -0.7595 0.0252
vn -0.6485 -0.7610 0.0179
vn -0.6494 -0.7598 0.0325
vn -0.6470 -0.7619 0.0307
vn -0.6503 -0.7590 0.0315
vn 0.6525 -0.7577 -0.0046
vn 0.6465 -0.7629 -0.0044
vn 0.6465 -0.7629 -0.0043
vn -0.6963 -0.7161 0.0495
vn -0.6971 -0.7153 0.0498
vn -0.6968 -0.7152 0.0549
vn -0.6991 -0.7143 0.0326
vn -0.6207 -0.7840 -0.0010
vn -0.6253 -0.7804 -0.0002
vn -0.5602 -0.7913 -0.2450
vn -0.6087 -0.7873 -0.0976
vn -0.5195 -0.7675 -0.3756
vn -0.5186 -0.7668 -0.3783
vn -0.5191 -0.7670 -0.3771
vn -0.5188 -0.7666 -0.3784
vn -0.1708 -0.9310 0.3227
vn -0.2943 -0.8939 -0.3382
vn -0.1390 -0.9894 -0.0422
vn -0.4984 -0.8669 0.0000
vn -0.4933 -0.8698 -0.0133
vn -0.6054 -0.7959 0.0000
vn -0.3817 -0.9243 -0.0000
vn -0.4896 -0.8720 0.0000
vn -0.9545 -0.2738 -0.1183
vn 0.0581 -0.9977 -0.0356
vn 0.0594 -0.9976 -0.0354
vn -0.6416 -0.7669 -0.0173
vn -0.6368 -0.7707 -0.0214
vn -0.6462 -0.7628 -0.0261
vn -0.6425 -0.7661 -0.0158
vn -0.5176 -0.7486 -0.4143
vn -0.5940 -0.8045 -0.0005
vn -0.6618 -0.7486 -0.0404
vn -0.5451 -0.7686 -0.3347
vn -0.7527 -0.6508 -0.0996
vn -0.2654 -0.9630 0.0468
vn -0.5735 -0.8143 -0.0892
vn -0.1513 -0.8958 0.4180
vn -0.4648 -0.8443 -0.2665
vn -0.8825 -0.4067 0.2362
vn -0.8827 -0.4061 0.2365
vn -0.8827 -0.4061 0.2366
vn -0.5587 -0.8293 0.0000
vn -0.5468 -0.8366 -0.0331
vn -0.6670 -0.7451 0.0016
vn -0.4125 -0.9101 -0.0408
vn -0.5907 -0.8069 0.0000
vn -0.5986 -0.8011 -0.0001
vn -0.5985 -0.8011 0.0000
vn -0.5986 -0.8010 -0.0002
vn -0.6021 -0.7942 0.0818
vn -0.5931 -0.8042 0.0381
vn -0.5883 -0.8086 -0.0005
vn -0.5312 -0.8466 0.0337
vn -0.7354 -0.6744 -0.0662
vn -0.5587 -0.8286 -0.0374
vn -0.6498 -0.7596 0.0270
vn -0.6967 -0.7152 0.0551
vn -0.6880 -0.7251 0.0299
vn -0.6025 -0.7975 0.0321
vn -0.5988 -0.8008 0.0117
vn -0.5521 -0.8336 -0.0200
vn -0.8016 -0.5792 0.1482
vn -0.8000 -0.5790 0.1573
vn -0.7980 -0.5816 0.1579
vn -0.7989 -0.5823 0.1507
vn -0.7913 -0.6092 0.0524
vn -0.7882 -0.6065 0.1042
vn -0.8164 -0.5686 0.1008
vn -0.8167 -0.5683 0.1000
vn -0.8168 -0.5680 0.1009
vn -0.8150 -0.5671 0.1192
vn -0.8015 -0.5790 0.1494
vn -0.7803 -0.6005 0.1749
vn -0.7804 -0.5991 0.1787
vn -0.7792 -0.6018 0.1752
vn -0.7771 -0.6032 0.1796
vn -0.7902 -0.5905 0.1640
vn -0.8032 -0.5767 0.1494
vn -0.8020 -0.5768 0.1550
vn -0.7021 -0.7121 -0.0032
vn -0.6343 -0.7727 -0.0248
vn -0.6786 -0.7344 -0.0117
vn -0.7016 -0.7125 -0.0016
vn -0.7190 -0.6950 0.0075
vn -0.8014 -0.5979 0.0193
vn -0.8264 -0.5627 -0.0192
vn -0.8460 -0.5315 -0.0410
vn -0.8661 -0.4963 -0.0589
vn -0.8868 -0.4562 -0.0744
vn -0.9155 -0.3911 -0.0948
vn -0.9299 -0.3527 -0.1044
vn -0.9359 -0.3352 -0.1082
vn -0.9420 -0.3166 -0.1115
vn -0.8191 -0.5673 0.0852
vn -0.8097 -0.5821 0.0749
vn -0.9299 -0.3678 -0.0003
vn -0.9360 -0.3519 -0.0003
vn -0.9299 -0.3678 -0.0002
vn -0.5986 -0.8010 -0.0003
vn -0.6495 -0.7600 0.0256
vn -0.7808 -0.6025 0.1653
vn 0.7808 0.6025 -0.1653
vn -0.8167 -0.5686 0.0990
vn -0.8049 -0.5730 0.1541
vn 0.8049 0.5730 -0.1541
vn 0.8023 0.5772 -0.1522
vn 0.8015 0.5790 -0.1494
vn 0.8012 0.5787 -0.1523
vn 0.5854 0.8103 0.0276
vn 0.5159 0.7535 0.4075
vn 0.5154 0.7546 0.4060
vn 0.5198 0.7542 0.4013
vn 0.5153 0.7629 0.3905
vn 0.3922 0.6610 0.6397
vn 0.1937 0.8671 0.4589
vn 0.5169 0.7568 0.4001
vn 0.5159 0.7572 0.4006
vn 0.5166 0.7535 0.4066
vn 0.5205 0.7523 0.4038
vn 0.5166 0.7531 0.4072
vn 0.5759 0.8174 0.0146
vn 0.5870 0.8096 0.0015
vn 0.5885 0.8085 0.0005
vn 0.5880 0.8089 0.0018
vn 0.3016 0.9463 -0.1161
vn 0.4497 0.8932 0.0000
vn 0.5894 0.8079 0.0000
vn 0.5470 0.8358 0.0467
vn 0.5471 0.8365 0.0317
vn 0.5469 0.8365 0.0324
vn 0.5469 0.8366 0.0325
vn 0.6424 0.7648 -0.0489
vn 0.6424 0.7647 -0.0501
vn 0.6424 0.7648 -0.0490
vn 0.6424 0.7649 -0.0478
vn 0.5639 0.8245 0.0471
vn 0.5616 0.8262 0.0440
vn 0.5624 0.8259 0.0401
vn 0.5640 0.8249 0.0393
vn 0.6183 0.7859 0.0085
vn 0.6170 0.7869 0.0059
vn 0.6201 0.7845 0.0076
vn 0.7699 0.6281 -0.1128
vn 0.5618 0.8261 0.0439
vn 0.6545 0.7559 -0.0165
vn 0.6485 0.7610 -0.0179
vn 0.6500 0.7595 -0.0252
vn 0.6494 0.7598 -0.0325
vn -0.6525 0.7577 0.0046
vn -0.6465 0.7629 0.0043
vn -0.6465 0.7629 0.0044
vn 0.6963 0.7161 -0.0495
vn 0.6968 0.7152 -0.0549
vn 0.6971 0.7153 -0.0498
vn 0.6991 0.7143 -0.0326
vn 0.6207 0.7840 0.0010
vn 0.6253 0.7804 0.0002
vn 0.5602 0.7913 0.2450
vn 0.6087 0.7873 0.0976
vn 0.5195 0.7675 0.3756
vn 0.5191 0.7670 0.3771
vn 0.5186 0.7668 0.3783
vn 0.5188 0.7666 0.3784
vn 0.1708 0.9310 -0.3227
vn 0.2943 0.8939 0.3382
vn 0.1390 0.9894 0.0422
vn 0.4984 0.8669 0.0000
vn 0.4933 0.8698 0.0133
vn 0.6054 0.7959 0.0000
vn 0.3817 0.9243 0.0000
vn 0.4896 0.8720 0.0000
vn 0.9545 0.2738 0.1183
vn -0.0581 0.9977 0.0356
vn -0.0594 0.9976 0.0354
vn 0.6416 0.7669 0.0173
vn 0.6455 0.7636 0.0180
vn 0.6437 0.7650 0.0223
vn 0.6425 0.7661 0.0158
vn 0.5176 0.7486 0.4143
vn 0.5940 0.8045 0.0005
vn 0.6618 0.7486 0.0404
vn 0.5451 0.7686 0.3347
vn 0.7527 0.6508 0.0996
vn 0.2654 0.9630 -0.0468
vn 0.5735 0.8143 0.0892
vn 0.1513 0.8958 -0.4180
vn 0.4648 0.8443 0.2665
vn 0.8825 0.4067 -0.2362
vn 0.8827 0.4061 -0.2366
vn 0.8827 0.4061 -0.2365
vn 0.5587 0.8293 0.0000
vn 0.5468 0.8366 0.0331
vn 0.6670 0.7451 -0.0016
vn 0.4125 0.9101 0.0408
vn 0.5907 0.8069 0.0000
vn 0.5894 0.8078 0.0000
vn 0.5938 0.8046 -0.0026
vn 0.5986 0.8010 0.0002
vn 0.5985 0.8011 0.0000
vn 0.6021 0.7942 -0.0818
vn 0.5931 0.8042 -0.0381
vn 0.5886 0.8084 0.0003
vn 0.5883 0.8086 0.0005
vn 0.5312 0.8466 -0.0337
vn 0.7354 0.6744 0.0662
vn 0.5587 0.8286 0.0374
vn 0.6498 0.7596 -0.0270
vn 0.6967 0.7152 -0.0551
vn 0.6880 0.7251 -0.0299
vn 0.6025 0.7975 -0.0321
vn 0.5988 0.8008 -0.0117
vn 0.5987 0.8009 -0.0058
vn 0.5521 0.8336 0.0200
vn 0.8000 0.5790 -0.1573
vn 0.8015 0.5789 -0.1496
vn 0.7989 0.5823 -0.1507
vn 0.7968 0.5852 -0.1505
vn 0.7913 0.6092 -0.0524
vn 0.7882 0.6065 -0.1042
vn 0.8164 0.5686 -0.1008
vn 0.8168 0.5680 -0.1009
vn 0.8167 0.5683 -0.1000
vn 0.8150 0.5671 -0.1192
vn 0.7803 0.6005 -0.1749
vn 0.7792 0.6018 -0.1752
vn 0.7804 0.5991 -0.1787
vn 0.7771 0.6032 -0.1796
vn 0.7902 0.5905 -0.1640
vn 0.7021 0.7121 0.0032
vn 0.6343 0.7727 0.0248
vn 0.6786 0.7344 0.0117
vn 0.7016 0.7125 0.0016
vn 0.7190 0.6950 -0.0075
vn 0.8014 0.5979 -0.0193
vn 0.8264 0.5627 0.0192
vn 0.8460 0.5315 0.0410
vn 0.8661 0.4963 0.0589
vn 0.8868 0.4562 0.0744
vn 0.9155 0.3911 0.0948
vn 0.9299 0.3527 0.1044
vn 0.9359 0.3352 0.1082
vn 0.9420 0.3166 0.1115
vn 0.8191 0.5673 -0.0852
vn 0.8097 0.5821 -0.0749
vn 0.9299 0.3678 0.0003
vn 0.9299 0.3678 0.0002
vn 0.9360 0.3519 0.0003
vn 0.6495 0.7600 -0.0256
vn 0.8167 0.5686 -0.0990
usemtl None.130
s 1
f 1//1 3//1 2//1
f 4//2 6//3 5//4
f 4//5 5//5 7//5
f 8//6 10//6 9//6
f 8//7 9//7 11//7
f 6//3 13//8 12//9
f 6//3 12//9 5//4
f 7//10 5//11 14//12
f 3//13 15//13 2//13
f 3//14 16//15 15//16
f 17//17 19//17 18//17
f 17//18 18//18 20//18
f 21//19 23//19 22//20
f 24//21 26//21 25//21
f 24//22 27//23 26//24
f 28//25 30//26 29//27
f 28//25 31//28 30//26
f 32//29 15//30 33//31
f 32//29 2//32 15//30
f 34//33 30//34 35//35
f 34//36 36//36 30//36
f 37//37 33//31 15//30
f 38//38 40//39 39//40
f 38//41 29//42 40//43
f 41//44 43//45 42//46
f 44//47 46//48 45//49
f 44//50 45//50 47//50
f 48//51 35//35 30//34
f 48//51 30//34 31//52
f 49//53 5//53 50//53
f 49//54 51//54 5//54
f 50//55 5//56 52//57
f 12//58 52//57 5//56
f 19//59 53//59 18//59
f 53//60 11//60 54//60
f 53//61 54//61 18//61
f 20//62 45//62 55//62
f 20//63 18//63 45//63
f 55//62 45//62 56//62
f 57//64 43//64 58//64
f 57//64 56//64 43//64
f 58//64 43//64 59//64
f 60//65 40//65 61//65
f 60//65 62//65 40//65
f 61//65 40//65 63//65
f 63//65 40//65 64//65
f 65//66 30//66 66//66
f 65//66 64//66 30//66
f 67//66 30//66 68//66
f 67//66 66//66 30//66
f 68//66 30//66 69//66
f 69//66 30//66 70//66
f 70//66 30//66 26//66
f 23//19 71//19 22//20
f 51//67 73//67 72//67
f 51//68 74//69 73//68
f 51//70 72//71 75//72
f 51//70 75//72 5//73
f 14//12 5//11 10//74
f 76//75 30//75 36//75
f 5//76 75//76 77//76
f 5//77 11//77 9//77
f 78//78 45//78 77//78
f 11//79 5//79 54//79
f 56//80 45//80 43//80
f 5//81 9//81 10//81
f 64//82 40//82 30//82
f 18//83 54//84 45//85
f 37//86 15//86 79//86
f 37//87 26//24 27//23
f 37//86 79//86 26//86
f 77//88 45//88 5//88
f 45//89 54//89 5//89
f 62//90 81//90 80//90
f 71//19 15//16 22//20
f 81//91 59//92 82//93
f 40//94 62//94 80//94
f 59//95 43//95 82//95
f 22//20 15//16 83//96
f 15//16 16//15 83//96
f 26//97 76//97 25//97
f 45//98 78//98 47//98
f 77//99 75//99 84//99
f 30//100 40//43 29//42
f 42//101 45//49 46//48
f 42//102 43//102 45//102
f 85//103 80//103 81//103
f 85//104 81//104 86//104
f 26//105 30//105 76//105
f 72//106 88//107 87//108
f 72//106 87//108 89//109
f 72//110 91//110 90//110
f 72//111 90//111 88//111
f 92//112 72//113 93//114
f 93//115 72//115 94//115
f 89//109 95//116 72//106
f 87//117 97//118 96//119
f 97//118 98//120 96//119
f 89//121 87//121 96//121
f 95//116 99//122 94//123
f 95//116 94//123 72//106
f 100//124 72//124 101//124
f 100//125 75//72 72//71
f 101//126 72//126 102//126
f 103//127 102//127 72//127
f 103//128 72//128 104//128
f 91//129 72//129 105//129
f 105//130 72//130 106//130
f 107//131 106//131 72//131
f 107//132 72//132 108//132
f 109//133 108//133 72//133
f 110//134 109//134 72//134
f 110//135 72//135 111//135
f 111//136 72//136 112//136
f 73//137 112//137 72//137
f 72//138 113//138 104//138
f 72//139 114//139 113//139
f 82//140 115//141 86//142
f 82//93 86//143 81//91
f 40//39 80//144 39//40
f 96//145 98//145 116//145
f 96//146 116//146 117//146
f 72//113 92//112 114//147
f 94//123 99//122 118//148
f 118//149 99//149 119//149
f 99//150 95//151 119//152
f 120//153 122//153 121//153
f 123//154 125//155 124//156
f 123//157 126//157 125//157
f 127//158 129//158 128//158
f 127//159 130//159 129//159
f 124//160 132//160 131//160
f 124//156 125//155 132//161
f 126//162 133//163 125//164
f 121//165 122//165 134//165
f 121//166 134//167 135//168
f 136//169 138//169 137//169
f 136//170 139//170 138//170
f 140//171 142//171 141//171
f 143//172 145//172 144//172
f 143//173 144//174 146//175
f 147//176 149//177 148//178
f 147//176 148//178 150//179
f 151//180 152//181 134//182
f 151//180 134//182 122//183
f 153//184 154//185 148//186
f 153//187 148//187 155//187
f 156//188 134//182 152//181
f 157//189 159//190 158//191
f 157//192 158//192 149//192
f 160//193 162//194 161//195
f 163//196 165//197 164//198
f 163//199 166//199 165//199
f 167//200 148//186 154//185
f 167//200 150//201 148//186
f 168//202 169//202 125//202
f 168//203 125//203 170//203
f 169//204 171//205 125//206
f 132//207 125//206 171//205
f 137//208 138//208 172//208
f 172//209 173//209 130//209
f 172//210 138//210 173//210
f 139//211 174//211 165//211
f 139//212 165//212 138//212
f 174//211 175//211 165//211
f 176//213 177//213 161//213
f 176//213 161//213 175//213
f 177//213 178//213 161//213
f 179//214 180//214 158//214
f 179//214 158//214 181//214
f 180//214 182//214 158//214
f 182//214 183//214 158//214
f 184//215 185//215 148//215
f 184//215 148//215 183//215
f 186//215 187//215 148//215
f 186//215 148//215 185//215
f 187//215 188//215 148//215
f 188//215 189//215 148//215
f 189//215 144//215 148//215
f 141//171 142//171 190//171
f 170//216 192//216 191//216
f 170//217 191//217 193//218
f 170//219 194//220 192//221
f 170//219 125//222 194//220
f 133//163 128//223 125//164
f 195//224 155//224 148//224
f 125//225 196//225 194//225
f 125//226 129//226 130//226
f 197//227 196//227 165//227
f 130//228 173//228 125//228
f 175//229 161//229 165//229
f 125//230 128//230 129//230
f 183//231 148//231 158//231
f 138//232 165//233 173//234
f 156//235 198//235 134//235
f 156//236 146//175 144//174
f 156//235 144//235 198//235
f 196//237 125//237 165//237
f 165//238 125//238 173//238
f 181//239 200//239 199//239
f 190//171 142//171 134//240
f 199//241 201//242 178//243
f 158//244 200//244 181//244
f 178//245 201//245 161//245
f 142//246 202//247 134//167
f 134//167 202//247 135//168
f 144//248 145//248 195//248
f 165//249 166//249 197//249
f 196//250 203//250 194//250
f 148//251 149//251 158//251
f 162//252 164//198 165//197
f 162//253 165//253 161//253
f 204//254 199//254 200//254
f 204//255 205//256 199//241
f 144//257 195//257 148//257
f 192//258 207//258 206//258
f 192//259 89//260 207//261
f 192//262 209//262 208//262
f 192//263 206//263 209//263
f 210//264 211//265 192//266
f 211//267 119//267 192//267
f 89//260 192//259 95//151
f 207//268 96//269 212//270
f 212//270 96//269 117//271
f 89//272 96//272 207//272
f 95//151 192//259 119//152
f 213//273 214//273 192//273
f 213//274 192//274 194//274
f 214//275 215//275 192//275
f 216//276 192//276 215//276
f 216//277 217//277 192//277
f 208//278 218//278 192//278
f 218//279 219//279 192//279
f 220//280 192//280 219//280
f 220//281 221//281 192//281
f 222//282 192//282 221//282
f 223//283 192//283 222//283
f 223//284 224//284 192//284
f 224//285 225//285 192//285
f 191//286 192//286 225//286
f 192//287 217//287 226//287
f 192//288 226//288 227//288
f 201//289 205//290 228//291
f 201//242 199//241 205//256
f 158//191 159//190 200//292
f 192//266 227//293 210//264
