# Blender v2.79 (sub 0) OBJ File: ''
# www.blender.org
mtllib crack_restart_keyway_460.mtl
o crack_restart_keyway_460
v 0.073526 -0.113101 -0.472461
v 0.084850 -0.121271 -0.472461
v 0.072991 -0.113324 -0.459453
v 0.147219 -0.162043 -0.087638
v 0.150769 -0.164590 -0.087260
v 0.148189 -0.172549 -0.068122
v 0.143340 -0.159227 -0.088140
v 0.154210 -0.167189 -0.086931
v 0.152188 -0.169039 -0.080795
v 0.139539 -0.156352 -0.088655
v 0.120406 -0.147382 -0.103551
v 0.097657 -0.132835 -0.106366
v 0.120406 -0.147382 -0.118922
v 0.120866 -0.146923 -0.098614
v 0.104556 -0.137285 -0.092786
v 0.120406 -0.147382 -0.472461
v 0.120406 -0.147382 -0.457089
v 0.090632 -0.132125 -0.376755
v 0.108215 -0.138339 -0.472461
v 0.073506 -0.113115 -0.238326
v 0.073114 -0.113246 -0.251334
v 0.095083 -0.132907 -0.288948
v 0.073910 -0.112747 -0.225319
v 0.072673 -0.113706 -0.446446
v 0.071866 -0.114031 -0.433438
v 0.071532 -0.114469 -0.342386
v 0.070523 -0.114874 -0.355393
v 0.071483 -0.114271 -0.329378
v 0.071442 -0.114519 -0.420431
v 0.070923 -0.114624 -0.407423
v 0.070845 -0.114849 -0.368401
v 0.070103 -0.115139 -0.381408
v 0.073021 -0.113459 -0.264341
v 0.072688 -0.113514 -0.277349
v 0.076531 -0.111099 -0.121259
v 0.075544 -0.111669 -0.134267
v 0.077315 -0.110412 -0.108252
v 0.077528 -0.110449 -0.095343
v 0.071628 -0.114416 -0.316371
v 0.071681 -0.114147 -0.303364
v 0.074102 -0.112692 -0.212311
v 0.074072 -0.112645 -0.199304
v 0.150112 -0.170878 -0.074898
v 0.122213 -0.145575 -0.094013
v 0.114626 -0.144484 -0.094845
v 0.126572 -0.147793 -0.091787
v 0.115967 -0.144847 -0.090502
v 0.106574 -0.141711 -0.120725
v 0.120406 -0.147382 -0.134293
v 0.120406 -0.147382 -0.149664
v 0.120406 -0.147382 -0.165036
v 0.120406 -0.147382 -0.180407
v 0.120406 -0.147382 -0.195778
v 0.120406 -0.147382 -0.211149
v 0.120406 -0.147382 -0.226521
v 0.120406 -0.147382 -0.241892
v 0.120406 -0.147382 -0.257263
v 0.120406 -0.147382 -0.272634
v 0.120406 -0.147382 -0.288006
v 0.120406 -0.147382 -0.303377
v 0.120406 -0.147382 -0.349490
v 0.120406 -0.147382 -0.334119
v 0.120406 -0.147382 -0.364862
v 0.120406 -0.147382 -0.380233
v 0.120406 -0.147382 -0.395604
v 0.120406 -0.147382 -0.410975
v 0.120406 -0.147382 -0.426347
v 0.120406 -0.147382 -0.441718
v 0.130916 -0.156837 -0.078367
v 0.135317 -0.153108 -0.089227
v 0.111590 -0.143909 -0.082042
v 0.131068 -0.149873 -0.089874
v 0.075195 -0.111703 -0.082939
v 0.074664 -0.112273 -0.173289
v 0.074455 -0.112470 -0.184866
v 0.074376 -0.112603 -0.191567
v 0.074893 -0.112130 -0.160281
v 0.074863 -0.112277 -0.166559
v 0.075007 -0.112181 -0.153707
v 0.095961 -0.129346 -0.472461
v 0.103525 -0.134892 -0.472461
v 0.072422 -0.113883 -0.290356
v 0.120406 -0.147382 -0.318748
v 0.070756 -0.114898 -0.394416
v 0.075332 -0.111964 -0.141513
v 0.074990 -0.112068 -0.147274
v 0.068942 -0.114755 -0.028215
v 0.066072 -0.115436 0.015341
v 0.069579 -0.112862 -0.054990
v 0.066063 -0.114265 -0.001444
v 0.072869 -0.112268 -0.071668
v 0.138167 -0.179523 -0.018217
v 0.136404 -0.180963 -0.006266
v 0.133685 -0.183135 0.014586
v 0.100270 -0.156793 0.046838
v 0.066169 -0.115868 0.022180
v 0.130606 -0.185404 0.044432
v 0.117808 -0.173608 0.054026
v 0.142011 -0.176887 -0.037724
v 0.139760 -0.178185 -0.027410
v 0.143883 -0.175886 -0.046598
v 0.146565 -0.173915 -0.061444
v 0.130190 -0.185551 0.055067
v 0.130606 -0.185404 0.044432
v 0.066072 -0.115436 0.015341
v 0.133685 -0.183135 0.014586
v 0.073526 -0.113101 -0.472461
v 0.072991 -0.113324 -0.459453
v 0.084850 -0.121271 -0.472461
v 0.147219 -0.162043 -0.087638
v 0.148189 -0.172549 -0.068122
v 0.150769 -0.164590 -0.087260
v 0.143340 -0.159227 -0.088140
v 0.152188 -0.169039 -0.080795
v 0.154210 -0.167189 -0.086931
v 0.139539 -0.156352 -0.088655
v 0.120406 -0.147382 -0.103551
v 0.120406 -0.147382 -0.118922
v 0.097657 -0.132835 -0.106366
v 0.104556 -0.137285 -0.092786
v 0.120866 -0.146923 -0.098614
v 0.120406 -0.147382 -0.472461
v 0.090632 -0.132125 -0.376755
v 0.120406 -0.147382 -0.457089
v 0.108215 -0.138339 -0.472461
v 0.073506 -0.113115 -0.238326
v 0.095083 -0.132907 -0.288948
v 0.073114 -0.113246 -0.251334
v 0.073910 -0.112747 -0.225319
v 0.072673 -0.113706 -0.446446
v 0.071866 -0.114031 -0.433438
v 0.071532 -0.114469 -0.342386
v 0.070523 -0.114874 -0.355393
v 0.071483 -0.114271 -0.329378
v 0.071442 -0.114519 -0.420431
v 0.070923 -0.114624 -0.407423
v 0.070845 -0.114849 -0.368401
v 0.070103 -0.115139 -0.381408
v 0.073021 -0.113459 -0.264341
v 0.072688 -0.113514 -0.277349
v 0.076531 -0.111099 -0.121259
v 0.075544 -0.111669 -0.134267
v 0.077315 -0.110412 -0.108252
v 0.077528 -0.110449 -0.095343
v 0.071628 -0.114416 -0.316371
v 0.071681 -0.114147 -0.303364
v 0.074102 -0.112692 -0.212311
v 0.074072 -0.112645 -0.199304
v 0.150112 -0.170878 -0.074898
v 0.114626 -0.144484 -0.094845
v 0.122213 -0.145575 -0.094013
v 0.115967 -0.144847 -0.090502
v 0.126572 -0.147793 -0.091787
v 0.120406 -0.147382 -0.134293
v 0.106574 -0.141711 -0.120725
v 0.120406 -0.147382 -0.149664
v 0.120406 -0.147382 -0.165036
v 0.120406 -0.147382 -0.180407
v 0.120406 -0.147382 -0.195778
v 0.120406 -0.147382 -0.211149
v 0.120406 -0.147382 -0.226521
v 0.120406 -0.147382 -0.241892
v 0.120406 -0.147382 -0.257263
v 0.120406 -0.147382 -0.272634
v 0.120406 -0.147382 -0.288006
v 0.120406 -0.147382 -0.303377
v 0.120406 -0.147382 -0.349490
v 0.120406 -0.147382 -0.334119
v 0.120406 -0.147382 -0.364862
v 0.120406 -0.147382 -0.380233
v 0.120406 -0.147382 -0.395604
v 0.120406 -0.147382 -0.410975
v 0.120406 -0.147382 -0.426347
v 0.120406 -0.147382 -0.441718
v 0.130916 -0.156837 -0.078367
v 0.135317 -0.153108 -0.089227
v 0.111590 -0.143909 -0.082042
v 0.131068 -0.149873 -0.089874
v 0.075195 -0.111703 -0.082939
v 0.074455 -0.112470 -0.184866
v 0.074664 -0.112273 -0.173289
v 0.074376 -0.112603 -0.191567
v 0.074863 -0.112277 -0.166559
v 0.074893 -0.112130 -0.160281
v 0.075007 -0.112181 -0.153707
v 0.095961 -0.129346 -0.472461
v 0.103525 -0.134892 -0.472461
v 0.072422 -0.113883 -0.290356
v 0.120406 -0.147382 -0.318748
v 0.070756 -0.114898 -0.394416
v 0.075332 -0.111964 -0.141513
v 0.074990 -0.112068 -0.147274
v 0.068942 -0.114755 -0.028215
v 0.069579 -0.112862 -0.054990
v 0.066063 -0.114265 -0.001444
v 0.072869 -0.112268 -0.071668
v 0.136404 -0.180963 -0.006266
v 0.138167 -0.179523 -0.018217
v 0.142011 -0.176887 -0.037724
v 0.139760 -0.178185 -0.027410
v 0.143883 -0.175886 -0.046598
v 0.146565 -0.173915 -0.061444
vn 0.5847 0.8104 0.0379
vn 0.5848 0.8103 0.0381
vn 0.5849 0.8101 0.0403
vn 0.5092 0.7678 0.3889
vn 0.5088 0.7683 0.3883
vn 0.5096 0.7679 0.3881
vn 0.5078 0.7688 0.3886
vn 0.5278 0.7494 0.3999
vn 0.5247 0.7618 0.3799
vn 0.5387 0.8425 0.0000
vn 0.4712 0.8731 -0.1251
vn 0.5385 0.8426 0.0025
vn 0.4560 0.8900 0.0000
vn 0.5948 0.8018 0.0572
vn 0.5915 0.8043 0.0573
vn 0.5921 0.8039 0.0568
vn 0.6405 0.7674 -0.0270
vn 0.6209 0.7828 -0.0414
vn 0.5982 0.7993 0.0571
vn 0.5873 0.8084 0.0393
vn 0.6045 0.7934 -0.0716
vn 0.6702 0.7421 -0.0088
vn 0.6116 0.7896 0.0496
vn 0.6357 0.7713 0.0316
vn 0.6337 0.7732 0.0258
vn 0.6367 0.7705 0.0313
vn 0.6438 0.7633 -0.0537
vn 0.6508 0.7590 -0.0193
vn 0.6502 0.7596 -0.0174
vn 0.6486 0.7609 -0.0198
vn 0.6504 0.7594 -0.0171
vn 0.7438 0.6635 -0.0807
vn 0.7429 0.6640 -0.0851
vn 0.7431 0.6637 -0.0855
vn 0.7416 0.6661 -0.0799
vn 0.7410 0.6714 -0.0103
vn 0.6827 0.7307 0.0005
vn 0.6498 0.7599 -0.0184
vn 0.6687 0.7434 -0.0130
vn 0.6919 0.7220 -0.0010
vn 0.5007 0.7605 0.4134
vn 0.7026 0.6184 0.3519
vn 0.1693 0.9313 -0.3224
vn 0.5646 0.6410 0.5199
vn 0.2896 0.8989 0.3287
vn 0.1379 0.9896 0.0401
vn 0.3793 0.9253 0.0000
vn 0.3951 0.8707 -0.2928
vn 0.4963 0.8682 0.0000
vn 0.4600 0.7811 0.4223
vn 0.5026 0.7345 0.4559
vn 0.4986 0.7376 0.4553
vn 0.4600 0.7982 0.3890
vn 0.1717 0.8418 0.5117
vn 0.7759 0.5962 0.2062
vn 0.6406 0.7642 -0.0751
vn 0.2713 0.9619 0.0337
vn 0.5639 0.8190 -0.1057
vn 0.4946 0.7406 0.4548
vn 0.5191 0.8364 0.1758
vn 0.6958 0.7180 -0.0199
vn 0.6962 0.7175 -0.0243
vn 0.7012 0.7127 -0.0212
vn 0.6769 0.7360 -0.0077
vn 0.6972 0.7166 -0.0224
vn 0.7077 0.7058 -0.0316
vn 0.6956 0.7181 -0.0201
vn 0.6960 0.7179 -0.0096
vn 0.6866 0.7270 -0.0063
vn 0.6848 0.7286 -0.0139
vn 0.5874 0.8083 0.0399
vn 0.5994 0.7984 0.0566
vn 0.5969 0.8006 0.0522
vn 0.4613 0.8871 0.0149
vn 0.5909 0.8048 0.0563
vn 0.5993 0.7370 0.3124
vn 0.6618 0.7494 0.0178
vn 0.5626 0.8248 -0.0568
vn 0.4304 0.7749 0.4629
vn 0.6306 0.7747 0.0460
vn 0.6423 0.7661 0.0244
vn 0.6438 0.7644 -0.0349
vn 0.7264 0.6851 -0.0551
vn 0.7290 0.6826 -0.0505
vn 0.7223 0.6898 -0.0492
vn 0.6880 0.7255 -0.0200
vn 0.7271 0.6843 -0.0555
vn 0.6862 0.7274 -0.0110
vn 0.6078 0.7923 0.0524
vn 0.6216 0.7802 0.0699
vn 0.6308 0.7741 0.0537
vn 0.6497 0.7443 0.1547
vn 0.6027 0.7768 0.1825
vn 0.6350 0.7555 0.1615
vn 0.6890 0.7127 0.1318
vn 0.7588 0.6506 0.0303
vn 0.7125 0.6893 0.1315
vn 0.7218 0.6805 0.1262
vn 0.5502 0.8051 0.2214
vn 0.5591 0.8010 0.2142
vn 0.5612 0.7977 0.2207
vn 0.5627 0.7998 0.2089
vn 0.5628 0.8000 0.2081
vn 0.5629 0.7997 0.2088
vn 0.5635 0.7995 0.2079
vn 0.5599 0.8005 0.2135
vn 0.5187 0.8041 0.2906
vn 0.6404 0.7662 0.0532
vn 0.6796 0.7122 0.1759
vn 0.5628 0.8251 -0.0488
vn 0.6694 0.7373 0.0914
vn 0.6921 0.7208 0.0370
vn -0.6921 -0.7208 -0.0370
vn -0.7588 -0.6506 -0.0303
vn -0.6694 -0.7373 -0.0914
vn -0.5847 -0.8104 -0.0379
vn -0.5847 -0.8104 -0.0380
vn -0.5848 -0.8103 -0.0381
vn -0.5092 -0.7678 -0.3889
vn -0.5096 -0.7679 -0.3881
vn -0.5088 -0.7683 -0.3883
vn -0.5078 -0.7688 -0.3886
vn -0.5278 -0.7494 -0.3999
vn -0.5247 -0.7618 -0.3799
vn -0.5378 -0.8431 -0.0016
vn -0.5391 -0.8422 -0.0005
vn -0.5387 -0.8425 0.0000
vn -0.4712 -0.8731 0.1251
vn -0.5385 -0.8426 -0.0025
vn -0.4560 -0.8900 0.0000
vn -0.5948 -0.8018 -0.0572
vn -0.5907 -0.8049 -0.0564
vn -0.5915 -0.8043 -0.0573
vn -0.6405 -0.7674 0.0270
vn -0.6209 -0.7828 0.0414
vn -0.5994 -0.7984 -0.0575
vn -0.5985 -0.7991 -0.0567
vn -0.5982 -0.7993 -0.0571
vn -0.6045 -0.7934 0.0716
vn -0.6702 -0.7421 0.0088
vn -0.6116 -0.7896 -0.0496
vn -0.6357 -0.7713 -0.0316
vn -0.6367 -0.7705 -0.0313
vn -0.6337 -0.7732 -0.0257
vn -0.6438 -0.7633 0.0537
vn -0.6508 -0.7590 0.0193
vn -0.6486 -0.7609 0.0198
vn -0.6502 -0.7596 0.0174
vn -0.6504 -0.7594 0.0171
vn -0.7438 -0.6635 0.0807
vn -0.7431 -0.6637 0.0855
vn -0.7429 -0.6640 0.0851
vn -0.7416 -0.6661 0.0799
vn -0.7410 -0.6714 0.0103
vn -0.6827 -0.7307 -0.0005
vn -0.6498 -0.7599 0.0184
vn -0.6687 -0.7434 0.0130
vn -0.6919 -0.7220 0.0010
vn -0.5007 -0.7605 -0.4134
vn -0.7026 -0.6184 -0.3519
vn -0.1693 -0.9313 0.3224
vn -0.5646 -0.6410 -0.5199
vn -0.2896 -0.8989 -0.3287
vn -0.1379 -0.9896 -0.0401
vn -0.3793 -0.9253 0.0000
vn -0.3951 -0.8707 0.2928
vn -0.4963 -0.8682 0.0000
vn -0.4600 -0.7811 -0.4223
vn -0.5026 -0.7345 -0.4559
vn -0.4986 -0.7376 -0.4553
vn -0.4600 -0.7982 -0.3890
vn -0.1717 -0.8418 -0.5117
vn -0.7759 -0.5962 -0.2062
vn -0.6406 -0.7642 0.0751
vn -0.2713 -0.9619 -0.0337
vn -0.5639 -0.8190 0.1057
vn -0.4946 -0.7406 -0.4548
vn -0.5191 -0.8364 -0.1758
vn -0.6958 -0.7180 0.0199
vn -0.7012 -0.7127 0.0212
vn -0.6962 -0.7175 0.0243
vn -0.6769 -0.7360 0.0077
vn -0.6972 -0.7166 0.0224
vn -0.7077 -0.7058 0.0316
vn -0.6956 -0.7181 0.0201
vn -0.6960 -0.7179 0.0096
vn -0.6848 -0.7286 0.0139
vn -0.6866 -0.7270 0.0063
vn -0.5874 -0.8083 -0.0399
vn -0.5994 -0.7984 -0.0566
vn -0.4613 -0.8871 -0.0149
vn -0.5904 -0.8052 -0.0563
vn -0.5909 -0.8048 -0.0563
vn -0.5993 -0.7370 -0.3124
vn -0.6618 -0.7494 -0.0178
vn -0.5626 -0.8248 0.0568
vn -0.5595 -0.8271 0.0527
vn -0.5634 -0.8242 0.0562
vn -0.4304 -0.7749 -0.4629
vn -0.6306 -0.7747 -0.0460
vn -0.6423 -0.7661 -0.0244
vn -0.6438 -0.7644 0.0349
vn -0.7264 -0.6851 0.0551
vn -0.7223 -0.6898 0.0492
vn -0.7290 -0.6826 0.0505
vn -0.6880 -0.7255 0.0200
vn -0.7271 -0.6843 0.0555
vn -0.6862 -0.7274 0.0110
vn -0.6078 -0.7923 -0.0524
vn -0.6216 -0.7802 -0.0699
vn -0.6308 -0.7741 -0.0537
vn -0.6497 -0.7443 -0.1547
vn -0.6027 -0.7768 -0.1825
vn -0.6350 -0.7555 -0.1615
vn -0.6890 -0.7127 -0.1318
vn -0.7125 -0.6893 -0.1315
vn -0.7218 -0.6805 -0.1262
vn -0.5502 -0.8051 -0.2214
vn -0.5613 -0.7977 -0.2207
vn -0.5591 -0.8010 -0.2142
vn -0.5627 -0.7998 -0.2089
vn -0.5629 -0.7997 -0.2088
vn -0.5628 -0.8000 -0.2081
vn -0.5635 -0.7995 -0.2079
vn -0.5599 -0.8005 -0.2135
vn -0.5187 -0.8041 -0.2906
vn -0.6404 -0.7662 -0.0532
vn -0.6796 -0.7122 -0.1759
vn -0.5628 -0.8251 0.0488
usemtl None.081
s 1
f 1//1 3//2 2//3
f 4//4 6//5 5//6
f 4//4 7//7 6//5
f 5//8 9//8 8//8
f 7//9 10//9 6//9
f 11//10 13//10 12//10
f 11//11 15//11 14//11
f 11//12 12//12 15//12
f 16//13 18//13 17//13
f 16//14 19//15 18//16
f 20//17 22//17 21//17
f 20//18 23//18 22//18
f 24//19 25//19 18//19
f 24//20 2//3 3//2
f 26//21 18//21 27//21
f 26//22 28//22 18//22
f 29//23 18//23 25//23
f 29//24 30//25 18//26
f 31//27 18//27 32//27
f 33//28 22//29 34//30
f 33//28 21//31 22//29
f 35//32 12//33 36//34
f 35//32 37//35 12//33
f 38//36 12//36 37//36
f 39//37 18//37 28//37
f 39//38 40//38 18//38
f 41//39 22//39 23//39
f 41//40 42//40 22//40
f 9//41 5//41 43//41
f 43//42 5//42 6//42
f 14//43 45//43 44//43
f 14//44 15//44 45//44
f 44//45 47//45 46//45
f 44//46 45//46 47//46
f 13//47 49//47 48//47
f 13//48 48//48 12//48
f 49//47 50//47 48//47
f 51//47 52//47 48//47
f 51//47 48//47 50//47
f 52//47 53//47 48//47
f 53//47 54//47 48//47
f 55//49 56//49 22//49
f 56//49 57//49 22//49
f 57//49 58//49 22//49
f 58//49 59//49 22//49
f 59//49 60//49 22//49
f 61//13 18//13 62//13
f 61//13 63//13 18//13
f 63//13 64//13 18//13
f 64//13 65//13 18//13
f 66//13 67//13 18//13
f 66//13 18//13 65//13
f 17//13 18//13 68//13
f 10//50 69//50 6//50
f 10//51 70//52 69//52
f 46//53 71//53 69//53
f 46//54 69//54 72//54
f 12//55 38//55 73//55
f 12//56 73//56 15//56
f 46//57 47//57 71//57
f 47//58 45//58 15//58
f 69//52 70//52 72//59
f 15//60 71//60 47//60
f 55//49 22//49 54//49
f 48//61 75//62 74//63
f 48//64 22//64 42//64
f 48//61 76//65 75//62
f 48//66 42//66 76//66
f 48//61 78//67 77//67
f 48//61 74//63 78//67
f 48//68 77//69 79//70
f 24//20 80//71 2//3
f 24//72 18//16 80//73
f 68//13 18//13 67//13
f 54//74 22//74 48//74
f 18//16 81//75 80//73
f 18//16 19//15 81//75
f 22//76 60//76 82//76
f 18//77 31//77 27//77
f 62//13 18//13 83//13
f 18//78 40//78 60//78
f 71//79 6//79 69//79
f 84//80 32//80 18//80
f 84//81 18//26 30//25
f 83//13 18//13 60//13
f 82//82 34//82 22//82
f 12//83 85//84 36//85
f 12//86 48//68 79//70
f 12//83 86//87 85//84
f 12//86 79//70 86//88
f 87//89 88//89 71//89
f 87//90 71//90 89//90
f 87//91 90//91 88//91
f 71//92 91//92 89//92
f 71//93 93//93 92//93
f 71//94 94//94 93//94
f 71//95 95//95 94//95
f 88//96 96//96 95//96
f 88//97 95//97 71//97
f 94//98 98//98 97//98
f 99//99 71//100 100//101
f 99//102 101//103 71//104
f 101//103 102//105 71//104
f 100//101 71//100 92//106
f 71//107 102//107 6//107
f 71//108 15//108 91//108
f 91//109 15//109 73//109
f 82//110 60//110 40//110
f 94//111 95//111 98//111
f 98//112 103//112 97//112
f 103//113 98//113 104//113
f 95//114 96//114 105//114
f 95//115 106//115 98//115
f 107//116 109//117 108//118
f 110//119 112//120 111//121
f 110//119 111//121 113//122
f 112//123 115//123 114//123
f 113//124 111//124 116//124
f 117//125 119//126 118//127
f 117//128 121//128 120//128
f 117//125 120//129 119//126
f 122//130 124//130 123//130
f 122//131 123//132 125//133
f 126//134 128//134 127//134
f 126//135 127//135 129//135
f 130//136 123//137 131//138
f 130//118 108//118 109//117
f 132//139 133//139 123//139
f 132//140 123//140 134//140
f 135//141 131//141 123//141
f 135//142 123//143 136//144
f 137//145 138//145 123//145
f 139//146 140//147 127//148
f 139//146 127//148 128//149
f 141//150 142//151 119//152
f 141//150 119//152 143//153
f 144//154 143//154 119//154
f 145//155 134//155 123//155
f 145//156 123//156 146//156
f 147//157 129//157 127//157
f 147//158 127//158 148//158
f 114//159 149//159 112//159
f 149//160 111//160 112//160
f 121//161 151//161 150//161
f 121//162 150//162 120//162
f 151//163 153//163 152//163
f 151//164 152//164 150//164
f 118//165 155//165 154//165
f 118//166 119//166 155//166
f 154//165 155//165 156//165
f 157//165 155//165 158//165
f 157//165 156//165 155//165
f 158//165 155//165 159//165
f 159//165 155//165 160//165
f 161//167 127//167 162//167
f 162//167 127//167 163//167
f 163//167 127//167 164//167
f 164//167 127//167 165//167
f 165//167 127//167 166//167
f 167//130 168//130 123//130
f 167//130 123//130 169//130
f 169//130 123//130 170//130
f 170//130 123//130 171//130
f 172//130 123//130 173//130
f 172//130 171//130 123//130
f 124//130 174//130 123//130
f 116//168 111//168 175//168
f 116//169 175//170 176//170
f 153//171 175//171 177//171
f 153//172 178//172 175//172
f 119//173 179//173 144//173
f 119//174 120//174 179//174
f 153//175 177//175 152//175
f 152//176 120//176 150//176
f 175//170 178//177 176//170
f 120//178 152//178 177//178
f 161//167 160//167 127//167
f 155//179 181//180 180//181
f 155//182 148//182 127//182
f 155//179 180//181 182//183
f 155//184 182//184 148//184
f 155//179 184//185 183//185
f 155//179 183//185 181//180
f 155//186 185//187 184//188
f 130//189 109//189 186//189
f 130//136 186//190 123//137
f 174//130 173//130 123//130
f 160//191 155//191 127//191
f 123//132 186//192 187//193
f 123//132 187//193 125//133
f 127//194 188//194 166//194
f 123//195 133//195 137//195
f 168//130 189//130 123//130
f 123//196 166//197 146//198
f 177//199 175//199 111//199
f 190//200 123//200 138//200
f 190//201 136//144 123//143
f 189//130 166//130 123//130
f 188//202 127//202 140//202
f 119//203 142//204 191//205
f 119//206 185//187 155//186
f 119//203 191//205 192//207
f 119//206 192//208 185//187
f 193//209 177//209 105//209
f 193//210 194//210 177//210
f 193//211 105//211 195//211
f 177//212 194//212 196//212
f 177//213 198//213 197//213
f 177//214 197//214 106//214
f 177//215 106//215 95//215
f 105//216 177//216 95//216
f 106//217 104//217 98//217
f 199//218 200//219 177//220
f 199//221 177//222 201//223
f 201//223 177//222 202//224
f 200//219 198//225 177//220
f 177//226 111//226 202//226
f 177//227 196//227 120//227
f 196//228 179//228 120//228
f 188//229 146//198 166//197
