# Blender v2.79 (sub 0) OBJ File: ''
# www.blender.org
mtllib crack_restart_keyway_405.mtl
o crack_restart_keyway_405
v 0.073537 -0.113092 -0.472461
v 0.072985 -0.113328 -0.459453
v 0.084909 -0.121235 -0.472461
v 0.147219 -0.162043 -0.087639
v 0.152219 -0.169011 -0.080778
v 0.150804 -0.164558 -0.087229
v 0.122884 -0.148001 -0.088180
v 0.143329 -0.159234 -0.088152
v 0.154210 -0.167189 -0.086931
v 0.139531 -0.156357 -0.088661
v 0.126603 -0.147762 -0.091744
v 0.122213 -0.145575 -0.094013
v 0.131068 -0.149873 -0.089874
v 0.120406 -0.147382 -0.103551
v 0.120406 -0.147382 -0.118922
v 0.107622 -0.140737 -0.106244
v 0.120866 -0.146923 -0.098614
v 0.120406 -0.147382 -0.472461
v 0.108298 -0.138273 -0.472461
v 0.120406 -0.147382 -0.457089
v 0.072664 -0.113712 -0.446446
v 0.071843 -0.114045 -0.433438
v 0.071412 -0.114536 -0.342386
v 0.104904 -0.139355 -0.237469
v 0.070595 -0.114829 -0.355393
v 0.071408 -0.114319 -0.329378
v 0.071413 -0.114535 -0.420431
v 0.070907 -0.114634 -0.407423
v 0.070839 -0.114852 -0.368401
v 0.070289 -0.115021 -0.381408
v 0.072963 -0.113500 -0.264341
v 0.073529 -0.113098 -0.238326
v 0.073110 -0.113249 -0.251334
v 0.072711 -0.113500 -0.277349
v 0.076513 -0.111111 -0.121259
v 0.100140 -0.135646 -0.131937
v 0.075544 -0.111668 -0.134267
v 0.108103 -0.142026 -0.074635
v 0.077574 -0.110228 -0.108252
v 0.071617 -0.114422 -0.316371
v 0.072495 -0.113832 -0.290356
v 0.146448 -0.174021 -0.061103
v 0.144209 -0.175818 -0.052963
v 0.148179 -0.172557 -0.068128
v 0.149924 -0.171044 -0.075002
v 0.114609 -0.144513 -0.094833
v 0.120406 -0.147382 -0.134293
v 0.106559 -0.141737 -0.120726
v 0.120406 -0.147382 -0.149664
v 0.120406 -0.147382 -0.165036
v 0.120406 -0.147382 -0.180407
v 0.120406 -0.147382 -0.195778
v 0.120406 -0.147382 -0.211149
v 0.120406 -0.147382 -0.226521
v 0.120406 -0.147382 -0.241892
v 0.120406 -0.147382 -0.257263
v 0.120406 -0.147382 -0.272634
v 0.120406 -0.147382 -0.288006
v 0.120406 -0.147382 -0.303377
v 0.120406 -0.147382 -0.318748
v 0.120406 -0.147382 -0.349490
v 0.120406 -0.147382 -0.364862
v 0.120406 -0.147382 -0.334119
v 0.120406 -0.147382 -0.380233
v 0.120406 -0.147382 -0.395604
v 0.120406 -0.147382 -0.410975
v 0.120406 -0.147382 -0.426347
v 0.120406 -0.147382 -0.441718
v 0.096047 -0.129278 -0.472461
v 0.135307 -0.153114 -0.089236
v 0.077937 -0.110075 -0.102899
v 0.078408 -0.109872 -0.094934
v 0.111716 -0.143679 -0.082151
v 0.074265 -0.112677 -0.191338
v 0.074314 -0.112542 -0.186296
v 0.074538 -0.112494 -0.180690
v 0.074684 -0.112260 -0.173289
v 0.073955 -0.112718 -0.199304
v 0.074903 -0.112251 -0.166642
v 0.103487 -0.134728 -0.472461
v 0.095017 -0.136260 -0.058969
v 0.096898 -0.138268 -0.057691
v 0.142984 -0.176683 -0.048649
v 0.070761 -0.114896 -0.394416
v 0.075346 -0.111955 -0.141542
v 0.075026 -0.112045 -0.147274
v 0.073874 -0.112769 -0.225319
v 0.074120 -0.112774 -0.217055
v 0.077416 -0.110276 -0.088571
v 0.076733 -0.110615 -0.085213
v 0.075255 -0.111276 -0.079166
v 0.092914 -0.133673 -0.060968
v 0.085984 -0.125473 -0.067287
v 0.107190 -0.148618 -0.049750
v 0.119312 -0.159287 -0.042693
v 0.128847 -0.167227 -0.038740
v 0.142137 -0.177191 -0.043305
v 0.140895 -0.177691 -0.035690
v 0.142137 -0.177191 -0.043305
v 0.075054 -0.112150 -0.153609
v 0.074932 -0.112103 -0.160281
v 0.074152 -0.112753 -0.207504
v 0.074141 -0.112664 -0.212311
v 0.078956 -0.116432 -0.075112
v 0.077078 -0.113855 -0.077214
v 0.108103 -0.142026 -0.074635
v 0.081808 -0.120214 -0.071856
v 0.076733 -0.110615 -0.085213
v 0.073537 -0.113092 -0.472461
v 0.084909 -0.121235 -0.472461
v 0.072985 -0.113328 -0.459453
v 0.147219 -0.162043 -0.087639
v 0.150804 -0.164558 -0.087229
v 0.152219 -0.169011 -0.080778
v 0.122884 -0.148001 -0.088180
v 0.143329 -0.159234 -0.088152
v 0.154210 -0.167189 -0.086931
v 0.139531 -0.156357 -0.088661
v 0.126603 -0.147762 -0.091744
v 0.122213 -0.145575 -0.094013
v 0.131068 -0.149873 -0.089874
v 0.120406 -0.147382 -0.103551
v 0.107622 -0.140737 -0.106244
v 0.120406 -0.147382 -0.118922
v 0.120866 -0.146923 -0.098614
v 0.120406 -0.147382 -0.472461
v 0.120406 -0.147382 -0.457089
v 0.108298 -0.138273 -0.472461
v 0.072664 -0.113712 -0.446446
v 0.071843 -0.114045 -0.433438
v 0.071412 -0.114536 -0.342386
v 0.070595 -0.114829 -0.355393
v 0.104904 -0.139355 -0.237469
v 0.071408 -0.114319 -0.329378
v 0.071413 -0.114535 -0.420431
v 0.070907 -0.114634 -0.407423
v 0.070839 -0.114852 -0.368401
v 0.070289 -0.115021 -0.381408
v 0.090632 -0.132125 -0.376755
v 0.072963 -0.113500 -0.264341
v 0.073529 -0.113098 -0.238326
v 0.073110 -0.113249 -0.251334
v 0.072711 -0.113500 -0.277349
v 0.076513 -0.111111 -0.121259
v 0.075544 -0.111668 -0.134267
v 0.100140 -0.135646 -0.131937
v 0.077574 -0.110228 -0.108252
v 0.071617 -0.114422 -0.316371
v 0.072495 -0.113832 -0.290356
v 0.146448 -0.174021 -0.061103
v 0.144209 -0.175818 -0.052963
v 0.148179 -0.172557 -0.068128
v 0.149924 -0.171044 -0.075002
v 0.114609 -0.144513 -0.094833
v 0.106559 -0.141737 -0.120726
v 0.120406 -0.147382 -0.134293
v 0.120406 -0.147382 -0.149664
v 0.120406 -0.147382 -0.165036
v 0.120406 -0.147382 -0.180407
v 0.120406 -0.147382 -0.195778
v 0.120406 -0.147382 -0.211149
v 0.120406 -0.147382 -0.226521
v 0.120406 -0.147382 -0.241892
v 0.120406 -0.147382 -0.257263
v 0.120406 -0.147382 -0.272634
v 0.120406 -0.147382 -0.288006
v 0.120406 -0.147382 -0.303377
v 0.120406 -0.147382 -0.318748
v 0.120406 -0.147382 -0.349490
v 0.120406 -0.147382 -0.364862
v 0.120406 -0.147382 -0.334119
v 0.120406 -0.147382 -0.380233
v 0.120406 -0.147382 -0.395604
v 0.120406 -0.147382 -0.410975
v 0.120406 -0.147382 -0.426347
v 0.120406 -0.147382 -0.441718
v 0.096047 -0.129278 -0.472461
v 0.135307 -0.153114 -0.089236
v 0.078408 -0.109872 -0.094934
v 0.077937 -0.110075 -0.102899
v 0.111716 -0.143679 -0.082151
v 0.074314 -0.112542 -0.186296
v 0.074265 -0.112677 -0.191338
v 0.074684 -0.112260 -0.173289
v 0.074538 -0.112494 -0.180690
v 0.073955 -0.112718 -0.199304
v 0.074903 -0.112251 -0.166642
v 0.103487 -0.134728 -0.472461
v 0.142984 -0.176683 -0.048649
v 0.070761 -0.114896 -0.394416
v 0.075346 -0.111955 -0.141542
v 0.075026 -0.112045 -0.147274
v 0.073874 -0.112769 -0.225319
v 0.074120 -0.112774 -0.217055
v 0.077416 -0.110276 -0.088571
v 0.075054 -0.112150 -0.153609
v 0.074932 -0.112103 -0.160281
v 0.074152 -0.112753 -0.207504
v 0.074141 -0.112664 -0.212311
vn -0.5817 -0.8124 -0.0394
vn -0.5813 -0.8127 -0.0387
vn -0.5807 -0.8132 -0.0391
vn -0.4883 -0.7646 -0.4207
vn -0.4344 -0.7707 -0.4662
vn -0.3133 -0.5722 -0.7579
vn -0.3134 -0.5722 -0.7579
vn -0.3137 -0.5728 -0.7573
vn -0.5398 -0.7435 -0.3948
vn -0.2825 -0.5160 -0.8087
vn -0.2816 -0.5149 -0.8097
vn -0.2879 -0.5189 -0.8049
vn -0.2700 -0.8987 -0.3457
vn -0.2776 -0.8959 -0.3469
vn -0.2708 -0.8995 -0.3429
vn -0.2770 -0.8952 -0.3491
vn -0.4612 -0.8873 0.0000
vn -0.4782 -0.8692 0.1254
vn -0.6012 -0.7991 0.0000
vn -0.6102 -0.7901 -0.0587
vn -0.5810 -0.8130 -0.0383
vn -0.7095 -0.7021 0.0604
vn -0.6211 -0.7836 0.0129
vn -0.5259 -0.8501 -0.0269
vn -0.5917 -0.8046 -0.0499
vn -0.2627 -0.9646 0.0236
vn -0.4554 -0.8903 -0.0070
vn -0.6420 -0.7663 0.0258
vn -0.3450 -0.9383 0.0220
vn -0.6354 -0.7721 0.0123
vn -0.6997 -0.7097 0.0825
vn -0.7154 -0.6984 0.0217
vn -0.7707 -0.6284 0.1055
vn -0.6047 -0.7965 0.0034
vn -0.6570 -0.7529 0.0392
vn -0.5147 -0.7964 -0.3174
vn -0.5337 -0.7920 -0.2966
vn -0.5334 -0.7921 -0.2969
vn -0.5320 -0.7891 -0.3071
vn -0.5257 -0.7930 -0.3080
vn -0.4426 -0.7762 -0.4491
vn -0.1649 -0.9325 0.3215
vn -0.3920 -0.9178 -0.0637
vn -0.3775 -0.9260 0.0000
vn -0.3861 -0.9179 0.0917
vn -0.5011 -0.8654 0.0000
vn -0.5903 -0.8072 0.0000
vn -0.6096 -0.7174 0.3372
vn -0.4598 -0.8880 -0.0000
vn -0.5931 -0.8051 0.0000
vn -0.5931 -0.8052 -0.0000
vn -0.5965 -0.8026 0.0000
vn -0.2782 -0.5071 -0.8157
vn -0.2866 -0.5317 -0.7970
vn -0.7550 -0.6521 0.0690
vn -0.7522 -0.6561 0.0612
vn -0.7568 -0.6506 0.0627
vn -0.3403 -0.9393 0.0430
vn -0.4775 -0.8294 -0.2900
vn -0.1417 -0.9894 0.0327
vn -0.4651 -0.8848 -0.0290
vn -0.4951 -0.8684 -0.0279
vn -0.6966 -0.7170 0.0264
vn -0.6963 -0.7173 0.0260
vn -0.7052 -0.7085 0.0271
vn -0.7058 -0.7076 0.0345
vn -0.7074 -0.7059 0.0363
vn -0.7047 -0.7086 0.0357
vn -0.7024 -0.7111 0.0310
vn -0.7054 -0.7080 0.0343
vn -0.6970 -0.7167 0.0239
vn -0.6981 -0.7157 0.0207
vn -0.6971 -0.7165 0.0239
vn -0.5796 -0.8144 -0.0276
vn -0.5920 -0.8058 -0.0117
vn -0.5909 -0.8066 -0.0137
vn -0.5927 -0.8053 -0.0151
vn -0.5932 -0.8050 -0.0098
vn -0.6234 -0.7416 -0.2478
vn -0.5364 -0.8437 -0.0194
vn -0.5374 -0.8431 -0.0193
vn -0.5371 -0.8433 -0.0193
vn -0.5255 -0.7930 -0.3082
vn -0.4265 -0.9037 -0.0379
vn -0.7712 -0.6287 0.1000
vn -0.5307 -0.8471 -0.0274
vn -0.5119 -0.8588 -0.0230
vn -0.7555 -0.6515 0.0699
vn -0.6484 -0.7607 0.0302
vn -0.5710 -0.8129 -0.1147
vn -0.7002 -0.7124 0.0474
vn -0.6999 -0.7125 0.0500
vn -0.6996 -0.7130 0.0472
vn -0.7001 -0.7123 0.0503
vn -0.9922 -0.1215 0.0294
vn -0.9915 -0.1269 0.0295
vn -0.9915 -0.1269 0.0294
vn -0.6768 -0.7205 -0.1513
vn -0.6566 -0.7254 -0.2068
vn -0.6463 -0.7253 -0.2372
vn -0.6341 -0.7265 -0.2648
vn -0.6371 -0.7234 -0.2659
vn -0.6390 -0.7234 -0.2614
vn -0.6299 -0.7318 -0.2602
vn -0.5988 -0.7685 -0.2255
vn -0.5409 -0.8079 -0.2339
vn -0.5585 -0.7938 -0.2408
vn -0.5599 -0.7928 -0.2409
vn -0.5591 -0.7935 -0.2401
vn -0.6280 -0.7590 -0.1717
vn -0.6409 -0.7384 -0.2098
vn -0.6258 -0.7649 -0.1523
vn -0.5602 -0.7926 -0.2407
vn 0.6258 0.7649 0.1523
vn -0.6877 -0.7259 0.0090
vn -0.6869 -0.7267 0.0087
vn -0.6874 -0.7263 0.0083
vn -0.6870 -0.7266 0.0074
vn -0.6409 -0.7675 -0.0121
vn -0.6393 -0.7688 -0.0123
vn -0.6400 -0.7683 -0.0127
vn -0.6398 -0.7684 -0.0128
vn -0.6957 -0.7180 0.0197
vn -0.5375 -0.8430 -0.0193
vn -0.5854 -0.8107 -0.0090
vn -0.6943 -0.7194 0.0199
vn -0.7143 -0.6991 0.0305
vn -0.6221 -0.7145 -0.3201
vn 0.6221 0.7145 0.3201
vn -0.6293 -0.7220 -0.2875
vn 0.6293 0.7220 0.2875
vn 0.5988 0.7685 0.2255
vn -0.6325 -0.7292 -0.2612
vn -0.6101 -0.7050 -0.3617
vn 0.6101 0.7050 0.3617
vn 0.6463 0.7253 0.2372
vn 0.5817 0.8124 0.0394
vn 0.4883 0.7646 0.4207
vn 0.4344 0.7707 0.4662
vn 0.3133 0.5722 0.7579
vn 0.3137 0.5728 0.7573
vn 0.3134 0.5722 0.7579
vn 0.5398 0.7435 0.3948
vn 0.2825 0.5160 0.8087
vn 0.2879 0.5189 0.8049
vn 0.2816 0.5149 0.8097
vn 0.2700 0.8987 0.3457
vn 0.2708 0.8995 0.3429
vn 0.2777 0.8959 0.3469
vn 0.2770 0.8952 0.3491
vn 0.4612 0.8873 0.0000
vn 0.4782 0.8692 -0.1254
vn 0.6012 0.7991 0.0000
vn 0.5997 0.8001 0.0128
vn 0.5932 0.8051 0.0030
vn 0.6102 0.7901 0.0587
vn 0.5810 0.8130 0.0383
vn 0.7095 0.7021 -0.0604
vn 0.6211 0.7836 -0.0129
vn 0.5259 0.8501 0.0269
vn 0.5917 0.8046 0.0499
vn 0.6481 0.7607 -0.0373
vn 0.6601 0.7511 0.0111
vn 0.6420 0.7663 -0.0258
vn 0.3450 0.9383 -0.0220
vn 0.6354 0.7721 -0.0123
vn 0.6997 0.7097 -0.0825
vn 0.7154 0.6984 -0.0217
vn 0.7707 0.6284 -0.1055
vn 0.6047 0.7965 -0.0034
vn 0.6570 0.7529 -0.0392
vn 0.5147 0.7964 0.3174
vn 0.5337 0.7920 0.2966
vn 0.5320 0.7891 0.3070
vn 0.5334 0.7921 0.2969
vn 0.5257 0.7930 0.3080
vn 0.4426 0.7762 0.4491
vn 0.1649 0.9325 -0.3215
vn 0.3920 0.9178 0.0637
vn 0.3775 0.9260 0.0000
vn 0.3861 0.9179 -0.0917
vn 0.5011 0.8654 0.0000
vn 0.5903 0.8072 0.0000
vn 0.6096 0.7174 -0.3372
vn 0.4598 0.8880 0.0000
vn 0.4594 0.8882 -0.0001
vn 0.4556 0.8902 0.0002
vn 0.4560 0.8900 0.0000
vn 0.4563 0.8899 -0.0001
vn 0.5931 0.8051 0.0000
vn 0.5993 0.8005 0.0022
vn 0.5888 0.8082 -0.0012
vn 0.5965 0.8026 0.0000
vn 0.2782 0.5071 0.8157
vn 0.2866 0.5317 0.7970
vn 0.7550 0.6521 -0.0690
vn 0.7568 0.6506 -0.0627
vn 0.7522 0.6561 -0.0612
vn 0.3403 0.9393 -0.0430
vn 0.4775 0.8294 0.2900
vn 0.1417 0.9894 -0.0327
vn 0.4651 0.8848 0.0290
vn 0.4951 0.8684 0.0279
vn 0.6965 0.7170 -0.0264
vn 0.7052 0.7085 -0.0271
vn 0.6963 0.7173 -0.0260
vn 0.7058 0.7076 -0.0345
vn 0.7047 0.7086 -0.0357
vn 0.7074 0.7059 -0.0363
vn 0.7024 0.7111 -0.0310
vn 0.7054 0.7080 -0.0343
vn 0.4895 0.8692 0.0696
vn 0.6971 0.7165 -0.0239
vn 0.5796 0.8144 0.0276
vn 0.5909 0.8066 0.0137
vn 0.5932 0.8050 0.0098
vn 0.6234 0.7416 0.2478
vn 0.6376 0.7700 -0.0254
vn 0.5255 0.7930 0.3082
vn 0.4265 0.9037 0.0379
vn 0.7712 0.6287 -0.1000
vn 0.6391 0.7685 0.0306
vn 0.6281 0.7765 0.0508
vn 0.5119 0.8588 0.0230
vn 0.7555 0.6515 -0.0699
vn 0.6484 0.7607 -0.0302
vn 0.5710 0.8129 0.1147
vn 0.7002 0.7124 -0.0474
vn 0.6996 0.7130 -0.0472
vn 0.6999 0.7125 -0.0500
vn 0.7001 0.7123 -0.0503
vn 0.9922 0.1215 -0.0294
vn 0.9915 0.1269 -0.0294
vn 0.9915 0.1269 -0.0295
vn 0.6768 0.7205 0.1513
vn 0.6566 0.7254 0.2068
vn 0.6341 0.7265 0.2648
vn 0.6391 0.7233 0.2614
vn 0.6371 0.7234 0.2659
vn 0.6299 0.7318 0.2602
vn 0.5409 0.8079 0.2339
vn 0.5585 0.7938 0.2408
vn 0.5591 0.7935 0.2401
vn 0.5599 0.7928 0.2409
vn 0.6280 0.7590 0.1717
vn 0.6409 0.7384 0.2098
vn 0.5602 0.7926 0.2407
vn 0.6877 0.7259 -0.0090
vn 0.6874 0.7263 -0.0083
vn 0.6869 0.7267 -0.0087
vn 0.6870 0.7266 -0.0074
vn 0.6409 0.7675 0.0121
vn 0.6400 0.7683 0.0127
vn 0.6393 0.7688 0.0123
vn 0.6398 0.7684 0.0128
vn 0.6957 0.7180 -0.0197
vn 0.5854 0.8107 0.0090
vn 0.6943 0.7194 -0.0199
vn 0.7143 0.6991 -0.0305
vn 0.6325 0.7292 0.2612
usemtl None.069
s 1
f 1//1 3//2 2//3
f 4//4 6//4 5//4
f 4//5 5//5 7//5
f 4//6 7//7 8//8
f 6//9 9//9 5//9
f 8//10 7//11 10//12
f 11//13 7//14 12//15
f 11//13 13//16 7//14
f 14//17 16//17 15//17
f 14//18 17//18 16//18
f 18//19 20//19 19//19
f 21//20 3//20 22//20
f 21//21 2//3 3//2
f 23//22 25//22 24//22
f 23//23 24//23 26//23
f 27//24 3//24 28//24
f 27//25 22//25 3//25
f 29//26 30//26 3//26
f 29//27 3//27 25//27
f 31//28 24//28 32//28
f 31//29 32//29 33//29
f 31//30 34//30 24//30
f 35//31 37//31 36//31
f 35//32 36//32 38//32
f 35//33 38//33 39//33
f 40//34 26//34 24//34
f 40//35 24//35 41//35
f 42//36 43//36 7//36
f 42//37 7//38 44//39
f 44//39 7//38 45//40
f 45//41 7//41 5//41
f 17//42 12//42 46//42
f 17//43 46//43 16//43
f 15//44 48//44 47//44
f 15//45 16//45 48//45
f 47//44 48//44 49//44
f 50//46 36//46 51//46
f 50//46 49//46 36//46
f 51//46 36//46 52//46
f 52//46 36//46 53//46
f 53//47 32//47 54//47
f 54//48 32//48 24//48
f 54//49 24//49 55//49
f 55//49 24//49 56//49
f 56//49 24//49 57//49
f 57//49 24//49 58//49
f 59//49 24//49 60//49
f 59//49 58//49 24//49
f 61//50 3//51 62//51
f 61//50 63//50 3//51
f 62//51 3//51 64//50
f 64//50 3//51 65//50
f 66//50 3//51 67//51
f 66//50 65//50 3//51
f 68//52 69//52 20//52
f 68//52 67//52 69//52
f 10//12 7//11 70//53
f 7//54 13//54 70//54
f 38//55 72//56 71//57
f 7//58 38//58 73//58
f 7//59 73//59 12//59
f 73//60 46//60 12//60
f 16//61 73//61 38//61
f 16//62 38//62 36//62
f 36//63 75//64 74//65
f 36//66 77//67 76//68
f 36//63 74//65 78//69
f 36//66 76//68 75//70
f 36//71 79//72 77//73
f 53//74 36//74 32//74
f 20//75 69//76 80//77
f 20//75 80//77 19//78
f 38//79 82//79 81//79
f 25//80 3//81 24//82
f 43//83 83//83 7//83
f 46//84 73//84 16//84
f 36//85 48//85 16//85
f 84//86 3//86 30//86
f 84//87 28//87 3//87
f 38//55 71//57 39//88
f 60//50 3//51 63//50
f 41//89 24//89 34//89
f 48//90 36//90 49//90
f 85//91 36//92 37//93
f 85//91 86//94 36//92
f 87//95 32//96 88//97
f 72//98 38//98 89//98
f 38//99 90//99 89//99
f 38//100 91//100 90//100
f 38//101 81//102 92//103
f 38//101 92//103 93//104
f 38//105 94//105 82//105
f 38//106 7//106 94//106
f 94//107 7//108 95//109
f 83//110 97//110 96//110
f 83//111 96//111 7//111
f 96//112 97//112 98//112
f 96//113 95//109 7//108
f 98//114 99//114 96//114
f 86//115 100//116 36//117
f 100//116 101//118 36//117
f 78//119 102//120 36//121
f 102//120 103//122 36//121
f 103//123 88//123 36//123
f 24//82 3//81 60//124
f 69//125 67//125 3//125
f 101//126 79//72 36//71
f 88//127 32//127 36//127
f 104//128 105//128 38//128
f 104//129 106//129 105//129
f 104//130 38//130 107//130
f 104//131 107//131 106//131
f 94//132 106//132 82//132
f 107//133 38//101 93//104
f 105//134 91//134 38//134
f 105//135 106//135 91//135
f 91//136 106//136 108//136
f 109//137 111//137 110//137
f 112//138 114//138 113//138
f 112//139 115//139 114//139
f 112//140 116//141 115//142
f 113//143 114//143 117//143
f 116//144 118//145 115//146
f 119//147 120//148 115//149
f 119//147 115//149 121//150
f 122//151 124//151 123//151
f 122//152 123//152 125//152
f 126//153 128//154 127//155
f 129//156 130//156 110//156
f 129//157 110//157 111//157
f 131//158 133//158 132//158
f 131//159 134//159 133//159
f 135//160 136//160 110//160
f 135//161 110//161 130//161
f 137//162 139//162 138//162
f 137//163 132//163 139//163
f 140//164 141//164 133//164
f 140//165 142//165 141//165
f 140//166 133//166 143//166
f 144//167 146//167 145//167
f 144//168 106//168 146//168
f 144//169 147//169 106//169
f 148//170 133//170 134//170
f 148//171 149//171 133//171
f 150//172 115//172 151//172
f 150//173 152//174 115//175
f 152//174 153//176 115//175
f 153//177 114//177 115//177
f 125//178 154//178 120//178
f 125//179 123//179 154//179
f 124//180 156//180 155//180
f 124//181 155//181 123//181
f 156//180 157//180 155//180
f 158//182 159//182 146//182
f 158//182 146//182 157//182
f 159//182 160//182 146//182
f 160//182 161//182 146//182
f 161//183 162//183 141//183
f 162//184 133//184 141//184
f 162//185 163//185 133//186
f 163//185 164//185 133//186
f 164//185 165//185 133//186
f 165//185 166//185 133//186
f 167//185 168//187 133//186
f 167//185 133//186 166//185
f 169//188 170//188 139//189
f 169//188 139//189 171//188
f 170//188 172//188 139//189
f 172//188 173//188 139//189
f 174//190 175//191 110//192
f 174//190 110//192 173//190
f 176//193 127//193 177//193
f 176//193 177//193 175//193
f 118//145 178//194 115//146
f 115//195 178//195 121//195
f 106//196 180//197 179//198
f 115//199 181//199 106//199
f 115//200 120//200 181//200
f 181//201 120//201 154//201
f 123//202 106//202 181//202
f 123//203 146//203 106//203
f 146//204 183//205 182//206
f 146//207 185//208 184//209
f 146//204 186//210 183//205
f 146//207 182//211 185//208
f 173//212 110//212 139//212
f 146//213 184//213 187//213
f 161//214 141//214 146//214
f 127//215 188//215 177//215
f 127//155 128//154 188//216
f 106//217 81//217 82//217
f 132//218 133//218 139//218
f 151//219 115//219 189//219
f 154//220 123//220 181//220
f 146//221 123//221 155//221
f 190//222 138//222 139//222
f 190//223 139//223 110//223
f 190//224 110//224 136//224
f 106//196 147//225 180//197
f 168//187 171//188 139//189
f 149//226 143//226 133//226
f 155//227 157//227 146//227
f 191//228 145//229 146//230
f 191//228 146//230 192//231
f 193//232 194//233 141//234
f 179//235 195//235 106//235
f 106//236 195//236 108//236
f 106//237 92//238 81//239
f 106//237 93//240 92//238
f 106//241 94//241 115//241
f 94//242 95//243 115//244
f 189//245 96//245 99//245
f 189//246 115//246 96//246
f 96//247 115//244 95//243
f 192//248 146//249 196//250
f 196//250 146//249 197//251
f 186//252 146//253 198//254
f 198//254 146//253 199//255
f 199//256 146//256 194//256
f 133//186 168//187 139//189
f 177//257 110//192 175//191
f 197//258 146//258 187//258
f 194//259 146//259 141//259
f 107//260 93//240 106//237
