# Blender v2.79 (sub 0) OBJ File: ''
# www.blender.org
mtllib crack_restart_keyway_350.mtl
o crack_restart_keyway_350
v 0.147390 -0.162164 -0.087609
v 0.143313 -0.159243 -0.088167
v 0.150962 -0.166406 -0.083995
v 0.149052 -0.163292 -0.087399
v 0.131068 -0.149873 -0.089874
v 0.119677 -0.149399 -0.078344
v 0.135296 -0.153121 -0.089245
v 0.126697 -0.147668 -0.091613
v 0.139528 -0.156359 -0.088664
v 0.122213 -0.145575 -0.094013
v 0.120406 -0.147382 -0.103551
v 0.120406 -0.147382 -0.118922
v 0.106538 -0.141772 -0.120728
v 0.120866 -0.146923 -0.098614
v 0.120406 -0.147382 -0.472461
v 0.108526 -0.138091 -0.472461
v 0.120406 -0.147382 -0.457089
v 0.072541 -0.113800 -0.290356
v 0.104513 -0.139451 -0.370882
v 0.071931 -0.113990 -0.303364
v 0.072642 -0.113728 -0.446446
v 0.071780 -0.114085 -0.433438
v 0.073139 -0.113294 -0.462762
v 0.071343 -0.114574 -0.342386
v 0.070683 -0.114774 -0.355393
v 0.071298 -0.114388 -0.329378
v 0.071368 -0.114560 -0.420431
v 0.070896 -0.114640 -0.407423
v 0.072897 -0.113547 -0.264341
v 0.073134 -0.113234 -0.251334
v 0.094614 -0.131448 -0.233668
v 0.072682 -0.113518 -0.277349
v 0.071607 -0.114428 -0.316371
v 0.152727 -0.168545 -0.080059
v 0.149427 -0.168227 -0.079749
v 0.150962 -0.166406 -0.083995
v 0.152669 -0.168604 -0.084239
v 0.152669 -0.168604 -0.084239
v 0.114553 -0.144609 -0.094795
v 0.116518 -0.145248 -0.088731
v 0.120406 -0.147382 -0.134293
v 0.120406 -0.147382 -0.149664
v 0.120406 -0.147382 -0.165036
v 0.120406 -0.147382 -0.180407
v 0.120406 -0.147382 -0.195778
v 0.120406 -0.147382 -0.211149
v 0.120406 -0.147382 -0.226521
v 0.120406 -0.147382 -0.241892
v 0.120406 -0.147382 -0.257263
v 0.120406 -0.147382 -0.272634
v 0.120406 -0.147382 -0.288006
v 0.120406 -0.147382 -0.303377
v 0.120406 -0.147382 -0.318748
v 0.120406 -0.147382 -0.349490
v 0.120406 -0.147382 -0.364862
v 0.120406 -0.147382 -0.334119
v 0.120406 -0.147382 -0.380233
v 0.120406 -0.147382 -0.395604
v 0.120406 -0.147382 -0.410975
v 0.120406 -0.147382 -0.426347
v 0.120406 -0.147382 -0.441718
v 0.070767 -0.114892 -0.368401
v 0.090632 -0.132125 -0.376755
v 0.086406 -0.118218 -0.090699
v 0.087739 -0.119721 -0.089709
v 0.090043 -0.122085 -0.087675
v 0.104480 -0.136359 -0.079679
v 0.101671 -0.133540 -0.080875
v 0.106870 -0.138665 -0.078578
v 0.070756 -0.114898 -0.394416
v 0.146478 -0.166757 -0.078805
v 0.103385 -0.134296 -0.472461
v 0.086804 -0.122331 -0.472461
v 0.134439 -0.160338 -0.076168
v 0.132247 -0.159425 -0.075480
v 0.139528 -0.156359 -0.088664
v 0.136379 -0.161447 -0.076419
v 0.140531 -0.163967 -0.077216
v 0.143167 -0.165125 -0.078026
v 0.076992 -0.110771 -0.114755
v 0.076201 -0.111383 -0.125225
v 0.076530 -0.111113 -0.120584
v 0.075281 -0.111998 -0.141406
v 0.075458 -0.111729 -0.134267
v 0.074993 -0.112066 -0.147274
v 0.073857 -0.112909 -0.229746
v 0.125750 -0.154800 -0.075656
v 0.128063 -0.156339 -0.075604
v 0.119677 -0.149399 -0.078344
v 0.124076 -0.153661 -0.075749
v 0.070449 -0.114921 -0.381408
v 0.084340 -0.115796 -0.092347
v 0.092970 -0.125095 -0.085561
v 0.077677 -0.110155 -0.108252
v 0.078441 -0.109743 -0.101593
v 0.081529 -0.112533 -0.094679
v 0.078870 -0.109473 -0.096918
v 0.114553 -0.144609 -0.094795
v 0.114503 -0.145893 -0.076729
v 0.111540 -0.143053 -0.077116
v 0.117498 -0.148441 -0.076137
v 0.109459 -0.141120 -0.077385
v 0.120138 -0.150765 -0.075746
v 0.122821 -0.152880 -0.075593
v 0.130211 -0.157851 -0.075527
v 0.138381 -0.162734 -0.076694
v 0.150803 -0.164559 -0.087230
v 0.144842 -0.166077 -0.078331
v 0.152486 -0.165897 -0.087043
v 0.154210 -0.167189 -0.086931
v 0.075061 -0.112145 -0.153595
v 0.074978 -0.112070 -0.160281
v 0.073772 -0.112833 -0.199304
v 0.074168 -0.112742 -0.207470
v 0.074255 -0.112583 -0.212311
v 0.073535 -0.113094 -0.472461
v 0.074956 -0.112215 -0.166752
v 0.074757 -0.112214 -0.173289
v 0.074545 -0.112490 -0.180676
v 0.074274 -0.112570 -0.186296
v 0.074178 -0.112735 -0.191158
v 0.078441 -0.109743 -0.101593
v 0.147390 -0.162164 -0.087609
v 0.143313 -0.159243 -0.088167
v 0.149052 -0.163292 -0.087399
v 0.131068 -0.149873 -0.089874
v 0.135296 -0.153121 -0.089245
v 0.126697 -0.147668 -0.091613
v 0.122213 -0.145575 -0.094013
v 0.120406 -0.147382 -0.103551
v 0.106538 -0.141772 -0.120728
v 0.120406 -0.147382 -0.118922
v 0.120866 -0.146923 -0.098614
v 0.120406 -0.147382 -0.472461
v 0.120406 -0.147382 -0.457089
v 0.108526 -0.138091 -0.472461
v 0.072541 -0.113800 -0.290356
v 0.071931 -0.113990 -0.303364
v 0.104513 -0.139451 -0.370882
v 0.072642 -0.113728 -0.446446
v 0.071780 -0.114085 -0.433438
v 0.073139 -0.113294 -0.462762
v 0.071343 -0.114574 -0.342386
v 0.070683 -0.114774 -0.355393
v 0.071298 -0.114388 -0.329378
v 0.071368 -0.114560 -0.420431
v 0.070896 -0.114640 -0.407423
v 0.072897 -0.113547 -0.264341
v 0.094614 -0.131448 -0.233668
v 0.073134 -0.113234 -0.251334
v 0.072682 -0.113518 -0.277349
v 0.071607 -0.114428 -0.316371
v 0.116518 -0.145248 -0.088731
v 0.120406 -0.147382 -0.134293
v 0.120406 -0.147382 -0.149664
v 0.120406 -0.147382 -0.165036
v 0.120406 -0.147382 -0.180407
v 0.120406 -0.147382 -0.195778
v 0.120406 -0.147382 -0.211149
v 0.120406 -0.147382 -0.226521
v 0.120406 -0.147382 -0.241892
v 0.120406 -0.147382 -0.257263
v 0.120406 -0.147382 -0.272634
v 0.120406 -0.147382 -0.288006
v 0.120406 -0.147382 -0.303377
v 0.120406 -0.147382 -0.318748
v 0.120406 -0.147382 -0.349490
v 0.120406 -0.147382 -0.364862
v 0.120406 -0.147382 -0.334119
v 0.120406 -0.147382 -0.380233
v 0.120406 -0.147382 -0.395604
v 0.120406 -0.147382 -0.410975
v 0.120406 -0.147382 -0.426347
v 0.120406 -0.147382 -0.441718
v 0.070767 -0.114892 -0.368401
v 0.090632 -0.132125 -0.376755
v 0.070756 -0.114898 -0.394416
v 0.086804 -0.122331 -0.472461
v 0.103385 -0.134296 -0.472461
v 0.076992 -0.110771 -0.114755
v 0.076530 -0.111113 -0.120584
v 0.076201 -0.111383 -0.125225
v 0.075458 -0.111729 -0.134267
v 0.075281 -0.111998 -0.141406
v 0.074993 -0.112066 -0.147274
v 0.073857 -0.112909 -0.229746
v 0.070449 -0.114921 -0.381408
v 0.077677 -0.110155 -0.108252
v 0.150803 -0.164559 -0.087230
v 0.152486 -0.165897 -0.087043
v 0.154210 -0.167189 -0.086931
v 0.075061 -0.112145 -0.153595
v 0.074978 -0.112070 -0.160281
v 0.073772 -0.112833 -0.199304
v 0.074168 -0.112742 -0.207470
v 0.074255 -0.112583 -0.212311
v 0.073535 -0.113094 -0.472461
v 0.074956 -0.112215 -0.166752
v 0.074757 -0.112214 -0.173289
v 0.074545 -0.112490 -0.180676
v 0.074274 -0.112570 -0.186296
v 0.074178 -0.112735 -0.191158
vn 0.4925 0.7663 0.4126
vn 0.4655 0.7675 0.4408
vn 0.4967 0.7357 0.4605
vn 0.4975 0.7339 0.4625
vn 0.4969 0.7352 0.4610
vn 0.3347 0.8953 0.2939
vn 0.4978 0.7336 0.4627
vn 0.5457 0.7722 0.3254
vn 0.2845 0.9197 0.2705
vn 0.3750 0.9270 0.0000
vn 0.5025 0.8553 -0.1263
vn 0.6160 0.7877 0.0000
vn 0.5645 0.8245 -0.0385
vn 0.5643 0.8247 -0.0386
vn 0.5610 0.8268 -0.0411
vn 0.5389 0.8403 0.0588
vn 0.5697 0.8209 0.0392
vn 0.5704 0.8205 0.0389
vn 0.5697 0.8209 0.0398
vn 0.5762 0.8162 -0.0418
vn 0.5948 0.8038 -0.0094
vn 0.5944 0.8041 -0.0099
vn 0.5931 0.8050 -0.0115
vn 0.5530 0.8318 0.0479
vn 0.5753 0.8176 0.0259
vn 0.5773 0.8162 0.0230
vn 0.5753 0.8176 0.0256
vn 0.6607 0.7500 -0.0301
vn 0.6620 0.7488 -0.0330
vn 0.6610 0.7498 -0.0308
vn 0.6435 0.7654 -0.0089
vn 0.5600 0.8275 -0.0418
vn 0.5930 0.8051 -0.0116
vn 0.1262 0.8943 0.4293
vn -0.1262 -0.8943 -0.4293
vn 0.7886 0.6146 -0.0196
vn -0.7886 -0.6146 0.0196
vn 0.1505 0.9360 -0.3183
vn 0.3425 0.9395 -0.0031
vn 0.1182 0.9908 0.0661
vn 0.3048 0.9127 0.2721
vn 0.5256 0.8507 0.0000
vn 0.5743 0.8186 0.0000
vn 0.5535 0.8317 0.0434
vn 0.4465 0.8948 0.0000
vn 0.5436 0.7786 -0.3135
vn 0.6877 0.7099 0.1518
vn 0.6856 0.7248 0.0671
vn 0.6855 0.7250 0.0662
vn 0.6865 0.7232 0.0755
vn 0.6919 0.7187 0.0688
vn 0.6802 0.7310 0.0544
vn 0.6757 0.7354 0.0509
vn 0.6795 0.7317 0.0539
vn 0.5778 0.8159 0.0224
vn 0.5095 0.7086 0.4881
vn 0.5846 0.8102 0.0424
vn 0.5937 0.8042 0.0273
vn 0.5977 0.8017 0.0000
vn 0.5883 0.8087 -0.0035
vn 0.4591 0.7753 0.4338
vn -0.4591 -0.7753 -0.4338
vn 0.4880 0.7544 0.4390
vn -0.4880 -0.7544 -0.4390
vn 0.4716 0.7562 0.4535
vn -0.0588 0.9968 -0.0539
vn 0.6935 0.7143 -0.0941
vn 0.7109 0.6883 -0.1444
vn 0.6603 0.7506 -0.0234
vn 0.7040 0.7088 -0.0436
vn 0.7040 0.7088 -0.0441
vn 0.7042 0.7086 -0.0442
vn 0.7038 0.7091 -0.0428
vn 0.7114 0.6976 -0.0852
vn 0.5582 0.7143 -0.4220
vn 0.4973 0.7639 0.4113
vn 0.4995 0.7645 0.4076
vn 0.4980 0.7641 0.4100
vn -0.4973 -0.7639 -0.4113
vn -0.4980 -0.7641 -0.4100
vn -0.4995 -0.7645 -0.4076
vn 0.4967 0.7637 0.4123
vn -0.4967 -0.7637 -0.4123
vn 0.1748 0.7959 0.5796
vn 0.6510 0.7589 -0.0176
vn 0.6464 0.7628 0.0166
vn 0.7959 0.5916 -0.1283
vn 0.6804 0.7318 -0.0397
vn 0.6815 0.7301 0.0502
vn 0.9531 0.2749 -0.1264
vn 0.7901 0.6032 -0.1093
vn 0.7886 0.6054 -0.1079
vn 0.7903 0.6028 -0.1097
vn 0.8041 0.5793 -0.1338
vn 0.7879 0.6064 -0.1069
vn 0.6868 0.7227 0.0781
vn -0.6865 -0.7232 -0.0755
vn -0.6856 -0.7248 -0.0671
vn -0.6868 -0.7227 -0.0781
vn -0.6855 -0.7250 -0.0662
vn 0.1041 0.9920 0.0708
vn 0.6873 0.7244 0.0534
vn 0.6755 0.7357 0.0504
vn 0.5852 0.7985 0.1412
vn 0.5959 0.7604 0.2582
vn -0.6758 -0.7354 -0.0509
vn -0.6802 -0.7310 -0.0544
vn -0.6795 -0.7317 -0.0539
vn -0.6755 -0.7357 -0.0504
vn -0.6770 -0.7348 -0.0429
vn 0.5809 0.7584 0.2956
vn 0.6103 0.7406 0.2811
vn -0.5959 -0.7604 -0.2582
vn -0.6103 -0.7406 -0.2811
vn -0.5809 -0.7584 -0.2956
vn 0.5233 0.7666 0.3720
vn 0.4937 0.7464 0.4462
vn 0.6075 0.7887 0.0945
vn 0.5353 0.7773 0.3304
vn -0.5353 -0.7773 -0.3304
vn -0.6075 -0.7887 -0.0945
vn 0.4800 0.7544 0.4478
vn 0.5279 0.7276 0.4381
vn -0.5279 -0.7276 -0.4381
vn 0.5119 0.6596 0.5504
vn -0.5119 -0.6596 -0.5504
vn -0.4800 -0.7544 -0.4478
vn 0.5093 0.7580 0.4075
vn 0.4958 0.7140 0.4943
vn 0.7287 0.5159 0.4505
vn 0.5442 0.7398 0.3956
vn 0.4505 0.7759 0.4416
vn -0.4505 -0.7759 -0.4416
vn -0.5095 -0.7086 -0.4881
vn 0.4525 0.6561 0.6039
vn 0.6622 0.7485 -0.0334
vn 0.6863 0.7273 -0.0017
vn 0.6860 0.7276 -0.0011
vn 0.6862 0.7274 -0.0015
vn 0.6856 0.7280 -0.0003
vn 0.6083 0.7928 0.0383
vn 0.6102 0.7914 0.0371
vn 0.6088 0.7924 0.0380
vn 0.6105 0.7912 0.0370
vn 0.7150 0.6986 -0.0294
vn 0.5739 0.8180 0.0393
vn 0.5709 0.8201 0.0402
vn 0.6978 0.7161 -0.0188
vn 0.6973 0.7166 -0.0181
vn 0.6983 0.7155 -0.0197
vn 0.6994 0.7144 -0.0212
vn 0.7201 0.6924 -0.0461
vn 0.7205 0.6919 -0.0465
vn 0.7187 0.6938 -0.0447
vn 0.7186 0.6940 -0.0445
vn 0.7134 0.6997 -0.0394
vn 0.7118 0.7014 -0.0379
vn 0.7122 0.7009 -0.0386
vn 0.7187 0.6939 -0.0442
vn 0.5672 0.8227 -0.0369
vn 0.5750 0.8173 0.0375
vn 0.5932 0.8043 0.0351
vn -0.5233 -0.7666 -0.3720
vn -0.7880 -0.6062 0.1073
vn -0.4925 -0.7663 -0.4126
vn -0.4655 -0.7675 -0.4408
vn -0.4967 -0.7357 -0.4605
vn -0.4969 -0.7352 -0.4610
vn -0.4975 -0.7339 -0.4625
vn -0.3347 -0.8953 -0.2939
vn -0.4978 -0.7336 -0.4627
vn -0.5457 -0.7722 -0.3254
vn -0.2845 -0.9197 -0.2705
vn -0.3750 -0.9270 0.0000
vn -0.5025 -0.8553 0.1263
vn -0.6160 -0.7877 0.0000
vn -0.5649 -0.8242 0.0383
vn -0.5610 -0.8268 0.0411
vn -0.5624 -0.8259 0.0401
vn -0.5389 -0.8403 -0.0588
vn -0.5697 -0.8209 -0.0392
vn -0.5704 -0.8205 -0.0389
vn -0.5762 -0.8162 0.0418
vn -0.5948 -0.8038 0.0094
vn -0.5931 -0.8050 0.0115
vn -0.5944 -0.8041 0.0099
vn -0.5530 -0.8318 -0.0479
vn -0.5753 -0.8176 -0.0259
vn -0.5753 -0.8176 -0.0256
vn -0.5773 -0.8162 -0.0230
vn -0.6607 -0.7500 0.0301
vn -0.6610 -0.7498 0.0308
vn -0.6620 -0.7488 0.0330
vn -0.6435 -0.7654 0.0089
vn -0.5600 -0.8275 0.0418
vn -0.5930 -0.8051 0.0116
vn -0.1505 -0.9360 0.3183
vn -0.3425 -0.9395 0.0031
vn -0.1182 -0.9908 -0.0661
vn -0.3048 -0.9127 -0.2721
vn -0.5256 -0.8507 0.0000
vn -0.5743 -0.8186 0.0000
vn -0.5535 -0.8317 -0.0434
vn -0.4465 -0.8948 0.0000
vn -0.5436 -0.7786 0.3135
vn -0.6877 -0.7099 -0.1518
vn -0.6919 -0.7187 -0.0688
vn -0.5778 -0.8159 -0.0224
vn -0.5846 -0.8102 -0.0424
vn -0.5937 -0.8042 -0.0273
vn -0.5977 -0.8017 0.0000
vn -0.5883 -0.8087 0.0035
vn -0.4716 -0.7562 -0.4535
vn 0.0588 -0.9968 0.0539
vn -0.6935 -0.7143 0.0941
vn -0.7109 -0.6883 0.1444
vn -0.6603 -0.7506 0.0234
vn -0.7040 -0.7088 0.0436
vn -0.7042 -0.7086 0.0442
vn -0.7040 -0.7088 0.0441
vn -0.7038 -0.7091 0.0428
vn -0.7114 -0.6976 0.0852
vn -0.5582 -0.7143 0.4220
vn -0.1748 -0.7959 -0.5796
vn -0.6510 -0.7589 0.0176
vn -0.6464 -0.7628 -0.0166
vn -0.7959 -0.5916 0.1283
vn -0.6804 -0.7318 0.0397
vn -0.6815 -0.7301 -0.0502
vn -0.9531 -0.2749 0.1264
vn -0.7903 -0.6028 0.1097
vn -0.8041 -0.5793 0.1338
vn -0.1041 -0.9920 -0.0708
vn -0.6873 -0.7244 -0.0534
vn -0.5852 -0.7985 -0.1412
vn -0.4937 -0.7464 -0.4462
vn -0.5093 -0.7580 -0.4075
vn -0.4958 -0.7140 -0.4943
vn -0.7287 -0.5159 -0.4505
vn -0.5442 -0.7398 -0.3956
vn -0.4525 -0.6561 -0.6039
vn -0.6622 -0.7485 0.0334
vn -0.6863 -0.7273 0.0017
vn -0.6862 -0.7274 0.0015
vn -0.6860 -0.7276 0.0011
vn -0.6856 -0.7280 0.0003
vn -0.6083 -0.7928 -0.0383
vn -0.6088 -0.7924 -0.0380
vn -0.6102 -0.7914 -0.0371
vn -0.6105 -0.7912 -0.0370
vn -0.7150 -0.6986 0.0294
vn -0.5709 -0.8201 -0.0402
vn -0.5744 -0.8177 -0.0377
vn -0.6978 -0.7161 0.0188
vn -0.6983 -0.7155 0.0197
vn -0.6973 -0.7166 0.0181
vn -0.6994 -0.7144 0.0212
vn -0.7201 -0.6924 0.0461
vn -0.7147 -0.6983 0.0407
vn -0.7205 -0.6919 0.0465
vn -0.7171 -0.6957 0.0430
vn -0.7134 -0.6997 0.0394
vn -0.7187 -0.6939 0.0442
vn -0.5672 -0.8227 0.0369
vn -0.5750 -0.8173 -0.0375
vn -0.5932 -0.8043 -0.0351
usemtl None.057
s 1
f 1//1 2//1 3//1
f 1//2 3//2 4//2
f 5//3 6//4 7//5
f 5//6 8//6 6//6
f 7//5 6//4 9//7
f 2//8 9//8 3//8
f 8//9 10//9 6//9
f 11//10 12//10 13//10
f 11//11 13//11 14//11
f 15//12 16//12 17//12
f 18//13 19//14 20//15
f 21//16 22//16 19//16
f 21//17 19//18 23//19
f 24//20 19//20 25//20
f 24//21 26//22 19//23
f 27//24 19//24 22//24
f 27//25 28//26 19//27
f 29//28 30//29 31//30
f 29//31 31//31 32//31
f 33//32 20//15 19//14
f 33//33 19//23 26//22
f 34//34 3//34 35//34
f 34//35 35//35 36//35
f 34//36 37//36 3//36
f 34//37 36//37 38//37
f 14//38 39//38 10//38
f 14//39 13//39 39//39
f 10//40 39//40 40//40
f 10//41 40//41 6//41
f 12//10 41//10 13//10
f 41//10 42//10 13//10
f 42//10 43//10 13//10
f 43//10 44//10 13//10
f 44//10 45//10 13//10
f 45//10 46//10 13//10
f 47//42 48//42 31//42
f 48//42 49//42 31//42
f 49//43 50//43 18//43
f 49//44 18//44 31//44
f 50//43 51//43 18//43
f 51//43 52//43 18//43
f 52//45 53//45 19//45
f 54//45 55//45 19//45
f 54//45 19//45 56//45
f 55//45 57//45 19//45
f 57//45 58//45 19//45
f 58//45 59//45 19//45
f 59//45 60//45 19//45
f 60//45 61//45 19//45
f 62//46 19//46 63//46
f 39//47 64//47 65//47
f 39//48 65//49 66//50
f 67//51 39//51 68//51
f 67//52 69//53 39//54
f 19//27 28//26 70//55
f 46//10 47//10 13//10
f 3//56 71//56 35//56
f 17//57 72//57 73//57
f 17//58 16//58 72//58
f 17//59 73//59 61//59
f 19//60 62//60 25//60
f 74//61 9//61 75//61
f 74//62 75//62 76//62
f 74//63 77//63 9//63
f 74//64 76//64 77//64
f 78//65 79//65 3//65
f 80//66 81//66 82//66
f 80//67 39//67 81//67
f 39//68 13//68 81//68
f 18//69 32//69 31//69
f 13//70 83//71 84//72
f 13//70 85//73 83//71
f 13//74 84//74 81//74
f 31//75 86//75 47//75
f 87//76 88//77 6//78
f 87//79 89//80 88//81
f 87//76 6//78 90//82
f 87//79 90//83 89//80
f 19//84 70//84 63//84
f 63//85 91//85 62//85
f 63//86 70//86 91//86
f 80//87 92//87 64//87
f 80//88 64//88 39//88
f 39//89 93//89 68//89
f 94//90 95//90 80//90
f 95//91 96//92 92//93
f 95//94 92//94 80//94
f 96//92 95//91 97//95
f 66//50 93//96 39//48
f 66//97 98//98 93//99
f 66//97 65//100 98//98
f 39//101 99//101 40//101
f 39//102 100//102 99//102
f 39//54 69//53 100//103
f 6//104 40//104 99//104
f 99//105 101//105 6//105
f 69//106 67//107 98//108
f 69//106 98//108 100//109
f 69//110 100//110 102//110
f 6//111 103//111 104//111
f 6//112 101//112 103//112
f 101//113 99//113 89//113
f 101//114 89//114 103//114
f 103//115 89//115 104//115
f 6//116 104//116 90//116
f 9//117 6//117 75//117
f 75//118 6//118 105//118
f 6//119 88//119 105//119
f 105//120 88//120 89//120
f 105//121 89//121 75//121
f 9//122 106//122 3//122
f 9//123 77//123 106//123
f 106//124 77//124 76//124
f 106//125 78//125 3//125
f 106//126 36//126 78//126
f 106//127 76//127 36//127
f 4//128 3//128 107//128
f 79//129 108//129 3//129
f 3//130 37//130 109//130
f 3//131 109//131 107//131
f 71//132 3//132 108//132
f 71//133 108//133 36//133
f 71//134 36//134 35//134
f 109//135 37//135 110//135
f 86//136 31//30 30//29
f 85//137 13//138 111//139
f 111//139 13//138 112//140
f 113//141 13//142 114//143
f 114//143 13//142 115//144
f 115//145 13//145 86//145
f 23//19 73//146 116//147
f 23//19 19//18 73//146
f 117//148 112//149 13//150
f 117//148 13//150 118//151
f 119//152 118//153 13//154
f 119//152 13//154 120//155
f 121//156 120//157 13//158
f 121//156 13//158 113//159
f 52//160 19//160 18//160
f 61//161 73//146 19//18
f 56//45 19//45 53//45
f 47//162 86//162 13//162
f 90//163 104//163 89//163
f 97//164 122//164 96//164
f 123//165 36//165 124//165
f 123//166 125//166 36//166
f 126//167 127//168 89//169
f 126//170 89//170 128//170
f 127//168 76//171 89//169
f 124//172 36//172 76//172
f 128//173 89//173 129//173
f 130//174 131//174 132//174
f 130//175 133//175 131//175
f 134//176 135//176 136//176
f 137//177 138//178 139//179
f 140//180 139//180 141//180
f 140//181 142//181 139//182
f 143//183 144//183 139//183
f 143//184 139//185 145//186
f 146//187 141//187 139//187
f 146//188 139//189 147//190
f 148//191 149//192 150//193
f 148//194 151//194 149//194
f 152//195 139//179 138//178
f 152//196 145//186 139//185
f 133//197 129//197 98//197
f 133//198 98//198 131//198
f 129//199 153//199 98//199
f 129//200 89//200 153//200
f 132//174 131//174 154//174
f 154//174 131//174 155//174
f 155//174 131//174 156//174
f 156//174 131//174 157//174
f 157//174 131//174 158//174
f 158//174 131//174 159//174
f 160//201 149//201 161//201
f 161//201 149//201 162//201
f 162//202 137//202 163//202
f 162//203 149//203 137//203
f 163//202 137//202 164//202
f 164//202 137//202 165//202
f 165//204 139//204 166//204
f 167//204 139//204 168//204
f 167//204 169//204 139//204
f 168//204 139//204 170//204
f 170//204 139//204 171//204
f 171//204 139//204 172//204
f 172//204 139//204 173//204
f 173//204 139//204 174//204
f 175//205 176//205 139//205
f 98//206 65//206 64//206
f 67//207 68//207 98//207
f 139//189 177//208 147//190
f 159//174 131//174 160//174
f 135//209 178//209 179//209
f 135//210 179//210 136//210
f 135//211 174//211 178//211
f 139//212 144//212 175//212
f 78//213 36//213 79//213
f 180//214 181//214 182//214
f 180//215 182//215 98//215
f 98//216 182//216 131//216
f 137//217 149//217 151//217
f 131//218 183//219 184//220
f 131//218 184//220 185//221
f 131//222 182//222 183//222
f 149//223 160//223 186//223
f 139//224 176//224 177//224
f 176//225 175//225 187//225
f 176//226 187//226 177//226
f 180//227 64//227 92//227
f 180//228 98//228 64//228
f 98//229 68//229 93//229
f 188//230 180//230 122//230
f 122//231 92//231 96//231
f 122//232 180//232 92//232
f 98//233 153//233 99//233
f 98//234 99//234 100//234
f 89//235 99//235 153//235
f 76//236 75//236 89//236
f 125//237 189//237 36//237
f 79//238 36//238 108//238
f 36//239 190//239 38//239
f 36//240 189//240 190//240
f 190//241 191//241 38//241
f 186//242 150//193 149//192
f 185//243 192//244 131//245
f 192//244 193//246 131//245
f 194//247 195//248 131//249
f 195//248 196//250 131//249
f 196//251 186//251 131//251
f 142//252 197//252 178//252
f 142//181 178//253 139//182
f 198//254 131//255 193//256
f 198//254 199//257 131//255
f 200//258 131//259 199//260
f 200//258 201//261 131//259
f 202//262 131//259 201//261
f 202//262 194//263 131//259
f 165//264 137//177 139//179
f 174//265 139//182 178//253
f 169//204 166//204 139//204
f 160//266 131//266 186//266
