# Blender v2.79 (sub 0) OBJ File: ''
# www.blender.org
mtllib crack_restart_keyway_435.mtl
o crack_restart_keyway_435
v 0.073544 -0.113088 -0.472461
v 0.072990 -0.113324 -0.459453
v 0.084873 -0.121257 -0.472461
v 0.147220 -0.162042 -0.087638
v 0.115955 -0.144861 -0.090506
v 0.150781 -0.164579 -0.087249
v 0.143336 -0.159229 -0.088145
v 0.139536 -0.156354 -0.088658
v 0.135313 -0.153111 -0.089231
v 0.131068 -0.149873 -0.089874
v 0.126581 -0.147784 -0.091774
v 0.152196 -0.169032 -0.080791
v 0.154210 -0.167189 -0.086931
v 0.120406 -0.147382 -0.103551
v 0.114622 -0.144490 -0.094842
v 0.120866 -0.146923 -0.098614
v 0.109338 -0.141362 -0.089225
v 0.120406 -0.147382 -0.118922
v 0.120406 -0.147382 -0.472461
v 0.108240 -0.138319 -0.472461
v 0.120406 -0.147382 -0.457089
v 0.073514 -0.113109 -0.238326
v 0.120406 -0.147382 -0.226521
v 0.073107 -0.113251 -0.251334
v 0.073902 -0.112751 -0.225319
v 0.070760 -0.114896 -0.394416
v 0.070215 -0.115068 -0.381408
v 0.070867 -0.114837 -0.368401
v 0.070915 -0.114628 -0.407423
v 0.072456 -0.113860 -0.290356
v 0.072699 -0.113507 -0.277349
v 0.104145 -0.140722 -0.280920
v 0.071758 -0.114099 -0.303364
v 0.072669 -0.113708 -0.446446
v 0.071482 -0.114497 -0.342386
v 0.120406 -0.147382 -0.334119
v 0.070576 -0.114841 -0.355393
v 0.071448 -0.114293 -0.329378
v 0.072999 -0.113474 -0.264341
v 0.076526 -0.111103 -0.121259
v 0.075547 -0.111667 -0.134267
v 0.077441 -0.110322 -0.108252
v 0.077905 -0.110227 -0.095086
v 0.082760 -0.118254 -0.084362
v 0.075247 -0.111667 -0.083031
v 0.071625 -0.114418 -0.316371
v 0.120406 -0.147382 -0.318748
v 0.146538 -0.173938 -0.061448
v 0.148189 -0.172549 -0.068122
v 0.150055 -0.170929 -0.074930
v 0.122213 -0.145575 -0.094013
v 0.120406 -0.147382 -0.134293
v 0.120406 -0.147382 -0.149664
v 0.120406 -0.147382 -0.165036
v 0.120406 -0.147382 -0.180407
v 0.120406 -0.147382 -0.195778
v 0.120406 -0.147382 -0.211149
v 0.120406 -0.147382 -0.241892
v 0.120406 -0.147382 -0.257263
v 0.120406 -0.147382 -0.272634
v 0.120406 -0.147382 -0.288006
v 0.120406 -0.147382 -0.303377
v 0.120406 -0.147382 -0.349490
v 0.120406 -0.147382 -0.364862
v 0.120406 -0.147382 -0.380233
v 0.120406 -0.147382 -0.395604
v 0.120406 -0.147382 -0.426347
v 0.120406 -0.147382 -0.441718
v 0.071861 -0.114034 -0.433438
v 0.120406 -0.147382 -0.410975
v 0.067020 -0.115104 -0.019973
v 0.093442 -0.150809 0.028376
v 0.071432 -0.114525 -0.420431
v 0.074431 -0.112487 -0.184874
v 0.074669 -0.112270 -0.173289
v 0.074090 -0.112634 -0.199304
v 0.074363 -0.112612 -0.191541
v 0.074109 -0.112687 -0.212311
v 0.074882 -0.112265 -0.166598
v 0.074908 -0.112120 -0.160281
v 0.075031 -0.112165 -0.153657
v 0.095990 -0.129324 -0.472461
v 0.103513 -0.134840 -0.472461
v 0.144874 -0.175267 -0.053035
v 0.075341 -0.111958 -0.141531
v 0.075009 -0.112056 -0.147274
v 0.068218 -0.115512 -0.034031
v 0.068510 -0.113716 -0.054989
v 0.072470 -0.112565 -0.071492
v 0.136410 -0.180958 -0.006269
v 0.137475 -0.180107 -0.013736
v 0.138351 -0.179364 -0.020174
v 0.134213 -0.182714 0.008175
v 0.077116 -0.132539 0.015226
v 0.065207 -0.115257 0.006828
v 0.115013 -0.172868 0.037934
v 0.122602 -0.180054 0.039792
v 0.129242 -0.186523 0.040924
v 0.139630 -0.178290 -0.027396
v 0.144246 -0.175670 -0.049756
v 0.143209 -0.176387 -0.044488
v 0.141744 -0.177095 -0.037530
v 0.134213 -0.182714 0.008175
v 0.067020 -0.115104 -0.019973
v 0.073544 -0.113088 -0.472461
v 0.084873 -0.121257 -0.472461
v 0.072990 -0.113324 -0.459453
v 0.147220 -0.162042 -0.087638
v 0.150781 -0.164579 -0.087249
v 0.115955 -0.144861 -0.090506
v 0.143336 -0.159229 -0.088145
v 0.139536 -0.156354 -0.088658
v 0.135313 -0.153111 -0.089231
v 0.131068 -0.149873 -0.089874
v 0.126581 -0.147784 -0.091774
v 0.154210 -0.167189 -0.086931
v 0.152196 -0.169032 -0.080791
v 0.120406 -0.147382 -0.103551
v 0.120866 -0.146923 -0.098614
v 0.114622 -0.144490 -0.094842
v 0.109338 -0.141362 -0.089225
v 0.120406 -0.147382 -0.118922
v 0.120406 -0.147382 -0.472461
v 0.120406 -0.147382 -0.457089
v 0.108240 -0.138319 -0.472461
v 0.073514 -0.113109 -0.238326
v 0.073107 -0.113251 -0.251334
v 0.120406 -0.147382 -0.226521
v 0.073902 -0.112751 -0.225319
v 0.070760 -0.114896 -0.394416
v 0.070867 -0.114837 -0.368401
v 0.070215 -0.115068 -0.381408
v 0.070915 -0.114628 -0.407423
v 0.072456 -0.113860 -0.290356
v 0.104145 -0.140722 -0.280920
v 0.072699 -0.113507 -0.277349
v 0.071758 -0.114099 -0.303364
v 0.072669 -0.113708 -0.446446
v 0.071482 -0.114497 -0.342386
v 0.070576 -0.114841 -0.355393
v 0.120406 -0.147382 -0.334119
v 0.071448 -0.114293 -0.329378
v 0.072999 -0.113474 -0.264341
v 0.076526 -0.111103 -0.121259
v 0.075547 -0.111667 -0.134267
v 0.077441 -0.110322 -0.108252
v 0.077905 -0.110227 -0.095086
v 0.082760 -0.118254 -0.084362
v 0.075247 -0.111667 -0.083031
v 0.071625 -0.114418 -0.316371
v 0.120406 -0.147382 -0.318748
v 0.146538 -0.173938 -0.061448
v 0.148189 -0.172549 -0.068122
v 0.150055 -0.170929 -0.074930
v 0.122213 -0.145575 -0.094013
v 0.120406 -0.147382 -0.134293
v 0.120406 -0.147382 -0.149664
v 0.120406 -0.147382 -0.165036
v 0.120406 -0.147382 -0.180407
v 0.120406 -0.147382 -0.195778
v 0.120406 -0.147382 -0.211149
v 0.120406 -0.147382 -0.241892
v 0.120406 -0.147382 -0.257263
v 0.120406 -0.147382 -0.272634
v 0.120406 -0.147382 -0.288006
v 0.120406 -0.147382 -0.303377
v 0.120406 -0.147382 -0.349490
v 0.120406 -0.147382 -0.364862
v 0.120406 -0.147382 -0.380233
v 0.120406 -0.147382 -0.395604
v 0.120406 -0.147382 -0.426347
v 0.071861 -0.114034 -0.433438
v 0.120406 -0.147382 -0.441718
v 0.120406 -0.147382 -0.410975
v 0.071432 -0.114525 -0.420431
v 0.074669 -0.112270 -0.173289
v 0.074431 -0.112487 -0.184874
v 0.074363 -0.112612 -0.191541
v 0.074090 -0.112634 -0.199304
v 0.074109 -0.112687 -0.212311
v 0.074908 -0.112120 -0.160281
v 0.074882 -0.112265 -0.166598
v 0.075031 -0.112165 -0.153657
v 0.095990 -0.129324 -0.472461
v 0.103513 -0.134840 -0.472461
v 0.144874 -0.175267 -0.053035
v 0.075341 -0.111958 -0.141531
v 0.075009 -0.112056 -0.147274
v 0.068218 -0.115512 -0.034031
v 0.068510 -0.113716 -0.054989
v 0.072470 -0.112565 -0.071492
v 0.137475 -0.180107 -0.013736
v 0.136410 -0.180958 -0.006269
v 0.138351 -0.179364 -0.020174
v 0.139630 -0.178290 -0.027396
v 0.144246 -0.175670 -0.049756
v 0.143209 -0.176387 -0.044488
v 0.141744 -0.177095 -0.037530
vn 0.5844 0.8105 0.0396
vn 0.5842 0.8107 0.0394
vn 0.5838 0.8110 0.0388
vn -0.0329 0.1061 0.9938
vn 0.0296 0.2167 0.9758
vn 0.0214 0.2015 0.9793
vn 0.0233 0.2053 0.9784
vn 0.0236 0.2058 0.9783
vn 0.0206 0.1998 0.9796
vn 0.0412 0.2466 0.9682
vn 0.2865 0.9040 0.3173
vn 0.2867 0.9008 0.3260
vn 0.2866 0.9033 0.3192
vn 0.5317 0.7472 0.3987
vn 0.2990 0.9472 -0.1159
vn 0.6227 0.7661 0.1592
vn 0.4778 0.8785 0.0000
vn 0.5974 0.8019 0.0000
vn 0.5965 0.8026 0.0010
vn 0.5925 0.8055 0.0063
vn 0.5959 0.8021 -0.0391
vn 0.5939 0.8041 -0.0278
vn 0.5943 0.8037 -0.0274
vn 0.5961 0.8019 -0.0399
vn -0.3188 0.9478 -0.0008
vn -0.8191 0.5737 0.0021
vn 0.6519 0.7576 -0.0327
vn 0.6543 0.7547 -0.0490
vn 0.5835 0.8112 0.0384
vn 0.5639 0.8236 -0.0611
vn 0.5592 0.8290 -0.0115
vn 0.5600 0.8285 0.0004
vn 0.5594 0.8288 -0.0087
vn 0.5430 0.8396 0.0124
vn 0.5912 0.8063 -0.0182
vn 0.5900 0.8073 -0.0159
vn 0.5899 0.8073 -0.0157
vn 0.5915 0.8061 -0.0187
vn 0.7216 0.6864 -0.0907
vn 0.7189 0.6900 -0.0845
vn 0.7186 0.6903 -0.0840
vn 0.7221 0.6857 -0.0920
vn 0.8748 0.4833 -0.0343
vn 0.6642 0.7108 0.2314
vn 0.6452 0.7636 -0.0253
vn 0.5599 0.8286 0.0003
vn 0.5599 0.8285 0.0004
vn 0.5605 0.8225 0.0961
vn 0.8404 0.4504 0.3016
vn 0.7430 0.5761 0.3407
vn 0.4806 0.7676 0.4240
vn 0.1683 0.9316 -0.3222
vn 0.2868 0.8999 0.3285
vn 0.1368 0.9897 0.0426
vn 0.3790 0.9254 0.0000
vn 0.5491 0.8358 0.0000
vn 0.5492 0.8357 0.0002
vn 0.5529 0.8332 0.0095
vn 0.5662 0.8243 0.0000
vn 0.6867 0.7113 0.1500
vn 0.4567 0.8873 -0.0645
vn 0.5498 0.8338 0.0496
vn 0.5571 0.8304 0.0000
vn 0.5562 0.8310 0.0025
vn 0.6631 0.7420 0.0987
vn 0.6811 0.7317 -0.0277
vn 0.6789 0.7338 -0.0260
vn 0.6790 0.7337 -0.0260
vn 0.6726 0.7397 -0.0221
vn 0.6359 0.7718 -0.0022
vn 0.6704 0.7417 -0.0207
vn 0.6733 0.7390 -0.0219
vn 0.6713 0.7409 -0.0203
vn 0.6706 0.7415 -0.0198
vn 0.6734 0.7390 -0.0220
vn 0.6558 0.7549 -0.0073
vn 0.6557 0.7550 -0.0070
vn 0.6587 0.7523 -0.0098
vn 0.5868 0.8087 0.0406
vn 0.5988 0.7989 0.0572
vn 0.5997 0.8002 0.0000
vn 0.4314 0.8230 0.3695
vn 0.5924 0.8056 0.0063
vn 0.5913 0.8064 0.0082
vn 0.5784 0.8148 0.0384
vn 0.5357 0.8113 0.2341
vn 0.4907 0.8175 0.3016
vn -0.0664 0.9978 0.0053
vn 0.6956 0.7167 -0.0494
vn 0.6950 0.7174 -0.0484
vn 0.6978 0.7144 -0.0523
vn 0.6983 0.7139 -0.0526
vn 0.5970 0.8021 -0.0134
vn 0.5541 0.8321 0.0231
vn 0.6022 0.7947 0.0765
vn 0.6627 0.7186 0.2109
vn 0.6640 0.7164 0.2142
vn 0.6624 0.7193 0.2091
vn 0.6555 0.7348 0.1743
vn 0.6570 0.7327 0.1772
vn 0.6567 0.7332 0.1767
vn 0.6554 0.7350 0.1740
vn 0.6614 0.7260 0.1884
vn 0.6611 0.7268 0.1865
vn 0.6615 0.7258 0.1889
vn 0.6744 0.7201 0.1633
vn 0.8086 0.5854 0.0580
vn 0.6610 0.7270 0.1860
vn 0.6533 0.7359 0.1780
vn 0.6694 0.7195 0.1853
vn 0.6595 0.7516 -0.0106
vn 0.6651 0.7150 0.2157
vn 0.6646 0.7156 0.2151
vn 0.6839 0.6942 0.2244
vn 0.6304 0.7623 0.1464
vn 0.5477 0.8078 0.2178
vn 0.5578 0.8041 0.2057
vn 0.5531 0.8061 0.2104
vn 0.5640 0.8012 0.2003
vn 0.5994 0.8003 0.0149
vn 0.6446 0.7579 -0.0999
vn -0.6533 -0.7359 -0.1780
vn -0.6694 -0.7195 -0.1853
vn -0.8086 -0.5854 -0.0580
vn -0.5844 -0.8105 -0.0396
vn -0.5842 -0.8107 -0.0391
vn -0.5842 -0.8107 -0.0394
vn 0.0329 -0.1061 -0.9938
vn -0.0296 -0.2167 -0.9758
vn -0.0288 -0.2156 -0.9761
vn -0.0252 -0.2089 -0.9776
vn -0.0236 -0.2058 -0.9783
vn -0.0206 -0.1998 -0.9796
vn -0.0412 -0.2466 -0.9682
vn -0.2865 -0.9040 -0.3173
vn -0.2866 -0.9033 -0.3192
vn -0.2867 -0.9009 -0.3260
vn -0.5317 -0.7472 -0.3987
vn -0.2990 -0.9472 0.1159
vn -0.6227 -0.7661 -0.1592
vn -0.4778 -0.8785 0.0000
vn -0.5974 -0.8019 0.0000
vn -0.5943 -0.8037 0.0274
vn -0.5940 -0.8040 0.0264
vn -0.5902 -0.8071 0.0164
vn -0.5961 -0.8019 0.0399
vn 0.3188 -0.9478 0.0008
vn 0.8191 -0.5737 -0.0021
vn -0.6519 -0.7576 0.0327
vn -0.6543 -0.7547 0.0490
vn -0.5864 -0.8090 -0.0405
vn -0.5639 -0.8236 0.0611
vn -0.5592 -0.8290 0.0115
vn -0.5594 -0.8288 0.0087
vn -0.5598 -0.8286 0.0028
vn -0.5430 -0.8396 -0.0124
vn -0.5912 -0.8063 0.0182
vn -0.5899 -0.8073 0.0157
vn -0.7216 -0.6864 0.0907
vn -0.7186 -0.6903 0.0840
vn -0.7189 -0.6900 0.0845
vn -0.7221 -0.6857 0.0920
vn -0.8748 -0.4833 0.0343
vn -0.6642 -0.7108 -0.2314
vn -0.6452 -0.7636 0.0253
vn -0.5599 -0.8286 -0.0003
vn -0.5605 -0.8225 -0.0961
vn -0.8404 -0.4504 -0.3016
vn -0.7430 -0.5761 -0.3407
vn -0.4806 -0.7676 -0.4240
vn -0.1683 -0.9316 0.3222
vn -0.2868 -0.8999 -0.3285
vn -0.1368 -0.9897 -0.0426
vn -0.3790 -0.9254 0.0000
vn -0.5491 -0.8358 0.0000
vn -0.5492 -0.8357 -0.0002
vn -0.5529 -0.8332 -0.0094
vn -0.5662 -0.8243 0.0000
vn -0.6867 -0.7113 -0.1500
vn -0.4567 -0.8873 0.0645
vn -0.5498 -0.8338 -0.0496
vn -0.5571 -0.8304 0.0000
vn -0.5562 -0.8310 -0.0026
vn -0.6631 -0.7420 -0.0987
vn -0.6713 -0.7409 0.0204
vn -0.6752 -0.7372 0.0234
vn -0.6811 -0.7317 0.0277
vn -0.6789 -0.7338 0.0260
vn -0.6726 -0.7397 0.0221
vn -0.6790 -0.7337 0.0260
vn -0.6359 -0.7718 0.0022
vn -0.6704 -0.7417 0.0207
vn -0.6706 -0.7415 0.0198
vn -0.6713 -0.7409 0.0203
vn -0.6558 -0.7549 0.0073
vn -0.6587 -0.7524 0.0098
vn -0.6557 -0.7550 0.0070
vn -0.5868 -0.8087 -0.0406
vn -0.5988 -0.7989 -0.0572
vn -0.5997 -0.8002 0.0000
vn -0.5991 -0.8007 0.0032
vn -0.5977 -0.8017 0.0101
vn -0.4314 -0.8230 -0.3695
vn -0.5920 -0.8059 -0.0069
vn -0.5913 -0.8064 -0.0082
vn -0.5924 -0.8056 -0.0063
vn -0.5927 -0.8054 -0.0057
vn -0.5784 -0.8148 -0.0384
vn -0.5600 -0.8285 -0.0000
vn -0.5357 -0.8113 -0.2341
vn -0.4907 -0.8175 -0.3016
vn 0.0664 -0.9978 -0.0053
vn -0.6957 -0.7167 0.0494
vn -0.6978 -0.7144 0.0523
vn -0.6950 -0.7174 0.0484
vn -0.6983 -0.7139 0.0526
vn -0.5970 -0.8021 0.0134
vn -0.5541 -0.8321 -0.0231
vn -0.6022 -0.7947 -0.0765
vn -0.6627 -0.7186 -0.2109
vn -0.6624 -0.7193 -0.2091
vn -0.6640 -0.7164 -0.2142
vn -0.6570 -0.7327 -0.1772
vn -0.6554 -0.7350 -0.1740
vn -0.6614 -0.7260 -0.1884
vn -0.6615 -0.7258 -0.1889
vn -0.6611 -0.7268 -0.1865
vn -0.6744 -0.7201 -0.1633
vn -0.6610 -0.7270 -0.1860
vn -0.6595 -0.7516 0.0106
vn -0.6651 -0.7150 -0.2157
vn -0.6646 -0.7156 -0.2151
vn -0.6839 -0.6942 -0.2244
vn -0.6304 -0.7623 -0.1464
vn -0.5477 -0.8078 -0.2178
vn -0.5578 -0.8041 -0.2057
vn -0.5531 -0.8061 -0.2104
vn -0.5640 -0.8012 -0.2003
vn -0.5994 -0.8003 -0.0149
vn -0.6446 -0.7579 0.0999
usemtl None.075
s 1
f 1//1 2//2 3//3
f 4//4 5//4 6//4
f 4//5 7//5 5//5
f 8//6 5//7 7//8
f 8//6 9//9 5//7
f 10//10 5//10 9//10
f 10//11 11//12 5//13
f 6//14 12//14 13//14
f 14//15 15//15 16//15
f 14//16 17//16 15//16
f 14//17 18//17 17//17
f 19//18 20//19 21//20
f 22//21 23//22 24//23
f 22//21 25//24 23//22
f 26//25 27//25 28//25
f 26//26 28//26 29//26
f 30//27 31//27 32//27
f 30//28 32//28 33//28
f 34//29 3//3 2//2
f 35//30 36//30 37//30
f 35//31 38//32 36//33
f 28//34 37//34 36//34
f 39//35 23//36 31//37
f 39//35 24//38 23//36
f 40//39 17//40 41//41
f 40//39 42//42 17//40
f 43//43 44//43 42//43
f 43//44 45//44 44//44
f 46//45 33//45 32//45
f 46//46 47//47 38//32
f 46//48 32//48 47//48
f 48//49 49//49 6//49
f 49//50 50//50 6//50
f 12//51 6//51 50//51
f 16//52 15//52 51//52
f 51//53 5//13 11//12
f 51//54 15//54 5//54
f 18//17 52//17 17//17
f 52//17 53//17 17//17
f 54//17 55//17 17//17
f 54//17 17//17 53//17
f 55//17 56//17 17//17
f 56//17 57//17 17//17
f 58//55 59//55 32//55
f 58//55 32//55 23//55
f 59//55 60//55 32//55
f 60//55 61//55 32//55
f 61//55 62//55 32//55
f 63//56 28//57 36//56
f 63//56 64//56 28//57
f 64//56 65//56 28//57
f 65//56 66//58 28//57
f 67//59 68//59 69//59
f 67//59 69//59 70//59
f 17//60 71//60 72//60
f 5//61 15//61 17//61
f 62//55 47//55 32//55
f 73//62 70//62 69//62
f 70//63 73//64 66//58
f 42//65 44//65 17//65
f 17//66 74//66 75//66
f 17//67 76//68 77//69
f 17//70 78//70 76//70
f 17//67 77//69 74//71
f 66//58 73//64 28//57
f 17//72 79//73 80//74
f 17//72 75//75 79//73
f 17//76 80//77 81//78
f 34//79 82//79 3//79
f 34//80 69//80 82//80
f 68//59 21//59 69//59
f 57//81 23//81 78//81
f 6//82 5//82 48//82
f 21//20 83//83 82//84
f 21//20 20//19 83//83
f 21//85 82//85 69//85
f 47//47 36//33 38//32
f 48//86 17//86 84//86
f 48//87 5//87 17//87
f 28//88 73//88 29//88
f 85//89 41//90 17//91
f 85//89 17//91 86//92
f 23//93 25//93 78//93
f 17//94 87//94 71//94
f 17//95 88//95 87//95
f 17//96 89//97 88//98
f 72//99 90//100 91//101
f 72//99 91//101 92//102
f 72//103 93//104 90//105
f 94//106 72//106 71//106
f 94//107 71//107 95//107
f 72//103 96//108 93//104
f 96//109 97//109 93//109
f 93//110 97//110 98//110
f 86//111 17//76 81//78
f 45//112 89//97 44//113
f 72//114 92//114 99//114
f 72//115 99//115 17//115
f 100//116 17//116 101//116
f 100//117 84//117 17//117
f 102//118 17//118 99//118
f 102//119 101//119 17//119
f 89//97 17//96 44//113
f 17//120 57//120 78//120
f 32//121 31//121 23//121
f 97//122 96//122 103//122
f 97//123 103//123 98//123
f 95//124 104//124 94//124
f 105//125 106//126 107//127
f 108//128 109//128 110//128
f 108//129 110//130 111//131
f 112//132 111//131 110//130
f 112//133 110//133 113//133
f 114//134 113//134 110//134
f 114//135 110//136 115//137
f 109//138 116//138 117//138
f 118//139 119//139 120//139
f 118//140 120//140 121//140
f 118//141 121//141 122//141
f 123//142 124//142 125//142
f 126//143 127//144 128//145
f 126//146 128//146 129//146
f 130//147 131//147 132//147
f 130//148 133//148 131//148
f 134//149 135//149 136//149
f 134//150 137//150 135//150
f 138//151 107//127 106//126
f 139//152 140//152 141//152
f 139//153 141//154 142//155
f 131//156 141//156 140//156
f 143//157 136//158 128//145
f 143//157 128//145 127//144
f 144//159 145//160 121//161
f 144//159 121//161 146//162
f 147//163 146//163 148//163
f 147//164 148//164 149//164
f 150//165 135//165 137//165
f 150//166 142//166 151//166
f 150//167 151//167 135//167
f 152//168 109//168 153//168
f 153//169 109//169 154//169
f 117//170 154//170 109//170
f 119//171 155//171 120//171
f 155//172 115//137 110//136
f 155//173 110//173 120//173
f 122//141 121//141 156//141
f 156//141 121//141 157//141
f 158//141 121//141 159//141
f 158//141 157//141 121//141
f 159//141 121//141 160//141
f 160//141 121//141 161//141
f 162//174 135//174 163//174
f 162//174 128//174 135//174
f 163//174 135//174 164//174
f 164//174 135//174 165//174
f 165//174 135//174 166//174
f 167//175 141//175 131//176
f 167//175 131//176 168//175
f 168//175 131//176 169//175
f 169//175 131//176 170//177
f 171//178 172//178 173//178
f 171//178 174//178 172//178
f 121//179 72//179 104//179
f 110//180 121//180 120//180
f 166//174 135//174 151//174
f 175//181 172//181 174//181
f 174//182 170//177 175//183
f 146//184 121//184 148//184
f 121//185 176//186 177//187
f 121//188 178//189 179//190
f 121//191 179//191 180//191
f 121//188 177//192 178//189
f 170//177 131//176 175//183
f 121//185 181//193 182//194
f 121//185 182//194 176//186
f 121//195 183//196 181//197
f 138//151 106//126 184//198
f 138//199 184//199 172//199
f 173//178 172//178 124//178
f 161//200 180//201 128//202
f 109//203 152//203 110//203
f 124//204 184//205 185//206
f 124//204 185//206 125//207
f 124//208 172//208 184//208
f 151//209 142//155 141//154
f 152//210 186//210 121//210
f 152//211 121//211 110//211
f 131//212 133//212 175//212
f 187//213 121//214 145//215
f 187//213 188//216 121//214
f 128//202 180//201 129//217
f 121//218 104//218 189//218
f 121//219 189//219 190//219
f 121//220 190//221 191//222
f 72//223 192//223 193//223
f 72//224 194//224 192//224
f 72//225 193//226 103//227
f 94//228 104//228 72//228
f 72//225 103//227 96//229
f 188//230 183//196 121//195
f 149//231 148//232 191//222
f 72//233 195//233 194//233
f 72//234 121//234 195//234
f 196//235 197//235 121//235
f 196//236 121//236 186//236
f 198//237 195//237 121//237
f 198//238 121//238 197//238
f 191//222 148//232 121//220
f 121//239 180//239 161//239
f 135//240 128//240 136//240
