# Blender v2.79 (sub 0) OBJ File: ''
# www.blender.org
mtllib crack_restart_keyway_695.mtl
o crack_restart_keyway_695
v 0.073357 -0.113220 -0.472461
v 0.072938 -0.113357 -0.459453
v 0.084663 -0.121389 -0.472461
v 0.147226 -0.162039 -0.087633
v 0.115968 -0.144846 -0.090502
v 0.150732 -0.164624 -0.087293
v 0.143382 -0.159202 -0.088100
v 0.152182 -0.169045 -0.080799
v 0.154210 -0.167189 -0.086931
v 0.139590 -0.156320 -0.088615
v 0.126540 -0.147825 -0.091832
v 0.122213 -0.145575 -0.094013
v 0.131068 -0.149873 -0.089874
v 0.120406 -0.147382 -0.426347
v 0.095808 -0.129469 -0.472461
v 0.120406 -0.147382 -0.103551
v 0.114631 -0.144474 -0.094849
v 0.120866 -0.146923 -0.098614
v 0.120406 -0.147382 -0.118922
v 0.120406 -0.147382 -0.472461
v 0.108115 -0.138419 -0.472461
v 0.120406 -0.147382 -0.457089
v 0.074031 -0.112742 -0.186296
v 0.074407 -0.112434 -0.173289
v 0.102241 -0.136915 -0.128183
v 0.074026 -0.112674 -0.199304
v 0.070705 -0.114927 -0.394416
v 0.069975 -0.115219 -0.381408
v 0.120406 -0.147382 -0.395604
v 0.070965 -0.114597 -0.407423
v 0.072176 -0.114058 -0.290356
v 0.072611 -0.113563 -0.277349
v 0.104170 -0.140678 -0.280927
v 0.071448 -0.114294 -0.303364
v 0.072607 -0.113753 -0.446446
v 0.071897 -0.114011 -0.433438
v 0.071824 -0.114308 -0.342386
v 0.071549 -0.114230 -0.329378
v 0.070459 -0.114915 -0.355393
v 0.074597 -0.112099 -0.081618
v 0.071666 -0.111197 -0.054992
v 0.075841 -0.111444 -0.096492
v 0.071549 -0.114460 -0.420431
v 0.073094 -0.113407 -0.264341
v 0.073188 -0.113200 -0.251334
v 0.074658 -0.112297 -0.160281
v 0.075029 -0.112043 -0.147274
v 0.076288 -0.111253 -0.121259
v 0.075699 -0.111559 -0.134267
v 0.076493 -0.110995 -0.108252
v 0.071655 -0.114402 -0.316371
v 0.074039 -0.112736 -0.212311
v 0.073853 -0.112782 -0.225319
v 0.146838 -0.173676 -0.061410
v 0.148177 -0.172559 -0.068129
v 0.145993 -0.174260 -0.051043
v 0.150293 -0.170720 -0.074799
v 0.120406 -0.147382 -0.134293
v 0.120406 -0.147382 -0.149664
v 0.120406 -0.147382 -0.180407
v 0.120406 -0.147382 -0.195778
v 0.073560 -0.113076 -0.238326
v 0.120406 -0.147382 -0.165036
v 0.120406 -0.147382 -0.211149
v 0.120406 -0.147382 -0.241892
v 0.120406 -0.147382 -0.257263
v 0.120406 -0.147382 -0.226521
v 0.120406 -0.147382 -0.272634
v 0.120406 -0.147382 -0.288006
v 0.120406 -0.147382 -0.334119
v 0.120406 -0.147382 -0.349490
v 0.120406 -0.147382 -0.318748
v 0.120406 -0.147382 -0.364862
v 0.120406 -0.147382 -0.380233
v 0.120406 -0.147382 -0.441718
v 0.112639 -0.150792 -0.012497
v 0.143474 -0.175177 -0.027808
v 0.144813 -0.174708 -0.039760
v 0.072258 -0.113032 -0.026441
v 0.135363 -0.153080 -0.089188
v 0.070540 -0.115018 -0.368401
v 0.120406 -0.147382 -0.303377
v 0.120406 -0.147382 -0.410975
v 0.103579 -0.135118 -0.472461
v 0.095416 -0.117261 0.292026
v 0.078234 -0.108406 0.212311
v 0.080745 -0.106115 0.238326
v 0.077606 -0.109673 0.198709
v 0.138067 -0.180344 0.255805
v 0.135572 -0.181790 0.235200
v 0.113374 -0.138470 0.303145
v 0.140684 -0.178019 0.277453
v 0.142208 -0.176033 0.293231
v 0.081422 -0.103410 0.264341
v 0.083810 -0.103323 0.286185
v 0.143145 -0.174749 0.304583
v 0.134541 -0.163074 0.312492
v 0.143769 -0.174362 0.314419
v 0.070325 -0.112210 -0.001446
v 0.071441 -0.113546 0.025311
v 0.069987 -0.112533 0.052171
v 0.073487 -0.109742 0.159331
v 0.075853 -0.109751 0.182551
v 0.104419 -0.148575 0.187446
v 0.072877 -0.112643 0.129637
v 0.133026 -0.183346 0.192129
v 0.132339 -0.183590 0.161690
v 0.133716 -0.182706 0.211243
v 0.132643 -0.183561 0.137530
v 0.133230 -0.182871 0.112414
v 0.071163 -0.113722 0.078686
v 0.134581 -0.182223 0.085830
v 0.135745 -0.181080 0.064361
v 0.139557 -0.178416 0.017242
v 0.141840 -0.176598 -0.009201
v 0.137995 -0.179794 0.036343
v 0.070080 -0.112334 0.106111
v 0.081422 -0.103410 0.264341
v 0.143145 -0.174749 0.304583
v 0.073357 -0.113220 -0.472461
v 0.084663 -0.121389 -0.472461
v 0.072938 -0.113357 -0.459453
v 0.147226 -0.162039 -0.087633
v 0.150732 -0.164624 -0.087293
v 0.115968 -0.144846 -0.090502
v 0.143382 -0.159202 -0.088100
v 0.154210 -0.167189 -0.086931
v 0.152182 -0.169045 -0.080799
v 0.139590 -0.156320 -0.088615
v 0.126540 -0.147825 -0.091832
v 0.122213 -0.145575 -0.094013
v 0.131068 -0.149873 -0.089874
v 0.120406 -0.147382 -0.426347
v 0.095808 -0.129469 -0.472461
v 0.120406 -0.147382 -0.103551
v 0.120866 -0.146923 -0.098614
v 0.114631 -0.144474 -0.094849
v 0.120406 -0.147382 -0.118922
v 0.120406 -0.147382 -0.472461
v 0.120406 -0.147382 -0.457089
v 0.108115 -0.138419 -0.472461
v 0.074031 -0.112742 -0.186296
v 0.102241 -0.136915 -0.128183
v 0.074407 -0.112434 -0.173289
v 0.074026 -0.112674 -0.199304
v 0.070705 -0.114927 -0.394416
v 0.120406 -0.147382 -0.395604
v 0.069975 -0.115219 -0.381408
v 0.070965 -0.114597 -0.407423
v 0.072176 -0.114058 -0.290356
v 0.104170 -0.140678 -0.280927
v 0.072611 -0.113563 -0.277349
v 0.071448 -0.114294 -0.303364
v 0.072607 -0.113753 -0.446446
v 0.071897 -0.114011 -0.433438
v 0.071824 -0.114308 -0.342386
v 0.071549 -0.114230 -0.329378
v 0.070459 -0.114915 -0.355393
v 0.074597 -0.112099 -0.081618
v 0.071666 -0.111197 -0.054992
v 0.075841 -0.111444 -0.096492
v 0.071549 -0.114460 -0.420431
v 0.073094 -0.113407 -0.264341
v 0.073188 -0.113200 -0.251334
v 0.074658 -0.112297 -0.160281
v 0.075029 -0.112043 -0.147274
v 0.076288 -0.111253 -0.121259
v 0.075699 -0.111559 -0.134267
v 0.076493 -0.110995 -0.108252
v 0.071655 -0.114402 -0.316371
v 0.074039 -0.112736 -0.212311
v 0.073853 -0.112782 -0.225319
v 0.146838 -0.173676 -0.061410
v 0.148177 -0.172559 -0.068129
v 0.145993 -0.174260 -0.051043
v 0.150293 -0.170720 -0.074799
v 0.120406 -0.147382 -0.134293
v 0.120406 -0.147382 -0.149664
v 0.120406 -0.147382 -0.180407
v 0.073560 -0.113076 -0.238326
v 0.120406 -0.147382 -0.195778
v 0.120406 -0.147382 -0.165036
v 0.120406 -0.147382 -0.211149
v 0.120406 -0.147382 -0.241892
v 0.120406 -0.147382 -0.257263
v 0.120406 -0.147382 -0.226521
v 0.120406 -0.147382 -0.272634
v 0.120406 -0.147382 -0.288006
v 0.120406 -0.147382 -0.334119
v 0.120406 -0.147382 -0.349490
v 0.120406 -0.147382 -0.318748
v 0.120406 -0.147382 -0.364862
v 0.120406 -0.147382 -0.380233
v 0.120406 -0.147382 -0.441718
v 0.143474 -0.175177 -0.027808
v 0.112639 -0.150792 -0.012497
v 0.144813 -0.174708 -0.039760
v 0.072258 -0.113032 -0.026441
v 0.135363 -0.153080 -0.089188
v 0.070540 -0.115018 -0.368401
v 0.120406 -0.147382 -0.303377
v 0.120406 -0.147382 -0.410975
v 0.103579 -0.135118 -0.472461
v 0.080745 -0.106115 0.238326
v 0.078234 -0.108406 0.212311
v 0.077606 -0.109673 0.198709
v 0.135572 -0.181790 0.235200
v 0.138067 -0.180344 0.255805
v 0.140684 -0.178019 0.277453
v 0.142208 -0.176033 0.293231
v 0.070325 -0.112210 -0.001446
v 0.071441 -0.113546 0.025311
v 0.069987 -0.112533 0.052171
v 0.073487 -0.109742 0.159331
v 0.104419 -0.148575 0.187446
v 0.075853 -0.109751 0.182551
v 0.072877 -0.112643 0.129637
v 0.133026 -0.183346 0.192129
v 0.132339 -0.183590 0.161690
v 0.133716 -0.182706 0.211243
v 0.132643 -0.183561 0.137530
v 0.133230 -0.182871 0.112414
v 0.071163 -0.113722 0.078686
v 0.134581 -0.182223 0.085830
v 0.135745 -0.181080 0.064361
v 0.139557 -0.178416 0.017242
v 0.141840 -0.176598 -0.009201
v 0.137995 -0.179794 0.036343
v 0.070080 -0.112334 0.106111
vn -0.5854 -0.8103 -0.0274
vn 0.0769 -0.0269 -0.9967
vn 0.0757 -0.0284 -0.9967
vn 0.0758 -0.0285 -0.9967
vn 0.0050 -0.1558 -0.9878
vn 0.0046 -0.1563 -0.9877
vn -0.5167 -0.7570 -0.4000
vn -0.4102 -0.7939 -0.4489
vn -0.0192 -0.2003 -0.9795
vn -0.0185 -0.1997 -0.9797
vn -0.0219 -0.2021 -0.9791
vn -0.2944 -0.8939 -0.3381
vn -0.2928 -0.9145 -0.2793
vn -0.5759 -0.8174 -0.0144
vn -0.5870 -0.8096 -0.0014
vn -0.5879 -0.8089 -0.0015
vn -0.5875 -0.8093 -0.0009
vn -0.3016 -0.9463 0.1161
vn -0.4497 -0.8932 0.0000
vn -0.5892 -0.8080 0.0000
vn -0.5891 -0.8081 -0.0004
vn -0.6932 -0.7198 0.0371
vn -0.6462 -0.7631 -0.0037
vn -0.5469 -0.8357 -0.0495
vn -0.5470 -0.8365 -0.0322
vn -0.5469 -0.8366 -0.0328
vn -0.5469 -0.8366 -0.0327
vn -0.6475 -0.7604 0.0503
vn -0.6475 -0.7603 0.0506
vn -0.6475 -0.7605 0.0500
vn -0.5638 -0.8246 -0.0463
vn -0.5627 -0.8257 -0.0403
vn -0.5618 -0.8261 -0.0437
vn -0.5638 -0.8250 -0.0395
vn -0.6221 -0.7829 -0.0085
vn -0.6234 -0.7818 -0.0077
vn -0.6212 -0.7837 -0.0058
vn -0.7441 -0.6591 0.1088
vn -0.7170 -0.6948 -0.0554
vn -0.7461 -0.6595 -0.0914
vn -0.5619 -0.8261 -0.0435
vn -0.6544 -0.7559 0.0168
vn -0.6498 -0.7597 0.0254
vn -0.6483 -0.7611 0.0181
vn -0.6492 -0.7599 0.0332
vn -0.6871 -0.7258 0.0338
vn -0.6791 -0.7337 0.0208
vn -0.6957 -0.7167 0.0484
vn -0.6995 -0.7142 0.0252
vn -0.7330 -0.6770 -0.0665
vn -0.6248 -0.7808 -0.0038
vn -0.6262 -0.7796 -0.0035
vn -0.6559 -0.7548 0.0029
vn -0.6716 -0.7408 0.0122
vn -0.5314 -0.8121 -0.2409
vn -0.6303 -0.7705 -0.0948
vn -0.4472 -0.8158 -0.3668
vn -0.4468 -0.8157 -0.3675
vn -0.4467 -0.8154 -0.3681
vn -0.4463 -0.8156 -0.3682
vn -0.1708 -0.9310 0.3227
vn -0.1391 -0.9894 -0.0419
vn -0.4993 -0.8664 0.0000
vn -0.4940 -0.8693 -0.0135
vn -0.5908 -0.8068 0.0000
vn -0.3817 -0.9243 -0.0000
vn -0.6473 -0.7557 -0.1000
vn -0.0631 -0.9969 -0.0461
vn -0.0615 -0.9970 -0.0459
vn -0.6508 -0.7562 -0.0685
vn -0.6570 -0.7451 -0.1149
vn -0.0163 -0.1947 -0.9807
vn -0.6106 -0.7919 0.0025
vn -0.4993 -0.8665 0.0000
vn -0.0513 -0.2742 -0.9603
vn -0.5596 -0.8283 0.0295
vn -0.5588 -0.8293 -0.0000
vn -0.5468 -0.8366 -0.0334
vn -0.8844 -0.4017 0.2376
vn -0.6022 -0.7941 0.0819
vn -0.5530 -0.8324 -0.0362
vn -0.5881 -0.8088 -0.0005
vn -0.5301 -0.8472 0.0361
vn -0.6876 -0.7254 -0.0324
vn -0.6969 -0.7145 0.0625
vn -0.7085 -0.7050 0.0319
vn -0.5557 -0.8309 -0.0301
vn -0.8514 -0.5089 0.1270
vn -0.7663 -0.6355 0.0946
vn -0.7822 -0.6077 0.1374
vn -0.7882 -0.6032 0.1224
vn -0.8004 -0.5903 0.1048
vn -0.8031 -0.5850 0.1129
vn -0.7996 -0.5896 0.1140
vn -0.7610 -0.6303 0.1537
vn -0.7641 -0.6268 0.1527
vn -0.7625 -0.6279 0.1561
vn -0.7791 -0.6207 0.0873
vn -0.7815 -0.6181 0.0845
vn -0.7833 -0.6153 0.0881
vn -0.7806 -0.6193 0.0847
vn -0.7782 -0.6236 0.0739
vn -0.6750 -0.7378 -0.0087
vn -0.6775 -0.7350 -0.0282
vn -0.8077 -0.5839 0.0821
vn -0.8076 -0.5828 0.0900
vn -0.8067 -0.5841 0.0899
vn -0.8055 -0.5880 0.0740
vn -0.7608 -0.6290 0.1595
vn -0.7735 -0.6334 0.0225
vn -0.7745 -0.6306 0.0491
vn -0.7856 -0.6186 -0.0106
vn -0.7350 -0.6772 -0.0358
vn -0.7300 -0.6814 -0.0537
vn -0.7277 -0.6816 -0.0757
vn -0.7273 -0.6821 -0.0765
vn -0.7291 -0.6801 -0.0764
vn -0.6517 -0.7508 -0.1076
vn -0.6519 -0.7507 -0.1070
vn -0.6509 -0.7505 -0.1143
vn -0.6518 -0.7508 -0.1075
vn -0.6506 -0.7508 -0.1145
vn -0.7082 -0.7042 -0.0505
vn -0.7284 -0.6793 -0.0897
vn -0.7033 -0.7109 -0.0007
vn -0.8019 -0.5862 0.1155
vn -0.7606 -0.6488 0.0247
vn -0.7321 -0.6812 0.0056
vn -0.8154 -0.5719 0.0894
vn -0.7844 -0.6145 0.0843
vn -0.6494 -0.7600 0.0258
vn -0.7686 -0.6254 0.1342
vn -0.7716 -0.6297 0.0900
vn -0.8076 -0.5828 0.0904
vn 0.7815 0.6181 -0.0845
vn 0.7791 0.6207 -0.0873
vn 0.7833 0.6153 -0.0881
vn 0.7782 0.6236 -0.0739
vn 0.7716 0.6297 -0.0900
vn 0.5854 0.8103 0.0274
vn -0.0769 0.0269 0.9967
vn -0.0758 0.0285 0.9967
vn -0.0757 0.0284 0.9967
vn -0.0050 0.1558 0.9878
vn -0.0046 0.1563 0.9877
vn 0.5167 0.7570 0.4000
vn 0.4102 0.7939 0.4489
vn 0.0192 0.2003 0.9795
vn 0.0218 0.2021 0.9791
vn 0.0185 0.1997 0.9797
vn 0.2944 0.8939 0.3381
vn 0.2928 0.9145 0.2793
vn 0.5759 0.8174 0.0144
vn 0.5870 0.8096 0.0014
vn 0.5882 0.8087 0.0004
vn 0.5879 0.8089 0.0015
vn 0.3016 0.9463 -0.1161
vn 0.4497 0.8932 0.0000
vn 0.5892 0.8080 0.0000
vn 0.6932 0.7198 -0.0371
vn 0.6462 0.7631 0.0037
vn 0.5469 0.8357 0.0495
vn 0.5470 0.8365 0.0322
vn 0.5469 0.8366 0.0327
vn 0.5469 0.8366 0.0328
vn 0.6475 0.7604 -0.0503
vn 0.6475 0.7603 -0.0506
vn 0.6475 0.7605 -0.0500
vn 0.5638 0.8246 0.0463
vn 0.5618 0.8261 0.0437
vn 0.5627 0.8257 0.0403
vn 0.5638 0.8250 0.0395
vn 0.6221 0.7829 0.0085
vn 0.6212 0.7836 0.0058
vn 0.6234 0.7818 0.0077
vn 0.7441 0.6591 -0.1088
vn 0.7170 0.6948 0.0554
vn 0.7461 0.6595 0.0914
vn 0.5619 0.8261 0.0435
vn 0.6544 0.7559 -0.0168
vn 0.6484 0.7611 -0.0182
vn 0.6498 0.7596 -0.0254
vn 0.6492 0.7599 -0.0332
vn 0.6871 0.7258 -0.0338
vn 0.6791 0.7337 -0.0208
vn 0.6957 0.7167 -0.0484
vn 0.6995 0.7142 -0.0252
vn 0.7330 0.6770 0.0665
vn 0.6248 0.7808 0.0038
vn 0.6262 0.7796 0.0035
vn 0.6559 0.7548 -0.0029
vn 0.6716 0.7408 -0.0122
vn 0.5314 0.8121 0.2409
vn 0.6303 0.7705 0.0948
vn 0.4472 0.8158 0.3668
vn 0.4467 0.8154 0.3681
vn 0.4468 0.8157 0.3675
vn 0.4463 0.8156 0.3682
vn 0.1708 0.9310 -0.3227
vn 0.1391 0.9894 0.0419
vn 0.4993 0.8664 0.0000
vn 0.4940 0.8693 0.0135
vn 0.5908 0.8068 0.0000
vn 0.3817 0.9243 0.0000
vn 0.6473 0.7557 0.1000
vn 0.0631 0.9969 0.0461
vn 0.0615 0.9970 0.0459
vn 0.6508 0.7562 0.0685
vn 0.6570 0.7451 0.1149
vn 0.0163 0.1947 0.9807
vn 0.6106 0.7919 -0.0025
vn 0.4993 0.8665 0.0000
vn 0.0513 0.2742 0.9603
vn 0.5596 0.8283 -0.0295
vn 0.5588 0.8293 0.0000
vn 0.5468 0.8366 0.0334
vn 0.8844 0.4017 -0.2376
vn 0.6022 0.7941 -0.0819
vn 0.5530 0.8324 0.0362
vn 0.5884 0.8086 0.0003
vn 0.5881 0.8088 0.0005
vn 0.5301 0.8472 -0.0361
vn 0.6876 0.7254 0.0324
vn 0.6969 0.7145 -0.0625
vn 0.7085 0.7050 -0.0319
vn 0.5557 0.8309 0.0301
vn 0.8514 0.5089 -0.1270
vn 0.7663 0.6355 -0.0946
vn 0.7822 0.6077 -0.1374
vn 0.7882 0.6032 -0.1224
vn 0.8004 0.5903 -0.1048
vn 0.7996 0.5896 -0.1140
vn 0.8031 0.5850 -0.1129
vn 0.7610 0.6303 -0.1537
vn 0.7625 0.6279 -0.1561
vn 0.7641 0.6268 -0.1527
vn 0.7806 0.6193 -0.0847
vn 0.6750 0.7378 0.0087
vn 0.6775 0.7350 0.0282
vn 0.8045 0.5885 -0.0809
vn 0.8077 0.5839 -0.0821
vn 0.8055 0.5880 -0.0743
vn 0.8055 0.5880 -0.0740
vn 0.7608 0.6290 -0.1595
vn 0.7735 0.6334 -0.0225
vn 0.7745 0.6306 -0.0491
vn 0.7856 0.6186 0.0106
vn 0.7350 0.6772 0.0358
vn 0.7300 0.6814 0.0537
vn 0.7277 0.6816 0.0757
vn 0.7291 0.6801 0.0765
vn 0.7273 0.6820 0.0765
vn 0.6517 0.7508 0.1076
vn 0.6509 0.7505 0.1143
vn 0.6519 0.7507 0.1070
vn 0.6518 0.7508 0.1075
vn 0.6506 0.7508 0.1145
vn 0.7082 0.7042 0.0505
vn 0.7284 0.6793 0.0897
vn 0.7033 0.7109 0.0007
vn 0.8019 0.5862 -0.1155
vn 0.7606 0.6488 -0.0247
vn 0.7321 0.6812 -0.0056
vn 0.8154 0.5719 -0.0894
vn 0.7844 0.6145 -0.0843
vn 0.6494 0.7600 -0.0258
vn 0.7686 0.6254 -0.1342
vn 0.8076 0.5828 -0.0904
usemtl None.133
s 1
f 1//1 3//1 2//1
f 4//2 6//3 5//4
f 4//5 5//5 7//6
f 6//7 9//7 8//7
f 6//8 8//8 5//8
f 7//9 5//10 10//11
f 11//12 5//12 12//12
f 11//13 13//13 5//13
f 3//14 14//14 2//14
f 3//15 15//16 14//17
f 16//18 18//18 17//18
f 16//19 17//19 19//19
f 20//20 22//20 21//21
f 23//22 25//22 24//22
f 23//23 26//23 25//23
f 27//24 29//24 28//24
f 27//25 30//26 29//27
f 31//28 33//28 32//29
f 31//28 34//30 33//28
f 35//31 14//32 36//33
f 35//31 2//34 14//32
f 37//35 33//36 38//37
f 37//38 39//38 33//38
f 40//39 25//39 41//39
f 40//40 42//40 25//40
f 43//41 36//33 14//32
f 44//42 33//43 45//44
f 44//45 32//45 33//45
f 46//46 25//46 47//46
f 46//47 24//47 25//47
f 48//48 49//48 25//48
f 48//49 25//49 50//49
f 42//50 50//50 25//50
f 51//51 38//37 33//36
f 51//51 33//36 34//52
f 52//53 25//53 26//53
f 52//54 53//54 25//54
f 54//55 5//55 55//55
f 54//56 56//56 5//56
f 55//57 5//58 57//59
f 8//60 57//59 5//58
f 18//61 12//61 17//61
f 12//62 5//62 17//62
f 19//63 25//63 58//63
f 19//64 17//64 25//64
f 58//63 25//63 59//63
f 60//65 62//65 61//65
f 60//65 63//65 62//65
f 61//65 62//65 64//65
f 65//66 33//66 66//66
f 65//66 67//66 33//66
f 66//66 33//66 68//66
f 68//66 33//66 69//66
f 70//66 33//66 71//66
f 70//66 72//66 33//66
f 71//66 33//66 73//66
f 73//66 33//66 74//66
f 74//66 33//66 29//66
f 22//20 75//20 21//21
f 56//67 77//67 76//67
f 56//68 78//69 77//68
f 56//70 79//70 5//70
f 56//71 76//71 79//71
f 10//11 5//10 80//72
f 81//73 33//73 39//73
f 59//63 25//63 63//74
f 5//75 13//75 80//75
f 79//76 25//76 5//76
f 69//66 33//66 82//66
f 82//66 33//66 72//66
f 43//77 14//77 83//77
f 43//78 29//27 30//26
f 43//77 83//77 29//77
f 5//79 25//79 17//79
f 67//65 64//65 62//65
f 75//20 14//17 21//21
f 33//80 67//80 62//80
f 63//81 25//81 62//81
f 21//21 14//17 84//82
f 14//17 15//16 84//82
f 29//83 81//83 28//83
f 25//84 79//84 41//84
f 49//85 47//85 25//85
f 53//86 62//86 25//86
f 29//87 33//87 81//87
f 85//88 87//88 86//88
f 85//89 86//89 88//89
f 85//90 90//90 89//90
f 85//91 89//91 91//91
f 85//92 88//93 90//94
f 92//95 93//96 91//97
f 94//98 85//99 95//100
f 94//98 87//101 85//99
f 96//102 98//102 97//102
f 99//103 76//103 100//103
f 99//104 79//104 76//104
f 100//103 76//103 101//103
f 102//105 104//106 103//107
f 102//108 105//108 104//108
f 92//95 91//97 89//109
f 106//110 104//110 107//110
f 106//111 108//111 104//111
f 107//112 104//112 109//112
f 110//113 109//113 111//113
f 110//114 111//114 112//114
f 112//115 111//116 113//117
f 114//118 76//119 115//120
f 114//118 116//121 76//119
f 77//122 115//120 76//119
f 76//123 116//123 101//123
f 116//124 113//117 111//116
f 116//125 111//125 101//125
f 88//93 104//126 90//94
f 104//127 111//127 109//127
f 104//128 117//128 111//128
f 104//129 105//129 117//129
f 108//130 90//130 104//130
f 33//43 62//131 45//44
f 91//132 93//132 96//132
f 91//133 96//133 97//133
f 88//134 103//107 104//106
f 85//135 118//136 95//137
f 97//138 98//138 119//138
f 97//139 119//139 91//139
f 120//140 122//140 121//140
f 123//141 125//142 124//143
f 123//144 126//145 125//144
f 124//146 128//146 127//146
f 124//147 125//147 128//147
f 126//148 129//149 125//150
f 130//151 131//151 125//151
f 130//152 125//152 132//152
f 121//153 122//153 133//153
f 121//154 133//155 134//156
f 135//157 137//157 136//157
f 135//158 138//158 137//158
f 139//159 141//159 140//159
f 142//160 144//160 143//160
f 142//161 143//161 145//161
f 146//162 148//162 147//162
f 146//163 147//164 149//165
f 150//166 152//167 151//166
f 150//166 151//166 153//168
f 154//169 155//170 133//171
f 154//169 133//171 122//172
f 156//173 157//174 151//175
f 156//176 151//176 158//176
f 159//177 160//177 143//177
f 159//178 143//178 161//178
f 162//179 133//171 155//170
f 163//180 164//181 151//182
f 163//183 151//183 152//183
f 165//184 166//184 143//184
f 165//185 143//185 144//185
f 167//186 143//186 168//186
f 167//187 169//187 143//187
f 161//188 143//188 169//188
f 170//189 151//175 157//174
f 170//189 153//190 151//175
f 171//191 145//191 143//191
f 171//192 143//192 172//192
f 173//193 174//193 125//193
f 173//194 125//194 175//194
f 174//195 176//196 125//197
f 128//198 125//197 176//196
f 136//199 137//199 131//199
f 131//200 137//200 125//200
f 138//201 177//201 143//201
f 138//202 143//202 137//202
f 177//201 178//201 143//201
f 179//203 181//203 180//203
f 179//203 180//203 182//203
f 181//203 183//203 180//203
f 184//204 185//204 151//204
f 184//204 151//204 186//204
f 185//204 187//204 151//204
f 187//204 188//204 151//204
f 189//204 190//204 151//204
f 189//204 151//204 191//204
f 190//204 192//204 151//204
f 192//204 193//204 151//204
f 193//204 147//204 151//204
f 140//159 141//159 194//159
f 175//205 196//205 195//205
f 175//206 195//206 197//207
f 175//208 125//208 198//208
f 175//209 198//209 196//209
f 129//149 199//210 125//150
f 200//211 158//211 151//211
f 178//201 182//212 143//201
f 125//213 199//213 132//213
f 198//214 125//214 143//214
f 188//204 201//204 151//204
f 201//204 191//204 151//204
f 162//215 202//215 133//215
f 162//216 149//165 147//164
f 162//215 147//215 202//215
f 125//217 137//217 143//217
f 186//203 180//203 183//203
f 194//159 141//159 133//159
f 151//218 180//218 186//218
f 182//219 180//219 143//219
f 141//220 203//221 133//155
f 133//155 203//221 134//156
f 147//222 148//222 200//222
f 143//223 160//223 198//223
f 168//224 143//224 166//224
f 172//225 143//225 180//225
f 147//226 200//226 151//226
f 85//227 205//227 204//227
f 85//228 206//228 205//228
f 85//229 208//229 207//229
f 85//230 91//230 208//230
f 85//231 207//232 206//233
f 209//234 91//235 210//236
f 118//136 85//135 204//237
f 211//238 212//238 196//238
f 211//239 196//239 198//239
f 212//238 213//238 196//238
f 214//240 216//241 215//242
f 214//240 215//242 217//243
f 209//234 208//244 91//235
f 218//245 219//245 215//245
f 218//246 215//246 220//246
f 219//247 221//247 215//247
f 222//248 223//248 221//248
f 222//249 224//249 223//249
f 224//250 225//251 223//252
f 226//253 227//254 196//255
f 226//253 196//255 228//256
f 195//257 196//255 227//254
f 196//258 213//258 228//258
f 228//259 223//252 225//251
f 228//260 213//260 223//260
f 206//233 207//232 215//261
f 215//262 221//262 223//262
f 215//263 223//263 229//263
f 215//264 229//264 217//264
f 220//265 215//265 207//265
f 151//182 164//181 180//266
f 91//267 119//267 210//267
f 206//268 215//268 216//268
