# Blender v2.79 (sub 0) OBJ File: ''
# www.blender.org
mtllib crack_restart_keyway_795.mtl
o crack_restart_keyway_795
v 0.073314 -0.113251 -0.472461
v 0.072901 -0.113381 -0.459453
v 0.084621 -0.121415 -0.472461
v 0.147221 -0.162042 -0.087637
v 0.152190 -0.169037 -0.080794
v 0.150727 -0.164629 -0.087297
v 0.127525 -0.150638 -0.086826
v 0.143382 -0.159202 -0.088100
v 0.131068 -0.149873 -0.089874
v 0.135376 -0.153073 -0.089177
v 0.126540 -0.147825 -0.091832
v 0.154210 -0.167189 -0.086931
v 0.139599 -0.156315 -0.088608
v 0.122213 -0.145575 -0.094013
v 0.095502 -0.132021 -0.304023
v 0.095778 -0.129493 -0.472461
v 0.120406 -0.147382 -0.103551
v 0.103043 -0.137419 -0.112401
v 0.120866 -0.146923 -0.098614
v 0.120406 -0.147382 -0.118922
v 0.120406 -0.147382 -0.472461
v 0.108098 -0.138433 -0.472461
v 0.120406 -0.147382 -0.457089
v 0.085256 -0.104187 0.316371
v 0.085750 -0.099959 0.368401
v 0.142428 -0.175380 0.305016
v 0.074018 -0.112751 -0.186296
v 0.074350 -0.112470 -0.173289
v 0.085711 -0.120805 -0.163257
v 0.074005 -0.112687 -0.199304
v 0.073589 -0.113056 -0.238326
v 0.073857 -0.112780 -0.225319
v 0.073195 -0.113196 -0.251334
v 0.070657 -0.114953 -0.394416
v 0.069780 -0.115342 -0.381408
v 0.070969 -0.114594 -0.407423
v 0.072108 -0.114107 -0.290356
v 0.072548 -0.113602 -0.277349
v 0.071532 -0.114241 -0.303364
v 0.072566 -0.113782 -0.446446
v 0.071902 -0.114008 -0.433438
v 0.071824 -0.114308 -0.342386
v 0.070296 -0.115017 -0.355393
v 0.071550 -0.114229 -0.329378
v 0.074632 -0.112071 -0.081618
v 0.071851 -0.111050 -0.054992
v 0.121149 -0.154957 -0.040269
v 0.071586 -0.114439 -0.420431
v 0.070357 -0.115119 -0.368401
v 0.073089 -0.113410 -0.264341
v 0.074480 -0.112424 -0.160281
v 0.074669 -0.112269 -0.147274
v 0.076144 -0.111343 -0.121259
v 0.075509 -0.111694 -0.134267
v 0.075883 -0.111428 -0.108252
v 0.071658 -0.114400 -0.316371
v 0.139598 -0.179327 0.257663
v 0.079790 -0.106470 0.243204
v 0.137609 -0.180154 0.195523
v 0.146896 -0.173625 -0.061403
v 0.148183 -0.172554 -0.068125
v 0.146399 -0.174001 -0.053200
v 0.150320 -0.170697 -0.074784
v 0.145339 -0.174299 -0.040143
v 0.120406 -0.147382 -0.134293
v 0.120406 -0.147382 -0.149664
v 0.120406 -0.147382 -0.165036
v 0.120406 -0.147382 -0.180407
v 0.120406 -0.147382 -0.195778
v 0.120406 -0.147382 -0.241892
v 0.120406 -0.147382 -0.257263
v 0.120406 -0.147382 -0.272634
v 0.120406 -0.147382 -0.288006
v 0.120406 -0.147382 -0.303377
v 0.120406 -0.147382 -0.318748
v 0.120406 -0.147382 -0.334119
v 0.120406 -0.147382 -0.349490
v 0.120406 -0.147382 -0.364862
v 0.120406 -0.147382 -0.380233
v 0.120406 -0.147382 -0.395604
v 0.120406 -0.147382 -0.410975
v 0.120406 -0.147382 -0.426347
v 0.120406 -0.147382 -0.441718
v 0.144278 -0.174525 -0.027894
v 0.075412 -0.111698 -0.096784
v 0.120406 -0.147382 -0.226521
v 0.120406 -0.147382 -0.211149
v 0.074021 -0.112749 -0.212311
v 0.103588 -0.135159 -0.472461
v 0.075184 -0.112063 -0.141207
v 0.149863 -0.169762 0.406456
v 0.087573 -0.101386 0.403024
v 0.150513 -0.169427 0.432909
v 0.132916 -0.149365 0.472461
v 0.149819 -0.168834 0.450962
v 0.105861 -0.120753 0.450366
v 0.116810 -0.132072 0.465802
v 0.087359 -0.102201 0.430100
v 0.087573 -0.101386 0.403024
v 0.149863 -0.169762 0.406456
v 0.149844 -0.168956 0.457683
v 0.120719 -0.136149 0.472461
v 0.150374 -0.168862 0.472461
v 0.150096 -0.168914 0.464827
v 0.071652 -0.113413 0.024870
v 0.140149 -0.178086 0.038398
v 0.070466 -0.112142 -0.001446
v 0.070181 -0.112378 0.052171
v 0.072474 -0.112897 -0.025990
v 0.071846 -0.113293 0.080126
v 0.085271 -0.126118 0.104819
v 0.071531 -0.111877 0.109556
v 0.073671 -0.109595 0.159331
v 0.077802 -0.109550 0.199114
v 0.078219 -0.108414 0.212311
v 0.148501 -0.170792 0.382220
v 0.149416 -0.170072 0.394434
v 0.146770 -0.172261 0.358696
v 0.144095 -0.174249 0.325175
v 0.137029 -0.180411 0.141206
v 0.137169 -0.179984 0.110201
v 0.137869 -0.179751 0.088705
v 0.138733 -0.178783 0.062783
v 0.141457 -0.176890 0.016263
v 0.142995 -0.175669 -0.008001
v 0.132916 -0.149365 0.472461
v 0.073314 -0.113251 -0.472461
v 0.084621 -0.121415 -0.472461
v 0.072901 -0.113381 -0.459453
v 0.147221 -0.162042 -0.087637
v 0.150727 -0.164629 -0.087297
v 0.152190 -0.169037 -0.080794
v 0.127525 -0.150638 -0.086826
v 0.143382 -0.159202 -0.088100
v 0.131068 -0.149873 -0.089874
v 0.135376 -0.153073 -0.089177
v 0.126540 -0.147825 -0.091832
v 0.154210 -0.167189 -0.086931
v 0.139599 -0.156315 -0.088608
v 0.122213 -0.145575 -0.094013
v 0.095502 -0.132021 -0.304023
v 0.095778 -0.129493 -0.472461
v 0.120406 -0.147382 -0.103551
v 0.120866 -0.146923 -0.098614
v 0.103043 -0.137419 -0.112401
v 0.120406 -0.147382 -0.118922
v 0.120406 -0.147382 -0.472461
v 0.120406 -0.147382 -0.457089
v 0.108098 -0.138433 -0.472461
v 0.085256 -0.104187 0.316371
v 0.142428 -0.175380 0.305016
v 0.085750 -0.099959 0.368401
v 0.074018 -0.112751 -0.186296
v 0.085711 -0.120805 -0.163257
v 0.074350 -0.112470 -0.173289
v 0.074005 -0.112687 -0.199304
v 0.073589 -0.113056 -0.238326
v 0.073857 -0.112780 -0.225319
v 0.073195 -0.113196 -0.251334
v 0.070657 -0.114953 -0.394416
v 0.069780 -0.115342 -0.381408
v 0.070969 -0.114594 -0.407423
v 0.072108 -0.114107 -0.290356
v 0.072548 -0.113602 -0.277349
v 0.071532 -0.114241 -0.303364
v 0.072566 -0.113782 -0.446446
v 0.071902 -0.114008 -0.433438
v 0.071824 -0.114308 -0.342386
v 0.070296 -0.115017 -0.355393
v 0.071550 -0.114229 -0.329378
v 0.074632 -0.112071 -0.081618
v 0.121149 -0.154957 -0.040269
v 0.071851 -0.111050 -0.054992
v 0.071586 -0.114439 -0.420431
v 0.070357 -0.115119 -0.368401
v 0.073089 -0.113410 -0.264341
v 0.074480 -0.112424 -0.160281
v 0.074669 -0.112269 -0.147274
v 0.076144 -0.111343 -0.121259
v 0.075509 -0.111694 -0.134267
v 0.075883 -0.111428 -0.108252
v 0.071658 -0.114400 -0.316371
v 0.139598 -0.179327 0.257663
v 0.079790 -0.106470 0.243204
v 0.137609 -0.180154 0.195523
v 0.146896 -0.173625 -0.061403
v 0.148183 -0.172554 -0.068125
v 0.146399 -0.174001 -0.053200
v 0.150320 -0.170697 -0.074784
v 0.145339 -0.174299 -0.040143
v 0.120406 -0.147382 -0.134293
v 0.120406 -0.147382 -0.149664
v 0.120406 -0.147382 -0.165036
v 0.120406 -0.147382 -0.180407
v 0.120406 -0.147382 -0.195778
v 0.120406 -0.147382 -0.241892
v 0.120406 -0.147382 -0.257263
v 0.120406 -0.147382 -0.272634
v 0.120406 -0.147382 -0.288006
v 0.120406 -0.147382 -0.303377
v 0.120406 -0.147382 -0.318748
v 0.120406 -0.147382 -0.334119
v 0.120406 -0.147382 -0.349490
v 0.120406 -0.147382 -0.364862
v 0.120406 -0.147382 -0.380233
v 0.120406 -0.147382 -0.395604
v 0.120406 -0.147382 -0.410975
v 0.120406 -0.147382 -0.426347
v 0.120406 -0.147382 -0.441718
v 0.144278 -0.174525 -0.027894
v 0.075412 -0.111698 -0.096784
v 0.120406 -0.147382 -0.226521
v 0.120406 -0.147382 -0.211149
v 0.074021 -0.112749 -0.212311
v 0.103588 -0.135159 -0.472461
v 0.075184 -0.112063 -0.141207
v 0.150513 -0.169427 0.432909
v 0.149819 -0.168834 0.450962
v 0.149844 -0.168956 0.457683
v 0.150096 -0.168914 0.464827
v 0.150374 -0.168862 0.472461
v 0.071652 -0.113413 0.024870
v 0.070466 -0.112142 -0.001446
v 0.140149 -0.178086 0.038398
v 0.070181 -0.112378 0.052171
v 0.072474 -0.112897 -0.025990
v 0.071846 -0.113293 0.080126
v 0.085271 -0.126118 0.104819
v 0.071531 -0.111877 0.109556
v 0.073671 -0.109595 0.159331
v 0.077802 -0.109550 0.199114
v 0.078219 -0.108414 0.212311
v 0.148501 -0.170792 0.382220
v 0.149416 -0.170072 0.394434
v 0.146770 -0.172261 0.358696
v 0.144095 -0.174249 0.325175
v 0.137029 -0.180411 0.141206
v 0.137169 -0.179984 0.110201
v 0.137869 -0.179751 0.088705
v 0.138733 -0.178783 0.062783
v 0.141457 -0.176890 0.016263
v 0.142995 -0.175669 -0.008001
vn -0.5852 -0.8105 -0.0267
vn -0.5200 -0.7568 -0.3960
vn -0.5172 -0.7592 -0.3951
vn -0.5197 -0.7567 -0.3967
vn -0.4618 -0.7658 -0.4475
vn -0.4023 -0.6491 -0.6456
vn -0.4024 -0.6490 -0.6456
vn -0.4027 -0.6496 -0.6449
vn -0.3959 -0.6698 -0.6283
vn -0.1992 -0.8705 -0.4500
vn -0.5157 -0.7586 -0.3982
vn -0.3968 -0.6364 -0.6614
vn -0.3963 -0.6359 -0.6622
vn -0.3995 -0.6370 -0.6592
vn -0.2280 -0.8673 -0.4425
vn -0.5783 -0.8156 -0.0176
vn -0.5879 -0.8088 -0.0135
vn -0.5761 -0.8173 -0.0142
vn -0.5868 -0.8096 -0.0131
vn -0.5418 -0.8308 0.1277
vn -0.4977 -0.8674 0.0000
vn -0.5881 -0.8088 0.0000
vn -0.7738 -0.6307 0.0586
vn -0.6098 -0.7919 0.0327
vn -0.5626 -0.8268 -0.0035
vn -0.6004 -0.7993 0.0274
vn -0.6028 -0.7973 0.0293
vn -0.6024 -0.7977 0.0293
vn -0.6068 -0.7944 0.0269
vn -0.4205 -0.9056 -0.0554
vn -0.4745 -0.8795 -0.0357
vn -0.4856 -0.8735 -0.0353
vn -0.4814 -0.8759 -0.0330
vn -0.5881 -0.8071 0.0512
vn -0.5948 -0.8031 0.0346
vn -0.4609 -0.8866 -0.0390
vn -0.4624 -0.8858 -0.0391
vn -0.4657 -0.8840 -0.0403
vn -0.4614 -0.8863 -0.0392
vn -0.7132 -0.6904 0.1214
vn -0.5911 -0.8065 -0.0076
vn -0.5916 -0.8062 -0.0071
vn -0.5908 -0.8068 -0.0060
vn -0.6579 -0.7520 -0.0399
vn -0.6598 -0.7508 -0.0313
vn -0.6581 -0.7522 -0.0341
vn -0.4562 -0.8890 -0.0405
vn -0.4818 -0.8757 -0.0333
vn -0.5646 -0.8254 0.0038
vn -0.6279 -0.7772 0.0412
vn -0.6197 -0.7846 0.0180
vn -0.5991 -0.7998 0.0367
vn -0.5948 -0.8038 0.0094
vn -0.5956 -0.8031 0.0178
vn -0.5949 -0.8036 0.0182
vn -0.5965 -0.8025 0.0088
vn -0.5819 -0.8117 0.0503
vn -0.7446 -0.6672 -0.0193
vn -0.5919 -0.8060 0.0030
vn -0.7682 -0.6326 0.0986
vn -0.7781 -0.6233 0.0776
vn -0.7757 -0.6302 0.0332
vn -0.5982 -0.7657 -0.2365
vn -0.7200 -0.6899 -0.0752
vn -0.7210 -0.6889 -0.0750
vn -0.7204 -0.6895 -0.0747
vn -0.4918 -0.7850 -0.3767
vn -0.4935 -0.7853 -0.3739
vn -0.4931 -0.7867 -0.3714
vn -0.7208 -0.6892 -0.0742
vn -0.4952 -0.7855 -0.3711
vn -0.6474 -0.6591 0.3826
vn -0.6081 -0.7939 0.0000
vn -0.5250 -0.8511 0.0000
vn -0.6228 -0.7794 -0.0683
vn -0.6164 -0.7719 -0.1560
vn -0.3954 -0.6319 -0.6666
vn -0.5879 -0.8081 0.0359
vn -0.8407 -0.5385 -0.0565
vn -0.6792 -0.7339 -0.0124
vn -0.6765 -0.7365 -0.0045
vn -0.6720 -0.7405 -0.0120
vn -0.2418 -0.9550 -0.1715
vn -0.5658 -0.8103 -0.1527
vn -0.5957 -0.8032 0.0040
vn -0.6812 -0.7321 -0.0070
vn -0.5966 -0.8026 0.0000
vn -0.5938 -0.8046 0.0038
vn -0.6016 -0.7988 0.0027
vn -0.5765 -0.8171 0.0032
vn -0.5694 -0.8220 -0.0113
vn -0.5983 -0.8013 0.0000
vn -0.6025 -0.7981 0.0101
vn -0.5955 -0.8034 0.0058
vn -0.5984 -0.8011 0.0095
vn -0.6010 -0.7992 0.0120
vn -0.5874 -0.8092 -0.0131
vn -0.5873 -0.8093 -0.0131
vn -0.5918 -0.8038 -0.0609
vn -0.8148 -0.5779 -0.0471
vn -0.5485 -0.8329 0.0737
vn -0.5403 -0.8382 0.0743
vn -0.5458 -0.8350 0.0700
vn -0.5465 -0.8345 0.0700
vn -0.7577 -0.6462 0.0913
vn -0.7395 -0.6731 0.0112
vn -0.7594 -0.6506 -0.0078
vn -0.7592 -0.6508 -0.0087
vn -0.7599 -0.6500 -0.0088
vn -0.7250 -0.6882 0.0265
vn -0.7347 -0.6780 0.0214
vn -0.7356 -0.6771 0.0210
vn -0.7338 -0.6790 0.0226
vn -0.7272 -0.6855 0.0364
vn -0.7355 -0.6772 0.0204
vn -0.7383 -0.6739 -0.0261
vn 0.7383 0.6739 0.0261
vn 0.7272 0.6855 -0.0364
vn -0.7600 -0.6499 -0.0090
vn -0.7348 -0.6781 0.0162
vn -0.7448 -0.6666 0.0310
vn -0.7449 -0.6664 0.0313
vn -0.7446 -0.6667 0.0317
vn -0.7449 -0.6665 0.0302
vn -0.6860 -0.7275 -0.0091
vn -0.6861 -0.7275 -0.0042
vn -0.6859 -0.7277 -0.0044
vn -0.6855 -0.7280 -0.0093
vn -0.6584 -0.7519 -0.0334
vn -0.6587 -0.7518 -0.0308
vn -0.7063 -0.7075 0.0244
vn -0.7088 -0.7051 0.0191
vn -0.7138 -0.7001 0.0179
vn -0.7151 -0.6986 0.0260
vn -0.7077 -0.7037 0.0627
vn -0.7586 -0.6467 0.0796
vn -0.7586 -0.6466 0.0794
vn -0.7587 -0.6466 0.0794
vn -0.7586 -0.6467 0.0795
vn 0.1267 -0.9907 0.0489
vn -0.5091 -0.8559 0.0909
vn -0.7383 -0.6672 0.0985
vn -0.7438 -0.6683 0.0111
vn -0.7194 -0.6944 -0.0128
vn -0.7182 -0.6951 -0.0309
vn -0.7205 -0.6916 -0.0498
vn -0.7240 -0.6871 -0.0610
vn -0.7260 -0.6857 -0.0515
vn -0.6218 -0.7792 -0.0786
vn -0.6220 -0.7790 -0.0788
vn -0.6236 -0.7772 -0.0837
vn -0.6219 -0.7791 -0.0788
vn -0.6167 -0.7826 -0.0848
vn -0.6691 -0.7410 -0.0563
vn -0.7246 -0.6864 -0.0617
vn -0.6840 -0.7295 0.0057
vn 0.6339 -0.7734 -0.0036
vn -0.7587 -0.6466 0.0793
vn -0.7385 -0.6727 0.0467
vn 0.7348 0.6781 -0.0162
vn 0.7336 0.6793 -0.0201
vn 0.7366 0.6761 -0.0199
vn 0.7338 0.6790 -0.0226
vn 0.7347 0.6780 -0.0214
vn 0.5852 0.8105 0.0267
vn 0.5200 0.7568 0.3960
vn 0.4618 0.7658 0.4475
vn 0.4023 0.6491 0.6456
vn 0.4027 0.6496 0.6449
vn 0.4024 0.6490 0.6456
vn 0.3959 0.6698 0.6283
vn 0.1992 0.8705 0.4500
vn 0.5157 0.7586 0.3982
vn 0.3968 0.6364 0.6614
vn 0.3995 0.6370 0.6592
vn 0.3963 0.6359 0.6622
vn 0.2280 0.8673 0.4425
vn 0.5782 0.8157 0.0177
vn 0.5761 0.8173 0.0142
vn 0.5879 0.8088 0.0135
vn 0.5868 0.8096 0.0131
vn 0.5418 0.8308 -0.1277
vn 0.4977 0.8674 0.0000
vn 0.5881 0.8088 0.0000
vn 0.7738 0.6307 -0.0586
vn 0.6098 0.7919 -0.0327
vn 0.5626 0.8268 0.0035
vn 0.6004 0.7993 -0.0274
vn 0.6024 0.7977 -0.0293
vn 0.6028 0.7973 -0.0293
vn 0.6068 0.7944 -0.0269
vn 0.4205 0.9056 0.0554
vn 0.4745 0.8795 0.0357
vn 0.4814 0.8759 0.0330
vn 0.4856 0.8735 0.0353
vn 0.5881 0.8071 -0.0512
vn 0.5948 0.8031 -0.0346
vn 0.4609 0.8866 0.0390
vn 0.4657 0.8840 0.0403
vn 0.4624 0.8858 0.0391
vn 0.4614 0.8863 0.0392
vn 0.7132 0.6904 -0.1214
vn 0.5911 0.8065 0.0076
vn 0.5908 0.8068 0.0060
vn 0.5916 0.8062 0.0070
vn 0.6579 0.7520 0.0399
vn 0.6581 0.7521 0.0341
vn 0.6598 0.7508 0.0314
vn 0.4562 0.8890 0.0405
vn 0.4818 0.8757 0.0333
vn 0.5646 0.8254 -0.0038
vn 0.6279 0.7772 -0.0412
vn 0.6197 0.7846 -0.0180
vn 0.5991 0.7998 -0.0367
vn 0.5948 0.8038 -0.0094
vn 0.5949 0.8036 -0.0182
vn 0.5956 0.8031 -0.0177
vn 0.5965 0.8025 -0.0088
vn 0.5819 0.8117 -0.0503
vn 0.7446 0.6672 0.0193
vn 0.5920 0.8060 -0.0030
vn 0.7682 0.6326 -0.0986
vn 0.7781 0.6233 -0.0776
vn 0.7757 0.6302 -0.0332
vn 0.5982 0.7657 0.2365
vn 0.7200 0.6899 0.0752
vn 0.7204 0.6895 0.0747
vn 0.7210 0.6889 0.0750
vn 0.4918 0.7850 0.3767
vn 0.4931 0.7867 0.3714
vn 0.4935 0.7853 0.3739
vn 0.7208 0.6892 0.0742
vn 0.4952 0.7855 0.3711
vn 0.6474 0.6591 -0.3826
vn 0.6081 0.7939 0.0000
vn 0.5250 0.8511 0.0000
vn 0.6228 0.7794 0.0683
vn 0.6164 0.7719 0.1560
vn 0.3954 0.6319 0.6666
vn 0.5879 0.8081 -0.0359
vn 0.8407 0.5385 0.0565
vn 0.6792 0.7339 0.0124
vn 0.6720 0.7405 0.0120
vn 0.6765 0.7364 0.0044
vn 0.2418 0.9550 0.1715
vn 0.5658 0.8103 0.1527
vn 0.5957 0.8032 -0.0040
vn 0.6812 0.7321 0.0070
vn 0.5966 0.8026 0.0000
vn 0.5765 0.8171 -0.0032
vn 0.5694 0.8220 0.0113
vn 0.5936 0.8047 -0.0024
vn 0.6008 0.7994 -0.0040
vn 0.6024 0.7981 -0.0100
vn 0.5984 0.8011 -0.0095
vn 0.6010 0.7992 -0.0120
vn 0.5874 0.8092 0.0131
vn 0.5873 0.8093 0.0131
vn 0.5918 0.8038 0.0609
vn 0.8148 0.5779 0.0471
vn 0.5485 0.8329 -0.0737
vn 0.5458 0.8350 -0.0700
vn 0.5403 0.8382 -0.0743
vn 0.5465 0.8345 -0.0700
vn 0.7577 0.6462 -0.0913
vn 0.7395 0.6731 -0.0112
vn 0.7594 0.6506 0.0078
vn 0.7599 0.6500 0.0088
vn 0.7592 0.6508 0.0087
vn 0.7250 0.6882 -0.0265
vn 0.7600 0.6499 0.0090
vn 0.7446 0.6667 -0.0317
vn 0.7449 0.6665 -0.0302
vn 0.6860 0.7275 0.0091
vn 0.6859 0.7277 0.0044
vn 0.6861 0.7275 0.0042
vn 0.6855 0.7280 0.0093
vn 0.6584 0.7519 0.0334
vn 0.6587 0.7518 0.0308
vn 0.7063 0.7074 -0.0244
vn 0.7138 0.7001 -0.0180
vn 0.7088 0.7051 -0.0191
vn 0.7151 0.6986 -0.0260
vn 0.7077 0.7037 -0.0627
vn 0.7586 0.6467 -0.0796
vn 0.7587 0.6466 -0.0794
vn 0.7586 0.6466 -0.0794
vn 0.7586 0.6467 -0.0795
vn -0.1267 0.9907 -0.0489
vn 0.5091 0.8559 -0.0909
vn 0.7383 0.6672 -0.0985
vn 0.7438 0.6683 -0.0111
vn 0.7194 0.6944 0.0128
vn 0.7182 0.6951 0.0309
vn 0.7205 0.6916 0.0498
vn 0.7260 0.6858 0.0516
vn 0.7240 0.6871 0.0610
vn 0.6218 0.7792 0.0786
vn 0.6236 0.7773 0.0837
vn 0.6220 0.7790 0.0788
vn 0.6219 0.7791 0.0788
vn 0.6167 0.7826 0.0848
vn 0.6691 0.7410 0.0563
vn 0.7246 0.6864 0.0617
vn 0.6840 0.7295 -0.0057
vn -0.6339 0.7734 0.0036
vn 0.7587 0.6466 -0.0793
vn 0.7385 0.6727 -0.0467
usemtl None.155
s 1
f 1//1 3//1 2//1
f 4//2 6//3 5//4
f 4//5 5//5 7//5
f 4//6 7//7 8//8
f 9//9 10//9 7//9
f 9//10 7//10 11//10
f 6//3 12//11 5//4
f 8//12 7//13 13//14
f 11//15 7//15 14//15
f 3//16 15//17 2//18
f 3//16 16//19 15//17
f 17//20 19//20 18//20
f 17//21 18//21 20//21
f 21//22 23//22 22//22
f 24//23 26//23 25//23
f 27//24 29//24 28//24
f 27//25 30//25 29//25
f 31//26 15//27 32//28
f 31//26 33//29 15//27
f 34//30 15//30 35//30
f 34//31 36//32 15//33
f 37//34 15//34 38//34
f 37//35 39//35 15//35
f 40//36 15//37 41//38
f 40//36 2//39 15//37
f 42//40 43//40 15//40
f 42//41 15//42 44//43
f 45//44 47//45 46//46
f 48//47 41//38 15//37
f 48//48 15//33 36//32
f 49//49 15//49 43//49
f 49//50 35//50 15//50
f 50//51 15//51 33//51
f 50//52 38//52 15//52
f 51//53 29//54 52//55
f 51//53 28//56 29//54
f 53//57 54//57 29//57
f 53//58 29//58 55//58
f 56//59 44//43 15//42
f 57//60 26//60 24//60
f 57//61 24//61 58//61
f 57//62 58//62 59//62
f 60//63 7//63 61//63
f 60//64 62//65 7//66
f 61//67 7//68 63//69
f 62//65 64//70 7//66
f 63//69 7//68 5//71
f 19//72 14//72 18//72
f 20//21 18//21 65//21
f 65//21 18//21 66//21
f 67//73 29//73 68//73
f 67//73 66//73 29//73
f 68//73 29//73 69//73
f 70//74 15//74 71//74
f 71//74 15//74 72//74
f 72//74 15//74 73//74
f 74//74 15//74 75//74
f 74//74 73//74 15//74
f 75//74 15//74 76//74
f 77//74 76//74 15//74
f 77//74 15//74 78//74
f 78//74 15//74 79//74
f 79//74 15//74 80//74
f 80//74 15//74 81//74
f 81//74 15//74 82//74
f 82//74 15//74 83//74
f 23//22 83//22 22//22
f 47//75 64//75 84//75
f 47//76 7//76 64//76
f 13//14 7//13 10//77
f 32//78 15//78 70//78
f 29//79 45//79 85//79
f 29//80 47//81 45//82
f 14//83 47//83 18//83
f 47//84 14//84 7//84
f 56//59 15//42 39//85
f 29//80 18//86 47//81
f 86//87 32//88 70//87
f 86//87 87//89 32//88
f 29//90 30//90 88//90
f 83//91 15//91 22//91
f 87//92 69//93 88//94
f 87//89 88//95 32//88
f 69//93 29//96 88//94
f 22//97 15//17 89//98
f 15//17 16//19 89//98
f 66//99 18//99 29//99
f 29//100 85//100 55//100
f 90//101 52//102 29//103
f 90//101 29//103 54//104
f 25//105 26//105 91//105
f 25//106 91//106 92//106
f 93//107 95//108 94//109
f 93//110 94//110 91//110
f 91//111 97//112 96//113
f 91//114 96//114 98//114
f 97//112 91//111 94//115
f 98//116 92//116 91//116
f 98//117 100//117 99//117
f 98//118 96//118 100//118
f 94//109 95//108 101//119
f 94//120 102//120 97//120
f 94//121 104//122 103//123
f 94//121 101//124 104//122
f 105//125 107//126 106//127
f 105//125 106//127 108//128
f 109//129 46//46 47//45
f 109//129 47//45 107//130
f 110//131 108//132 111//133
f 110//131 111//133 112//134
f 112//135 111//135 113//135
f 114//136 59//137 115//138
f 114//136 113//139 59//137
f 116//140 117//140 26//140
f 116//141 26//141 118//141
f 118//142 26//142 119//142
f 59//143 113//143 120//143
f 121//144 120//144 111//144
f 121//145 111//145 122//145
f 122//146 111//147 123//148
f 124//149 47//150 125//151
f 124//149 106//152 47//150
f 84//153 125//151 47//150
f 47//154 106//154 107//154
f 106//155 123//148 111//147
f 106//156 111//156 108//156
f 117//157 91//157 26//157
f 115//138 59//137 58//158
f 113//159 111//159 120//159
f 102//160 126//161 97//162
f 96//163 97//162 100//164
f 127//165 129//165 128//165
f 130//166 132//166 131//166
f 130//167 133//167 132//167
f 130//168 134//169 133//170
f 135//171 133//171 136//171
f 135//172 137//172 133//172
f 131//173 132//173 138//173
f 134//174 139//175 133//176
f 137//177 140//177 133//177
f 128//178 129//179 141//180
f 128//178 141//180 142//181
f 143//182 145//182 144//182
f 143//183 146//183 145//183
f 147//184 149//184 148//184
f 150//185 152//185 151//185
f 153//186 155//186 154//186
f 153//187 154//187 156//187
f 157//188 158//189 141//190
f 157//188 141//190 159//191
f 160//192 161//192 141//192
f 160//193 141//194 162//195
f 163//196 164//196 141//196
f 163//197 141//197 165//197
f 166//198 167//199 141//200
f 166//198 141//200 129//201
f 168//202 141//202 169//202
f 168//203 170//204 141//205
f 171//206 173//207 172//208
f 174//209 141//200 167//199
f 174//210 162//195 141//194
f 175//211 169//211 141//211
f 175//212 141//212 161//212
f 176//213 159//213 141//213
f 176//214 141//214 164//214
f 177//215 178//216 154//217
f 177//215 154//217 155//218
f 179//219 154//219 180//219
f 179//220 181//220 154//220
f 182//221 141//205 170//204
f 183//222 150//222 151//222
f 183//223 184//223 150//223
f 183//224 185//224 184//224
f 186//225 187//225 133//225
f 186//226 133//227 188//228
f 187//229 189//230 133//231
f 188//228 133//227 190//232
f 189//230 132//233 133//231
f 144//234 145//234 140//234
f 146//183 191//183 145//183
f 191//183 192//183 145//183
f 193//235 194//235 154//235
f 193//235 154//235 192//235
f 194//235 195//235 154//235
f 196//236 197//236 141//236
f 197//236 198//236 141//236
f 198//236 199//236 141//236
f 200//236 201//236 141//236
f 200//236 141//236 199//236
f 201//236 202//236 141//236
f 203//236 141//236 202//236
f 203//236 204//236 141//236
f 204//236 205//236 141//236
f 205//236 206//236 141//236
f 206//236 207//236 141//236
f 207//236 208//236 141//236
f 208//236 209//236 141//236
f 148//184 149//184 209//184
f 172//237 210//237 190//237
f 172//238 190//238 133//238
f 139//175 136//239 133//176
f 158//240 196//240 141//240
f 154//241 211//241 171//241
f 154//242 171//243 172//244
f 140//245 145//245 172//245
f 172//246 133//246 140//246
f 182//221 165//247 141//205
f 154//242 172//244 145//248
f 212//249 196//249 158//249
f 212//249 158//249 213//249
f 154//250 214//250 156//250
f 209//251 149//251 141//251
f 213//252 214//253 195//254
f 213//252 158//255 214//253
f 195//254 214//253 154//256
f 149//257 215//258 141//180
f 141//180 215//258 142//181
f 192//259 154//259 145//259
f 154//260 181//260 211//260
f 216//261 154//262 178//263
f 216//261 180//264 154//262
f 152//265 100//265 151//265
f 152//266 99//266 100//266
f 217//267 126//268 218//269
f 217//270 100//270 126//270
f 97//162 126//161 100//164
f 126//268 219//271 218//269
f 126//272 221//272 220//272
f 126//273 220//273 219//273
f 222//274 224//275 223//276
f 222//274 225//277 224//275
f 226//278 172//208 173//207
f 226//278 223//279 172//208
f 227//280 228//281 225//282
f 227//280 229//283 228//281
f 229//284 230//284 228//284
f 231//285 232//286 185//287
f 231//285 185//287 230//288
f 233//289 151//289 234//289
f 233//290 235//290 151//290
f 235//291 236//291 151//291
f 185//292 237//292 230//292
f 238//293 228//293 237//293
f 238//294 239//294 228//294
f 239//295 240//296 228//297
f 241//298 242//299 172//300
f 241//298 172//300 224//301
f 210//302 172//300 242//299
f 172//303 223//303 224//303
f 224//304 228//297 240//296
f 224//305 225//305 228//305
f 234//306 151//306 100//306
f 232//286 184//307 185//287
f 230//308 237//308 228//308
