# Blender v2.79 (sub 0) OBJ File: ''
# www.blender.org
mtllib crack_restart_keyway_420.mtl
o crack_restart_keyway_420
v 0.073548 -0.113085 -0.472461
v 0.084890 -0.121246 -0.472461
v 0.072989 -0.113325 -0.459453
v 0.147220 -0.162043 -0.087638
v 0.150792 -0.164569 -0.087240
v 0.152205 -0.169023 -0.080785
v 0.143332 -0.159231 -0.088148
v 0.154210 -0.167189 -0.086931
v 0.120406 -0.147382 -0.472461
v 0.120406 -0.147382 -0.457089
v 0.108265 -0.138299 -0.472461
v 0.073521 -0.113104 -0.238326
v 0.073106 -0.113252 -0.251334
v 0.084946 -0.121657 -0.216987
v 0.073891 -0.112758 -0.225319
v 0.070761 -0.114896 -0.394416
v 0.120406 -0.147382 -0.410975
v 0.070246 -0.115049 -0.381408
v 0.070910 -0.114631 -0.407423
v 0.072479 -0.113843 -0.290356
v 0.095097 -0.132870 -0.288960
v 0.072707 -0.113502 -0.277349
v 0.071822 -0.114059 -0.303364
v 0.072667 -0.113710 -0.446446
v 0.071437 -0.114522 -0.342386
v 0.070595 -0.114830 -0.355393
v 0.071458 -0.114287 -0.329378
v 0.071422 -0.114530 -0.420431
v 0.071850 -0.114041 -0.433438
v 0.070857 -0.114842 -0.368401
v 0.072982 -0.113486 -0.264341
v 0.077961 -0.110072 -0.101593
v 0.109339 -0.141361 -0.089225
v 0.074985 -0.111574 -0.079914
v 0.071622 -0.114419 -0.316371
v 0.074091 -0.112700 -0.212311
v 0.073999 -0.112690 -0.199304
v 0.146529 -0.173946 -0.061449
v 0.148190 -0.172548 -0.068122
v 0.149997 -0.170979 -0.074961
v 0.120866 -0.146923 -0.098614
v 0.122213 -0.145575 -0.094013
v 0.114617 -0.144499 -0.094839
v 0.120406 -0.147382 -0.103551
v 0.118735 -0.145742 -0.090759
v 0.126591 -0.147774 -0.091761
v 0.120406 -0.147382 -0.118922
v 0.120406 -0.147382 -0.134293
v 0.120406 -0.147382 -0.149664
v 0.120406 -0.147382 -0.165036
v 0.074675 -0.112266 -0.173289
v 0.120406 -0.147382 -0.180407
v 0.120406 -0.147382 -0.195778
v 0.120406 -0.147382 -0.211149
v 0.120406 -0.147382 -0.226521
v 0.105237 -0.137811 -0.251478
v 0.120406 -0.147382 -0.241892
v 0.120406 -0.147382 -0.257263
v 0.104076 -0.139933 -0.265445
v 0.120406 -0.147382 -0.272634
v 0.104138 -0.140732 -0.280918
v 0.120406 -0.147382 -0.288006
v 0.120406 -0.147382 -0.303377
v 0.120406 -0.147382 -0.318748
v 0.120406 -0.147382 -0.349490
v 0.120406 -0.147382 -0.334119
v 0.120406 -0.147382 -0.364862
v 0.120406 -0.147382 -0.380233
v 0.120406 -0.147382 -0.395604
v 0.120406 -0.147382 -0.441718
v 0.096016 -0.129302 -0.472461
v 0.120406 -0.147382 -0.426347
v 0.139534 -0.156356 -0.088660
v 0.143868 -0.175974 -0.049478
v 0.111647 -0.143804 -0.082092
v 0.135310 -0.153112 -0.089233
v 0.067302 -0.116149 -0.036806
v 0.081804 -0.135181 -0.014572
v 0.131068 -0.149873 -0.089874
v 0.076519 -0.111107 -0.121259
v 0.074401 -0.112508 -0.184884
v 0.074309 -0.112647 -0.191430
v 0.103502 -0.134791 -0.472461
v 0.074892 -0.112258 -0.166620
v 0.144529 -0.175552 -0.052998
v 0.075546 -0.111667 -0.134267
v 0.075344 -0.111956 -0.141538
v 0.075019 -0.112050 -0.147274
v 0.071790 -0.112720 -0.068304
v 0.068509 -0.113716 -0.054989
v 0.069932 -0.120528 -0.028692
v 0.066714 -0.116197 -0.033451
v 0.142827 -0.176702 -0.044447
v 0.141965 -0.177109 -0.040237
v 0.140873 -0.177720 -0.035886
v 0.118409 -0.168287 0.007300
v 0.137441 -0.180134 -0.013771
v 0.136447 -0.180929 -0.006288
v 0.067302 -0.116149 -0.036806
v 0.075044 -0.112156 -0.153630
v 0.074919 -0.112112 -0.160281
v 0.134306 -0.182638 0.010461
v 0.136447 -0.180929 -0.006288
v 0.073548 -0.113085 -0.472461
v 0.072989 -0.113325 -0.459453
v 0.084890 -0.121246 -0.472461
v 0.147220 -0.162043 -0.087638
v 0.152205 -0.169023 -0.080785
v 0.150792 -0.164569 -0.087240
v 0.143332 -0.159231 -0.088148
v 0.154210 -0.167189 -0.086931
v 0.120406 -0.147382 -0.472461
v 0.108265 -0.138299 -0.472461
v 0.120406 -0.147382 -0.457089
v 0.073521 -0.113104 -0.238326
v 0.084946 -0.121657 -0.216987
v 0.073106 -0.113252 -0.251334
v 0.073891 -0.112758 -0.225319
v 0.070761 -0.114896 -0.394416
v 0.070246 -0.115049 -0.381408
v 0.120406 -0.147382 -0.410975
v 0.070910 -0.114631 -0.407423
v 0.072479 -0.113843 -0.290356
v 0.072707 -0.113502 -0.277349
v 0.095097 -0.132870 -0.288960
v 0.071822 -0.114059 -0.303364
v 0.072667 -0.113710 -0.446446
v 0.071437 -0.114522 -0.342386
v 0.070595 -0.114830 -0.355393
v 0.071458 -0.114287 -0.329378
v 0.071422 -0.114530 -0.420431
v 0.071850 -0.114041 -0.433438
v 0.070857 -0.114842 -0.368401
v 0.072982 -0.113486 -0.264341
v 0.077961 -0.110072 -0.101593
v 0.074985 -0.111574 -0.079914
v 0.109339 -0.141361 -0.089225
v 0.071622 -0.114419 -0.316371
v 0.074091 -0.112700 -0.212311
v 0.073999 -0.112690 -0.199304
v 0.146529 -0.173946 -0.061449
v 0.148190 -0.172548 -0.068122
v 0.149997 -0.170979 -0.074961
v 0.120866 -0.146923 -0.098614
v 0.114617 -0.144499 -0.094839
v 0.122213 -0.145575 -0.094013
v 0.120406 -0.147382 -0.103551
v 0.118735 -0.145742 -0.090759
v 0.126591 -0.147774 -0.091761
v 0.120406 -0.147382 -0.118922
v 0.120406 -0.147382 -0.134293
v 0.106563 -0.141729 -0.120726
v 0.120406 -0.147382 -0.149664
v 0.120406 -0.147382 -0.165036
v 0.120406 -0.147382 -0.180407
v 0.074675 -0.112266 -0.173289
v 0.120406 -0.147382 -0.195778
v 0.120406 -0.147382 -0.211149
v 0.120406 -0.147382 -0.226521
v 0.120406 -0.147382 -0.241892
v 0.105237 -0.137811 -0.251478
v 0.120406 -0.147382 -0.257263
v 0.120406 -0.147382 -0.272634
v 0.104076 -0.139933 -0.265445
v 0.120406 -0.147382 -0.288006
v 0.104138 -0.140732 -0.280918
v 0.120406 -0.147382 -0.303377
v 0.120406 -0.147382 -0.318748
v 0.120406 -0.147382 -0.349490
v 0.120406 -0.147382 -0.334119
v 0.120406 -0.147382 -0.364862
v 0.120406 -0.147382 -0.380233
v 0.120406 -0.147382 -0.395604
v 0.120406 -0.147382 -0.441718
v 0.096016 -0.129302 -0.472461
v 0.120406 -0.147382 -0.426347
v 0.139534 -0.156356 -0.088660
v 0.111647 -0.143804 -0.082092
v 0.143868 -0.175974 -0.049478
v 0.135310 -0.153112 -0.089233
v 0.131068 -0.149873 -0.089874
v 0.076519 -0.111107 -0.121259
v 0.074401 -0.112508 -0.184884
v 0.074309 -0.112647 -0.191430
v 0.103502 -0.134791 -0.472461
v 0.074892 -0.112258 -0.166620
v 0.144529 -0.175552 -0.052998
v 0.075546 -0.111667 -0.134267
v 0.075344 -0.111956 -0.141538
v 0.075019 -0.112050 -0.147274
v 0.071790 -0.112720 -0.068304
v 0.068509 -0.113716 -0.054989
v 0.141965 -0.177109 -0.040237
v 0.142827 -0.176702 -0.044447
v 0.140873 -0.177720 -0.035886
v 0.137441 -0.180134 -0.013771
v 0.075044 -0.112156 -0.153630
v 0.074919 -0.112112 -0.160281
vn 0.5836 0.8111 0.0400
vn 0.5821 0.8122 0.0396
vn 0.5833 0.8112 0.0415
vn 0.4952 0.7642 0.4132
vn 0.4966 0.7619 0.4158
vn 0.4928 0.7629 0.4185
vn 0.4968 0.7622 0.4149
vn 0.5355 0.7454 0.3971
vn 0.5990 0.8007 0.0000
vn 0.5978 0.8016 0.0097
vn 0.5984 0.8012 0.0072
vn 0.6332 0.7735 -0.0290
vn 0.6441 0.7640 -0.0386
vn 0.5551 0.8314 0.0240
vn 0.5547 0.8315 0.0317
vn 0.5533 0.8324 0.0312
vn 0.5529 0.8328 0.0257
vn 0.6451 0.7635 -0.0315
vn 0.6446 0.7639 -0.0313
vn 0.6444 0.7634 -0.0451
vn 0.6447 0.7631 -0.0452
vn 0.5858 0.8095 0.0402
vn 0.6952 0.7161 -0.0620
vn 0.6337 0.7735 -0.0150
vn 0.5497 0.8339 0.0494
vn 0.5530 0.8327 0.0282
vn 0.5737 0.8190 0.0108
vn 0.6845 0.7277 -0.0437
vn 0.6402 0.7676 -0.0293
vn 0.6167 0.7869 -0.0200
vn 0.6498 0.7600 -0.0147
vn 0.6702 0.7284 0.1425
vn 0.6178 0.7863 0.0002
vn 0.6375 0.7705 0.0039
vn 0.6330 0.7740 -0.0132
vn 0.6468 0.6980 0.3072
vn 0.6159 0.7167 0.3272
vn 0.4780 0.7619 0.4371
vn 0.1670 0.9319 -0.3219
vn 0.2976 0.9476 -0.1158
vn 0.1191 0.9769 0.1774
vn 0.2759 0.8986 0.3410
vn 0.4779 0.8784 0.0000
vn 0.6090 0.7931 0.0000
vn 0.6060 0.7951 0.0253
vn 0.5336 0.8457 0.0000
vn 0.4150 0.9098 0.0000
vn 0.4784 0.8614 -0.1706
vn 0.3784 0.9256 0.0000
vn 0.3979 0.9163 -0.0457
vn 0.4974 0.8675 0.0000
vn 0.4677 0.8348 0.2903
vn 0.5955 0.8033 0.0000
vn 0.5957 0.8032 -0.0000
vn 0.4521 0.8166 0.3589
vn 0.4437 0.6807 0.5830
vn 0.5418 0.7740 0.3276
vn 0.6651 0.7234 0.1854
vn 0.3567 0.9178 0.1745
vn 0.7190 0.6899 -0.0840
vn 0.7172 0.6913 -0.0880
vn 0.7207 0.6875 -0.0890
vn 0.2488 0.9685 -0.0131
vn 0.4440 0.6937 0.5671
vn 0.4385 0.8842 0.1609
vn 0.4016 0.9066 -0.1292
vn 0.5796 0.8139 -0.0402
vn 0.5749 0.8173 -0.0387
vn 0.5738 0.8176 -0.0472
vn 0.6051 0.7956 -0.0283
vn 0.5948 0.8034 -0.0267
vn 0.5998 0.7996 -0.0309
vn 0.6116 0.7907 -0.0277
vn 0.5860 0.8093 0.0409
vn 0.5706 0.8210 0.0201
vn 0.5596 0.8269 0.0562
vn 0.8248 0.5448 -0.1513
vn 0.6735 0.7383 -0.0354
vn 0.5926 0.8054 0.0114
vn 0.5661 0.8244 0.0000
vn 0.5195 0.8458 0.1216
vn 0.6748 0.7377 -0.0222
vn 0.6746 0.7378 -0.0228
vn 0.6764 0.7363 -0.0206
vn 0.8176 -0.5695 0.0852
vn 0.7175 0.6428 0.2684
vn 0.6285 0.7598 0.1662
vn 0.5476 0.8366 0.0141
vn 0.7182 0.6908 -0.0835
vn 0.6984 0.7140 -0.0485
vn 0.6945 0.7179 -0.0478
vn 0.6970 0.7152 -0.0510
vn 0.6973 0.7150 -0.0512
vn 0.6566 0.7341 0.1735
vn 0.6720 0.6958 0.2536
vn 0.3081 0.9401 0.1462
vn 0.7181 0.6826 0.1356
vn 0.9796 -0.0441 0.1963
vn -0.3636 0.9307 0.0395
vn 0.6059 0.7776 0.1682
vn 0.6057 0.7782 0.1661
vn 0.6058 0.7776 0.1685
vn 0.6568 0.7318 0.1818
vn 0.6443 0.7469 0.1644
vn 0.6478 0.7449 0.1598
vn 0.6464 0.7449 0.1650
vn 0.7339 0.6343 0.2432
vn 0.6051 0.7787 0.1659
vn 0.6849 0.7105 0.1614
vn -0.6849 -0.7105 -0.1614
vn 0.6591 0.7520 -0.0100
vn 0.6578 0.7532 -0.0087
vn 0.6552 0.7554 -0.0093
vn 0.6563 0.7545 -0.0073
vn 0.6058 0.7951 -0.0282
vn 0.6398 0.7679 -0.0311
vn 0.5872 0.8094 0.0000
vn 0.5722 0.8188 -0.0469
vn 0.5906 0.8062 -0.0345
vn 0.6710 0.7412 -0.0199
vn 0.6440 0.7484 0.1587
vn -0.6440 -0.7484 -0.1587
vn -0.6443 -0.7469 -0.1644
vn -0.6478 -0.7448 -0.1598
vn -0.7181 -0.6826 -0.1356
vn -0.5836 -0.8111 -0.0400
vn -0.5829 -0.8116 -0.0386
vn -0.5821 -0.8122 -0.0396
vn -0.4952 -0.7642 -0.4132
vn -0.4928 -0.7629 -0.4185
vn -0.4966 -0.7619 -0.4157
vn -0.4968 -0.7622 -0.4149
vn -0.5355 -0.7454 -0.3971
vn -0.5990 -0.8007 0.0000
vn -0.5912 -0.8065 -0.0048
vn -0.5978 -0.8016 -0.0096
vn -0.6332 -0.7735 0.0290
vn -0.6441 -0.7640 0.0386
vn -0.5551 -0.8314 -0.0241
vn -0.5533 -0.8324 -0.0312
vn -0.5547 -0.8315 -0.0317
vn -0.5529 -0.8328 -0.0257
vn -0.6451 -0.7635 0.0316
vn -0.6444 -0.7634 0.0451
vn -0.6446 -0.7639 0.0313
vn -0.6447 -0.7631 0.0452
vn -0.5824 -0.8120 -0.0385
vn -0.6952 -0.7161 0.0620
vn -0.6337 -0.7735 0.0150
vn -0.5497 -0.8339 -0.0494
vn -0.5530 -0.8327 -0.0282
vn -0.5737 -0.8190 -0.0108
vn -0.6845 -0.7277 0.0437
vn -0.6402 -0.7676 0.0293
vn -0.6167 -0.7869 0.0200
vn -0.6498 -0.7600 0.0147
vn -0.6702 -0.7284 -0.1425
vn -0.6178 -0.7863 -0.0002
vn -0.6375 -0.7705 -0.0039
vn -0.6330 -0.7740 0.0132
vn -0.6468 -0.6980 -0.3072
vn -0.6159 -0.7167 -0.3272
vn -0.4780 -0.7619 -0.4371
vn -0.1670 -0.9319 0.3219
vn -0.2976 -0.9476 0.1158
vn -0.1191 -0.9769 -0.1774
vn -0.2759 -0.8986 -0.3410
vn -0.3781 -0.9258 0.0000
vn -0.6090 -0.7931 0.0000
vn -0.5972 -0.7976 -0.0848
vn -0.5336 -0.8457 -0.0000
vn -0.4150 -0.9098 0.0000
vn -0.4784 -0.8614 0.1706
vn -0.3784 -0.9256 0.0000
vn -0.3979 -0.9163 0.0457
vn -0.4974 -0.8675 0.0000
vn -0.4677 -0.8348 -0.2903
vn -0.5955 -0.8033 0.0000
vn -0.4521 -0.8166 -0.3589
vn -0.4437 -0.6807 -0.5830
vn -0.5418 -0.7740 -0.3276
vn -0.6651 -0.7234 -0.1854
vn -0.3567 -0.9178 -0.1745
vn -0.7123 -0.6969 0.0838
vn -0.7118 -0.6968 0.0889
vn -0.7119 -0.6970 0.0860
vn -0.7183 -0.6921 0.0714
vn -0.2488 -0.9685 0.0131
vn -0.4440 -0.6937 -0.5671
vn -0.4385 -0.8842 -0.1609
vn -0.4016 -0.9066 0.1292
vn -0.4284 -0.9023 0.0483
vn -0.5796 -0.8139 0.0402
vn -0.5738 -0.8176 0.0472
vn -0.5749 -0.8173 0.0387
vn -0.5998 -0.7996 0.0309
vn -0.6092 -0.7926 0.0254
vn -0.6099 -0.7921 0.0254
vn -0.6116 -0.7907 0.0277
vn -0.5860 -0.8093 -0.0409
vn -0.5706 -0.8210 -0.0201
vn -0.5596 -0.8269 -0.0562
vn -0.8248 -0.5448 0.1513
vn -0.6735 -0.7383 0.0354
vn -0.5913 -0.8064 -0.0103
vn -0.5926 -0.8054 -0.0114
vn -0.5661 -0.8244 0.0000
vn -0.5195 -0.8458 -0.1216
vn -0.6992 -0.7146 0.0236
vn -0.8176 0.5695 -0.0852
vn -0.7175 -0.6428 -0.2684
vn -0.6285 -0.7598 -0.1662
vn -0.5476 -0.8366 -0.0141
vn -0.7121 -0.6972 0.0833
vn -0.7075 -0.7051 0.0482
vn -0.7070 -0.7054 0.0514
vn -0.7058 -0.7068 0.0477
vn -0.7070 -0.7053 0.0516
vn -0.6566 -0.7341 -0.1735
vn -0.6720 -0.6958 -0.2536
vn -0.3081 -0.9401 -0.1462
vn -0.9796 0.0441 -0.1963
vn 0.3636 -0.9307 -0.0395
vn -0.6059 -0.7776 -0.1682
vn -0.6058 -0.7776 -0.1685
vn -0.6057 -0.7782 -0.1661
vn -0.6568 -0.7318 -0.1818
vn -0.6464 -0.7449 -0.1650
vn -0.7339 -0.6343 -0.2432
vn -0.6051 -0.7787 -0.1659
vn -0.6894 -0.7243 0.0094
vn -0.6886 -0.7251 0.0092
vn -0.6891 -0.7246 0.0088
vn -0.6887 -0.7250 0.0081
vn -0.6058 -0.7951 0.0282
vn -0.6398 -0.7679 0.0311
vn -0.5872 -0.8094 0.0000
vn -0.5722 -0.8188 0.0469
vn -0.5906 -0.8062 0.0345
vn -0.6961 -0.7177 0.0195
usemtl None.072
s 1
f 1//1 3//2 2//3
f 4//4 6//5 5//6
f 4//4 7//7 6//5
f 5//8 6//8 8//8
f 9//9 11//10 10//11
f 12//12 14//12 13//12
f 12//13 15//13 14//13
f 16//14 18//15 17//16
f 16//14 17//16 19//17
f 20//18 22//19 21//20
f 20//18 21//20 23//21
f 24//22 2//3 3//2
f 25//23 21//23 26//23
f 25//24 27//24 21//24
f 28//25 17//25 29//25
f 28//26 19//17 17//16
f 30//27 26//27 21//27
f 30//28 21//28 18//28
f 31//29 14//29 21//29
f 31//30 13//30 14//30
f 31//31 21//31 22//31
f 32//32 34//32 33//32
f 35//33 21//33 27//33
f 36//34 37//34 14//34
f 36//35 14//35 15//35
f 38//36 39//36 7//36
f 39//37 40//37 7//37
f 40//38 6//38 7//38
f 41//39 43//39 42//39
f 41//40 44//40 43//40
f 42//41 43//41 45//41
f 42//42 45//42 46//42
f 47//43 48//43 33//43
f 47//43 33//43 44//43
f 48//43 49//43 33//43
f 49//43 50//43 33//43
f 50//44 52//44 51//44
f 50//45 51//45 33//45
f 52//44 53//44 51//44
f 53//44 54//44 51//44
f 55//46 57//46 56//46
f 57//46 58//46 56//46
f 58//47 60//47 59//47
f 58//48 59//48 56//48
f 60//49 62//49 61//49
f 60//50 61//50 59//50
f 62//51 63//51 21//51
f 62//52 21//52 61//52
f 63//51 64//51 21//51
f 65//51 21//51 66//51
f 65//51 67//51 21//51
f 67//51 68//51 21//51
f 68//51 69//51 21//51
f 70//53 10//11 71//54
f 70//53 71//54 72//53
f 73//55 75//55 74//55
f 73//56 76//56 75//56
f 73//57 74//57 7//57
f 77//58 78//58 33//58
f 75//59 79//59 46//59
f 33//60 80//61 32//62
f 46//63 45//63 75//63
f 75//64 76//64 79//64
f 33//65 75//65 45//65
f 33//66 45//66 43//66
f 55//67 56//68 14//69
f 14//70 81//71 51//72
f 14//70 82//73 81//71
f 69//51 17//51 21//51
f 24//22 71//74 2//3
f 24//75 72//75 71//75
f 24//76 29//76 72//76
f 59//77 21//77 56//77
f 59//78 61//78 21//78
f 10//11 83//79 71//54
f 10//11 11//10 83//79
f 17//80 72//80 29//80
f 33//81 78//81 75//81
f 33//82 51//83 84//84
f 66//51 21//51 64//51
f 38//85 74//85 85//85
f 38//86 7//86 74//86
f 43//87 44//87 33//87
f 17//88 18//88 21//88
f 80//61 33//60 86//89
f 87//90 86//91 33//92
f 87//90 33//92 88//93
f 89//94 77//94 33//94
f 89//95 33//95 34//95
f 77//96 89//96 90//96
f 77//97 92//97 91//97
f 74//98 94//98 93//98
f 74//99 95//99 94//99
f 78//100 74//101 75//102
f 96//103 97//103 95//103
f 96//104 98//105 97//106
f 96//107 95//107 74//107
f 96//108 74//101 78//100
f 78//109 77//109 91//109
f 78//110 91//110 99//110
f 88//111 33//112 100//113
f 100//113 33//112 101//114
f 37//115 82//73 14//70
f 21//116 35//116 23//116
f 55//117 14//117 54//117
f 21//118 14//69 56//68
f 51//119 54//119 14//119
f 101//120 33//82 84//84
f 98//105 96//104 102//121
f 102//122 96//123 103//124
f 92//125 99//125 91//125
f 104//126 106//127 105//128
f 107//129 109//130 108//131
f 107//129 108//131 110//132
f 109//133 111//133 108//133
f 112//134 114//135 113//136
f 115//137 117//137 116//137
f 115//138 116//138 118//138
f 119//139 121//140 120//141
f 119//139 122//142 121//140
f 123//143 125//144 124//145
f 123//143 126//146 125//144
f 127//147 105//128 106//127
f 128//148 129//148 125//148
f 128//149 125//149 130//149
f 131//150 132//150 121//150
f 131//151 121//140 122//142
f 133//152 125//152 129//152
f 133//153 120//153 125//153
f 134//154 125//154 116//154
f 134//155 116//155 117//155
f 134//156 124//156 125//156
f 135//157 137//157 136//157
f 138//158 130//158 125//158
f 139//159 116//159 140//159
f 139//160 118//160 116//160
f 141//161 110//161 142//161
f 142//162 110//162 143//162
f 143//163 110//163 108//163
f 144//164 146//164 145//164
f 144//165 145//165 147//165
f 146//166 148//166 145//166
f 146//167 149//167 148//167
f 150//168 152//168 151//168
f 150//168 147//168 152//168
f 151//168 152//168 153//168
f 153//168 152//168 154//168
f 154//169 156//169 155//169
f 154//170 152//170 156//170
f 155//169 156//169 157//169
f 157//169 156//169 158//169
f 159//171 161//171 160//171
f 160//171 161//171 162//171
f 162//172 164//172 163//172
f 162//173 161//173 164//173
f 163//174 166//174 165//174
f 163//175 164//175 166//175
f 165//176 125//176 167//176
f 165//177 166//177 125//177
f 167//176 125//176 168//176
f 169//176 170//176 125//176
f 169//176 125//176 171//176
f 171//176 125//176 172//176
f 172//176 125//176 173//176
f 174//178 175//178 114//178
f 174//178 176//178 175//178
f 177//179 179//179 178//179
f 177//180 178//180 180//180
f 177//181 110//181 179//181
f 99//182 137//182 78//182
f 178//183 149//183 181//183
f 152//184 135//185 182//186
f 152//187 137//187 135//187
f 149//188 178//188 148//188
f 178//189 181//189 180//189
f 137//190 148//190 178//190
f 137//191 145//191 148//191
f 152//192 147//192 137//192
f 159//193 116//194 161//195
f 116//196 156//196 183//196
f 116//197 183//198 184//199
f 173//176 125//176 121//176
f 127//200 106//200 175//200
f 127//201 175//201 176//201
f 127//202 176//202 132//202
f 164//203 161//203 125//203
f 164//204 125//204 166//204
f 114//135 175//205 185//206
f 114//135 185//206 113//136
f 121//207 132//207 176//207
f 137//208 178//208 78//208
f 152//209 186//209 156//209
f 170//176 168//176 125//176
f 141//210 187//210 179//210
f 141//211 179//211 110//211
f 145//212 137//212 147//212
f 121//213 125//213 120//213
f 182//186 188//214 152//184
f 189//215 152//216 188//217
f 189//215 190//218 152//216
f 191//219 137//219 99//219
f 191//220 136//220 137//220
f 99//221 192//221 191//221
f 179//222 194//222 193//222
f 179//223 193//223 195//223
f 78//224 178//225 179//226
f 96//227 195//227 196//227
f 96//123 196//228 103//124
f 96//229 179//229 195//229
f 96//230 78//224 179//226
f 190//231 197//232 152//233
f 197//232 198//234 152//233
f 140//235 116//197 184//199
f 125//236 126//236 138//236
f 159//237 158//237 116//237
f 125//238 161//195 116//194
f 156//239 116//239 158//239
f 198//240 186//240 152//240
