# Blender v2.79 (sub 0) OBJ File: ''
# www.blender.org
mtllib crack_restart_keyway_785.mtl
o crack_restart_keyway_785
v 0.073317 -0.113248 -0.472461
v 0.072904 -0.113378 -0.459453
v 0.084624 -0.121413 -0.472461
v 0.147221 -0.162042 -0.087637
v 0.121102 -0.154978 -0.040290
v 0.152189 -0.169038 -0.080794
v 0.150727 -0.164628 -0.087297
v 0.143382 -0.159202 -0.088100
v 0.131068 -0.149873 -0.089874
v 0.127523 -0.150640 -0.086828
v 0.135375 -0.153073 -0.089178
v 0.126540 -0.147825 -0.091832
v 0.154210 -0.167189 -0.086931
v 0.139598 -0.156315 -0.088609
v 0.071824 -0.114308 -0.342386
v 0.095780 -0.129491 -0.472461
v 0.120406 -0.147382 -0.103551
v 0.114631 -0.144474 -0.094849
v 0.120866 -0.146923 -0.098614
v 0.120406 -0.147382 -0.118922
v 0.120406 -0.147382 -0.472461
v 0.108099 -0.138432 -0.472461
v 0.120406 -0.147382 -0.457089
v 0.085277 -0.104161 0.316371
v 0.085896 -0.102007 0.342386
v 0.150077 -0.169192 0.442104
v 0.085847 -0.116884 0.217753
v 0.079830 -0.106442 0.243166
v 0.142408 -0.175398 0.305028
v 0.074018 -0.112751 -0.186296
v 0.074357 -0.112466 -0.173289
v 0.086992 -0.123713 -0.132612
v 0.074005 -0.112687 -0.199304
v 0.073588 -0.113057 -0.238326
v 0.073856 -0.112780 -0.225319
v 0.073194 -0.113197 -0.251334
v 0.070662 -0.114950 -0.394416
v 0.069778 -0.115343 -0.381408
v 0.070969 -0.114594 -0.407423
v 0.072110 -0.114105 -0.290356
v 0.072555 -0.113598 -0.277349
v 0.071510 -0.114255 -0.303364
v 0.072569 -0.113779 -0.446446
v 0.071901 -0.114009 -0.433438
v 0.071583 -0.114441 -0.420431
v 0.070369 -0.115112 -0.368401
v 0.070303 -0.115013 -0.355393
v 0.073090 -0.113410 -0.264341
v 0.074498 -0.112411 -0.160281
v 0.074691 -0.112255 -0.147274
v 0.076163 -0.111331 -0.121259
v 0.075533 -0.111676 -0.134267
v 0.075923 -0.111400 -0.108252
v 0.074022 -0.112748 -0.212311
v 0.139500 -0.179390 0.257705
v 0.137357 -0.180334 0.195879
v 0.146889 -0.173631 -0.061404
v 0.148181 -0.172555 -0.068126
v 0.146382 -0.174015 -0.053198
v 0.150318 -0.170699 -0.074785
v 0.145277 -0.174347 -0.040098
v 0.122213 -0.145575 -0.094013
v 0.115975 -0.144838 -0.090499
v 0.120406 -0.147382 -0.134293
v 0.120406 -0.147382 -0.149664
v 0.120406 -0.147382 -0.165036
v 0.120406 -0.147382 -0.180407
v 0.120406 -0.147382 -0.195778
v 0.120406 -0.147382 -0.211149
v 0.120406 -0.147382 -0.226521
v 0.120406 -0.147382 -0.241892
v 0.120406 -0.147382 -0.257263
v 0.120406 -0.147382 -0.272634
v 0.120406 -0.147382 -0.288006
v 0.120406 -0.147382 -0.303377
v 0.120406 -0.147382 -0.318748
v 0.120406 -0.147382 -0.349490
v 0.120406 -0.147382 -0.334119
v 0.120406 -0.147382 -0.364862
v 0.120406 -0.147382 -0.380233
v 0.120406 -0.147382 -0.395604
v 0.120406 -0.147382 -0.410975
v 0.120406 -0.147382 -0.426347
v 0.120406 -0.147382 -0.441718
v 0.144209 -0.174581 -0.027886
v 0.075441 -0.111680 -0.096764
v 0.074630 -0.112073 -0.081618
v 0.071656 -0.114401 -0.316371
v 0.071556 -0.114226 -0.329378
v 0.103587 -0.135155 -0.472461
v 0.075205 -0.112049 -0.141250
v 0.086245 -0.100146 0.375401
v 0.085814 -0.100543 0.360773
v 0.087516 -0.100715 0.394416
v 0.096473 -0.111597 0.427744
v 0.150124 -0.169532 0.406238
v 0.149483 -0.170014 0.394428
v 0.148570 -0.170731 0.382263
v 0.133176 -0.151294 0.454014
v 0.143813 -0.163551 0.459101
v 0.149269 -0.169398 0.457683
v 0.122941 -0.139774 0.447759
v 0.116159 -0.132497 0.442648
v 0.087515 -0.102204 0.412292
v 0.086864 -0.102230 0.421005
v 0.087515 -0.102204 0.412292
v 0.071573 -0.113463 0.025034
v 0.139952 -0.178241 0.038210
v 0.070310 -0.112218 -0.001446
v 0.070161 -0.112395 0.052171
v 0.072405 -0.112940 -0.026133
v 0.071845 -0.111055 -0.054992
v 0.071710 -0.113379 0.079839
v 0.070917 -0.111931 0.106114
v 0.073402 -0.112313 0.128548
v 0.073660 -0.109604 0.159331
v 0.077828 -0.109533 0.199169
v 0.078268 -0.108390 0.212311
v 0.146824 -0.172213 0.358650
v 0.144107 -0.174239 0.325183
v 0.149072 -0.169632 0.461620
v 0.150077 -0.169192 0.442104
v 0.149269 -0.169398 0.457683
v 0.136664 -0.180532 0.159086
v 0.136687 -0.180657 0.140919
v 0.136855 -0.180215 0.110377
v 0.137598 -0.179954 0.088468
v 0.138477 -0.178980 0.062919
v 0.141289 -0.177025 0.016349
v 0.142893 -0.175751 -0.008107
v 0.073317 -0.113248 -0.472461
v 0.084624 -0.121413 -0.472461
v 0.072904 -0.113378 -0.459453
v 0.147221 -0.162042 -0.087637
v 0.152189 -0.169038 -0.080794
v 0.121102 -0.154978 -0.040290
v 0.150727 -0.164628 -0.087297
v 0.143382 -0.159202 -0.088100
v 0.131068 -0.149873 -0.089874
v 0.135375 -0.153073 -0.089178
v 0.127523 -0.150640 -0.086828
v 0.126540 -0.147825 -0.091832
v 0.154210 -0.167189 -0.086931
v 0.139598 -0.156315 -0.088609
v 0.071824 -0.114308 -0.342386
v 0.095780 -0.129491 -0.472461
v 0.120406 -0.147382 -0.103551
v 0.120866 -0.146923 -0.098614
v 0.114631 -0.144474 -0.094849
v 0.120406 -0.147382 -0.118922
v 0.120406 -0.147382 -0.472461
v 0.120406 -0.147382 -0.457089
v 0.108099 -0.138432 -0.472461
v 0.085277 -0.104161 0.316371
v 0.085896 -0.102007 0.342386
v 0.079830 -0.106442 0.243166
v 0.085847 -0.116884 0.217753
v 0.142408 -0.175398 0.305028
v 0.074018 -0.112751 -0.186296
v 0.086992 -0.123713 -0.132612
v 0.074357 -0.112466 -0.173289
v 0.074005 -0.112687 -0.199304
v 0.073588 -0.113057 -0.238326
v 0.073856 -0.112780 -0.225319
v 0.073194 -0.113197 -0.251334
v 0.070662 -0.114950 -0.394416
v 0.069778 -0.115343 -0.381408
v 0.070969 -0.114594 -0.407423
v 0.072110 -0.114105 -0.290356
v 0.072555 -0.113598 -0.277349
v 0.071510 -0.114255 -0.303364
v 0.072569 -0.113779 -0.446446
v 0.071901 -0.114009 -0.433438
v 0.071583 -0.114441 -0.420431
v 0.070369 -0.115112 -0.368401
v 0.070303 -0.115013 -0.355393
v 0.073090 -0.113410 -0.264341
v 0.074498 -0.112411 -0.160281
v 0.074691 -0.112255 -0.147274
v 0.076163 -0.111331 -0.121259
v 0.075533 -0.111676 -0.134267
v 0.075923 -0.111400 -0.108252
v 0.074022 -0.112748 -0.212311
v 0.139500 -0.179390 0.257705
v 0.137357 -0.180334 0.195879
v 0.146889 -0.173631 -0.061404
v 0.148181 -0.172555 -0.068126
v 0.146382 -0.174015 -0.053198
v 0.150318 -0.170699 -0.074785
v 0.145277 -0.174347 -0.040098
v 0.122213 -0.145575 -0.094013
v 0.115975 -0.144838 -0.090499
v 0.120406 -0.147382 -0.134293
v 0.120406 -0.147382 -0.149664
v 0.120406 -0.147382 -0.165036
v 0.120406 -0.147382 -0.180407
v 0.120406 -0.147382 -0.195778
v 0.120406 -0.147382 -0.211149
v 0.120406 -0.147382 -0.226521
v 0.120406 -0.147382 -0.241892
v 0.120406 -0.147382 -0.257263
v 0.120406 -0.147382 -0.272634
v 0.120406 -0.147382 -0.288006
v 0.120406 -0.147382 -0.303377
v 0.120406 -0.147382 -0.318748
v 0.120406 -0.147382 -0.349490
v 0.120406 -0.147382 -0.334119
v 0.120406 -0.147382 -0.364862
v 0.120406 -0.147382 -0.380233
v 0.120406 -0.147382 -0.395604
v 0.120406 -0.147382 -0.410975
v 0.120406 -0.147382 -0.426347
v 0.120406 -0.147382 -0.441718
v 0.144209 -0.174581 -0.027886
v 0.074630 -0.112073 -0.081618
v 0.075441 -0.111680 -0.096764
v 0.071656 -0.114401 -0.316371
v 0.071556 -0.114226 -0.329378
v 0.103587 -0.135155 -0.472461
v 0.075205 -0.112049 -0.141250
v 0.086245 -0.100146 0.375401
v 0.085814 -0.100543 0.360773
v 0.087516 -0.100715 0.394416
v 0.150124 -0.169532 0.406238
v 0.149483 -0.170014 0.394428
v 0.148570 -0.170731 0.382263
v 0.071573 -0.113463 0.025034
v 0.070310 -0.112218 -0.001446
v 0.139952 -0.178241 0.038210
v 0.070161 -0.112395 0.052171
v 0.072405 -0.112940 -0.026133
v 0.071845 -0.111055 -0.054992
v 0.071710 -0.113379 0.079839
v 0.070917 -0.111931 0.106114
v 0.073402 -0.112313 0.128548
v 0.073660 -0.109604 0.159331
v 0.077828 -0.109533 0.199169
v 0.078268 -0.108390 0.212311
v 0.144107 -0.174239 0.325183
v 0.146824 -0.172213 0.358650
v 0.136664 -0.180532 0.159086
v 0.136687 -0.180657 0.140919
v 0.136855 -0.180215 0.110377
v 0.137598 -0.179954 0.088468
v 0.138477 -0.178980 0.062919
v 0.141289 -0.177025 0.016349
v 0.142893 -0.175751 -0.008107
vn 0.5852 0.8104 0.0267
vn 0.6536 0.7128 0.2542
vn 0.5198 0.7568 0.3964
vn 0.5194 0.7569 0.3967
vn 0.5164 0.7581 0.3982
vn 0.5682 0.7997 0.1941
vn 0.5766 0.7925 0.1986
vn 0.5688 0.7995 0.1933
vn 0.3956 0.6693 0.6289
vn 0.1988 0.8703 0.4506
vn 0.5158 0.7584 0.3984
vn 0.5774 0.7918 0.1991
vn 0.5743 0.8186 0.0118
vn 0.5864 0.8099 0.0135
vn 0.5872 0.8094 0.0137
vn 0.5869 0.8096 0.0136
vn 0.3016 0.9463 -0.1161
vn 0.4497 0.8932 0.0000
vn 0.4498 0.8932 0.0000
vn 0.5881 0.8088 0.0000
vn 0.7703 0.6331 -0.0758
vn 0.7716 0.6322 -0.0707
vn 0.7718 0.6319 -0.0710
vn 0.7712 0.6315 -0.0799
vn 0.7691 0.6342 -0.0786
vn 0.7718 0.6312 -0.0765
vn 0.7233 0.6897 -0.0340
vn 0.6377 0.7702 0.0032
vn 0.7547 0.6554 -0.0296
vn 0.7542 0.6560 -0.0295
vn 0.7558 0.6541 -0.0297
vn 0.7560 0.6539 -0.0299
vn -0.4263 0.9046 -0.0016
vn -0.6540 0.7565 0.0053
vn 0.8557 0.5151 -0.0494
vn 0.8318 0.5533 -0.0448
vn -0.2741 0.9617 0.0029
vn -0.8106 0.5855 -0.0028
vn -0.7852 0.6192 0.0014
vn -0.2586 0.9660 -0.0008
vn -0.3567 0.9342 -0.0089
vn -0.7803 0.6249 0.0243
vn 0.6961 0.7178 -0.0173
vn 0.8204 0.5702 -0.0420
vn 0.6935 0.7203 -0.0189
vn 0.6835 0.7299 -0.0105
vn 0.7269 0.6847 -0.0534
vn 0.7605 0.6491 0.0175
vn 0.6552 0.7555 -0.0027
vn 0.6824 0.7309 -0.0105
vn 0.7856 0.6106 -0.0998
vn 0.7697 0.6374 -0.0364
vn 0.6909 0.6813 0.2419
vn 0.6240 0.7778 0.0750
vn 0.6239 0.7780 0.0740
vn 0.6234 0.7785 0.0726
vn 0.7487 0.5362 0.3897
vn 0.7481 0.5381 0.3884
vn 0.7458 0.5448 0.3834
vn 0.6233 0.7787 0.0709
vn 0.7456 0.5454 0.3829
vn 0.1708 0.9310 -0.3227
vn 0.2953 0.8941 0.3366
vn 0.1393 0.9895 0.0398
vn 0.5780 0.8160 0.0000
vn 0.5842 0.8114 0.0185
vn 0.5628 0.8266 0.0000
vn 0.5628 0.8266 0.0001
vn 0.5622 0.8270 0.0048
vn 0.6234 0.7788 0.0694
vn 0.4382 0.8874 0.1432
vn 0.3953 0.6319 0.6666
vn 0.8034 0.5724 0.1642
vn 0.8013 0.5954 0.0584
vn 0.6796 0.7335 -0.0027
vn 0.2873 0.9442 0.1613
vn 0.4512 0.8826 0.1322
vn 0.4409 0.8975 0.0087
vn 0.5469 0.8372 -0.0032
vn 0.7298 0.6622 -0.1701
vn 0.5744 0.8186 0.0084
vn 0.5876 0.8090 0.0138
vn 0.5874 0.8092 0.0138
vn 0.5620 0.8271 0.0064
vn 0.5613 0.8276 -0.0041
vn 0.7882 0.6135 0.0480
vn 0.7318 0.6761 -0.0856
vn 0.7273 0.6827 -0.0706
vn 0.7527 0.6572 -0.0400
vn 0.7528 0.6571 -0.0403
vn 0.7535 0.6562 -0.0415
vn 0.8260 0.5623 -0.0384
vn 0.7312 0.6821 0.0063
vn -0.4910 0.8711 -0.0089
vn -0.5544 0.8322 -0.0074
vn 0.7433 0.6669 0.0526
vn 0.7360 0.6754 0.0471
vn 0.7379 0.6741 0.0341
vn 0.7341 0.6788 -0.0177
vn 0.7343 0.6788 -0.0102
vn 0.7343 0.6787 -0.0087
vn 0.6702 0.7397 0.0610
vn 0.6762 0.7347 0.0546
vn 0.6778 0.7333 0.0528
vn 0.6696 0.7401 0.0617
vn -0.6778 -0.7333 -0.0528
vn -0.6762 -0.7347 -0.0546
vn -0.6702 -0.7397 -0.0610
vn 0.7343 0.6788 -0.0078
vn 0.6871 0.7265 0.0070
vn 0.6878 0.7259 0.0015
vn 0.6876 0.7261 0.0013
vn 0.6870 0.7266 0.0071
vn 0.6590 0.7513 0.0361
vn 0.6587 0.7515 0.0369
vn 0.6589 0.7514 0.0366
vn 0.6587 0.7516 0.0339
vn 0.6583 0.7517 0.0401
vn 0.5186 0.8545 -0.0314
vn -0.2129 0.9760 0.0466
vn 0.7640 0.6410 -0.0737
vn 0.7264 0.6841 -0.0663
vn 0.7697 0.6332 -0.0817
vn 0.7691 0.6340 -0.0811
vn 0.7686 0.6348 -0.0791
vn -0.4995 0.8662 -0.0119
vn -0.3960 0.9180 -0.0194
vn 0.7382 0.6702 0.0768
vn -0.7369 -0.6743 -0.0478
vn -0.7433 -0.6669 -0.0526
vn -0.7367 -0.6746 -0.0476
vn -0.7360 -0.6754 -0.0471
vn -0.7382 -0.6702 -0.0768
vn -0.6049 0.7963 -0.0052
vn 0.7732 0.6339 -0.0180
vn 0.7800 0.6258 -0.0033
vn 0.7896 0.6135 0.0132
vn 0.8060 0.5909 0.0344
vn 0.8199 0.5703 0.0500
vn 0.6221 0.7787 0.0814
vn 0.6178 0.7816 0.0861
vn 0.6220 0.7787 0.0815
vn 0.6168 0.7823 0.0873
vn 0.6689 0.7410 0.0590
vn 0.8365 0.5439 0.0662
vn 0.6808 0.7311 -0.0447
vn -0.7379 -0.6741 -0.0341
vn 0.7572 0.6514 -0.0485
vn -0.7343 -0.6788 0.0078
vn -0.7343 -0.6788 0.0102
vn -0.7343 -0.6787 0.0087
vn -0.7341 -0.6788 0.0177
vn -0.5852 -0.8104 -0.0267
vn -0.6536 -0.7128 -0.2542
vn -0.5198 -0.7568 -0.3964
vn -0.5682 -0.7997 -0.1941
vn -0.5688 -0.7995 -0.1932
vn -0.5767 -0.7925 -0.1986
vn -0.3956 -0.6693 -0.6289
vn -0.1988 -0.8703 -0.4506
vn -0.5158 -0.7584 -0.3984
vn -0.5774 -0.7918 -0.1991
vn -0.5743 -0.8186 -0.0118
vn -0.5864 -0.8099 -0.0135
vn -0.5869 -0.8096 -0.0136
vn -0.5872 -0.8094 -0.0137
vn -0.3016 -0.9463 0.1161
vn -0.4497 -0.8932 0.0000
vn -0.4498 -0.8932 0.0000
vn -0.5881 -0.8088 0.0000
vn -0.7703 -0.6331 0.0758
vn -0.7718 -0.6319 0.0710
vn -0.7716 -0.6322 0.0707
vn -0.7691 -0.6342 0.0786
vn -0.7712 -0.6315 0.0799
vn -0.7718 -0.6312 0.0765
vn -0.7233 -0.6897 0.0340
vn -0.6377 -0.7702 -0.0032
vn -0.7547 -0.6554 0.0296
vn -0.7558 -0.6541 0.0297
vn -0.7542 -0.6560 0.0295
vn -0.7560 -0.6539 0.0299
vn 0.4263 -0.9046 0.0016
vn 0.6540 -0.7565 -0.0053
vn -0.8557 -0.5151 0.0494
vn -0.8318 -0.5533 0.0448
vn 0.2741 -0.9617 -0.0029
vn 0.8106 -0.5855 0.0028
vn 0.7852 -0.6192 -0.0014
vn 0.2586 -0.9660 0.0008
vn 0.3567 -0.9342 0.0089
vn 0.7803 -0.6249 -0.0243
vn -0.6961 -0.7178 0.0173
vn -0.8204 -0.5702 0.0420
vn -0.6935 -0.7203 0.0189
vn -0.6835 -0.7299 0.0105
vn -0.7269 -0.6847 0.0534
vn -0.7605 -0.6491 -0.0175
vn -0.6552 -0.7555 0.0027
vn -0.6824 -0.7309 0.0105
vn -0.7856 -0.6106 0.0998
vn -0.7697 -0.6374 0.0364
vn -0.6909 -0.6813 -0.2419
vn -0.6240 -0.7778 -0.0750
vn -0.6234 -0.7785 -0.0726
vn -0.6239 -0.7780 -0.0740
vn -0.7487 -0.5362 -0.3897
vn -0.7458 -0.5448 -0.3834
vn -0.7481 -0.5381 -0.3884
vn -0.6233 -0.7787 -0.0709
vn -0.7456 -0.5454 -0.3829
vn -0.1708 -0.9310 0.3227
vn -0.2953 -0.8941 -0.3366
vn -0.1393 -0.9895 -0.0398
vn -0.5780 -0.8160 0.0000
vn -0.5842 -0.8114 -0.0185
vn -0.5628 -0.8266 0.0000
vn -0.6234 -0.7788 -0.0694
vn -0.4382 -0.8874 -0.1432
vn -0.3953 -0.6319 -0.6666
vn -0.8034 -0.5724 -0.1642
vn -0.8013 -0.5954 -0.0584
vn -0.6796 -0.7335 0.0027
vn -0.2873 -0.9442 -0.1613
vn -0.4512 -0.8826 -0.1322
vn -0.4409 -0.8975 -0.0087
vn -0.5469 -0.8372 0.0032
vn -0.7298 -0.6622 0.1701
vn -0.5744 -0.8186 -0.0084
vn -0.5876 -0.8090 -0.0138
vn -0.5874 -0.8092 -0.0138
vn -0.5618 -0.8273 -0.0062
vn -0.5620 -0.8271 -0.0064
vn -0.5618 -0.8272 -0.0039
vn -0.5613 -0.8276 0.0041
vn -0.7882 -0.6135 -0.0480
vn -0.7318 -0.6761 0.0856
vn -0.7273 -0.6827 0.0706
vn -0.7527 -0.6572 0.0400
vn -0.7535 -0.6562 0.0415
vn -0.7528 -0.6571 0.0403
vn -0.8260 -0.5623 0.0384
vn -0.7312 -0.6821 -0.0063
vn 0.4910 -0.8711 0.0089
vn 0.5544 -0.8322 0.0074
vn -0.6696 -0.7401 -0.0617
vn -0.6871 -0.7265 -0.0070
vn -0.6876 -0.7261 -0.0013
vn -0.6878 -0.7259 -0.0015
vn -0.6870 -0.7266 -0.0071
vn -0.6590 -0.7513 -0.0361
vn -0.6589 -0.7514 -0.0366
vn -0.6587 -0.7515 -0.0369
vn -0.6587 -0.7516 -0.0339
vn -0.6583 -0.7517 -0.0401
vn -0.5186 -0.8545 0.0314
vn 0.2129 -0.9760 -0.0466
vn -0.7640 -0.6410 0.0737
vn -0.7264 -0.6841 0.0663
vn -0.7697 -0.6332 0.0817
vn -0.7691 -0.6340 0.0811
vn -0.7686 -0.6348 0.0791
vn 0.4995 -0.8662 0.0119
vn 0.3960 -0.9180 0.0194
vn 0.6049 -0.7963 0.0052
vn -0.7732 -0.6339 0.0180
vn -0.7800 -0.6258 0.0033
vn -0.7896 -0.6135 -0.0132
vn -0.8060 -0.5909 -0.0344
vn -0.8199 -0.5703 -0.0500
vn -0.6221 -0.7787 -0.0814
vn -0.6220 -0.7788 -0.0815
vn -0.6178 -0.7816 -0.0861
vn -0.6168 -0.7823 -0.0873
vn -0.6689 -0.7410 -0.0590
vn -0.8365 -0.5439 -0.0662
vn -0.6808 -0.7311 0.0447
vn -0.7572 -0.6514 0.0485
usemtl None.153
s 1
f 1//1 2//1 3//1
f 4//2 5//2 6//2
f 4//3 6//4 7//5
f 4//6 8//7 5//8
f 9//9 10//9 11//9
f 9//10 12//10 10//10
f 7//5 6//4 13//11
f 8//7 14//12 5//8
f 3//13 2//13 15//13
f 3//14 15//15 16//16
f 17//17 18//17 19//17
f 17//18 20//19 18//18
f 21//20 22//20 23//20
f 24//21 25//22 26//23
f 24//21 27//24 28//25
f 24//21 29//26 27//24
f 24//21 26//23 29//26
f 30//27 31//27 32//27
f 30//28 32//28 33//28
f 34//29 35//30 32//31
f 34//29 32//31 36//32
f 37//33 38//33 15//33
f 37//34 15//34 39//34
f 40//35 41//35 32//35
f 40//36 32//36 42//36
f 43//37 44//37 15//37
f 43//38 15//38 2//38
f 45//39 15//39 44//39
f 45//40 39//40 15//40
f 46//41 47//41 15//41
f 46//42 15//42 38//42
f 48//43 36//43 32//43
f 48//44 32//44 41//44
f 49//45 50//45 32//45
f 49//46 32//46 31//46
f 51//47 32//47 52//47
f 51//48 53//48 32//48
f 54//49 33//49 32//49
f 54//50 32//50 35//50
f 55//51 27//51 29//51
f 55//52 56//52 27//52
f 57//53 58//53 5//53
f 57//54 5//55 59//56
f 58//57 60//58 5//59
f 59//56 5//55 61//60
f 60//58 6//61 5//59
f 19//62 18//62 62//62
f 62//63 63//63 12//63
f 62//64 18//64 63//64
f 20//19 64//19 18//18
f 64//19 65//19 18//18
f 65//65 66//65 32//65
f 65//66 32//66 18//66
f 66//65 67//65 32//65
f 67//65 68//65 32//65
f 68//65 69//65 32//65
f 70//65 71//65 32//65
f 71//65 72//65 32//65
f 72//65 73//65 32//65
f 73//65 74//65 32//65
f 75//65 76//65 32//65
f 75//65 32//65 74//65
f 77//67 15//68 78//69
f 77//67 79//67 15//68
f 79//67 80//67 15//68
f 80//67 81//67 15//68
f 81//67 82//67 15//68
f 82//67 83//67 15//68
f 83//67 84//67 15//68
f 23//20 22//20 84//20
f 5//55 85//70 61//60
f 14//71 10//71 5//71
f 14//72 11//72 10//72
f 10//73 12//73 5//73
f 32//74 86//74 87//74
f 32//75 87//75 5//75
f 12//76 63//76 5//76
f 32//77 5//77 63//77
f 88//78 32//78 89//78
f 88//79 42//79 32//79
f 18//80 32//80 63//80
f 70//65 32//65 69//65
f 84//81 22//81 15//81
f 22//82 90//83 15//15
f 15//15 90//83 16//16
f 89//84 78//69 15//68
f 89//85 32//85 78//85
f 32//86 53//86 86//86
f 76//65 78//65 32//65
f 91//87 32//87 50//87
f 91//88 52//88 32//88
f 92//89 26//90 93//91
f 92//92 94//92 95//92
f 92//93 95//93 26//93
f 96//94 97//94 26//94
f 26//95 97//95 98//95
f 26//96 99//96 100//96
f 26//97 100//97 101//97
f 26//98 102//98 99//98
f 95//99 103//100 26//101
f 95//102 104//103 105//104
f 95//102 94//105 104//103
f 105//106 106//107 95//108
f 26//101 103//100 102//109
f 107//110 108//111 109//112
f 107//110 110//113 108//111
f 111//114 5//115 112//116
f 111//114 109//117 5//115
f 112//116 5//115 87//118
f 113//119 114//119 27//119
f 113//120 27//120 110//120
f 114//121 115//121 27//121
f 115//122 116//122 27//122
f 116//123 117//124 27//24
f 117//124 118//125 27//24
f 118//125 28//25 27//24
f 26//126 119//126 120//126
f 26//127 120//127 29//127
f 101//128 100//128 121//128
f 100//129 99//130 122//131
f 100//129 122//131 123//132
f 100//133 123//133 121//133
f 98//134 119//134 26//134
f 56//135 124//135 27//135
f 124//136 125//136 27//136
f 125//137 126//137 27//137
f 126//138 127//138 27//138
f 127//139 128//139 27//139
f 129//140 130//141 5//142
f 129//140 5//142 108//140
f 85//143 5//142 130//141
f 5//144 109//144 108//144
f 108//145 27//145 128//145
f 108//146 110//146 27//146
f 99//147 102//147 122//147
f 26//90 25//148 93//91
f 102//149 103//150 122//151
f 103//150 95//152 122//151
f 131//153 132//153 133//153
f 134//154 135//154 136//154
f 134//155 137//155 135//155
f 134//156 136//157 138//158
f 139//159 140//159 141//159
f 139//160 141//160 142//160
f 137//161 143//161 135//161
f 138//158 136//157 144//162
f 132//163 145//163 133//163
f 132//164 146//165 145//166
f 147//167 148//167 149//167
f 147//168 149//168 150//169
f 151//170 152//170 153//170
f 154//171 122//172 155//173
f 154//171 156//174 157//175
f 154//171 157//175 158//176
f 154//171 158//176 122//172
f 159//177 160//177 161//177
f 159//178 162//178 160//178
f 163//179 160//180 164//181
f 163//179 165//182 160//180
f 166//183 145//183 167//183
f 166//184 168//184 145//184
f 169//185 160//185 170//185
f 169//186 171//186 160//186
f 172//187 145//187 173//187
f 172//188 133//188 145//188
f 174//189 173//189 145//189
f 174//190 145//190 168//190
f 175//191 145//191 176//191
f 175//192 167//192 145//192
f 177//193 160//193 165//193
f 177//194 170//194 160//194
f 178//195 160//195 179//195
f 178//196 161//196 160//196
f 180//197 181//197 160//197
f 180//198 160//198 182//198
f 183//199 160//199 162//199
f 183//200 164//200 160//200
f 184//201 158//201 157//201
f 184//202 157//202 185//202
f 186//203 136//203 187//203
f 186//204 188//205 136//206
f 187//207 136//208 189//209
f 188//205 190//210 136//206
f 189//209 136//208 135//211
f 148//212 191//212 149//212
f 191//213 142//213 192//213
f 191//214 192//214 149//214
f 150//169 149//168 193//169
f 193//169 149//168 194//169
f 194//215 160//215 195//215
f 194//216 149//216 160//216
f 195//215 160//215 196//215
f 196//215 160//215 197//215
f 197//215 160//215 198//215
f 199//215 160//215 200//215
f 200//215 160//215 201//215
f 201//215 160//215 202//215
f 202//215 160//215 203//215
f 204//215 160//215 205//215
f 204//215 203//215 160//215
f 206//217 207//217 145//217
f 206//217 145//217 208//217
f 208//217 145//217 209//217
f 209//217 145//217 210//217
f 210//217 145//217 211//217
f 211//217 145//217 212//217
f 212//217 145//217 213//217
f 152//170 213//170 153//170
f 136//206 190//210 214//218
f 144//219 136//219 141//219
f 144//220 141//220 140//220
f 141//221 136//221 142//221
f 160//222 215//222 216//222
f 160//223 136//223 215//223
f 142//224 136//224 192//224
f 160//225 192//225 136//225
f 217//226 218//226 160//226
f 217//227 160//227 171//227
f 149//228 192//228 160//228
f 199//215 198//215 160//215
f 213//229 145//229 153//229
f 153//230 145//166 219//231
f 145//166 146//165 219//231
f 218//232 145//233 207//234
f 218//232 207//234 160//235
f 160//236 216//236 182//236
f 205//215 160//215 207//215
f 220//237 179//237 160//237
f 220//238 160//238 181//238
f 221//239 222//240 122//241
f 221//242 95//242 223//242
f 221//243 122//243 95//243
f 224//244 122//244 225//244
f 122//245 226//245 225//245
f 95//108 106//107 223//246
f 227//247 228//248 229//249
f 227//247 229//249 230//250
f 231//251 232//252 136//253
f 231//251 136//253 228//254
f 232//252 215//255 136//253
f 233//256 157//256 234//256
f 233//257 230//257 157//257
f 234//258 157//258 235//258
f 235//259 157//259 236//259
f 236//260 157//175 237//261
f 237//261 157//175 238//262
f 238//262 157//175 156//174
f 122//263 239//263 240//263
f 122//264 158//264 239//264
f 226//265 122//265 240//265
f 185//266 157//266 241//266
f 241//267 157//267 242//267
f 242//268 157//268 243//268
f 243//269 157//269 244//269
f 244//270 157//270 245//270
f 246//271 136//272 247//273
f 246//271 229//271 136//272
f 214//274 247//273 136//272
f 136//275 229//275 228//275
f 229//276 245//276 157//276
f 229//277 157//277 230//277
f 122//241 222//240 155//278
