# Blender v2.79 (sub 0) OBJ File: ''
# www.blender.org
mtllib crack_restart_keyway_100.mtl
o crack_restart_keyway_100
v 0.120406 -0.147382 -0.472461
v 0.120406 -0.147382 -0.457089
v 0.109368 -0.137419 -0.472461
v 0.072519 -0.113815 -0.446446
v 0.082984 -0.126914 -0.362591
v 0.071585 -0.114208 -0.433438
v 0.072785 -0.113453 -0.459453
v 0.087997 -0.123142 -0.472461
v 0.071670 -0.114393 -0.420431
v 0.071164 -0.114472 -0.407423
v 0.120406 -0.147382 -0.257263
v 0.112267 -0.145842 -0.260209
v 0.120406 -0.147382 -0.264949
v 0.120406 -0.147382 -0.248433
v 0.114613 -0.146554 -0.256184
v 0.120406 -0.147382 -0.272634
v 0.107899 -0.144356 -0.273278
v 0.120406 -0.147382 -0.280320
v 0.109121 -0.144800 -0.269649
v 0.120406 -0.147382 -0.288006
v 0.104692 -0.143069 -0.282958
v 0.120406 -0.147382 -0.295691
v 0.120406 -0.147382 -0.303377
v 0.103431 -0.142510 -0.335204
v 0.120406 -0.147382 -0.318748
v 0.120406 -0.147382 -0.334119
v 0.120406 -0.147382 -0.349490
v 0.120406 -0.147382 -0.364862
v 0.120406 -0.147382 -0.380233
v 0.120406 -0.147382 -0.395604
v 0.120406 -0.147382 -0.410975
v 0.120406 -0.147382 -0.426347
v 0.120406 -0.147382 -0.441718
v 0.103040 -0.132826 -0.472461
v 0.073469 -0.113209 -0.469063
v 0.073585 -0.113059 -0.472461
v 0.079337 -0.117171 -0.472461
v 0.071006 -0.114697 -0.400919
v 0.093793 -0.136269 -0.322789
v 0.093258 -0.135882 -0.325058
v 0.084371 -0.128209 -0.357273
v 0.089827 -0.133146 -0.337467
v 0.088696 -0.132239 -0.342088
v 0.091684 -0.134682 -0.331234
v 0.103431 -0.142510 -0.335204
v 0.078081 -0.122121 -0.377446
v 0.095173 -0.137389 -0.316720
v 0.111091 -0.145401 -0.263816
v 0.097793 -0.139463 -0.305966
v 0.098462 -0.139905 -0.303339
v 0.096277 -0.138385 -0.311931
v 0.099891 -0.140693 -0.298310
v 0.102505 -0.141976 -0.290209
v 0.120406 -0.147382 -0.257263
v 0.120406 -0.147382 -0.264949
v 0.085163 -0.128903 -0.354320
v 0.086122 -0.129942 -0.350384
v 0.076438 -0.120607 -0.382547
v 0.074691 -0.118995 -0.387251
v 0.070173 -0.115219 -0.393483
v 0.087319 -0.131180 -0.346568
v 0.071006 -0.114697 -0.400919
v 0.120406 -0.147382 -0.472461
v 0.109368 -0.137419 -0.472461
v 0.120406 -0.147382 -0.457089
v 0.072519 -0.113815 -0.446446
v 0.071585 -0.114208 -0.433438
v 0.087997 -0.123142 -0.472461
v 0.072785 -0.113453 -0.459453
v 0.071670 -0.114393 -0.420431
v 0.071164 -0.114472 -0.407423
v 0.120406 -0.147382 -0.272634
v 0.120406 -0.147382 -0.280320
v 0.120406 -0.147382 -0.288006
v 0.120406 -0.147382 -0.295691
v 0.120406 -0.147382 -0.303377
v 0.120406 -0.147382 -0.318748
v 0.120406 -0.147382 -0.334119
v 0.120406 -0.147382 -0.349490
v 0.120406 -0.147382 -0.364862
v 0.120406 -0.147382 -0.380233
v 0.120406 -0.147382 -0.395604
v 0.120406 -0.147382 -0.410975
v 0.120406 -0.147382 -0.426347
v 0.120406 -0.147382 -0.441718
v 0.103040 -0.132826 -0.472461
v 0.073469 -0.113209 -0.469063
v 0.079337 -0.117171 -0.472461
v 0.073585 -0.113059 -0.472461
vn -0.6700 -0.7423 0.0000
vn -0.5385 -0.8402 -0.0640
vn -0.5577 -0.8293 -0.0345
vn -0.5808 -0.8122 -0.0544
vn -0.7305 -0.6829 -0.0049
vn -0.6675 -0.7440 -0.0305
vn -0.1859 -0.9826 0.0000
vn -0.1415 -0.9899 0.0000
vn -0.1562 -0.9842 -0.0831
vn -0.2352 -0.9720 0.0000
vn -0.2330 -0.9716 -0.0404
vn -0.2230 -0.9748 0.0000
vn -0.2647 -0.9643 0.0000
vn -0.2759 -0.9612 0.0000
vn -0.4799 -0.8773 0.0000
vn -0.4818 -0.8661 -0.1335
vn -0.5541 -0.8295 -0.0699
vn 0.0000 0.0000 -1.0000
vn -0.5807 -0.8122 -0.0557
vn -0.5731 -0.8172 -0.0615
vn -0.5675 -0.8231 -0.0203
vn -0.5647 -0.8235 -0.0540
vn -0.6443 -0.7636 -0.0421
vn -0.5538 -0.8326 -0.0114
vn -0.5583 -0.8295 -0.0177
vn -0.5549 -0.8318 -0.0129
vn -0.5563 -0.8291 -0.0568
vn -0.5651 -0.8248 -0.0215
vn -0.5641 -0.8253 -0.0239
vn -0.5643 -0.8252 -0.0236
vn -0.5626 -0.8260 -0.0359
vn -0.5588 -0.8291 -0.0187
vn 0.5583 0.8295 0.0177
vn 0.5538 0.8326 0.0114
vn 0.5549 0.8318 0.0129
vn 0.5588 0.8291 0.0187
vn -0.2111 -0.9485 -0.2364
vn -0.5648 -0.8249 -0.0238
vn -0.2113 -0.9770 -0.0293
vn -0.5200 -0.8541 -0.0113
vn -0.5375 -0.8431 -0.0158
vn -0.3304 -0.9435 0.0256
vn -0.3021 -0.9512 -0.0632
vn -0.3026 -0.9512 -0.0599
vn -0.3034 -0.9513 -0.0541
vn 0.5648 0.8249 0.0238
vn -0.5819 -0.8125 -0.0348
vn 0.5819 0.8125 0.0348
vn -0.3033 -0.9515 -0.0520
vn -0.3034 -0.9514 -0.0524
vn 0.1859 0.9826 0.0000
vn -0.2135 -0.9757 -0.0497
vn 0.2135 0.9757 0.0497
vn 0.1562 0.9842 0.0831
vn -0.5695 -0.8210 -0.0402
vn 0.5695 0.8210 0.0402
vn -0.5301 -0.8428 -0.0933
vn 0.5301 0.8428 0.0933
vn 0.6298 -0.6656 -0.4004
vn -0.2604 -0.9389 -0.2250
vn -0.5353 -0.8363 -0.1187
vn 0.2113 0.9770 0.0293
vn 0.5626 0.8260 0.0359
vn 0.5640 0.8254 0.0254
vn 0.5628 0.8259 0.0344
vn -0.5169 -0.8485 -0.1131
vn 0.5169 0.8485 0.1131
vn 0.5375 0.8431 0.0158
vn 0.1415 0.9899 0.0000
vn -0.6298 0.6656 0.4004
vn 0.2604 0.9389 0.2250
vn 0.6700 0.7423 0.0000
vn 0.5082 0.8590 0.0624
vn 0.5577 0.8293 0.0345
vn 0.5775 0.8147 0.0515
vn 0.5758 0.8160 0.0514
vn 0.5761 0.8158 0.0514
vn 0.7577 0.6526 0.0043
vn 0.6782 0.7342 0.0308
vn 0.2352 0.9720 0.0000
vn 0.2330 0.9716 0.0404
vn 0.2230 0.9748 0.0000
vn 0.2647 0.9643 0.0000
vn 0.2759 0.9612 0.0000
vn 0.5125 0.8587 0.0000
vn 0.4789 0.8680 0.1315
vn 0.5541 0.8295 0.0699
vn 0.0000 0.0000 1.0000
vn 0.5807 0.8122 0.0557
vn 0.5731 0.8172 0.0615
vn 0.5675 0.8231 0.0203
vn 0.5671 0.8221 0.0504
vn 0.6536 0.7557 0.0420
vn 0.5563 0.8291 0.0568
vn 0.5641 0.8253 0.0239
vn 0.5200 0.8541 0.0113
vn 0.3304 0.9435 -0.0256
vn 0.3021 0.9512 0.0632
vn 0.3034 0.9513 0.0541
vn 0.3026 0.9512 0.0598
vn 0.3033 0.9515 0.0520
vn 0.3034 0.9514 0.0524
vn 0.5353 0.8363 0.1187
vn 0.5068 0.8552 0.1087
vn 0.5650 0.8248 0.0213
vn 0.2577 0.9653 0.0429
vn -0.5650 -0.8248 -0.0213
vn -0.2577 -0.9653 -0.0429
usemtl None.002
s 1
f 1//1 2//1 3//1
f 4//2 5//2 6//2
f 4//3 7//3 8//3
f 4//4 8//4 5//4
f 9//5 6//5 5//5
f 9//6 5//6 10//6
f 11//7 12//7 13//7
f 11//8 14//8 15//8
f 11//9 15//9 12//9
f 16//10 17//10 18//10
f 16//11 19//11 17//11
f 16//12 13//12 19//12
f 20//13 21//13 22//13
f 20//13 18//13 21//13
f 23//14 24//14 25//14
f 23//14 22//14 24//14
f 25//14 24//14 26//14
f 26//14 24//14 27//14
f 27//14 24//14 28//14
f 28//15 5//15 29//15
f 28//16 24//16 5//16
f 29//15 5//15 30//15
f 30//15 5//15 31//15
f 31//15 5//15 32//15
f 32//15 5//15 33//15
f 2//1 33//1 3//1
f 33//17 8//17 3//17
f 3//18 8//18 34//18
f 35//19 36//19 37//19
f 35//20 8//20 7//20
f 35//21 37//21 8//21
f 5//22 8//22 33//22
f 5//23 38//23 10//23
f 39//24 40//25 24//26
f 41//27 5//27 24//27
f 24//28 42//29 43//30
f 24//31 44//31 42//31
f 24//26 40//25 44//32
f 40//33 39//34 45//35
f 40//33 45//35 44//36
f 38//37 5//37 46//37
f 39//38 24//38 47//38
f 19//39 13//39 48//39
f 49//40 24//40 50//40
f 49//41 51//41 24//41
f 50//42 24//42 22//42
f 50//43 22//44 52//45
f 47//46 45//46 39//46
f 47//47 24//47 51//47
f 47//48 51//48 45//48
f 21//49 53//50 22//44
f 12//51 54//51 55//51
f 12//52 48//52 13//52
f 12//53 55//53 48//53
f 12//54 15//54 54//54
f 41//55 24//55 56//55
f 41//56 56//56 45//56
f 56//57 24//57 57//57
f 56//58 57//58 45//58
f 38//59 46//59 58//59
f 38//60 58//60 59//60
f 60//61 38//61 59//61
f 48//62 55//62 19//62
f 44//63 45//64 42//65
f 57//66 24//66 61//66
f 57//67 61//67 45//67
f 51//68 49//68 45//68
f 15//69 14//69 54//69
f 58//70 46//70 62//70
f 58//71 62//71 59//71
f 63//72 64//72 65//72
f 66//73 67//73 46//73
f 66//74 68//74 69//74
f 66//75 46//76 68//77
f 70//78 46//78 67//78
f 70//79 71//79 46//79
f 72//80 73//80 17//80
f 72//81 17//81 19//81
f 72//82 19//82 55//82
f 74//83 75//83 21//83
f 74//83 21//83 73//83
f 76//84 77//84 45//84
f 76//84 45//84 75//84
f 77//84 78//84 45//84
f 78//84 79//84 45//84
f 79//84 80//84 45//84
f 80//85 81//85 46//85
f 80//86 46//86 45//86
f 81//85 82//85 46//85
f 82//85 83//85 46//85
f 83//85 84//85 46//85
f 84//85 85//85 46//85
f 65//72 64//72 85//72
f 85//87 64//87 68//87
f 64//88 86//88 68//88
f 87//89 88//89 89//89
f 87//90 69//90 68//90
f 87//91 68//91 88//91
f 46//76 85//92 68//77
f 46//93 71//93 62//93
f 41//94 45//94 5//94
f 45//64 43//95 42//65
f 49//96 50//96 45//96
f 50//97 75//97 45//97
f 50//98 52//99 75//100
f 21//101 75//100 53//102
f 60//103 59//103 62//103
f 46//104 5//104 45//104
f 45//105 61//105 43//105
f 73//106 21//106 17//106
f 75//100 52//99 53//102
f 24//28 43//30 61//107
f 18//108 17//108 21//108
f 22//44 53//50 52//45
