# Blender v2.79 (sub 0) OBJ File: ''
# www.blender.org
mtllib crack_restart_keyway_535.mtl
o crack_restart_keyway_535
v 0.073460 -0.113147 -0.472461
v 0.072984 -0.113328 -0.459453
v 0.084777 -0.121318 -0.472461
v 0.147227 -0.162038 -0.087632
v 0.066522 -0.116024 0.026849
v 0.152178 -0.169048 -0.080801
v 0.150747 -0.164610 -0.087280
v 0.143382 -0.159202 -0.088100
v 0.131068 -0.149873 -0.089874
v 0.127482 -0.150693 -0.086893
v 0.135331 -0.153100 -0.089216
v 0.126540 -0.147825 -0.091832
v 0.154210 -0.167189 -0.086931
v 0.139559 -0.156340 -0.088640
v 0.120406 -0.147382 -0.426347
v 0.095895 -0.129399 -0.472461
v 0.120406 -0.147382 -0.103551
v 0.120406 -0.147382 -0.118922
v 0.105246 -0.138089 -0.082564
v 0.114630 -0.144476 -0.094848
v 0.120866 -0.146923 -0.098614
v 0.120406 -0.147382 -0.472461
v 0.108167 -0.138377 -0.472461
v 0.120406 -0.147382 -0.457089
v 0.072346 -0.113938 -0.290356
v 0.104076 -0.139933 -0.265445
v 0.071815 -0.114063 -0.303364
v 0.072672 -0.113524 -0.277349
v 0.072670 -0.113708 -0.446446
v 0.071878 -0.114023 -0.433438
v 0.071654 -0.114402 -0.342386
v 0.120406 -0.147382 -0.334119
v 0.070647 -0.114797 -0.355393
v 0.071501 -0.114260 -0.329378
v 0.071473 -0.114502 -0.420431
v 0.070715 -0.114921 -0.368401
v 0.091342 -0.129111 -0.420534
v 0.070225 -0.115062 -0.381408
v 0.073070 -0.113424 -0.264341
v 0.073125 -0.113240 -0.251334
v 0.073498 -0.113120 -0.238326
v 0.076501 -0.111119 -0.121259
v 0.106596 -0.141673 -0.120724
v 0.075545 -0.111668 -0.134267
v 0.077105 -0.110561 -0.108252
v 0.076247 -0.111205 -0.096215
v 0.074721 -0.112000 -0.081618
v 0.071637 -0.114411 -0.316371
v 0.074087 -0.112703 -0.212311
v 0.073894 -0.112757 -0.225319
v 0.074030 -0.112671 -0.199304
v 0.146672 -0.173821 -0.061431
v 0.148181 -0.172556 -0.068127
v 0.144617 -0.175266 -0.046073
v 0.150212 -0.170791 -0.074843
v 0.122213 -0.145575 -0.094013
v 0.115965 -0.144849 -0.090503
v 0.120406 -0.147382 -0.134293
v 0.120406 -0.147382 -0.149664
v 0.120406 -0.147382 -0.165036
v 0.120406 -0.147382 -0.180407
v 0.120406 -0.147382 -0.195778
v 0.120406 -0.147382 -0.211149
v 0.120406 -0.147382 -0.226521
v 0.120406 -0.147382 -0.241892
v 0.120406 -0.147382 -0.257263
v 0.120406 -0.147382 -0.272634
v 0.120406 -0.147382 -0.288006
v 0.120406 -0.147382 -0.303377
v 0.120406 -0.147382 -0.318748
v 0.120406 -0.147382 -0.349490
v 0.120406 -0.147382 -0.364862
v 0.120406 -0.147382 -0.380233
v 0.120406 -0.147382 -0.395604
v 0.120406 -0.147382 -0.410975
v 0.120406 -0.147382 -0.441718
v 0.123812 -0.150390 -0.083270
v 0.070489 -0.112486 -0.050664
v 0.069331 -0.114473 -0.026868
v 0.070931 -0.114618 -0.407423
v 0.074198 -0.112624 -0.186296
v 0.074627 -0.112296 -0.173289
v 0.074782 -0.112331 -0.166392
v 0.074810 -0.112190 -0.160281
v 0.075001 -0.112185 -0.153718
v 0.103550 -0.134996 -0.472461
v 0.070744 -0.114905 -0.394416
v 0.075392 -0.111924 -0.141637
v 0.075102 -0.111998 -0.147274
v 0.066503 -0.114053 -0.001444
v 0.066401 -0.115320 0.015961
v 0.133881 -0.182981 0.037013
v 0.135846 -0.181396 0.019154
v 0.105596 -0.162560 0.085090
v 0.131167 -0.184598 0.066778
v 0.066917 -0.115471 0.058258
v 0.080565 -0.133282 0.068063
v 0.129818 -0.185804 0.081665
v 0.143389 -0.175815 -0.038726
v 0.141518 -0.176761 -0.027598
v 0.139678 -0.178336 -0.011447
v 0.093343 -0.148389 0.078658
v 0.114284 -0.171790 0.088476
v 0.128489 -0.186625 0.093983
v 0.129818 -0.185804 0.081665
v 0.066522 -0.116024 0.026849
v 0.073460 -0.113147 -0.472461
v 0.084777 -0.121318 -0.472461
v 0.072984 -0.113328 -0.459453
v 0.147227 -0.162038 -0.087632
v 0.152178 -0.169048 -0.080801
v 0.150747 -0.164610 -0.087280
v 0.143382 -0.159202 -0.088100
v 0.131068 -0.149873 -0.089874
v 0.135331 -0.153100 -0.089216
v 0.127482 -0.150693 -0.086893
v 0.126540 -0.147825 -0.091832
v 0.154210 -0.167189 -0.086931
v 0.139559 -0.156340 -0.088640
v 0.120406 -0.147382 -0.426347
v 0.095895 -0.129399 -0.472461
v 0.120406 -0.147382 -0.103551
v 0.105246 -0.138089 -0.082564
v 0.120406 -0.147382 -0.118922
v 0.120866 -0.146923 -0.098614
v 0.114630 -0.144476 -0.094848
v 0.120406 -0.147382 -0.472461
v 0.120406 -0.147382 -0.457089
v 0.108167 -0.138377 -0.472461
v 0.072346 -0.113938 -0.290356
v 0.071815 -0.114063 -0.303364
v 0.104076 -0.139933 -0.265445
v 0.072672 -0.113524 -0.277349
v 0.072670 -0.113708 -0.446446
v 0.071878 -0.114023 -0.433438
v 0.071654 -0.114402 -0.342386
v 0.070647 -0.114797 -0.355393
v 0.120406 -0.147382 -0.334119
v 0.071501 -0.114260 -0.329378
v 0.071473 -0.114502 -0.420431
v 0.070715 -0.114921 -0.368401
v 0.091342 -0.129111 -0.420534
v 0.070225 -0.115062 -0.381408
v 0.073070 -0.113424 -0.264341
v 0.073498 -0.113120 -0.238326
v 0.073125 -0.113240 -0.251334
v 0.076501 -0.111119 -0.121259
v 0.075545 -0.111668 -0.134267
v 0.106596 -0.141673 -0.120724
v 0.077105 -0.110561 -0.108252
v 0.076247 -0.111205 -0.096215
v 0.074721 -0.112000 -0.081618
v 0.071637 -0.114411 -0.316371
v 0.074087 -0.112703 -0.212311
v 0.073894 -0.112757 -0.225319
v 0.074030 -0.112671 -0.199304
v 0.146672 -0.173821 -0.061431
v 0.148181 -0.172556 -0.068127
v 0.144617 -0.175266 -0.046073
v 0.150212 -0.170791 -0.074843
v 0.122213 -0.145575 -0.094013
v 0.115965 -0.144849 -0.090503
v 0.120406 -0.147382 -0.134293
v 0.120406 -0.147382 -0.149664
v 0.120406 -0.147382 -0.165036
v 0.120406 -0.147382 -0.180407
v 0.120406 -0.147382 -0.195778
v 0.120406 -0.147382 -0.211149
v 0.120406 -0.147382 -0.226521
v 0.120406 -0.147382 -0.241892
v 0.120406 -0.147382 -0.257263
v 0.120406 -0.147382 -0.272634
v 0.120406 -0.147382 -0.288006
v 0.120406 -0.147382 -0.303377
v 0.120406 -0.147382 -0.318748
v 0.120406 -0.147382 -0.349490
v 0.120406 -0.147382 -0.364862
v 0.120406 -0.147382 -0.380233
v 0.120406 -0.147382 -0.395604
v 0.120406 -0.147382 -0.410975
v 0.120406 -0.147382 -0.441718
v 0.123812 -0.150390 -0.083270
v 0.069331 -0.114473 -0.026868
v 0.070489 -0.112486 -0.050664
v 0.070931 -0.114618 -0.407423
v 0.074198 -0.112624 -0.186296
v 0.074627 -0.112296 -0.173289
v 0.074810 -0.112190 -0.160281
v 0.074782 -0.112331 -0.166392
v 0.075001 -0.112185 -0.153718
v 0.103550 -0.134996 -0.472461
v 0.070744 -0.114905 -0.394416
v 0.075392 -0.111924 -0.141637
v 0.075102 -0.111998 -0.147274
v 0.066503 -0.114053 -0.001444
v 0.066401 -0.115320 0.015961
v 0.135846 -0.181396 0.019154
v 0.133881 -0.182981 0.037013
v 0.131167 -0.184598 0.066778
v 0.143389 -0.175815 -0.038726
v 0.141518 -0.176761 -0.027598
v 0.139678 -0.178336 -0.011447
vn -0.5851 -0.8103 -0.0327
vn -0.6911 -0.6919 -0.2091
vn -0.5126 -0.7570 -0.4053
vn -0.5179 -0.7525 -0.4069
vn -0.5134 -0.7572 -0.4039
vn -0.5844 -0.8067 -0.0877
vn -0.5864 -0.8050 -0.0897
vn -0.5883 -0.8039 -0.0876
vn -0.3920 -0.6505 -0.6505
vn -0.1895 -0.8644 -0.4658
vn -0.5208 -0.7536 -0.4012
vn -0.5884 -0.8033 -0.0917
vn -0.5747 -0.8182 -0.0184
vn -0.5879 -0.8089 -0.0029
vn -0.5898 -0.8075 -0.0034
vn -0.5891 -0.8081 -0.0021
vn -0.5226 -0.8526 0.0000
vn -0.3013 -0.9464 0.1161
vn -0.8099 -0.4364 -0.3918
vn -0.5926 -0.8055 0.0000
vn -0.5925 -0.8056 -0.0009
vn -0.6483 -0.7604 0.0394
vn -0.6450 -0.7635 0.0329
vn -0.6474 -0.7616 0.0306
vn -0.6520 -0.7571 0.0404
vn -0.5603 -0.8265 -0.0541
vn -0.5607 -0.8265 -0.0510
vn -0.5602 -0.8270 -0.0482
vn -0.5670 -0.8209 0.0688
vn -0.5606 -0.8281 0.0024
vn -0.5611 -0.8264 -0.0479
vn -0.5582 -0.8297 0.0050
vn -0.5162 -0.8560 0.0287
vn -0.1973 -0.9802 0.0147
vn -0.6491 -0.7603 0.0257
vn -0.6493 -0.7603 0.0196
vn -0.7108 -0.6987 0.0817
vn -0.7116 -0.6998 0.0631
vn -0.7482 -0.6537 -0.1138
vn -0.7478 -0.6542 -0.1131
vn -0.7471 -0.6549 -0.1134
vn -0.7404 -0.6664 -0.0884
vn -0.6460 -0.7628 0.0292
vn -0.6157 -0.7880 -0.0027
vn -0.6595 -0.7516 0.0129
vn -0.6733 -0.7393 -0.0011
vn -0.7458 -0.6034 -0.2821
vn -0.6865 -0.7097 -0.1586
vn -0.6839 -0.7105 -0.1659
vn -0.6902 -0.7042 -0.1666
vn -0.7795 -0.5064 -0.3688
vn -0.7892 -0.4682 -0.3974
vn -0.1705 -0.9310 0.3227
vn -0.2941 -0.8938 -0.3386
vn -0.1387 -0.9894 -0.0423
vn -0.3820 -0.9241 0.0000
vn -0.4150 -0.9098 0.0000
vn -0.5322 -0.8466 0.0000
vn -0.3106 -0.9413 0.1322
vn -0.4531 -0.6914 -0.5627
vn -0.5504 -0.8349 0.0086
vn -0.6453 -0.7580 -0.0947
vn -0.4461 -0.8083 -0.3843
vn -0.5570 -0.8285 0.0581
vn -0.2944 -0.8857 -0.3591
vn -0.5544 -0.8315 -0.0366
vn -0.5528 -0.8328 -0.0277
vn -0.5480 -0.8359 -0.0307
vn -0.5529 -0.8324 -0.0378
vn -0.3577 -0.8883 -0.2880
vn -0.5435 -0.7364 -0.4030
vn -0.5911 -0.8058 -0.0345
vn -0.5893 -0.8073 -0.0310
vn -0.5922 -0.8052 -0.0319
vn -0.6125 -0.7894 0.0406
vn -0.6126 -0.7893 0.0411
vn -0.6122 -0.7897 0.0407
vn -0.6583 -0.7527 0.0112
vn -0.6124 -0.7896 0.0401
vn -0.6088 -0.7931 0.0209
vn -0.6096 -0.7925 0.0196
vn -0.6094 -0.7927 0.0153
vn -0.6094 -0.7928 0.0097
vn -0.6097 -0.7924 0.0183
vn -0.5654 -0.8240 -0.0377
vn -0.5904 -0.8071 -0.0010
vn -0.6246 -0.7752 -0.0948
vn -0.4908 -0.8679 0.0763
vn -0.5979 -0.8011 -0.0279
vn -0.5958 -0.8024 -0.0335
vn -0.3891 -0.9183 0.0725
vn -0.7049 -0.7079 0.0451
vn -0.7032 -0.7100 0.0393
vn -0.7057 -0.7073 0.0401
vn -0.7051 -0.7076 0.0456
vn -0.6994 -0.7140 0.0317
vn -0.6380 -0.7689 0.0409
vn -0.6060 -0.7936 -0.0543
vn -0.6138 -0.7871 -0.0605
vn -0.6198 -0.7827 -0.0563
vn -0.6151 -0.7861 -0.0608
vn -0.5888 -0.8070 -0.0456
vn -0.6875 -0.7127 -0.1389
vn -0.6937 -0.7130 -0.1024
vn -0.6916 -0.7145 -0.1059
vn -0.6918 -0.7142 -0.1065
vn -0.6935 -0.7132 -0.1020
vn -0.7990 -0.6009 0.0206
vn -0.6962 -0.7077 -0.1204
vn -0.7475 -0.6547 -0.1125
vn -0.6905 -0.7035 -0.1680
vn -0.6935 -0.6986 -0.1760
vn -0.6850 -0.7135 -0.1476
vn -0.6836 -0.7130 -0.1559
vn -0.6860 -0.7123 -0.1488
vn -0.6867 -0.7098 -0.1570
vn -0.5632 -0.8252 -0.0444
vn -0.7584 -0.6516 -0.0144
vn -0.7509 -0.6600 -0.0235
vn -0.6959 -0.7051 -0.1364
vn -0.6938 -0.7097 -0.1222
vn 0.6938 0.7097 0.1222
vn 0.6959 0.7051 0.1364
vn 0.7584 0.6516 0.0144
vn 0.7990 0.6009 -0.0206
vn 0.7509 0.6600 0.0235
vn 0.5851 0.8103 0.0327
vn 0.6911 0.6919 0.2091
vn 0.5126 0.7570 0.4053
vn 0.5844 0.8067 0.0877
vn 0.5883 0.8039 0.0876
vn 0.5864 0.8050 0.0897
vn 0.3920 0.6505 0.6505
vn 0.1895 0.8644 0.4658
vn 0.5208 0.7536 0.4012
vn 0.5884 0.8033 0.0917
vn 0.5747 0.8182 0.0184
vn 0.5879 0.8089 0.0029
vn 0.5907 0.8069 0.0010
vn 0.5898 0.8075 0.0034
vn 0.5226 0.8526 0.0000
vn 0.3013 0.9464 -0.1161
vn 0.8099 0.4364 0.3918
vn 0.5926 0.8055 0.0000
vn 0.6483 0.7604 -0.0394
vn 0.6474 0.7616 -0.0306
vn 0.6450 0.7635 -0.0328
vn 0.6520 0.7571 -0.0404
vn 0.5603 0.8265 0.0541
vn 0.5602 0.8270 0.0482
vn 0.5607 0.8265 0.0510
vn 0.5670 0.8209 -0.0688
vn 0.5606 0.8281 -0.0024
vn 0.5611 0.8264 0.0479
vn 0.5582 0.8297 -0.0050
vn 0.5519 0.8339 -0.0020
vn 0.5563 0.8309 -0.0101
vn 0.5162 0.8560 -0.0287
vn 0.1973 0.9802 -0.0147
vn 0.6492 0.7603 -0.0226
vn 0.6486 0.7608 -0.0248
vn 0.6491 0.7603 -0.0257
vn 0.6493 0.7603 -0.0196
vn 0.7108 0.6987 -0.0817
vn 0.7116 0.6998 -0.0631
vn 0.7482 0.6537 0.1138
vn 0.7471 0.6549 0.1134
vn 0.7478 0.6542 0.1131
vn 0.7404 0.6664 0.0884
vn 0.6460 0.7628 -0.0292
vn 0.6157 0.7880 0.0027
vn 0.6595 0.7516 -0.0129
vn 0.6733 0.7393 0.0011
vn 0.7458 0.6034 0.2821
vn 0.6865 0.7097 0.1586
vn 0.7795 0.5064 0.3688
vn 0.7892 0.4682 0.3974
vn 0.1705 0.9310 -0.3227
vn 0.2941 0.8938 0.3386
vn 0.1387 0.9894 0.0423
vn 0.3820 0.9241 0.0000
vn 0.4150 0.9098 0.0000
vn 0.5322 0.8466 0.0000
vn 0.3106 0.9413 -0.1322
vn 0.4531 0.6914 0.5627
vn 0.5504 0.8349 -0.0086
vn 0.6453 0.7580 0.0947
vn 0.4461 0.8083 0.3843
vn 0.5570 0.8285 -0.0581
vn 0.2944 0.8857 0.3591
vn 0.5544 0.8315 0.0365
vn 0.5480 0.8359 0.0307
vn 0.5528 0.8328 0.0277
vn 0.5529 0.8324 0.0378
vn 0.3577 0.8883 0.2880
vn 0.5435 0.7364 0.4030
vn 0.5911 0.8058 0.0345
vn 0.5922 0.8052 0.0319
vn 0.5894 0.8073 0.0310
vn 0.6126 0.7893 -0.0411
vn 0.6583 0.7527 -0.0112
vn 0.6124 0.7896 -0.0401
vn 0.6088 0.7931 -0.0209
vn 0.6094 0.7927 -0.0153
vn 0.6096 0.7925 -0.0196
vn 0.6094 0.7928 -0.0097
vn 0.6097 0.7924 -0.0183
vn 0.5654 0.8240 0.0377
vn 0.5908 0.8068 0.0007
vn 0.5904 0.8071 0.0010
vn 0.6246 0.7752 0.0948
vn 0.4908 0.8679 -0.0763
vn 0.5980 0.8010 0.0278
vn 0.5958 0.8024 0.0335
vn 0.3891 0.9183 -0.0725
vn 0.7049 0.7079 -0.0451
vn 0.7057 0.7073 -0.0401
vn 0.7032 0.7100 -0.0393
vn 0.7051 0.7076 -0.0456
vn 0.6994 0.7140 -0.0317
vn 0.6380 0.7689 -0.0409
vn 0.6060 0.7936 0.0543
vn 0.6199 0.7827 0.0563
vn 0.6138 0.7871 0.0605
vn 0.6151 0.7861 0.0608
vn 0.5888 0.8070 0.0456
vn 0.6875 0.7127 0.1389
vn 0.6918 0.7142 0.1065
vn 0.6935 0.7132 0.1020
vn 0.6962 0.7077 0.1204
vn 0.7475 0.6547 0.1125
vn 0.6884 0.7040 0.1743
vn 0.6905 0.7035 0.1680
vn 0.6911 0.7028 0.1688
vn 0.6935 0.6986 0.1760
vn 0.6850 0.7135 0.1476
vn 0.6860 0.7123 0.1488
vn 0.6836 0.7130 0.1559
vn 0.6867 0.7098 0.1570
vn 0.5632 0.8252 0.0444
usemtl None.098
s 1
f 1//1 3//1 2//1
f 4//2 6//2 5//2
f 4//3 7//4 6//5
f 4//6 5//7 8//8
f 9//9 11//9 10//9
f 9//10 10//10 12//10
f 7//4 13//11 6//5
f 8//8 5//7 14//12
f 3//13 15//13 2//13
f 3//14 16//15 15//16
f 17//17 19//17 18//17
f 17//18 21//18 20//18
f 17//19 20//19 19//19
f 22//20 24//20 23//21
f 25//22 27//23 26//24
f 25//22 26//24 28//25
f 29//26 15//27 30//28
f 31//29 33//29 32//29
f 31//30 32//30 34//30
f 35//31 30//28 15//27
f 36//32 37//32 33//32
f 36//33 38//33 37//33
f 39//34 41//34 40//34
f 39//35 28//35 26//35
f 39//36 26//36 41//36
f 42//37 44//37 43//37
f 42//38 43//38 45//38
f 46//39 43//40 47//41
f 46//42 45//42 43//42
f 48//43 26//24 27//23
f 48//44 34//44 26//44
f 49//45 50//45 26//45
f 49//46 26//46 51//46
f 52//47 5//47 53//47
f 52//48 54//49 5//50
f 53//51 5//51 55//51
f 55//52 5//52 6//52
f 21//53 56//53 20//53
f 56//54 12//54 57//54
f 56//55 57//55 20//55
f 18//56 43//56 58//56
f 58//56 43//56 59//56
f 59//56 43//56 60//56
f 60//57 26//57 61//57
f 61//57 26//57 62//57
f 62//57 26//57 63//57
f 64//57 26//57 65//57
f 65//57 26//57 66//57
f 66//57 26//57 67//57
f 67//57 26//57 68//57
f 68//57 26//57 69//57
f 69//57 26//57 70//57
f 71//58 32//58 37//58
f 71//58 37//58 72//58
f 72//58 37//58 73//58
f 73//58 37//58 74//58
f 74//58 37//58 75//58
f 24//20 76//20 23//21
f 14//59 5//59 77//59
f 14//60 77//60 11//60
f 37//61 32//61 33//61
f 19//62 79//62 78//62
f 77//63 12//63 10//63
f 43//64 19//64 78//64
f 12//65 77//65 57//65
f 77//66 5//67 19//68
f 77//66 19//68 57//69
f 77//70 10//70 11//70
f 37//58 15//58 75//58
f 37//71 35//71 15//71
f 37//72 80//73 35//74
f 64//57 63//57 26//57
f 81//75 26//76 60//77
f 81//78 51//78 26//78
f 81//75 60//77 82//79
f 60//80 84//81 83//82
f 60//80 83//82 82//83
f 60//80 85//84 84//81
f 29//85 2//85 15//85
f 76//20 15//16 23//21
f 23//21 15//16 86//86
f 15//16 16//15 86//86
f 60//87 43//87 85//87
f 20//88 57//88 19//88
f 87//89 37//72 38//90
f 87//89 80//73 37//72
f 43//91 18//91 19//91
f 43//92 44//93 88//94
f 43//92 88//94 89//95
f 43//96 89//96 85//96
f 50//97 41//97 26//97
f 79//98 19//99 90//100
f 91//101 90//100 19//99
f 91//102 19//102 5//102
f 5//103 93//103 92//103
f 5//104 95//105 94//106
f 5//104 92//107 95//105
f 96//108 5//108 97//108
f 94//109 95//109 98//109
f 47//41 43//40 78//110
f 99//111 5//50 54//49
f 99//112 100//112 5//112
f 100//113 101//114 5//115
f 101//114 93//116 5//115
f 26//117 34//117 32//117
f 26//57 32//57 70//57
f 5//118 102//118 97//118
f 5//119 94//119 102//119
f 98//120 103//120 94//120
f 98//121 104//121 103//121
f 104//122 105//122 103//122
f 103//123 105//123 94//123
f 97//124 102//124 106//124
f 97//125 106//125 96//125
f 102//126 94//126 106//126
f 107//127 109//127 108//127
f 110//128 106//128 111//128
f 110//129 111//129 112//129
f 110//130 113//131 106//132
f 114//133 116//133 115//133
f 114//134 117//134 116//134
f 112//135 111//135 118//135
f 113//131 119//136 106//132
f 108//137 109//137 120//137
f 108//138 120//139 121//140
f 122//141 124//141 123//141
f 122//142 126//142 125//142
f 122//143 123//143 126//143
f 127//144 129//144 128//144
f 130//145 132//146 131//147
f 130//145 133//148 132//146
f 134//149 135//150 120//151
f 136//152 138//152 137//152
f 136//153 139//153 138//153
f 140//154 120//151 135//150
f 141//155 137//156 142//157
f 141//158 142//158 143//158
f 144//159 146//159 145//159
f 144//160 132//161 133//162
f 144//160 145//163 132//161
f 147//164 149//164 148//164
f 147//165 150//165 149//165
f 151//166 152//167 149//168
f 151//169 149//169 150//169
f 153//170 131//147 132//146
f 153//171 132//171 139//171
f 154//172 132//172 155//172
f 154//173 156//173 132//173
f 157//174 158//174 106//174
f 157//175 106//175 159//175
f 158//176 160//176 106//176
f 160//177 111//177 106//177
f 125//178 126//178 161//178
f 161//179 162//179 117//179
f 161//180 126//180 162//180
f 124//181 163//181 149//181
f 163//181 164//181 149//181
f 164//181 165//181 149//181
f 165//182 166//182 132//182
f 166//182 167//182 132//182
f 167//182 168//182 132//182
f 169//182 170//182 132//182
f 170//182 171//182 132//182
f 171//182 172//182 132//182
f 172//182 173//182 132//182
f 173//182 174//182 132//182
f 174//182 175//182 132//182
f 176//183 142//183 138//183
f 176//183 177//183 142//183
f 177//183 178//183 142//183
f 178//183 179//183 142//183
f 179//183 180//183 142//183
f 128//144 129//144 181//144
f 119//184 182//184 106//184
f 119//185 115//185 182//185
f 142//157 137//156 138//186
f 123//187 184//187 183//187
f 182//188 116//188 117//188
f 149//189 184//189 123//189
f 117//190 162//190 182//190
f 182//191 123//192 106//193
f 182//191 162//194 123//192
f 182//195 115//195 116//195
f 142//183 180//183 120//183
f 142//196 120//196 140//196
f 142//197 140//198 185//199
f 169//182 132//182 168//182
f 186//200 165//200 132//200
f 186//201 132//201 156//201
f 186//202 187//202 165//202
f 165//203 189//204 188//205
f 165//203 187//206 189//204
f 165//203 188//205 190//207
f 134//208 120//208 109//208
f 181//144 129//144 120//144
f 129//209 191//210 120//139
f 120//139 191//210 121//140
f 165//211 190//211 149//211
f 126//212 123//212 162//212
f 192//213 143//214 142//197
f 192//213 142//197 185//199
f 149//215 123//215 124//215
f 149//216 193//217 148//218
f 149//216 194//219 193//217
f 149//220 190//220 194//220
f 155//221 132//221 145//221
f 183//222 195//223 123//224
f 196//225 123//224 195//223
f 196//226 106//226 123//226
f 106//227 198//227 197//227
f 106//228 94//228 199//228
f 106//229 199//229 198//229
f 94//230 105//230 199//230
f 152//167 184//231 149//168
f 200//232 159//233 106//234
f 200//232 106//234 201//235
f 201//236 106//237 202//238
f 202//238 106//237 197//239
f 132//240 138//240 139//240
f 132//182 175//182 138//182
