# Blender v2.79 (sub 0) OBJ File: ''
# www.blender.org
mtllib crack_restart_keyway_275.mtl
o crack_restart_keyway_275
v 0.073499 -0.113119 -0.472461
v 0.072798 -0.113445 -0.459453
v 0.085122 -0.121100 -0.472461
v 0.120406 -0.147382 -0.103551
v 0.120406 -0.147382 -0.118922
v 0.108917 -0.142757 -0.104061
v 0.115830 -0.146204 -0.102110
v 0.120866 -0.146923 -0.098614
v 0.120406 -0.147382 -0.472461
v 0.103168 -0.133373 -0.472461
v 0.120406 -0.147382 -0.457089
v 0.108959 -0.137746 -0.472461
v 0.072686 -0.113696 -0.290356
v 0.072644 -0.113542 -0.277349
v 0.072866 -0.113568 -0.264341
v 0.078931 -0.116487 -0.221972
v 0.071595 -0.114434 -0.316371
v 0.071479 -0.114274 -0.303364
v 0.072600 -0.113757 -0.446446
v 0.071652 -0.114166 -0.433438
v 0.071282 -0.114607 -0.420431
v 0.070880 -0.114650 -0.407423
v 0.070676 -0.114942 -0.368401
v 0.070835 -0.114679 -0.355393
v 0.070485 -0.114898 -0.381408
v 0.073142 -0.113229 -0.251334
v 0.076533 -0.111098 -0.121259
v 0.076807 -0.110868 -0.113019
v 0.075935 -0.111521 -0.127763
v 0.071340 -0.114576 -0.342386
v 0.071565 -0.114220 -0.329378
v 0.117514 -0.146244 -0.096603
v 0.121539 -0.146249 -0.096313
v 0.122213 -0.145575 -0.094013
v 0.122461 -0.146464 -0.091425
v 0.123285 -0.144503 -0.092038
v 0.117998 -0.146256 -0.094021
v 0.119198 -0.146415 -0.091184
v 0.120406 -0.147382 -0.134293
v 0.120406 -0.147382 -0.149664
v 0.120406 -0.147382 -0.165036
v 0.120406 -0.147382 -0.180407
v 0.120406 -0.147382 -0.195778
v 0.120406 -0.147382 -0.211149
v 0.120406 -0.147382 -0.226521
v 0.120406 -0.147382 -0.241892
v 0.120406 -0.147382 -0.257263
v 0.120406 -0.147382 -0.272634
v 0.120406 -0.147382 -0.288006
v 0.120406 -0.147382 -0.303377
v 0.120406 -0.147382 -0.334119
v 0.120406 -0.147382 -0.349490
v 0.120406 -0.147382 -0.318748
v 0.120406 -0.147382 -0.364862
v 0.120406 -0.147382 -0.380233
v 0.120406 -0.147382 -0.395604
v 0.120406 -0.147382 -0.410975
v 0.120406 -0.147382 -0.426347
v 0.120406 -0.147382 -0.441718
v 0.101119 -0.135580 -0.094186
v 0.096735 -0.128729 -0.472461
v 0.114693 -0.144525 -0.090780
v 0.111591 -0.143059 -0.091050
v 0.070742 -0.114906 -0.394416
v 0.075196 -0.112055 -0.141232
v 0.074874 -0.112141 -0.147274
v 0.075379 -0.111786 -0.134267
v 0.074632 -0.112302 -0.224830
v 0.074490 -0.112417 -0.212311
v 0.075043 -0.112157 -0.153633
v 0.075035 -0.112030 -0.160281
v 0.074194 -0.112724 -0.207415
v 0.073389 -0.113074 -0.199304
v 0.073867 -0.112943 -0.242547
v 0.074367 -0.112609 -0.233073
v 0.074568 -0.112475 -0.180629
v 0.074847 -0.112157 -0.173289
v 0.074276 -0.112568 -0.186296
v 0.074071 -0.112807 -0.190938
v 0.075018 -0.112174 -0.166879
v 0.108458 -0.141207 -0.091321
v 0.081014 -0.114602 -0.109395
v 0.079004 -0.112906 -0.111662
v 0.108917 -0.142757 -0.104061
v 0.095237 -0.130021 -0.097719
v 0.098415 -0.133176 -0.096040
v 0.092586 -0.127201 -0.099496
v 0.090951 -0.125505 -0.100877
v 0.089724 -0.123987 -0.101605
v 0.086551 -0.120702 -0.104609
v 0.118243 -0.145957 -0.090310
v 0.119198 -0.146415 -0.091184
v 0.119305 -0.146545 -0.090382
v 0.076533 -0.111098 -0.121259
v 0.073499 -0.113119 -0.472461
v 0.085122 -0.121100 -0.472461
v 0.072798 -0.113445 -0.459453
v 0.120406 -0.147382 -0.103551
v 0.120406 -0.147382 -0.118922
v 0.120866 -0.146923 -0.098614
v 0.115830 -0.146204 -0.102110
v 0.120406 -0.147382 -0.472461
v 0.120406 -0.147382 -0.457089
v 0.103168 -0.133373 -0.472461
v 0.108959 -0.137746 -0.472461
v 0.072686 -0.113696 -0.290356
v 0.072866 -0.113568 -0.264341
v 0.072644 -0.113542 -0.277349
v 0.078931 -0.116487 -0.221972
v 0.071479 -0.114274 -0.303364
v 0.071595 -0.114434 -0.316371
v 0.072600 -0.113757 -0.446446
v 0.071652 -0.114166 -0.433438
v 0.071282 -0.114607 -0.420431
v 0.070880 -0.114650 -0.407423
v 0.070676 -0.114942 -0.368401
v 0.070835 -0.114679 -0.355393
v 0.070485 -0.114898 -0.381408
v 0.073142 -0.113229 -0.251334
v 0.075935 -0.111521 -0.127763
v 0.071565 -0.114220 -0.329378
v 0.071340 -0.114576 -0.342386
v 0.121539 -0.146249 -0.096313
v 0.117514 -0.146244 -0.096603
v 0.122213 -0.145575 -0.094013
v 0.123285 -0.144503 -0.092038
v 0.117998 -0.146256 -0.094021
v 0.120406 -0.147382 -0.134293
v 0.120406 -0.147382 -0.149664
v 0.120406 -0.147382 -0.165036
v 0.120406 -0.147382 -0.180407
v 0.120406 -0.147382 -0.195778
v 0.120406 -0.147382 -0.211149
v 0.120406 -0.147382 -0.226521
v 0.120406 -0.147382 -0.241892
v 0.120406 -0.147382 -0.257263
v 0.120406 -0.147382 -0.272634
v 0.120406 -0.147382 -0.288006
v 0.120406 -0.147382 -0.303377
v 0.120406 -0.147382 -0.334119
v 0.120406 -0.147382 -0.349490
v 0.120406 -0.147382 -0.318748
v 0.120406 -0.147382 -0.364862
v 0.120406 -0.147382 -0.380233
v 0.120406 -0.147382 -0.395604
v 0.120406 -0.147382 -0.410975
v 0.120406 -0.147382 -0.426347
v 0.120406 -0.147382 -0.441718
v 0.096735 -0.128729 -0.472461
v 0.070742 -0.114906 -0.394416
v 0.075196 -0.112055 -0.141232
v 0.074874 -0.112141 -0.147274
v 0.075379 -0.111786 -0.134267
v 0.074632 -0.112302 -0.224830
v 0.074490 -0.112417 -0.212311
v 0.075043 -0.112157 -0.153633
v 0.075035 -0.112030 -0.160281
v 0.074194 -0.112724 -0.207415
v 0.073389 -0.113074 -0.199304
v 0.073867 -0.112943 -0.242547
v 0.074367 -0.112609 -0.233073
v 0.074568 -0.112475 -0.180629
v 0.074847 -0.112157 -0.173289
v 0.074276 -0.112568 -0.186296
v 0.074071 -0.112807 -0.190938
v 0.075018 -0.112174 -0.166879
v 0.123326 -0.144462 -0.091962
vn 0.5653 0.8233 0.0511
vn 0.3734 0.9277 0.0000
vn 0.2151 0.9704 -0.1103
vn 0.3359 0.8733 0.3528
vn 0.6307 0.7760 0.0000
vn 0.0000 0.0000 1.0000
vn 0.5612 0.8276 -0.0080
vn 0.4764 0.8792 -0.0076
vn -0.3012 0.9534 -0.0144
vn 0.8129 0.5803 -0.0506
vn 0.6076 0.7912 0.0692
vn 0.5489 0.8354 0.0284
vn 0.5550 0.8307 0.0440
vn 0.4784 0.8780 0.0177
vn 0.2497 0.9681 -0.0226
vn 0.3774 0.9260 -0.0024
vn 0.6141 0.7885 -0.0336
vn 0.7100 0.7028 -0.0432
vn 0.7242 0.6806 -0.1108
vn 0.9458 -0.3246 -0.0075
vn 0.0219 0.9577 -0.2869
vn 0.1721 0.9840 -0.0455
vn -0.8682 0.4378 0.2336
vn -0.8684 0.4377 0.2330
vn -0.8683 0.4378 0.2332
vn -0.1585 0.9798 0.1220
vn 0.0379 0.9462 0.3214
vn -0.1546 0.9594 -0.2359
vn 0.5974 0.8020 0.0000
vn 0.3506 0.9365 -0.0086
vn 0.4729 0.8702 -0.1383
vn 0.5131 0.8344 -0.2013
vn 0.5848 0.8101 0.0412
vn 0.5471 0.8328 0.0841
vn 0.7002 0.7132 -0.0328
vn 0.3719 0.9282 -0.0087
vn 0.4065 0.9108 -0.0720
vn 0.4307 0.9007 -0.0573
vn 0.4318 0.9019 0.0080
vn 0.4953 0.8684 0.0223
vn 0.7110 0.7000 -0.0668
vn 0.7006 0.7120 -0.0475
vn -0.0358 0.9987 -0.0376
vn 0.6925 0.7213 0.0145
vn 0.6580 0.7529 0.0152
vn 0.6576 0.7532 0.0156
vn 0.6584 0.7525 0.0146
vn 0.6593 0.7518 0.0136
vn 0.7959 0.5963 0.1047
vn 0.7686 0.6339 0.0862
vn 0.7785 0.6219 -0.0845
vn 0.7302 0.6804 -0.0625
vn 0.7132 0.6992 -0.0490
vn 0.7293 0.6818 -0.0574
vn 0.7191 0.6932 -0.0484
vn 0.7413 0.6678 -0.0671
vn 0.7599 0.6448 -0.0825
vn 0.6865 0.7270 -0.0165
vn 0.6863 0.7271 -0.0164
vn 0.6873 0.7262 -0.0173
vn 0.5977 0.8013 0.0266
vn 0.5923 0.8052 0.0288
vn 0.5983 0.8008 0.0264
vn 0.5990 0.8003 0.0260
vn 0.6876 0.7259 -0.0176
vn 0.5548 0.8132 0.1758
vn 0.7164 0.6870 -0.1216
vn 0.7167 0.6851 -0.1303
vn 0.7165 0.6865 -0.1240
vn -0.7165 -0.6865 0.1240
vn -0.7167 -0.6851 0.1303
vn -0.7164 -0.6870 0.1216
vn 0.7168 0.6846 -0.1324
vn -0.7168 -0.6846 0.1324
vn 0.6916 0.7209 0.0445
vn 0.6689 0.7432 -0.0119
vn 0.6966 0.7155 0.0540
vn -0.6966 -0.7155 -0.0540
vn 0.6939 0.6777 0.2435
vn -0.6939 -0.6777 -0.2435
vn 0.7012 0.7120 0.0380
vn -0.7012 -0.7120 -0.0380
vn 0.6976 0.7098 0.0977
vn -0.6976 -0.7098 -0.0977
vn 0.3809 0.9222 -0.0671
vn -0.3809 -0.9222 0.0671
vn 0.4869 0.8701 0.0761
vn -0.4869 -0.8701 -0.0761
vn -0.7100 -0.7028 0.0432
vn 0.0264 0.9873 0.1565
vn -0.0264 -0.9873 -0.1565
vn -0.5653 -0.8233 -0.0511
vn -0.3734 -0.9277 0.0000
vn -0.2151 -0.9704 0.1103
vn -0.3359 -0.8733 -0.3528
vn -0.6307 -0.7760 0.0000
vn 0.0000 0.0000 -1.0000
vn -0.5612 -0.8276 0.0080
vn -0.4764 -0.8792 0.0076
vn 0.3012 -0.9534 0.0144
vn -0.8129 -0.5803 0.0506
vn -0.6076 -0.7912 -0.0692
vn -0.5489 -0.8354 -0.0284
vn -0.5550 -0.8307 -0.0440
vn -0.4784 -0.8780 -0.0177
vn -0.2497 -0.9681 0.0226
vn -0.3774 -0.9260 0.0024
vn -0.6141 -0.7885 0.0336
vn -0.7242 -0.6806 0.1108
vn -0.9458 0.3246 0.0075
vn -0.0219 -0.9577 0.2869
vn -0.1721 -0.9840 0.0455
vn 0.8682 -0.4378 -0.2336
vn 0.8683 -0.4378 -0.2332
vn 0.8684 -0.4377 -0.2330
vn 0.1585 -0.9798 -0.1220
vn -0.0379 -0.9462 -0.3214
vn 0.1546 -0.9594 0.2359
vn -0.5974 -0.8020 0.0000
vn -0.3506 -0.9365 0.0086
vn -0.4729 -0.8702 0.1383
vn -0.5131 -0.8344 0.2013
vn -0.5848 -0.8101 -0.0412
vn -0.5471 -0.8328 -0.0841
vn -0.7002 -0.7132 0.0328
vn -0.3719 -0.9282 0.0087
vn -0.4065 -0.9108 0.0720
vn -0.4307 -0.9007 0.0573
vn -0.4318 -0.9019 -0.0080
vn -0.4953 -0.8684 -0.0223
vn -0.7110 -0.7000 0.0668
vn -0.7006 -0.7120 0.0475
vn 0.0358 -0.9987 0.0376
vn -0.6925 -0.7213 -0.0145
vn -0.6580 -0.7529 -0.0152
vn -0.6584 -0.7525 -0.0146
vn -0.6576 -0.7532 -0.0156
vn -0.6593 -0.7518 -0.0136
vn -0.7959 -0.5963 -0.1047
vn -0.7686 -0.6339 -0.0862
vn -0.7785 -0.6219 0.0845
vn -0.7302 -0.6804 0.0625
vn -0.7132 -0.6992 0.0490
vn -0.7293 -0.6818 0.0574
vn -0.7191 -0.6932 0.0484
vn -0.7413 -0.6678 0.0671
vn -0.7599 -0.6448 0.0825
vn -0.6865 -0.7270 0.0165
vn -0.6873 -0.7262 0.0173
vn -0.6863 -0.7271 0.0164
vn -0.5977 -0.8013 -0.0266
vn -0.5983 -0.8008 -0.0264
vn -0.5923 -0.8052 -0.0288
vn -0.5990 -0.8003 -0.0260
vn -0.6876 -0.7259 0.0176
vn -0.5548 -0.8132 -0.1758
vn -0.6916 -0.7209 -0.0445
vn -0.6689 -0.7432 0.0119
vn -0.6994 -0.7099 -0.0831
vn -0.0009 -1.0000 -0.0045
vn -0.5055 -0.8617 -0.0449
vn -0.3764 -0.9202 0.1076
vn 0.8686 -0.4376 -0.2324
vn 0.6994 0.7099 0.0831
vn 0.0009 1.0000 0.0045
vn 0.5055 0.8617 0.0449
vn 0.3764 0.9202 -0.1076
vn -0.8686 0.4376 0.2324
usemtl None.040
s 1
f 1//1 2//1 3//1
f 4//2 5//2 6//2
f 4//3 7//3 8//3
f 4//4 6//4 7//4
f 9//5 10//5 11//5
f 9//6 12//6 10//6
f 13//7 14//7 15//7
f 13//8 15//8 16//8
f 13//9 17//9 18//9
f 13//10 16//10 17//10
f 19//11 20//11 3//11
f 19//12 3//12 2//12
f 21//13 3//13 20//13
f 21//14 22//14 3//14
f 23//15 24//15 3//15
f 23//16 3//16 25//16
f 15//17 26//17 16//17
f 27//18 28//18 6//18
f 27//19 6//19 29//19
f 17//20 30//20 31//20
f 8//21 32//21 33//21
f 8//22 7//22 32//22
f 34//23 35//24 36//25
f 34//26 37//26 38//26
f 34//27 38//27 35//27
f 34//28 33//28 37//28
f 5//2 39//2 6//2
f 39//2 40//2 6//2
f 40//2 41//2 6//2
f 41//2 42//2 6//2
f 42//2 43//2 6//2
f 43//2 44//2 6//2
f 44//29 45//29 16//29
f 45//29 46//29 16//29
f 46//29 47//29 16//29
f 47//29 48//29 16//29
f 48//29 49//29 16//29
f 49//29 50//29 16//29
f 51//29 52//29 16//29
f 51//29 16//29 53//29
f 52//29 54//29 16//29
f 54//29 55//29 3//29
f 54//29 3//29 16//29
f 55//29 56//29 3//29
f 56//29 57//29 3//29
f 57//29 58//29 3//29
f 58//29 59//29 3//29
f 11//5 10//5 59//5
f 3//30 24//30 16//30
f 32//31 7//31 6//31
f 32//32 6//32 60//32
f 10//33 61//33 59//33
f 61//34 3//34 59//34
f 24//35 30//35 16//35
f 30//36 17//36 16//36
f 32//37 62//37 37//37
f 32//38 63//38 62//38
f 64//39 25//39 3//39
f 64//40 3//40 22//40
f 65//41 29//41 6//41
f 65//42 6//42 66//42
f 65//43 67//43 29//43
f 68//44 69//44 16//44
f 70//45 66//46 6//47
f 70//45 6//47 71//48
f 72//49 73//49 16//49
f 72//50 16//50 69//50
f 26//51 74//51 16//51
f 74//52 75//52 16//52
f 75//53 68//53 16//53
f 76//54 77//54 6//54
f 76//55 6//55 78//55
f 79//56 78//56 6//56
f 79//57 6//57 73//57
f 6//58 77//59 80//60
f 6//61 44//62 16//63
f 16//63 73//64 6//61
f 71//65 6//58 80//60
f 50//29 53//29 16//29
f 32//66 60//66 81//66
f 82//67 6//68 83//69
f 83//70 84//71 82//72
f 83//69 6//68 28//73
f 83//70 28//74 84//71
f 6//75 85//75 86//75
f 6//76 86//76 60//76
f 87//77 6//77 88//77
f 87//78 88//78 84//78
f 89//79 88//79 6//79
f 89//80 84//80 88//80
f 89//81 6//81 90//81
f 89//82 90//82 84//82
f 82//83 90//83 6//83
f 82//84 84//84 90//84
f 91//85 38//85 62//85
f 91//86 62//86 92//86
f 91//87 93//87 38//87
f 91//88 92//88 93//88
f 28//89 94//89 84//89
f 93//90 35//90 38//90
f 93//91 92//91 35//91
f 95//92 96//92 97//92
f 98//93 84//93 99//93
f 98//94 100//94 101//94
f 98//95 101//95 84//95
f 102//96 103//96 104//96
f 102//97 104//97 105//97
f 106//98 107//98 108//98
f 106//99 109//99 107//99
f 106//100 110//100 111//100
f 106//101 111//101 109//101
f 112//102 96//102 113//102
f 112//103 97//103 96//103
f 114//104 113//104 96//104
f 114//105 96//105 115//105
f 116//106 96//106 117//106
f 116//107 118//107 96//107
f 107//108 109//108 119//108
f 94//109 120//109 84//109
f 111//110 121//110 122//110
f 100//111 123//111 124//111
f 100//112 124//112 101//112
f 125//113 126//114 35//115
f 125//116 92//116 127//116
f 125//117 35//117 92//117
f 125//118 127//118 123//118
f 99//93 84//93 128//93
f 128//93 84//93 129//93
f 129//93 84//93 130//93
f 130//93 84//93 131//93
f 131//93 84//93 132//93
f 132//93 84//93 133//93
f 133//119 109//119 134//119
f 134//119 109//119 135//119
f 135//119 109//119 136//119
f 136//119 109//119 137//119
f 137//119 109//119 138//119
f 138//119 109//119 139//119
f 140//119 109//119 141//119
f 140//119 142//119 109//119
f 141//119 109//119 143//119
f 143//119 96//119 144//119
f 143//119 109//119 96//119
f 144//119 96//119 145//119
f 145//119 96//119 146//119
f 146//119 96//119 147//119
f 147//119 96//119 148//119
f 103//96 148//96 104//96
f 96//120 109//120 117//120
f 124//121 84//121 101//121
f 124//122 60//122 84//122
f 104//123 148//123 149//123
f 149//124 148//124 96//124
f 117//125 109//125 122//125
f 122//126 109//126 111//126
f 124//127 127//127 62//127
f 124//128 62//128 63//128
f 150//129 96//129 118//129
f 150//130 115//130 96//130
f 151//131 84//131 120//131
f 151//132 152//132 84//132
f 151//133 120//133 153//133
f 154//134 109//134 155//134
f 156//135 84//136 152//137
f 156//135 157//138 84//136
f 158//139 109//139 159//139
f 158//140 155//140 109//140
f 119//141 109//141 160//141
f 160//142 109//142 161//142
f 161//143 109//143 154//143
f 162//144 84//144 163//144
f 162//145 164//145 84//145
f 165//146 84//146 164//146
f 165//147 159//147 84//147
f 84//148 166//149 163//150
f 84//151 109//152 133//153
f 109//152 84//151 159//154
f 157//155 166//149 84//148
f 139//119 109//119 142//119
f 124//156 81//156 60//156
f 84//157 86//157 85//157
f 84//158 60//158 86//158
f 84//159 85//159 87//159
f 123//160 127//160 124//160
f 81//161 124//161 63//161
f 62//162 127//162 92//162
f 126//114 167//163 35//115
f 6//164 87//164 85//164
f 33//165 32//165 37//165
f 81//166 63//166 32//166
f 62//167 38//167 37//167
f 36//25 35//24 167//168
