# Blender v2.79 (sub 0) OBJ File: ''
# www.blender.org
mtllib crack_restart_keyway_5.mtl
o crack_restart_keyway_5
v 0.120406 -0.147382 -0.472461
v 0.120406 -0.147382 -0.464775
v 0.115180 -0.142167 -0.472461
v 0.120406 -0.147382 -0.411273
v 0.117750 -0.146120 -0.417829
v 0.120406 -0.147382 -0.418661
v 0.120406 -0.147382 -0.418661
v 0.120406 -0.147382 -0.426347
v 0.114306 -0.144484 -0.426330
v 0.120406 -0.147382 -0.434032
v 0.116790 -0.145664 -0.420198
v 0.120406 -0.147382 -0.441718
v 0.112020 -0.143130 -0.432553
v 0.111057 -0.141355 -0.437830
v 0.109622 -0.138870 -0.444257
v 0.120406 -0.147382 -0.441718
v 0.109961 -0.136947 -0.472461
v 0.120406 -0.147382 -0.457089
v 0.100766 -0.127743 -0.461792
v 0.106716 -0.134601 -0.450340
v 0.099790 -0.126766 -0.467469
v 0.099193 -0.126169 -0.472461
v 0.104103 -0.131082 -0.472461
v 0.104103 -0.131082 -0.472461
v 0.120406 -0.147382 -0.426347
v 0.120406 -0.147382 -0.449404
v 0.120406 -0.147382 -0.472461
v 0.115180 -0.142167 -0.472461
v 0.120406 -0.147382 -0.464775
v 0.120406 -0.147382 -0.434032
v 0.109961 -0.136947 -0.472461
v 0.120406 -0.147382 -0.457089
v 0.120406 -0.147382 -0.449404
vn -0.7064 -0.7079 0.0000
vn -0.4292 -0.9032 0.0000
vn 0.4292 0.9032 0.0000
vn -0.4291 -0.9032 0.0000
vn -0.4522 -0.8919 0.0000
vn -0.5840 -0.7924 -0.1760
vn 0.5840 0.7924 0.1760
vn -0.5814 -0.7973 -0.1621
vn 0.5814 0.7973 0.1621
vn -0.7072 -0.7070 0.0004
vn -0.7072 -0.7070 0.0006
vn -0.7072 -0.7071 0.0005
vn -0.7073 -0.7069 0.0002
vn -0.6978 -0.7133 -0.0646
vn -0.7074 -0.7069 -0.0000
vn -0.7073 -0.7069 0.0001
vn -0.7075 -0.7068 -0.0001
vn 0.7074 0.7069 0.0000
vn 0.7075 0.7068 0.0001
vn 0.7073 0.7069 -0.0001
vn 0.7073 0.7069 -0.0002
vn -0.4557 -0.8897 -0.0262
vn 0.4291 0.9032 -0.0000
vn -0.6196 -0.7849 0.0000
vn -0.6628 -0.7239 -0.1914
vn -0.7064 -0.7078 0.0000
vn -0.6824 -0.7310 0.0000
vn 0.7064 0.7079 0.0000
vn 0.7064 0.7078 -0.0000
vn 0.4522 0.8919 0.0000
vn 0.7072 0.7070 -0.0004
vn 0.7069 0.7073 -0.0004
vn 0.6978 0.7133 0.0646
vn 0.4557 0.8897 0.0262
vn 0.6196 0.7849 0.0000
vn 0.6628 0.7239 0.1914
vn 0.6824 0.7310 0.0000
usemtl None.089
s 1
f 1//1 2//1 3//1
f 4//2 5//2 6//2
f 4//3 7//3 5//3
f 8//4 9//4 10//4
f 8//4 11//4 9//4
f 8//4 6//2 11//4
f 12//5 10//5 13//5
f 14//6 15//6 12//6
f 14//7 16//7 15//7
f 14//8 12//8 13//8
f 14//9 13//9 16//9
f 17//10 3//11 18//12
f 17//10 18//12 19//13
f 19//14 18//14 20//14
f 21//15 22//16 23//17
f 21//18 24//19 22//20
f 21//15 23//17 19//13
f 21//18 19//21 24//19
f 9//22 13//22 10//22
f 9//23 11//23 25//23
f 15//24 26//24 12//24
f 15//25 20//25 26//25
f 17//10 19//13 23//17
f 2//1 18//26 3//1
f 26//27 20//27 18//27
f 6//2 5//2 11//4
f 27//28 28//29 29//28
f 25//23 30//23 9//23
f 25//23 11//23 7//3
f 16//30 13//30 30//30
f 31//31 32//32 28//29
f 31//31 19//21 32//32
f 19//33 20//33 32//33
f 9//34 30//34 13//34
f 15//35 16//35 33//35
f 15//36 33//36 20//36
f 31//31 24//19 19//21
f 29//28 28//29 32//32
f 33//37 32//37 20//37
f 7//3 11//23 5//3
