# Blender v2.79 (sub 0) OBJ File: ''
# www.blender.org
mtllib crack_restart_keyway_240.mtl
o crack_restart_keyway_240
v 0.073499 -0.113119 -0.472461
v 0.085111 -0.121108 -0.472461
v 0.072781 -0.113456 -0.459453
v 0.096754 -0.128714 -0.472461
v 0.120463 -0.147326 -0.102942
v 0.112954 -0.145450 -0.105701
v 0.120406 -0.147382 -0.111236
v 0.118983 -0.147140 -0.102432
v 0.120660 -0.147394 -0.102202
v 0.120406 -0.147382 -0.472461
v 0.120406 -0.147382 -0.457089
v 0.108998 -0.137715 -0.472461
v 0.070732 -0.114911 -0.394416
v 0.096953 -0.137027 -0.346114
v 0.070449 -0.114921 -0.381408
v 0.070846 -0.114671 -0.407423
v 0.072846 -0.113583 -0.290356
v 0.071452 -0.114291 -0.303364
v 0.072676 -0.113522 -0.277349
v 0.072586 -0.113767 -0.446446
v 0.071648 -0.114168 -0.433438
v 0.071271 -0.114614 -0.420431
v 0.070628 -0.114969 -0.368401
v 0.070879 -0.114651 -0.355393
v 0.072935 -0.113520 -0.264341
v 0.073070 -0.113274 -0.251334
v 0.071597 -0.114433 -0.316371
v 0.071547 -0.114231 -0.329378
v 0.071335 -0.114578 -0.342386
v 0.120406 -0.147382 -0.118922
v 0.074912 -0.112164 -0.170833
v 0.120406 -0.147382 -0.134293
v 0.120406 -0.147382 -0.149664
v 0.120406 -0.147382 -0.165036
v 0.120406 -0.147382 -0.180407
v 0.120406 -0.147382 -0.195778
v 0.120406 -0.147382 -0.211149
v 0.120406 -0.147382 -0.226521
v 0.120406 -0.147382 -0.241892
v 0.120406 -0.147382 -0.257263
v 0.120406 -0.147382 -0.272634
v 0.120406 -0.147382 -0.288006
v 0.120406 -0.147382 -0.303377
v 0.120406 -0.147382 -0.318748
v 0.120406 -0.147382 -0.334119
v 0.120406 -0.147382 -0.349490
v 0.120406 -0.147382 -0.364862
v 0.120406 -0.147382 -0.380233
v 0.120406 -0.147382 -0.395604
v 0.120406 -0.147382 -0.410975
v 0.120406 -0.147382 -0.426347
v 0.120406 -0.147382 -0.441718
v 0.103155 -0.133315 -0.472461
v 0.105553 -0.141013 -0.110303
v 0.102589 -0.138874 -0.112782
v 0.073277 -0.113144 -0.199304
v 0.074300 -0.112654 -0.207197
v 0.074058 -0.112815 -0.190910
v 0.074711 -0.112259 -0.212311
v 0.074660 -0.112282 -0.224993
v 0.074408 -0.112582 -0.232989
v 0.074582 -0.112465 -0.180599
v 0.074287 -0.112560 -0.186296
v 0.075074 -0.112002 -0.160281
v 0.076878 -0.114063 -0.145528
v 0.075090 -0.112121 -0.153778
v 0.107515 -0.142335 -0.108767
v 0.083888 -0.121102 -0.136615
v 0.078017 -0.115274 -0.143476
v 0.109700 -0.143824 -0.106854
v 0.096580 -0.133970 -0.118687
v 0.099765 -0.136634 -0.116051
v 0.074912 -0.112164 -0.170833
v 0.095354 -0.132739 -0.120135
v 0.112954 -0.145450 -0.105701
v 0.120463 -0.147326 -0.102942
v 0.074978 -0.112102 -0.148773
v 0.075090 -0.112121 -0.153778
v 0.088520 -0.125925 -0.128221
v 0.075074 -0.112002 -0.160281
v 0.090963 -0.128342 -0.124710
v 0.093829 -0.131213 -0.122001
v 0.073499 -0.113119 -0.472461
v 0.072781 -0.113456 -0.459453
v 0.085111 -0.121108 -0.472461
v 0.096754 -0.128714 -0.472461
v 0.120406 -0.147382 -0.111236
v 0.120406 -0.147382 -0.472461
v 0.108998 -0.137715 -0.472461
v 0.120406 -0.147382 -0.457089
v 0.070732 -0.114911 -0.394416
v 0.070449 -0.114921 -0.381408
v 0.096953 -0.137027 -0.346114
v 0.070846 -0.114671 -0.407423
v 0.072846 -0.113583 -0.290356
v 0.071452 -0.114291 -0.303364
v 0.072676 -0.113522 -0.277349
v 0.072586 -0.113767 -0.446446
v 0.071648 -0.114168 -0.433438
v 0.071271 -0.114614 -0.420431
v 0.070628 -0.114969 -0.368401
v 0.070879 -0.114651 -0.355393
v 0.072935 -0.113520 -0.264341
v 0.073070 -0.113274 -0.251334
v 0.071597 -0.114433 -0.316371
v 0.071335 -0.114578 -0.342386
v 0.071547 -0.114231 -0.329378
v 0.120406 -0.147382 -0.118922
v 0.120406 -0.147382 -0.134293
v 0.120406 -0.147382 -0.149664
v 0.120406 -0.147382 -0.165036
v 0.120406 -0.147382 -0.180407
v 0.120406 -0.147382 -0.195778
v 0.120406 -0.147382 -0.211149
v 0.120406 -0.147382 -0.226521
v 0.120406 -0.147382 -0.241892
v 0.120406 -0.147382 -0.257263
v 0.120406 -0.147382 -0.272634
v 0.120406 -0.147382 -0.288006
v 0.120406 -0.147382 -0.303377
v 0.120406 -0.147382 -0.318748
v 0.120406 -0.147382 -0.334119
v 0.120406 -0.147382 -0.349490
v 0.120406 -0.147382 -0.364862
v 0.120406 -0.147382 -0.380233
v 0.120406 -0.147382 -0.395604
v 0.120406 -0.147382 -0.410975
v 0.120406 -0.147382 -0.426347
v 0.120406 -0.147382 -0.441718
v 0.103155 -0.133315 -0.472461
v 0.073277 -0.113144 -0.199304
v 0.074300 -0.112654 -0.207197
v 0.074058 -0.112815 -0.190910
v 0.074711 -0.112259 -0.212311
v 0.074660 -0.112282 -0.224993
v 0.074408 -0.112582 -0.232989
v 0.074582 -0.112465 -0.180599
v 0.074287 -0.112560 -0.186296
vn 0.5660 0.8227 0.0526
vn 0.5467 0.8369 0.0259
vn 0.2452 0.9694 -0.0082
vn 0.2523 0.9676 -0.0069
vn 0.2474 0.9689 -0.0003
vn 0.1800 0.9690 0.1690
vn 0.1424 0.9884 0.0529
vn 0.6465 0.7629 0.0000
vn 0.6292 0.7771 0.0143
vn 0.6229 0.7820 0.0199
vn 0.6181 0.7858 0.0235
vn 0.6154 0.7879 0.0207
vn 0.5583 0.8230 -0.1046
vn 0.7041 0.7101 0.0059
vn 0.5368 0.8412 0.0646
vn 0.6275 0.7782 0.0280
vn 0.5803 0.8132 0.0447
vn 0.6177 0.7861 0.0236
vn 0.6573 0.7530 -0.0311
vn 0.6574 0.7531 -0.0275
vn 0.6569 0.7533 -0.0310
vn 0.6453 0.7639 -0.0061
vn 0.6618 0.7494 -0.0210
vn 0.6754 0.7373 -0.0136
vn 0.9592 -0.2827 -0.0081
vn 0.9590 -0.2834 -0.0081
vn 0.6121 0.7908 0.0000
vn 0.2510 0.9680 0.0000
vn 0.4912 0.8578 0.1515
vn 0.4039 0.9148 0.0000
vn 0.6648 0.7470 -0.0007
vn 0.6581 0.7528 -0.0108
vn 0.5649 0.8237 0.0494
vn -0.0001 0.0003 1.0000
vn 0.0001 -0.0003 1.0000
vn 0.5915 0.8046 0.0520
vn 0.5567 0.8290 0.0537
vn 0.6566 0.7538 -0.0272
vn 0.4820 0.8603 0.1661
vn 0.5507 0.8257 0.1226
vn 0.6082 0.7889 -0.0875
vn 0.6093 0.7894 -0.0748
vn 0.6068 0.7913 -0.0755
vn 0.5572 0.8233 0.1084
vn 0.6111 0.7915 -0.0039
vn 0.5467 0.8343 -0.0713
vn 0.6112 0.7900 -0.0489
vn 0.6056 0.7945 -0.0448
vn 0.6056 0.7945 -0.0450
vn 0.6056 0.7945 -0.0446
vn 0.6069 0.7913 -0.0739
vn 0.6333 0.7728 -0.0413
vn 0.7117 0.7024 0.0111
vn 0.2732 0.8735 0.4029
vn 0.3942 0.8910 0.2251
vn 0.6932 0.7205 0.0189
vn 0.3346 0.8898 0.3103
vn 0.5108 0.5592 -0.6530
vn 0.5966 0.7979 0.0857
vn 0.5962 0.7982 0.0861
vn 0.5962 0.7982 0.0860
vn -0.5966 -0.7979 -0.0857
vn -0.5962 -0.7982 -0.0860
vn -0.5962 -0.7982 -0.0861
vn 0.7080 0.7062 0.0010
vn 0.7065 0.7077 0.0023
vn 0.7082 0.7060 -0.0014
vn -0.7080 -0.7062 -0.0010
vn -0.7082 -0.7060 0.0014
vn -0.7065 -0.7077 -0.0023
vn -0.5108 -0.5592 0.6530
vn -0.1800 -0.9690 -0.1690
vn -0.1424 -0.9884 -0.0529
vn 0.7072 0.7069 0.0131
vn -0.7072 -0.7069 -0.0131
vn -0.7141 -0.6999 -0.0127
vn -0.7106 -0.7036 -0.0105
vn 0.7272 0.6864 -0.0069
vn -0.7272 -0.6864 0.0069
vn 0.6765 0.7355 0.0356
vn 0.6762 0.7358 0.0361
vn 0.6762 0.7359 0.0360
vn -0.6765 -0.7355 -0.0356
vn -0.6762 -0.7359 -0.0360
vn -0.6762 -0.7358 -0.0361
vn 0.7053 0.7089 0.0047
vn -0.7053 -0.7089 -0.0047
vn 0.7067 0.7076 0.0023
vn -0.7067 -0.7076 -0.0023
vn -0.3347 -0.8898 -0.3103
vn -0.5660 -0.8227 -0.0526
vn -0.5467 -0.8369 -0.0259
vn -0.2452 -0.9694 0.0082
vn -0.2474 -0.9689 0.0003
vn -0.2523 -0.9676 0.0070
vn -0.6465 -0.7629 0.0000
vn -0.6206 -0.7839 -0.0155
vn -0.6198 -0.7844 -0.0225
vn -0.6292 -0.7771 -0.0143
vn -0.6154 -0.7879 -0.0207
vn -0.5583 -0.8230 0.1046
vn -0.7041 -0.7101 -0.0059
vn -0.5368 -0.8412 -0.0646
vn -0.6275 -0.7782 -0.0280
vn -0.5803 -0.8132 -0.0447
vn -0.6177 -0.7861 -0.0236
vn -0.6573 -0.7530 0.0311
vn -0.6569 -0.7533 0.0310
vn -0.6574 -0.7531 0.0275
vn -0.6453 -0.7639 0.0061
vn -0.6618 -0.7494 0.0210
vn -0.6754 -0.7373 0.0136
vn -0.9592 0.2827 0.0081
vn -0.9590 0.2834 0.0081
vn -0.6121 -0.7908 0.0000
vn -0.2510 -0.9680 0.0000
vn -0.4912 -0.8578 -0.1515
vn -0.4039 -0.9148 0.0000
vn -0.6666 -0.7453 0.0089
vn -0.6613 -0.7501 0.0013
vn -0.6648 -0.7470 0.0007
vn -0.6581 -0.7528 0.0108
vn -0.5649 -0.8237 -0.0494
vn 0.0001 -0.0003 -1.0000
vn -0.0001 0.0003 -1.0000
vn -0.5915 -0.8046 -0.0520
vn -0.5567 -0.8290 -0.0537
vn -0.6566 -0.7538 0.0272
vn -0.4820 -0.8603 -0.1661
vn -0.5507 -0.8257 -0.1226
vn -0.6082 -0.7889 0.0875
vn -0.6068 -0.7913 0.0756
vn -0.6093 -0.7894 0.0749
vn -0.5572 -0.8233 -0.1084
vn -0.6111 -0.7915 0.0039
vn -0.5467 -0.8343 0.0713
vn -0.6112 -0.7900 0.0489
vn -0.6056 -0.7945 0.0448
vn -0.6056 -0.7945 0.0450
vn -0.6056 -0.7945 0.0446
vn -0.6069 -0.7913 0.0739
vn -0.6333 -0.7728 0.0413
vn -0.7117 -0.7024 -0.0111
vn -0.2732 -0.8735 -0.4029
vn -0.3942 -0.8910 -0.2251
vn -0.6932 -0.7205 -0.0189
vn -0.4965 -0.8539 -0.1561
vn -0.7211 -0.6928 -0.0086
vn -0.7399 -0.6723 0.0217
vn 0.4965 0.8539 0.1561
vn 0.7211 0.6928 0.0086
vn 0.7399 0.6723 -0.0217
usemtl None.032
s 1
f 1//1 3//1 2//1
f 2//2 3//2 4//2
f 5//3 7//4 6//5
f 5//6 6//6 8//6
f 5//7 8//7 9//7
f 10//8 12//8 11//8
f 13//9 15//9 14//9
f 13//10 14//11 16//12
f 17//13 14//13 18//13
f 17//14 19//14 14//14
f 20//15 21//15 14//15
f 20//16 14//16 3//16
f 22//17 14//17 21//17
f 22//18 16//12 14//11
f 23//19 24//20 14//21
f 23//22 14//22 15//22
f 25//23 26//23 14//23
f 25//24 14//24 19//24
f 27//25 29//25 28//26
f 30//27 32//27 31//27
f 30//28 6//5 7//4
f 30//29 31//29 6//29
f 32//27 33//27 31//27
f 33//27 34//27 31//27
f 34//27 35//27 31//27
f 36//30 37//30 14//30
f 36//30 14//30 35//30
f 37//30 38//30 14//30
f 38//30 39//30 14//30
f 39//30 40//30 14//30
f 40//30 41//30 14//30
f 41//30 42//30 14//30
f 42//30 43//30 14//30
f 44//30 45//30 14//30
f 44//30 14//30 43//30
f 46//30 47//30 14//30
f 46//30 14//30 45//30
f 47//30 48//30 14//30
f 48//30 49//30 14//30
f 49//30 50//30 14//30
f 50//30 51//30 14//30
f 51//30 52//30 14//30
f 11//8 12//8 52//8
f 27//31 18//31 14//31
f 27//32 14//32 29//32
f 52//33 12//33 14//33
f 12//34 53//35 4//34
f 12//36 4//36 14//36
f 4//37 3//37 14//37
f 24//20 29//38 14//21
f 31//39 55//39 54//39
f 56//40 35//40 57//40
f 56//41 58//42 35//43
f 57//44 35//44 59//44
f 59//45 35//45 60//45
f 26//46 61//46 14//46
f 61//47 60//47 14//47
f 62//48 31//49 35//48
f 62//48 35//48 63//50
f 58//42 63//51 35//43
f 14//52 60//52 35//52
f 64//53 66//53 65//53
f 54//54 67//54 6//54
f 54//55 6//55 31//55
f 68//56 64//56 69//56
f 6//57 67//57 70//57
f 6//58 70//58 8//58
f 71//59 72//60 31//61
f 71//62 73//63 72//64
f 71//65 31//66 74//67
f 71//68 74//69 73//70
f 8//71 70//71 75//71
f 8//72 75//72 76//72
f 8//73 76//73 9//73
f 77//74 65//74 66//74
f 77//75 78//76 65//77
f 79//78 64//78 68//78
f 79//79 68//79 80//79
f 79//80 81//81 64//82
f 79//83 80//84 81//85
f 82//86 74//67 31//66
f 82//87 73//70 74//69
f 82//86 31//66 81//88
f 82//87 81//89 73//70
f 70//90 67//90 75//90
f 83//91 85//91 84//91
f 85//92 86//92 84//92
f 76//93 75//94 87//95
f 88//96 90//96 89//96
f 91//97 93//98 92//99
f 91//97 94//100 93//98
f 95//101 96//101 93//101
f 95//102 93//102 97//102
f 98//103 93//103 99//103
f 98//104 84//104 93//104
f 100//105 99//105 93//105
f 100//106 93//98 94//100
f 101//107 93//108 102//109
f 101//110 92//110 93//110
f 103//111 93//111 104//111
f 103//112 97//112 93//112
f 105//113 107//114 106//113
f 108//115 73//115 109//115
f 108//116 87//95 75//94
f 108//117 75//117 73//117
f 109//115 73//115 110//115
f 110//115 73//115 111//115
f 111//115 73//115 112//115
f 113//118 93//118 114//118
f 113//118 112//118 93//118
f 114//118 93//118 115//118
f 115//118 93//118 116//118
f 116//118 93//118 117//118
f 117//118 93//118 118//118
f 118//118 93//118 119//118
f 119//118 93//118 120//118
f 121//118 93//118 122//118
f 121//118 120//118 93//118
f 123//118 93//118 124//118
f 123//118 122//118 93//118
f 124//118 93//118 125//118
f 125//118 93//118 126//118
f 126//118 93//118 127//118
f 127//118 93//118 128//118
f 128//118 93//118 129//118
f 90//96 129//96 89//96
f 105//119 93//120 96//121
f 105//119 106//122 93//120
f 129//123 93//123 89//123
f 89//124 86//124 130//125
f 89//126 93//126 86//126
f 86//127 93//127 84//127
f 102//109 93//108 106//128
f 73//129 54//129 55//129
f 131//130 132//130 112//130
f 131//131 112//132 133//133
f 132//134 134//134 112//134
f 134//135 135//135 112//135
f 104//136 93//136 136//136
f 136//137 93//137 135//137
f 137//138 112//138 73//139
f 137//138 138//140 112//138
f 133//133 112//132 138//141
f 93//142 112//142 135//142
f 80//143 65//77 78//76
f 54//144 75//144 67//144
f 54//145 73//145 75//145
f 68//146 69//146 80//146
f 73//147 55//147 72//147
f 69//148 65//148 80//148
f 73//149 81//149 80//149
f 31//150 72//150 55//150
f 69//151 64//151 65//151
f 81//152 31//152 64//152
