# Blender v2.79 (sub 0) OBJ File: ''
# www.blender.org
mtllib crack_restart_keyway_225.mtl
o crack_restart_keyway_225
v 0.073499 -0.113119 -0.472461
v 0.085104 -0.121112 -0.472461
v 0.072775 -0.113459 -0.459453
v 0.096763 -0.128707 -0.472461
v 0.120406 -0.147382 -0.472461
v 0.120406 -0.147382 -0.457089
v 0.109016 -0.137701 -0.472461
v 0.070732 -0.114912 -0.394416
v 0.096969 -0.137138 -0.346084
v 0.070450 -0.114920 -0.381408
v 0.070813 -0.114692 -0.407423
v 0.072930 -0.113524 -0.290356
v 0.094303 -0.132047 -0.233547
v 0.072700 -0.113507 -0.277349
v 0.071448 -0.114293 -0.303364
v 0.072583 -0.113770 -0.446446
v 0.071643 -0.114171 -0.433438
v 0.071335 -0.114578 -0.342386
v 0.070893 -0.114642 -0.355393
v 0.071548 -0.114231 -0.329378
v 0.071257 -0.114621 -0.420431
v 0.070661 -0.114951 -0.368401
v 0.072959 -0.113502 -0.264341
v 0.073089 -0.113262 -0.251334
v 0.071597 -0.114433 -0.316371
v 0.120406 -0.147382 -0.134293
v 0.101672 -0.137033 -0.165001
v 0.120406 -0.147382 -0.141979
v 0.120406 -0.147382 -0.126607
v 0.120406 -0.147382 -0.165036
v 0.120406 -0.147382 -0.180407
v 0.106414 -0.140525 -0.162351
v 0.120406 -0.147382 -0.149664
v 0.120406 -0.147382 -0.195778
v 0.120406 -0.147382 -0.211149
v 0.120406 -0.147382 -0.226521
v 0.120406 -0.147382 -0.241892
v 0.120406 -0.147382 -0.257263
v 0.120406 -0.147382 -0.272634
v 0.120406 -0.147382 -0.288006
v 0.120406 -0.147382 -0.318748
v 0.120406 -0.147382 -0.334119
v 0.120406 -0.147382 -0.303377
v 0.120406 -0.147382 -0.349490
v 0.120406 -0.147382 -0.364862
v 0.120406 -0.147382 -0.380233
v 0.120406 -0.147382 -0.395604
v 0.120406 -0.147382 -0.410975
v 0.120406 -0.147382 -0.426347
v 0.120406 -0.147382 -0.441718
v 0.103149 -0.133288 -0.472461
v 0.090353 -0.127385 -0.153806
v 0.092849 -0.129796 -0.150197
v 0.101672 -0.137033 -0.165001
v 0.074667 -0.112274 -0.225160
v 0.074419 -0.112574 -0.232965
v 0.106781 -0.142195 -0.131651
v 0.108755 -0.143407 -0.129764
v 0.101493 -0.137989 -0.138305
v 0.073221 -0.113179 -0.199304
v 0.073638 -0.112976 -0.196253
v 0.074385 -0.112597 -0.207021
v 0.074879 -0.112140 -0.212311
v 0.097884 -0.134633 -0.142817
v 0.095480 -0.132444 -0.146290
v 0.087197 -0.124374 -0.158444
v 0.074050 -0.112784 -0.192800
v 0.116620 -0.146417 -0.123045
v 0.112029 -0.145151 -0.126391
v 0.120406 -0.147382 -0.126607
v 0.120406 -0.147382 -0.120736
v 0.074767 -0.112240 -0.174915
v 0.074825 -0.112297 -0.179793
v 0.074825 -0.112297 -0.179793
v 0.077458 -0.115070 -0.172568
v 0.080762 -0.118106 -0.168151
v 0.082327 -0.119534 -0.165963
v 0.079435 -0.116947 -0.170036
v 0.096859 -0.133658 -0.144216
v 0.073499 -0.113119 -0.472461
v 0.072775 -0.113459 -0.459453
v 0.085104 -0.121112 -0.472461
v 0.096763 -0.128707 -0.472461
v 0.120406 -0.147382 -0.472461
v 0.109016 -0.137701 -0.472461
v 0.120406 -0.147382 -0.457089
v 0.070732 -0.114912 -0.394416
v 0.070450 -0.114920 -0.381408
v 0.096969 -0.137138 -0.346084
v 0.070813 -0.114692 -0.407423
v 0.072930 -0.113524 -0.290356
v 0.072700 -0.113507 -0.277349
v 0.094303 -0.132047 -0.233547
v 0.071448 -0.114293 -0.303364
v 0.072583 -0.113770 -0.446446
v 0.071643 -0.114171 -0.433438
v 0.071335 -0.114578 -0.342386
v 0.070893 -0.114642 -0.355393
v 0.071548 -0.114231 -0.329378
v 0.071257 -0.114621 -0.420431
v 0.070661 -0.114951 -0.368401
v 0.072959 -0.113502 -0.264341
v 0.073089 -0.113262 -0.251334
v 0.071597 -0.114433 -0.316371
v 0.120406 -0.147382 -0.134293
v 0.120406 -0.147382 -0.141979
v 0.120406 -0.147382 -0.165036
v 0.120406 -0.147382 -0.180407
v 0.106414 -0.140525 -0.162351
v 0.120406 -0.147382 -0.149664
v 0.120406 -0.147382 -0.195778
v 0.120406 -0.147382 -0.211149
v 0.120406 -0.147382 -0.226521
v 0.120406 -0.147382 -0.241892
v 0.120406 -0.147382 -0.257263
v 0.120406 -0.147382 -0.272634
v 0.120406 -0.147382 -0.288006
v 0.120406 -0.147382 -0.318748
v 0.120406 -0.147382 -0.334119
v 0.120406 -0.147382 -0.303377
v 0.120406 -0.147382 -0.349490
v 0.120406 -0.147382 -0.364862
v 0.120406 -0.147382 -0.380233
v 0.120406 -0.147382 -0.395604
v 0.120406 -0.147382 -0.410975
v 0.120406 -0.147382 -0.426347
v 0.120406 -0.147382 -0.441718
v 0.103149 -0.133288 -0.472461
v 0.074667 -0.112274 -0.225160
v 0.074419 -0.112574 -0.232965
v 0.073221 -0.113179 -0.199304
v 0.073638 -0.112976 -0.196253
v 0.074385 -0.112597 -0.207021
v 0.074879 -0.112140 -0.212311
v 0.074050 -0.112784 -0.192800
v 0.074264 -0.112576 -0.186296
v 0.099461 -0.136146 -0.140817
v 0.074264 -0.112576 -0.186296
vn 0.5664 0.8224 0.0530
vn 0.5457 0.8377 0.0244
vn 0.6476 0.7620 0.0000
vn 0.6266 0.7792 0.0148
vn 0.6310 0.7757 0.0142
vn 0.6281 0.7779 0.0169
vn 0.6278 0.7782 0.0171
vn 0.6391 0.7690 0.0103
vn 0.8199 0.5583 -0.1264
vn 0.5384 0.8402 0.0648
vn 0.6295 0.7765 0.0279
vn 0.6581 0.7525 -0.0262
vn 0.6584 0.7522 -0.0287
vn 0.6591 0.7516 -0.0263
vn 0.6578 0.7525 -0.0308
vn 0.5807 0.8129 0.0454
vn 0.6162 0.7872 0.0253
vn 0.6590 0.7516 -0.0296
vn 0.6490 0.7608 -0.0087
vn 0.6650 0.7466 -0.0190
vn 0.6723 0.7400 -0.0204
vn 0.6678 0.7442 -0.0138
vn 0.6669 0.7450 -0.0136
vn 0.6649 0.7469 0.0072
vn 0.6674 0.7447 0.0002
vn 0.6726 0.7399 0.0090
vn 0.4835 0.8753 0.0000
vn 0.4652 0.8411 0.2760
vn 0.4401 0.8980 0.0000
vn 0.5065 0.8622 0.0000
vn 0.5600 0.8285 0.0000
vn 0.4005 0.9163 0.0000
vn 0.6666 0.7454 -0.0004
vn 0.5647 0.8237 0.0502
vn 0.5331 0.8451 0.0404
vn 0.0002 0.0006 1.0000
vn 0.0006 -0.0006 1.0000
vn 0.0001 0.0006 1.0000
vn 0.5909 0.8050 0.0527
vn 0.5565 0.8291 0.0544
vn 0.6681 0.7433 0.0344
vn 0.6677 0.7436 0.0348
vn -0.6678 -0.7436 -0.0349
vn -0.6720 -0.7395 -0.0390
vn -0.6697 -0.7418 -0.0335
vn 0.5403 0.7208 -0.4342
vn 0.6981 0.7143 -0.0496
vn 0.4783 0.8760 0.0623
vn 0.5966 0.8019 0.0327
vn 0.7322 0.6657 -0.1444
vn 0.6363 0.7561 0.1530
vn 0.6314 0.7653 0.1251
vn 0.6084 0.7934 -0.0183
vn 0.5567 0.8237 -0.1079
vn 0.6051 0.7945 0.0506
vn 0.6964 0.7135 -0.0771
vn 0.6786 0.5994 -0.4245
vn 0.6499 0.7595 0.0288
vn 0.6659 0.7454 0.0308
vn 0.7222 0.6805 -0.1240
vn 0.2576 0.9662 0.0121
vn -0.2576 -0.9662 -0.0121
vn 0.2470 0.9690 0.0000
vn -0.2470 -0.9690 0.0000
vn 0.2583 0.9570 0.1319
vn 0.3988 0.9131 0.0850
vn 0.6778 0.7353 -0.0005
vn -0.6778 -0.7353 0.0005
vn 0.6247 0.7560 0.1954
vn -0.6247 -0.7560 -0.1954
vn 0.6705 0.7419 0.0045
vn 0.6709 0.7415 0.0041
vn 0.6707 0.7417 0.0047
vn -0.6705 -0.7419 -0.0045
vn -0.6707 -0.7417 -0.0047
vn -0.6709 -0.7415 -0.0041
vn 0.6723 0.7400 -0.0183
vn 0.6725 0.7399 -0.0189
vn 0.6727 0.7397 -0.0188
vn -0.6723 -0.7400 0.0183
vn -0.6727 -0.7397 0.0188
vn -0.6725 -0.7399 0.0189
vn 0.6659 0.7454 0.0326
vn -0.6659 -0.7454 -0.0326
vn -0.8253 -0.5047 0.2532
vn -0.8255 -0.5045 0.2531
vn -0.8272 -0.4990 0.2583
vn -0.5664 -0.8224 -0.0530
vn -0.5457 -0.8377 -0.0244
vn -0.6476 -0.7620 0.0000
vn -0.6266 -0.7792 -0.0147
vn -0.6281 -0.7779 -0.0169
vn -0.6310 -0.7757 -0.0142
vn -0.6278 -0.7782 -0.0171
vn -0.6391 -0.7690 -0.0103
vn -0.8199 -0.5583 0.1264
vn -0.5384 -0.8402 -0.0648
vn -0.6295 -0.7765 -0.0279
vn -0.6581 -0.7525 0.0262
vn -0.6591 -0.7516 0.0263
vn -0.6584 -0.7522 0.0287
vn -0.6578 -0.7525 0.0308
vn -0.5807 -0.8129 -0.0454
vn -0.6162 -0.7872 -0.0253
vn -0.6590 -0.7516 0.0296
vn -0.6490 -0.7608 0.0087
vn -0.6650 -0.7466 0.0190
vn -0.6678 -0.7442 0.0138
vn -0.6723 -0.7400 0.0204
vn -0.6669 -0.7450 0.0136
vn -0.6649 -0.7469 -0.0073
vn -0.6726 -0.7399 -0.0090
vn -0.6674 -0.7447 -0.0001
vn -0.4835 -0.8753 0.0000
vn -0.4652 -0.8411 -0.2760
vn -0.4401 -0.8980 0.0000
vn -0.5065 -0.8622 -0.0000
vn -0.5600 -0.8285 0.0000
vn -0.4005 -0.9163 -0.0000
vn -0.6666 -0.7454 0.0004
vn -0.5647 -0.8237 -0.0502
vn -0.5331 -0.8451 -0.0404
vn -0.0002 -0.0006 -1.0000
vn -0.0001 -0.0006 -1.0000
vn -0.0006 0.0006 -1.0000
vn -0.5909 -0.8050 -0.0527
vn -0.5565 -0.8291 -0.0544
vn -0.5403 -0.7208 0.4342
vn -0.6981 -0.7143 0.0496
vn -0.4783 -0.8760 -0.0623
vn -0.5966 -0.8019 -0.0327
vn -0.7322 -0.6657 0.1444
vn -0.6363 -0.7561 -0.1530
vn -0.6314 -0.7653 -0.1251
vn -0.6084 -0.7934 0.0183
vn -0.5567 -0.8237 0.1079
vn -0.6051 -0.7945 -0.0506
vn -0.6964 -0.7135 0.0771
vn -0.6786 -0.5994 0.4245
vn -0.6499 -0.7595 -0.0288
vn -0.6659 -0.7454 -0.0308
vn -0.7222 -0.6805 0.1240
vn -0.2583 -0.9570 -0.1319
vn -0.3988 -0.9131 -0.0850
vn -0.6690 -0.7420 -0.0443
vn -0.6847 -0.7274 0.0458
vn -0.7014 -0.7069 0.0908
vn -0.6760 -0.7356 -0.0433
vn -0.6692 -0.7423 -0.0340
vn -0.6498 -0.7594 -0.0316
vn 0.6690 0.7420 0.0443
vn 0.6847 0.7274 -0.0458
vn 0.7014 0.7069 -0.0908
vn 0.6760 0.7356 0.0433
vn 0.6692 0.7423 0.0340
vn 0.6498 0.7594 0.0316
usemtl None.029
s 1
f 1//1 3//1 2//1
f 2//2 3//2 4//2
f 5//3 7//3 6//3
f 8//4 10//5 9//6
f 8//4 9//6 11//7
f 12//8 14//8 13//8
f 12//9 13//9 15//9
f 16//10 17//10 9//10
f 16//11 9//11 3//11
f 18//12 9//13 19//14
f 18//12 20//15 9//13
f 21//16 9//16 17//16
f 21//17 11//17 9//17
f 22//18 19//14 9//13
f 22//19 9//19 10//19
f 23//20 24//21 13//22
f 23//20 13//22 14//23
f 25//24 9//25 20//26
f 26//27 28//27 27//27
f 26//27 27//27 29//27
f 30//27 31//27 27//27
f 30//28 27//28 32//28
f 30//29 32//29 33//29
f 31//27 34//27 27//27
f 34//27 35//27 27//27
f 35//27 36//27 27//27
f 36//30 37//30 13//30
f 37//30 38//30 13//30
f 38//31 39//31 15//31
f 39//31 40//31 15//31
f 41//32 42//32 9//32
f 41//32 9//32 43//32
f 44//32 45//32 9//32
f 44//32 9//32 42//32
f 45//32 46//32 9//32
f 46//32 47//32 9//32
f 47//32 48//32 9//32
f 48//32 49//32 9//32
f 49//32 50//32 9//32
f 6//3 7//3 50//3
f 25//24 15//33 9//25
f 50//34 7//34 9//34
f 38//35 15//35 13//35
f 7//36 51//37 4//38
f 7//39 4//39 9//39
f 4//40 3//40 9//40
f 52//41 53//41 27//42
f 52//43 54//44 53//45
f 13//46 55//46 36//46
f 13//47 56//47 55//47
f 57//48 58//48 27//48
f 57//49 27//49 59//49
f 60//50 61//50 27//50
f 62//51 60//51 36//51
f 62//52 36//52 63//52
f 63//53 36//53 55//53
f 15//31 40//31 43//31
f 15//54 43//54 9//54
f 60//55 27//55 36//55
f 13//56 24//56 56//56
f 32//57 27//57 33//57
f 64//58 27//58 65//58
f 52//41 27//42 66//59
f 27//60 61//60 67//60
f 33//27 27//27 28//27
f 68//61 29//61 69//61
f 68//62 69//62 70//62
f 68//63 71//63 29//63
f 68//64 70//64 71//64
f 27//65 69//65 29//65
f 58//66 69//66 27//66
f 72//67 27//67 73//67
f 72//68 74//68 54//68
f 72//69 75//69 27//69
f 72//70 54//70 75//70
f 76//71 77//72 27//73
f 76//74 54//75 77//76
f 76//77 27//78 78//79
f 76//80 78//81 54//82
f 78//83 27//83 75//83
f 78//84 75//84 54//84
f 65//85 64//86 79//87
f 80//88 82//88 81//88
f 82//89 83//89 81//89
f 84//90 86//90 85//90
f 87//91 89//92 88//93
f 87//91 90//94 89//92
f 91//95 93//95 92//95
f 91//96 94//96 93//96
f 95//97 89//97 96//97
f 95//98 81//98 89//98
f 97//99 98//100 89//101
f 97//99 89//101 99//102
f 100//103 96//103 89//103
f 100//104 89//104 90//104
f 101//105 89//101 98//100
f 101//106 88//106 89//106
f 102//107 93//108 103//109
f 102//107 92//110 93//108
f 104//111 99//112 89//113
f 105//114 54//114 106//114
f 105//114 70//114 54//114
f 107//114 54//114 108//114
f 107//115 109//115 54//115
f 107//116 110//116 109//116
f 108//114 54//114 111//114
f 111//114 54//114 112//114
f 112//114 54//114 113//114
f 113//117 93//117 114//117
f 114//117 93//117 115//117
f 115//118 94//118 116//118
f 116//118 94//118 117//118
f 118//119 89//119 119//119
f 118//119 120//119 89//119
f 121//119 89//119 122//119
f 121//119 119//119 89//119
f 122//119 89//119 123//119
f 123//119 89//119 124//119
f 124//119 89//119 125//119
f 125//119 89//119 126//119
f 126//119 89//119 127//119
f 86//90 127//90 85//90
f 104//111 89//113 94//120
f 127//121 89//121 85//121
f 115//122 93//122 94//122
f 85//123 83//124 128//125
f 85//126 89//126 83//126
f 83//127 89//127 81//127
f 93//128 113//128 129//128
f 93//129 129//129 130//129
f 57//130 54//130 58//130
f 57//131 59//131 54//131
f 131//132 54//132 132//132
f 133//133 113//133 131//133
f 133//134 134//134 113//134
f 134//135 129//135 113//135
f 94//118 120//118 117//118
f 94//136 89//136 120//136
f 131//137 113//137 54//137
f 93//138 130//138 103//138
f 109//139 110//139 54//139
f 64//140 65//140 54//140
f 52//141 66//141 54//141
f 54//142 135//142 132//142
f 110//114 106//114 54//114
f 54//143 70//143 69//143
f 58//144 54//144 69//144
f 54//145 66//145 77//145
f 135//146 54//146 136//146
f 54//147 74//147 136//147
f 54//44 65//148 53//45
f 54//149 137//149 64//149
f 54//150 59//150 137//150
f 27//151 77//151 66//151
f 67//152 138//152 27//152
f 27//153 138//153 73//153
f 27//154 53//154 65//154
f 27//155 64//155 137//155
f 27//156 137//156 59//156
