# Blender v2.79 (sub 0) OBJ File: ''
# www.blender.org
mtllib crack_restart_keyway_320.mtl
o crack_restart_keyway_320
v 0.139527 -0.156360 -0.088665
v 0.139656 -0.157696 -0.086465
v 0.137392 -0.154753 -0.088967
v 0.140875 -0.157342 -0.088462
v 0.131068 -0.149873 -0.089874
v 0.133823 -0.153380 -0.087481
v 0.126904 -0.147460 -0.091323
v 0.135296 -0.153121 -0.089246
v 0.085157 -0.121079 -0.472461
v 0.072837 -0.113421 -0.459453
v 0.073519 -0.113105 -0.472461
v 0.096492 -0.128923 -0.472461
v 0.120406 -0.147382 -0.103551
v 0.114465 -0.144760 -0.094734
v 0.120406 -0.147382 -0.118922
v 0.120866 -0.146923 -0.098614
v 0.120406 -0.147382 -0.472461
v 0.120406 -0.147382 -0.457089
v 0.109243 -0.138148 -0.460074
v 0.108707 -0.137947 -0.472461
v 0.070750 -0.114901 -0.394416
v 0.090630 -0.132126 -0.376756
v 0.070472 -0.114907 -0.381408
v 0.070892 -0.114642 -0.407423
v 0.072557 -0.113788 -0.290356
v 0.071944 -0.113981 -0.303364
v 0.071602 -0.114431 -0.316371
v 0.072630 -0.113736 -0.446446
v 0.120406 -0.147382 -0.426347
v 0.071716 -0.114125 -0.433438
v 0.071326 -0.114583 -0.342386
v 0.099315 -0.137513 -0.331142
v 0.071323 -0.114372 -0.329378
v 0.070645 -0.114798 -0.355393
v 0.070725 -0.114915 -0.368401
v 0.072867 -0.113568 -0.264341
v 0.104076 -0.139933 -0.265445
v 0.073153 -0.113222 -0.251334
v 0.072653 -0.113536 -0.277349
v 0.076482 -0.111130 -0.121259
v 0.075335 -0.111817 -0.134267
v 0.076942 -0.110807 -0.114755
v 0.122213 -0.145575 -0.094013
v 0.121507 -0.149998 -0.080952
v 0.120406 -0.147382 -0.134293
v 0.120406 -0.147382 -0.149664
v 0.120406 -0.147382 -0.165036
v 0.120406 -0.147382 -0.180407
v 0.120406 -0.147382 -0.195778
v 0.120406 -0.147382 -0.211149
v 0.120406 -0.147382 -0.226521
v 0.120406 -0.147382 -0.241892
v 0.120406 -0.147382 -0.257263
v 0.120406 -0.147382 -0.272634
v 0.120406 -0.147382 -0.288006
v 0.120406 -0.147382 -0.303377
v 0.120406 -0.147382 -0.349490
v 0.120406 -0.147382 -0.364862
v 0.120406 -0.147382 -0.334119
v 0.104520 -0.139523 -0.370863
v 0.120406 -0.147382 -0.380233
v 0.120406 -0.147382 -0.395604
v 0.071329 -0.114581 -0.420431
v 0.120406 -0.147382 -0.410975
v 0.120406 -0.147382 -0.441718
v 0.087722 -0.119737 -0.089706
v 0.086452 -0.118272 -0.090655
v 0.089999 -0.122116 -0.087673
v 0.104482 -0.136356 -0.079679
v 0.106890 -0.138615 -0.078586
v 0.101647 -0.133595 -0.080862
v 0.098406 -0.130479 -0.082283
v 0.094939 -0.127120 -0.084139
v 0.138237 -0.157827 -0.084661
v 0.135880 -0.157165 -0.082849
v 0.074795 -0.112190 -0.173289
v 0.103292 -0.133897 -0.472461
v 0.075194 -0.112056 -0.141228
v 0.074918 -0.112113 -0.147274
v 0.134263 -0.156754 -0.081740
v 0.131596 -0.156261 -0.080371
v 0.129332 -0.155643 -0.079123
v 0.083584 -0.114911 -0.093205
v 0.092941 -0.125108 -0.085534
v 0.077687 -0.110148 -0.108252
v 0.078469 -0.109723 -0.101593
v 0.081436 -0.112316 -0.094677
v 0.078912 -0.109441 -0.096924
v 0.084858 -0.116309 -0.091948
v 0.114465 -0.144760 -0.094734
v 0.113336 -0.144514 -0.077388
v 0.109769 -0.141250 -0.077947
v 0.119090 -0.149416 -0.077055
v 0.116156 -0.147009 -0.077009
v 0.122267 -0.151556 -0.077534
v 0.125750 -0.153676 -0.078085
v 0.137392 -0.154753 -0.088967
v 0.139527 -0.156360 -0.088665
v 0.074140 -0.112720 -0.231440
v 0.073733 -0.113032 -0.242270
v 0.075038 -0.112161 -0.153643
v 0.075003 -0.112052 -0.160281
v 0.074177 -0.112736 -0.207451
v 0.073646 -0.112912 -0.199304
v 0.074338 -0.112524 -0.212311
v 0.074393 -0.112592 -0.217617
v 0.074986 -0.112195 -0.166812
v 0.074562 -0.112478 -0.180640
v 0.074274 -0.112570 -0.186296
v 0.074139 -0.112761 -0.191077
v 0.120406 -0.147382 -0.318748
v 0.121507 -0.149998 -0.080952
v 0.078469 -0.109723 -0.101593
v 0.131068 -0.149873 -0.089874
v 0.126904 -0.147460 -0.091323
v 0.133823 -0.153380 -0.087481
v 0.135296 -0.153121 -0.089246
v 0.085157 -0.121079 -0.472461
v 0.073519 -0.113105 -0.472461
v 0.072837 -0.113421 -0.459453
v 0.096492 -0.128923 -0.472461
v 0.120406 -0.147382 -0.103551
v 0.120406 -0.147382 -0.118922
v 0.120866 -0.146923 -0.098614
v 0.120406 -0.147382 -0.472461
v 0.109243 -0.138148 -0.460074
v 0.120406 -0.147382 -0.457089
v 0.108707 -0.137947 -0.472461
v 0.070750 -0.114901 -0.394416
v 0.070472 -0.114907 -0.381408
v 0.090630 -0.132126 -0.376756
v 0.070892 -0.114642 -0.407423
v 0.072557 -0.113788 -0.290356
v 0.071602 -0.114431 -0.316371
v 0.071944 -0.113981 -0.303364
v 0.072630 -0.113736 -0.446446
v 0.071716 -0.114125 -0.433438
v 0.120406 -0.147382 -0.426347
v 0.071326 -0.114583 -0.342386
v 0.071323 -0.114372 -0.329378
v 0.099315 -0.137513 -0.331142
v 0.070645 -0.114798 -0.355393
v 0.070725 -0.114915 -0.368401
v 0.072867 -0.113568 -0.264341
v 0.073153 -0.113222 -0.251334
v 0.104076 -0.139933 -0.265445
v 0.072653 -0.113536 -0.277349
v 0.076482 -0.111130 -0.121259
v 0.075335 -0.111817 -0.134267
v 0.076942 -0.110807 -0.114755
v 0.122213 -0.145575 -0.094013
v 0.120406 -0.147382 -0.134293
v 0.120406 -0.147382 -0.149664
v 0.120406 -0.147382 -0.165036
v 0.120406 -0.147382 -0.180407
v 0.120406 -0.147382 -0.195778
v 0.120406 -0.147382 -0.211149
v 0.120406 -0.147382 -0.226521
v 0.120406 -0.147382 -0.241892
v 0.120406 -0.147382 -0.257263
v 0.120406 -0.147382 -0.272634
v 0.120406 -0.147382 -0.288006
v 0.120406 -0.147382 -0.303377
v 0.120406 -0.147382 -0.349490
v 0.120406 -0.147382 -0.364862
v 0.120406 -0.147382 -0.334119
v 0.120406 -0.147382 -0.380233
v 0.104520 -0.139523 -0.370863
v 0.120406 -0.147382 -0.395604
v 0.120406 -0.147382 -0.410975
v 0.071329 -0.114581 -0.420431
v 0.120406 -0.147382 -0.441718
v 0.074795 -0.112190 -0.173289
v 0.103292 -0.133897 -0.472461
v 0.075194 -0.112056 -0.141228
v 0.074918 -0.112113 -0.147274
v 0.077687 -0.110148 -0.108252
v 0.074140 -0.112720 -0.231440
v 0.073733 -0.113032 -0.242270
v 0.075038 -0.112161 -0.153643
v 0.075003 -0.112052 -0.160281
v 0.074177 -0.112736 -0.207451
v 0.073646 -0.112912 -0.199304
v 0.074338 -0.112524 -0.212311
v 0.074393 -0.112592 -0.217617
v 0.074986 -0.112195 -0.166812
v 0.074562 -0.112478 -0.180640
v 0.074274 -0.112570 -0.186296
v 0.074139 -0.112761 -0.191077
v 0.120406 -0.147382 -0.318748
vn -0.5047 -0.7507 -0.4263
vn -0.4873 -0.7587 -0.4323
vn -0.0695 -0.5990 -0.7978
vn -0.4777 -0.7194 -0.5043
vn -0.4786 -0.7185 -0.5047
vn -0.4843 -0.7119 -0.5086
vn -0.4854 -0.7105 -0.5094
vn -0.5653 -0.8233 -0.0507
vn -0.5675 -0.8216 -0.0538
vn -0.5645 -0.8239 -0.0496
vn -0.5682 -0.8211 -0.0548
vn -0.4038 -0.9149 0.0000
vn -0.4025 -0.9154 -0.0000
vn -0.2559 -0.9601 0.1131
vn -0.6374 -0.7705 0.0000
vn -0.6277 -0.7783 0.0145
vn -0.6469 -0.7624 -0.0154
vn -0.6418 -0.7665 -0.0237
vn -0.6475 -0.7619 -0.0142
vn -0.6427 -0.7658 -0.0229
vn -0.6893 -0.7232 0.0432
vn -0.5565 -0.8284 -0.0639
vn -0.5674 -0.8230 -0.0290
vn -0.6367 -0.7711 0.0124
vn -0.6367 -0.7710 0.0113
vn -0.6367 -0.7710 0.0112
vn -0.6441 -0.7635 0.0463
vn -0.6511 -0.7589 0.0122
vn -0.6442 -0.7640 0.0345
vn -0.6451 -0.7640 0.0087
vn -0.6452 -0.7639 0.0097
vn -0.6471 -0.7622 0.0191
vn -0.6975 -0.7097 0.0990
vn -0.6930 -0.7160 0.0846
vn -0.6368 -0.7710 0.0102
vn -0.1281 -0.9410 0.3132
vn -0.0692 -0.9438 -0.3233
vn -0.1868 -0.9274 -0.3241
vn -0.4066 -0.9136 0.0010
vn -0.4138 -0.9104 -0.0003
vn -0.4150 -0.9098 0.0000
vn -0.4238 -0.9057 0.0000
vn -0.4434 -0.8963 0.0000
vn -0.4397 -0.8981 -0.0122
vn -0.5557 -0.8314 0.0000
vn -0.5291 -0.8456 -0.0712
vn -0.5900 -0.8066 -0.0365
vn -0.5455 -0.7799 0.3069
vn -0.6227 -0.7825 0.0032
vn -0.6902 -0.7047 -0.1642
vn -0.6885 -0.7218 -0.0710
vn -0.6881 -0.7226 -0.0668
vn -0.6887 -0.7214 -0.0728
vn -0.4417 -0.7910 -0.4234
vn -0.4418 -0.7907 -0.4238
vn -0.4432 -0.7876 -0.4281
vn -0.6750 -0.7370 -0.0362
vn -0.6861 -0.7258 -0.0498
vn -0.6855 -0.7264 -0.0488
vn -0.6821 -0.7300 -0.0433
vn -0.6825 -0.7296 -0.0436
vn -0.6828 -0.7292 -0.0443
vn -0.6407 -0.7674 -0.0251
vn -0.5589 -0.8280 -0.0457
vn -0.4906 -0.7519 -0.4405
vn -0.5304 -0.7357 -0.4211
vn -0.4001 -0.8978 -0.1838
vn -0.6562 -0.7544 0.0186
vn -0.5910 -0.8067 0.0069
vn -0.5977 -0.8016 0.0120
vn -0.5989 -0.8007 0.0129
vn -0.5586 -0.8284 -0.0419
vn -0.5593 -0.8279 -0.0413
vn -0.5596 -0.8278 -0.0411
vn -0.5904 -0.8071 0.0066
vn -0.5452 -0.8353 -0.0707
vn -0.6576 -0.7521 0.0427
vn -0.6474 -0.7619 0.0195
vn -0.6661 -0.7448 0.0386
vn -0.6655 -0.7454 0.0374
vn -0.6663 -0.7446 0.0391
vn -0.6653 -0.7457 0.0374
vn -0.4727 -0.7751 -0.4193
vn -0.4434 -0.7872 -0.4286
vn -0.4548 -0.7735 -0.4415
vn -0.4167 -0.7225 -0.5517
vn -0.4842 -0.7666 -0.4219
vn -0.8036 -0.5791 0.1375
vn -0.8024 -0.5810 0.1367
vn -0.8076 -0.5729 0.1399
vn -0.6830 -0.7291 0.0437
vn -0.6872 -0.7239 -0.0614
vn -0.6870 -0.7241 -0.0605
vn -0.9896 -0.0780 0.1212
vn -0.7972 -0.5917 0.1201
vn -0.8093 -0.5702 0.1409
vn -0.7882 -0.6053 0.1112
vn 0.8269 0.4445 -0.3445
vn 0.8271 0.4442 -0.3443
vn 0.8270 0.4489 -0.3384
vn 0.6881 0.7226 0.0668
vn 0.6887 0.7215 0.0722
vn 0.6887 0.7214 0.0728
vn -0.5646 -0.8250 -0.0250
vn -0.6714 -0.7403 -0.0330
vn -0.6713 -0.7405 -0.0330
vn -0.6708 -0.7409 -0.0327
vn -0.6719 -0.7399 -0.0332
vn -0.6133 -0.7424 -0.2695
vn -0.6139 -0.7414 -0.2711
vn -0.6154 -0.7385 -0.2754
vn -0.6158 -0.7379 -0.2762
vn -0.5672 -0.7897 -0.2338
vn -0.5320 -0.8089 -0.2504
vn -0.5221 -0.8101 -0.2666
vn 0.5304 0.7357 0.4211
vn 0.4839 0.7667 0.4219
vn 0.4876 0.7586 0.4321
vn -0.6427 -0.7647 0.0462
vn -0.6383 -0.7678 0.0555
vn -0.6423 -0.7651 0.0460
vn -0.6312 -0.7756 -0.0067
vn -0.6286 -0.7777 -0.0090
vn -0.6318 -0.7751 -0.0061
vn -0.6288 -0.7775 -0.0095
vn -0.7352 -0.6750 -0.0625
vn -0.7271 -0.6844 -0.0539
vn -0.6754 -0.7375 0.0024
vn -0.6376 -0.7682 0.0569
vn -0.6560 -0.7546 0.0184
vn -0.6561 -0.7545 0.0185
vn -0.6558 -0.7547 0.0182
vn -0.5989 -0.7992 0.0503
vn -0.6099 -0.7913 0.0439
vn -0.6000 -0.7984 0.0502
vn -0.6016 -0.7973 0.0493
vn -0.6020 -0.7970 0.0488
vn -0.5994 -0.7988 0.0506
vn -0.5596 -0.8288 0.0000
vn -0.5312 -0.8056 0.2624
vn -0.5626 -0.8258 -0.0388
vn -0.6606 -0.7505 0.0190
vn 0.5221 0.8101 0.2666
vn 0.6713 0.7405 0.0330
vn 0.6741 0.7378 0.0354
vn 0.6712 0.7405 0.0330
vn 0.6719 0.7399 0.0332
vn 0.7883 0.6051 -0.1113
vn 0.5320 0.8089 0.2504
vn 0.5047 0.7507 0.4263
vn 0.0695 0.5990 0.7978
vn 0.4777 0.7194 0.5043
vn 0.4843 0.7119 0.5086
vn 0.4786 0.7185 0.5047
vn 0.4854 0.7105 0.5094
vn 0.5645 0.8239 0.0496
vn 0.5682 0.8211 0.0548
vn 0.4038 0.9149 0.0000
vn 0.4025 0.9154 0.0000
vn 0.2559 0.9601 -0.1131
vn 0.6374 0.7705 0.0000
vn 0.6277 0.7783 -0.0145
vn 0.6469 0.7624 0.0154
vn 0.6475 0.7619 0.0142
vn 0.6418 0.7665 0.0237
vn 0.6427 0.7658 0.0229
vn 0.6893 0.7232 -0.0432
vn 0.5565 0.8284 0.0639
vn 0.5674 0.8230 0.0290
vn 0.6367 0.7711 -0.0124
vn 0.6367 0.7710 -0.0112
vn 0.6367 0.7710 -0.0113
vn 0.6441 0.7635 -0.0463
vn 0.6511 0.7589 -0.0122
vn 0.6442 0.7640 -0.0345
vn 0.6451 0.7640 -0.0087
vn 0.6471 0.7622 -0.0191
vn 0.6453 0.7639 -0.0098
vn 0.6975 0.7097 -0.0990
vn 0.6930 0.7160 -0.0846
vn 0.6368 0.7710 -0.0102
vn 0.1281 0.9410 -0.3132
vn 0.0692 0.9438 0.3233
vn 0.1868 0.9274 0.3241
vn 0.4066 0.9136 -0.0010
vn 0.4150 0.9098 0.0000
vn 0.4138 0.9104 0.0003
vn 0.4238 0.9057 0.0000
vn 0.4433 0.8964 0.0001
vn 0.4434 0.8963 0.0000
vn 0.4434 0.8963 0.0001
vn 0.4397 0.8981 0.0122
vn 0.5557 0.8314 0.0000
vn 0.5291 0.8456 0.0712
vn 0.5900 0.8066 0.0365
vn 0.5455 0.7799 -0.3069
vn 0.6227 0.7825 -0.0032
vn 0.6902 0.7047 0.1642
vn 0.4417 0.7910 0.4234
vn 0.4432 0.7876 0.4281
vn 0.4418 0.7907 0.4238
vn 0.6750 0.7370 0.0362
vn 0.6861 0.7258 0.0498
vn 0.6821 0.7300 0.0433
vn 0.6855 0.7264 0.0489
vn 0.6825 0.7296 0.0436
vn 0.6828 0.7292 0.0443
vn 0.6407 0.7674 0.0251
vn 0.5589 0.8280 0.0457
vn 0.4906 0.7519 0.4405
vn 0.4001 0.8978 0.1838
vn 0.6562 0.7543 -0.0186
vn 0.6562 0.7544 -0.0186
vn 0.5910 0.8067 -0.0069
vn 0.5989 0.8007 -0.0129
vn 0.5977 0.8016 -0.0120
vn 0.5586 0.8284 0.0419
vn 0.5904 0.8071 -0.0066
vn 0.5452 0.8353 0.0707
vn 0.6576 0.7521 -0.0427
vn 0.6474 0.7619 -0.0195
vn 0.6661 0.7448 -0.0386
vn 0.6663 0.7446 -0.0391
vn 0.6655 0.7454 -0.0374
vn 0.6653 0.7457 -0.0374
vn 0.4727 0.7751 0.4193
vn 0.4434 0.7872 0.4286
vn 0.4548 0.7735 0.4415
vn 0.4167 0.7225 0.5517
vn 0.8036 0.5791 -0.1375
vn 0.8076 0.5729 -0.1399
vn 0.8024 0.5810 -0.1367
vn 0.6830 0.7291 -0.0437
vn 0.6879 0.7229 0.0651
vn 0.6870 0.7241 0.0605
vn 0.9896 0.0780 -0.1212
vn 0.7972 0.5917 -0.1201
vn 0.8093 0.5702 -0.1409
vn 0.5646 0.8250 0.0250
vn 0.6133 0.7424 0.2695
vn 0.6154 0.7385 0.2754
vn 0.6139 0.7414 0.2711
vn 0.6158 0.7379 0.2762
vn 0.5672 0.7897 0.2338
vn 0.6427 0.7647 -0.0462
vn 0.6423 0.7651 -0.0460
vn 0.6383 0.7678 -0.0555
vn 0.6312 0.7756 0.0067
vn 0.6318 0.7751 0.0061
vn 0.6286 0.7777 0.0090
vn 0.6288 0.7775 0.0095
vn 0.7352 0.6750 0.0625
vn 0.7271 0.6844 0.0539
vn 0.6754 0.7375 -0.0024
vn 0.6376 0.7682 -0.0569
vn 0.6560 0.7546 -0.0184
vn 0.6558 0.7547 -0.0182
vn 0.5989 0.7992 -0.0503
vn 0.6099 0.7913 -0.0439
vn 0.6023 0.7968 -0.0488
vn 0.6039 0.7956 -0.0477
vn 0.6020 0.7970 -0.0488
vn 0.5994 0.7988 -0.0506
vn 0.5596 0.8288 0.0000
vn 0.5312 0.8056 -0.2624
vn 0.5626 0.8258 0.0388
vn 0.6606 0.7505 -0.0190
usemtl None.050
s 1
f 1//1 2//1 3//1
f 1//2 4//2 2//2
f 5//3 6//3 7//3
f 5//4 8//5 6//6
f 8//5 3//7 6//6
f 9//8 10//9 11//10
f 9//8 12//11 10//9
f 13//12 14//13 15//12
f 13//14 16//14 14//14
f 17//15 18//15 19//15
f 17//16 19//16 20//16
f 21//17 22//18 23//19
f 21//17 24//20 22//18
f 25//21 26//21 27//21
f 28//22 29//22 30//22
f 28//23 10//23 29//23
f 31//24 32//25 33//26
f 31//27 34//27 32//27
f 35//28 23//28 22//28
f 36//29 37//29 38//29
f 36//30 39//31 37//32
f 40//33 41//33 14//33
f 40//34 14//34 42//34
f 27//35 33//26 32//25
f 16//36 43//36 14//36
f 43//37 44//37 14//37
f 43//38 7//38 44//38
f 15//12 14//13 45//12
f 45//12 14//13 46//12
f 46//12 14//13 47//39
f 47//39 37//40 48//41
f 47//39 14//13 37//40
f 48//41 37//40 49//41
f 49//41 37//40 50//41
f 50//41 37//40 51//41
f 51//41 37//40 52//41
f 52//41 37//40 53//41
f 53//41 37//40 54//41
f 54//41 37//40 55//41
f 55//41 37//40 56//41
f 57//42 32//42 58//42
f 57//42 59//42 32//42
f 58//43 60//43 61//43
f 58//44 32//44 60//44
f 61//43 60//43 62//43
f 62//45 63//45 64//45
f 62//46 60//46 63//46
f 64//45 63//45 29//45
f 18//15 65//15 19//15
f 35//47 60//47 32//47
f 35//48 22//48 60//48
f 35//49 32//49 34//49
f 14//50 66//50 67//50
f 14//51 68//52 66//53
f 7//54 6//55 44//56
f 69//57 14//57 70//57
f 69//58 71//59 14//60
f 72//61 14//60 71//59
f 72//61 73//62 14//60
f 63//63 22//18 24//20
f 63//64 30//64 29//64
f 74//65 3//65 2//65
f 74//66 75//66 3//66
f 63//67 60//67 22//67
f 76//68 37//68 14//68
f 65//15 29//15 19//15
f 19//69 77//70 20//71
f 19//72 29//73 12//74
f 19//69 12//75 77//70
f 37//76 27//76 56//76
f 25//77 27//77 37//77
f 25//78 37//32 39//31
f 78//79 14//80 41//81
f 78//79 79//82 14//80
f 6//83 3//83 80//83
f 6//55 80//84 44//56
f 81//85 82//85 44//85
f 81//86 44//86 80//86
f 3//87 75//87 80//87
f 42//88 67//89 83//90
f 42//91 14//91 67//91
f 14//51 84//92 68//52
f 14//51 73//93 84//92
f 85//94 42//94 86//94
f 86//95 83//95 87//95
f 86//96 42//88 83//90
f 87//97 88//97 86//97
f 67//98 83//99 89//100
f 68//101 90//102 66//103
f 14//104 44//104 91//104
f 14//105 92//106 70//107
f 14//105 91//108 92//106
f 93//109 94//110 44//111
f 44//111 94//110 91//112
f 44//113 95//113 93//113
f 44//114 96//114 95//114
f 44//115 82//115 96//115
f 75//116 74//116 97//116
f 75//117 97//117 80//117
f 4//118 98//118 2//118
f 99//119 100//120 37//121
f 101//122 14//123 79//124
f 101//122 102//125 14//123
f 103//126 37//126 104//126
f 103//127 105//127 37//127
f 105//128 106//128 37//128
f 38//129 37//121 100//120
f 107//130 14//131 102//132
f 107//130 76//68 14//131
f 108//133 37//133 76//133
f 108//134 109//134 37//134
f 110//135 37//136 109//137
f 110//135 104//138 37//136
f 56//139 27//139 111//139
f 27//140 32//140 111//140
f 32//42 59//42 111//42
f 12//74 29//73 10//141
f 99//142 37//142 106//142
f 82//143 112//143 96//143
f 92//144 90//145 70//146
f 92//144 91//147 90//145
f 88//148 87//148 113//148
f 96//149 112//149 95//149
f 98//150 97//150 2//150
f 114//151 115//151 116//151
f 114//152 116//153 117//154
f 117//154 116//153 97//155
f 118//156 119//156 120//156
f 118//157 120//157 121//157
f 122//158 123//158 90//159
f 122//160 90//160 124//160
f 125//161 126//161 127//161
f 125//162 128//162 126//162
f 129//163 130//164 131//165
f 129//163 131//165 132//166
f 133//167 134//167 135//167
f 136//168 137//168 138//168
f 136//169 138//169 120//169
f 139//170 140//171 141//172
f 139//173 141//173 142//173
f 143//174 131//174 130//174
f 144//175 145//175 146//175
f 144//176 146//177 147//178
f 148//179 90//179 149//179
f 148//180 150//180 90//180
f 134//181 141//172 140//171
f 124//182 90//182 151//182
f 151//183 90//183 112//183
f 151//184 112//184 115//184
f 123//158 152//158 90//159
f 152//158 153//158 90//159
f 153//158 154//185 90//159
f 154//185 155//186 146//187
f 154//185 146//187 90//159
f 155//186 156//186 146//187
f 156//186 157//186 146//187
f 157//186 158//186 146//187
f 158//186 159//186 146//187
f 159//186 160//186 146//187
f 160//186 161//186 146//187
f 161//186 162//186 146//187
f 162//186 163//186 146//187
f 164//188 165//188 141//188
f 164//188 141//188 166//188
f 165//189 167//190 168//191
f 165//189 168//191 141//192
f 167//190 169//190 168//191
f 169//193 170//193 171//193
f 169//194 171//194 168//194
f 170//193 138//193 171//193
f 127//161 126//161 172//161
f 143//195 141//195 168//195
f 143//196 168//196 131//196
f 143//197 142//197 141//197
f 90//198 67//198 66//198
f 115//199 112//200 116//201
f 69//202 70//146 90//145
f 69//203 90//204 71//205
f 72//206 71//205 90//204
f 72//206 90//204 73//207
f 171//208 132//166 131//165
f 171//209 138//209 137//209
f 74//210 2//210 97//210
f 171//211 131//211 168//211
f 173//212 90//213 146//213
f 172//161 126//161 138//161
f 126//214 128//215 174//216
f 126//217 121//217 138//217
f 126//214 174//216 121//218
f 146//219 163//219 134//219
f 133//220 146//220 134//220
f 133//221 147//178 146//177
f 175//222 149//223 90//224
f 175//222 90//224 176//225
f 116//226 80//226 97//226
f 116//201 112//200 80//227
f 81//228 112//228 82//228
f 81//229 80//229 112//229
f 150//230 83//231 67//232
f 150//233 67//233 90//233
f 90//102 68//101 84//234
f 90//235 84//235 73//235
f 177//236 113//236 150//236
f 113//237 87//237 83//237
f 113//238 83//231 150//230
f 90//239 91//239 112//239
f 93//240 112//241 94//242
f 112//241 91//243 94//242
f 112//244 93//244 95//244
f 178//245 146//246 179//247
f 180//248 176//249 90//250
f 180//248 90//250 181//251
f 182//252 183//252 146//252
f 182//253 146//253 184//253
f 184//254 146//254 185//254
f 145//255 179//247 146//246
f 186//256 181//257 90//213
f 186//256 90//213 173//212
f 187//258 173//258 146//258
f 187//259 146//260 188//261
f 189//262 188//261 146//260
f 189//263 146//263 183//263
f 163//264 190//264 134//264
f 134//265 190//265 141//265
f 141//188 190//188 166//188
f 121//266 120//266 138//266
f 178//267 185//267 146//267
