# Blender v2.79 (sub 0) OBJ File: ''
# www.blender.org
mtllib crack_restart_keyway_300.mtl
o crack_restart_keyway_300
v 0.073499 -0.113119 -0.472461
v 0.085139 -0.121090 -0.472461
v 0.072822 -0.113430 -0.459453
v 0.096675 -0.128777 -0.472461
v 0.120406 -0.147382 -0.103551
v 0.120866 -0.146923 -0.098614
v 0.115286 -0.144844 -0.092349
v 0.120406 -0.147382 -0.118922
v 0.120406 -0.147382 -0.472461
v 0.120406 -0.147382 -0.457089
v 0.103203 -0.133519 -0.472461
v 0.108896 -0.137796 -0.472461
v 0.070746 -0.114903 -0.394416
v 0.070508 -0.114884 -0.381408
v 0.070892 -0.114643 -0.407423
v 0.072597 -0.113759 -0.290356
v 0.104814 -0.139395 -0.237503
v 0.072848 -0.113581 -0.264341
v 0.072640 -0.113545 -0.277349
v 0.071535 -0.114238 -0.303364
v 0.072617 -0.113745 -0.446446
v 0.071666 -0.114157 -0.433438
v 0.071288 -0.114604 -0.420431
v 0.070720 -0.114918 -0.368401
v 0.073834 -0.112965 -0.242478
v 0.073163 -0.113216 -0.251334
v 0.071594 -0.114435 -0.316371
v 0.071570 -0.114217 -0.329378
v 0.071335 -0.114578 -0.342386
v 0.122213 -0.145575 -0.094013
v 0.123285 -0.144503 -0.092038
v 0.122649 -0.146686 -0.090916
v 0.120406 -0.147382 -0.134293
v 0.120406 -0.147382 -0.149664
v 0.120406 -0.147382 -0.165036
v 0.120406 -0.147382 -0.180407
v 0.120406 -0.147382 -0.195778
v 0.120406 -0.147382 -0.211149
v 0.120406 -0.147382 -0.226521
v 0.120406 -0.147382 -0.241892
v 0.120406 -0.147382 -0.257263
v 0.120406 -0.147382 -0.272634
v 0.120406 -0.147382 -0.288006
v 0.120406 -0.147382 -0.303377
v 0.120406 -0.147382 -0.318748
v 0.120406 -0.147382 -0.334119
v 0.120406 -0.147382 -0.349490
v 0.120406 -0.147382 -0.364862
v 0.120406 -0.147382 -0.380233
v 0.120406 -0.147382 -0.395604
v 0.120406 -0.147382 -0.410975
v 0.120406 -0.147382 -0.426347
v 0.120406 -0.147382 -0.441718
v 0.070791 -0.114706 -0.355393
v 0.089581 -0.122208 -0.094632
v 0.092452 -0.125493 -0.092656
v 0.120406 -0.147382 -0.118922
v 0.086783 -0.119367 -0.096870
v 0.124496 -0.147418 -0.089783
v 0.120893 -0.147038 -0.089496
v 0.120789 -0.148496 -0.084353
v 0.123544 -0.149520 -0.084855
v 0.125059 -0.149928 -0.085559
v 0.103766 -0.136246 -0.085770
v 0.109557 -0.141043 -0.083901
v 0.106737 -0.138769 -0.084770
v 0.075179 -0.112066 -0.141196
v 0.074867 -0.112145 -0.147274
v 0.074557 -0.112482 -0.217956
v 0.074400 -0.112480 -0.212311
v 0.074613 -0.112305 -0.225319
v 0.075022 -0.112171 -0.153674
v 0.075021 -0.112039 -0.160281
v 0.073559 -0.112967 -0.199304
v 0.074106 -0.112783 -0.191011
v 0.074188 -0.112728 -0.207428
v 0.074318 -0.112641 -0.233174
v 0.075354 -0.111804 -0.134267
v 0.075584 -0.111693 -0.131643
v 0.075005 -0.112183 -0.166852
v 0.074826 -0.112171 -0.173289
v 0.074566 -0.112476 -0.180632
v 0.074264 -0.112577 -0.186296
v 0.076499 -0.111119 -0.121259
v 0.101004 -0.133654 -0.087017
v 0.098415 -0.131332 -0.088548
v 0.083250 -0.115803 -0.099809
v 0.076870 -0.110858 -0.114755
v 0.081069 -0.113226 -0.101845
v 0.077718 -0.110126 -0.108252
v 0.075936 -0.111520 -0.127763
v 0.093905 -0.126925 -0.091599
v 0.079550 -0.111363 -0.102941
v 0.077718 -0.110126 -0.108252
v 0.078280 -0.109816 -0.103699
v 0.095314 -0.128328 -0.090550
v 0.108101 -0.139955 -0.084283
v 0.125281 -0.145796 -0.091256
v 0.114845 -0.144822 -0.083439
v 0.127324 -0.147041 -0.090738
v 0.129187 -0.148466 -0.090319
v 0.128972 -0.150085 -0.088474
v 0.130569 -0.149568 -0.090053
v 0.118002 -0.146724 -0.083650
v 0.120893 -0.147038 -0.089496
v 0.129187 -0.148466 -0.090319
v 0.073499 -0.113119 -0.472461
v 0.072822 -0.113430 -0.459453
v 0.085139 -0.121090 -0.472461
v 0.096675 -0.128777 -0.472461
v 0.120406 -0.147382 -0.103551
v 0.115286 -0.144844 -0.092349
v 0.120866 -0.146923 -0.098614
v 0.120406 -0.147382 -0.472461
v 0.103203 -0.133519 -0.472461
v 0.120406 -0.147382 -0.457089
v 0.108896 -0.137796 -0.472461
v 0.070746 -0.114903 -0.394416
v 0.070508 -0.114884 -0.381408
v 0.070892 -0.114643 -0.407423
v 0.072597 -0.113759 -0.290356
v 0.072848 -0.113581 -0.264341
v 0.104814 -0.139395 -0.237503
v 0.072640 -0.113545 -0.277349
v 0.071535 -0.114238 -0.303364
v 0.072617 -0.113745 -0.446446
v 0.071666 -0.114157 -0.433438
v 0.071288 -0.114604 -0.420431
v 0.070720 -0.114918 -0.368401
v 0.073163 -0.113216 -0.251334
v 0.073834 -0.112965 -0.242478
v 0.071594 -0.114435 -0.316371
v 0.071335 -0.114578 -0.342386
v 0.071570 -0.114217 -0.329378
v 0.122213 -0.145575 -0.094013
v 0.122649 -0.146686 -0.090916
v 0.123285 -0.144503 -0.092038
v 0.120406 -0.147382 -0.134293
v 0.120406 -0.147382 -0.149664
v 0.120406 -0.147382 -0.165036
v 0.120406 -0.147382 -0.180407
v 0.120406 -0.147382 -0.195778
v 0.120406 -0.147382 -0.211149
v 0.120406 -0.147382 -0.226521
v 0.120406 -0.147382 -0.241892
v 0.120406 -0.147382 -0.257263
v 0.120406 -0.147382 -0.272634
v 0.120406 -0.147382 -0.288006
v 0.120406 -0.147382 -0.303377
v 0.120406 -0.147382 -0.318748
v 0.120406 -0.147382 -0.334119
v 0.120406 -0.147382 -0.349490
v 0.120406 -0.147382 -0.364862
v 0.120406 -0.147382 -0.380233
v 0.120406 -0.147382 -0.395604
v 0.120406 -0.147382 -0.410975
v 0.120406 -0.147382 -0.426347
v 0.120406 -0.147382 -0.441718
v 0.070791 -0.114706 -0.355393
v 0.124496 -0.147418 -0.089783
v 0.075179 -0.112066 -0.141196
v 0.074867 -0.112145 -0.147274
v 0.074557 -0.112482 -0.217956
v 0.074400 -0.112480 -0.212311
v 0.074613 -0.112305 -0.225319
v 0.075022 -0.112171 -0.153674
v 0.075021 -0.112039 -0.160281
v 0.073559 -0.112967 -0.199304
v 0.074106 -0.112783 -0.191011
v 0.074188 -0.112728 -0.207428
v 0.074318 -0.112641 -0.233174
v 0.075354 -0.111804 -0.134267
v 0.075584 -0.111693 -0.131643
v 0.075005 -0.112183 -0.166852
v 0.074826 -0.112171 -0.173289
v 0.074566 -0.112476 -0.180632
v 0.074264 -0.112577 -0.186296
v 0.076499 -0.111119 -0.121259
v 0.076870 -0.110858 -0.114755
v 0.075936 -0.111520 -0.127763
v 0.125281 -0.145796 -0.091256
v 0.127324 -0.147041 -0.090738
vn 0.5643 0.8241 0.0491
vn 0.5542 0.8317 0.0350
vn 0.2345 0.9657 -0.1116
vn 0.4441 0.8960 0.0000
vn 0.6275 0.7786 0.0000
vn 0.0000 0.0000 1.0000
vn 0.5121 0.8589 0.0081
vn 0.5382 0.8425 0.0229
vn 0.5378 0.8428 0.0227
vn 0.5410 0.8408 0.0198
vn 0.6340 0.7732 -0.0114
vn 0.8329 0.5533 -0.0119
vn 0.8363 0.5482 -0.0118
vn 0.8329 0.5533 -0.0118
vn 0.7006 0.7087 -0.0833
vn 0.5819 0.8104 0.0682
vn 0.5599 0.8281 0.0289
vn 0.5623 0.8257 0.0447
vn 0.4834 0.8754 -0.0056
vn -0.0054 0.9996 -0.0279
vn 0.6145 0.7889 -0.0092
vn 0.9392 -0.3432 -0.0075
vn 0.9392 -0.3432 -0.0074
vn 0.9398 -0.3416 -0.0075
vn 0.6164 0.7873 -0.0105
vn 0.0314 0.9567 -0.2895
vn -0.8807 0.3927 0.2649
vn 0.4559 0.8900 0.0000
vn 0.4553 0.8902 -0.0170
vn 0.5500 0.8350 0.0174
vn 0.5500 0.8350 0.0168
vn 0.5504 0.8347 0.0171
vn 0.5476 0.8366 0.0172
vn 0.6955 0.7015 0.1556
vn -0.6955 -0.7015 -0.1556
vn 0.6723 0.7345 0.0919
vn 0.6727 0.7343 0.0913
vn 0.6734 0.7340 0.0882
vn -0.6723 -0.7345 -0.0919
vn -0.6734 -0.7340 -0.0882
vn -0.6727 -0.7343 -0.0913
vn 0.1270 0.9146 0.3838
vn 0.1224 0.9542 0.2730
vn 0.3824 0.8209 0.4240
vn 0.4139 0.8058 0.4236
vn -0.1872 -0.5441 -0.8179
vn 0.5322 0.8464 0.0187
vn 0.6638 0.7471 -0.0351
vn 0.6242 0.7807 -0.0295
vn 0.6016 0.7977 -0.0413
vn 0.6708 0.7413 0.0223
vn 0.6711 0.7411 0.0184
vn 0.6714 0.7409 0.0187
vn 0.6727 0.7396 0.0229
vn 0.6956 0.7182 0.0140
vn 0.6956 0.7183 0.0139
vn 0.6958 0.7181 0.0141
vn 0.6960 0.7179 0.0142
vn 0.6028 0.7958 -0.0574
vn 0.6057 0.7936 -0.0571
vn 0.6046 0.7946 -0.0552
vn 0.6956 0.7145 0.0749
vn 0.6917 0.7191 0.0673
vn 0.6972 0.7137 0.0680
vn 0.6916 0.7192 0.0666
vn 0.6537 0.7544 -0.0601
vn 0.6538 0.7545 -0.0570
vn 0.6534 0.7546 -0.0603
vn 0.6538 0.7545 -0.0568
vn -0.0717 0.9968 -0.0359
vn 0.6493 0.7603 -0.0171
vn 0.6502 0.7596 -0.0182
vn 0.6513 0.7586 -0.0174
vn 0.6522 0.7579 -0.0167
vn 0.6019 0.7971 -0.0481
vn 0.6048 0.7945 -0.0544
vn 0.6140 0.7879 -0.0480
vn 0.6136 0.7883 -0.0468
vn 0.6051 0.7943 -0.0550
vn 0.5833 0.8030 0.1222
vn 0.6529 0.7557 -0.0507
vn 0.6132 0.7888 0.0428
vn 0.6373 0.7666 -0.0786
vn 0.6449 0.7616 0.0645
vn -0.6449 -0.7616 -0.0645
vn 0.6621 0.7450 0.0821
vn -0.6621 -0.7450 -0.0821
vn 0.6707 0.7366 0.0869
vn 0.6375 0.7675 -0.0668
vn 0.6375 0.7675 -0.0672
vn 0.6375 0.7675 -0.0669
vn 0.8235 0.5418 -0.1683
vn 0.8231 0.5423 -0.1684
vn 0.8235 0.5417 -0.1685
vn 0.6375 0.7675 -0.0666
vn 0.6862 0.7091 0.1624
vn 0.0758 0.9419 0.3272
vn -0.5706 0.8213 -0.0013
vn -0.5713 0.8207 -0.0011
vn -0.1139 0.9929 -0.0339
vn 0.6651 0.7413 0.0901
vn 0.6673 0.7392 0.0914
vn 0.6661 0.7402 0.0920
vn -0.6651 -0.7413 -0.0901
vn -0.6661 -0.7402 -0.0920
vn -0.6673 -0.7392 -0.0914
vn 0.8069 0.5726 -0.1450
vn -0.8069 -0.5726 0.1450
vn 0.7976 0.5870 -0.1388
vn 0.7978 0.5868 -0.1386
vn 0.7977 0.5871 -0.1381
vn -0.7976 -0.5870 0.1388
vn -0.7977 -0.5871 0.1381
vn -0.7978 -0.5868 0.1386
vn 0.6626 0.7434 0.0907
vn -0.6626 -0.7435 -0.0907
vn 0.6634 0.7432 0.0876
vn -0.6634 -0.7432 -0.0876
vn -0.2396 -0.5914 -0.7700
vn -0.0437 0.4667 0.8833
vn -0.1479 0.7032 0.6955
vn 0.1812 0.9189 0.3505
vn -0.5179 -0.7702 -0.3721
vn 0.6082 0.7933 0.0281
vn 0.1783 0.6128 0.7698
vn 0.3735 0.6752 0.6361
vn 0.1660 0.6448 0.7461
vn 0.4072 0.6624 0.6288
vn 0.5171 0.8556 0.0235
vn 0.3154 0.9431 0.1053
vn 0.5631 0.7920 0.2359
vn 0.3610 0.8220 0.4404
vn -0.6707 -0.7366 -0.0869
vn -0.5631 -0.7920 -0.2359
vn -0.4072 -0.6624 -0.6288
vn -0.5643 -0.8241 -0.0491
vn -0.5542 -0.8317 -0.0350
vn -0.2345 -0.9657 0.1116
vn -0.4441 -0.8960 0.0000
vn -0.6275 -0.7786 0.0000
vn 0.0000 0.0000 -1.0000
vn -0.5121 -0.8589 -0.0081
vn -0.5382 -0.8425 -0.0229
vn -0.5410 -0.8408 -0.0198
vn -0.5378 -0.8428 -0.0227
vn -0.6340 -0.7732 0.0114
vn -0.8329 -0.5533 0.0119
vn -0.8329 -0.5533 0.0118
vn -0.8363 -0.5482 0.0118
vn -0.7006 -0.7087 0.0833
vn -0.5819 -0.8104 -0.0682
vn -0.5599 -0.8281 -0.0289
vn -0.5623 -0.8257 -0.0447
vn -0.4834 -0.8754 0.0056
vn 0.0054 -0.9996 0.0279
vn -0.6172 -0.7867 0.0096
vn -0.6147 -0.7887 0.0091
vn -0.6145 -0.7889 0.0092
vn -0.9392 0.3432 0.0075
vn -0.9398 0.3416 0.0075
vn -0.9392 0.3432 0.0074
vn -0.6164 -0.7873 0.0105
vn -0.0314 -0.9567 0.2895
vn 0.8807 -0.3927 -0.2649
vn -0.4559 -0.8900 -0.0000
vn -0.4553 -0.8902 0.0170
vn -0.5500 -0.8350 -0.0174
vn -0.5504 -0.8347 -0.0171
vn -0.5500 -0.8350 -0.0168
vn -0.5476 -0.8366 -0.0172
vn -0.1270 -0.9146 -0.3838
vn -0.1224 -0.9542 -0.2730
vn -0.3824 -0.8209 -0.4240
vn -0.4139 -0.8058 -0.4236
vn -0.5322 -0.8464 -0.0187
vn -0.6638 -0.7471 0.0351
vn -0.6242 -0.7807 0.0295
vn -0.6016 -0.7977 0.0413
vn -0.6708 -0.7413 -0.0223
vn -0.6714 -0.7409 -0.0187
vn -0.6711 -0.7411 -0.0184
vn -0.6727 -0.7396 -0.0229
vn -0.6956 -0.7182 -0.0140
vn -0.6958 -0.7181 -0.0141
vn -0.6956 -0.7183 -0.0139
vn -0.6960 -0.7179 -0.0142
vn -0.6028 -0.7958 0.0574
vn -0.6101 -0.7907 0.0501
vn -0.6057 -0.7936 0.0571
vn -0.6956 -0.7145 -0.0749
vn -0.6971 -0.7137 -0.0680
vn -0.6917 -0.7191 -0.0673
vn -0.6916 -0.7192 -0.0666
vn -0.6537 -0.7544 0.0601
vn -0.6524 -0.7555 0.0599
vn -0.6534 -0.7547 0.0588
vn -0.6538 -0.7545 0.0568
vn 0.0717 -0.9968 0.0359
vn -0.6493 -0.7603 0.0171
vn -0.6513 -0.7586 0.0174
vn -0.6502 -0.7596 0.0182
vn -0.6522 -0.7579 0.0167
vn -0.6019 -0.7972 0.0481
vn -0.6048 -0.7945 0.0544
vn -0.6161 -0.7858 0.0534
vn -0.5833 -0.8030 -0.1222
vn -0.6529 -0.7557 0.0507
vn -0.6132 -0.7888 -0.0428
vn -0.6373 -0.7666 0.0786
vn -0.6364 -0.7682 0.0695
vn -0.6379 -0.7672 0.0674
vn -0.6375 -0.7675 0.0672
vn -0.8235 -0.5418 0.1683
vn -0.8235 -0.5417 0.1685
vn -0.8231 -0.5423 0.1684
vn -0.6375 -0.7675 0.0666
vn -0.6862 -0.7091 -0.1624
vn -0.0758 -0.9419 -0.3272
vn 0.5706 -0.8213 0.0013
vn 0.5713 -0.8207 0.0011
vn 0.1139 -0.9929 0.0339
vn 0.0437 -0.4667 -0.8833
vn 0.1479 -0.7032 -0.6955
vn -0.1812 -0.9189 -0.3505
vn -0.6082 -0.7933 -0.0281
vn -0.1783 -0.6128 -0.7698
vn -0.3735 -0.6752 -0.6361
vn -0.1660 -0.6448 -0.7461
vn -0.5171 -0.8556 -0.0235
vn -0.3154 -0.9431 -0.1053
vn -0.3610 -0.8220 -0.4404
usemtl None.046
s 1
f 1//1 3//1 2//1
f 2//2 3//2 4//2
f 5//3 7//3 6//3
f 5//4 8//4 7//4
f 9//5 11//5 10//5
f 9//6 12//6 11//6
f 13//7 14//7 11//7
f 13//8 11//9 15//10
f 16//11 18//11 17//11
f 16//12 19//13 18//14
f 16//15 17//15 20//15
f 21//16 22//16 11//16
f 21//17 11//17 3//17
f 23//18 11//18 22//18
f 24//19 11//19 14//19
f 18//20 26//20 25//20
f 27//21 20//21 17//21
f 27//22 29//23 28//24
f 27//25 17//25 29//25
f 6//26 7//26 30//26
f 30//27 32//27 31//27
f 33//28 34//28 17//28
f 33//28 17//28 8//28
f 35//28 36//28 17//28
f 35//28 17//28 34//28
f 36//28 37//28 17//28
f 37//28 38//28 17//28
f 38//28 39//28 17//28
f 39//28 40//28 17//28
f 40//28 41//28 17//28
f 41//28 42//28 17//28
f 42//28 43//28 17//28
f 43//28 44//28 17//28
f 44//28 45//28 17//28
f 45//28 46//28 17//28
f 46//28 47//28 17//28
f 48//5 49//5 11//5
f 48//5 11//5 47//5
f 49//5 50//5 11//5
f 50//5 51//5 11//5
f 51//5 52//5 11//5
f 52//5 53//5 11//5
f 10//5 11//5 53//5
f 11//29 24//29 54//29
f 11//30 17//31 47//32
f 11//30 54//33 17//31
f 55//34 56//34 8//34
f 55//35 57//35 56//35
f 55//36 8//37 58//38
f 55//39 58//40 57//41
f 59//42 32//42 60//42
f 59//43 60//43 61//43
f 59//44 61//44 62//44
f 59//45 62//45 63//45
f 64//46 65//46 66//46
f 11//9 23//47 15//10
f 54//48 29//48 17//48
f 67//49 8//49 17//49
f 67//50 17//50 68//50
f 69//51 70//52 17//53
f 69//51 17//53 71//54
f 72//55 68//56 17//57
f 72//55 17//57 73//58
f 74//59 75//60 17//61
f 74//62 17//63 76//64
f 76//64 17//63 70//65
f 77//66 17//67 25//68
f 77//66 71//69 17//67
f 78//70 79//70 67//70
f 80//71 73//72 17//73
f 80//71 17//73 81//74
f 82//75 81//76 17//77
f 82//75 17//77 83//78
f 75//60 83//79 17//61
f 4//80 3//80 11//80
f 25//81 17//81 18//81
f 8//82 64//82 7//82
f 67//83 84//83 8//83
f 85//84 8//84 86//84
f 85//85 86//85 57//85
f 85//86 64//86 8//86
f 85//87 57//87 64//87
f 8//37 87//88 58//38
f 8//89 84//90 88//91
f 88//92 90//93 89//94
f 88//91 89//95 8//89
f 8//96 89//96 87//96
f 60//97 32//97 30//97
f 67//98 91//99 84//98
f 67//100 79//100 91//100
f 56//101 92//102 8//103
f 56//104 57//105 92//106
f 93//107 89//107 90//107
f 93//108 94//108 89//108
f 93//109 90//110 95//111
f 93//112 95//113 94//114
f 96//115 8//103 92//102
f 96//116 92//106 57//105
f 96//115 86//117 8//103
f 96//116 57//105 86//118
f 65//119 97//119 66//119
f 31//120 32//120 98//120
f 32//121 59//121 98//121
f 30//122 7//122 60//122
f 65//123 64//123 99//123
f 64//124 99//124 7//124
f 98//125 59//125 100//125
f 100//126 102//126 101//126
f 100//127 59//127 102//127
f 101//128 102//128 103//128
f 99//129 104//129 7//129
f 7//130 104//130 60//130
f 104//131 61//131 60//131
f 59//132 63//132 102//132
f 58//40 87//133 57//41
f 61//134 104//134 105//134
f 102//135 106//135 103//135
f 107//136 109//136 108//136
f 109//137 110//137 108//137
f 111//138 113//138 112//138
f 111//139 112//139 57//139
f 114//140 116//140 115//140
f 114//141 115//141 117//141
f 118//142 115//142 119//142
f 118//143 120//144 115//145
f 121//146 123//146 122//146
f 121//147 122//148 124//149
f 121//150 125//150 123//150
f 126//151 115//151 127//151
f 126//152 108//152 115//152
f 128//153 127//153 115//153
f 129//154 119//154 115//154
f 122//155 131//155 130//155
f 132//156 123//157 125//158
f 132//159 134//160 133//161
f 132//156 133//162 123//157
f 113//163 135//163 112//163
f 135//164 137//164 136//164
f 138//165 123//165 139//165
f 138//165 57//165 123//165
f 140//165 123//165 141//165
f 140//165 139//165 123//165
f 141//165 123//165 142//165
f 142//165 123//165 143//165
f 143//165 123//165 144//165
f 144//165 123//165 145//165
f 145//165 123//165 146//165
f 146//165 123//165 147//165
f 147//165 123//165 148//165
f 148//165 123//165 149//165
f 149//165 123//165 150//165
f 150//165 123//165 151//165
f 151//165 123//165 152//165
f 153//140 115//140 154//140
f 153//140 152//140 115//140
f 154//140 115//140 155//140
f 155//140 115//140 156//140
f 156//140 115//140 157//140
f 157//140 115//140 158//140
f 116//140 158//140 115//140
f 115//166 159//166 129//166
f 115//167 152//168 123//169
f 115//167 123//169 159//170
f 160//171 105//171 136//171
f 160//172 61//172 105//172
f 160//173 62//173 61//173
f 160//174 63//174 62//174
f 115//145 120//144 128//175
f 159//176 123//176 133//176
f 161//177 123//177 57//177
f 161//178 162//178 123//178
f 163//179 123//180 164//181
f 163//179 165//182 123//180
f 166//183 123//184 162//185
f 166//183 167//186 123//184
f 168//187 123//188 169//189
f 168//190 170//191 123//192
f 170//191 164//193 123//192
f 171//194 131//195 123//196
f 171//194 123//196 165//197
f 172//198 161//198 173//198
f 174//199 123//200 167//201
f 174//199 175//202 123//200
f 176//203 123//188 175//204
f 176//203 177//205 123//188
f 169//189 123//188 177//205
f 110//206 115//206 108//206
f 131//195 122//207 123//196
f 57//208 112//208 64//208
f 161//209 57//210 178//211
f 57//210 179//212 178//211
f 179//213 89//214 94//215
f 179//216 57//216 89//216
f 57//217 87//217 89//217
f 105//218 135//218 136//218
f 161//219 178//219 180//220
f 161//221 180//221 173//221
f 137//222 181//222 136//222
f 136//223 181//223 160//223
f 135//224 105//224 112//224
f 64//225 112//225 99//225
f 181//226 182//226 160//226
f 182//227 106//227 102//227
f 182//228 102//228 160//228
f 99//229 112//229 104//229
f 112//230 105//230 104//230
f 160//231 102//231 63//231
