# Blender v2.79 (sub 0) OBJ File: ''
# www.blender.org
mtllib crack_restart_keyway_735.mtl
o crack_restart_keyway_735
v 0.073339 -0.113233 -0.472461
v 0.072924 -0.113366 -0.459453
v 0.084645 -0.121400 -0.472461
v 0.147224 -0.162040 -0.087635
v 0.134422 -0.160633 -0.075720
v 0.152185 -0.169042 -0.080797
v 0.150730 -0.164626 -0.087295
v 0.143382 -0.159202 -0.088100
v 0.154210 -0.167189 -0.086931
v 0.139594 -0.156318 -0.088612
v 0.126540 -0.147825 -0.091832
v 0.122213 -0.145575 -0.094013
v 0.125996 -0.154473 -0.075216
v 0.131068 -0.149873 -0.089874
v 0.120406 -0.147382 -0.457089
v 0.095795 -0.129479 -0.472461
v 0.120406 -0.147382 -0.103551
v 0.114631 -0.144474 -0.094849
v 0.120866 -0.146923 -0.098614
v 0.120406 -0.147382 -0.118922
v 0.120406 -0.147382 -0.472461
v 0.108107 -0.138425 -0.472461
v 0.085172 -0.104292 0.316371
v 0.101338 -0.120456 0.353312
v 0.083198 -0.104159 0.290356
v 0.085735 -0.102194 0.341492
v 0.074044 -0.112733 -0.186296
v 0.074380 -0.112451 -0.173289
v 0.075327 -0.111967 -0.141503
v 0.074031 -0.112671 -0.199304
v 0.073575 -0.113065 -0.238326
v 0.073853 -0.112782 -0.225319
v 0.104171 -0.140677 -0.280927
v 0.073188 -0.113200 -0.251334
v 0.070690 -0.114935 -0.394416
v 0.069871 -0.115284 -0.381408
v 0.090632 -0.132125 -0.376755
v 0.070969 -0.114595 -0.407423
v 0.072144 -0.114081 -0.290356
v 0.071388 -0.114331 -0.303364
v 0.072591 -0.113575 -0.277349
v 0.072590 -0.113764 -0.446446
v 0.071899 -0.114010 -0.433438
v 0.071565 -0.114451 -0.420431
v 0.070468 -0.115058 -0.368401
v 0.070411 -0.114945 -0.355393
v 0.073094 -0.113407 -0.264341
v 0.074611 -0.112330 -0.160281
v 0.074852 -0.112155 -0.147274
v 0.076245 -0.111279 -0.121259
v 0.106709 -0.141479 -0.120716
v 0.075651 -0.111592 -0.134267
v 0.076225 -0.111185 -0.108252
v 0.071656 -0.114401 -0.316371
v 0.071556 -0.114226 -0.329378
v 0.138911 -0.179771 0.257955
v 0.078582 -0.108239 0.212311
v 0.141153 -0.177275 0.285758
v 0.135825 -0.181399 0.194552
v 0.146864 -0.173653 -0.061407
v 0.148179 -0.172558 -0.068128
v 0.146105 -0.174170 -0.051125
v 0.150304 -0.170710 -0.074792
v 0.115971 -0.144843 -0.090501
v 0.120406 -0.147382 -0.134293
v 0.120406 -0.147382 -0.149664
v 0.120406 -0.147382 -0.165036
v 0.120406 -0.147382 -0.180407
v 0.120406 -0.147382 -0.195778
v 0.074030 -0.112743 -0.212311
v 0.120406 -0.147382 -0.211149
v 0.120406 -0.147382 -0.241892
v 0.120406 -0.147382 -0.257263
v 0.120406 -0.147382 -0.272634
v 0.120406 -0.147382 -0.288006
v 0.120406 -0.147382 -0.303377
v 0.120406 -0.147382 -0.349490
v 0.120406 -0.147382 -0.334119
v 0.120406 -0.147382 -0.364862
v 0.120406 -0.147382 -0.380233
v 0.120406 -0.147382 -0.395604
v 0.120406 -0.147382 -0.410975
v 0.120406 -0.147382 -0.426347
v 0.071764 -0.111119 -0.054992
v 0.142291 -0.176235 -0.008733
v 0.143801 -0.174911 -0.027843
v 0.140300 -0.177819 0.016859
v 0.145030 -0.174539 -0.039918
v 0.135369 -0.153077 -0.089183
v 0.074613 -0.112086 -0.081618
v 0.075700 -0.111528 -0.096588
v 0.120406 -0.147382 -0.226521
v 0.120406 -0.147382 -0.441718
v 0.103583 -0.135136 -0.472461
v 0.071824 -0.114308 -0.342386
v 0.120406 -0.147382 -0.318748
v 0.142528 -0.175292 0.304956
v 0.109455 -0.129139 0.358123
v 0.144583 -0.173849 0.327501
v 0.141646 -0.176565 0.292615
v 0.146774 -0.172257 0.358693
v 0.133635 -0.155234 0.370928
v 0.147884 -0.171318 0.374484
v 0.070325 -0.112210 -0.001446
v 0.071466 -0.113530 0.025259
v 0.072303 -0.113004 -0.026347
v 0.070054 -0.112480 0.052171
v 0.071346 -0.113607 0.079071
v 0.087575 -0.129703 0.125870
v 0.070313 -0.112222 0.106112
v 0.073084 -0.112513 0.129208
v 0.073627 -0.109630 0.159331
v 0.078055 -0.109391 0.199638
v 0.080112 -0.106237 0.242920
v 0.134721 -0.181906 0.160256
v 0.134671 -0.182105 0.139230
v 0.134899 -0.181648 0.111476
v 0.135857 -0.181264 0.086945
v 0.136879 -0.180208 0.063762
v 0.138802 -0.179154 0.037113
v 0.085172 -0.104292 0.316371
v 0.146774 -0.172257 0.358693
v 0.073339 -0.113233 -0.472461
v 0.084645 -0.121400 -0.472461
v 0.072924 -0.113366 -0.459453
v 0.147224 -0.162040 -0.087635
v 0.152185 -0.169042 -0.080797
v 0.134422 -0.160633 -0.075720
v 0.150730 -0.164626 -0.087295
v 0.143382 -0.159202 -0.088100
v 0.154210 -0.167189 -0.086931
v 0.139594 -0.156318 -0.088612
v 0.126540 -0.147825 -0.091832
v 0.125996 -0.154473 -0.075216
v 0.122213 -0.145575 -0.094013
v 0.131068 -0.149873 -0.089874
v 0.120406 -0.147382 -0.457089
v 0.095795 -0.129479 -0.472461
v 0.120406 -0.147382 -0.103551
v 0.120866 -0.146923 -0.098614
v 0.114631 -0.144474 -0.094849
v 0.120406 -0.147382 -0.118922
v 0.120406 -0.147382 -0.472461
v 0.108107 -0.138425 -0.472461
v 0.083198 -0.104159 0.290356
v 0.074044 -0.112733 -0.186296
v 0.075327 -0.111967 -0.141503
v 0.074380 -0.112451 -0.173289
v 0.074031 -0.112671 -0.199304
v 0.073575 -0.113065 -0.238326
v 0.104171 -0.140677 -0.280927
v 0.073853 -0.112782 -0.225319
v 0.073188 -0.113200 -0.251334
v 0.070690 -0.114935 -0.394416
v 0.090632 -0.132125 -0.376755
v 0.069871 -0.115284 -0.381408
v 0.070969 -0.114595 -0.407423
v 0.072144 -0.114081 -0.290356
v 0.071388 -0.114331 -0.303364
v 0.072591 -0.113575 -0.277349
v 0.072590 -0.113764 -0.446446
v 0.071899 -0.114010 -0.433438
v 0.071565 -0.114451 -0.420431
v 0.070468 -0.115058 -0.368401
v 0.070411 -0.114945 -0.355393
v 0.073094 -0.113407 -0.264341
v 0.074611 -0.112330 -0.160281
v 0.074852 -0.112155 -0.147274
v 0.076245 -0.111279 -0.121259
v 0.075651 -0.111592 -0.134267
v 0.106709 -0.141479 -0.120716
v 0.076225 -0.111185 -0.108252
v 0.071656 -0.114401 -0.316371
v 0.071556 -0.114226 -0.329378
v 0.138911 -0.179771 0.257955
v 0.141153 -0.177275 0.285758
v 0.078582 -0.108239 0.212311
v 0.135825 -0.181399 0.194552
v 0.146864 -0.173653 -0.061407
v 0.148179 -0.172558 -0.068128
v 0.146105 -0.174170 -0.051125
v 0.150304 -0.170710 -0.074792
v 0.115971 -0.144843 -0.090501
v 0.120406 -0.147382 -0.134293
v 0.120406 -0.147382 -0.149664
v 0.120406 -0.147382 -0.165036
v 0.120406 -0.147382 -0.180407
v 0.074030 -0.112743 -0.212311
v 0.120406 -0.147382 -0.195778
v 0.120406 -0.147382 -0.211149
v 0.120406 -0.147382 -0.241892
v 0.120406 -0.147382 -0.257263
v 0.120406 -0.147382 -0.272634
v 0.120406 -0.147382 -0.288006
v 0.120406 -0.147382 -0.303377
v 0.120406 -0.147382 -0.349490
v 0.120406 -0.147382 -0.334119
v 0.120406 -0.147382 -0.364862
v 0.120406 -0.147382 -0.380233
v 0.120406 -0.147382 -0.395604
v 0.120406 -0.147382 -0.410975
v 0.120406 -0.147382 -0.426347
v 0.071764 -0.111119 -0.054992
v 0.143801 -0.174911 -0.027843
v 0.142291 -0.176235 -0.008733
v 0.140300 -0.177819 0.016859
v 0.145030 -0.174539 -0.039918
v 0.135369 -0.153077 -0.089183
v 0.074613 -0.112086 -0.081618
v 0.075700 -0.111528 -0.096588
v 0.120406 -0.147382 -0.226521
v 0.120406 -0.147382 -0.441718
v 0.103583 -0.135136 -0.472461
v 0.071824 -0.114308 -0.342386
v 0.120406 -0.147382 -0.318748
v 0.142528 -0.175292 0.304956
v 0.144583 -0.173849 0.327501
v 0.141646 -0.176565 0.292615
v 0.070325 -0.112210 -0.001446
v 0.071466 -0.113530 0.025259
v 0.072303 -0.113004 -0.026347
v 0.070054 -0.112480 0.052171
v 0.071346 -0.113607 0.079071
v 0.087575 -0.129703 0.125870
v 0.070313 -0.112222 0.106112
v 0.073084 -0.112513 0.129208
v 0.073627 -0.109630 0.159331
v 0.078055 -0.109391 0.199638
v 0.080112 -0.106237 0.242920
v 0.134721 -0.181906 0.160256
v 0.134671 -0.182105 0.139230
v 0.134899 -0.181648 0.111476
v 0.135857 -0.181264 0.086945
v 0.136879 -0.180208 0.063762
v 0.138802 -0.179154 0.037113
vn -0.5853 -0.8103 -0.0270
vn -0.5854 -0.8105 -0.0212
vn -0.5835 -0.8118 -0.0244
vn -0.4838 -0.7624 -0.4297
vn -0.5193 -0.7564 -0.3977
vn -0.5174 -0.7580 -0.3971
vn -0.5190 -0.7564 -0.3982
vn -0.4965 -0.7451 -0.4454
vn -0.4976 -0.7432 -0.4472
vn -0.5026 -0.7408 -0.4456
vn -0.5162 -0.7577 -0.3993
vn -0.5034 -0.7382 -0.4490
vn -0.2783 -0.8886 -0.3646
vn -0.2470 -0.8969 -0.3669
vn -0.5815 -0.8132 -0.0217
vn -0.5867 -0.8098 -0.0037
vn -0.5875 -0.8092 -0.0048
vn -0.5868 -0.8097 -0.0013
vn -0.3016 -0.9463 0.1161
vn -0.4497 -0.8932 0.0000
vn -0.5887 -0.8084 0.0000
vn -0.5886 -0.8085 -0.0011
vn -0.7659 -0.6406 0.0548
vn -0.7802 -0.6217 0.0694
vn -0.8507 -0.5246 0.0334
vn -0.8530 -0.5208 0.0333
vn 0.6196 -0.7849 -0.0044
vn 0.6211 -0.7837 -0.0043
vn 0.6211 -0.7837 -0.0044
vn -0.6454 -0.7634 0.0278
vn -0.6470 -0.7620 0.0295
vn -0.6460 -0.7627 0.0304
vn -0.6475 -0.7619 0.0183
vn -0.6207 -0.7818 -0.0601
vn -0.6352 -0.7716 -0.0338
vn -0.6307 -0.7752 -0.0344
vn -0.6323 -0.7738 -0.0374
vn -0.6470 -0.7607 0.0521
vn -0.6470 -0.7607 0.0522
vn -0.6470 -0.7607 0.0520
vn -0.6470 -0.7607 0.0518
vn -0.5817 -0.8124 -0.0402
vn -0.5819 -0.8120 -0.0451
vn -0.5799 -0.8134 -0.0458
vn -0.5806 -0.8132 -0.0398
vn -0.5803 -0.8133 -0.0425
vn -0.6451 -0.7641 0.0038
vn -0.6351 -0.7712 0.0426
vn -0.6544 -0.7560 0.0168
vn -0.6486 -0.7603 0.0349
vn 0.2865 -0.9580 0.0076
vn 0.2878 -0.9577 0.0075
vn 0.4417 -0.8972 0.0005
vn -0.7036 -0.7089 0.0492
vn -0.7041 -0.7101 0.0040
vn -0.6252 -0.7804 -0.0081
vn -0.6221 -0.7829 -0.0061
vn -0.6247 -0.7808 -0.0071
vn -0.6228 -0.7823 -0.0086
vn -0.7948 -0.5953 0.1175
vn -0.7954 -0.5945 0.1177
vn -0.7950 -0.5949 0.1184
vn -0.7800 -0.6234 0.0540
vn -0.5575 -0.7951 -0.2386
vn -0.6710 -0.7364 -0.0866
vn -0.4813 -0.7930 -0.3734
vn -0.4816 -0.7933 -0.3725
vn -0.4816 -0.7933 -0.3724
vn -0.4819 -0.7936 -0.3714
vn -0.1708 -0.9310 0.3227
vn -0.3043 -0.8832 -0.3568
vn -0.1391 -0.9894 -0.0411
vn -0.3958 -0.9183 0.0000
vn -0.3974 -0.9175 0.0155
vn -0.6178 -0.7864 0.0000
vn -0.5984 -0.8012 0.0000
vn -0.3817 -0.9243 0.0000
vn -0.4560 -0.8900 0.0000
vn -0.6372 -0.7638 -0.1029
vn -0.6373 -0.7636 -0.1033
vn -0.6400 -0.7615 -0.1026
vn -0.6401 -0.7622 -0.0970
vn -0.6416 -0.7620 -0.0877
vn -0.6416 -0.7620 -0.0878
vn -0.6414 -0.7621 -0.0888
vn -0.5048 -0.7372 -0.4492
vn -0.5743 -0.7998 0.1746
vn -0.6390 -0.7605 -0.1150
vn -0.6418 -0.7620 -0.0867
vn -0.6329 -0.7732 -0.0396
vn -0.5583 -0.8247 0.0905
vn -0.5524 -0.7215 -0.4176
vn -0.6434 -0.7571 0.1129
vn -0.6289 -0.7739 -0.0745
vn -0.6273 -0.7660 -0.1406
vn -0.4843 -0.7480 -0.4539
vn -0.6290 -0.7738 -0.0750
vn -0.6318 -0.7743 -0.0375
vn -0.5918 -0.8033 -0.0667
vn -0.9525 0.0594 0.2986
vn -0.6070 -0.7944 0.0198
vn 0.2851 -0.9585 0.0053
vn -0.5879 -0.8089 -0.0015
vn -0.5790 -0.8089 0.1025
vn -0.5720 -0.8131 0.1085
vn -0.5628 -0.8266 0.0000
vn -0.6228 -0.7824 -0.0079
vn -0.7147 -0.6975 -0.0527
vn -0.7071 -0.7039 0.0681
vn -0.6657 -0.7461 0.0113
vn -0.7436 -0.6595 0.1100
vn -0.7354 -0.6667 0.1213
vn -0.7409 -0.6705 0.0399
vn -0.7539 -0.6501 0.0944
vn -0.7553 -0.6489 0.0917
vn -0.7553 -0.6481 0.0970
vn -0.7527 -0.6514 0.0954
vn -0.7539 -0.6513 0.0862
vn -0.6830 -0.7304 -0.0069
vn -0.6830 -0.7304 -0.0071
vn -0.6794 -0.7331 -0.0306
vn -0.6774 -0.7349 -0.0312
vn -0.6775 -0.7346 -0.0354
vn -0.6830 -0.7304 -0.0073
vn -0.6776 -0.7346 -0.0356
vn -0.7086 -0.7056 0.0075
vn -0.7110 -0.7032 0.0047
vn -0.7126 -0.7015 0.0042
vn -0.7162 -0.6978 0.0084
vn -0.7541 -0.6516 0.0823
vn -0.7545 -0.6515 0.0792
vn -0.7542 -0.6515 0.0820
vn -0.7551 -0.6513 0.0759
vn -0.7454 -0.6610 0.0858
vn -0.7310 -0.6762 0.0919
vn -0.8169 -0.5715 0.0782
vn -0.8183 -0.5694 0.0781
vn -0.8183 -0.5694 0.0782
vn -0.7785 -0.6235 0.0720
vn -0.7766 -0.6252 0.0781
vn -0.7772 -0.6252 0.0707
vn -0.7527 -0.6575 0.0339
vn -0.7448 -0.6673 0.0081
vn -0.7415 -0.6708 -0.0171
vn -0.7441 -0.6669 -0.0395
vn -0.7518 -0.6564 -0.0630
vn -0.9953 0.0678 -0.0691
vn -0.7649 -0.6381 -0.0883
vn -0.6833 -0.7301 -0.0082
vn -0.7765 -0.6257 0.0746
vn -0.7769 -0.6247 0.0786
vn -0.7953 -0.5945 0.1187
vn -0.5005 -0.8593 -0.1053
vn 0.7802 0.6217 -0.0694
vn 0.7553 0.6482 -0.0969
vn 0.7553 0.6489 -0.0917
vn 0.7539 0.6502 -0.0944
vn 0.5853 0.8103 0.0270
vn 0.4838 0.7624 0.4297
vn 0.5193 0.7564 0.3977
vn 0.4965 0.7451 0.4454
vn 0.5026 0.7408 0.4456
vn 0.4976 0.7432 0.4472
vn 0.5162 0.7577 0.3993
vn 0.5034 0.7382 0.4490
vn 0.2783 0.8886 0.3646
vn 0.2470 0.8969 0.3669
vn 0.5815 0.8132 0.0217
vn 0.5867 0.8098 0.0037
vn 0.5875 0.8092 0.0019
vn 0.5875 0.8092 0.0048
vn 0.3016 0.9463 -0.1161
vn 0.4497 0.8932 0.0000
vn 0.5887 0.8084 0.0000
vn 0.7659 0.6406 -0.0548
vn 0.8507 0.5246 -0.0334
vn 0.8530 0.5208 -0.0333
vn -0.6196 0.7849 0.0044
vn -0.6211 0.7837 0.0044
vn -0.6211 0.7837 0.0043
vn 0.6460 0.7627 -0.0304
vn 0.6486 0.7606 -0.0272
vn 0.6493 0.7601 -0.0267
vn 0.6475 0.7619 -0.0184
vn 0.6207 0.7818 0.0601
vn 0.6352 0.7716 0.0338
vn 0.6323 0.7738 0.0374
vn 0.6308 0.7752 0.0344
vn 0.6470 0.7607 -0.0521
vn 0.6470 0.7607 -0.0520
vn 0.6470 0.7607 -0.0522
vn 0.6470 0.7607 -0.0518
vn 0.5817 0.8124 0.0402
vn 0.5799 0.8134 0.0458
vn 0.5819 0.8120 0.0451
vn 0.5806 0.8132 0.0398
vn 0.5803 0.8133 0.0425
vn 0.6451 0.7641 -0.0038
vn 0.6351 0.7712 -0.0426
vn 0.6544 0.7560 -0.0168
vn 0.6486 0.7603 -0.0349
vn -0.2865 0.9580 -0.0076
vn -0.2878 0.9577 -0.0075
vn -0.4417 0.8972 -0.0005
vn 0.7036 0.7089 -0.0492
vn 0.7041 0.7101 -0.0040
vn 0.6252 0.7804 0.0081
vn 0.6248 0.7808 0.0071
vn 0.6221 0.7829 0.0061
vn 0.6228 0.7823 0.0086
vn 0.7948 0.5953 -0.1175
vn 0.7950 0.5949 -0.1184
vn 0.7954 0.5945 -0.1177
vn 0.7800 0.6234 -0.0540
vn 0.5575 0.7951 0.2386
vn 0.6710 0.7364 0.0866
vn 0.4813 0.7930 0.3734
vn 0.4816 0.7933 0.3724
vn 0.4816 0.7933 0.3725
vn 0.4819 0.7936 0.3714
vn 0.1708 0.9310 -0.3227
vn 0.3043 0.8832 0.3568
vn 0.1391 0.9894 0.0411
vn 0.3958 0.9183 0.0000
vn 0.3974 0.9175 -0.0155
vn 0.6178 0.7864 0.0000
vn 0.5984 0.8012 0.0000
vn 0.3817 0.9243 0.0000
vn 0.4560 0.8900 0.0000
vn 0.6372 0.7638 0.1029
vn 0.6400 0.7615 0.1026
vn 0.6373 0.7636 0.1033
vn 0.6401 0.7622 0.0970
vn 0.6416 0.7620 0.0877
vn 0.6414 0.7621 0.0888
vn 0.6416 0.7620 0.0878
vn 0.5048 0.7372 0.4492
vn 0.5743 0.7998 -0.1746
vn 0.6390 0.7605 0.1150
vn 0.6418 0.7620 0.0867
vn 0.6329 0.7732 0.0396
vn 0.5583 0.8247 -0.0905
vn 0.5524 0.7215 0.4176
vn 0.6434 0.7571 -0.1129
vn 0.6290 0.7738 0.0749
vn 0.6289 0.7739 0.0745
vn 0.6289 0.7739 0.0746
vn 0.6273 0.7660 0.1406
vn 0.4843 0.7480 0.4539
vn 0.6290 0.7738 0.0750
vn 0.6318 0.7743 0.0375
vn 0.5918 0.8033 0.0667
vn 0.9525 -0.0594 -0.2986
vn 0.6070 0.7944 -0.0198
vn -0.2851 0.9585 -0.0053
vn 0.5880 0.8088 0.0008
vn 0.5879 0.8089 0.0015
vn 0.5773 0.8102 -0.1018
vn 0.5775 0.8090 -0.1099
vn 0.5790 0.8089 -0.1025
vn 0.5720 0.8131 -0.1085
vn 0.5628 0.8266 0.0000
vn 0.6228 0.7824 0.0079
vn 0.7147 0.6975 0.0527
vn 0.7071 0.7039 -0.0681
vn 0.6657 0.7461 -0.0113
vn 0.7436 0.6595 -0.1100
vn 0.7354 0.6667 -0.1213
vn 0.7409 0.6705 -0.0399
vn 0.7539 0.6513 -0.0862
vn 0.7527 0.6514 -0.0954
vn 0.6830 0.7304 0.0069
vn 0.6830 0.7304 0.0071
vn 0.6829 0.7304 0.0072
vn 0.6794 0.7331 0.0306
vn 0.6775 0.7346 0.0354
vn 0.6774 0.7349 0.0312
vn 0.6832 0.7302 0.0078
vn 0.6776 0.7346 0.0356
vn 0.7086 0.7056 -0.0075
vn 0.7126 0.7015 -0.0042
vn 0.7110 0.7032 -0.0047
vn 0.7162 0.6978 -0.0084
vn 0.7541 0.6516 -0.0823
vn 0.7542 0.6515 -0.0821
vn 0.7545 0.6515 -0.0792
vn 0.7551 0.6513 -0.0759
vn 0.7454 0.6610 -0.0858
vn 0.7310 0.6762 -0.0919
vn 0.8169 0.5715 -0.0782
vn 0.8183 0.5694 -0.0782
vn 0.8183 0.5694 -0.0781
vn 0.7785 0.6235 -0.0720
vn 0.7772 0.6252 -0.0707
vn 0.7766 0.6252 -0.0781
vn 0.7527 0.6575 -0.0339
vn 0.7448 0.6673 -0.0081
vn 0.7415 0.6708 0.0171
vn 0.7441 0.6669 0.0395
vn 0.7518 0.6564 0.0630
vn 0.9953 -0.0678 0.0691
vn 0.7649 0.6381 0.0883
vn 0.6833 0.7301 0.0082
vn 0.7765 0.6257 -0.0746
vn 0.7769 0.6247 -0.0786
vn 0.7953 0.5945 -0.1187
vn 0.5005 0.8593 0.1053
usemtl None.142
s 1
f 1//1 3//2 2//3
f 4//4 6//4 5//4
f 4//5 7//6 6//7
f 4//8 5//9 8//10
f 7//6 9//11 6//7
f 8//10 5//9 10//12
f 11//13 13//13 12//13
f 11//14 14//14 13//14
f 3//2 15//15 2//3
f 3//16 16//17 15//18
f 17//19 19//19 18//19
f 17//20 18//20 20//20
f 21//21 15//18 22//22
f 23//23 25//23 24//23
f 23//24 24//24 26//24
f 27//25 29//25 28//26
f 27//27 30//28 29//29
f 31//30 33//31 32//32
f 31//30 34//33 33//31
f 35//34 37//34 36//34
f 35//35 38//36 37//37
f 39//38 40//39 33//40
f 39//38 33//40 41//41
f 42//42 15//43 43//44
f 42//42 2//45 15//43
f 44//46 43//44 15//43
f 45//47 37//47 46//47
f 45//48 36//48 37//48
f 47//49 33//31 34//33
f 47//50 41//50 33//50
f 48//51 29//51 49//52
f 48//53 28//53 29//53
f 50//54 52//54 51//54
f 50//55 51//55 53//55
f 54//56 55//57 33//58
f 54//56 33//58 40//59
f 56//60 58//61 57//62
f 56//63 57//63 59//63
f 60//64 5//64 61//64
f 60//65 62//65 5//65
f 61//66 5//67 63//68
f 63//68 5//67 6//69
f 19//70 12//70 18//70
f 12//71 13//71 64//71
f 12//72 64//72 18//72
f 20//73 51//73 65//73
f 20//74 18//74 51//74
f 65//73 51//73 66//73
f 67//75 66//75 29//75
f 67//75 29//75 68//75
f 68//76 70//76 69//76
f 69//76 70//76 71//76
f 72//77 33//77 73//77
f 73//77 33//77 74//77
f 74//77 33//77 75//77
f 75//77 33//77 76//77
f 77//78 78//78 37//78
f 77//78 37//78 79//78
f 79//78 37//78 80//78
f 80//78 37//78 81//78
f 81//78 37//78 82//78
f 82//78 37//78 83//78
f 84//79 86//80 85//81
f 84//79 85//81 87//82
f 84//83 88//84 86//85
f 10//12 5//9 89//86
f 84//87 13//87 5//87
f 84//88 5//88 62//88
f 84//83 62//89 88//84
f 84//90 90//90 13//90
f 70//91 33//91 72//91
f 14//92 5//92 13//92
f 64//93 91//93 51//93
f 64//94 90//94 91//94
f 66//95 51//95 29//95
f 5//96 14//96 89//96
f 13//97 90//97 64//97
f 44//98 37//37 38//36
f 44//99 15//99 37//99
f 64//100 51//100 18//100
f 92//76 70//76 72//76
f 92//76 71//76 70//76
f 29//101 70//101 68//101
f 29//102 30//102 70//102
f 93//78 83//78 37//78
f 93//78 37//78 15//78
f 15//18 94//103 22//22
f 15//18 16//17 94//103
f 95//104 46//104 37//104
f 78//105 95//105 37//105
f 78//106 96//106 95//106
f 55//57 95//107 33//58
f 51//108 91//108 53//108
f 29//109 51//109 52//109
f 32//110 33//110 70//110
f 97//111 99//111 98//111
f 97//112 98//112 100//112
f 98//113 24//113 25//113
f 101//114 103//115 102//116
f 101//114 98//117 99//118
f 101//114 102//116 98//117
f 104//119 87//120 105//120
f 104//121 106//122 87//123
f 105//120 87//120 107//124
f 106//122 84//125 87//123
f 108//126 107//127 109//128
f 108//126 109//128 110//129
f 110//130 109//131 111//132
f 111//132 109//131 112//133
f 112//134 109//134 113//134
f 113//135 109//135 57//135
f 114//136 57//137 25//138
f 25//139 100//140 98//141
f 59//142 109//142 115//142
f 115//143 109//143 116//143
f 116//144 109//144 117//144
f 118//145 117//145 109//145
f 118//146 109//146 119//146
f 120//147 119//147 87//147
f 87//148 119//148 109//148
f 87//149 109//149 107//149
f 109//150 59//150 57//150
f 57//151 100//140 25//139
f 57//62 58//61 100//152
f 76//153 33//153 95//153
f 76//106 95//106 96//106
f 26//154 24//154 121//154
f 102//155 103//156 122//157
f 123//158 125//158 124//158
f 126//159 128//159 127//159
f 126//160 127//160 129//160
f 126//161 130//162 128//163
f 129//164 127//164 131//164
f 130//162 132//165 128//163
f 133//166 135//166 134//166
f 133//167 134//167 136//167
f 124//168 125//168 137//168
f 124//169 137//170 138//171
f 139//172 141//172 140//172
f 139//173 142//173 141//173
f 143//174 144//174 137//174
f 121//175 24//175 145//175
f 146//176 148//177 147//176
f 146//178 147//179 149//180
f 150//181 152//181 151//181
f 150//182 151//183 153//184
f 154//185 156//185 155//185
f 154//186 155//187 157//188
f 158//189 151//190 159//191
f 158//189 160//192 151//190
f 161//193 162//194 137//195
f 161//193 137//195 125//196
f 163//197 137//195 162//194
f 164//198 165//198 155//198
f 164//199 155//199 156//199
f 166//200 153//184 151//183
f 166//201 151//201 160//201
f 167//202 168//203 147//202
f 167//204 147//204 148//204
f 169//205 171//205 170//205
f 169//206 172//206 171//206
f 173//207 151//208 174//209
f 173//207 159//210 151//208
f 175//211 177//212 176//213
f 175//214 178//214 177//214
f 179//215 180//215 128//215
f 179//216 128//216 181//216
f 180//217 182//218 128//219
f 182//218 127//220 128//219
f 140//221 141//221 135//221
f 135//222 183//222 134//222
f 135//223 141//223 183//223
f 142//224 184//224 171//224
f 142//225 171//225 141//225
f 184//224 185//224 171//224
f 186//226 147//226 185//226
f 186//226 187//226 147//226
f 187//227 189//227 188//227
f 189//227 190//227 188//227
f 191//228 192//228 151//228
f 192//228 193//228 151//228
f 193//228 194//228 151//228
f 194//228 195//228 151//228
f 196//229 155//229 197//229
f 196//229 198//229 155//229
f 198//229 199//229 155//229
f 199//229 200//229 155//229
f 200//229 201//229 155//229
f 201//229 202//229 155//229
f 203//230 205//231 204//232
f 203//230 206//233 205//231
f 203//234 204//235 207//236
f 132//165 208//237 128//163
f 203//238 128//238 134//238
f 203//239 181//239 128//239
f 203//234 207//236 181//240
f 203//241 134//241 209//241
f 188//242 191//242 151//242
f 136//243 134//243 128//243
f 183//244 171//244 210//244
f 183//245 210//246 209//247
f 185//248 147//248 171//248
f 128//249 208//249 136//249
f 134//250 183//245 209//247
f 163//251 157//188 155//187
f 163//252 155//252 137//252
f 183//253 141//253 171//253
f 211//227 191//227 188//227
f 211//227 188//227 190//227
f 147//254 187//254 188//254
f 147//255 188//255 149//255
f 212//229 155//229 202//229
f 212//229 137//229 155//229
f 137//170 144//256 213//257
f 137//170 213//257 138//171
f 214//258 155//259 165//260
f 197//261 155//259 214//258
f 197//262 214//262 215//262
f 174//209 151//208 214//263
f 171//264 172//264 210//264
f 147//265 170//265 171//265
f 152//266 188//266 151//266
f 216//267 98//267 217//267
f 216//268 218//268 98//268
f 98//269 145//269 24//269
f 122//157 217//270 98//271
f 122//157 98//271 102//155
f 219//272 220//273 206//274
f 219//275 206//276 221//277
f 220//273 222//278 206//274
f 221//277 206//276 203//279
f 223//280 224//281 222//282
f 223//280 225//283 224//281
f 225//284 226//285 224//286
f 226//285 227//287 224//286
f 227//288 228//288 224//288
f 228//289 177//289 224//289
f 229//290 145//291 177//292
f 145//293 98//294 218//295
f 178//296 230//296 224//296
f 230//297 231//297 224//297
f 231//298 232//298 224//298
f 233//299 224//299 232//299
f 233//300 234//300 224//300
f 235//301 206//301 234//301
f 206//302 224//302 234//302
f 206//274 222//278 224//303
f 224//304 177//304 178//304
f 177//305 145//293 218//295
f 177//212 218//306 176//213
f 195//307 214//307 151//307
f 195//262 215//262 214//262
