# Blender v2.79 (sub 0) OBJ File: ''
# www.blender.org
mtllib crack_restart_keyway_740.mtl
o crack_restart_keyway_740
v 0.073336 -0.113235 -0.472461
v 0.072921 -0.113368 -0.459453
v 0.084643 -0.121402 -0.472461
v 0.147223 -0.162040 -0.087635
v 0.152185 -0.169041 -0.080797
v 0.150730 -0.164626 -0.087295
v 0.143382 -0.159202 -0.088100
v 0.154210 -0.167189 -0.086931
v 0.139595 -0.156318 -0.088612
v 0.120406 -0.147382 -0.457089
v 0.095793 -0.129480 -0.472461
v 0.120406 -0.147382 -0.103551
v 0.114631 -0.144474 -0.094849
v 0.120866 -0.146923 -0.098614
v 0.120406 -0.147382 -0.118922
v 0.120406 -0.147382 -0.472461
v 0.108106 -0.138426 -0.472461
v 0.085169 -0.104296 0.316371
v 0.102591 -0.120447 0.358753
v 0.082288 -0.104193 0.282047
v 0.086109 -0.101471 0.346784
v 0.074037 -0.112738 -0.186296
v 0.074380 -0.112451 -0.173289
v 0.075313 -0.111977 -0.141473
v 0.074025 -0.112674 -0.199304
v 0.073578 -0.113064 -0.238326
v 0.073853 -0.112782 -0.225319
v 0.104171 -0.140677 -0.280927
v 0.073188 -0.113200 -0.251334
v 0.070687 -0.114936 -0.394416
v 0.069889 -0.115273 -0.381408
v 0.090632 -0.132125 -0.376755
v 0.070969 -0.114594 -0.407423
v 0.072139 -0.114085 -0.290356
v 0.072587 -0.113578 -0.277349
v 0.071383 -0.114335 -0.303364
v 0.072588 -0.113766 -0.446446
v 0.071900 -0.114010 -0.433438
v 0.071824 -0.114308 -0.342386
v 0.071552 -0.114228 -0.329378
v 0.120406 -0.147382 -0.334119
v 0.070392 -0.114957 -0.355393
v 0.071567 -0.114450 -0.420431
v 0.070457 -0.115063 -0.368401
v 0.073094 -0.113407 -0.264341
v 0.074596 -0.112341 -0.160281
v 0.074830 -0.112168 -0.147274
v 0.076237 -0.111284 -0.121259
v 0.102270 -0.136864 -0.128182
v 0.075640 -0.111600 -0.134267
v 0.076187 -0.111212 -0.108252
v 0.071656 -0.114401 -0.316371
v 0.138993 -0.179718 0.257921
v 0.141304 -0.177055 0.287925
v 0.080090 -0.106253 0.242941
v 0.146867 -0.173650 -0.061407
v 0.148180 -0.172557 -0.068127
v 0.115971 -0.144842 -0.090500
v 0.150306 -0.170709 -0.074791
v 0.122213 -0.145575 -0.094013
v 0.126540 -0.147825 -0.091832
v 0.120406 -0.147382 -0.134293
v 0.120406 -0.147382 -0.149664
v 0.120406 -0.147382 -0.165036
v 0.120406 -0.147382 -0.180407
v 0.120406 -0.147382 -0.195778
v 0.074029 -0.112744 -0.212311
v 0.120406 -0.147382 -0.211149
v 0.120406 -0.147382 -0.226521
v 0.120406 -0.147382 -0.241892
v 0.120406 -0.147382 -0.257263
v 0.120406 -0.147382 -0.272634
v 0.120406 -0.147382 -0.288006
v 0.120406 -0.147382 -0.349490
v 0.120406 -0.147382 -0.364862
v 0.120406 -0.147382 -0.380233
v 0.120406 -0.147382 -0.395604
v 0.120406 -0.147382 -0.410975
v 0.120406 -0.147382 -0.426347
v 0.087543 -0.129477 0.125685
v 0.143849 -0.174872 -0.027848
v 0.145062 -0.174515 -0.039941
v 0.071776 -0.111110 -0.054992
v 0.135369 -0.153076 -0.089182
v 0.146121 -0.174157 -0.051137
v 0.131068 -0.149873 -0.089874
v 0.074617 -0.112083 -0.081618
v 0.075663 -0.111550 -0.096613
v 0.120406 -0.147382 -0.303377
v 0.120406 -0.147382 -0.318748
v 0.120406 -0.147382 -0.441718
v 0.103583 -0.135138 -0.472461
v 0.144452 -0.173951 0.326768
v 0.146726 -0.172299 0.358735
v 0.134313 -0.153972 0.375865
v 0.148724 -0.170593 0.380250
v 0.146726 -0.172299 0.358735
v 0.070371 -0.112188 -0.001446
v 0.071482 -0.113520 0.025225
v 0.072325 -0.112990 -0.026300
v 0.070054 -0.112480 0.052171
v 0.071355 -0.113602 0.079090
v 0.070313 -0.112222 0.106112
v 0.073103 -0.112501 0.129169
v 0.073649 -0.109613 0.159331
v 0.078042 -0.109399 0.199612
v 0.078554 -0.108252 0.212311
v 0.136046 -0.181245 0.194744
v 0.134982 -0.181721 0.160099
v 0.134935 -0.181915 0.139452
v 0.135154 -0.181461 0.111333
v 0.136086 -0.181092 0.087145
v 0.137087 -0.180049 0.063653
v 0.138933 -0.179050 0.037238
v 0.140412 -0.177729 0.016801
v 0.142357 -0.176182 -0.008664
v 0.085169 -0.104296 0.316371
v 0.073336 -0.113235 -0.472461
v 0.084643 -0.121402 -0.472461
v 0.072921 -0.113368 -0.459453
v 0.147223 -0.162040 -0.087635
v 0.150730 -0.164626 -0.087295
v 0.152185 -0.169041 -0.080797
v 0.143382 -0.159202 -0.088100
v 0.154210 -0.167189 -0.086931
v 0.139595 -0.156318 -0.088612
v 0.120406 -0.147382 -0.457089
v 0.095793 -0.129480 -0.472461
v 0.120406 -0.147382 -0.103551
v 0.120866 -0.146923 -0.098614
v 0.114631 -0.144474 -0.094849
v 0.120406 -0.147382 -0.118922
v 0.120406 -0.147382 -0.472461
v 0.108106 -0.138426 -0.472461
v 0.082288 -0.104193 0.282047
v 0.074037 -0.112738 -0.186296
v 0.075313 -0.111977 -0.141473
v 0.074380 -0.112451 -0.173289
v 0.074025 -0.112674 -0.199304
v 0.073578 -0.113064 -0.238326
v 0.104171 -0.140677 -0.280927
v 0.073853 -0.112782 -0.225319
v 0.073188 -0.113200 -0.251334
v 0.070687 -0.114936 -0.394416
v 0.090632 -0.132125 -0.376755
v 0.069889 -0.115273 -0.381408
v 0.070969 -0.114594 -0.407423
v 0.072139 -0.114085 -0.290356
v 0.072587 -0.113578 -0.277349
v 0.071383 -0.114335 -0.303364
v 0.072588 -0.113766 -0.446446
v 0.071900 -0.114010 -0.433438
v 0.071824 -0.114308 -0.342386
v 0.120406 -0.147382 -0.334119
v 0.071552 -0.114228 -0.329378
v 0.070392 -0.114957 -0.355393
v 0.071567 -0.114450 -0.420431
v 0.070457 -0.115063 -0.368401
v 0.073094 -0.113407 -0.264341
v 0.074596 -0.112341 -0.160281
v 0.074830 -0.112168 -0.147274
v 0.076237 -0.111284 -0.121259
v 0.075640 -0.111600 -0.134267
v 0.102270 -0.136864 -0.128182
v 0.076187 -0.111212 -0.108252
v 0.071656 -0.114401 -0.316371
v 0.138993 -0.179718 0.257921
v 0.141304 -0.177055 0.287925
v 0.080090 -0.106253 0.242941
v 0.146867 -0.173650 -0.061407
v 0.115971 -0.144842 -0.090500
v 0.148180 -0.172557 -0.068127
v 0.150306 -0.170709 -0.074791
v 0.122213 -0.145575 -0.094013
v 0.126540 -0.147825 -0.091832
v 0.120406 -0.147382 -0.134293
v 0.120406 -0.147382 -0.149664
v 0.120406 -0.147382 -0.165036
v 0.120406 -0.147382 -0.180407
v 0.074029 -0.112744 -0.212311
v 0.120406 -0.147382 -0.195778
v 0.120406 -0.147382 -0.211149
v 0.120406 -0.147382 -0.226521
v 0.120406 -0.147382 -0.241892
v 0.120406 -0.147382 -0.257263
v 0.120406 -0.147382 -0.272634
v 0.120406 -0.147382 -0.288006
v 0.120406 -0.147382 -0.349490
v 0.120406 -0.147382 -0.364862
v 0.120406 -0.147382 -0.380233
v 0.120406 -0.147382 -0.395604
v 0.120406 -0.147382 -0.410975
v 0.120406 -0.147382 -0.426347
v 0.143849 -0.174872 -0.027848
v 0.087543 -0.129477 0.125685
v 0.145062 -0.174515 -0.039941
v 0.071776 -0.111110 -0.054992
v 0.135369 -0.153076 -0.089182
v 0.146121 -0.174157 -0.051137
v 0.131068 -0.149873 -0.089874
v 0.074617 -0.112083 -0.081618
v 0.075663 -0.111550 -0.096613
v 0.120406 -0.147382 -0.303377
v 0.120406 -0.147382 -0.318748
v 0.120406 -0.147382 -0.441718
v 0.103583 -0.135138 -0.472461
v 0.144452 -0.173951 0.326768
v 0.070371 -0.112188 -0.001446
v 0.071482 -0.113520 0.025225
v 0.072325 -0.112990 -0.026300
v 0.070054 -0.112480 0.052171
v 0.071355 -0.113602 0.079090
v 0.070313 -0.112222 0.106112
v 0.073103 -0.112501 0.129169
v 0.073649 -0.109613 0.159331
v 0.078042 -0.109399 0.199612
v 0.078554 -0.108252 0.212311
v 0.136046 -0.181245 0.194744
v 0.134982 -0.181721 0.160099
v 0.134935 -0.181915 0.139452
v 0.135154 -0.181461 0.111333
v 0.136086 -0.181092 0.087145
v 0.137087 -0.180049 0.063653
v 0.138933 -0.179050 0.037238
v 0.140412 -0.177729 0.016801
v 0.142357 -0.176182 -0.008664
vn -0.5853 -0.8104 -0.0270
vn -0.5854 -0.8105 -0.0212
vn -0.5834 -0.8118 -0.0244
vn -0.5143 -0.7540 -0.4087
vn -0.5173 -0.7580 -0.3972
vn -0.5124 -0.7602 -0.3994
vn -0.5110 -0.7580 -0.4053
vn -0.5163 -0.7577 -0.3992
vn -0.5244 -0.7576 -0.3886
vn -0.5298 -0.7579 -0.3806
vn -0.5299 -0.7608 -0.3747
vn -0.5815 -0.8133 -0.0217
vn -0.5867 -0.8098 -0.0037
vn -0.5874 -0.8093 -0.0048
vn -0.5868 -0.8098 -0.0012
vn -0.3016 -0.9463 0.1161
vn -0.4497 -0.8932 0.0000
vn -0.5886 -0.8084 0.0000
vn -0.5884 -0.8085 -0.0009
vn -0.7548 -0.6531 0.0614
vn -0.7775 -0.6236 0.0820
vn -0.9222 -0.3853 0.0328
vn -0.9259 -0.3764 0.0327
vn 0.6223 -0.7828 -0.0044
vn -0.6456 -0.7632 0.0279
vn -0.6470 -0.7619 0.0294
vn -0.6462 -0.7625 0.0302
vn -0.6473 -0.7620 0.0184
vn -0.6216 -0.7812 -0.0584
vn -0.6350 -0.7718 -0.0341
vn -0.6307 -0.7752 -0.0347
vn -0.6322 -0.7739 -0.0375
vn -0.6469 -0.7608 0.0521
vn -0.6469 -0.7608 0.0519
vn -0.6469 -0.7608 0.0522
vn -0.5816 -0.8125 -0.0402
vn -0.5822 -0.8118 -0.0444
vn -0.5801 -0.8133 -0.0457
vn -0.5806 -0.8132 -0.0397
vn -0.5620 -0.8271 -0.0067
vn -0.5620 -0.8271 -0.0066
vn -0.5717 -0.8139 0.1036
vn -0.5736 -0.8118 0.1090
vn -0.5711 -0.8141 0.1054
vn -0.5802 -0.8133 -0.0424
vn -0.6450 -0.7642 0.0030
vn -0.6355 -0.7711 0.0402
vn -0.6544 -0.7560 0.0168
vn -0.6485 -0.7604 0.0353
vn 0.2879 -0.9576 0.0076
vn 0.4505 -0.8928 0.0001
vn 0.4531 -0.8915 0.0000
vn -0.6933 -0.7189 0.0493
vn -0.7007 -0.7135 0.0013
vn -0.5620 -0.8271 -0.0065
vn -0.5771 -0.8134 -0.0736
vn -0.6225 -0.7826 -0.0091
vn -0.7764 -0.6196 0.1148
vn -0.7862 -0.6134 0.0752
vn -0.7855 -0.6142 0.0765
vn -0.7854 -0.6146 0.0741
vn -0.5342 -0.8116 -0.2364
vn -0.4459 -0.8157 -0.3685
vn -0.4465 -0.8158 -0.3675
vn -0.4468 -0.8161 -0.3666
vn -0.4471 -0.8160 -0.3665
vn -0.1708 -0.9310 0.3227
vn -0.2948 -0.8940 -0.3373
vn -0.1392 -0.9894 -0.0408
vn -0.5017 -0.8650 0.0000
vn -0.6175 -0.7865 0.0000
vn -0.5984 -0.8012 0.0000
vn -0.3817 -0.9243 0.0000
vn -0.4560 -0.8900 0.0000
vn -0.7649 -0.6376 -0.0920
vn -0.5516 -0.8303 -0.0798
vn -0.6409 -0.7673 -0.0221
vn -0.5303 -0.7580 -0.3798
vn -0.5731 -0.8121 0.1096
vn -0.6419 -0.7632 -0.0740
vn -0.6188 -0.7811 -0.0835
vn -0.1506 -0.5537 -0.8190
vn -0.2932 -0.9146 -0.2785
vn -0.7123 -0.7001 -0.0504
vn -0.7327 -0.6764 -0.0752
vn -0.6274 -0.7629 -0.1561
vn -0.4844 -0.7483 -0.4532
vn -0.4841 -0.7481 -0.4538
vn -0.5851 -0.8099 0.0412
vn -0.8893 -0.3885 0.2411
vn -0.8896 -0.3879 0.2413
vn -0.8895 -0.3879 0.2413
vn -0.6317 -0.7743 -0.0376
vn -0.5918 -0.8033 -0.0668
vn -0.5934 -0.8011 0.0783
vn -0.5965 -0.8026 0.0000
vn -0.6019 -0.7985 0.0029
vn -0.5932 -0.8050 0.0070
vn -0.6069 -0.7945 0.0196
vn 0.2840 -0.9588 0.0053
vn 0.2827 -0.9592 0.0052
vn -0.5985 -0.8010 0.0104
vn -0.5879 -0.8089 -0.0015
vn -0.7203 -0.6916 -0.0525
vn -0.4962 -0.8681 -0.0142
vn -0.6949 -0.7158 0.0690
vn -0.7487 -0.6532 0.1129
vn -0.7779 -0.6241 0.0736
vn -0.7539 -0.6418 0.1403
vn -0.7586 -0.6457 0.0873
vn -0.7656 -0.6318 0.1212
vn 0.7656 0.6318 -0.1212
vn -0.6775 -0.7355 -0.0085
vn -0.6781 -0.7349 -0.0085
vn -0.6761 -0.7367 -0.0079
vn -0.6185 -0.7855 -0.0233
vn -0.6800 -0.7332 -0.0077
vn -0.4680 -0.8824 -0.0489
vn -0.7046 -0.7095 0.0075
vn -0.7087 -0.7055 0.0042
vn -0.7123 -0.7018 0.0084
vn -0.7070 -0.7072 0.0047
vn -0.7506 -0.6555 0.0829
vn -0.7512 -0.6553 0.0797
vn -0.7514 -0.6546 0.0826
vn -0.7517 -0.6551 0.0763
vn -0.7435 -0.6634 0.0846
vn -0.7287 -0.6788 0.0907
vn -0.7504 -0.6602 0.0321
vn -0.7429 -0.6693 0.0080
vn -0.7396 -0.6728 -0.0166
vn -0.7422 -0.6691 -0.0388
vn -0.7495 -0.6592 -0.0612
vn -0.7580 -0.6476 -0.0775
vn -0.7720 -0.6282 -0.0965
vn -0.7767 -0.6216 -0.1017
vn -0.7729 -0.6271 -0.0967
vn -0.7825 -0.6149 -0.0984
vn -0.7790 -0.6185 -0.1028
vn -0.7571 -0.6483 0.0803
vn -0.7619 -0.6456 0.0511
vn -0.7853 -0.6150 0.0719
vn 0.7775 0.6236 -0.0820
vn 0.5853 0.8104 0.0270
vn 0.5143 0.7539 0.4088
vn 0.5118 0.7583 0.4038
vn 0.5192 0.7564 0.3977
vn 0.5110 0.7580 0.4053
vn 0.5163 0.7577 0.3992
vn 0.5244 0.7576 0.3886
vn 0.5815 0.8133 0.0217
vn 0.5867 0.8098 0.0037
vn 0.5868 0.8097 0.0028
vn 0.5874 0.8093 0.0048
vn 0.3016 0.9463 -0.1161
vn 0.4497 0.8932 0.0000
vn 0.5886 0.8084 0.0000
vn 0.7548 0.6531 -0.0614
vn 0.9222 0.3853 -0.0328
vn 0.9259 0.3764 -0.0327
vn -0.6223 0.7828 0.0044
vn 0.6462 0.7625 -0.0302
vn 0.6485 0.7607 -0.0274
vn 0.6491 0.7603 -0.0268
vn 0.6473 0.7620 -0.0185
vn 0.6216 0.7812 0.0584
vn 0.6350 0.7718 0.0341
vn 0.6322 0.7739 0.0375
vn 0.6307 0.7752 0.0347
vn 0.6469 0.7608 -0.0521
vn 0.6469 0.7608 -0.0519
vn 0.6469 0.7608 -0.0522
vn 0.5816 0.8125 0.0402
vn 0.5801 0.8133 0.0457
vn 0.5822 0.8118 0.0444
vn 0.5806 0.8132 0.0397
vn 0.5620 0.8271 0.0067
vn 0.5620 0.8271 0.0066
vn 0.5717 0.8139 -0.1036
vn 0.5802 0.8133 0.0424
vn 0.6450 0.7642 -0.0030
vn 0.6355 0.7711 -0.0402
vn 0.6544 0.7560 -0.0168
vn 0.6485 0.7604 -0.0353
vn -0.2879 0.9576 -0.0076
vn -0.4505 0.8928 -0.0001
vn -0.4531 0.8915 0.0000
vn 0.6933 0.7189 -0.0493
vn 0.7007 0.7135 -0.0013
vn 0.5620 0.8271 0.0065
vn 0.5771 0.8134 0.0736
vn 0.6225 0.7826 0.0091
vn 0.7764 0.6196 -0.1148
vn 0.7855 0.6142 -0.0765
vn 0.5342 0.8116 0.2364
vn 0.4459 0.8157 0.3685
vn 0.4468 0.8161 0.3666
vn 0.4465 0.8158 0.3675
vn 0.4471 0.8160 0.3665
vn 0.1708 0.9310 -0.3227
vn 0.2948 0.8940 0.3373
vn 0.1392 0.9894 0.0408
vn 0.5017 0.8650 0.0000
vn 0.6175 0.7865 0.0000
vn 0.5984 0.8012 0.0000
vn 0.6033 0.7975 -0.0050
vn 0.5933 0.8050 -0.0027
vn 0.3817 0.9243 0.0000
vn 0.4560 0.8900 0.0000
vn 0.7649 0.6376 0.0920
vn 0.5516 0.8303 0.0798
vn 0.6409 0.7673 0.0221
vn 0.5303 0.7580 0.3798
vn 0.5731 0.8121 -0.1096
vn 0.6419 0.7632 0.0740
vn 0.6188 0.7811 0.0835
vn 0.1506 0.5537 0.8190
vn 0.2932 0.9146 0.2785
vn 0.7123 0.7001 0.0504
vn 0.7327 0.6764 0.0752
vn 0.6274 0.7629 0.1561
vn 0.4844 0.7483 0.4532
vn 0.4841 0.7481 0.4538
vn 0.5851 0.8099 -0.0412
vn 0.8893 0.3885 -0.2411
vn 0.8895 0.3879 -0.2413
vn 0.8896 0.3879 -0.2413
vn 0.6317 0.7743 0.0376
vn 0.5918 0.8033 0.0668
vn 0.5934 0.8011 -0.0783
vn 0.5965 0.8026 0.0000
vn 0.6069 0.7945 -0.0196
vn -0.2840 0.9588 -0.0053
vn -0.2827 0.9592 -0.0052
vn 0.5985 0.8010 -0.0104
vn 0.5880 0.8089 0.0008
vn 0.5879 0.8089 0.0015
vn 0.7203 0.6916 0.0525
vn 0.4962 0.8681 0.0142
vn 0.6949 0.7158 -0.0690
vn 0.7487 0.6532 -0.1129
vn 0.7779 0.6241 -0.0736
vn 0.7539 0.6418 -0.1403
vn 0.7586 0.6457 -0.0873
vn 0.6775 0.7355 0.0085
vn 0.6761 0.7367 0.0079
vn 0.6781 0.7349 0.0085
vn 0.6185 0.7855 0.0233
vn 0.6800 0.7332 0.0077
vn 0.4680 0.8824 0.0489
vn 0.7046 0.7095 -0.0075
vn 0.7123 0.7018 -0.0084
vn 0.7087 0.7055 -0.0042
vn 0.7070 0.7072 -0.0047
vn 0.7506 0.6555 -0.0829
vn 0.7514 0.6546 -0.0826
vn 0.7512 0.6553 -0.0797
vn 0.7517 0.6551 -0.0763
vn 0.7435 0.6634 -0.0846
vn 0.7287 0.6788 -0.0907
vn 0.7504 0.6602 -0.0321
vn 0.7429 0.6693 -0.0080
vn 0.7396 0.6728 0.0166
vn 0.7422 0.6691 0.0388
vn 0.7495 0.6592 0.0612
vn 0.7580 0.6476 0.0775
vn 0.7720 0.6282 0.0965
vn 0.7729 0.6271 0.0967
vn 0.7767 0.6216 0.1017
vn 0.7824 0.6149 0.0984
vn 0.7790 0.6185 0.1028
vn 0.7571 0.6483 -0.0803
vn 0.7619 0.6456 -0.0511
vn 0.7853 0.6150 -0.0719
usemtl None.143
s 1
f 1//1 3//2 2//3
f 4//4 6//5 5//6
f 4//4 5//6 7//7
f 6//5 8//8 5//6
f 7//9 5//10 9//11
f 3//2 10//12 2//3
f 3//13 11//14 10//15
f 12//16 14//16 13//16
f 12//17 13//17 15//17
f 16//18 10//15 17//19
f 18//20 20//20 19//20
f 18//21 19//21 21//21
f 22//22 24//22 23//23
f 22//24 25//24 24//24
f 26//25 28//26 27//27
f 26//25 29//28 28//26
f 30//29 32//29 31//29
f 30//30 33//31 32//32
f 34//33 28//33 35//34
f 34//33 36//35 28//33
f 37//36 10//37 38//38
f 37//36 2//39 10//37
f 39//40 41//41 40//41
f 39//42 42//43 41//44
f 43//45 38//38 10//37
f 44//46 32//46 42//46
f 44//47 31//47 32//47
f 45//48 28//26 29//28
f 45//49 35//49 28//49
f 46//50 24//50 47//50
f 46//51 23//52 24//52
f 48//53 50//53 49//53
f 48//54 49//54 51//54
f 52//55 40//41 41//41
f 52//56 41//56 28//56
f 52//57 28//57 36//57
f 53//58 54//58 20//58
f 53//59 20//60 55//61
f 56//62 58//62 57//62
f 57//63 58//64 59//65
f 59//65 58//64 5//66
f 14//67 60//67 13//67
f 60//68 61//68 58//68
f 60//69 58//69 13//69
f 15//70 49//70 62//70
f 62//70 49//70 63//70
f 64//71 63//71 24//71
f 64//71 24//71 65//71
f 65//72 67//72 66//72
f 66//72 67//72 68//72
f 69//73 28//73 70//73
f 70//73 28//73 71//73
f 71//73 28//73 72//73
f 72//73 28//73 73//73
f 74//74 41//74 32//74
f 74//74 32//74 75//74
f 75//74 32//74 76//74
f 76//74 32//74 77//74
f 77//74 32//74 78//74
f 78//74 32//74 79//74
f 56//75 81//75 80//75
f 56//76 82//76 81//76
f 56//77 80//77 83//77
f 9//11 5//10 84//78
f 32//79 41//44 42//43
f 56//80 83//80 58//80
f 56//81 85//81 82//81
f 58//82 86//82 5//82
f 58//83 61//83 86//83
f 49//84 83//84 87//84
f 49//85 87//85 88//85
f 63//86 49//86 24//86
f 5//87 86//87 84//88
f 83//89 49//89 58//89
f 73//73 28//73 89//73
f 89//73 28//73 90//73
f 13//90 58//91 49//92
f 43//93 32//32 33//31
f 43//94 10//94 32//94
f 69//95 27//95 28//95
f 69//96 68//97 27//98
f 24//99 67//99 65//99
f 24//100 25//101 67//100
f 91//74 79//74 32//74
f 91//74 32//74 10//74
f 68//97 67//102 27//98
f 10//15 92//103 17//19
f 10//15 11//14 92//103
f 41//73 90//73 28//73
f 49//104 88//104 51//104
f 49//105 15//105 13//105
f 24//106 49//106 50//106
f 93//107 19//107 54//107
f 19//108 20//108 54//108
f 94//109 95//109 19//109
f 94//110 19//110 93//110
f 94//111 96//111 95//111
f 96//112 97//112 95//112
f 98//113 80//114 99//115
f 98//116 100//116 80//116
f 99//115 80//114 101//117
f 100//118 83//118 80//118
f 102//119 80//120 103//121
f 102//119 101//122 80//120
f 103//123 80//124 104//125
f 104//125 80//124 105//126
f 105//127 80//127 106//127
f 106//128 80//128 107//128
f 108//129 80//129 109//129
f 109//130 80//130 110//130
f 111//131 110//131 80//131
f 111//132 80//132 112//132
f 112//133 80//133 113//133
f 114//134 113//134 80//134
f 114//135 80//136 115//137
f 115//137 80//136 116//138
f 81//139 116//138 80//136
f 107//140 80//140 55//140
f 80//141 108//141 53//141
f 80//142 53//59 55//61
f 21//143 19//143 117//143
f 118//144 120//144 119//144
f 121//145 123//146 122//147
f 121//145 124//148 123//146
f 122//149 123//149 125//149
f 124//150 126//150 123//150
f 119//151 120//151 127//151
f 119//152 127//153 128//154
f 129//155 131//155 130//155
f 129//156 132//156 131//156
f 133//157 134//157 127//157
f 117//158 19//158 135//158
f 136//159 138//160 137//159
f 136//161 137//161 139//161
f 140//162 142//162 141//162
f 140//163 141//164 143//165
f 144//166 146//166 145//166
f 144//167 145//168 147//169
f 148//170 149//171 141//170
f 148//170 141//170 150//172
f 151//173 152//174 127//175
f 151//173 127//175 120//176
f 153//177 155//178 154//178
f 153//179 154//179 156//179
f 157//180 127//175 152//174
f 158//181 156//181 145//181
f 158//182 145//182 146//182
f 159//183 143//165 141//164
f 159//184 141//184 149//184
f 160//185 161//185 137//185
f 160//186 137//187 138//187
f 162//188 164//188 163//188
f 162//189 165//189 164//189
f 166//190 154//178 155//178
f 166//191 141//191 154//191
f 166//192 150//192 141//192
f 167//193 135//193 168//193
f 167//194 169//194 135//194
f 170//195 172//195 171//195
f 172//196 173//197 171//198
f 173//197 123//199 171//198
f 130//200 131//200 174//200
f 174//201 171//201 175//201
f 174//202 131//202 171//202
f 132//203 176//203 164//203
f 176//203 177//203 164//203
f 178//204 137//204 177//204
f 178//204 179//204 137//204
f 179//205 181//205 180//206
f 181//205 182//207 180//206
f 183//208 184//208 141//208
f 184//208 185//208 141//208
f 185//208 186//208 141//208
f 186//208 187//208 141//208
f 188//209 145//209 154//209
f 188//209 189//209 145//209
f 189//209 190//209 145//209
f 190//209 191//209 145//209
f 191//209 192//209 145//209
f 192//209 193//209 145//209
f 170//210 195//210 194//210
f 170//211 194//211 196//211
f 170//212 197//212 195//212
f 126//213 198//213 123//213
f 145//214 156//214 154//214
f 170//215 171//215 197//215
f 170//216 196//216 199//216
f 171//217 123//217 200//217
f 171//218 200//218 175//218
f 164//219 201//219 197//219
f 164//220 202//220 201//220
f 177//221 137//221 164//221
f 123//222 198//223 200//222
f 197//224 171//224 164//224
f 187//208 203//208 141//208
f 203//208 204//208 141//208
f 131//225 164//226 171//227
f 157//228 147//169 145//168
f 157//229 145//229 127//229
f 183//230 141//230 142//230
f 183//231 142//231 182//231
f 137//232 179//232 180//232
f 137//233 180//233 139//234
f 205//209 145//209 193//209
f 205//209 127//209 145//209
f 182//207 142//235 180//206
f 127//153 134//236 206//237
f 127//153 206//237 128//154
f 154//208 141//208 204//208
f 164//238 165//238 202//238
f 164//239 131//239 132//239
f 137//240 163//240 164//240
f 207//241 168//241 19//241
f 19//242 168//242 135//242
f 97//243 19//243 95//243
f 97//244 207//244 19//244
f 208//245 209//246 195//247
f 208//248 195//248 210//248
f 209//246 211//249 195//247
f 210//250 195//250 197//250
f 212//251 213//252 195//253
f 212//251 195//253 211//254
f 213//255 214//256 195//257
f 214//256 215//258 195//257
f 215//259 216//259 195//259
f 216//260 217//260 195//260
f 218//261 219//261 195//261
f 219//262 220//262 195//262
f 221//263 195//263 220//263
f 221//264 222//264 195//264
f 222//265 223//265 195//265
f 224//266 195//266 223//266
f 224//267 225//268 195//269
f 225//268 226//270 195//269
f 194//271 195//269 226//270
f 217//272 169//272 195//272
f 195//273 167//273 218//273
f 195//274 169//274 167//274
