# Blender v2.79 (sub 0) OBJ File: ''
# www.blender.org
mtllib crack_restart_keyway_625.mtl
o crack_restart_keyway_625
v 0.073395 -0.113193 -0.472461
v 0.072962 -0.113342 -0.459453
v 0.084704 -0.121363 -0.472461
v 0.147229 -0.162037 -0.087630
v 0.143382 -0.159202 -0.088100
v 0.115965 -0.144850 -0.090503
v 0.150737 -0.164619 -0.087288
v 0.152178 -0.169048 -0.080801
v 0.154210 -0.167189 -0.086931
v 0.139580 -0.156327 -0.088623
v 0.120406 -0.147382 -0.457089
v 0.095838 -0.129444 -0.472461
v 0.120406 -0.147382 -0.103551
v 0.120866 -0.146923 -0.098614
v 0.120406 -0.147382 -0.118922
v 0.120406 -0.147382 -0.472461
v 0.108133 -0.138405 -0.472461
v 0.073532 -0.113096 -0.238326
v 0.073860 -0.112778 -0.225319
v 0.093675 -0.129477 -0.112793
v 0.073167 -0.113213 -0.251334
v 0.070725 -0.114916 -0.394416
v 0.070042 -0.115177 -0.381408
v 0.090632 -0.132125 -0.376755
v 0.070953 -0.114605 -0.407423
v 0.072248 -0.114007 -0.290356
v 0.072643 -0.113543 -0.277349
v 0.071573 -0.114215 -0.303364
v 0.072638 -0.113730 -0.446446
v 0.071891 -0.114015 -0.433438
v 0.071517 -0.114478 -0.420431
v 0.070592 -0.114989 -0.368401
v 0.070518 -0.114878 -0.355393
v 0.075227 -0.111919 -0.147274
v 0.075663 -0.111584 -0.134267
v 0.074790 -0.112204 -0.160281
v 0.076376 -0.111197 -0.121259
v 0.076817 -0.110765 -0.108252
v 0.071650 -0.114404 -0.316371
v 0.120406 -0.147382 -0.318748
v 0.071542 -0.114235 -0.329378
v 0.074059 -0.112722 -0.212311
v 0.074028 -0.112672 -0.199304
v 0.146781 -0.173726 -0.061418
v 0.148172 -0.172563 -0.068132
v 0.145684 -0.174510 -0.050815
v 0.150267 -0.170743 -0.074813
v 0.122213 -0.145575 -0.094013
v 0.126540 -0.147825 -0.091832
v 0.120406 -0.147382 -0.134293
v 0.106643 -0.141593 -0.120720
v 0.120406 -0.147382 -0.149664
v 0.120406 -0.147382 -0.165036
v 0.120406 -0.147382 -0.180407
v 0.120406 -0.147382 -0.195778
v 0.120406 -0.147382 -0.211149
v 0.120406 -0.147382 -0.226521
v 0.120406 -0.147382 -0.241892
v 0.120406 -0.147382 -0.257263
v 0.120406 -0.147382 -0.272634
v 0.120406 -0.147382 -0.288006
v 0.120406 -0.147382 -0.349490
v 0.120406 -0.147382 -0.334119
v 0.120406 -0.147382 -0.364862
v 0.120406 -0.147382 -0.380233
v 0.120406 -0.147382 -0.395604
v 0.120406 -0.147382 -0.410975
v 0.120406 -0.147382 -0.426347
v 0.120406 -0.147382 -0.441718
v 0.135350 -0.153088 -0.089199
v 0.071824 -0.114308 -0.342386
v 0.144442 -0.175084 -0.040690
v 0.074618 -0.112082 -0.081618
v 0.075940 -0.111386 -0.096424
v 0.131068 -0.149873 -0.089874
v 0.120406 -0.147382 -0.303377
v 0.074064 -0.112719 -0.186296
v 0.074500 -0.112376 -0.173289
v 0.074710 -0.112380 -0.166243
v 0.103569 -0.135076 -0.472461
v 0.073088 -0.113411 -0.264341
v 0.101456 -0.148027 0.197504
v 0.069390 -0.114278 0.082974
v 0.069408 -0.112658 0.106109
v 0.071387 -0.113580 0.132731
v 0.070858 -0.111839 0.159326
v 0.129519 -0.185776 0.138649
v 0.130367 -0.184970 0.114023
v 0.129707 -0.185450 0.163275
v 0.130657 -0.184978 0.188109
v 0.117444 -0.167829 0.205673
v 0.130971 -0.184605 0.209641
v 0.088117 -0.130952 0.187222
v 0.072454 -0.111801 0.174450
v 0.130657 -0.184978 0.188109
v 0.069701 -0.114640 0.028960
v 0.069083 -0.112809 -0.001446
v 0.068060 -0.114071 0.052178
v 0.071533 -0.113488 -0.027958
v 0.138003 -0.179663 0.018042
v 0.071309 -0.111482 -0.054992
v 0.142724 -0.175784 -0.027727
v 0.136400 -0.181059 0.034822
v 0.133542 -0.182773 0.065524
v 0.140870 -0.177377 -0.010208
v 0.132305 -0.183934 0.083840
v 0.129586 -0.185757 0.134969
v 0.070858 -0.111839 0.159326
v 0.073395 -0.113193 -0.472461
v 0.084704 -0.121363 -0.472461
v 0.072962 -0.113342 -0.459453
v 0.147229 -0.162037 -0.087630
v 0.115965 -0.144850 -0.090503
v 0.143382 -0.159202 -0.088100
v 0.150737 -0.164619 -0.087288
v 0.154210 -0.167189 -0.086931
v 0.152178 -0.169048 -0.080801
v 0.139580 -0.156327 -0.088623
v 0.120406 -0.147382 -0.457089
v 0.095838 -0.129444 -0.472461
v 0.120406 -0.147382 -0.103551
v 0.120866 -0.146923 -0.098614
v 0.120406 -0.147382 -0.118922
v 0.120406 -0.147382 -0.472461
v 0.108133 -0.138405 -0.472461
v 0.073532 -0.113096 -0.238326
v 0.093675 -0.129477 -0.112793
v 0.073860 -0.112778 -0.225319
v 0.073167 -0.113213 -0.251334
v 0.070725 -0.114916 -0.394416
v 0.090632 -0.132125 -0.376755
v 0.070042 -0.115177 -0.381408
v 0.070953 -0.114605 -0.407423
v 0.072248 -0.114007 -0.290356
v 0.072643 -0.113543 -0.277349
v 0.071573 -0.114215 -0.303364
v 0.072638 -0.113730 -0.446446
v 0.071891 -0.114015 -0.433438
v 0.071517 -0.114478 -0.420431
v 0.070592 -0.114989 -0.368401
v 0.070518 -0.114878 -0.355393
v 0.075227 -0.111919 -0.147274
v 0.075663 -0.111584 -0.134267
v 0.074790 -0.112204 -0.160281
v 0.076376 -0.111197 -0.121259
v 0.076817 -0.110765 -0.108252
v 0.071650 -0.114404 -0.316371
v 0.071542 -0.114235 -0.329378
v 0.120406 -0.147382 -0.318748
v 0.074059 -0.112722 -0.212311
v 0.074028 -0.112672 -0.199304
v 0.146781 -0.173726 -0.061418
v 0.148172 -0.172563 -0.068132
v 0.145684 -0.174510 -0.050815
v 0.150267 -0.170743 -0.074813
v 0.122213 -0.145575 -0.094013
v 0.126540 -0.147825 -0.091832
v 0.106643 -0.141593 -0.120720
v 0.120406 -0.147382 -0.134293
v 0.120406 -0.147382 -0.149664
v 0.120406 -0.147382 -0.165036
v 0.120406 -0.147382 -0.180407
v 0.120406 -0.147382 -0.195778
v 0.120406 -0.147382 -0.211149
v 0.120406 -0.147382 -0.226521
v 0.120406 -0.147382 -0.241892
v 0.120406 -0.147382 -0.257263
v 0.120406 -0.147382 -0.272634
v 0.120406 -0.147382 -0.288006
v 0.120406 -0.147382 -0.349490
v 0.120406 -0.147382 -0.334119
v 0.120406 -0.147382 -0.364862
v 0.120406 -0.147382 -0.380233
v 0.120406 -0.147382 -0.395604
v 0.120406 -0.147382 -0.410975
v 0.120406 -0.147382 -0.426347
v 0.120406 -0.147382 -0.441718
v 0.135350 -0.153088 -0.089199
v 0.071824 -0.114308 -0.342386
v 0.144442 -0.175084 -0.040690
v 0.074618 -0.112082 -0.081618
v 0.075940 -0.111386 -0.096424
v 0.131068 -0.149873 -0.089874
v 0.120406 -0.147382 -0.303377
v 0.074064 -0.112719 -0.186296
v 0.074500 -0.112376 -0.173289
v 0.074710 -0.112380 -0.166243
v 0.103569 -0.135076 -0.472461
v 0.073088 -0.113411 -0.264341
v 0.069408 -0.112658 0.106109
v 0.069390 -0.114278 0.082974
v 0.071387 -0.113580 0.132731
v 0.130367 -0.184970 0.114023
v 0.129519 -0.185776 0.138649
v 0.129707 -0.185450 0.163275
v 0.069701 -0.114640 0.028960
v 0.069083 -0.112809 -0.001446
v 0.068060 -0.114071 0.052178
v 0.071533 -0.113488 -0.027958
v 0.071309 -0.111482 -0.054992
v 0.138003 -0.179663 0.018042
v 0.142724 -0.175784 -0.027727
v 0.136400 -0.181059 0.034822
v 0.133542 -0.182773 0.065524
v 0.140870 -0.177377 -0.010208
v 0.132305 -0.183934 0.083840
v 0.129586 -0.185757 0.134969
vn -0.5854 -0.8103 -0.0288
vn -0.5854 -0.8104 -0.0238
vn -0.5837 -0.8115 -0.0265
vn 0.0036 -0.1589 -0.9873
vn 0.0034 -0.1588 -0.9873
vn 0.0024 -0.1604 -0.9870
vn -0.5175 -0.7559 -0.4011
vn -0.5180 -0.7557 -0.4009
vn -0.5177 -0.7558 -0.4010
vn -0.5173 -0.7559 -0.4012
vn -0.0245 -0.2102 -0.9774
vn -0.0235 -0.2089 -0.9777
vn -0.0304 -0.2145 -0.9762
vn -0.5820 -0.8128 -0.0241
vn -0.5874 -0.8093 -0.0056
vn -0.5884 -0.8085 -0.0072
vn -0.5875 -0.8092 -0.0019
vn -0.2257 -0.9679 0.1110
vn -0.4953 -0.8687 0.0000
vn -0.5904 -0.8071 0.0000
vn -0.5902 -0.8073 -0.0017
vn -0.7529 -0.6572 0.0351
vn -0.7250 -0.6882 0.0265
vn -0.6282 -0.7765 -0.0486
vn -0.6385 -0.7690 -0.0296
vn -0.6320 -0.7743 -0.0306
vn -0.6343 -0.7723 -0.0348
vn -0.8048 -0.5918 0.0456
vn -0.8306 -0.5545 0.0520
vn -0.8310 -0.5539 0.0520
vn -0.5834 -0.8112 -0.0395
vn -0.5840 -0.8103 -0.0494
vn -0.5806 -0.8126 -0.0506
vn -0.5811 -0.8126 -0.0456
vn -0.6492 -0.7606 0.0028
vn -0.6402 -0.7673 0.0382
vn -0.7289 -0.6833 0.0420
vn -0.7266 -0.6860 0.0394
vn -0.7397 -0.6711 0.0487
vn -0.7388 -0.6712 0.0605
vn -0.7382 -0.6720 0.0598
vn -0.7364 -0.6749 0.0474
vn -0.5605 -0.8282 -0.0061
vn -0.5603 -0.8282 -0.0069
vn -0.5604 -0.8282 -0.0068
vn -0.5600 -0.8285 0.0087
vn -0.6886 -0.7250 0.0137
vn -0.6534 -0.7570 0.0014
vn -0.6531 -0.7572 0.0012
vn -0.6567 -0.7541 -0.0004
vn -0.7922 -0.5522 -0.2598
vn -0.4197 -0.8263 -0.3756
vn -0.6154 -0.7789 -0.1213
vn -0.6167 -0.7778 -0.1210
vn -0.6150 -0.7791 -0.1214
vn -0.5507 -0.7453 -0.3757
vn -0.5357 -0.7521 -0.3839
vn 0.0401 -0.9620 0.2701
vn -0.2940 -0.8938 -0.3387
vn -0.3877 -0.9218 0.0000
vn -0.5565 -0.8308 0.0000
vn -0.4560 -0.8900 0.0000
vn -0.0183 -0.1982 -0.9800
vn -0.5907 -0.8016 0.0923
vn -0.6122 -0.7815 -0.1203
vn -0.6109 -0.7889 0.0668
vn -0.7531 -0.6506 -0.0976
vn -0.7535 -0.6501 -0.0978
vn -0.7548 -0.6496 -0.0913
vn -0.2924 -0.9143 -0.2801
vn -0.0487 -0.2669 -0.9625
vn -0.6335 -0.7729 -0.0350
vn -0.5909 -0.8041 -0.0663
vn -0.6476 -0.7620 -0.0010
vn -0.7363 -0.6753 0.0425
vn -0.7149 -0.6986 0.0302
vn -0.7007 -0.7132 0.0205
vn -0.5812 -0.8128 -0.0387
vn -0.5891 -0.8080 -0.0024
vn -0.5884 -0.8030 0.0943
vn -0.7345 -0.6416 -0.2209
vn -0.5602 -0.8283 -0.0075
vn -0.7507 -0.6545 -0.0900
vn -0.7522 -0.6581 0.0324
vn -0.3874 -0.7580 0.5248
vn -0.5586 -0.8293 -0.0134
vn -0.7926 -0.6082 0.0430
vn -0.7968 -0.6030 0.0387
vn -0.7933 -0.6073 0.0431
vn -0.7864 -0.6167 0.0371
vn -0.7766 -0.6295 0.0258
vn -0.8351 -0.5480 -0.0467
vn -0.7787 -0.6260 0.0417
vn -0.7918 -0.6106 0.0141
vn -0.7819 -0.6230 0.0201
vn -0.7808 -0.6244 0.0222
vn -0.8154 -0.5672 0.1158
vn -0.7985 -0.5959 0.0858
vn 0.7808 0.6244 -0.0222
vn 0.7820 0.6229 -0.0208
vn 0.7808 0.6245 -0.0202
vn -0.6338 -0.7727 -0.0337
vn -0.6514 -0.7582 -0.0275
vn -0.6878 -0.7245 -0.0454
vn -0.6878 -0.7243 -0.0480
vn -0.6880 -0.7241 -0.0480
vn -0.6890 -0.7234 -0.0451
vn -0.7721 -0.6349 0.0291
vn -0.6761 -0.7337 -0.0675
vn -0.6129 -0.7805 -0.1234
vn -0.8997 -0.4230 -0.1074
vn -0.9165 -0.3819 -0.1193
vn -0.9157 0.3972 -0.0608
vn -0.6053 -0.7854 -0.1290
vn -0.6941 -0.7197 -0.0145
vn -0.8773 -0.4716 -0.0891
vn -0.8584 -0.5078 -0.0725
vn -0.6322 -0.7659 -0.1173
vn -0.5621 -0.8271 -0.0010
vn -0.6826 -0.7306 0.0153
vn -0.8616 0.5073 -0.0131
vn 0.7985 0.5959 -0.0858
vn 0.5854 0.8103 0.0288
vn -0.0036 0.1589 0.9873
vn -0.0024 0.1604 0.9870
vn -0.0034 0.1588 0.9873
vn 0.5180 0.7557 0.4009
vn 0.5173 0.7559 0.4012
vn 0.0245 0.2102 0.9774
vn 0.0304 0.2145 0.9762
vn 0.0235 0.2089 0.9777
vn 0.5820 0.8128 0.0241
vn 0.5874 0.8093 0.0056
vn 0.5876 0.8091 0.0046
vn 0.5884 0.8085 0.0072
vn 0.2257 0.9679 -0.1110
vn 0.4953 0.8687 0.0000
vn 0.5904 0.8071 0.0000
vn 0.7529 0.6572 -0.0351
vn 0.7250 0.6882 -0.0265
vn 0.6282 0.7765 0.0486
vn 0.6385 0.7690 0.0296
vn 0.6343 0.7723 0.0348
vn 0.6321 0.7743 0.0306
vn 0.8048 0.5918 -0.0456
vn 0.8306 0.5545 -0.0520
vn 0.8310 0.5539 -0.0520
vn 0.5834 0.8112 0.0394
vn 0.5806 0.8126 0.0506
vn 0.5840 0.8103 0.0494
vn 0.5811 0.8126 0.0456
vn 0.6492 0.7606 -0.0028
vn 0.6402 0.7673 -0.0382
vn 0.7256 0.6869 -0.0414
vn 0.7289 0.6833 -0.0420
vn 0.7269 0.6856 -0.0396
vn 0.7266 0.6860 -0.0394
vn 0.7397 0.6711 -0.0487
vn 0.7382 0.6720 -0.0598
vn 0.7388 0.6712 -0.0605
vn 0.7364 0.6749 -0.0474
vn 0.5605 0.8282 0.0061
vn 0.5604 0.8282 0.0068
vn 0.5603 0.8282 0.0069
vn 0.5600 0.8285 -0.0087
vn 0.5615 0.8274 -0.0083
vn 0.5575 0.8302 -0.0043
vn 0.6886 0.7250 -0.0137
vn 0.6534 0.7570 -0.0014
vn 0.6567 0.7541 0.0004
vn 0.6531 0.7572 -0.0012
vn 0.7922 0.5522 0.2598
vn 0.4197 0.8263 0.3756
vn 0.6154 0.7789 0.1213
vn 0.6159 0.7785 0.1206
vn 0.6167 0.7778 0.1210
vn 0.5507 0.7453 0.3757
vn 0.5357 0.7521 0.3839
vn -0.0401 0.9620 -0.2701
vn 0.2940 0.8938 0.3387
vn 0.3877 0.9218 0.0000
vn 0.5565 0.8308 0.0000
vn 0.5565 0.8308 -0.0007
vn 0.4560 0.8900 0.0000
vn 0.0183 0.1982 0.9800
vn 0.5888 0.8030 -0.0921
vn 0.5894 0.8023 -0.0946
vn 0.5907 0.8016 -0.0923
vn 0.6166 0.7781 0.1198
vn 0.6109 0.7889 -0.0668
vn 0.7531 0.6506 0.0976
vn 0.7548 0.6495 0.0912
vn 0.7535 0.6501 0.0978
vn 0.2924 0.9143 0.2801
vn 0.0487 0.2669 0.9625
vn 0.6335 0.7729 0.0350
vn 0.5909 0.8041 0.0663
vn 0.6476 0.7620 0.0010
vn 0.7363 0.6753 -0.0425
vn 0.7149 0.6986 -0.0302
vn 0.7007 0.7132 -0.0205
vn 0.5812 0.8128 0.0387
vn 0.5893 0.8079 0.0013
vn 0.5891 0.8080 0.0024
vn 0.5884 0.8030 -0.0943
vn 0.7345 0.6416 0.2209
vn 0.5602 0.8283 0.0075
vn 0.7507 0.6545 0.0900
vn 0.7522 0.6581 -0.0324
vn 0.3874 0.7580 -0.5248
vn 0.5586 0.8293 0.0134
vn 0.7926 0.6082 -0.0430
vn 0.7933 0.6073 -0.0431
vn 0.7968 0.6029 -0.0387
vn 0.7864 0.6167 -0.0371
vn 0.7766 0.6295 -0.0258
vn 0.8351 0.5480 0.0467
vn 0.7787 0.6260 -0.0417
vn 0.7918 0.6106 -0.0141
vn 0.7819 0.6230 -0.0201
vn 0.8154 0.5672 -0.1158
vn 0.6338 0.7727 0.0337
vn 0.6514 0.7582 0.0275
vn 0.6878 0.7245 0.0454
vn 0.6880 0.7241 0.0480
vn 0.6878 0.7243 0.0480
vn 0.6890 0.7234 0.0451
vn 0.7721 0.6349 -0.0291
vn 0.6761 0.7337 0.0675
vn 0.6129 0.7805 0.1234
vn 0.8997 0.4230 0.1074
vn 0.9165 0.3819 0.1193
vn 0.9157 -0.3972 0.0608
vn 0.6053 0.7854 0.1290
vn 0.6941 0.7197 0.0145
vn 0.8773 0.4716 0.0891
vn 0.8584 0.5078 0.0725
vn 0.6322 0.7659 0.1173
vn 0.6826 0.7306 -0.0153
vn 0.8616 -0.5073 0.0131
usemtl None.118
s 1
f 1//1 3//2 2//3
f 4//4 6//5 5//6
f 7//7 9//8 8//9
f 7//7 8//9 4//10
f 5//11 6//12 10//13
f 3//2 11//14 2//3
f 3//15 12//16 11//17
f 13//18 14//18 6//18
f 13//19 6//19 15//19
f 16//20 11//17 17//21
f 18//22 20//22 19//22
f 18//23 21//23 20//23
f 22//24 24//24 23//24
f 22//25 25//26 24//27
f 26//28 20//28 27//28
f 26//29 28//30 20//30
f 29//31 11//32 30//33
f 31//34 30//33 11//32
f 32//35 24//35 33//35
f 32//36 23//36 24//36
f 34//37 20//37 35//37
f 34//38 36//38 20//38
f 37//39 35//40 20//41
f 37//39 20//41 38//42
f 39//43 41//44 40//45
f 39//46 40//46 28//46
f 42//47 19//47 20//47
f 42//48 20//49 43//50
f 44//51 4//51 45//51
f 44//52 6//52 4//52
f 44//53 46//54 6//55
f 45//56 4//56 47//56
f 8//57 47//57 4//57
f 14//58 48//58 6//58
f 48//59 49//59 6//59
f 15//60 51//60 50//60
f 50//60 51//60 52//60
f 53//61 20//61 54//61
f 53//61 52//61 20//61
f 54//61 20//61 55//61
f 55//61 20//61 56//61
f 57//61 20//61 58//61
f 58//61 20//61 59//61
f 59//61 20//61 60//61
f 60//61 20//61 61//61
f 62//62 63//62 24//62
f 62//62 24//62 64//62
f 64//62 24//62 65//62
f 65//62 24//62 66//62
f 66//62 24//62 67//62
f 67//62 24//62 68//62
f 68//62 24//62 69//62
f 10//13 6//12 70//63
f 24//64 40//64 71//64
f 6//55 46//54 72//65
f 20//66 6//66 73//66
f 20//67 73//68 74//69
f 49//70 75//70 6//70
f 6//71 75//71 70//71
f 61//61 20//61 76//61
f 76//61 20//61 40//61
f 31//72 24//27 25//26
f 31//73 11//73 24//73
f 57//61 56//61 20//61
f 77//74 43//50 20//49
f 77//75 20//75 78//75
f 20//76 36//76 79//76
f 20//77 79//77 78//77
f 29//31 2//78 11//32
f 69//62 24//62 11//62
f 11//17 80//79 17//21
f 11//17 12//16 80//79
f 71//80 33//80 24//80
f 20//81 52//81 51//81
f 63//62 40//62 24//62
f 40//45 41//44 71//82
f 20//67 74//69 38//83
f 20//84 81//84 27//84
f 51//85 15//85 20//85
f 20//86 15//86 6//86
f 82//87 84//88 83//89
f 85//90 84//88 82//87
f 85//91 82//91 86//91
f 82//92 88//92 87//92
f 89//93 90//93 82//93
f 89//94 82//94 87//94
f 90//95 91//95 82//95
f 90//96 92//96 91//96
f 93//97 86//97 82//97
f 93//98 94//98 86//98
f 92//99 95//100 91//101
f 96//102 97//102 82//102
f 96//103 82//103 98//103
f 99//104 101//105 100//106
f 99//104 100//106 97//107
f 98//108 82//108 83//108
f 101//109 73//109 100//109
f 72//65 102//110 6//55
f 103//111 104//111 82//111
f 103//112 82//112 100//112
f 102//113 105//113 100//113
f 102//114 100//114 6//114
f 100//115 82//115 97//115
f 82//116 104//116 106//116
f 106//117 88//117 82//117
f 100//118 73//118 6//118
f 40//119 20//119 28//119
f 81//120 20//120 21//120
f 88//121 107//121 87//121
f 94//122 93//122 108//122
f 109//123 111//123 110//123
f 112//124 114//125 113//126
f 115//127 117//127 116//127
f 115//128 112//128 117//128
f 114//129 118//130 113//131
f 110//132 111//132 119//132
f 110//133 119//134 120//135
f 121//136 113//136 122//136
f 121//137 123//137 113//137
f 124//138 125//138 119//138
f 126//139 128//139 127//139
f 126//140 127//140 129//140
f 130//141 132//141 131//141
f 130//142 131//143 133//144
f 134//145 135//145 127//145
f 134//146 127//147 136//147
f 137//148 138//149 119//150
f 139//151 119//150 138//149
f 140//152 141//152 131//152
f 140//153 131//153 132//153
f 142//154 143//155 127//156
f 142//154 127//156 144//157
f 145//158 127//159 143//160
f 145//158 146//161 127//159
f 147//162 149//163 148//164
f 147//165 136//166 149//167
f 150//168 127//168 128//168
f 150//169 151//170 127//171
f 152//172 153//172 112//172
f 152//173 112//173 113//173
f 152//174 113//175 154//176
f 153//177 155//177 112//177
f 117//178 112//178 155//178
f 122//179 113//179 156//179
f 156//180 113//180 157//180
f 123//181 159//181 158//181
f 159//181 160//181 158//181
f 161//182 162//182 127//183
f 161//182 127//183 160//182
f 162//182 163//182 127//183
f 163//182 164//182 127//183
f 165//182 166//182 127//183
f 166//182 167//182 127//183
f 167//182 168//182 127//183
f 168//182 169//182 127//183
f 170//184 131//184 171//184
f 170//184 172//184 131//184
f 172//184 173//184 131//184
f 173//184 174//184 131//184
f 174//184 175//184 131//184
f 175//184 176//184 131//184
f 176//184 177//184 131//184
f 118//130 178//185 113//131
f 131//186 179//187 149//188
f 113//175 180//189 154//176
f 127//190 181//190 113//190
f 127//191 182//192 181//193
f 157//194 113//194 183//194
f 113//195 178//195 183//195
f 169//182 184//182 127//183
f 184//182 149//167 127//183
f 139//196 133//144 131//143
f 139//197 131//197 119//197
f 165//182 127//183 164//182
f 185//198 127//171 151//170
f 185//199 186//199 127//199
f 127//200 187//200 144//200
f 127//201 186//201 187//201
f 137//148 119//150 111//202
f 177//184 119//184 131//184
f 119//134 125//203 188//204
f 119//134 188//204 120//135
f 179//187 131//186 141//205
f 127//206 158//206 160//206
f 171//184 131//184 149//184
f 149//163 179//207 148//164
f 127//191 146//208 182//192
f 127//209 135//209 189//209
f 158//210 127//210 123//210
f 127//211 113//211 123//211
f 82//212 191//213 190//214
f 192//215 82//212 190//214
f 192//216 108//216 82//216
f 82//217 194//217 193//217
f 195//218 82//218 95//218
f 195//219 194//219 82//219
f 95//100 82//220 91//101
f 93//221 82//221 108//221
f 196//222 82//222 197//222
f 196//223 198//223 82//223
f 199//224 201//225 200//226
f 199//224 197//227 201//225
f 198//228 191//228 82//228
f 200//229 201//229 181//229
f 180//230 113//230 202//230
f 203//231 82//231 204//231
f 203//232 201//232 82//232
f 202//233 201//233 205//233
f 202//234 113//234 201//234
f 201//235 197//235 82//235
f 82//236 206//236 204//236
f 206//237 82//237 193//237
f 201//238 113//238 181//238
f 149//167 136//166 127//183
f 189//239 129//239 127//239
f 193//240 194//240 207//240
