# Blender v2.79 (sub 0) OBJ File: ''
# www.blender.org
mtllib crack_restart_keyway_285.mtl
o crack_restart_keyway_285
v 0.073499 -0.113119 -0.472461
v 0.072800 -0.113444 -0.459453
v 0.085124 -0.121099 -0.472461
v 0.120406 -0.147382 -0.103551
v 0.104181 -0.138942 -0.098034
v 0.120866 -0.146923 -0.098614
v 0.120406 -0.147382 -0.118922
v 0.120406 -0.147382 -0.472461
v 0.108941 -0.137760 -0.472461
v 0.120406 -0.147382 -0.457089
v 0.070743 -0.114905 -0.394416
v 0.070502 -0.114888 -0.381408
v 0.094161 -0.131048 -0.212951
v 0.070885 -0.114647 -0.407423
v 0.072654 -0.113719 -0.290356
v 0.072641 -0.113544 -0.277349
v 0.071461 -0.114285 -0.303364
v 0.072606 -0.113753 -0.446446
v 0.071653 -0.114165 -0.433438
v 0.071281 -0.114608 -0.420431
v 0.070694 -0.114933 -0.368401
v 0.070825 -0.114685 -0.355393
v 0.072863 -0.113571 -0.264341
v 0.078932 -0.116494 -0.221968
v 0.073170 -0.113211 -0.251334
v 0.076520 -0.111107 -0.121259
v 0.076827 -0.110888 -0.114755
v 0.102478 -0.138430 -0.112294
v 0.075937 -0.111520 -0.127763
v 0.071595 -0.114435 -0.316371
v 0.071339 -0.114576 -0.342386
v 0.071566 -0.114220 -0.329378
v 0.117544 -0.146173 -0.096620
v 0.121539 -0.146249 -0.096313
v 0.122213 -0.145575 -0.094013
v 0.122693 -0.146641 -0.090833
v 0.123285 -0.144503 -0.092038
v 0.118030 -0.146164 -0.094052
v 0.120406 -0.147382 -0.134293
v 0.120406 -0.147382 -0.149664
v 0.120406 -0.147382 -0.165036
v 0.120406 -0.147382 -0.180407
v 0.120406 -0.147382 -0.195778
v 0.120406 -0.147382 -0.211149
v 0.120406 -0.147382 -0.226521
v 0.120406 -0.147382 -0.241892
v 0.120406 -0.147382 -0.257263
v 0.120406 -0.147382 -0.272634
v 0.120406 -0.147382 -0.288006
v 0.120406 -0.147382 -0.303377
v 0.120406 -0.147382 -0.318748
v 0.120406 -0.147382 -0.334119
v 0.120406 -0.147382 -0.349490
v 0.120406 -0.147382 -0.364862
v 0.120406 -0.147382 -0.380233
v 0.120406 -0.147382 -0.395604
v 0.120406 -0.147382 -0.410975
v 0.120406 -0.147382 -0.426347
v 0.120406 -0.147382 -0.441718
v 0.108577 -0.140883 -0.088036
v 0.105507 -0.138709 -0.089202
v 0.112062 -0.142995 -0.087768
v 0.103178 -0.133415 -0.472461
v 0.096719 -0.128742 -0.472461
v 0.080942 -0.113960 -0.106260
v 0.083923 -0.117219 -0.103700
v 0.075187 -0.112061 -0.141213
v 0.075366 -0.111795 -0.134267
v 0.074866 -0.112146 -0.147274
v 0.074625 -0.112307 -0.224805
v 0.074454 -0.112442 -0.212311
v 0.075037 -0.112161 -0.153645
v 0.075030 -0.112033 -0.160281
v 0.074201 -0.112720 -0.207401
v 0.073502 -0.113003 -0.199304
v 0.074358 -0.112615 -0.233092
v 0.075013 -0.112177 -0.166868
v 0.074841 -0.112162 -0.173289
v 0.074562 -0.112478 -0.180640
v 0.074235 -0.112617 -0.187268
v 0.104181 -0.138942 -0.098034
v 0.087705 -0.121074 -0.100562
v 0.091181 -0.125093 -0.097777
v 0.102478 -0.138430 -0.112294
v 0.085553 -0.118832 -0.102226
v 0.077340 -0.110405 -0.108799
v 0.114008 -0.144321 -0.087245
v 0.116606 -0.145586 -0.087266
v 0.094009 -0.127873 -0.095316
v 0.099156 -0.132987 -0.092119
v 0.119720 -0.146873 -0.088087
v 0.122836 -0.147594 -0.088947
v 0.073499 -0.113119 -0.472461
v 0.085124 -0.121099 -0.472461
v 0.072800 -0.113444 -0.459453
v 0.120406 -0.147382 -0.103551
v 0.120866 -0.146923 -0.098614
v 0.120406 -0.147382 -0.118922
v 0.120406 -0.147382 -0.472461
v 0.120406 -0.147382 -0.457089
v 0.108941 -0.137760 -0.472461
v 0.070743 -0.114905 -0.394416
v 0.094161 -0.131048 -0.212951
v 0.070502 -0.114888 -0.381408
v 0.070885 -0.114647 -0.407423
v 0.072654 -0.113719 -0.290356
v 0.072641 -0.113544 -0.277349
v 0.071461 -0.114285 -0.303364
v 0.072606 -0.113753 -0.446446
v 0.071653 -0.114165 -0.433438
v 0.071281 -0.114608 -0.420431
v 0.070694 -0.114933 -0.368401
v 0.070825 -0.114685 -0.355393
v 0.072863 -0.113571 -0.264341
v 0.078932 -0.116494 -0.221968
v 0.073170 -0.113211 -0.251334
v 0.076520 -0.111107 -0.121259
v 0.076827 -0.110888 -0.114755
v 0.075937 -0.111520 -0.127763
v 0.071595 -0.114435 -0.316371
v 0.071566 -0.114220 -0.329378
v 0.071339 -0.114576 -0.342386
v 0.117544 -0.146173 -0.096620
v 0.121539 -0.146249 -0.096313
v 0.122213 -0.145575 -0.094013
v 0.123285 -0.144503 -0.092038
v 0.122693 -0.146641 -0.090833
v 0.118030 -0.146164 -0.094052
v 0.120406 -0.147382 -0.134293
v 0.120406 -0.147382 -0.149664
v 0.120406 -0.147382 -0.165036
v 0.120406 -0.147382 -0.180407
v 0.120406 -0.147382 -0.195778
v 0.120406 -0.147382 -0.211149
v 0.120406 -0.147382 -0.226521
v 0.120406 -0.147382 -0.241892
v 0.120406 -0.147382 -0.257263
v 0.120406 -0.147382 -0.272634
v 0.120406 -0.147382 -0.288006
v 0.120406 -0.147382 -0.303377
v 0.120406 -0.147382 -0.318748
v 0.120406 -0.147382 -0.334119
v 0.120406 -0.147382 -0.349490
v 0.120406 -0.147382 -0.364862
v 0.120406 -0.147382 -0.380233
v 0.120406 -0.147382 -0.395604
v 0.120406 -0.147382 -0.410975
v 0.120406 -0.147382 -0.426347
v 0.120406 -0.147382 -0.441718
v 0.096719 -0.128742 -0.472461
v 0.103178 -0.133415 -0.472461
v 0.075187 -0.112061 -0.141213
v 0.075366 -0.111795 -0.134267
v 0.074866 -0.112146 -0.147274
v 0.074625 -0.112307 -0.224805
v 0.074454 -0.112442 -0.212311
v 0.075037 -0.112161 -0.153645
v 0.075030 -0.112033 -0.160281
v 0.074201 -0.112720 -0.207401
v 0.073502 -0.113003 -0.199304
v 0.074358 -0.112615 -0.233092
v 0.075013 -0.112177 -0.166868
v 0.074841 -0.112162 -0.173289
v 0.074562 -0.112478 -0.180640
v 0.074235 -0.112617 -0.187268
v 0.125526 -0.145865 -0.091133
v 0.124334 -0.147220 -0.089765
vn 0.5652 0.8234 0.0509
vn 0.4248 0.8969 -0.1230
vn 0.4615 0.8871 0.0000
vn 0.6429 0.7660 0.0000
vn 0.5218 0.8530 0.0086
vn 0.4427 0.8964 0.0226
vn 0.6481 0.7615 -0.0096
vn 0.6480 0.7616 -0.0095
vn 0.8166 0.5685 -0.0996
vn 0.6086 0.7905 0.0696
vn 0.5486 0.8356 0.0280
vn 0.4763 0.8791 0.0171
vn 0.3091 0.9501 0.0412
vn 0.6567 0.7539 -0.0210
vn 0.5926 0.8055 -0.0060
vn 0.7060 0.7063 -0.0524
vn 0.6281 0.7773 -0.0363
vn 0.6479 0.7617 -0.0095
vn 0.7331 0.6777 -0.0574
vn 0.7382 0.6658 -0.1085
vn 0.9453 -0.3260 -0.0075
vn 0.4111 0.8324 0.3718
vn 0.0406 0.9556 -0.2918
vn -0.8806 0.3930 0.2647
vn -0.1345 0.9332 0.3331
vn -0.1330 0.9610 -0.2426
vn 0.4467 0.8947 0.0000
vn 0.5284 0.8490 0.0000
vn 0.5974 0.8019 0.0000
vn 0.5711 0.8208 0.0116
vn 0.6021 0.7906 -0.1113
vn 0.5208 0.8513 -0.0637
vn 0.4941 0.8692 0.0161
vn 0.4406 0.8975 -0.0204
vn 0.5727 0.8187 0.0427
vn 0.0001 0.0000 1.0000
vn 0.0000 0.0000 1.0000
vn 0.0004 0.0000 1.0000
vn 0.7037 0.7097 -0.0338
vn 0.6232 0.7820 -0.0104
vn 0.4815 0.8714 -0.0942
vn 0.7322 0.6719 -0.1117
vn 0.7375 0.6651 -0.1168
vn 0.7371 0.6657 -0.1163
vn 0.7474 0.6639 -0.0254
vn 0.7187 0.6938 -0.0456
vn 0.7185 0.6941 -0.0451
vn 0.7197 0.6927 -0.0476
vn 0.7198 0.6925 -0.0478
vn 0.6911 0.7226 0.0173
vn 0.6789 0.7341 0.0158
vn 0.6784 0.7346 0.0165
vn 0.6806 0.7325 0.0135
vn 0.6808 0.7323 0.0134
vn 0.7736 0.6274 0.0887
vn 0.7539 0.6526 0.0758
vn 0.7387 0.6703 -0.0700
vn 0.7126 0.6999 -0.0490
vn 0.7351 0.6716 -0.0929
vn 0.7086 0.7054 -0.0173
vn 0.7087 0.7053 -0.0173
vn 0.7491 0.6602 -0.0553
vn 0.7508 0.6581 -0.0568
vn 0.7443 0.6659 -0.0513
vn 0.7439 0.6664 -0.0509
vn 0.7643 0.6413 -0.0671
vn 0.5815 0.8127 0.0377
vn 0.6145 0.7885 0.0258
vn 0.6038 0.1463 -0.7836
vn 0.6018 0.7987 -0.0030
vn -0.6021 -0.7906 0.1113
vn 0.7589 0.6511 -0.0076
vn -0.7589 -0.6511 0.0076
vn 0.7410 0.6691 -0.0568
vn -0.7410 -0.6691 0.0568
vn 0.7383 0.6642 -0.1174
vn 0.7351 0.6737 -0.0757
vn 0.4376 0.8978 0.0491
vn 0.5819 0.8028 -0.1298
vn 0.7260 0.6841 -0.0698
vn 0.7254 0.6845 -0.0729
vn 0.7257 0.6843 -0.0708
vn 0.0250 0.9935 0.1110
vn 0.3115 0.8574 0.4096
vn -0.4376 -0.8978 -0.0491
vn -0.5819 -0.8028 0.1298
vn -0.5208 -0.8513 0.0637
vn -0.5652 -0.8234 -0.0509
vn -0.4248 -0.8969 0.1230
vn -0.4615 -0.8871 0.0000
vn -0.6429 -0.7660 0.0000
vn -0.5218 -0.8530 -0.0086
vn -0.4427 -0.8964 -0.0226
vn -0.6481 -0.7615 0.0096
vn -0.6480 -0.7616 0.0095
vn -0.8166 -0.5685 0.0996
vn -0.6086 -0.7905 -0.0696
vn -0.5486 -0.8356 -0.0280
vn -0.4763 -0.8791 -0.0171
vn -0.3091 -0.9501 -0.0412
vn -0.6567 -0.7539 0.0210
vn -0.5926 -0.8055 0.0060
vn -0.7060 -0.7063 0.0524
vn -0.6281 -0.7773 0.0363
vn -0.6479 -0.7617 0.0095
vn -0.7331 -0.6777 0.0574
vn -0.7382 -0.6658 0.1085
vn -0.9453 0.3260 0.0075
vn -0.4111 -0.8324 -0.3718
vn -0.0406 -0.9556 0.2918
vn 0.8806 -0.3930 -0.2647
vn 0.1345 -0.9332 -0.3331
vn 0.1330 -0.9610 0.2426
vn -0.4467 -0.8947 0.0000
vn -0.5284 -0.8490 0.0000
vn -0.5974 -0.8019 0.0000
vn -0.5711 -0.8208 -0.0116
vn -0.4941 -0.8692 -0.0161
vn -0.4406 -0.8975 0.0204
vn -0.5727 -0.8187 -0.0427
vn 0.0000 0.0000 -1.0000
vn -0.0004 0.0000 -1.0000
vn -0.7037 -0.7097 0.0338
vn -0.6232 -0.7820 0.0104
vn -0.4815 -0.8714 0.0942
vn -0.7322 -0.6719 0.1117
vn -0.7474 -0.6639 0.0254
vn -0.7187 -0.6938 0.0456
vn -0.7197 -0.6927 0.0476
vn -0.7185 -0.6941 0.0451
vn -0.7198 -0.6925 0.0478
vn -0.6911 -0.7226 -0.0173
vn -0.6789 -0.7341 -0.0158
vn -0.6806 -0.7325 -0.0135
vn -0.6784 -0.7346 -0.0165
vn -0.6808 -0.7323 -0.0134
vn -0.7736 -0.6274 -0.0887
vn -0.7539 -0.6526 -0.0758
vn -0.7387 -0.6703 0.0700
vn -0.7126 -0.6999 0.0490
vn -0.7351 -0.6716 0.0929
vn -0.7086 -0.7054 0.0173
vn -0.7087 -0.7053 0.0173
vn -0.7491 -0.6602 0.0553
vn -0.7443 -0.6659 0.0513
vn -0.7508 -0.6581 0.0568
vn -0.7439 -0.6664 0.0509
vn -0.7643 -0.6413 0.0671
vn -0.5815 -0.8127 -0.0377
vn -0.6145 -0.7885 -0.0258
vn -0.6038 -0.1463 0.7836
vn -0.6018 -0.7987 0.0030
vn -0.7383 -0.6642 0.1174
vn -0.7351 -0.6737 0.0757
vn -0.7260 -0.6841 0.0698
vn -0.7257 -0.6843 0.0708
vn -0.7254 -0.6845 0.0729
vn -0.0250 -0.9935 -0.1110
vn -0.3115 -0.8574 -0.4096
vn -0.6949 -0.7085 0.1230
vn -0.7270 -0.6838 0.0626
vn -0.0196 -0.9998 0.0072
vn -0.4577 -0.8889 -0.0203
vn -0.7269 -0.6839 0.0627
vn 0.0456 -0.4997 -0.8650
vn -0.0225 -0.8930 -0.4495
vn 0.1422 -0.7625 -0.6312
vn -0.3823 -0.9240 -0.0015
vn 0.6949 0.7085 -0.1230
vn 0.7270 0.6838 -0.0626
vn 0.0196 0.9998 -0.0072
vn 0.7269 0.6839 -0.0627
vn 0.4577 0.8889 0.0203
vn -0.0456 0.4997 0.8650
vn 0.0225 0.8930 0.4495
vn -0.1422 0.7625 0.6312
vn 0.3823 0.9240 0.0015
usemtl None.042
s 1
f 1//1 2//1 3//1
f 4//2 5//2 6//2
f 4//3 7//3 5//3
f 8//4 9//4 10//4
f 11//5 12//5 13//5
f 11//6 13//6 14//6
f 15//7 16//7 13//8
f 15//9 13//9 17//9
f 18//10 19//10 3//10
f 18//11 3//11 2//11
f 20//12 14//12 13//12
f 20//13 13//13 19//13
f 21//14 22//14 13//14
f 21//15 13//15 12//15
f 23//16 24//16 13//16
f 23//17 25//17 24//17
f 23//18 13//8 16//7
f 26//19 27//19 28//19
f 26//20 28//20 29//20
f 30//21 31//21 32//21
f 6//22 5//22 33//22
f 6//23 33//23 34//23
f 35//24 36//24 37//24
f 35//25 38//25 36//25
f 35//26 34//26 38//26
f 39//27 40//27 28//27
f 39//27 28//27 7//27
f 40//27 41//27 28//27
f 41//27 42//27 28//27
f 42//27 43//27 28//27
f 44//28 45//28 13//28
f 44//28 13//28 43//28
f 45//28 46//28 13//28
f 46//28 47//28 13//28
f 47//28 48//28 13//28
f 49//28 50//28 13//28
f 49//28 13//28 48//28
f 50//28 51//28 13//28
f 52//28 53//28 13//28
f 52//28 13//28 51//28
f 53//29 54//29 3//29
f 53//30 3//30 13//30
f 54//29 55//29 3//29
f 55//29 56//29 3//29
f 56//29 57//29 3//29
f 57//29 58//29 3//29
f 58//29 59//29 3//29
f 10//4 9//4 59//4
f 60//31 5//31 61//31
f 60//32 62//32 5//32
f 3//33 19//33 13//33
f 5//34 7//34 28//34
f 59//35 9//35 3//35
f 9//36 63//37 64//36
f 9//36 64//36 3//38
f 22//39 31//39 13//39
f 31//40 30//40 13//40
f 38//41 33//41 5//41
f 28//42 27//43 65//44
f 28//45 65//45 66//45
f 67//46 68//47 28//48
f 67//46 28//48 69//49
f 70//50 71//50 24//50
f 72//51 69//52 28//53
f 72//51 28//53 73//54
f 74//55 75//55 24//55
f 74//56 24//56 71//56
f 25//57 76//57 24//57
f 76//58 70//58 24//58
f 68//59 29//59 28//59
f 77//60 73//60 28//60
f 77//60 28//60 78//61
f 79//62 78//63 28//64
f 79//62 28//64 80//65
f 80//66 28//66 75//66
f 28//67 43//67 24//67
f 24//68 75//68 28//68
f 24//69 43//69 13//69
f 13//70 30//70 17//70
f 61//71 81//71 60//71
f 82//72 83//72 28//72
f 82//73 84//73 83//73
f 82//74 28//74 85//74
f 82//75 85//75 84//75
f 65//44 27//43 86//76
f 66//77 85//77 28//77
f 5//78 87//78 88//78
f 5//79 62//79 87//79
f 89//80 90//81 5//82
f 91//83 36//83 38//83
f 91//84 92//84 36//84
f 88//85 87//85 81//85
f 87//86 62//86 81//86
f 62//87 60//87 81//87
f 93//88 94//88 95//88
f 96//89 97//89 81//89
f 96//90 81//90 98//90
f 99//91 100//91 101//91
f 102//92 103//92 104//92
f 102//93 105//93 103//93
f 106//94 103//95 107//94
f 106//96 108//96 103//96
f 109//97 94//97 110//97
f 109//98 95//98 94//98
f 111//99 103//99 105//99
f 111//100 110//100 103//100
f 112//101 103//101 113//101
f 112//102 104//102 103//102
f 114//103 103//103 115//103
f 114//104 115//104 116//104
f 114//105 107//94 103//95
f 117//106 84//106 118//106
f 117//107 119//107 84//107
f 120//108 121//108 122//108
f 97//109 123//109 81//109
f 97//110 124//110 123//110
f 125//111 126//111 127//111
f 125//112 127//112 128//112
f 125//113 128//113 124//113
f 129//114 84//114 130//114
f 129//114 98//114 84//114
f 130//114 84//114 131//114
f 131//114 84//114 132//114
f 132//114 84//114 133//114
f 134//115 103//115 135//115
f 134//115 133//115 103//115
f 135//115 103//115 136//115
f 136//115 103//115 137//115
f 137//115 103//115 138//115
f 139//115 103//115 140//115
f 139//115 138//115 103//115
f 140//115 103//115 141//115
f 142//115 103//115 143//115
f 142//115 141//115 103//115
f 143//116 94//116 144//116
f 143//117 103//117 94//117
f 144//116 94//116 145//116
f 145//116 94//116 146//116
f 146//116 94//116 147//116
f 147//116 94//116 148//116
f 148//116 94//116 149//116
f 100//91 149//91 101//91
f 94//118 103//118 110//118
f 81//119 84//119 98//119
f 149//120 94//120 101//120
f 101//121 150//121 151//121
f 101//122 94//122 150//122
f 113//123 103//123 122//123
f 122//124 103//124 120//124
f 128//125 81//125 123//125
f 84//126 65//126 118//126
f 84//127 66//127 65//127
f 152//128 84//129 153//130
f 152//128 154//131 84//129
f 155//132 115//132 156//132
f 157//133 84//134 154//135
f 157//133 158//136 84//134
f 159//137 115//137 160//137
f 159//138 156//138 115//138
f 116//139 115//139 161//139
f 161//140 115//140 155//140
f 153//141 84//141 119//141
f 162//142 84//142 158//142
f 162//142 163//143 84//142
f 164//144 84//145 163//146
f 164//144 165//147 84//145
f 165//148 160//148 84//148
f 84//149 115//149 133//149
f 115//150 84//150 160//150
f 115//151 103//151 133//151
f 103//152 108//152 120//152
f 65//153 86//153 118//153
f 66//154 84//154 85//154
f 89//155 81//156 90//157
f 91//158 128//158 127//158
f 91//159 127//159 92//159
f 81//160 61//160 90//160
f 81//156 89//155 84//161
f 124//162 128//162 123//162
f 81//163 128//163 88//163
f 84//161 89//155 83//164
f 126//165 166//165 127//165
f 127//166 167//166 92//166
f 127//167 166//167 167//167
f 128//168 91//168 88//168
f 5//169 90//169 61//169
f 5//82 28//170 89//80
f 34//171 33//171 38//171
f 83//172 89//80 28//170
f 5//173 88//173 38//173
f 37//174 36//174 166//174
f 36//175 92//175 167//175
f 36//176 167//176 166//176
f 38//177 88//177 91//177
