# Blender v2.79 (sub 0) OBJ File: ''
# www.blender.org
mtllib crack_restart_keyway_65.mtl
o crack_restart_keyway_65
v 0.120406 -0.147382 -0.472461
v 0.120406 -0.147382 -0.457089
v 0.109682 -0.137169 -0.472461
v 0.120406 -0.147382 -0.257263
v 0.112274 -0.146330 -0.259954
v 0.120406 -0.147382 -0.264949
v 0.120406 -0.147382 -0.250393
v 0.115715 -0.146884 -0.255636
v 0.120406 -0.147382 -0.272634
v 0.110073 -0.145565 -0.266512
v 0.120406 -0.147382 -0.280320
v 0.120406 -0.147382 -0.288006
v 0.102120 -0.142548 -0.291115
v 0.120406 -0.147382 -0.295691
v 0.120406 -0.147382 -0.303377
v 0.095968 -0.139151 -0.311445
v 0.120406 -0.147382 -0.318748
v 0.120406 -0.147382 -0.334119
v 0.120406 -0.147382 -0.349490
v 0.105842 -0.142601 -0.355406
v 0.120406 -0.147382 -0.364862
v 0.120406 -0.147382 -0.380233
v 0.083166 -0.126844 -0.376758
v 0.120406 -0.147382 -0.395604
v 0.102968 -0.140063 -0.401253
v 0.120406 -0.147382 -0.410975
v 0.120406 -0.147382 -0.426347
v 0.120406 -0.147382 -0.441718
v 0.082027 -0.125385 -0.385172
v 0.081213 -0.124329 -0.393473
v 0.102957 -0.132476 -0.472461
v 0.084159 -0.128217 -0.371254
v 0.078823 -0.117485 -0.472461
v 0.084731 -0.121346 -0.472461
v 0.076287 -0.116001 -0.467871
v 0.076058 -0.115530 -0.472461
v 0.077038 -0.117258 -0.453083
v 0.077792 -0.118709 -0.438515
v 0.076834 -0.116809 -0.459523
v 0.087376 -0.122995 -0.472461
v 0.090869 -0.125107 -0.472461
v 0.092672 -0.126154 -0.472461
v 0.096911 -0.128589 -0.472461
v 0.104572 -0.143619 -0.283465
v 0.120406 -0.147382 -0.280320
v 0.106899 -0.144381 -0.276953
v 0.107986 -0.144749 -0.273078
v 0.108835 -0.145027 -0.270045
v 0.082597 -0.126198 -0.379523
v 0.078823 -0.117485 -0.472461
v 0.120406 -0.147382 -0.257263
v 0.078783 -0.120448 -0.426254
v 0.079178 -0.121605 -0.416217
v 0.102968 -0.140063 -0.401253
v 0.079685 -0.122352 -0.409409
v 0.080328 -0.123173 -0.402597
v 0.088096 -0.132607 -0.347454
v 0.086875 -0.131391 -0.353646
v 0.105842 -0.142601 -0.355406
v 0.084765 -0.129315 -0.365142
v 0.078039 -0.119175 -0.434862
v 0.092902 -0.136764 -0.324847
v 0.094288 -0.137943 -0.317904
v 0.120406 -0.147382 -0.334119
v 0.091182 -0.135438 -0.332314
v 0.089834 -0.134324 -0.338541
v 0.089164 -0.133688 -0.341930
v 0.099440 -0.141185 -0.299445
v 0.084731 -0.121346 -0.472461
v 0.111120 -0.145925 -0.263572
v 0.120406 -0.147382 -0.264949
v 0.120406 -0.147382 -0.472461
v 0.109682 -0.137169 -0.472461
v 0.120406 -0.147382 -0.457089
v 0.120406 -0.147382 -0.272634
v 0.120406 -0.147382 -0.288006
v 0.120406 -0.147382 -0.295691
v 0.120406 -0.147382 -0.303377
v 0.120406 -0.147382 -0.318748
v 0.120406 -0.147382 -0.349490
v 0.120406 -0.147382 -0.364862
v 0.120406 -0.147382 -0.380233
v 0.120406 -0.147382 -0.395604
v 0.120406 -0.147382 -0.410975
v 0.120406 -0.147382 -0.426347
v 0.120406 -0.147382 -0.441718
v 0.102957 -0.132476 -0.472461
v 0.087376 -0.122995 -0.472461
v 0.090869 -0.125107 -0.472461
v 0.092672 -0.126154 -0.472461
v 0.096911 -0.128589 -0.472461
vn -0.6896 -0.7241 0.0000
vn -0.1283 -0.9917 0.0000
vn -0.1056 -0.9944 0.0000
vn -0.1172 -0.9925 -0.0340
vn -0.1732 -0.9849 0.0000
vn -0.2556 -0.9668 0.0000
vn -0.3192 -0.9477 0.0000
vn -0.3119 -0.9501 0.0000
vn -0.4829 -0.8757 0.0000
vn -0.4880 -0.8646 -0.1198
vn -0.4826 -0.8666 -0.1270
vn -0.4808 -0.8673 -0.1292
vn -0.3870 -0.9221 0.0000
vn -0.4219 -0.8954 0.1422
vn -0.7770 -0.6295 -0.0039
vn -0.5663 -0.8115 -0.1441
vn -0.4806 -0.8673 -0.1296
vn -0.5468 -0.8367 -0.0316
vn -0.5765 -0.8153 -0.0549
vn -0.6038 -0.7957 -0.0480
vn -0.5735 -0.8160 -0.0721
vn -0.5730 -0.8177 -0.0550
vn -0.5481 -0.8354 -0.0416
vn -0.5473 -0.8359 -0.0409
vn -0.5507 -0.8336 -0.0437
vn -0.5515 -0.8330 -0.0445
vn -0.5178 -0.8305 -0.2050
vn -0.5024 -0.8310 -0.2387
vn -0.4816 -0.8309 -0.2788
vn -0.4825 -0.8310 -0.2769
vn -0.4786 -0.8309 -0.2840
vn -0.4773 -0.8308 -0.2863
vn -0.2182 -0.9736 -0.0664
vn 0.2182 0.9736 0.0664
vn -0.2247 -0.9740 -0.0298
vn -0.2231 -0.9744 -0.0282
vn -0.2238 -0.9742 -0.0294
vn 0.2247 0.9740 0.0298
vn 0.2238 0.9742 0.0294
vn 0.2231 0.9744 0.0282
vn -0.2248 -0.9738 -0.0336
vn 0.2248 0.9738 0.0336
vn -0.2224 -0.9746 -0.0271
vn 0.2224 0.9746 0.0271
vn -0.6491 -0.7594 -0.0438
vn 0.5765 0.8153 0.0549
vn 0.1056 0.9944 0.0000
vn 0.1172 0.9925 0.0340
vn -0.5838 -0.8088 -0.0699
vn -0.5876 -0.8065 -0.0655
vn -0.5835 -0.8091 -0.0703
vn 0.5838 0.8088 0.0699
vn 0.5835 0.8091 0.0703
vn 0.5876 0.8065 0.0655
vn -0.5958 -0.8021 -0.0408
vn -0.5951 -0.8025 -0.0437
vn -0.5955 -0.8023 -0.0424
vn -0.5954 -0.8020 -0.0485
vn -0.5953 -0.8021 -0.0480
vn -0.5083 -0.8587 -0.0651
vn -0.5125 -0.8560 -0.0678
vn -0.5123 -0.8562 -0.0668
vn 0.4806 0.8673 0.1296
vn 0.4825 0.8666 0.1270
vn 0.4808 0.8673 0.1292
vn -0.4948 -0.8625 -0.1059
vn 0.4948 0.8625 0.1059
vn -0.5899 -0.8051 -0.0628
vn -0.5856 -0.8077 -0.0677
vn -0.5120 -0.8568 -0.0607
vn -0.3818 -0.9209 -0.0780
vn -0.3811 -0.9212 -0.0779
vn -0.3819 -0.9208 -0.0796
vn 0.3818 0.9209 0.0780
vn 0.3819 0.9208 0.0796
vn 0.3811 0.9212 0.0779
vn -0.3810 -0.9214 -0.0762
vn 0.3810 0.9214 0.0762
vn -0.5082 -0.8591 -0.0608
vn -0.5122 -0.8562 -0.0675
vn -0.4002 -0.9138 0.0686
vn -0.2684 -0.9596 -0.0850
vn -0.2712 -0.9600 -0.0698
vn -0.3792 -0.9224 -0.0739
vn 0.3792 0.9224 0.0739
vn -0.3814 -0.9208 -0.0822
vn 0.5507 0.8336 0.0437
vn 0.5473 0.8359 0.0409
vn 0.5481 0.8354 0.0415
vn 0.5515 0.8330 0.0445
vn -0.1638 -0.9845 -0.0619
vn -0.1632 -0.9849 -0.0582
vn -0.1633 -0.9848 -0.0585
vn -0.1637 -0.9845 -0.0622
vn 0.5951 0.8025 0.0437
vn 0.5958 0.8021 0.0408
vn 0.5955 0.8023 0.0424
vn 0.5856 0.8077 0.0677
vn 0.5899 0.8051 0.0628
vn -0.5301 -0.8245 -0.1978
vn -0.2497 -0.9665 -0.0597
vn 0.2497 0.9665 0.0597
vn 0.1283 0.9917 0.0000
vn 0.1632 0.9849 0.0582
vn 0.1638 0.9845 0.0619
vn 0.1633 0.9848 0.0585
vn 0.1637 0.9845 0.0622
vn 0.6896 0.7241 0.0000
vn 0.1732 0.9849 0.0000
vn 0.2556 0.9668 0.0000
vn 0.3192 0.9477 0.0000
vn 0.3119 0.9501 0.0000
vn 0.4829 0.8757 0.0000
vn 0.4880 0.8646 0.1198
vn 0.3870 0.9221 0.0000
vn 0.4219 0.8954 -0.1422
vn 0.5663 0.8115 0.1441
vn 0.5468 0.8367 0.0316
vn 0.6038 0.7957 0.0480
vn 0.5735 0.8160 0.0721
vn 0.5730 0.8177 0.0550
vn 0.5178 0.8305 0.2050
vn 0.5024 0.8310 0.2387
vn 0.4816 0.8309 0.2788
vn 0.4786 0.8309 0.2840
vn 0.4825 0.8310 0.2769
vn 0.4773 0.8308 0.2863
vn 0.5953 0.8021 0.0480
vn 0.5954 0.8020 0.0485
vn 0.5083 0.8587 0.0651
vn 0.5123 0.8562 0.0668
vn 0.5125 0.8560 0.0678
vn -0.7658 -0.6430 -0.0072
vn 0.5120 0.8568 0.0607
vn 0.5122 0.8562 0.0675
vn 0.5082 0.8591 0.0608
vn 0.4002 0.9138 -0.0686
vn 0.2684 0.9596 0.0850
vn 0.2712 0.9600 0.0698
vn 0.3814 0.9208 0.0822
vn 0.5301 0.8245 0.1978
usemtl None.123
s 1
f 1//1 2//1 3//1
f 4//2 5//2 6//2
f 4//3 7//3 8//3
f 4//4 8//4 5//4
f 9//5 10//5 11//5
f 9//5 6//5 10//5
f 12//6 13//6 14//6
f 12//6 11//6 13//6
f 15//7 16//7 17//7
f 15//7 14//7 16//7
f 17//7 16//7 18//7
f 19//8 18//8 20//8
f 19//8 20//8 21//8
f 21//8 20//8 22//8
f 22//9 23//9 24//9
f 22//10 20//11 23//12
f 24//13 25//13 26//13
f 24//14 23//14 25//14
f 26//13 25//13 27//13
f 27//13 25//13 28//13
f 23//15 29//15 30//15
f 28//13 25//13 2//13
f 2//16 31//16 3//16
f 23//12 20//11 32//17
f 33//18 34//18 35//18
f 33//19 35//19 36//19
f 37//20 25//20 38//20
f 37//21 2//21 25//21
f 34//22 2//22 37//22
f 34//23 37//24 39//25
f 34//23 39//25 35//26
f 34//27 40//27 2//27
f 2//28 40//28 41//28
f 2//29 41//30 42//31
f 2//29 42//31 43//32
f 13//33 11//33 44//33
f 13//34 44//34 45//34
f 46//35 11//36 47//37
f 46//38 47//39 45//40
f 46//35 44//41 11//36
f 46//38 45//40 44//42
f 47//37 11//36 48//43
f 47//39 48//44 45//40
f 49//45 29//45 23//45
f 35//46 50//46 36//46
f 8//47 7//47 51//47
f 8//48 51//48 5//48
f 52//49 25//50 53//51
f 52//52 53//53 54//54
f 55//55 53//56 25//57
f 25//57 23//58 56//59
f 25//57 56//59 55//55
f 20//60 57//61 58//62
f 32//63 59//64 23//65
f 32//66 20//66 60//66
f 32//67 60//67 59//67
f 38//68 25//50 61//69
f 20//60 58//62 60//70
f 62//71 18//72 63//73
f 62//74 63//75 64//76
f 62//71 65//77 18//72
f 62//74 64//76 65//78
f 20//60 66//79 67//80
f 20//81 18//81 66//81
f 20//60 67//80 57//61
f 16//82 14//82 68//82
f 68//83 14//83 13//83
f 63//73 18//72 16//84
f 63//75 16//85 64//76
f 18//72 65//77 66//86
f 39//87 37//88 69//89
f 39//87 69//89 35//90
f 6//91 5//92 70//93
f 6//91 70//93 10//94
f 52//49 61//69 25//50
f 53//95 55//96 54//97
f 61//98 54//54 38//99
f 61//98 52//52 54//54
f 31//100 2//100 43//100
f 11//101 10//101 48//101
f 48//102 10//102 45//102
f 5//103 51//103 71//103
f 5//104 71//105 70//106
f 70//106 71//105 10//107
f 72//108 73//108 74//108
f 75//109 45//109 10//109
f 75//109 10//109 71//109
f 76//110 77//110 13//110
f 76//110 13//110 45//110
f 78//111 79//111 16//111
f 78//111 16//111 77//111
f 79//111 64//111 16//111
f 80//112 59//112 64//112
f 80//112 81//112 59//112
f 81//112 82//112 59//112
f 82//113 83//113 23//113
f 82//114 23//65 59//64
f 83//115 84//115 54//115
f 83//116 54//116 23//116
f 84//115 85//115 54//115
f 85//115 86//115 54//115
f 86//115 74//115 54//115
f 74//117 73//117 87//117
f 50//118 35//118 69//118
f 37//119 38//119 54//119
f 37//120 54//120 74//120
f 69//121 37//121 74//121
f 69//122 74//122 88//122
f 74//123 89//123 88//123
f 74//124 90//125 89//126
f 74//124 91//127 90//125
f 54//97 56//128 23//129
f 54//97 55//96 56//128
f 59//130 58//131 57//132
f 30//133 56//133 23//133
f 59//130 60//134 58//131
f 59//130 67//135 66//136
f 59//137 66//137 64//137
f 59//130 57//132 67//135
f 16//138 68//138 77//138
f 68//139 13//139 77//139
f 64//76 66//140 65//78
f 87//141 91//141 74//141
