# Blender v2.79 (sub 0) OBJ File: ''
# www.blender.org
mtllib crack_restart_keyway_730.mtl
o crack_restart_keyway_730
v 0.073342 -0.113231 -0.472461
v 0.072926 -0.113365 -0.459453
v 0.084648 -0.121399 -0.472461
v 0.147224 -0.162040 -0.087634
v 0.125995 -0.154475 -0.075217
v 0.150730 -0.164626 -0.087294
v 0.143382 -0.159202 -0.088100
v 0.152184 -0.169042 -0.080797
v 0.154210 -0.167189 -0.086931
v 0.139594 -0.156318 -0.088612
v 0.126540 -0.147825 -0.091832
v 0.122213 -0.145575 -0.094013
v 0.131068 -0.149873 -0.089874
v 0.120406 -0.147382 -0.457089
v 0.095797 -0.129477 -0.472461
v 0.120406 -0.147382 -0.103551
v 0.114631 -0.144474 -0.094849
v 0.120866 -0.146923 -0.098614
v 0.108317 -0.139961 -0.106423
v 0.120406 -0.147382 -0.118922
v 0.120406 -0.147382 -0.472461
v 0.108108 -0.138424 -0.472461
v 0.085188 -0.104273 0.316371
v 0.085321 -0.102930 0.335272
v 0.093170 -0.112087 0.340220
v 0.101557 -0.121843 0.345213
v 0.083202 -0.104155 0.290356
v 0.074045 -0.112732 -0.186296
v 0.093024 -0.128979 -0.139382
v 0.074041 -0.112664 -0.199304
v 0.074378 -0.112452 -0.173289
v 0.073574 -0.113066 -0.238326
v 0.073852 -0.112783 -0.225319
v 0.104171 -0.140677 -0.280927
v 0.073186 -0.113201 -0.251334
v 0.070693 -0.114933 -0.394416
v 0.069855 -0.115295 -0.381408
v 0.090632 -0.132125 -0.376755
v 0.070968 -0.114595 -0.407423
v 0.072148 -0.114078 -0.290356
v 0.071395 -0.114327 -0.303364
v 0.072595 -0.113573 -0.277349
v 0.072593 -0.113762 -0.446446
v 0.071899 -0.114010 -0.433438
v 0.074609 -0.112090 -0.081618
v 0.075709 -0.111523 -0.096582
v 0.071755 -0.111126 -0.054992
v 0.071562 -0.114453 -0.420431
v 0.070482 -0.115050 -0.368401
v 0.070415 -0.114943 -0.355393
v 0.073094 -0.113407 -0.264341
v 0.074626 -0.112319 -0.160281
v 0.074874 -0.112141 -0.147274
v 0.076252 -0.111275 -0.121259
v 0.075662 -0.111585 -0.134267
v 0.076265 -0.111157 -0.108252
v 0.071655 -0.114401 -0.316371
v 0.071549 -0.114230 -0.329378
v 0.138817 -0.179832 0.257995
v 0.078608 -0.108226 0.212311
v 0.141158 -0.177271 0.285759
v 0.135566 -0.181580 0.194328
v 0.146861 -0.173656 -0.061408
v 0.148179 -0.172558 -0.068128
v 0.150303 -0.170712 -0.074793
v 0.115970 -0.144843 -0.090501
v 0.120406 -0.147382 -0.134293
v 0.120406 -0.147382 -0.149664
v 0.120406 -0.147382 -0.165036
v 0.120406 -0.147382 -0.180407
v 0.120406 -0.147382 -0.195778
v 0.074031 -0.112742 -0.212311
v 0.120406 -0.147382 -0.211149
v 0.120406 -0.147382 -0.241892
v 0.120406 -0.147382 -0.257263
v 0.120406 -0.147382 -0.272634
v 0.120406 -0.147382 -0.288006
v 0.120406 -0.147382 -0.303377
v 0.120406 -0.147382 -0.349490
v 0.120406 -0.147382 -0.334119
v 0.120406 -0.147382 -0.364862
v 0.120406 -0.147382 -0.380233
v 0.120406 -0.147382 -0.395604
v 0.120406 -0.147382 -0.410975
v 0.120406 -0.147382 -0.426347
v 0.143757 -0.174947 -0.027838
v 0.145000 -0.174563 -0.039896
v 0.135368 -0.153077 -0.089184
v 0.146088 -0.174184 -0.051113
v 0.115384 -0.147261 -0.073362
v 0.120406 -0.147382 -0.226521
v 0.120406 -0.147382 -0.441718
v 0.103582 -0.135133 -0.472461
v 0.071824 -0.114308 -0.342386
v 0.120406 -0.147382 -0.318748
v 0.075342 -0.111957 -0.141534
v 0.141660 -0.176552 0.292630
v 0.147025 -0.172049 0.364809
v 0.146812 -0.172224 0.358660
v 0.137759 -0.161994 0.362694
v 0.146812 -0.172224 0.358660
v 0.085188 -0.104273 0.316371
v 0.115895 -0.137552 0.353852
v 0.142555 -0.175268 0.304939
v 0.144597 -0.173834 0.327233
v 0.070325 -0.112210 -0.001446
v 0.071466 -0.113530 0.025259
v 0.072292 -0.113011 -0.026369
v 0.070054 -0.112480 0.052171
v 0.071334 -0.113615 0.079046
v 0.087611 -0.129962 0.126081
v 0.070313 -0.112222 0.106112
v 0.073058 -0.112530 0.129263
v 0.073602 -0.109650 0.159331
v 0.078065 -0.109384 0.199660
v 0.080279 -0.106109 0.242861
v 0.134449 -0.182098 0.160419
v 0.134398 -0.182301 0.139001
v 0.134634 -0.181843 0.111625
v 0.135648 -0.181421 0.086762
v 0.136700 -0.180346 0.063857
v 0.138672 -0.179257 0.036989
v 0.140188 -0.177909 0.016917
v 0.142226 -0.176287 -0.008800
v 0.073342 -0.113231 -0.472461
v 0.084648 -0.121399 -0.472461
v 0.072926 -0.113365 -0.459453
v 0.147224 -0.162040 -0.087634
v 0.150730 -0.164626 -0.087294
v 0.125995 -0.154475 -0.075217
v 0.143382 -0.159202 -0.088100
v 0.154210 -0.167189 -0.086931
v 0.152184 -0.169042 -0.080797
v 0.139594 -0.156318 -0.088612
v 0.126540 -0.147825 -0.091832
v 0.122213 -0.145575 -0.094013
v 0.131068 -0.149873 -0.089874
v 0.120406 -0.147382 -0.457089
v 0.095797 -0.129477 -0.472461
v 0.120406 -0.147382 -0.103551
v 0.120866 -0.146923 -0.098614
v 0.114631 -0.144474 -0.094849
v 0.108317 -0.139961 -0.106423
v 0.120406 -0.147382 -0.118922
v 0.120406 -0.147382 -0.472461
v 0.108108 -0.138424 -0.472461
v 0.083202 -0.104155 0.290356
v 0.074045 -0.112732 -0.186296
v 0.074041 -0.112664 -0.199304
v 0.093024 -0.128979 -0.139382
v 0.074378 -0.112452 -0.173289
v 0.073574 -0.113066 -0.238326
v 0.104171 -0.140677 -0.280927
v 0.073852 -0.112783 -0.225319
v 0.073186 -0.113201 -0.251334
v 0.070693 -0.114933 -0.394416
v 0.090632 -0.132125 -0.376755
v 0.069855 -0.115295 -0.381408
v 0.070968 -0.114595 -0.407423
v 0.072148 -0.114078 -0.290356
v 0.071395 -0.114327 -0.303364
v 0.072595 -0.113573 -0.277349
v 0.072593 -0.113762 -0.446446
v 0.071899 -0.114010 -0.433438
v 0.074609 -0.112090 -0.081618
v 0.075709 -0.111523 -0.096582
v 0.071755 -0.111126 -0.054992
v 0.071562 -0.114453 -0.420431
v 0.070482 -0.115050 -0.368401
v 0.070415 -0.114943 -0.355393
v 0.073094 -0.113407 -0.264341
v 0.074626 -0.112319 -0.160281
v 0.074874 -0.112141 -0.147274
v 0.076252 -0.111275 -0.121259
v 0.075662 -0.111585 -0.134267
v 0.076265 -0.111157 -0.108252
v 0.071655 -0.114401 -0.316371
v 0.071549 -0.114230 -0.329378
v 0.138817 -0.179832 0.257995
v 0.141158 -0.177271 0.285759
v 0.078608 -0.108226 0.212311
v 0.135566 -0.181580 0.194328
v 0.146861 -0.173656 -0.061408
v 0.148179 -0.172558 -0.068128
v 0.150303 -0.170712 -0.074793
v 0.115970 -0.144843 -0.090501
v 0.120406 -0.147382 -0.134293
v 0.120406 -0.147382 -0.149664
v 0.120406 -0.147382 -0.165036
v 0.120406 -0.147382 -0.180407
v 0.074031 -0.112742 -0.212311
v 0.120406 -0.147382 -0.195778
v 0.120406 -0.147382 -0.211149
v 0.120406 -0.147382 -0.241892
v 0.120406 -0.147382 -0.257263
v 0.120406 -0.147382 -0.272634
v 0.120406 -0.147382 -0.288006
v 0.120406 -0.147382 -0.303377
v 0.120406 -0.147382 -0.349490
v 0.120406 -0.147382 -0.334119
v 0.120406 -0.147382 -0.364862
v 0.120406 -0.147382 -0.380233
v 0.120406 -0.147382 -0.395604
v 0.120406 -0.147382 -0.410975
v 0.120406 -0.147382 -0.426347
v 0.145000 -0.174563 -0.039896
v 0.143757 -0.174947 -0.027838
v 0.135368 -0.153077 -0.089184
v 0.146088 -0.174184 -0.051113
v 0.115384 -0.147261 -0.073362
v 0.120406 -0.147382 -0.226521
v 0.120406 -0.147382 -0.441718
v 0.103582 -0.135133 -0.472461
v 0.071824 -0.114308 -0.342386
v 0.120406 -0.147382 -0.318748
v 0.075342 -0.111957 -0.141534
v 0.141660 -0.176552 0.292630
v 0.142555 -0.175268 0.304939
v 0.144597 -0.173834 0.327233
v 0.070325 -0.112210 -0.001446
v 0.071466 -0.113530 0.025259
v 0.072292 -0.113011 -0.026369
v 0.070054 -0.112480 0.052171
v 0.071334 -0.113615 0.079046
v 0.087611 -0.129962 0.126081
v 0.070313 -0.112222 0.106112
v 0.073058 -0.112530 0.129263
v 0.073602 -0.109650 0.159331
v 0.078065 -0.109384 0.199660
v 0.080279 -0.106109 0.242861
v 0.134449 -0.182098 0.160419
v 0.134398 -0.182301 0.139001
v 0.134634 -0.181843 0.111625
v 0.135648 -0.181421 0.086762
v 0.136700 -0.180346 0.063857
v 0.138672 -0.179257 0.036989
v 0.140188 -0.177909 0.016917
v 0.142226 -0.176287 -0.008800
vn -0.5854 -0.8103 -0.0271
vn -0.5854 -0.8105 -0.0212
vn -0.5835 -0.8117 -0.0245
vn -0.5065 -0.7520 -0.4217
vn -0.5123 -0.7496 -0.4191
vn -0.5122 -0.7502 -0.4181
vn -0.5093 -0.7568 -0.4097
vn -0.5163 -0.7576 -0.3994
vn -0.5089 -0.7606 -0.4031
vn -0.5137 -0.7490 -0.4185
vn -0.5136 -0.7488 -0.4189
vn -0.5161 -0.7474 -0.4184
vn -0.2782 -0.8886 -0.3648
vn -0.2469 -0.8968 -0.3670
vn -0.5815 -0.8132 -0.0218
vn -0.5867 -0.8098 -0.0039
vn -0.5875 -0.8092 -0.0050
vn -0.5868 -0.8097 -0.0013
vn -0.3016 -0.9463 0.1161
vn -0.5130 -0.8567 -0.0542
vn -0.5232 -0.8522 0.0000
vn -0.5888 -0.8083 0.0000
vn -0.5886 -0.8084 -0.0011
vn -0.7772 -0.6272 0.0506
vn -0.7706 -0.6355 0.0475
vn -0.7716 -0.6341 0.0505
vn -0.7712 -0.6340 0.0585
vn -0.7782 -0.6257 0.0541
vn -0.6449 -0.7643 -0.0038
vn -0.6961 -0.7171 0.0333
vn -0.6453 -0.7634 0.0278
vn -0.6469 -0.7620 0.0295
vn -0.6460 -0.7627 0.0304
vn -0.6474 -0.7620 0.0182
vn -0.6199 -0.7823 -0.0617
vn -0.6355 -0.7714 -0.0335
vn -0.6309 -0.7751 -0.0342
vn -0.6324 -0.7737 -0.0371
vn -0.6471 -0.7606 0.0519
vn -0.6471 -0.7606 0.0520
vn -0.6471 -0.7607 0.0518
vn -0.5818 -0.8124 -0.0402
vn -0.5808 -0.8129 -0.0429
vn -0.5800 -0.8133 -0.0461
vn -0.5806 -0.8132 -0.0397
vn -0.8001 -0.5943 -0.0813
vn -0.7696 -0.6357 -0.0595
vn -0.5803 -0.8133 -0.0427
vn -0.6458 -0.7635 0.0030
vn -0.6349 -0.7713 0.0451
vn -0.6545 -0.7559 0.0166
vn -0.6487 -0.7603 0.0346
vn -0.6833 -0.7298 0.0225
vn -0.6841 -0.7291 0.0207
vn -0.6853 -0.7279 0.0230
vn -0.6838 -0.7294 0.0205
vn -0.6997 -0.7128 0.0487
vn -0.7224 -0.6915 0.0070
vn -0.6256 -0.7801 -0.0076
vn -0.6211 -0.7837 -0.0058
vn -0.6235 -0.7818 -0.0072
vn -0.6232 -0.7820 -0.0080
vn -0.7966 -0.5921 0.1218
vn -0.7818 -0.6210 0.0570
vn -0.5662 -0.7886 -0.2399
vn -0.5100 -0.7733 -0.3767
vn -0.5102 -0.7736 -0.3760
vn -0.5102 -0.7736 -0.3759
vn -0.5104 -0.7738 -0.3751
vn -0.1708 -0.9310 0.3227
vn -0.3043 -0.8832 -0.3569
vn -0.1391 -0.9894 -0.0411
vn -0.5578 -0.8300 0.0000
vn -0.5984 -0.8012 0.0000
vn -0.3817 -0.9243 0.0000
vn -0.4560 -0.8900 0.0000
vn -0.6404 -0.7628 -0.0898
vn -0.6389 -0.7642 -0.0882
vn -0.6394 -0.7636 -0.0902
vn -0.5155 -0.7465 -0.4207
vn -0.6423 -0.7615 -0.0873
vn -0.6417 -0.7620 -0.0874
vn -0.5583 -0.8247 0.0905
vn -0.5616 -0.8273 -0.0150
vn -0.5009 -0.7610 -0.4123
vn -0.5731 -0.8085 -0.1337
vn -0.3388 -0.9300 -0.1428
vn -0.6373 -0.7706 0.0024
vn -0.7750 -0.6035 0.1874
vn -0.6319 -0.7741 -0.0373
vn -0.5917 -0.8034 -0.0667
vn -0.7365 0.4608 0.4953
vn -0.7365 0.4608 0.4952
vn -0.7359 0.4617 0.4953
vn -0.5859 -0.8099 -0.0277
vn -0.6608 -0.7505 0.0050
vn -0.5880 -0.8088 -0.0015
vn -0.5793 -0.8087 0.1022
vn -0.5720 -0.8131 0.1085
vn -0.5628 -0.8266 0.0000
vn -0.6221 -0.7829 -0.0085
vn -0.4415 -0.7685 0.4631
vn -0.7748 -0.6296 -0.0567
vn -0.6971 -0.7138 0.0677
vn -0.6963 -0.7133 0.0796
vn -0.6960 -0.7137 0.0789
vn -0.6962 -0.7147 0.0672
vn -0.6655 -0.7463 0.0115
vn -0.7804 -0.6224 0.0604
vn -0.7402 -0.6610 0.1233
vn -0.7393 -0.6719 0.0447
vn 0.7393 0.6719 -0.0447
vn 0.7706 0.6355 -0.0476
vn 0.7699 0.6363 -0.0495
vn 0.7716 0.6341 -0.0505
vn 0.7697 0.6366 -0.0490
vn -0.7470 -0.6648 0.0095
vn 0.7470 0.6648 -0.0095
vn -0.7385 -0.6652 0.1104
vn -0.7280 -0.6745 0.1233
vn -0.7495 -0.6563 0.0864
vn -0.6152 -0.7882 -0.0127
vn -0.6247 -0.7805 -0.0242
vn -0.6008 -0.7994 -0.0003
vn -0.6327 -0.7734 -0.0391
vn -0.7126 -0.7016 0.0076
vn -0.7143 -0.6998 0.0052
vn -0.7189 -0.6951 0.0035
vn -0.7207 -0.6932 0.0085
vn -0.7578 -0.6474 0.0812
vn -0.7582 -0.6473 0.0785
vn -0.7586 -0.6465 0.0809
vn -0.7586 -0.6471 0.0757
vn -0.7477 -0.6583 0.0871
vn -0.7757 -0.6245 0.0905
vn -0.7774 -0.6246 0.0738
vn -0.9693 -0.2357 0.0694
vn -0.7547 -0.6551 0.0349
vn -0.7465 -0.6653 0.0081
vn -0.7433 -0.6688 -0.0176
vn -0.9849 0.1691 -0.0373
vn -0.6931 -0.7164 -0.0799
vn -0.6288 -0.7712 -0.0993
vn -0.6292 -0.7709 -0.0993
vn -0.6277 -0.7721 -0.0987
vn -0.6309 -0.7695 -0.0985
vn -0.6186 -0.7787 -0.1046
vn -0.7047 -0.7053 -0.0770
vn -0.7138 -0.7003 0.0039
vn -0.7472 -0.6625 -0.0531
vn -0.7789 -0.6223 0.0783
vn -0.5005 -0.8593 -0.1053
vn -0.7598 -0.6438 0.0904
vn 0.5854 0.8103 0.0271
vn 0.5065 0.7520 0.4218
vn 0.5153 0.7520 0.4110
vn 0.5123 0.7496 0.4191
vn 0.5159 0.7532 0.4082
vn 0.5163 0.7576 0.3994
vn 0.5089 0.7606 0.4031
vn 0.5137 0.7490 0.4185
vn 0.2782 0.8886 0.3648
vn 0.2469 0.8968 0.3670
vn 0.5815 0.8132 0.0218
vn 0.5867 0.8098 0.0039
vn 0.5869 0.8097 0.0031
vn 0.5875 0.8092 0.0050
vn 0.3016 0.9463 -0.1161
vn 0.5130 0.8567 0.0542
vn 0.5232 0.8522 0.0000
vn 0.5888 0.8083 0.0000
vn 0.7749 0.6295 -0.0563
vn 0.6449 0.7643 0.0038
vn 0.6961 0.7171 -0.0333
vn 0.6460 0.7627 -0.0304
vn 0.6485 0.7607 -0.0272
vn 0.6492 0.7602 -0.0268
vn 0.6474 0.7620 -0.0182
vn 0.6199 0.7823 0.0617
vn 0.6355 0.7714 0.0335
vn 0.6324 0.7737 0.0371
vn 0.6309 0.7751 0.0342
vn 0.6471 0.7606 -0.0519
vn 0.6471 0.7606 -0.0520
vn 0.6471 0.7607 -0.0518
vn 0.5818 0.8123 0.0401
vn 0.5800 0.8133 0.0461
vn 0.5808 0.8129 0.0429
vn 0.5806 0.8132 0.0397
vn 0.8001 0.5943 0.0813
vn 0.7696 0.6357 0.0595
vn 0.5803 0.8133 0.0427
vn 0.6458 0.7635 -0.0030
vn 0.6349 0.7713 -0.0451
vn 0.6545 0.7559 -0.0166
vn 0.6487 0.7603 -0.0346
vn 0.6833 0.7298 -0.0225
vn 0.6853 0.7279 -0.0230
vn 0.6841 0.7291 -0.0207
vn 0.6838 0.7294 -0.0205
vn 0.6997 0.7128 -0.0487
vn 0.7224 0.6915 -0.0070
vn 0.6256 0.7801 0.0076
vn 0.6235 0.7818 0.0072
vn 0.6211 0.7837 0.0058
vn 0.6232 0.7820 0.0080
vn 0.7966 0.5921 -0.1218
vn 0.7818 0.6210 -0.0570
vn 0.5662 0.7886 0.2399
vn 0.5100 0.7733 0.3767
vn 0.5102 0.7736 0.3759
vn 0.5102 0.7736 0.3760
vn 0.5104 0.7738 0.3751
vn 0.1708 0.9310 -0.3227
vn 0.3043 0.8832 0.3569
vn 0.1391 0.9894 0.0411
vn 0.5578 0.8300 0.0000
vn 0.5984 0.8012 0.0000
vn 0.3817 0.9243 0.0000
vn 0.4560 0.8900 0.0000
vn 0.6404 0.7628 0.0898
vn 0.6394 0.7636 0.0902
vn 0.6389 0.7642 0.0882
vn 0.5155 0.7465 0.4207
vn 0.6417 0.7620 0.0874
vn 0.6423 0.7615 0.0873
vn 0.5583 0.8247 -0.0905
vn 0.5616 0.8273 0.0150
vn 0.5009 0.7610 0.4123
vn 0.5731 0.8085 0.1337
vn 0.3388 0.9300 0.1428
vn 0.6373 0.7706 -0.0024
vn 0.7750 0.6035 -0.1874
vn 0.6319 0.7741 0.0373
vn 0.5917 0.8034 0.0667
vn 0.7365 -0.4608 -0.4953
vn 0.7359 -0.4617 -0.4953
vn 0.7365 -0.4608 -0.4952
vn 0.5859 0.8099 0.0277
vn 0.6608 0.7505 -0.0050
vn 0.5881 0.8088 0.0008
vn 0.5880 0.8088 0.0015
vn 0.5773 0.8102 -0.1014
vn 0.5778 0.8088 -0.1099
vn 0.5793 0.8087 -0.1022
vn 0.5720 0.8131 -0.1085
vn 0.5628 0.8266 0.0000
vn 0.6221 0.7829 0.0085
vn 0.4415 0.7685 -0.4631
vn 0.7748 0.6296 0.0567
vn 0.6971 0.7138 -0.0676
vn 0.6960 0.7137 -0.0789
vn 0.6963 0.7133 -0.0796
vn 0.6962 0.7147 -0.0672
vn 0.6655 0.7463 -0.0115
vn 0.7804 0.6224 -0.0604
vn 0.7402 0.6610 -0.1233
vn 0.7385 0.6652 -0.1104
vn 0.7280 0.6745 -0.1233
vn 0.7495 0.6563 -0.0864
vn 0.6152 0.7882 0.0127
vn 0.6247 0.7805 0.0242
vn 0.6008 0.7994 0.0003
vn 0.6327 0.7734 0.0391
vn 0.7126 0.7016 -0.0076
vn 0.7168 0.6972 -0.0040
vn 0.7151 0.6990 -0.0045
vn 0.7207 0.6932 -0.0085
vn 0.7578 0.6474 -0.0812
vn 0.7586 0.6465 -0.0809
vn 0.7582 0.6473 -0.0785
vn 0.7586 0.6471 -0.0757
vn 0.7477 0.6583 -0.0871
vn 0.7757 0.6245 -0.0905
vn 0.7774 0.6246 -0.0738
vn 0.9693 0.2357 -0.0694
vn 0.7547 0.6551 -0.0349
vn 0.7465 0.6653 -0.0081
vn 0.7433 0.6688 0.0176
vn 0.9849 -0.1691 0.0373
vn 0.6931 0.7164 0.0799
vn 0.6288 0.7712 0.0993
vn 0.6277 0.7721 0.0987
vn 0.6292 0.7709 0.0993
vn 0.6309 0.7695 0.0985
vn 0.6186 0.7787 0.1046
vn 0.7047 0.7053 0.0770
vn 0.7138 0.7003 -0.0039
vn 0.7472 0.6625 0.0531
vn 0.7789 0.6223 -0.0783
vn 0.5005 0.8593 0.1053
vn 0.7598 0.6438 -0.0904
usemtl None.141
s 1
f 1//1 3//2 2//3
f 4//4 6//5 5//6
f 4//4 5//6 7//7
f 6//8 9//8 8//8
f 6//9 8//9 5//9
f 7//10 5//11 10//12
f 11//13 5//13 12//13
f 11//14 13//14 5//14
f 3//2 14//15 2//3
f 3//16 15//17 14//18
f 16//19 18//19 17//19
f 16//20 17//20 19//20
f 16//21 19//21 20//21
f 21//22 14//18 22//23
f 23//24 25//25 24//26
f 23//24 26//27 25//25
f 23//24 27//28 26//27
f 28//29 30//29 29//29
f 28//30 29//30 31//30
f 32//31 34//32 33//33
f 32//31 35//34 34//32
f 36//35 38//35 37//35
f 36//36 39//37 38//38
f 40//39 41//40 34//39
f 40//39 34//39 42//41
f 43//42 14//43 44//44
f 43//42 2//45 14//43
f 45//46 46//46 29//46
f 45//47 29//47 47//47
f 48//48 44//44 14//43
f 49//49 38//49 50//49
f 49//50 37//50 38//50
f 51//51 34//32 35//34
f 51//52 42//52 34//52
f 52//53 29//54 53//55
f 52//53 31//56 29//54
f 54//57 55//57 29//57
f 54//58 29//58 56//58
f 57//59 58//60 34//61
f 57//59 34//61 41//62
f 59//63 61//63 60//63
f 59//64 60//64 62//64
f 63//65 5//65 64//65
f 64//66 5//67 65//68
f 8//69 65//68 5//67
f 18//70 12//70 17//70
f 12//71 5//71 66//71
f 12//72 66//72 17//72
f 20//21 19//21 67//21
f 67//21 19//21 68//21
f 69//73 68//73 29//73
f 69//73 29//73 70//73
f 70//74 72//74 71//74
f 71//74 72//74 73//74
f 74//75 34//75 75//75
f 75//75 34//75 76//75
f 76//75 34//75 77//75
f 77//75 34//75 78//75
f 79//76 80//76 38//76
f 79//76 38//76 81//76
f 81//76 38//76 82//76
f 82//76 38//76 83//76
f 83//76 38//76 84//76
f 84//76 38//76 85//76
f 5//77 87//78 86//79
f 10//12 5//11 88//80
f 5//77 63//81 89//82
f 5//77 89//82 87//78
f 72//83 34//83 74//83
f 68//84 19//84 29//84
f 5//85 13//85 88//85
f 66//86 5//86 90//86
f 90//87 29//87 66//87
f 90//88 47//88 29//88
f 17//89 66//89 19//89
f 48//90 38//38 39//37
f 48//91 14//91 38//91
f 66//92 29//93 19//94
f 91//74 72//74 74//74
f 91//74 73//74 72//74
f 29//95 72//95 70//95
f 29//96 30//96 72//96
f 92//76 85//76 38//76
f 92//76 38//76 14//76
f 14//18 93//97 22//23
f 14//18 15//17 93//97
f 94//98 50//98 38//98
f 80//99 94//99 38//99
f 80//100 95//100 94//100
f 58//60 94//101 34//61
f 90//102 5//102 47//102
f 29//103 46//103 56//103
f 96//104 53//105 29//106
f 96//104 29//106 55//107
f 33//108 34//108 72//108
f 61//109 26//27 27//28
f 61//110 97//110 26//110
f 98//111 100//111 99//111
f 98//112 101//112 100//112
f 25//113 102//114 24//115
f 25//113 26//116 102//114
f 100//117 103//117 99//117
f 100//118 101//118 103//118
f 104//119 105//119 103//119
f 104//120 103//120 97//120
f 99//121 103//121 105//121
f 106//122 5//122 107//122
f 106//123 108//123 5//123
f 107//124 5//124 109//124
f 108//125 47//125 5//125
f 110//126 109//127 111//128
f 110//126 111//128 112//129
f 112//130 111//131 113//132
f 113//132 111//131 114//133
f 114//134 111//134 115//134
f 115//135 62//135 60//135
f 115//136 111//136 62//136
f 116//137 60//137 27//137
f 117//138 62//138 111//138
f 117//139 111//139 118//139
f 119//140 118//140 111//140
f 120//141 119//141 121//141
f 122//142 121//142 5//142
f 122//143 5//144 123//145
f 123//145 5//144 124//146
f 86//147 124//147 5//147
f 5//148 121//148 109//148
f 121//149 111//128 109//127
f 111//150 121//150 119//150
f 60//151 61//151 27//151
f 78//152 34//152 94//152
f 78//100 94//100 95//100
f 26//153 97//153 103//153
f 125//154 127//154 126//154
f 128//155 130//156 129//157
f 128//155 131//158 130//156
f 129//159 133//159 132//159
f 129//160 130//160 133//160
f 131//158 134//161 130//156
f 135//162 136//162 130//162
f 135//163 130//163 137//163
f 126//164 127//164 138//164
f 126//165 138//166 139//167
f 140//168 142//168 141//168
f 140//169 143//169 142//169
f 140//170 144//170 143//170
f 145//171 146//171 138//171
f 102//172 26//172 147//172
f 148//173 150//173 149//173
f 148//174 151//174 150//174
f 152//175 154//175 153//175
f 152//176 153//177 155//178
f 156//179 158//179 157//179
f 156//180 157//181 159//182
f 160//183 153//183 161//184
f 160//183 162//185 153//183
f 163//186 164//187 138//188
f 163//186 138//188 127//189
f 165//190 150//190 166//190
f 165//191 167//191 150//191
f 168//192 138//188 164//187
f 169//193 170//193 157//193
f 169//194 157//194 158//194
f 171//195 155//178 153//177
f 171//196 153//196 162//196
f 172//197 173//198 150//199
f 172//197 150//199 151//200
f 174//201 150//201 175//201
f 174//202 176//202 150//202
f 177//203 153//204 178//205
f 177//203 161//206 153//204
f 179//207 181//207 180//207
f 179//208 182//208 181//208
f 183//209 184//209 130//209
f 184//210 185//211 130//212
f 133//213 130//212 185//211
f 141//214 142//214 136//214
f 136//215 186//215 130//215
f 136//216 142//216 186//216
f 144//170 187//170 143//170
f 187//170 188//170 143//170
f 189//217 150//217 188//217
f 189//217 190//217 150//217
f 190//218 192//218 191//218
f 192//218 193//218 191//218
f 194//219 195//219 153//219
f 195//219 196//219 153//219
f 196//219 197//219 153//219
f 197//219 198//219 153//219
f 199//220 157//220 200//220
f 199//220 201//220 157//220
f 201//220 202//220 157//220
f 202//220 203//220 157//220
f 203//220 204//220 157//220
f 204//220 205//220 157//220
f 130//221 207//222 206//223
f 134//224 208//224 130//224
f 130//221 209//225 183//226
f 130//221 206//223 209//225
f 191//227 194//227 153//227
f 188//228 150//228 143//228
f 130//229 208//229 137//229
f 186//230 210//230 130//230
f 210//231 186//231 150//231
f 210//232 150//232 167//232
f 142//233 143//233 186//233
f 168//234 159//182 157//181
f 168//235 157//235 138//235
f 186//236 143//237 150//238
f 211//218 194//218 191//218
f 211//218 191//218 193//218
f 150//239 190//239 191//239
f 150//240 191//240 149//240
f 212//220 157//220 205//220
f 212//220 138//220 157//220
f 138//166 146//241 213//242
f 138//166 213//242 139//167
f 214//243 157//244 170//245
f 200//246 157//244 214//243
f 200//247 214//247 215//247
f 178//205 153//204 214//248
f 210//249 167//249 130//249
f 150//250 176//250 166//250
f 216//251 150//252 173//253
f 216//251 175//254 150//252
f 154//255 191//255 153//255
f 180//256 147//256 26//256
f 180//257 26//257 217//257
f 218//258 103//258 219//258
f 218//259 217//259 103//259
f 101//260 219//260 103//260
f 220//261 221//261 130//261
f 220//262 130//262 222//262
f 221//263 223//263 130//263
f 222//264 130//264 167//264
f 224//265 225//266 223//267
f 224//265 226//268 225//266
f 226//269 227//270 225//271
f 227//270 228//272 225//271
f 228//273 229//273 225//273
f 229//274 181//274 182//274
f 229//275 182//275 225//275
f 230//276 147//276 181//276
f 231//277 225//277 182//277
f 231//278 232//278 225//278
f 233//279 225//279 232//279
f 234//280 235//280 233//280
f 236//281 130//281 235//281
f 236//282 237//283 130//284
f 237//283 238//285 130//284
f 207//286 130//286 238//286
f 130//287 223//287 235//287
f 235//288 223//288 225//288
f 225//289 233//289 235//289
f 181//290 147//290 180//290
f 198//291 214//291 153//291
f 198//247 215//247 214//247
f 26//292 103//292 217//292
