# Blender v2.79 (sub 0) OBJ File: ''
# www.blender.org
mtllib crack_restart_keyway_770.mtl
o crack_restart_keyway_770
v 0.073324 -0.113244 -0.472461
v 0.084630 -0.121410 -0.472461
v 0.072910 -0.113375 -0.459453
v 0.147222 -0.162041 -0.087636
v 0.152188 -0.169039 -0.080795
v 0.134422 -0.160633 -0.075720
v 0.150728 -0.164628 -0.087296
v 0.143382 -0.159202 -0.088100
v 0.154210 -0.167189 -0.086931
v 0.139597 -0.156316 -0.088610
v 0.126540 -0.147825 -0.091832
v 0.114631 -0.144474 -0.094849
v 0.122213 -0.145575 -0.094013
v 0.131068 -0.149873 -0.089874
v 0.090632 -0.132125 -0.376755
v 0.095784 -0.129487 -0.472461
v 0.120406 -0.147382 -0.103551
v 0.120866 -0.146923 -0.098614
v 0.120406 -0.147382 -0.118922
v 0.120406 -0.147382 -0.472461
v 0.120406 -0.147382 -0.457089
v 0.108101 -0.138430 -0.472461
v 0.085342 -0.103968 0.318480
v 0.146910 -0.172138 0.358575
v 0.086138 -0.100339 0.360114
v 0.074029 -0.112743 -0.186296
v 0.120406 -0.147382 -0.165036
v 0.074372 -0.112456 -0.173289
v 0.074005 -0.112687 -0.199304
v 0.073585 -0.113059 -0.238326
v 0.073193 -0.113197 -0.251334
v 0.073855 -0.112781 -0.225319
v 0.070671 -0.114945 -0.394416
v 0.069782 -0.115340 -0.381408
v 0.070969 -0.114594 -0.407423
v 0.072116 -0.114101 -0.290356
v 0.072566 -0.113591 -0.277349
v 0.071391 -0.114329 -0.303364
v 0.072576 -0.113775 -0.446446
v 0.071901 -0.114009 -0.433438
v 0.071824 -0.114308 -0.342386
v 0.070325 -0.114999 -0.355393
v 0.071554 -0.114227 -0.329378
v 0.071578 -0.114444 -0.420431
v 0.070391 -0.115100 -0.368401
v 0.073092 -0.113409 -0.264341
v 0.074528 -0.112389 -0.160281
v 0.074732 -0.112230 -0.147274
v 0.076192 -0.111313 -0.121259
v 0.075572 -0.111648 -0.134267
v 0.097274 -0.134146 -0.055464
v 0.075996 -0.111348 -0.108252
v 0.071656 -0.114401 -0.316371
v 0.074024 -0.112747 -0.212311
v 0.139330 -0.179500 0.257777
v 0.142379 -0.175424 0.305046
v 0.079911 -0.106384 0.243088
v 0.136955 -0.180613 0.195530
v 0.146883 -0.173637 -0.061405
v 0.148181 -0.172555 -0.068126
v 0.146196 -0.174096 -0.051193
v 0.150314 -0.170702 -0.074787
v 0.120406 -0.147382 -0.134293
v 0.120406 -0.147382 -0.149664
v 0.120406 -0.147382 -0.180407
v 0.120406 -0.147382 -0.195778
v 0.120406 -0.147382 -0.211149
v 0.120406 -0.147382 -0.226521
v 0.120406 -0.147382 -0.241892
v 0.120406 -0.147382 -0.257263
v 0.120406 -0.147382 -0.272634
v 0.120406 -0.147382 -0.288006
v 0.120406 -0.147382 -0.303377
v 0.120406 -0.147382 -0.318748
v 0.120406 -0.147382 -0.349490
v 0.120406 -0.147382 -0.334119
v 0.120406 -0.147382 -0.364862
v 0.120406 -0.147382 -0.380233
v 0.120406 -0.147382 -0.395604
v 0.120406 -0.147382 -0.410975
v 0.120406 -0.147382 -0.426347
v 0.120406 -0.147382 -0.441718
v 0.145685 -0.174350 -0.044755
v 0.144100 -0.174669 -0.027875
v 0.135373 -0.153074 -0.089179
v 0.126000 -0.154462 -0.075212
v 0.074627 -0.112075 -0.081618
v 0.075503 -0.111644 -0.096722
v 0.103586 -0.135150 -0.472461
v 0.075240 -0.112025 -0.141323
v 0.144438 -0.161476 0.437347
v 0.150891 -0.169066 0.429462
v 0.150855 -0.168551 0.440096
v 0.150891 -0.169066 0.429462
v 0.131383 -0.147691 0.431646
v 0.144113 -0.174233 0.325188
v 0.087325 -0.100188 0.386254
v 0.103389 -0.117304 0.412641
v 0.088290 -0.100664 0.401218
v 0.086241 -0.099567 0.368401
v 0.111768 -0.126337 0.418088
v 0.150376 -0.169309 0.406028
v 0.148829 -0.170505 0.382394
v 0.118358 -0.133759 0.423945
v 0.148829 -0.170505 0.382394
v 0.071566 -0.113467 0.025048
v 0.070432 -0.112159 -0.001446
v 0.139616 -0.178508 0.037889
v 0.070125 -0.112423 0.052171
v 0.072410 -0.112937 -0.026123
v 0.071835 -0.111062 -0.054992
v 0.071533 -0.113490 0.079466
v 0.087425 -0.128635 0.124999
v 0.070557 -0.112104 0.106113
v 0.073272 -0.112395 0.128819
v 0.073705 -0.109569 0.159331
v 0.077925 -0.109472 0.199370
v 0.136110 -0.180923 0.159419
v 0.078370 -0.108341 0.212311
v 0.142716 -0.175894 -0.008291
v 0.136114 -0.181068 0.140439
v 0.136326 -0.180602 0.110674
v 0.137121 -0.180313 0.088050
v 0.138037 -0.179318 0.063151
v 0.140996 -0.177260 0.016500
v 0.087325 -0.100188 0.386254
v 0.073324 -0.113244 -0.472461
v 0.072910 -0.113375 -0.459453
v 0.084630 -0.121410 -0.472461
v 0.147222 -0.162041 -0.087636
v 0.134422 -0.160633 -0.075720
v 0.152188 -0.169039 -0.080795
v 0.150728 -0.164628 -0.087296
v 0.143382 -0.159202 -0.088100
v 0.154210 -0.167189 -0.086931
v 0.139597 -0.156316 -0.088610
v 0.126540 -0.147825 -0.091832
v 0.122213 -0.145575 -0.094013
v 0.114631 -0.144474 -0.094849
v 0.131068 -0.149873 -0.089874
v 0.090632 -0.132125 -0.376755
v 0.095784 -0.129487 -0.472461
v 0.120406 -0.147382 -0.103551
v 0.120866 -0.146923 -0.098614
v 0.120406 -0.147382 -0.118922
v 0.120406 -0.147382 -0.472461
v 0.108101 -0.138430 -0.472461
v 0.120406 -0.147382 -0.457089
v 0.085342 -0.103968 0.318480
v 0.086138 -0.100339 0.360114
v 0.146910 -0.172138 0.358575
v 0.074029 -0.112743 -0.186296
v 0.074372 -0.112456 -0.173289
v 0.120406 -0.147382 -0.165036
v 0.074005 -0.112687 -0.199304
v 0.073585 -0.113059 -0.238326
v 0.073193 -0.113197 -0.251334
v 0.073855 -0.112781 -0.225319
v 0.070671 -0.114945 -0.394416
v 0.069782 -0.115340 -0.381408
v 0.070969 -0.114594 -0.407423
v 0.072116 -0.114101 -0.290356
v 0.072566 -0.113591 -0.277349
v 0.071391 -0.114329 -0.303364
v 0.072576 -0.113775 -0.446446
v 0.071901 -0.114009 -0.433438
v 0.071824 -0.114308 -0.342386
v 0.070325 -0.114999 -0.355393
v 0.071554 -0.114227 -0.329378
v 0.071578 -0.114444 -0.420431
v 0.070391 -0.115100 -0.368401
v 0.073092 -0.113409 -0.264341
v 0.074528 -0.112389 -0.160281
v 0.074732 -0.112230 -0.147274
v 0.076192 -0.111313 -0.121259
v 0.097274 -0.134146 -0.055464
v 0.075572 -0.111648 -0.134267
v 0.075996 -0.111348 -0.108252
v 0.071656 -0.114401 -0.316371
v 0.074024 -0.112747 -0.212311
v 0.139330 -0.179500 0.257777
v 0.142379 -0.175424 0.305046
v 0.079911 -0.106384 0.243088
v 0.136955 -0.180613 0.195530
v 0.146883 -0.173637 -0.061405
v 0.148181 -0.172555 -0.068126
v 0.146196 -0.174096 -0.051193
v 0.150314 -0.170702 -0.074787
v 0.120406 -0.147382 -0.134293
v 0.120406 -0.147382 -0.149664
v 0.120406 -0.147382 -0.180407
v 0.120406 -0.147382 -0.195778
v 0.120406 -0.147382 -0.211149
v 0.120406 -0.147382 -0.226521
v 0.120406 -0.147382 -0.241892
v 0.120406 -0.147382 -0.257263
v 0.120406 -0.147382 -0.272634
v 0.120406 -0.147382 -0.288006
v 0.120406 -0.147382 -0.303377
v 0.120406 -0.147382 -0.318748
v 0.120406 -0.147382 -0.349490
v 0.120406 -0.147382 -0.334119
v 0.120406 -0.147382 -0.364862
v 0.120406 -0.147382 -0.380233
v 0.120406 -0.147382 -0.395604
v 0.120406 -0.147382 -0.410975
v 0.120406 -0.147382 -0.426347
v 0.120406 -0.147382 -0.441718
v 0.144100 -0.174669 -0.027875
v 0.145685 -0.174350 -0.044755
v 0.135373 -0.153074 -0.089179
v 0.126000 -0.154462 -0.075212
v 0.075503 -0.111644 -0.096722
v 0.074627 -0.112075 -0.081618
v 0.103586 -0.135150 -0.472461
v 0.075240 -0.112025 -0.141323
v 0.144113 -0.174233 0.325188
v 0.086241 -0.099567 0.368401
v 0.150376 -0.169309 0.406028
v 0.071566 -0.113467 0.025048
v 0.139616 -0.178508 0.037889
v 0.070432 -0.112159 -0.001446
v 0.070125 -0.112423 0.052171
v 0.072410 -0.112937 -0.026123
v 0.071835 -0.111062 -0.054992
v 0.071533 -0.113490 0.079466
v 0.070557 -0.112104 0.106113
v 0.087425 -0.128635 0.124999
v 0.073272 -0.112395 0.128819
v 0.073705 -0.109569 0.159331
v 0.077925 -0.109472 0.199370
v 0.078370 -0.108341 0.212311
v 0.136110 -0.180923 0.159419
v 0.142716 -0.175894 -0.008291
v 0.136114 -0.181068 0.140439
v 0.136326 -0.180602 0.110674
v 0.137121 -0.180313 0.088050
v 0.138037 -0.179318 0.063151
v 0.140996 -0.177260 0.016500
vn 0.5853 0.8104 0.0268
vn 0.4836 0.7628 0.4293
vn 0.5198 0.7566 0.3966
vn 0.4968 0.7447 0.4456
vn 0.5032 0.7402 0.4460
vn 0.4979 0.7428 0.4476
vn 0.5159 0.7583 0.3986
vn 0.5038 0.7377 0.4493
vn 0.0281 0.7228 0.6905
vn 0.0292 0.7241 0.6891
vn 0.0288 0.7235 0.6898
vn 0.0286 0.7231 0.6901
vn 0.6028 0.7962 0.0513
vn 0.5857 0.8088 0.0538
vn 0.5866 0.8081 0.0538
vn 0.5861 0.8084 0.0538
vn 0.3016 0.9463 -0.1161
vn 0.4497 0.8932 0.0000
vn 0.5883 0.8086 0.0000
vn 0.7606 0.6453 -0.0708
vn 0.6079 0.7933 -0.0335
vn 0.6064 0.7947 -0.0280
vn 0.7660 0.6428 0.0014
vn 0.6227 0.7820 -0.0279
vn 0.6290 0.7769 -0.0294
vn 0.6381 0.7694 -0.0274
vn 0.6285 0.7773 -0.0297
vn 0.6167 0.7844 0.0660
vn 0.6338 0.7727 0.0354
vn 0.6312 0.7747 0.0382
vn 0.6300 0.7758 0.0360
vn 0.5619 0.8256 -0.0518
vn 0.5770 0.8154 -0.0465
vn 0.6187 0.7843 0.0462
vn 0.6150 0.7873 0.0426
vn 0.6193 0.7838 0.0460
vn 0.6320 0.7739 0.0400
vn 0.5713 0.8135 -0.1091
vn 0.6973 0.7167 0.0100
vn 0.6864 0.7272 0.0086
vn 0.6905 0.7233 0.0045
vn 0.6267 0.7781 0.0416
vn 0.6309 0.7749 0.0385
vn 0.6430 0.7658 -0.0027
vn 0.6324 0.7734 -0.0439
vn 0.6757 0.7369 -0.0173
vn 0.6047 0.7963 -0.0117
vn 0.6051 0.7959 -0.0192
vn 0.6054 0.7958 -0.0152
vn 0.6057 0.7956 -0.0114
vn 0.8059 0.5896 -0.0536
vn 0.7162 0.6978 0.0127
vn 0.6898 0.7240 0.0043
vn 0.7508 0.6605 -0.0019
vn 0.7513 0.6600 -0.0020
vn 0.7513 0.6600 -0.0019
vn 0.7109 0.7032 -0.0111
vn 0.7677 0.6323 -0.1040
vn 0.7677 0.6323 -0.1039
vn 0.7677 0.6323 -0.1038
vn 0.7812 0.6196 -0.0761
vn 0.7794 0.6252 -0.0409
vn 0.5587 0.7951 0.2359
vn 0.6753 0.7334 0.0784
vn 0.4805 0.7930 0.3745
vn 0.4811 0.7938 0.3722
vn 0.4814 0.7945 0.3703
vn 0.4816 0.7944 0.3701
vn 0.1708 0.9310 -0.3227
vn 0.4966 0.8680 0.0000
vn 0.4560 0.8900 0.0000
vn 0.6261 0.7757 0.0791
vn 0.6275 0.7752 0.0736
vn 0.6272 0.7748 0.0801
vn 0.5050 0.7368 0.4495
vn 0.5920 0.8053 0.0327
vn 0.6262 0.7755 0.0803
vn 0.6207 0.7737 0.1267
vn 0.6021 0.7964 0.0565
vn 0.1937 0.9152 0.3534
vn 0.5534 0.7210 0.4170
vn 0.6605 0.7484 0.0597
vn 0.4831 0.7484 0.4545
vn 0.6999 0.7142 0.0103
vn 0.5220 0.8520 0.0392
vn 0.5869 0.8079 0.0539
vn 0.5867 0.8080 0.0539
vn 0.6182 0.7852 0.0357
vn 0.6727 0.7384 0.0477
vn 0.6128 0.7894 -0.0358
vn 0.5754 0.8169 0.0393
vn 0.8591 0.5037 -0.0907
vn 0.8274 0.5574 -0.0687
vn 0.7461 0.6652 -0.0297
vn -0.7461 -0.6652 0.0297
vn 0.7352 0.6760 -0.0490
vn -0.7352 -0.6760 0.0490
vn 0.7678 0.6322 -0.1040
vn 0.7678 0.6323 -0.1038
vn 0.7495 0.6614 -0.0273
vn 0.9349 0.3521 -0.0445
vn 0.9349 0.3521 -0.0444
vn 0.9344 0.3534 -0.0445
vn 0.7357 0.6773 -0.0086
vn 0.7372 0.6752 -0.0232
vn 0.6987 0.7107 -0.0817
vn 0.7457 0.6580 -0.1052
vn 0.7424 0.6683 -0.0466
vn 0.7566 0.6535 -0.0231
vn 0.7513 0.6591 -0.0355
vn -0.7424 -0.6683 0.0466
vn -0.7566 -0.6535 0.0231
vn 0.6905 0.7233 0.0085
vn 0.6906 0.7232 0.0070
vn 0.6903 0.7235 0.0062
vn 0.6895 0.7243 0.0032
vn 0.6681 0.7433 0.0338
vn 0.6722 0.7397 0.0317
vn 0.6715 0.7398 0.0421
vn 0.6691 0.7426 0.0302
vn 0.6718 0.7395 0.0423
vn 0.7007 0.7134 -0.0104
vn 0.7061 0.7080 -0.0110
vn 0.7036 0.7106 -0.0080
vn 0.7024 0.7117 -0.0084
vn 0.7420 0.6655 -0.0802
vn 0.7434 0.6641 -0.0798
vn 0.7420 0.6666 -0.0714
vn 0.7432 0.6652 -0.0721
vn 0.7494 0.6571 -0.0810
vn 0.7513 0.6548 -0.0826
vn 0.7498 0.6565 -0.0823
vn 0.7503 0.6561 -0.0807
vn 0.7512 0.6553 -0.0793
vn 0.7623 0.6461 -0.0383
vn 0.6198 0.7793 0.0925
vn 0.6248 0.7761 0.0856
vn 0.6247 0.7755 0.0916
vn 0.7527 0.6583 -0.0049
vn 0.7304 0.6829 0.0159
vn 0.7326 0.6798 0.0344
vn 0.7388 0.6718 0.0540
vn 0.6247 0.7761 0.0860
vn 0.6246 0.7763 0.0856
vn 0.6798 0.7323 0.0397
vn 0.7462 0.6623 0.0679
vn 0.6889 0.7249 -0.0023
vn 0.7853 0.6187 -0.0237
vn 0.7415 0.6668 -0.0740
vn -0.7495 -0.6614 0.0273
vn -0.7357 -0.6773 0.0086
vn -0.5853 -0.8104 -0.0268
vn -0.4836 -0.7628 -0.4293
vn -0.5198 -0.7566 -0.3966
vn -0.5172 -0.7588 -0.3959
vn -0.5194 -0.7565 -0.3975
vn -0.4968 -0.7447 -0.4456
vn -0.4979 -0.7428 -0.4476
vn -0.5032 -0.7402 -0.4460
vn -0.5159 -0.7583 -0.3986
vn -0.5038 -0.7377 -0.4493
vn -0.0281 -0.7228 -0.6905
vn -0.0288 -0.7235 -0.6898
vn -0.0292 -0.7241 -0.6891
vn -0.0286 -0.7231 -0.6901
vn -0.6028 -0.7962 -0.0513
vn -0.5857 -0.8088 -0.0538
vn -0.5861 -0.8084 -0.0538
vn -0.5869 -0.8079 -0.0538
vn -0.3016 -0.9463 0.1161
vn -0.4497 -0.8932 0.0000
vn -0.5883 -0.8086 0.0000
vn -0.7606 -0.6453 0.0708
vn -0.6064 -0.7945 0.0331
vn -0.6092 -0.7924 0.0302
vn -0.6079 -0.7933 0.0335
vn -0.6064 -0.7947 0.0280
vn -0.7660 -0.6428 -0.0014
vn -0.6227 -0.7820 0.0279
vn -0.6381 -0.7694 0.0274
vn -0.6290 -0.7769 0.0294
vn -0.6285 -0.7773 0.0297
vn -0.6167 -0.7844 -0.0660
vn -0.6338 -0.7727 -0.0354
vn -0.6300 -0.7758 -0.0360
vn -0.6288 -0.7765 -0.0408
vn -0.5619 -0.8256 0.0518
vn -0.5770 -0.8154 0.0465
vn -0.6187 -0.7843 -0.0462
vn -0.6320 -0.7739 -0.0400
vn -0.5713 -0.8135 0.1091
vn -0.6973 -0.7167 -0.0100
vn -0.6905 -0.7233 -0.0045
vn -0.6864 -0.7272 -0.0086
vn -0.6251 -0.7796 -0.0391
vn -0.6267 -0.7781 -0.0416
vn -0.6430 -0.7658 0.0027
vn -0.6324 -0.7734 0.0439
vn -0.6757 -0.7369 0.0173
vn -0.6047 -0.7963 0.0116
vn -0.6054 -0.7958 0.0152
vn -0.6051 -0.7959 0.0192
vn -0.6057 -0.7956 0.0114
vn -0.8059 -0.5896 0.0536
vn -0.7162 -0.6978 -0.0127
vn -0.6898 -0.7240 -0.0043
vn -0.7508 -0.6605 0.0019
vn -0.7513 -0.6600 0.0019
vn -0.7513 -0.6600 0.0020
vn -0.7109 -0.7032 0.0111
vn -0.7677 -0.6323 0.1040
vn -0.7677 -0.6323 0.1038
vn -0.7677 -0.6323 0.1039
vn -0.7812 -0.6196 0.0761
vn -0.7794 -0.6252 0.0409
vn -0.5587 -0.7951 -0.2359
vn -0.6753 -0.7334 -0.0784
vn -0.4805 -0.7930 -0.3745
vn -0.4814 -0.7945 -0.3703
vn -0.4811 -0.7938 -0.3722
vn -0.4816 -0.7944 -0.3701
vn -0.1708 -0.9310 0.3227
vn -0.4966 -0.8680 0.0000
vn -0.4560 -0.8900 0.0000
vn -0.6261 -0.7757 -0.0791
vn -0.6272 -0.7747 -0.0801
vn -0.6275 -0.7752 -0.0736
vn -0.5050 -0.7368 -0.4495
vn -0.5920 -0.8053 -0.0327
vn -0.6262 -0.7755 -0.0803
vn -0.6207 -0.7737 -0.1267
vn -0.6021 -0.7964 -0.0565
vn -0.1937 -0.9152 -0.3534
vn -0.5534 -0.7210 -0.4170
vn -0.6605 -0.7484 -0.0597
vn -0.4831 -0.7484 -0.4545
vn -0.6999 -0.7142 -0.0103
vn -0.5220 -0.8520 -0.0392
vn -0.5869 -0.8079 -0.0539
vn -0.5867 -0.8080 -0.0539
vn -0.6182 -0.7852 -0.0357
vn -0.6727 -0.7384 -0.0477
vn -0.6128 -0.7894 0.0358
vn -0.5754 -0.8169 -0.0393
vn -0.8591 -0.5037 0.0907
vn -0.8274 -0.5574 0.0687
vn -0.7678 -0.6322 0.1040
vn -0.7678 -0.6323 0.1038
vn -0.9349 -0.3521 0.0445
vn -0.9344 -0.3534 0.0445
vn -0.9349 -0.3521 0.0444
vn -0.7372 -0.6752 0.0232
vn -0.6987 -0.7107 0.0817
vn -0.7457 -0.6580 0.1052
vn -0.7513 -0.6591 0.0355
vn -0.6905 -0.7233 -0.0085
vn -0.6903 -0.7235 -0.0062
vn -0.6902 -0.7236 -0.0076
vn -0.6900 -0.7237 -0.0088
vn -0.6681 -0.7433 -0.0338
vn -0.6715 -0.7398 -0.0422
vn -0.6722 -0.7397 -0.0316
vn -0.6691 -0.7426 -0.0302
vn -0.6718 -0.7395 -0.0423
vn -0.7007 -0.7134 0.0104
vn -0.7036 -0.7106 0.0080
vn -0.7061 -0.7080 0.0110
vn -0.7024 -0.7117 0.0084
vn -0.7420 -0.6655 0.0802
vn -0.7420 -0.6666 0.0714
vn -0.7434 -0.6641 0.0797
vn -0.7432 -0.6652 0.0721
vn -0.7494 -0.6571 0.0810
vn -0.7498 -0.6565 0.0823
vn -0.7513 -0.6548 0.0826
vn -0.7503 -0.6561 0.0807
vn -0.7512 -0.6553 0.0793
vn -0.7623 -0.6461 0.0383
vn -0.6198 -0.7793 -0.0925
vn -0.6247 -0.7755 -0.0916
vn -0.6248 -0.7761 -0.0856
vn -0.7527 -0.6583 0.0049
vn -0.7304 -0.6829 -0.0159
vn -0.7326 -0.6798 -0.0344
vn -0.7388 -0.6718 -0.0540
vn -0.6247 -0.7761 -0.0860
vn -0.6246 -0.7763 -0.0856
vn -0.6798 -0.7323 -0.0397
vn -0.7462 -0.6623 -0.0679
vn -0.6889 -0.7249 0.0023
vn -0.7853 -0.6187 0.0237
vn -0.7415 -0.6668 0.0740
usemtl None.150
s 1
f 1//1 3//1 2//1
f 4//2 6//2 5//2
f 4//3 5//3 7//3
f 4//4 8//5 6//6
f 7//7 5//7 9//7
f 8//5 10//8 6//6
f 11//9 13//10 12//11
f 11//9 12//11 14//12
f 2//13 3//13 15//13
f 2//14 15//15 16//16
f 17//17 12//17 18//17
f 17//18 19//18 12//18
f 20//19 22//19 21//19
f 23//20 25//20 24//20
f 26//21 28//21 27//21
f 26//22 27//22 15//22
f 26//23 15//23 29//23
f 30//24 15//25 31//26
f 30//24 32//27 15//25
f 33//28 34//28 15//28
f 33//29 15//30 35//31
f 36//32 37//32 15//32
f 36//33 15//33 38//33
f 39//34 40//35 15//36
f 39//37 15//37 3//37
f 41//38 15//38 42//38
f 41//39 43//40 15//41
f 44//42 15//36 40//35
f 44//43 35//31 15//30
f 45//44 42//44 15//44
f 45//45 15//45 34//45
f 46//46 31//46 15//46
f 47//47 48//48 27//49
f 47//47 27//49 28//50
f 49//51 51//51 50//51
f 49//52 52//52 51//52
f 53//53 15//41 43//40
f 54//54 29//55 15//56
f 54//57 15//57 32//57
f 55//58 23//59 56//60
f 55//61 57//61 23//61
f 55//62 58//62 57//62
f 59//63 60//63 6//63
f 59//64 6//64 61//64
f 60//65 62//66 6//67
f 62//66 5//68 6//67
f 18//69 12//69 13//69
f 19//70 63//70 51//70
f 63//70 64//70 51//70
f 27//71 65//71 15//71
f 65//71 66//71 15//71
f 66//71 67//71 15//71
f 68//71 69//71 15//71
f 69//71 70//71 15//71
f 70//71 71//71 15//71
f 71//71 72//71 15//71
f 73//71 74//71 15//71
f 73//71 15//71 72//71
f 75//71 15//71 76//71
f 75//71 77//71 15//71
f 77//71 78//71 15//71
f 78//71 79//71 15//71
f 79//71 80//71 15//71
f 80//71 81//71 15//71
f 81//71 82//71 15//71
f 21//19 22//19 82//19
f 51//72 84//73 83//74
f 10//8 85//75 6//6
f 51//76 6//76 86//76
f 51//72 83//74 61//77
f 51//78 61//78 6//78
f 51//79 86//79 12//79
f 14//80 12//80 86//80
f 14//81 86//81 6//81
f 51//82 88//82 87//82
f 6//83 85//83 14//83
f 53//84 38//84 15//84
f 68//71 15//71 67//71
f 82//85 22//85 15//85
f 22//86 89//87 15//15
f 15//15 89//87 16//16
f 51//88 27//88 48//88
f 51//70 64//70 27//70
f 76//71 15//71 74//71
f 51//89 52//89 88//89
f 15//90 37//90 46//90
f 51//91 12//91 19//91
f 90//92 51//92 48//92
f 90//93 50//93 51//93
f 91//94 93//94 92//94
f 91//95 94//95 93//95
f 91//96 92//96 95//96
f 91//97 95//97 94//97
f 24//98 96//99 23//59
f 97//100 99//100 98//100
f 97//101 25//102 100//103
f 97//104 98//104 101//104
f 102//105 95//105 92//105
f 102//106 103//106 95//106
f 103//107 24//107 97//107
f 103//108 104//108 95//108
f 103//109 101//109 104//109
f 103//110 97//110 101//110
f 104//111 105//111 95//111
f 104//112 101//112 105//112
f 106//113 108//114 107//115
f 106//113 109//116 108//114
f 110//117 51//118 111//119
f 110//117 107//120 51//118
f 111//119 51//118 87//121
f 112//122 114//123 113//124
f 112//122 113//124 109//125
f 114//126 115//127 113//128
f 115//127 116//129 113//128
f 117//130 119//131 118//132
f 117//130 118//132 116//133
f 119//131 57//134 118//132
f 24//135 25//135 97//135
f 84//136 51//137 120//138
f 56//60 23//59 96//99
f 118//139 121//139 116//139
f 122//140 113//140 121//140
f 122//141 123//141 113//141
f 123//142 124//142 113//142
f 125//143 120//138 51//137
f 125//143 51//137 108//144
f 51//145 107//145 108//145
f 108//146 113//146 124//146
f 108//114 109//116 113//147
f 118//148 57//148 58//148
f 116//129 121//149 113//128
f 98//150 99//150 126//150
f 98//151 126//151 101//151
f 127//152 129//152 128//152
f 130//153 132//153 131//153
f 130//154 133//155 132//156
f 130//157 131//158 134//159
f 133//155 135//160 132//156
f 134//159 131//158 136//161
f 137//162 139//163 138//164
f 137//162 140//165 139//163
f 129//166 141//166 128//166
f 129//167 142//168 141//169
f 143//170 144//170 139//170
f 143//171 139//171 145//171
f 146//172 148//172 147//172
f 149//173 151//173 150//173
f 152//174 154//175 153//176
f 152//174 141//177 154//175
f 152//178 155//178 141//178
f 156//179 157//180 141//181
f 156//179 141//181 158//182
f 159//183 141//183 160//183
f 159//184 161//185 141//186
f 162//187 141//187 163//187
f 162//188 164//188 141//188
f 165//189 141//189 166//189
f 165//190 128//190 141//190
f 167//191 168//191 141//191
f 167//192 141//193 169//194
f 170//195 166//196 141//186
f 170//195 141//186 161//185
f 171//197 141//197 168//197
f 171//198 160//198 141//198
f 172//199 141//199 157//199
f 173//200 154//201 174//202
f 173//200 153//203 154//201
f 175//204 177//204 176//204
f 175//205 176//205 178//205
f 179//206 169//194 141//193
f 180//207 141//208 155//209
f 180//210 158//210 141//210
f 181//211 182//212 149//213
f 181//214 149//214 183//214
f 181//215 183//215 184//215
f 185//216 131//216 186//216
f 185//217 187//217 131//217
f 186//218 131//219 188//220
f 188//220 131//219 132//221
f 144//222 138//222 139//222
f 145//223 176//223 189//223
f 189//223 176//223 190//223
f 154//224 141//224 191//224
f 191//224 141//224 192//224
f 192//224 141//224 193//224
f 194//224 141//224 195//224
f 195//224 141//224 196//224
f 196//224 141//224 197//224
f 197//224 141//224 198//224
f 199//224 141//224 200//224
f 199//224 198//224 141//224
f 201//224 202//224 141//224
f 201//224 141//224 203//224
f 203//224 141//224 204//224
f 204//224 141//224 205//224
f 205//224 141//224 206//224
f 206//224 141//224 207//224
f 207//224 141//224 208//224
f 148//172 208//172 147//172
f 176//225 210//226 209//227
f 136//161 131//158 211//228
f 176//229 212//229 131//229
f 176//225 187//230 210//226
f 176//231 131//231 187//231
f 176//232 139//232 212//232
f 140//233 212//233 139//233
f 140//234 131//234 212//234
f 176//235 214//235 213//235
f 131//236 140//236 211//236
f 179//237 141//237 164//237
f 194//224 193//224 141//224
f 208//238 141//238 147//238
f 147//239 141//169 215//240
f 141//169 142//168 215//240
f 176//241 174//241 154//241
f 176//223 154//223 190//223
f 202//224 200//224 141//224
f 176//242 213//242 178//242
f 141//243 172//243 163//243
f 176//244 145//244 139//244
f 216//245 174//245 176//245
f 216//246 176//246 177//246
f 151//247 149//213 217//248
f 126//249 218//250 150//251
f 219//252 94//252 95//252
f 219//253 95//253 105//253
f 105//254 126//254 151//254
f 105//255 101//255 126//255
f 220//256 222//257 221//258
f 220//256 221//258 223//259
f 224//260 225//261 176//262
f 224//260 176//262 222//263
f 225//261 214//264 176//262
f 226//265 228//266 227//267
f 226//265 223//268 228//266
f 227//269 228//270 229//271
f 229//271 228//270 230//272
f 231//273 233//274 232//275
f 231//273 230//276 233//274
f 232//275 233//274 183//277
f 151//278 126//278 150//278
f 209//279 234//280 176//281
f 182//212 217//248 149//213
f 233//282 230//282 235//282
f 236//283 235//283 228//283
f 236//284 228//284 237//284
f 237//285 228//285 238//285
f 239//286 176//281 234//280
f 239//286 221//287 176//281
f 176//288 221//288 222//288
f 221//289 238//289 228//289
f 221//290 228//290 223//290
f 233//291 184//291 183//291
f 230//272 228//270 235//292
