# Blender v2.79 (sub 0) OBJ File: ''
# www.blender.org
mtllib crack_restart_keyway_410.mtl
o crack_restart_keyway_410
v 0.073540 -0.113090 -0.472461
v 0.084905 -0.121237 -0.472461
v 0.072986 -0.113327 -0.459453
v 0.147219 -0.162043 -0.087639
v 0.150802 -0.164560 -0.087231
v 0.152216 -0.169013 -0.080779
v 0.143329 -0.159233 -0.088151
v 0.154210 -0.167189 -0.086931
v 0.139532 -0.156357 -0.088661
v 0.120406 -0.147382 -0.103551
v 0.102258 -0.136663 -0.100587
v 0.120406 -0.147382 -0.118922
v 0.120866 -0.146923 -0.098614
v 0.120406 -0.147382 -0.472461
v 0.120406 -0.147382 -0.457089
v 0.108292 -0.138278 -0.472461
v 0.073527 -0.113099 -0.238326
v 0.073109 -0.113250 -0.251334
v 0.104135 -0.140738 -0.280917
v 0.073877 -0.112767 -0.225319
v 0.072493 -0.113833 -0.290356
v 0.082565 -0.122653 -0.297572
v 0.072711 -0.113500 -0.277349
v 0.071618 -0.114422 -0.316371
v 0.072664 -0.113712 -0.446446
v 0.071847 -0.114043 -0.433438
v 0.071416 -0.114533 -0.342386
v 0.070584 -0.114837 -0.355393
v 0.071408 -0.114319 -0.329378
v 0.071414 -0.114534 -0.420431
v 0.070907 -0.114633 -0.407423
v 0.070842 -0.114851 -0.368401
v 0.070276 -0.115030 -0.381408
v 0.090632 -0.132125 -0.376755
v 0.072966 -0.113498 -0.264341
v 0.076514 -0.111111 -0.121259
v 0.075545 -0.111668 -0.134267
v 0.078408 -0.109872 -0.094934
v 0.077565 -0.110234 -0.108252
v 0.146530 -0.173946 -0.061449
v 0.148181 -0.172556 -0.068127
v 0.149937 -0.171031 -0.074994
v 0.122213 -0.145575 -0.094013
v 0.114610 -0.144510 -0.094834
v 0.106560 -0.141735 -0.120726
v 0.120406 -0.147382 -0.134293
v 0.120406 -0.147382 -0.149664
v 0.120406 -0.147382 -0.165036
v 0.120406 -0.147382 -0.180407
v 0.120406 -0.147382 -0.211149
v 0.120406 -0.147382 -0.226521
v 0.120406 -0.147382 -0.195778
v 0.120406 -0.147382 -0.241892
v 0.120406 -0.147382 -0.257263
v 0.120406 -0.147382 -0.272634
v 0.120406 -0.147382 -0.288006
v 0.120406 -0.147382 -0.303377
v 0.120406 -0.147382 -0.318748
v 0.120406 -0.147382 -0.334119
v 0.120406 -0.147382 -0.349490
v 0.120406 -0.147382 -0.364862
v 0.120406 -0.147382 -0.380233
v 0.120406 -0.147382 -0.395604
v 0.120406 -0.147382 -0.410975
v 0.120406 -0.147382 -0.426347
v 0.120406 -0.147382 -0.441718
v 0.096042 -0.129282 -0.472461
v 0.124813 -0.152719 -0.079201
v 0.135308 -0.153114 -0.089235
v 0.119551 -0.149545 -0.078477
v 0.126601 -0.147764 -0.091747
v 0.131068 -0.149873 -0.089874
v 0.108089 -0.142032 -0.074645
v 0.074682 -0.112261 -0.173289
v 0.074370 -0.112529 -0.184895
v 0.074270 -0.112673 -0.191349
v 0.073972 -0.112708 -0.199304
v 0.074901 -0.112252 -0.166638
v 0.103490 -0.134740 -0.472461
v 0.087877 -0.130110 -0.059872
v 0.094132 -0.137031 -0.053987
v 0.070761 -0.114896 -0.394416
v 0.075346 -0.111955 -0.141542
v 0.075025 -0.112046 -0.147274
v 0.074119 -0.112775 -0.217051
v 0.077143 -0.115393 -0.073318
v 0.077364 -0.110313 -0.088518
v 0.076009 -0.110973 -0.081619
v 0.074558 -0.111537 -0.076737
v 0.115227 -0.156614 -0.039181
v 0.143012 -0.176660 -0.048652
v 0.128143 -0.167632 -0.032354
v 0.142104 -0.177223 -0.043360
v 0.144229 -0.175801 -0.052965
v 0.140693 -0.177865 -0.035867
v 0.139779 -0.178284 -0.029604
v 0.075053 -0.112151 -0.153612
v 0.074930 -0.112104 -0.160281
v 0.074153 -0.112752 -0.207500
v 0.074137 -0.112667 -0.212311
v 0.140693 -0.177865 -0.035867
v 0.076009 -0.110973 -0.081619
v 0.073540 -0.113090 -0.472461
v 0.072986 -0.113327 -0.459453
v 0.084905 -0.121237 -0.472461
v 0.147219 -0.162043 -0.087639
v 0.152216 -0.169013 -0.080779
v 0.150802 -0.164560 -0.087231
v 0.143329 -0.159233 -0.088151
v 0.154210 -0.167189 -0.086931
v 0.139532 -0.156357 -0.088661
v 0.120406 -0.147382 -0.103551
v 0.120406 -0.147382 -0.118922
v 0.102258 -0.136663 -0.100587
v 0.120866 -0.146923 -0.098614
v 0.120406 -0.147382 -0.472461
v 0.108292 -0.138278 -0.472461
v 0.120406 -0.147382 -0.457089
v 0.073527 -0.113099 -0.238326
v 0.104135 -0.140738 -0.280917
v 0.073109 -0.113250 -0.251334
v 0.073877 -0.112767 -0.225319
v 0.072493 -0.113833 -0.290356
v 0.072711 -0.113500 -0.277349
v 0.082565 -0.122653 -0.297572
v 0.071618 -0.114422 -0.316371
v 0.072664 -0.113712 -0.446446
v 0.071847 -0.114043 -0.433438
v 0.071416 -0.114533 -0.342386
v 0.070584 -0.114837 -0.355393
v 0.071408 -0.114319 -0.329378
v 0.071414 -0.114534 -0.420431
v 0.070907 -0.114633 -0.407423
v 0.070842 -0.114851 -0.368401
v 0.090632 -0.132125 -0.376755
v 0.070276 -0.115030 -0.381408
v 0.072966 -0.113498 -0.264341
v 0.076514 -0.111111 -0.121259
v 0.075545 -0.111668 -0.134267
v 0.078408 -0.109872 -0.094934
v 0.077565 -0.110234 -0.108252
v 0.146530 -0.173946 -0.061449
v 0.148181 -0.172556 -0.068127
v 0.149937 -0.171031 -0.074994
v 0.114610 -0.144510 -0.094834
v 0.122213 -0.145575 -0.094013
v 0.120406 -0.147382 -0.134293
v 0.106560 -0.141735 -0.120726
v 0.120406 -0.147382 -0.149664
v 0.120406 -0.147382 -0.165036
v 0.120406 -0.147382 -0.180407
v 0.120406 -0.147382 -0.211149
v 0.120406 -0.147382 -0.226521
v 0.120406 -0.147382 -0.195778
v 0.120406 -0.147382 -0.241892
v 0.120406 -0.147382 -0.257263
v 0.120406 -0.147382 -0.272634
v 0.120406 -0.147382 -0.288006
v 0.120406 -0.147382 -0.303377
v 0.120406 -0.147382 -0.318748
v 0.120406 -0.147382 -0.334119
v 0.120406 -0.147382 -0.349490
v 0.120406 -0.147382 -0.364862
v 0.120406 -0.147382 -0.380233
v 0.120406 -0.147382 -0.395604
v 0.120406 -0.147382 -0.410975
v 0.120406 -0.147382 -0.426347
v 0.120406 -0.147382 -0.441718
v 0.096042 -0.129282 -0.472461
v 0.135308 -0.153114 -0.089235
v 0.124813 -0.152719 -0.079201
v 0.126601 -0.147764 -0.091747
v 0.119551 -0.149545 -0.078477
v 0.131068 -0.149873 -0.089874
v 0.108089 -0.142032 -0.074645
v 0.074370 -0.112529 -0.184895
v 0.074682 -0.112261 -0.173289
v 0.073972 -0.112708 -0.199304
v 0.074270 -0.112673 -0.191349
v 0.074901 -0.112252 -0.166638
v 0.103490 -0.134740 -0.472461
v 0.070761 -0.114896 -0.394416
v 0.075346 -0.111955 -0.141542
v 0.075025 -0.112046 -0.147274
v 0.074119 -0.112775 -0.217051
v 0.077364 -0.110313 -0.088518
v 0.143012 -0.176660 -0.048652
v 0.142104 -0.177223 -0.043360
v 0.144229 -0.175801 -0.052965
v 0.075053 -0.112151 -0.153612
v 0.074930 -0.112104 -0.160281
v 0.074153 -0.112752 -0.207500
v 0.074137 -0.112667 -0.212311
vn 0.5822 0.8121 0.0396
vn 0.4938 0.7668 0.4102
vn 0.4961 0.7627 0.4149
vn 0.4891 0.7643 0.4203
vn 0.4968 0.7631 0.4134
vn 0.5390 0.7438 0.3952
vn 0.5268 0.7622 0.3761
vn 0.5086 0.8610 0.0000
vn 0.4892 0.8630 -0.1258
vn 0.6008 0.7994 0.0000
vn 0.5994 0.8004 0.0122
vn 0.5931 0.8051 0.0029
vn 0.6469 0.7620 -0.0296
vn 0.6473 0.7617 -0.0293
vn 0.6460 0.7630 -0.0229
vn 0.6410 0.7666 -0.0368
vn 0.6465 0.7619 -0.0379
vn 0.6461 0.7626 -0.0304
vn 0.6416 0.7664 -0.0318
vn 0.6424 0.7654 -0.0389
vn 0.6100 0.7903 0.0584
vn 0.5813 0.8128 0.0384
vn 0.7405 0.6691 -0.0630
vn 0.6211 0.7837 -0.0125
vn 0.5263 0.8499 0.0270
vn 0.5926 0.8040 0.0501
vn 0.6478 0.7608 -0.0387
vn 0.6605 0.7507 0.0123
vn 0.6517 0.7582 -0.0206
vn 0.6514 0.7585 -0.0216
vn 0.6659 0.7460 -0.0132
vn 0.7349 0.6729 -0.0843
vn 0.7353 0.6726 -0.0837
vn 0.7350 0.6729 -0.0836
vn 0.7353 0.6724 -0.0846
vn 0.9152 -0.4002 -0.0470
vn 0.9168 -0.3966 -0.0473
vn 0.9152 -0.4002 -0.0471
vn 0.6047 0.7964 -0.0035
vn 0.6248 0.7191 0.3041
vn 0.6088 0.7271 0.3172
vn 0.4744 0.7562 0.4507
vn 0.1653 0.9323 -0.3216
vn 0.4564 0.8665 0.2021
vn 0.3776 0.9260 0.0000
vn 0.3898 0.9093 -0.1457
vn 0.3780 0.9258 0.0000
vn 0.5470 0.8371 0.0000
vn 0.4560 0.8900 0.0000
vn 0.5930 0.8052 0.0000
vn 0.5991 0.8007 0.0021
vn 0.5888 0.8082 -0.0011
vn 0.5963 0.8027 0.0000
vn 0.4904 0.7245 0.4844
vn 0.4849 0.7281 0.4844
vn 0.4904 0.7250 0.4836
vn 0.5158 0.7691 0.3773
vn 0.2563 0.8860 0.3864
vn 0.3062 0.9084 0.2846
vn 0.5654 0.8208 0.0819
vn 0.1059 0.9589 0.2632
vn 0.4861 0.7305 0.4797
vn 0.5147 0.8552 0.0613
vn 0.6155 0.7864 0.0526
vn 0.4895 0.8692 0.0696
vn 0.7436 0.6680 -0.0289
vn 0.6052 0.7957 -0.0234
vn 0.6046 0.7958 -0.0344
vn 0.6070 0.7940 -0.0342
vn 0.6049 0.7958 -0.0262
vn 0.6050 0.7958 -0.0266
vn 0.6070 0.7945 -0.0211
vn 0.6229 0.7791 0.0708
vn 0.5910 0.8065 0.0129
vn 0.5931 0.8050 0.0094
vn 0.6147 0.7536 0.2329
vn 0.4689 0.8321 0.2963
vn 0.6358 0.7713 -0.0275
vn 0.7032 0.7104 -0.0287
vn 0.5117 0.8577 -0.0505
vn 0.4803 0.8477 -0.2252
vn 0.6442 0.7642 0.0304
vn 0.6385 0.7690 0.0317
vn 0.6425 0.7659 0.0233
vn 0.6433 0.7653 0.0227
vn 0.7178 0.6946 -0.0480
vn 0.7135 0.6991 -0.0471
vn 0.7162 0.6961 -0.0508
vn 0.7166 0.6957 -0.0512
vn 0.6601 0.7510 -0.0186
vn 0.4533 0.7972 0.3987
vn 0.8600 0.4800 0.1729
vn 0.6236 0.7381 0.2576
vn 0.7776 0.5928 0.2094
vn 0.6657 0.6926 0.2779
vn 0.6828 0.6973 0.2181
vn 0.5667 0.7959 0.2132
vn 0.5862 0.7807 0.2164
vn 0.7262 0.6043 0.3278
vn 0.6533 0.7329 0.1901
vn 0.6527 0.7335 0.1898
vn 0.6545 0.7326 0.1867
vn 0.8264 0.4600 0.3249
vn 0.8226 0.4665 0.3251
vn 0.8264 0.4600 0.3248
vn 0.5847 0.7849 0.2050
vn 0.5763 0.7944 0.1918
vn 0.6516 0.7354 0.1857
vn 0.6493 0.7466 0.1447
vn 0.6791 0.7339 -0.0092
vn 0.6782 0.7348 -0.0083
vn 0.6764 0.7365 -0.0088
vn 0.6772 0.7358 -0.0073
vn 0.5960 0.8029 0.0089
vn 0.5950 0.8036 0.0118
vn 0.5946 0.8040 0.0093
vn 0.5950 0.8037 0.0123
vn 0.6090 0.7929 -0.0204
vn -0.6493 -0.7466 -0.1447
vn 0.5855 0.8106 0.0088
vn 0.6228 0.7809 -0.0492
vn 0.6921 0.7216 -0.0200
vn -0.6657 -0.6926 -0.2779
vn -0.5822 -0.8121 -0.0396
vn -0.5817 -0.8125 -0.0384
vn -0.5810 -0.8130 -0.0394
vn -0.4938 -0.7668 -0.4102
vn -0.4891 -0.7643 -0.4203
vn -0.4961 -0.7627 -0.4149
vn -0.4968 -0.7631 -0.4134
vn -0.5390 -0.7438 -0.3952
vn -0.5268 -0.7622 -0.3761
vn -0.5086 -0.8610 0.0000
vn -0.4892 -0.8630 0.1258
vn -0.6008 -0.7994 0.0000
vn -0.6395 -0.7682 0.0310
vn -0.6469 -0.7620 0.0296
vn -0.6416 -0.7661 0.0364
vn -0.6410 -0.7666 0.0368
vn -0.6465 -0.7620 0.0378
vn -0.6416 -0.7664 0.0319
vn -0.6461 -0.7626 0.0304
vn -0.6424 -0.7654 0.0389
vn -0.6100 -0.7903 -0.0584
vn -0.5813 -0.8128 -0.0384
vn -0.7405 -0.6691 0.0630
vn -0.6211 -0.7837 0.0125
vn -0.5263 -0.8499 -0.0270
vn -0.5926 -0.8040 -0.0501
vn -0.6478 -0.7608 0.0387
vn -0.6605 -0.7507 -0.0123
vn -0.6511 -0.7587 0.0209
vn -0.6517 -0.7582 0.0206
vn -0.6517 -0.7582 0.0214
vn -0.6514 -0.7585 0.0216
vn -0.6659 -0.7460 0.0132
vn -0.7350 -0.6729 0.0836
vn -0.7353 -0.6724 0.0846
vn -0.9152 0.4002 0.0470
vn -0.9152 0.4002 0.0471
vn -0.9168 0.3966 0.0473
vn -0.6047 -0.7964 0.0035
vn -0.6248 -0.7191 -0.3041
vn -0.6088 -0.7271 -0.3172
vn -0.4744 -0.7562 -0.4507
vn -0.1653 -0.9323 0.3216
vn -0.4564 -0.8665 -0.2021
vn -0.3776 -0.9260 0.0000
vn -0.3898 -0.9093 0.1457
vn -0.3780 -0.9258 0.0000
vn -0.5470 -0.8371 0.0000
vn -0.4560 -0.8900 0.0000
vn -0.5930 -0.8052 -0.0000
vn -0.5963 -0.8027 0.0000
vn -0.4904 -0.7245 -0.4844
vn -0.4904 -0.7250 -0.4836
vn -0.4850 -0.7281 -0.4844
vn -0.5158 -0.7691 -0.3773
vn -0.2563 -0.8860 -0.3864
vn -0.3062 -0.9084 -0.2846
vn -0.5654 -0.8208 -0.0819
vn -0.1059 -0.9589 -0.2632
vn -0.4861 -0.7305 -0.4797
vn -0.5147 -0.8552 -0.0613
vn -0.6155 -0.7864 -0.0526
vn -0.4895 -0.8692 -0.0696
vn -0.7436 -0.6680 0.0289
vn -0.6052 -0.7957 0.0234
vn -0.6070 -0.7940 0.0341
vn -0.6046 -0.7958 0.0344
vn -0.6050 -0.7958 0.0266
vn -0.6049 -0.7958 0.0262
vn -0.6070 -0.7945 0.0211
vn -0.6229 -0.7791 -0.0708
vn -0.5921 -0.8058 -0.0111
vn -0.5910 -0.8065 -0.0129
vn -0.5926 -0.8054 -0.0142
vn -0.5931 -0.8050 -0.0094
vn -0.6147 -0.7536 -0.2329
vn -0.4689 -0.8321 -0.2963
vn -0.6358 -0.7713 0.0275
vn -0.7032 -0.7104 0.0287
vn -0.5117 -0.8577 0.0505
vn -0.4803 -0.8477 0.2252
vn -0.6442 -0.7642 -0.0303
vn -0.6425 -0.7660 -0.0233
vn -0.6385 -0.7690 -0.0317
vn -0.6433 -0.7653 -0.0227
vn -0.7178 -0.6946 0.0480
vn -0.7162 -0.6961 0.0508
vn -0.7135 -0.6991 0.0471
vn -0.7166 -0.6957 0.0512
vn -0.6601 -0.7510 0.0186
vn -0.4533 -0.7972 -0.3987
vn -0.8600 -0.4800 -0.1729
vn -0.6236 -0.7381 -0.2576
vn -0.7776 -0.5928 -0.2094
vn -0.6828 -0.6973 -0.2181
vn -0.5667 -0.7959 -0.2132
vn -0.5862 -0.7807 -0.2164
vn -0.7262 -0.6043 -0.3278
vn -0.6533 -0.7329 -0.1901
vn -0.6545 -0.7326 -0.1867
vn -0.6527 -0.7335 -0.1898
vn -0.8264 -0.4600 -0.3249
vn -0.8264 -0.4600 -0.3248
vn -0.8226 -0.4665 -0.3251
vn -0.5847 -0.7849 -0.2050
vn -0.5763 -0.7944 -0.1918
vn -0.6516 -0.7354 -0.1857
vn -0.6791 -0.7339 0.0092
vn -0.6764 -0.7365 0.0088
vn -0.6782 -0.7348 0.0083
vn -0.6772 -0.7358 0.0073
vn -0.5960 -0.8029 -0.0089
vn -0.5946 -0.8040 -0.0093
vn -0.5950 -0.8036 -0.0118
vn -0.5950 -0.8037 -0.0123
vn -0.6090 -0.7929 0.0204
vn -0.5855 -0.8106 -0.0088
vn -0.6228 -0.7809 0.0492
vn -0.6921 -0.7216 0.0200
usemtl None.070
s 1
f 1//1 3//1 2//1
f 4//2 6//3 5//4
f 4//2 7//5 6//3
f 5//6 6//6 8//6
f 7//7 9//7 6//7
f 10//8 12//8 11//8
f 10//9 11//9 13//9
f 14//10 16//11 15//12
f 17//13 19//14 18//15
f 17//16 20//16 19//16
f 21//17 23//18 22//19
f 21//17 22//19 24//20
f 25//21 26//21 2//21
f 25//22 2//22 3//22
f 27//23 22//23 28//23
f 27//24 29//24 22//24
f 30//25 31//25 2//25
f 30//26 2//26 26//26
f 32//27 34//27 33//27
f 32//28 28//28 34//28
f 35//29 19//29 22//29
f 35//30 18//15 19//14
f 35//31 22//31 23//31
f 36//32 11//33 37//34
f 36//32 38//35 11//33
f 36//36 39//37 38//38
f 24//39 22//39 29//39
f 40//40 41//40 9//40
f 41//41 42//41 9//41
f 42//42 6//42 9//42
f 13//43 44//43 43//43
f 13//44 11//44 44//44
f 12//45 46//45 45//45
f 12//46 45//46 11//46
f 46//45 47//45 45//45
f 48//45 49//45 45//45
f 48//45 45//45 47//45
f 50//47 51//47 19//47
f 50//47 19//47 52//47
f 51//47 53//47 19//47
f 53//47 54//47 19//47
f 54//47 55//47 19//47
f 55//47 56//47 19//47
f 57//48 58//48 22//48
f 57//48 22//48 56//48
f 58//48 59//48 22//48
f 60//49 61//49 34//49
f 60//49 34//49 59//49
f 61//49 62//49 34//49
f 62//49 63//49 34//49
f 64//50 65//51 2//52
f 64//50 2//52 63//50
f 66//53 15//53 67//53
f 66//53 67//53 65//53
f 9//54 69//55 68//56
f 68//57 71//57 70//57
f 68//58 72//58 71//58
f 71//59 43//59 70//59
f 70//60 44//60 73//60
f 70//61 43//61 44//61
f 68//56 69//55 72//62
f 44//63 11//63 73//63
f 2//64 31//64 34//64
f 2//65 34//65 63//65
f 11//66 38//66 73//66
f 49//67 75//68 74//69
f 49//67 77//70 76//71
f 49//67 76//71 75//68
f 49//67 74//69 78//72
f 49//73 78//73 45//73
f 52//47 19//47 49//47
f 15//74 79//74 67//74
f 15//12 16//11 79//75
f 80//76 81//76 73//76
f 19//77 56//77 22//77
f 28//78 22//78 34//78
f 45//79 78//79 11//79
f 34//80 22//80 59//80
f 73//81 68//81 70//81
f 82//82 33//83 34//84
f 82//82 34//84 31//85
f 83//86 37//87 11//88
f 83//86 11//88 84//89
f 19//90 20//90 85//90
f 9//91 68//91 40//91
f 38//92 87//92 86//92
f 38//93 80//93 73//93
f 86//94 87//94 88//94
f 88//95 89//95 86//95
f 80//96 38//96 86//96
f 73//97 90//97 68//97
f 40//98 68//98 90//98
f 91//99 40//99 92//99
f 91//100 92//101 93//102
f 91//103 94//104 40//105
f 90//106 73//106 81//106
f 92//107 40//107 90//107
f 92//101 95//108 93//102
f 95//109 92//109 96//109
f 84//110 11//111 97//112
f 97//112 11//111 98//113
f 77//114 49//115 99//116
f 99//116 49//115 100//117
f 100//118 49//118 85//118
f 92//119 101//119 96//119
f 65//51 67//120 2//52
f 19//121 85//121 49//121
f 98//122 11//122 78//122
f 89//123 102//123 86//123
f 103//124 105//125 104//126
f 106//127 108//128 107//129
f 106//127 107//129 109//130
f 108//131 110//131 107//131
f 109//132 107//132 111//132
f 112//133 114//133 113//133
f 112//134 115//134 114//134
f 116//135 118//135 117//135
f 119//136 121//137 120//138
f 119//136 120//138 122//139
f 123//140 125//141 124//142
f 123//140 126//143 125//141
f 127//144 105//144 128//144
f 127//145 104//126 105//125
f 129//146 130//146 125//146
f 129//147 125//147 131//147
f 132//148 105//148 133//148
f 132//149 128//149 105//149
f 134//150 136//150 135//150
f 134//151 135//151 130//151
f 137//152 125//153 120//154
f 137//152 120//154 121//155
f 137//156 124//156 125//156
f 138//157 139//157 114//157
f 138//158 114//158 140//158
f 138//159 140//160 141//161
f 126//162 131//162 125//162
f 142//163 111//163 143//163
f 143//164 111//164 144//164
f 144//165 111//165 107//165
f 115//166 146//166 145//166
f 115//167 145//167 114//167
f 113//168 148//168 147//168
f 113//169 114//169 148//169
f 147//168 148//168 149//168
f 150//168 148//168 151//168
f 150//168 149//168 148//168
f 152//170 120//170 153//170
f 152//170 154//170 120//170
f 153//170 120//170 155//170
f 155//170 120//170 156//170
f 156//170 120//170 157//170
f 157//170 120//170 158//170
f 159//171 125//171 160//171
f 159//171 158//171 125//171
f 160//171 125//171 161//171
f 162//172 135//172 163//172
f 162//172 161//172 135//172
f 163//172 135//172 164//172
f 164//172 135//172 165//172
f 166//173 105//173 167//173
f 166//173 165//173 105//173
f 168//174 169//174 118//174
f 168//174 167//174 169//174
f 111//175 171//176 170//177
f 171//178 173//178 172//178
f 171//179 172//179 174//179
f 172//180 173//180 146//180
f 173//181 175//181 145//181
f 173//182 145//182 146//182
f 171//176 174//183 170//177
f 145//184 175//184 114//184
f 105//185 135//185 133//185
f 105//186 165//186 135//186
f 114//187 175//187 140//187
f 151//188 177//189 176//190
f 151//188 179//191 178//192
f 151//188 176//190 179//191
f 151//188 180//193 177//189
f 151//194 148//194 180//194
f 154//170 151//170 120//170
f 118//195 169//196 181//197
f 118//195 181//197 117//198
f 80//199 175//199 81//199
f 120//200 125//200 158//200
f 130//201 135//201 125//201
f 148//202 114//202 180//202
f 135//203 161//203 125//203
f 175//204 173//204 171//204
f 182//205 135//206 136//207
f 182//205 133//208 135//206
f 183//209 114//210 139//211
f 183//209 184//212 114//210
f 120//213 185//213 122//213
f 111//214 142//214 171//214
f 140//215 86//215 186//215
f 140//216 175//216 80//216
f 86//217 102//217 186//217
f 80//218 86//218 140//218
f 175//219 171//219 90//219
f 142//220 90//220 171//220
f 187//221 92//221 142//221
f 187//222 188//223 92//224
f 187//225 142//226 189//227
f 90//228 81//228 175//228
f 92//229 90//229 142//229
f 92//224 188//223 101//230
f 184//231 190//232 114//233
f 190//232 191//234 114//233
f 178//235 192//236 151//237
f 192//236 193//238 151//237
f 193//239 185//239 151//239
f 167//240 105//240 169//240
f 120//241 151//241 185//241
f 191//242 180//242 114//242
