# Blender v2.79 (sub 0) OBJ File: ''
# www.blender.org
mtllib crack_restart_keyway_590.mtl
o crack_restart_keyway_590
v 0.073419 -0.113176 -0.472461
v 0.072973 -0.113335 -0.459453
v 0.084730 -0.121347 -0.472461
v 0.147229 -0.162037 -0.087630
v 0.152177 -0.169049 -0.080801
v 0.150740 -0.164616 -0.087285
v 0.115965 -0.144850 -0.090503
v 0.143382 -0.159202 -0.088100
v 0.131068 -0.149873 -0.089874
v 0.135342 -0.153093 -0.089206
v 0.126540 -0.147825 -0.091832
v 0.154210 -0.167189 -0.086931
v 0.139573 -0.156331 -0.088629
v 0.120406 -0.147382 -0.426347
v 0.095858 -0.129428 -0.472461
v 0.120406 -0.147382 -0.103551
v 0.114631 -0.144474 -0.094849
v 0.120866 -0.146923 -0.098614
v 0.102998 -0.137501 -0.112392
v 0.120406 -0.147382 -0.118922
v 0.120406 -0.147382 -0.472461
v 0.108145 -0.138395 -0.472461
v 0.120406 -0.147382 -0.457089
v 0.073515 -0.113108 -0.238326
v 0.073870 -0.112772 -0.225319
v 0.094968 -0.133232 -0.288849
v 0.073149 -0.113225 -0.251334
v 0.070732 -0.114911 -0.394416
v 0.070015 -0.115194 -0.381408
v 0.120406 -0.147382 -0.395604
v 0.070945 -0.114610 -0.407423
v 0.072281 -0.113984 -0.290356
v 0.072655 -0.113535 -0.277349
v 0.071764 -0.114095 -0.303364
v 0.072653 -0.113720 -0.446446
v 0.071886 -0.114018 -0.433438
v 0.071499 -0.114488 -0.420431
v 0.070623 -0.114972 -0.368401
v 0.070464 -0.114911 -0.355393
v 0.090632 -0.132125 -0.376755
v 0.073083 -0.113415 -0.264341
v 0.076428 -0.111164 -0.121259
v 0.075613 -0.111620 -0.134267
v 0.076937 -0.110680 -0.108252
v 0.071644 -0.114407 -0.316371
v 0.120406 -0.147382 -0.334119
v 0.071501 -0.114260 -0.329378
v 0.074069 -0.112715 -0.212311
v 0.074039 -0.112665 -0.199304
v 0.146742 -0.173760 -0.061422
v 0.148175 -0.172561 -0.068130
v 0.150250 -0.170758 -0.074822
v 0.122213 -0.145575 -0.094013
v 0.120406 -0.147382 -0.134293
v 0.120406 -0.147382 -0.149664
v 0.120406 -0.147382 -0.165036
v 0.120406 -0.147382 -0.180407
v 0.120406 -0.147382 -0.195778
v 0.120406 -0.147382 -0.211149
v 0.120406 -0.147382 -0.226521
v 0.120406 -0.147382 -0.241892
v 0.104904 -0.139355 -0.237469
v 0.120406 -0.147382 -0.257263
v 0.106784 -0.138534 -0.251567
v 0.104076 -0.139933 -0.265445
v 0.120406 -0.147382 -0.272634
v 0.120406 -0.147382 -0.288006
v 0.104167 -0.140683 -0.280926
v 0.120406 -0.147382 -0.349490
v 0.120406 -0.147382 -0.364862
v 0.120406 -0.147382 -0.380233
v 0.120406 -0.147382 -0.441718
v 0.071824 -0.114308 -0.342386
v 0.144124 -0.175334 -0.040496
v 0.145503 -0.174656 -0.050682
v 0.076050 -0.111321 -0.096349
v 0.074689 -0.112026 -0.081618
v 0.120406 -0.147382 -0.303377
v 0.120406 -0.147382 -0.318748
v 0.120406 -0.147382 -0.410975
v 0.074080 -0.112707 -0.186296
v 0.074544 -0.112348 -0.173289
v 0.074743 -0.112358 -0.166310
v 0.074804 -0.112193 -0.160281
v 0.075041 -0.112158 -0.153635
v 0.103562 -0.135048 -0.472461
v 0.075287 -0.111922 -0.145168
v 0.068506 -0.114968 0.079175
v 0.069331 -0.112695 0.106108
v 0.084844 -0.132604 0.132807
v 0.067650 -0.115395 0.025628
v 0.067262 -0.114708 0.052180
v 0.132202 -0.183803 0.066232
v 0.070600 -0.112833 0.118238
v 0.099324 -0.150787 0.144590
v 0.128725 -0.186338 0.139128
v 0.118175 -0.173064 0.152838
v 0.129343 -0.185765 0.156215
v 0.068074 -0.113295 -0.001445
v 0.070930 -0.113867 -0.029218
v 0.071034 -0.111701 -0.054991
v 0.135399 -0.181853 0.033867
v 0.130441 -0.185227 0.090390
v 0.137008 -0.180463 0.018555
v 0.140328 -0.177813 -0.010772
v 0.142249 -0.176169 -0.027676
v 0.129185 -0.185836 0.114687
v 0.128725 -0.186338 0.139128
v 0.069331 -0.112695 0.106108
v 0.073419 -0.113176 -0.472461
v 0.084730 -0.121347 -0.472461
v 0.072973 -0.113335 -0.459453
v 0.147229 -0.162037 -0.087630
v 0.150740 -0.164616 -0.087285
v 0.152177 -0.169049 -0.080801
v 0.115965 -0.144850 -0.090503
v 0.143382 -0.159202 -0.088100
v 0.131068 -0.149873 -0.089874
v 0.135342 -0.153093 -0.089206
v 0.126540 -0.147825 -0.091832
v 0.154210 -0.167189 -0.086931
v 0.139573 -0.156331 -0.088629
v 0.120406 -0.147382 -0.426347
v 0.095858 -0.129428 -0.472461
v 0.120406 -0.147382 -0.103551
v 0.120866 -0.146923 -0.098614
v 0.114631 -0.144474 -0.094849
v 0.102998 -0.137501 -0.112392
v 0.120406 -0.147382 -0.118922
v 0.120406 -0.147382 -0.472461
v 0.120406 -0.147382 -0.457089
v 0.108145 -0.138395 -0.472461
v 0.073515 -0.113108 -0.238326
v 0.094968 -0.133232 -0.288849
v 0.073870 -0.112772 -0.225319
v 0.073149 -0.113225 -0.251334
v 0.070732 -0.114911 -0.394416
v 0.120406 -0.147382 -0.395604
v 0.070015 -0.115194 -0.381408
v 0.070945 -0.114610 -0.407423
v 0.072281 -0.113984 -0.290356
v 0.072655 -0.113535 -0.277349
v 0.071764 -0.114095 -0.303364
v 0.072653 -0.113720 -0.446446
v 0.071886 -0.114018 -0.433438
v 0.071499 -0.114488 -0.420431
v 0.070623 -0.114972 -0.368401
v 0.090632 -0.132125 -0.376755
v 0.070464 -0.114911 -0.355393
v 0.073083 -0.113415 -0.264341
v 0.076428 -0.111164 -0.121259
v 0.075613 -0.111620 -0.134267
v 0.076937 -0.110680 -0.108252
v 0.071644 -0.114407 -0.316371
v 0.071501 -0.114260 -0.329378
v 0.120406 -0.147382 -0.334119
v 0.074069 -0.112715 -0.212311
v 0.074039 -0.112665 -0.199304
v 0.146742 -0.173760 -0.061422
v 0.148175 -0.172561 -0.068130
v 0.150250 -0.170758 -0.074822
v 0.122213 -0.145575 -0.094013
v 0.120406 -0.147382 -0.134293
v 0.120406 -0.147382 -0.149664
v 0.120406 -0.147382 -0.165036
v 0.120406 -0.147382 -0.180407
v 0.120406 -0.147382 -0.195778
v 0.120406 -0.147382 -0.211149
v 0.120406 -0.147382 -0.226521
v 0.104904 -0.139355 -0.237469
v 0.120406 -0.147382 -0.241892
v 0.106784 -0.138534 -0.251567
v 0.120406 -0.147382 -0.257263
v 0.104076 -0.139933 -0.265445
v 0.120406 -0.147382 -0.272634
v 0.104167 -0.140683 -0.280926
v 0.120406 -0.147382 -0.288006
v 0.120406 -0.147382 -0.349490
v 0.120406 -0.147382 -0.364862
v 0.120406 -0.147382 -0.380233
v 0.120406 -0.147382 -0.441718
v 0.071824 -0.114308 -0.342386
v 0.144124 -0.175334 -0.040496
v 0.145503 -0.174656 -0.050682
v 0.074689 -0.112026 -0.081618
v 0.076050 -0.111321 -0.096349
v 0.120406 -0.147382 -0.303377
v 0.120406 -0.147382 -0.318748
v 0.120406 -0.147382 -0.410975
v 0.074080 -0.112707 -0.186296
v 0.074544 -0.112348 -0.173289
v 0.074804 -0.112193 -0.160281
v 0.074743 -0.112358 -0.166310
v 0.075041 -0.112158 -0.153635
v 0.103562 -0.135048 -0.472461
v 0.075287 -0.111922 -0.145168
v 0.068506 -0.114968 0.079175
v 0.067650 -0.115395 0.025628
v 0.067262 -0.114708 0.052180
v 0.132202 -0.183803 0.066232
v 0.068074 -0.113295 -0.001445
v 0.070930 -0.113867 -0.029218
v 0.071034 -0.111701 -0.054991
v 0.135399 -0.181853 0.033867
v 0.130441 -0.185227 0.090390
v 0.137008 -0.180463 0.018555
v 0.140328 -0.177813 -0.010772
v 0.142249 -0.176169 -0.027676
v 0.129185 -0.185836 0.114687
vn -0.5853 -0.8102 -0.0300
vn -0.5159 -0.7562 -0.4026
vn -0.5178 -0.7545 -0.4032
vn -0.5161 -0.7562 -0.4022
vn -0.3751 -0.7689 -0.5177
vn 0.0030 -0.1597 -0.9872
vn -0.0472 -0.2626 -0.9638
vn -0.2924 -0.9143 -0.2801
vn -0.5188 -0.7549 -0.4011
vn -0.0284 -0.2175 -0.9756
vn -0.0283 -0.2175 -0.9756
vn -0.0279 -0.2167 -0.9758
vn -0.5754 -0.8177 -0.0165
vn -0.5876 -0.8092 -0.0022
vn -0.5891 -0.8081 -0.0026
vn -0.5884 -0.8086 -0.0015
vn -0.3016 -0.9463 0.1161
vn -0.4827 -0.8753 -0.0278
vn -0.4936 -0.8697 0.0000
vn -0.5912 -0.8065 0.0000
vn -0.5910 -0.8066 -0.0006
vn -0.6356 -0.7711 0.0373
vn -0.6518 -0.7580 0.0252
vn -0.5473 -0.8355 -0.0483
vn -0.5474 -0.8364 -0.0283
vn -0.5470 -0.8367 -0.0285
vn -0.5472 -0.8365 -0.0297
vn -0.6475 -0.7608 0.0446
vn -0.6480 -0.7609 0.0324
vn -0.6480 -0.7603 0.0449
vn -0.6479 -0.7611 0.0322
vn -0.5607 -0.8264 -0.0520
vn -0.5610 -0.8263 -0.0492
vn -0.5605 -0.8268 -0.0468
vn -0.5614 -0.8263 -0.0466
vn -0.6519 -0.7583 -0.0044
vn -0.6398 -0.7673 0.0430
vn -0.6623 -0.7491 0.0143
vn -0.6532 -0.7566 0.0285
vn -0.7138 -0.6969 0.0692
vn -0.7120 -0.7001 0.0539
vn -0.5610 -0.8278 -0.0032
vn -0.5603 -0.8282 -0.0106
vn -0.5612 -0.8276 -0.0071
vn -0.5537 -0.8323 0.0251
vn -0.6772 -0.7357 0.0136
vn -0.6752 -0.7375 0.0139
vn -0.6770 -0.7358 0.0132
vn -0.6534 -0.7570 0.0014
vn -0.6533 -0.7571 0.0012
vn -0.6549 -0.7557 0.0001
vn -0.5216 -0.8136 -0.2568
vn -0.4520 -0.8161 -0.3600
vn -0.4433 -0.8139 -0.3755
vn -0.1708 -0.9310 0.3227
vn -0.2940 -0.8938 -0.3387
vn -0.1389 -0.9894 -0.0430
vn -0.4633 -0.8862 0.0005
vn -0.4594 -0.8882 0.0008
vn -0.4598 -0.8880 -0.0000
vn -0.5447 -0.8386 0.0000
vn -0.4824 -0.8684 -0.1149
vn -0.4816 -0.8576 0.1804
vn -0.4150 -0.9098 0.0000
vn -0.3814 -0.9244 0.0000
vn -0.3993 -0.9159 0.0420
vn -0.4560 -0.8900 0.0000
vn -0.0196 -0.2001 -0.9796
vn -0.5720 -0.8131 0.1085
vn -0.6379 -0.7579 -0.1368
vn -0.6379 -0.7579 -0.1369
vn -0.6386 -0.7573 -0.1369
vn -0.6077 -0.7826 -0.1349
vn -0.7230 -0.6837 -0.0995
vn -0.7232 -0.6834 -0.0995
vn -0.7242 -0.6834 -0.0918
vn -0.4628 -0.8476 -0.2597
vn -0.4861 -0.8739 0.0000
vn -0.6516 -0.7463 0.1355
vn -0.5581 -0.8298 -0.0000
vn -0.5469 -0.8366 -0.0311
vn -0.6070 -0.7890 0.0947
vn -0.4632 -0.8862 0.0061
vn -0.6503 -0.7597 -0.0004
vn -0.7137 -0.6990 0.0448
vn -0.6934 -0.7200 0.0277
vn -0.6919 -0.7214 0.0280
vn -0.6925 -0.7209 0.0267
vn -0.6841 -0.7292 0.0185
vn -0.6941 -0.7193 0.0285
vn -0.5649 -0.8243 -0.0383
vn -0.1827 -0.9798 -0.0814
vn -0.8732 -0.4377 0.2145
vn -0.6461 -0.7625 0.0331
vn -0.5895 -0.8078 -0.0007
vn -0.5837 -0.8060 0.0984
vn -0.5615 -0.8274 -0.0109
vn -0.6001 -0.7950 -0.0887
vn -0.5715 -0.7722 -0.2777
vn -0.7212 -0.6868 -0.0907
vn -0.7031 -0.7100 0.0403
vn -0.7030 -0.7101 0.0402
vn -0.7032 -0.7099 0.0405
vn -0.7033 -0.7098 0.0407
vn -0.6758 -0.7370 0.0129
vn -0.5404 -0.8414 0.0042
vn -0.8313 -0.5512 0.0720
vn -0.8361 -0.5426 0.0804
vn -0.8289 -0.5538 0.0794
vn -0.5049 -0.8631 0.0150
vn -0.7340 -0.6792 0.0002
vn -0.8361 -0.5425 0.0813
vn -0.7651 -0.6420 -0.0505
vn -0.7565 -0.6521 0.0492
vn -0.7462 -0.6627 -0.0631
vn 0.5202 -0.8540 0.0074
vn 0.5208 -0.8537 0.0072
vn -0.5841 -0.8086 -0.0703
vn -0.7372 -0.6745 -0.0407
vn -0.6532 -0.7492 -0.1097
vn -0.8073 -0.5827 -0.0932
vn -0.6258 -0.7681 -0.1355
vn -0.6230 -0.7702 -0.1366
vn -0.6265 -0.7669 -0.1393
vn -0.6217 -0.7698 -0.1447
vn -0.6179 -0.7734 -0.1415
vn -0.6201 -0.7717 -0.1410
vn 0.4346 -0.9006 0.0002
vn -0.6331 -0.7662 -0.1106
vn -0.7682 -0.6396 0.0282
vn -0.7724 -0.6345 -0.0276
vn -0.7831 -0.6194 -0.0560
vn 0.7565 0.6521 -0.0492
vn 0.8361 0.5425 -0.0813
vn 0.8361 0.5427 -0.0804
vn 0.8289 0.5537 -0.0793
vn 0.5853 0.8102 0.0300
vn 0.5159 0.7562 0.4026
vn 0.3751 0.7689 0.5177
vn -0.0030 0.1597 0.9872
vn 0.0472 0.2626 0.9638
vn 0.2924 0.9143 0.2801
vn 0.5188 0.7549 0.4011
vn 0.0284 0.2175 0.9756
vn 0.0279 0.2167 0.9758
vn 0.0283 0.2175 0.9756
vn 0.5754 0.8177 0.0165
vn 0.5876 0.8092 0.0022
vn 0.5896 0.8077 0.0007
vn 0.5891 0.8081 0.0026
vn 0.3016 0.9463 -0.1161
vn 0.4827 0.8753 0.0278
vn 0.4936 0.8697 0.0000
vn 0.5912 0.8065 0.0000
vn 0.6356 0.7711 -0.0373
vn 0.6518 0.7580 -0.0252
vn 0.5473 0.8355 0.0483
vn 0.5474 0.8364 0.0283
vn 0.5472 0.8365 0.0297
vn 0.5470 0.8367 0.0285
vn 0.6475 0.7608 -0.0446
vn 0.6480 0.7603 -0.0449
vn 0.6480 0.7609 -0.0324
vn 0.6479 0.7611 -0.0322
vn 0.5607 0.8264 0.0520
vn 0.5605 0.8268 0.0468
vn 0.5610 0.8263 0.0492
vn 0.5614 0.8263 0.0466
vn 0.6519 0.7583 0.0044
vn 0.6398 0.7673 -0.0430
vn 0.6623 0.7491 -0.0143
vn 0.6532 0.7566 -0.0285
vn 0.7138 0.6969 -0.0692
vn 0.7120 0.7001 -0.0539
vn 0.5610 0.8278 0.0032
vn 0.5612 0.8276 0.0071
vn 0.5603 0.8282 0.0105
vn 0.5537 0.8323 -0.0251
vn 0.6772 0.7357 -0.0136
vn 0.6534 0.7570 -0.0014
vn 0.6550 0.7556 -0.0000
vn 0.6533 0.7571 -0.0012
vn 0.5216 0.8136 0.2568
vn 0.4520 0.8161 0.3600
vn 0.4433 0.8139 0.3755
vn 0.1708 0.9310 -0.3227
vn 0.2940 0.8938 0.3387
vn 0.1389 0.9894 0.0430
vn 0.4598 0.8880 0.0000
vn 0.5447 0.8386 0.0000
vn 0.4824 0.8684 0.1149
vn 0.4816 0.8576 -0.1804
vn 0.4150 0.9098 0.0000
vn 0.3814 0.9244 0.0000
vn 0.3993 0.9159 -0.0420
vn 0.4560 0.8900 0.0000
vn 0.0196 0.2001 0.9796
vn 0.5720 0.8131 -0.1085
vn 0.6379 0.7579 0.1368
vn 0.6386 0.7573 0.1369
vn 0.6379 0.7579 0.1369
vn 0.6077 0.7826 0.1349
vn 0.7230 0.6837 0.0995
vn 0.7243 0.6834 0.0918
vn 0.7232 0.6834 0.0995
vn 0.4628 0.8476 0.2597
vn 0.4861 0.8739 0.0000
vn 0.6516 0.7463 -0.1355
vn 0.5581 0.8298 0.0000
vn 0.5469 0.8366 0.0311
vn 0.6070 0.7890 -0.0947
vn 0.4632 0.8862 -0.0061
vn 0.6503 0.7597 0.0004
vn 0.7137 0.6990 -0.0448
vn 0.6934 0.7200 -0.0277
vn 0.6925 0.7209 -0.0267
vn 0.6919 0.7214 -0.0280
vn 0.6841 0.7292 -0.0185
vn 0.6941 0.7193 -0.0285
vn 0.5649 0.8243 0.0383
vn 0.1827 0.9798 0.0814
vn 0.8732 0.4377 -0.2145
vn 0.6461 0.7625 -0.0331
vn 0.5898 0.8076 0.0006
vn 0.5895 0.8078 0.0007
vn 0.5837 0.8060 -0.0984
vn 0.5615 0.8274 0.0109
vn 0.6001 0.7950 0.0887
vn 0.5715 0.7722 0.2777
vn 0.7212 0.6868 0.0907
vn 0.7031 0.7100 -0.0403
vn 0.7032 0.7099 -0.0405
vn 0.7030 0.7101 -0.0402
vn 0.7033 0.7098 -0.0407
vn 0.6758 0.7370 -0.0129
vn 0.5404 0.8414 -0.0042
vn 0.8313 0.5512 -0.0720
vn 0.5049 0.8631 -0.0150
vn 0.7340 0.6792 -0.0002
vn 0.7651 0.6420 0.0505
vn 0.7462 0.6627 0.0631
vn -0.5202 0.8540 -0.0074
vn -0.5208 0.8537 -0.0072
vn 0.5841 0.8086 0.0703
vn 0.7372 0.6745 0.0407
vn 0.6532 0.7492 0.1097
vn 0.8073 0.5827 0.0932
vn 0.6258 0.7681 0.1355
vn 0.6265 0.7669 0.1393
vn 0.6230 0.7702 0.1366
vn 0.6217 0.7698 0.1446
vn 0.6179 0.7734 0.1414
vn 0.6201 0.7717 0.1410
vn -0.4346 0.9006 -0.0002
vn 0.6331 0.7662 0.1106
vn 0.7682 0.6396 -0.0282
vn 0.7724 0.6345 0.0276
vn 0.7831 0.6194 0.0560
usemtl None.110
s 1
f 1//1 3//1 2//1
f 4//2 6//3 5//4
f 4//5 5//5 7//5
f 4//6 7//6 8//6
f 9//7 10//7 7//7
f 9//8 7//8 11//8
f 6//3 12//9 5//4
f 8//10 7//11 13//12
f 3//13 14//13 2//13
f 3//14 15//15 14//16
f 16//17 18//17 17//17
f 16//18 17//18 19//18
f 16//19 19//19 20//19
f 21//20 23//20 22//21
f 24//22 26//22 25//22
f 24//23 27//23 26//23
f 28//24 30//24 29//24
f 28//25 31//26 30//27
f 32//28 26//29 33//30
f 32//28 34//31 26//29
f 35//32 14//33 36//34
f 37//35 36//34 14//33
f 38//36 40//36 39//36
f 38//37 29//37 40//37
f 41//38 26//38 27//38
f 41//39 33//39 26//39
f 42//40 43//40 19//40
f 42//41 19//41 44//41
f 45//42 47//43 46//44
f 45//45 46//45 34//45
f 48//46 25//47 19//48
f 48//49 19//50 49//51
f 50//52 7//52 51//52
f 51//53 7//53 52//53
f 52//54 7//54 5//54
f 18//55 53//55 17//55
f 53//56 11//56 7//56
f 53//57 7//57 17//57
f 20//19 19//19 54//19
f 55//19 19//19 56//19
f 55//19 54//19 19//19
f 56//19 19//19 57//19
f 57//19 19//19 58//19
f 58//19 19//19 59//19
f 59//19 19//19 60//19
f 60//58 62//59 61//60
f 61//61 64//61 63//61
f 61//62 62//62 64//62
f 63//63 64//63 65//63
f 63//64 65//64 66//64
f 66//65 68//65 67//65
f 66//66 65//66 68//66
f 69//67 46//67 40//67
f 69//67 40//67 70//67
f 70//67 40//67 71//67
f 71//67 40//67 30//67
f 23//20 72//20 22//21
f 13//68 7//68 10//68
f 40//69 46//69 73//69
f 74//70 50//71 75//72
f 74//73 7//73 50//73
f 19//74 77//75 76//76
f 67//77 68//77 26//77
f 67//78 26//78 78//78
f 78//78 26//78 79//78
f 17//79 7//79 19//79
f 37//80 14//80 80//80
f 37//81 30//27 31//26
f 37//80 80//80 30//80
f 19//82 7//82 77//82
f 60//58 19//83 62//59
f 81//84 49//51 19//50
f 81//85 19//85 82//85
f 19//86 84//87 83//88
f 19//89 83//89 82//89
f 19//86 85//90 84//87
f 35//91 2//91 14//91
f 72//20 14//16 22//21
f 64//92 62//92 26//92
f 64//93 26//93 65//93
f 65//94 26//94 68//94
f 22//21 14//16 86//95
f 14//16 15//15 86//95
f 73//96 39//96 40//96
f 46//44 47//43 73//97
f 46//98 26//98 34//98
f 30//99 40//99 29//99
f 19//74 76//76 44//100
f 87//101 85//102 19//103
f 87//101 19//103 43//104
f 25//47 26//105 19//48
f 19//106 26//106 62//106
f 88//107 90//108 89//109
f 91//110 88//110 92//110
f 90//111 88//111 93//111
f 90//108 94//112 89//109
f 90//113 93//113 95//113
f 96//114 98//114 97//114
f 99//115 100//115 91//115
f 100//116 77//117 91//117
f 101//118 77//118 100//118
f 93//119 88//119 77//119
f 93//120 77//120 102//120
f 93//121 103//121 95//121
f 102//122 77//123 104//124
f 104//124 77//123 105//125
f 106//126 105//125 77//123
f 106//126 77//123 74//127
f 77//128 88//128 91//128
f 74//129 77//129 7//129
f 26//78 46//78 79//78
f 97//130 95//130 96//130
f 96//131 95//131 107//131
f 95//132 103//132 107//132
f 98//133 108//133 97//133
f 94//134 90//135 109//136
f 110//137 112//137 111//137
f 113//138 115//138 114//138
f 113//139 116//139 115//139
f 113//140 117//140 116//140
f 118//141 116//141 119//141
f 118//142 120//142 116//142
f 114//143 115//143 121//143
f 117//144 122//145 116//146
f 111//147 112//147 123//147
f 111//148 123//149 124//150
f 125//151 127//151 126//151
f 125//152 128//152 127//152
f 125//153 129//153 128//153
f 130//154 132//154 131//154
f 133//155 135//155 134//155
f 133//156 134//156 136//156
f 137//157 139//157 138//157
f 137//158 138//159 140//160
f 141//161 142//162 134//163
f 141//161 134//163 143//164
f 144//165 145//166 123//167
f 146//168 123//167 145//166
f 147//169 149//169 148//169
f 147//170 148//170 139//170
f 150//171 136//171 134//171
f 150//172 134//172 142//172
f 151//173 128//173 152//173
f 151//174 153//174 128//174
f 154//175 156//176 155//177
f 154//178 143//178 156//178
f 157//179 128//179 135//179
f 157//180 158//181 128//182
f 159//183 160//183 116//183
f 160//184 161//184 116//184
f 161//185 115//185 116//185
f 126//186 127//186 162//186
f 162//187 116//187 120//187
f 162//188 127//188 116//188
f 129//153 163//153 128//153
f 164//153 165//153 128//153
f 164//153 128//153 163//153
f 165//153 166//153 128//153
f 166//153 167//153 128//153
f 167//153 168//153 128//153
f 168//153 169//153 128//153
f 169//189 171//189 170//189
f 171//190 173//190 172//190
f 171//191 172//191 170//191
f 173//192 174//192 172//192
f 173//193 175//193 174//193
f 175//194 177//194 176//194
f 175//195 176//195 174//195
f 178//196 148//196 156//196
f 178//196 179//196 148//196
f 179//196 180//196 148//196
f 180//196 138//196 148//196
f 131//154 132//154 181//154
f 122//197 119//197 116//197
f 148//198 182//198 156//198
f 183//199 184//200 159//201
f 183//202 159//202 116//202
f 128//203 186//204 185//205
f 177//206 134//206 176//206
f 177//207 187//207 134//207
f 187//207 188//207 134//207
f 127//208 128//208 116//208
f 146//209 189//209 123//209
f 146//210 140//160 138//159
f 146//209 138//209 189//209
f 128//211 185//211 116//211
f 169//212 170//212 128//212
f 190//213 128//182 158//181
f 190//214 191//214 128//214
f 128//215 193//216 192//217
f 128//218 191//218 193//218
f 128//215 192//217 194//219
f 144//220 123//220 112//220
f 181//154 132//154 123//154
f 172//221 134//221 170//221
f 172//222 174//222 134//222
f 174//223 176//223 134//223
f 132//224 195//225 123//149
f 123//149 195//225 124//150
f 182//226 148//226 149//226
f 156//176 182//227 155//177
f 156//228 143//228 134//228
f 138//229 139//229 148//229
f 128//203 153//230 186//204
f 196//231 128//232 194//233
f 196//231 152//234 128//232
f 135//235 128//235 134//235
f 128//236 170//236 134//236
f 197//237 109//136 90//135
f 198//238 199//238 197//238
f 90//239 200//239 197//239
f 90//240 95//240 200//240
f 201//241 198//241 202//241
f 202//242 198//243 185//243
f 203//244 202//244 185//244
f 200//245 185//245 197//245
f 200//246 204//246 185//246
f 200//247 95//247 205//247
f 204//248 206//249 185//250
f 206//249 207//251 185//250
f 208//252 185//250 207//251
f 208//252 183//253 185//250
f 185//254 198//254 197//254
f 183//255 116//255 185//255
f 134//207 188//207 156//207
f 97//256 108//256 95//256
f 108//257 209//257 95//257
f 95//258 209//258 205//258
