# Blender v2.79 (sub 0) OBJ File: ''
# www.blender.org
mtllib crack_restart_keyway_415.mtl
o crack_restart_keyway_415
v 0.073545 -0.113087 -0.472461
v 0.072989 -0.113325 -0.459453
v 0.084898 -0.121241 -0.472461
v 0.147219 -0.162043 -0.087638
v 0.152211 -0.169017 -0.080782
v 0.150798 -0.164564 -0.087235
v 0.134415 -0.160642 -0.075732
v 0.143331 -0.159232 -0.088150
v 0.154210 -0.167189 -0.086931
v 0.139532 -0.156356 -0.088661
v 0.120406 -0.147382 -0.472461
v 0.108280 -0.138287 -0.472461
v 0.120406 -0.147382 -0.457089
v 0.073525 -0.113101 -0.238326
v 0.073883 -0.112763 -0.225319
v 0.092709 -0.129413 -0.139409
v 0.073107 -0.113251 -0.251334
v 0.072666 -0.113711 -0.446446
v 0.071423 -0.114530 -0.342386
v 0.090632 -0.132125 -0.376755
v 0.070510 -0.114883 -0.355393
v 0.071427 -0.114307 -0.329378
v 0.071417 -0.114533 -0.420431
v 0.120406 -0.147382 -0.410975
v 0.071848 -0.114042 -0.433438
v 0.070908 -0.114633 -0.407423
v 0.070849 -0.114847 -0.368401
v 0.070278 -0.115029 -0.381408
v 0.072972 -0.113493 -0.264341
v 0.072710 -0.113501 -0.277349
v 0.076516 -0.111109 -0.121259
v 0.075545 -0.111668 -0.134267
v 0.078405 -0.109875 -0.094934
v 0.077548 -0.110247 -0.108252
v 0.071620 -0.114421 -0.316371
v 0.146528 -0.173947 -0.061449
v 0.135867 -0.170880 -0.048544
v 0.144285 -0.175755 -0.052971
v 0.148185 -0.172552 -0.068125
v 0.149963 -0.171009 -0.074980
v 0.120866 -0.146923 -0.098614
v 0.114613 -0.144505 -0.094836
v 0.122213 -0.145575 -0.094013
v 0.120406 -0.147382 -0.103551
v 0.118735 -0.145741 -0.090759
v 0.126596 -0.147768 -0.091753
v 0.120406 -0.147382 -0.118922
v 0.120406 -0.147382 -0.134293
v 0.120406 -0.147382 -0.149664
v 0.120406 -0.147382 -0.165036
v 0.120406 -0.147382 -0.180407
v 0.120406 -0.147382 -0.195778
v 0.120406 -0.147382 -0.211149
v 0.120406 -0.147382 -0.226521
v 0.120406 -0.147382 -0.241892
v 0.120406 -0.147382 -0.257263
v 0.120406 -0.147382 -0.272634
v 0.072489 -0.113836 -0.290356
v 0.120406 -0.147382 -0.288006
v 0.120406 -0.147382 -0.303377
v 0.120406 -0.147382 -0.318748
v 0.120406 -0.147382 -0.334119
v 0.120406 -0.147382 -0.349490
v 0.120406 -0.147382 -0.364862
v 0.120406 -0.147382 -0.380233
v 0.120406 -0.147382 -0.395604
v 0.120406 -0.147382 -0.426347
v 0.120406 -0.147382 -0.441718
v 0.135309 -0.153113 -0.089234
v 0.076671 -0.110685 -0.085553
v 0.080383 -0.128920 -0.047680
v 0.134142 -0.162932 -0.069686
v 0.131068 -0.149873 -0.089874
v 0.111675 -0.143752 -0.082116
v 0.109339 -0.141361 -0.089225
v 0.074382 -0.112521 -0.184890
v 0.074679 -0.112263 -0.173289
v 0.074005 -0.112687 -0.199304
v 0.074290 -0.112660 -0.191391
v 0.074897 -0.112254 -0.166630
v 0.096031 -0.129291 -0.472461
v 0.103495 -0.134761 -0.472461
v 0.071868 -0.114029 -0.303364
v 0.070761 -0.114895 -0.394416
v 0.075346 -0.111955 -0.141541
v 0.075023 -0.112047 -0.147274
v 0.074094 -0.112791 -0.217000
v 0.076732 -0.124428 -0.052170
v 0.071806 -0.117343 -0.059569
v 0.069275 -0.113925 -0.061714
v 0.073184 -0.112236 -0.073478
v 0.073184 -0.112236 -0.073478
v 0.143033 -0.176643 -0.048654
v 0.142327 -0.177113 -0.044394
v 0.140767 -0.177805 -0.035875
v 0.089591 -0.138756 -0.038597
v 0.104490 -0.151950 -0.027917
v 0.139343 -0.178523 -0.027365
v 0.125036 -0.168069 -0.018334
v 0.135867 -0.170880 -0.048544
v 0.138003 -0.179659 -0.017789
v 0.139343 -0.178523 -0.027365
v 0.075049 -0.112153 -0.153619
v 0.074925 -0.112107 -0.160281
v 0.074116 -0.112729 -0.209923
v 0.076671 -0.110685 -0.085553
v 0.134142 -0.162932 -0.069686
v 0.073545 -0.113087 -0.472461
v 0.084898 -0.121241 -0.472461
v 0.072989 -0.113325 -0.459453
v 0.147219 -0.162043 -0.087638
v 0.150798 -0.164564 -0.087235
v 0.152211 -0.169017 -0.080782
v 0.134415 -0.160642 -0.075732
v 0.143331 -0.159232 -0.088150
v 0.154210 -0.167189 -0.086931
v 0.139532 -0.156356 -0.088661
v 0.120406 -0.147382 -0.472461
v 0.120406 -0.147382 -0.457089
v 0.108280 -0.138287 -0.472461
v 0.073525 -0.113101 -0.238326
v 0.092709 -0.129413 -0.139409
v 0.073883 -0.112763 -0.225319
v 0.073107 -0.113251 -0.251334
v 0.072666 -0.113711 -0.446446
v 0.071423 -0.114530 -0.342386
v 0.070510 -0.114883 -0.355393
v 0.090632 -0.132125 -0.376755
v 0.071427 -0.114307 -0.329378
v 0.071417 -0.114533 -0.420431
v 0.071848 -0.114042 -0.433438
v 0.120406 -0.147382 -0.410975
v 0.070908 -0.114633 -0.407423
v 0.070849 -0.114847 -0.368401
v 0.070278 -0.115029 -0.381408
v 0.072972 -0.113493 -0.264341
v 0.072710 -0.113501 -0.277349
v 0.076516 -0.111109 -0.121259
v 0.075545 -0.111668 -0.134267
v 0.078405 -0.109875 -0.094934
v 0.077548 -0.110247 -0.108252
v 0.071620 -0.114421 -0.316371
v 0.146528 -0.173947 -0.061449
v 0.144285 -0.175755 -0.052971
v 0.148185 -0.172552 -0.068125
v 0.149963 -0.171009 -0.074980
v 0.120866 -0.146923 -0.098614
v 0.122213 -0.145575 -0.094013
v 0.114613 -0.144505 -0.094836
v 0.120406 -0.147382 -0.103551
v 0.118735 -0.145741 -0.090759
v 0.126596 -0.147768 -0.091753
v 0.120406 -0.147382 -0.118922
v 0.120406 -0.147382 -0.134293
v 0.120406 -0.147382 -0.149664
v 0.120406 -0.147382 -0.165036
v 0.120406 -0.147382 -0.180407
v 0.120406 -0.147382 -0.195778
v 0.120406 -0.147382 -0.211149
v 0.120406 -0.147382 -0.226521
v 0.120406 -0.147382 -0.241892
v 0.120406 -0.147382 -0.257263
v 0.072489 -0.113836 -0.290356
v 0.120406 -0.147382 -0.272634
v 0.120406 -0.147382 -0.288006
v 0.120406 -0.147382 -0.303377
v 0.120406 -0.147382 -0.318748
v 0.120406 -0.147382 -0.334119
v 0.120406 -0.147382 -0.349490
v 0.120406 -0.147382 -0.364862
v 0.120406 -0.147382 -0.380233
v 0.120406 -0.147382 -0.395604
v 0.120406 -0.147382 -0.426347
v 0.120406 -0.147382 -0.441718
v 0.135309 -0.153113 -0.089234
v 0.131068 -0.149873 -0.089874
v 0.111675 -0.143752 -0.082116
v 0.109339 -0.141361 -0.089225
v 0.074679 -0.112263 -0.173289
v 0.074382 -0.112521 -0.184890
v 0.074290 -0.112660 -0.191391
v 0.074005 -0.112687 -0.199304
v 0.074897 -0.112254 -0.166630
v 0.096031 -0.129291 -0.472461
v 0.103495 -0.134761 -0.472461
v 0.071868 -0.114029 -0.303364
v 0.070761 -0.114895 -0.394416
v 0.075346 -0.111955 -0.141541
v 0.075023 -0.112047 -0.147274
v 0.074094 -0.112791 -0.217000
v 0.143033 -0.176643 -0.048654
v 0.142327 -0.177113 -0.044394
v 0.140767 -0.177805 -0.035875
v 0.075049 -0.112153 -0.153619
v 0.074925 -0.112107 -0.160281
v 0.074116 -0.112729 -0.209923
vn 0.5829 0.8116 0.0398
vn 0.5826 0.8118 0.0396
vn 0.5821 0.8122 0.0389
vn 0.4907 0.7637 0.4196
vn 0.4814 0.7651 0.4277
vn 0.4886 0.7554 0.4366
vn 0.5375 0.7445 0.3961
vn 0.5019 0.7419 0.4446
vn 0.5042 0.7401 0.4449
vn 0.5000 0.7423 0.4461
vn 0.6000 0.8000 0.0000
vn 0.7532 0.6567 -0.0378
vn 0.7366 0.6756 -0.0315
vn 0.5820 0.8123 0.0386
vn 0.6091 0.7905 -0.0642
vn 0.6626 0.7489 -0.0130
vn 0.5496 0.8339 0.0497
vn 0.5530 0.8327 0.0280
vn 0.5529 0.8329 0.0254
vn 0.5529 0.8329 0.0256
vn 0.6623 0.7490 0.0193
vn 0.6479 0.7607 -0.0391
vn 0.6805 0.7326 -0.0142
vn 0.7032 0.7107 -0.0205
vn 0.7042 0.7052 -0.0829
vn 0.7038 0.7055 -0.0836
vn 0.9299 -0.3646 -0.0496
vn 0.6754 0.7374 -0.0036
vn 0.5942 0.7400 0.3150
vn 0.5971 0.7343 0.3229
vn 0.5958 0.7355 0.3226
vn 0.5516 0.7899 0.2680
vn 0.5255 0.7973 0.2970
vn 0.5163 0.7970 0.3133
vn 0.4816 0.7546 0.4457
vn 0.1661 0.9322 -0.3217
vn 0.2966 0.9480 -0.1158
vn 0.1185 0.9772 0.1765
vn 0.2749 0.8995 0.3397
vn 0.5443 0.8389 0.0000
vn 0.5735 0.8192 0.0000
vn 0.5737 0.8191 -0.0002
vn 0.5726 0.8198 0.0014
vn 0.4560 0.8900 0.0000
vn 0.5660 0.8244 0.0000
vn 0.5058 0.7388 0.4453
vn 0.5948 0.7456 0.3007
vn 0.1345 0.8034 0.5800
vn 0.4708 0.7856 0.4015
vn 0.6835 0.7055 0.1873
vn 0.2471 0.9688 -0.0211
vn 0.4995 0.7421 0.4469
vn 0.5030 0.8005 0.3259
vn 0.4380 0.8857 0.1540
vn 0.4012 0.9066 -0.1308
vn 0.6856 0.7277 0.0195
vn 0.5119 0.8583 0.0347
vn 0.7180 0.6922 -0.0731
vn 0.7215 0.6916 -0.0339
vn 0.7147 0.6988 -0.0281
vn 0.7149 0.6987 -0.0281
vn 0.7116 0.7021 -0.0259
vn 0.7105 0.7033 -0.0251
vn 0.7126 0.7012 -0.0243
vn 0.5855 0.8097 0.0409
vn 0.5977 0.7996 0.0579
vn 0.7404 0.6715 -0.0299
vn 0.5674 0.8234 0.0090
vn 0.5921 0.8058 0.0101
vn 0.5928 0.8053 0.0092
vn 0.5911 0.8065 0.0119
vn 0.5932 0.8050 0.0084
vn 0.5789 0.8144 0.0405
vn 0.6871 0.7125 -0.1424
vn 0.5622 0.8250 -0.0566
vn 0.6065 0.7941 -0.0407
vn -0.0213 0.9353 0.3533
vn 0.6322 0.7558 0.1707
vn 0.6386 0.7689 0.0316
vn 0.5528 0.8330 0.0230
vn 0.5745 0.8064 0.1403
vn 0.7108 0.7018 -0.0474
vn 0.7111 0.7015 -0.0471
vn 0.7111 0.7012 -0.0510
vn 0.7112 0.7011 -0.0513
vn 0.7009 0.7131 -0.0154
vn 0.5574 0.7681 0.3152
vn 0.6054 0.7364 0.3020
vn 0.6565 0.6847 0.3165
vn -0.6565 -0.6847 -0.3165
vn 0.6174 0.7642 0.1866
vn 0.6175 0.7643 0.1859
vn 0.6179 0.7641 0.1854
vn 0.5959 0.7348 0.3240
vn 0.6226 0.7625 0.1760
vn 0.5874 0.7725 0.2411
vn 0.6106 0.7564 0.2346
vn 0.6313 0.7568 0.1695
vn 0.5736 0.8087 0.1304
vn -0.5736 -0.8087 -0.1304
vn 0.6515 0.7373 0.1786
vn -0.6515 -0.7373 -0.1786
vn 0.6470 0.7449 0.1626
vn -0.6470 -0.7449 -0.1626
vn 0.7026 0.7115 -0.0090
vn 0.7025 0.7117 -0.0086
vn 0.7024 0.7117 -0.0084
vn 0.7023 0.7118 -0.0082
vn 0.6596 0.7516 0.0039
vn 0.6855 0.7280 -0.0085
vn 0.5689 0.7993 0.1937
vn 0.6184 0.7850 -0.0355
vn 0.7089 0.7050 -0.0195
vn 0.7486 0.5949 0.2926
vn -0.6054 -0.7364 -0.3020
vn -0.7486 -0.5949 -0.2926
vn -0.5689 -0.7993 -0.1937
vn -0.5874 -0.7725 -0.2411
vn -0.5829 -0.8116 -0.0398
vn -0.5827 -0.8118 -0.0393
vn -0.5826 -0.8118 -0.0396
vn -0.4891 -0.7640 -0.4208
vn -0.4907 -0.7637 -0.4196
vn -0.4888 -0.7640 -0.4211
vn -0.4814 -0.7651 -0.4277
vn -0.4886 -0.7554 -0.4366
vn -0.5375 -0.7445 -0.3961
vn -0.5019 -0.7419 -0.4446
vn -0.5000 -0.7423 -0.4461
vn -0.5042 -0.7401 -0.4449
vn -0.6000 -0.8000 0.0000
vn -0.7532 -0.6567 0.0378
vn -0.7366 -0.6756 0.0315
vn -0.5851 -0.8100 -0.0407
vn -0.6091 -0.7905 0.0642
vn -0.6626 -0.7489 0.0130
vn -0.5496 -0.8339 -0.0497
vn -0.5530 -0.8327 -0.0280
vn -0.5529 -0.8329 -0.0256
vn -0.5529 -0.8329 -0.0254
vn -0.6623 -0.7490 -0.0193
vn -0.6479 -0.7607 0.0391
vn -0.6805 -0.7326 0.0142
vn -0.7032 -0.7107 0.0205
vn -0.7041 -0.7052 0.0830
vn -0.7042 -0.7052 0.0829
vn -0.7040 -0.7053 0.0832
vn -0.7038 -0.7055 0.0836
vn -0.9299 0.3646 0.0496
vn -0.6754 -0.7374 0.0036
vn -0.5942 -0.7400 -0.3150
vn -0.5958 -0.7355 -0.3226
vn -0.5971 -0.7343 -0.3229
vn -0.5516 -0.7899 -0.2680
vn -0.5255 -0.7973 -0.2970
vn -0.5163 -0.7970 -0.3133
vn -0.4816 -0.7546 -0.4457
vn -0.1661 -0.9322 0.3217
vn -0.2966 -0.9480 0.1158
vn -0.1185 -0.9772 -0.1765
vn -0.2749 -0.8995 -0.3397
vn -0.5443 -0.8389 0.0000
vn -0.5735 -0.8192 0.0000
vn -0.4560 -0.8900 -0.0000
vn -0.5660 -0.8244 -0.0000
vn -0.5058 -0.7388 -0.4453
vn -0.5948 -0.7456 -0.3007
vn -0.1345 -0.8034 -0.5800
vn -0.4708 -0.7856 -0.4015
vn -0.6835 -0.7055 -0.1873
vn -0.2471 -0.9688 0.0211
vn -0.4995 -0.7421 -0.4469
vn -0.5030 -0.8005 -0.3259
vn -0.4380 -0.8857 -0.1540
vn -0.4012 -0.9066 0.1308
vn -0.6856 -0.7277 -0.0195
vn -0.5119 -0.8583 -0.0347
vn -0.7180 -0.6922 0.0731
vn -0.7215 -0.6916 0.0339
vn -0.7147 -0.6988 0.0281
vn -0.7116 -0.7021 0.0259
vn -0.7149 -0.6987 0.0281
vn -0.7105 -0.7033 0.0251
vn -0.7125 -0.7013 0.0238
vn -0.7097 -0.7043 0.0203
vn -0.7126 -0.7012 0.0243
vn -0.5855 -0.8097 -0.0409
vn -0.5977 -0.7996 -0.0579
vn -0.7404 -0.6715 0.0299
vn -0.5674 -0.8234 -0.0090
vn -0.5911 -0.8065 -0.0119
vn -0.5932 -0.8050 -0.0084
vn -0.5789 -0.8144 -0.0405
vn -0.6871 -0.7125 0.1424
vn -0.5622 -0.8250 0.0566
vn -0.6065 -0.7941 0.0407
vn 0.0213 -0.9353 -0.3533
vn -0.6322 -0.7558 -0.1707
vn -0.6386 -0.7689 -0.0316
vn -0.5528 -0.8330 -0.0230
vn -0.5745 -0.8064 -0.1403
vn -0.7108 -0.7018 0.0474
vn -0.7111 -0.7012 0.0510
vn -0.7111 -0.7015 0.0471
vn -0.7112 -0.7011 0.0513
vn -0.7009 -0.7131 0.0154
vn -0.5574 -0.7681 -0.3152
vn -0.6174 -0.7642 -0.1866
vn -0.5959 -0.7348 -0.3240
vn -0.6226 -0.7625 -0.1760
vn -0.6245 -0.7613 -0.1746
vn -0.6299 -0.7577 -0.1706
vn -0.6106 -0.7564 -0.2346
vn -0.6313 -0.7568 -0.1695
vn -0.7026 -0.7115 0.0090
vn -0.7024 -0.7117 0.0084
vn -0.7025 -0.7117 0.0086
vn -0.7023 -0.7118 0.0082
vn -0.6596 -0.7516 -0.0039
vn -0.6855 -0.7280 0.0085
vn -0.6184 -0.7850 0.0355
vn -0.7089 -0.7050 0.0195
usemtl None.071
s 1
f 1//1 2//2 3//3
f 4//4 5//4 6//4
f 4//5 7//5 5//5
f 4//6 8//6 7//6
f 6//7 5//7 9//7
f 8//8 10//9 7//10
f 11//11 12//11 13//11
f 14//12 15//12 16//12
f 14//13 16//13 17//13
f 18//14 3//3 2//2
f 19//15 20//15 21//15
f 19//16 22//16 20//16
f 23//17 24//17 25//17
f 23//18 26//19 24//20
f 27//21 21//21 20//21
f 27//22 20//22 28//22
f 29//23 16//23 30//23
f 29//24 17//24 16//24
f 31//25 16//25 32//25
f 31//26 33//26 16//26
f 31//27 34//27 33//27
f 35//28 20//28 22//28
f 36//29 37//30 38//31
f 36//32 7//32 37//32
f 36//33 39//33 7//33
f 39//34 40//34 7//34
f 40//35 5//35 7//35
f 41//36 42//36 43//36
f 41//37 44//37 42//37
f 43//38 42//38 45//38
f 43//39 45//39 46//39
f 47//40 48//40 16//40
f 47//40 16//40 44//40
f 49//40 50//40 16//40
f 49//40 16//40 48//40
f 50//40 51//40 16//40
f 51//40 52//40 16//40
f 52//40 53//40 16//40
f 53//40 54//40 16//40
f 54//40 55//40 16//40
f 56//41 57//41 58//42
f 56//41 58//42 55//43
f 57//41 59//41 58//42
f 59//41 60//41 58//42
f 61//44 62//44 20//44
f 61//44 20//44 60//44
f 62//44 63//44 20//44
f 63//44 64//44 20//44
f 64//44 65//44 20//44
f 65//44 66//44 20//44
f 66//44 24//44 20//44
f 67//45 68//45 25//45
f 67//45 25//45 24//45
f 10//9 69//46 7//10
f 70//47 71//47 72//47
f 46//48 7//48 73//48
f 46//49 74//49 7//49
f 33//50 70//50 75//50
f 46//51 45//51 74//51
f 7//10 69//46 73//52
f 7//53 74//53 72//53
f 75//54 74//54 45//54
f 75//55 45//55 42//55
f 75//56 70//56 74//56
f 75//57 44//57 16//57
f 75//58 16//58 33//58
f 16//59 76//59 77//59
f 16//60 78//61 79//62
f 16//60 79//62 76//63
f 16//64 77//64 80//64
f 18//65 81//65 3//65
f 18//66 25//66 81//66
f 68//45 13//45 25//45
f 58//67 30//67 16//67
f 58//42 16//68 55//43
f 13//69 82//70 81//71
f 13//69 12//72 82//70
f 13//73 81//73 25//73
f 70//74 72//74 74//74
f 58//75 60//75 20//75
f 58//76 20//76 83//76
f 37//77 7//77 72//77
f 42//78 44//78 75//78
f 84//79 28//79 20//79
f 84//80 24//20 26//19
f 84//81 20//81 24//81
f 85//82 32//83 16//84
f 85//82 16//84 86//85
f 15//86 87//86 16//86
f 70//87 88//87 71//87
f 88//88 70//88 89//88
f 90//89 89//89 91//89
f 90//90 92//90 89//90
f 93//91 37//92 94//93
f 93//94 38//31 37//30
f 94//93 37//92 95//95
f 71//96 96//96 72//96
f 97//97 37//97 72//97
f 95//98 37//98 98//98
f 99//99 37//99 97//99
f 99//100 97//100 100//100
f 99//101 101//101 98//101
f 99//102 102//102 101//102
f 99//103 98//103 37//103
f 99//104 100//104 102//104
f 86//105 16//106 103//107
f 103//107 16//106 104//108
f 78//109 16//109 105//109
f 105//110 16//110 87//110
f 97//111 72//111 96//111
f 20//112 35//112 83//112
f 104//113 16//113 80//113
f 91//114 89//114 70//114
f 89//115 106//115 88//115
f 89//116 92//116 106//116
f 96//117 107//117 97//117
f 96//118 71//118 107//118
f 108//119 109//120 110//121
f 111//122 112//123 113//124
f 111//122 113//124 114//125
f 111//126 114//126 115//126
f 112//127 116//127 113//127
f 115//128 114//129 117//130
f 118//131 119//131 120//131
f 121//132 122//132 123//132
f 121//133 124//133 122//133
f 125//134 110//121 109//120
f 126//135 127//135 128//135
f 126//136 128//136 129//136
f 130//137 131//137 132//137
f 130//138 132//139 133//140
f 134//141 128//141 127//141
f 134//142 135//142 128//142
f 136//143 137//143 122//143
f 136//144 122//144 124//144
f 138//145 139//146 122//147
f 138//145 122//147 140//148
f 138//149 140//149 141//149
f 142//150 129//150 128//150
f 143//151 144//152 100//153
f 143//154 100//154 114//154
f 143//155 114//155 145//155
f 145//156 114//156 146//156
f 146//157 114//157 113//157
f 147//158 148//158 149//158
f 147//159 149//159 150//159
f 148//160 151//160 149//160
f 148//161 152//161 151//161
f 153//162 122//162 154//162
f 153//162 150//162 122//162
f 155//162 122//162 156//162
f 155//162 154//162 122//162
f 156//162 122//162 157//162
f 157//162 122//162 158//162
f 158//162 122//162 159//162
f 159//162 122//162 160//162
f 160//162 122//162 161//162
f 162//163 163//163 164//163
f 162//163 161//163 163//163
f 164//163 163//163 165//163
f 165//163 163//163 166//163
f 167//164 128//164 168//164
f 167//164 166//164 128//164
f 168//164 128//164 169//164
f 169//164 128//164 170//164
f 170//164 128//164 171//164
f 171//164 128//164 172//164
f 172//164 128//164 132//164
f 173//165 131//165 174//165
f 173//165 132//165 131//165
f 117//130 114//129 175//166
f 106//167 107//167 71//167
f 152//168 176//168 114//168
f 152//169 114//169 177//169
f 140//170 178//170 106//170
f 152//171 177//171 151//171
f 114//129 176//172 175//166
f 114//173 107//173 177//173
f 178//174 151//174 177//174
f 178//175 149//175 151//175
f 178//176 177//176 106//176
f 178//177 122//177 150//177
f 178//178 140//178 122//178
f 122//179 179//179 180//179
f 122//180 181//181 182//182
f 122//180 180//183 181//181
f 122//184 183//185 179//186
f 125//134 109//120 184//187
f 125//188 184//188 131//188
f 174//165 131//165 119//165
f 163//189 122//189 137//189
f 163//190 161//190 122//190
f 119//191 184//191 185//191
f 119//192 185//192 120//192
f 119//193 131//193 184//193
f 106//194 177//194 107//194
f 163//195 128//195 166//195
f 163//196 186//196 128//196
f 100//197 107//197 114//197
f 149//198 178//198 150//198
f 187//199 128//199 135//199
f 187//200 133//140 132//139
f 187//201 132//201 128//201
f 188//202 122//203 139//204
f 188//202 189//205 122//203
f 123//206 122//206 190//206
f 106//207 71//207 88//207
f 191//208 192//208 100//208
f 191//209 100//153 144//152
f 192//210 193//211 100//212
f 97//213 107//213 100//213
f 193//211 102//214 100//212
f 189//215 194//216 122//217
f 194//216 195//218 122//217
f 182//219 196//219 122//219
f 196//220 190//220 122//220
f 128//221 186//221 142//221
f 195//222 183//185 122//184
