# Blender v2.79 (sub 0) OBJ File: ''
# www.blender.org
mtllib crack_restart_keyway_525.mtl
o crack_restart_keyway_525
v 0.073467 -0.113142 -0.472461
v 0.072986 -0.113327 -0.459453
v 0.084785 -0.121312 -0.472461
v 0.147226 -0.162039 -0.087632
v 0.101748 -0.153255 0.005658
v 0.152178 -0.169048 -0.080800
v 0.150748 -0.164609 -0.087278
v 0.143382 -0.159202 -0.088100
v 0.131068 -0.149873 -0.089874
v 0.127483 -0.150692 -0.086891
v 0.135329 -0.153101 -0.089217
v 0.126540 -0.147825 -0.091832
v 0.154210 -0.167189 -0.086931
v 0.139556 -0.156341 -0.088642
v 0.120406 -0.147382 -0.426347
v 0.095901 -0.129394 -0.472461
v 0.120406 -0.147382 -0.103551
v 0.120406 -0.147382 -0.118922
v 0.079864 -0.114438 -0.104310
v 0.114630 -0.144477 -0.094848
v 0.120866 -0.146923 -0.098614
v 0.120406 -0.147382 -0.472461
v 0.108171 -0.138374 -0.472461
v 0.120406 -0.147382 -0.457089
v 0.072357 -0.113930 -0.290356
v 0.072674 -0.113523 -0.277349
v 0.104162 -0.140691 -0.280925
v 0.071636 -0.114412 -0.316371
v 0.072672 -0.113707 -0.446446
v 0.071877 -0.114024 -0.433438
v 0.071645 -0.114407 -0.342386
v 0.120406 -0.147382 -0.334119
v 0.070645 -0.114798 -0.355393
v 0.071501 -0.114260 -0.329378
v 0.071469 -0.114504 -0.420431
v 0.070721 -0.114917 -0.368401
v 0.091335 -0.129132 -0.420534
v 0.070205 -0.115074 -0.381408
v 0.073066 -0.113427 -0.264341
v 0.073121 -0.113242 -0.251334
v 0.076294 -0.111177 -0.096183
v 0.074751 -0.111976 -0.081618
v 0.077128 -0.110544 -0.108252
v 0.074089 -0.112701 -0.212311
v 0.120406 -0.147382 -0.226521
v 0.073898 -0.112754 -0.225319
v 0.074030 -0.112671 -0.199304
v 0.146659 -0.173832 -0.061433
v 0.148183 -0.172554 -0.068126
v 0.144566 -0.175310 -0.046121
v 0.150204 -0.170799 -0.074848
v 0.122213 -0.145575 -0.094013
v 0.115965 -0.144849 -0.090503
v 0.120406 -0.147382 -0.134293
v 0.120406 -0.147382 -0.149664
v 0.102595 -0.136681 -0.141434
v 0.120406 -0.147382 -0.165036
v 0.120406 -0.147382 -0.180407
v 0.093792 -0.129828 -0.176009
v 0.101548 -0.134147 -0.164802
v 0.120406 -0.147382 -0.195778
v 0.120406 -0.147382 -0.211149
v 0.120406 -0.147382 -0.241892
v 0.120406 -0.147382 -0.257263
v 0.120406 -0.147382 -0.272634
v 0.120406 -0.147382 -0.288006
v 0.120406 -0.147382 -0.303377
v 0.120406 -0.147382 -0.318748
v 0.120406 -0.147382 -0.349490
v 0.120406 -0.147382 -0.364862
v 0.120406 -0.147382 -0.380233
v 0.120406 -0.147382 -0.395604
v 0.120406 -0.147382 -0.410975
v 0.120406 -0.147382 -0.441718
v 0.069435 -0.114517 -0.028215
v 0.070472 -0.112499 -0.050673
v 0.070931 -0.114618 -0.407423
v 0.074257 -0.112582 -0.186296
v 0.074637 -0.112289 -0.173289
v 0.101381 -0.135215 -0.155350
v 0.074788 -0.112328 -0.166404
v 0.074810 -0.112189 -0.160281
v 0.075008 -0.112180 -0.153704
v 0.073497 -0.113121 -0.238326
v 0.103547 -0.134986 -0.472461
v 0.076510 -0.111113 -0.121259
v 0.070745 -0.114905 -0.394416
v 0.075535 -0.111675 -0.134267
v 0.075209 -0.111968 -0.145304
v 0.066423 -0.115312 0.016002
v 0.071926 -0.124578 0.057075
v 0.066442 -0.115960 0.025381
v 0.066479 -0.114064 -0.001444
v 0.135824 -0.181413 0.019165
v 0.137409 -0.180148 0.006518
v 0.139695 -0.178322 -0.011429
v 0.134251 -0.182763 0.032773
v 0.110276 -0.166848 0.081099
v 0.064993 -0.116520 0.052203
v 0.066442 -0.115960 0.025381
v 0.143294 -0.175889 -0.038657
v 0.141404 -0.176853 -0.027586
v 0.133298 -0.183335 0.043011
v 0.131162 -0.184603 0.066781
v 0.129772 -0.185778 0.086263
v 0.131885 -0.184194 0.057478
v 0.131162 -0.184603 0.066781
v 0.073467 -0.113142 -0.472461
v 0.084785 -0.121312 -0.472461
v 0.072986 -0.113327 -0.459453
v 0.147226 -0.162039 -0.087632
v 0.152178 -0.169048 -0.080800
v 0.101748 -0.153255 0.005658
v 0.150748 -0.164609 -0.087278
v 0.143382 -0.159202 -0.088100
v 0.131068 -0.149873 -0.089874
v 0.135329 -0.153101 -0.089217
v 0.127483 -0.150692 -0.086891
v 0.126540 -0.147825 -0.091832
v 0.154210 -0.167189 -0.086931
v 0.139556 -0.156341 -0.088642
v 0.120406 -0.147382 -0.426347
v 0.095901 -0.129394 -0.472461
v 0.120406 -0.147382 -0.103551
v 0.079864 -0.114438 -0.104310
v 0.120406 -0.147382 -0.118922
v 0.120866 -0.146923 -0.098614
v 0.114630 -0.144477 -0.094848
v 0.120406 -0.147382 -0.472461
v 0.120406 -0.147382 -0.457089
v 0.108171 -0.138374 -0.472461
v 0.072357 -0.113930 -0.290356
v 0.104162 -0.140691 -0.280925
v 0.072674 -0.113523 -0.277349
v 0.071636 -0.114412 -0.316371
v 0.072672 -0.113707 -0.446446
v 0.071877 -0.114024 -0.433438
v 0.071645 -0.114407 -0.342386
v 0.070645 -0.114798 -0.355393
v 0.120406 -0.147382 -0.334119
v 0.071501 -0.114260 -0.329378
v 0.071469 -0.114504 -0.420431
v 0.070721 -0.114917 -0.368401
v 0.091335 -0.129132 -0.420534
v 0.070205 -0.115074 -0.381408
v 0.073066 -0.113427 -0.264341
v 0.073121 -0.113242 -0.251334
v 0.076294 -0.111177 -0.096183
v 0.074751 -0.111976 -0.081618
v 0.077128 -0.110544 -0.108252
v 0.074089 -0.112701 -0.212311
v 0.073898 -0.112754 -0.225319
v 0.120406 -0.147382 -0.226521
v 0.074030 -0.112671 -0.199304
v 0.146659 -0.173832 -0.061433
v 0.148183 -0.172554 -0.068126
v 0.144566 -0.175310 -0.046121
v 0.150204 -0.170799 -0.074848
v 0.122213 -0.145575 -0.094013
v 0.115965 -0.144849 -0.090503
v 0.120406 -0.147382 -0.134293
v 0.102595 -0.136681 -0.141434
v 0.120406 -0.147382 -0.149664
v 0.120406 -0.147382 -0.165036
v 0.093792 -0.129828 -0.176009
v 0.120406 -0.147382 -0.180407
v 0.101548 -0.134147 -0.164802
v 0.120406 -0.147382 -0.195778
v 0.120406 -0.147382 -0.211149
v 0.120406 -0.147382 -0.241892
v 0.120406 -0.147382 -0.257263
v 0.120406 -0.147382 -0.272634
v 0.120406 -0.147382 -0.288006
v 0.120406 -0.147382 -0.303377
v 0.120406 -0.147382 -0.318748
v 0.120406 -0.147382 -0.349490
v 0.120406 -0.147382 -0.364862
v 0.120406 -0.147382 -0.380233
v 0.120406 -0.147382 -0.395604
v 0.120406 -0.147382 -0.410975
v 0.120406 -0.147382 -0.441718
v 0.069435 -0.114517 -0.028215
v 0.070472 -0.112499 -0.050673
v 0.070931 -0.114618 -0.407423
v 0.074257 -0.112582 -0.186296
v 0.074637 -0.112289 -0.173289
v 0.101381 -0.135215 -0.155350
v 0.074810 -0.112189 -0.160281
v 0.074788 -0.112328 -0.166404
v 0.075008 -0.112180 -0.153704
v 0.073497 -0.113121 -0.238326
v 0.103547 -0.134986 -0.472461
v 0.076510 -0.111113 -0.121259
v 0.070745 -0.114905 -0.394416
v 0.075535 -0.111675 -0.134267
v 0.075209 -0.111968 -0.145304
v 0.066423 -0.115312 0.016002
v 0.066479 -0.114064 -0.001444
v 0.137409 -0.180148 0.006518
v 0.135824 -0.181413 0.019165
v 0.139695 -0.178322 -0.011429
v 0.134251 -0.182763 0.032773
v 0.143294 -0.175889 -0.038657
v 0.141404 -0.176853 -0.027586
v 0.133298 -0.183335 0.043011
v 0.131885 -0.184194 0.057478
vn -0.5850 -0.8104 -0.0332
vn -0.6565 -0.7106 -0.2531
vn -0.5117 -0.7572 -0.4059
vn -0.5178 -0.7521 -0.4077
vn -0.5127 -0.7575 -0.4042
vn -0.5658 -0.7998 -0.2005
vn -0.3925 -0.6505 -0.6503
vn -0.1898 -0.8645 -0.4654
vn -0.5212 -0.7533 -0.4011
vn -0.5681 -0.7979 -0.2016
vn -0.5683 -0.7976 -0.2021
vn -0.5775 -0.7908 -0.2029
vn -0.5745 -0.8183 -0.0188
vn -0.5881 -0.8088 -0.0030
vn -0.5899 -0.8074 -0.0035
vn -0.5892 -0.8080 -0.0021
vn -0.6306 -0.7761 0.0000
vn -0.3012 -0.9465 0.1161
vn -0.6212 -0.7680 -0.1559
vn -0.5929 -0.8053 0.0000
vn -0.5928 -0.8054 -0.0008
vn -0.6489 -0.7599 0.0391
vn -0.6506 -0.7584 0.0386
vn -0.6502 -0.7588 0.0396
vn -0.6490 -0.7601 0.0321
vn -0.5602 -0.8266 -0.0544
vn -0.5606 -0.8265 -0.0512
vn -0.5608 -0.8265 -0.0483
vn -0.5668 -0.8210 0.0683
vn -0.5606 -0.8281 0.0032
vn -0.5608 -0.8280 -0.0003
vn -0.5608 -0.8280 0.0029
vn -0.5610 -0.8264 -0.0481
vn -0.5603 -0.8283 0.0043
vn -0.5136 -0.8575 0.0307
vn -0.6554 -0.7549 0.0241
vn -0.6546 -0.7558 0.0139
vn -0.6551 -0.7554 0.0135
vn -0.6514 -0.7583 0.0252
vn -0.8018 -0.5860 -0.1171
vn -0.7719 -0.6298 -0.0864
vn -0.5610 -0.8278 -0.0039
vn -0.5994 -0.8003 0.0112
vn -0.5970 -0.8022 0.0120
vn -0.5986 -0.8010 -0.0008
vn -0.5995 -0.8003 -0.0009
vn -0.7169 -0.6363 -0.2847
vn -0.5960 -0.7874 -0.1575
vn -0.5935 -0.7885 -0.1613
vn -0.6001 -0.7833 -0.1623
vn -0.7877 -0.4954 -0.3662
vn -0.8123 -0.4287 -0.3955
vn -0.1703 -0.9311 0.3227
vn -0.2941 -0.8938 -0.3386
vn -0.1386 -0.9894 -0.0421
vn -0.5150 -0.8572 -0.0000
vn -0.5531 -0.8191 0.1521
vn -0.5506 -0.8348 0.0000
vn -0.5739 -0.8165 -0.0628
vn -0.5719 -0.8163 0.0812
vn -0.3809 -0.9246 -0.0000
vn -0.5317 -0.8469 0.0000
vn -0.5776 -0.7900 -0.2057
vn -0.5504 -0.8348 0.0089
vn -0.6827 -0.7122 -0.1632
vn -0.6324 -0.7684 -0.0982
vn -0.2941 -0.8500 -0.4371
vn -0.4128 -0.9001 -0.1397
vn -0.3227 -0.9394 -0.1158
vn -0.5424 -0.7338 -0.4090
vn -0.5927 -0.8046 -0.0359
vn -0.5901 -0.8067 -0.0308
vn -0.5927 -0.8048 -0.0316
vn -0.6238 -0.7774 -0.0811
vn -0.6390 -0.7659 -0.0705
vn -0.5932 -0.8049 0.0159
vn -0.6721 -0.7396 0.0363
vn -0.3561 -0.9278 -0.1111
vn -0.6702 -0.7402 0.0532
vn -0.6553 -0.7553 0.0121
vn -0.6568 -0.7538 0.0206
vn -0.6543 -0.7560 0.0187
vn -0.6547 -0.7558 0.0101
vn -0.6570 -0.7536 0.0208
vn -0.5654 -0.8240 -0.0377
vn -0.6012 -0.7949 0.0817
vn -0.5906 -0.8070 -0.0010
vn -0.6585 -0.7523 -0.0218
vn -0.7005 -0.7136 -0.0014
vn 0.0722 -0.9912 -0.1107
vn -0.6691 -0.7293 0.1431
vn -0.6006 -0.7991 -0.0282
vn -0.5980 -0.8007 -0.0352
vn -0.8458 -0.5297 0.0634
vn -0.8457 -0.5298 0.0636
vn -0.8455 -0.5302 0.0632
vn -0.6728 -0.7388 0.0374
vn 0.2226 -0.9747 0.0193
vn 0.2318 -0.9726 0.0190
vn 0.2226 -0.9747 0.0192
vn -0.5960 -0.8019 0.0410
vn -0.6646 -0.7427 0.0819
vn -0.7384 -0.6714 -0.0622
vn -0.7385 -0.6721 -0.0531
vn -0.7380 -0.6727 -0.0529
vn -0.7638 -0.6440 -0.0429
vn -0.6354 -0.7701 -0.0571
vn -0.7389 -0.6709 -0.0624
vn -0.5936 -0.7909 -0.1489
vn -0.5925 -0.7906 -0.1546
vn -0.5941 -0.7897 -0.1530
vn -0.5923 -0.7905 -0.1559
vn -0.5947 -0.7903 -0.1472
vn -0.7283 -0.6840 -0.0409
vn -0.6402 -0.7654 -0.0655
vn -0.7406 -0.6698 -0.0540
vn 0.7406 0.6698 0.0540
vn -0.8153 -0.5660 -0.1223
vn -0.6004 -0.7829 -0.1631
vn -0.6058 -0.7770 -0.1711
vn -0.5877 -0.7978 -0.1347
vn -0.5768 -0.8135 -0.0738
vn -0.6483 -0.7610 0.0258
vn -0.6872 -0.7190 -0.1041
vn -0.6845 -0.7209 -0.1084
vn -0.6884 -0.7178 -0.1045
vn -0.6774 -0.7299 -0.0912
vn -0.6809 -0.7265 -0.0924
vn -0.6805 -0.7278 -0.0857
vn -0.6785 -0.7297 -0.0848
vn -0.6925 -0.7130 -0.1100
vn 0.6805 0.7278 0.0857
vn 0.6809 0.7265 0.0924
vn 0.6774 0.7299 0.0913
vn 0.5850 0.8104 0.0332
vn 0.6565 0.7106 0.2531
vn 0.5117 0.7572 0.4059
vn 0.5658 0.7998 0.2005
vn 0.5680 0.7982 0.2008
vn 0.5670 0.7988 0.2011
vn 0.3925 0.6505 0.6503
vn 0.1898 0.8645 0.4654
vn 0.5212 0.7533 0.4011
vn 0.5681 0.7979 0.2016
vn 0.5745 0.8183 0.0188
vn 0.5881 0.8088 0.0030
vn 0.5909 0.8068 0.0010
vn 0.5899 0.8074 0.0035
vn 0.6306 0.7761 0.0000
vn 0.3012 0.9465 -0.1161
vn 0.6212 0.7680 0.1559
vn 0.5929 0.8053 0.0000
vn 0.6489 0.7599 -0.0391
vn 0.6502 0.7588 -0.0396
vn 0.6506 0.7584 -0.0386
vn 0.6490 0.7601 -0.0321
vn 0.5602 0.8266 0.0544
vn 0.5608 0.8265 0.0483
vn 0.5606 0.8265 0.0512
vn 0.5668 0.8210 -0.0683
vn 0.5606 0.8281 -0.0032
vn 0.5608 0.8280 -0.0029
vn 0.5608 0.8280 0.0003
vn 0.5610 0.8264 0.0481
vn 0.5603 0.8283 -0.0043
vn 0.5524 0.8336 -0.0006
vn 0.5578 0.8299 -0.0108
vn 0.5136 0.8575 -0.0307
vn 0.6554 0.7549 -0.0241
vn 0.6551 0.7554 -0.0135
vn 0.6546 0.7558 -0.0139
vn 0.6514 0.7583 -0.0252
vn 0.8018 0.5860 0.1171
vn 0.7719 0.6298 0.0864
vn 0.5610 0.8278 0.0039
vn 0.5994 0.8003 -0.0113
vn 0.5986 0.8010 0.0008
vn 0.5970 0.8022 -0.0120
vn 0.5995 0.8003 0.0009
vn 0.7169 0.6363 0.2847
vn 0.5960 0.7874 0.1575
vn 0.7877 0.4954 0.3662
vn 0.8123 0.4287 0.3955
vn 0.1703 0.9311 -0.3227
vn 0.2941 0.8938 0.3386
vn 0.1386 0.9894 0.0421
vn 0.5150 0.8572 0.0000
vn 0.5531 0.8191 -0.1521
vn 0.5506 0.8348 0.0000
vn 0.5739 0.8165 0.0628
vn 0.5719 0.8163 -0.0812
vn 0.3809 0.9246 0.0000
vn 0.5317 0.8469 0.0000
vn 0.5776 0.7900 0.2057
vn 0.5504 0.8348 -0.0089
vn 0.6827 0.7122 0.1632
vn 0.6324 0.7684 0.0982
vn 0.2941 0.8500 0.4371
vn 0.4128 0.9001 0.1397
vn 0.3227 0.9394 0.1158
vn 0.5424 0.7338 0.4090
vn 0.5927 0.8046 0.0359
vn 0.5927 0.8048 0.0316
vn 0.5901 0.8067 0.0308
vn 0.6238 0.7774 0.0811
vn 0.6390 0.7659 0.0705
vn 0.5932 0.8049 -0.0159
vn 0.6721 0.7396 -0.0363
vn 0.3561 0.9278 0.1111
vn 0.6702 0.7402 -0.0532
vn 0.6553 0.7553 -0.0121
vn 0.6543 0.7560 -0.0186
vn 0.6568 0.7538 -0.0206
vn 0.6547 0.7558 -0.0101
vn 0.6570 0.7536 -0.0208
vn 0.5654 0.8240 0.0377
vn 0.6012 0.7949 -0.0817
vn 0.5910 0.8066 0.0008
vn 0.5906 0.8070 0.0010
vn 0.6585 0.7523 0.0218
vn 0.7005 0.7136 0.0014
vn -0.0722 0.9912 0.1107
vn 0.6691 0.7293 -0.1431
vn 0.6006 0.7990 0.0282
vn 0.5980 0.8007 0.0352
vn 0.8458 0.5297 -0.0634
vn 0.8455 0.5302 -0.0632
vn 0.8457 0.5298 -0.0636
vn 0.6728 0.7388 -0.0374
vn -0.2226 0.9747 -0.0193
vn -0.2226 0.9747 -0.0192
vn -0.2318 0.9726 -0.0190
vn 0.5960 0.8019 -0.0410
vn 0.6646 0.7427 -0.0819
vn 0.7384 0.6714 0.0622
vn 0.7380 0.6727 0.0529
vn 0.7385 0.6721 0.0531
vn 0.7638 0.6440 0.0429
vn 0.6354 0.7701 0.0571
vn 0.7389 0.6709 0.0624
vn 0.5936 0.7909 0.1489
vn 0.5941 0.7897 0.1529
vn 0.5925 0.7906 0.1546
vn 0.5923 0.7905 0.1559
vn 0.5947 0.7903 0.1472
vn 0.7283 0.6840 0.0409
vn 0.6402 0.7654 0.0655
vn 0.8153 0.5660 0.1223
vn 0.5972 0.7842 0.1687
vn 0.6004 0.7829 0.1631
vn 0.6013 0.7820 0.1638
vn 0.6058 0.7770 0.1711
vn 0.5877 0.7978 0.1347
vn 0.5768 0.8135 0.0738
vn 0.6483 0.7610 -0.0258
vn 0.6872 0.7190 0.1041
vn 0.6883 0.7178 0.1045
vn 0.6844 0.7210 0.1084
vn 0.6785 0.7297 0.0848
vn 0.6925 0.7130 0.1100
usemtl None.096
s 1
f 1//1 3//1 2//1
f 4//2 6//2 5//2
f 4//3 7//4 6//5
f 4//6 5//6 8//6
f 9//7 11//7 10//7
f 9//8 10//8 12//8
f 7//4 13//9 6//5
f 8//10 5//11 14//12
f 3//13 15//13 2//13
f 3//14 16//15 15//16
f 17//17 19//17 18//17
f 17//18 21//18 20//18
f 17//19 20//19 19//19
f 22//20 24//20 23//21
f 25//22 27//23 26//24
f 25//22 28//25 27//23
f 29//26 15//27 30//28
f 31//29 33//29 32//29
f 31//30 32//31 34//32
f 35//33 30//28 15//27
f 36//34 37//34 33//34
f 36//35 38//35 37//35
f 39//36 27//37 40//38
f 39//36 26//39 27//37
f 41//40 19//40 42//40
f 41//41 43//41 19//41
f 28//42 34//32 32//31
f 44//43 46//44 45//45
f 44//43 45//45 47//46
f 48//47 5//47 49//47
f 48//48 50//49 5//50
f 49//51 5//51 51//51
f 51//52 5//52 6//52
f 21//53 52//53 20//53
f 52//54 12//54 53//54
f 52//55 53//55 20//55
f 18//17 19//17 54//17
f 54//56 56//56 55//56
f 54//57 19//57 56//57
f 55//56 56//56 57//56
f 57//58 59//58 58//58
f 57//59 56//59 60//59
f 57//60 60//60 59//60
f 58//58 59//58 61//58
f 61//58 59//58 62//58
f 63//61 27//61 64//61
f 63//61 45//61 27//61
f 64//61 27//61 65//61
f 65//61 27//61 66//61
f 67//61 27//61 68//61
f 67//61 66//61 27//61
f 69//62 32//62 37//62
f 69//62 37//62 70//62
f 70//62 37//62 71//62
f 71//62 37//62 72//62
f 72//62 37//62 73//62
f 24//20 74//20 23//21
f 14//12 5//11 11//63
f 37//64 32//64 33//64
f 53//65 5//65 75//65
f 53//66 75//66 76//66
f 12//67 10//67 53//67
f 10//68 5//68 53//68
f 5//69 10//69 11//69
f 37//62 15//62 73//62
f 37//70 35//70 15//70
f 37//71 77//72 35//73
f 19//74 53//74 76//74
f 78//75 45//75 59//75
f 78//76 47//76 45//76
f 78//77 59//77 79//77
f 59//78 60//78 80//78
f 59//79 80//79 79//79
f 80//80 82//81 81//82
f 80//80 81//82 79//83
f 80//80 83//84 82//81
f 29//85 2//85 15//85
f 74//20 15//16 23//21
f 62//58 59//58 45//58
f 27//86 45//86 84//86
f 23//21 15//16 85//87
f 15//16 16//15 85//87
f 80//88 56//88 83//88
f 56//89 19//89 86//89
f 80//90 60//90 56//90
f 20//91 53//91 19//91
f 87//92 37//71 38//93
f 87//92 77//72 37//71
f 86//94 19//95 43//96
f 68//61 27//61 32//61
f 88//97 83//97 56//97
f 88//98 89//99 83//100
f 46//101 84//101 45//101
f 56//102 86//102 88//102
f 90//103 5//104 91//105
f 90//106 91//106 92//106
f 90//107 93//107 75//107
f 90//103 75//108 5//104
f 5//109 95//110 94//111
f 5//109 96//112 95//110
f 5//109 94//111 97//113
f 5//114 98//114 91//114
f 5//115 97//115 98//115
f 91//116 99//116 92//116
f 99//117 91//117 100//117
f 42//118 19//118 76//118
f 101//119 5//50 50//49
f 101//120 102//120 5//120
f 102//121 96//121 5//121
f 28//122 32//122 27//122
f 27//123 84//123 40//123
f 97//124 103//125 98//126
f 104//127 105//128 98//129
f 104//127 98//129 106//130
f 103//125 106//131 98//126
f 98//132 105//133 107//134
f 108//135 110//135 109//135
f 111//136 113//136 112//136
f 111//137 112//137 114//137
f 111//138 115//139 113//140
f 116//141 118//141 117//141
f 116//142 119//142 118//142
f 114//143 112//143 120//143
f 115//139 121//144 113//140
f 109//145 110//145 122//145
f 109//146 122//147 123//148
f 124//149 126//149 125//149
f 124//150 128//150 127//150
f 124//151 125//151 128//151
f 129//152 131//152 130//152
f 132//153 134//154 133//155
f 132//153 133//155 135//156
f 136//157 137//158 122//159
f 138//160 140//160 139//160
f 138//161 141//162 140//163
f 142//164 122//159 137//158
f 143//165 139//166 144//167
f 143//168 144//168 145//168
f 146//169 147//170 133//171
f 146//169 133//171 134//172
f 148//173 149//173 125//173
f 148//174 125//174 150//174
f 135//175 140//163 141//162
f 151//176 153//177 152//178
f 151//176 154//179 153//177
f 155//180 156//180 113//180
f 155//181 113//181 157//181
f 156//182 158//182 113//182
f 158//183 112//183 113//183
f 127//184 128//184 159//184
f 159//185 160//185 119//185
f 159//186 128//186 160//186
f 126//149 161//149 125//149
f 161//187 163//187 162//187
f 161//188 162//188 125//188
f 163//187 164//187 162//187
f 164//189 166//189 165//189
f 164//190 167//190 162//190
f 164//191 165//191 167//191
f 166//189 168//189 165//189
f 168//189 169//189 165//189
f 170//192 171//192 133//192
f 170//192 133//192 153//192
f 171//192 172//192 133//192
f 172//192 173//192 133//192
f 174//192 175//192 133//192
f 174//192 133//192 173//192
f 176//193 144//193 140//193
f 176//193 177//193 144//193
f 177//193 178//193 144//193
f 178//193 179//193 144//193
f 179//193 180//193 144//193
f 130//152 131//152 181//152
f 121//194 117//194 113//194
f 144//167 139//166 140//195
f 160//196 182//196 113//196
f 160//197 183//197 182//197
f 119//198 160//198 118//198
f 118//199 160//199 113//199
f 113//200 117//200 118//200
f 144//193 180//193 122//193
f 144//201 122//201 142//201
f 144//202 142//203 184//204
f 125//205 183//205 160//205
f 185//206 165//206 153//206
f 185//207 153//207 154//207
f 185//208 186//208 165//208
f 165//209 187//209 167//209
f 165//210 186//210 187//210
f 187//211 189//212 188//213
f 187//211 186//214 189//212
f 187//211 188//213 190//215
f 136//216 122//216 110//216
f 181//152 131//152 122//152
f 169//189 153//189 165//189
f 133//217 191//217 153//217
f 131//218 192//219 122//147
f 122//147 192//219 123//148
f 187//220 190//220 162//220
f 162//221 193//221 125//221
f 187//222 162//222 167//222
f 128//223 125//223 160//223
f 194//224 145//225 144//202
f 194//224 144//202 184//204
f 193//226 150//227 125//228
f 175//192 140//192 133//192
f 195//229 162//229 190//229
f 195//230 190//231 196//232
f 152//233 153//233 191//233
f 162//234 195//234 193//234
f 197//235 91//236 113//237
f 197//238 100//238 91//238
f 197//239 182//239 198//239
f 197//235 113//237 182//240
f 113//241 200//242 199//243
f 113//241 199//243 201//244
f 113//241 202//245 200//242
f 113//246 91//246 98//246
f 113//247 98//247 202//247
f 149//248 183//248 125//248
f 203//249 157//250 113//251
f 203//249 113//251 204//252
f 204//253 113//253 201//253
f 135//254 133//254 140//254
f 133//255 147//255 191//255
f 202//256 98//257 205//258
f 107//134 206//259 98//132
f 205//258 98//257 206//260
