# Blender v2.79 (sub 0) OBJ File: ''
# www.blender.org
mtllib crack_restart_keyway_205.mtl
o crack_restart_keyway_205
v 0.073499 -0.113119 -0.472461
v 0.085092 -0.121119 -0.472461
v 0.072762 -0.113468 -0.459453
v 0.096777 -0.128696 -0.472461
v 0.120406 -0.147382 -0.472461
v 0.120406 -0.147382 -0.457089
v 0.109043 -0.137679 -0.472461
v 0.070711 -0.114923 -0.394416
v 0.070813 -0.114692 -0.407423
v 0.070373 -0.114969 -0.381408
v 0.073115 -0.113392 -0.290356
v 0.092027 -0.130486 -0.246771
v 0.072760 -0.113469 -0.277349
v 0.071437 -0.114301 -0.303364
v 0.072577 -0.113773 -0.446446
v 0.071637 -0.114175 -0.433438
v 0.071328 -0.114582 -0.342386
v 0.070907 -0.114633 -0.355393
v 0.071550 -0.114229 -0.329378
v 0.071239 -0.114631 -0.420431
v 0.071597 -0.114433 -0.316371
v 0.120406 -0.147382 -0.180407
v 0.107760 -0.141839 -0.183094
v 0.120406 -0.147382 -0.188092
v 0.120406 -0.147382 -0.171458
v 0.120406 -0.147382 -0.211149
v 0.100314 -0.136300 -0.194376
v 0.120406 -0.147382 -0.226521
v 0.120406 -0.147382 -0.241892
v 0.120406 -0.147382 -0.257263
v 0.120406 -0.147382 -0.272634
v 0.120406 -0.147382 -0.288006
v 0.120406 -0.147382 -0.318748
v 0.120406 -0.147382 -0.334119
v 0.120406 -0.147382 -0.303377
v 0.120406 -0.147382 -0.349490
v 0.120406 -0.147382 -0.364862
v 0.120406 -0.147382 -0.380233
v 0.120406 -0.147382 -0.395604
v 0.120406 -0.147382 -0.410975
v 0.120406 -0.147382 -0.426347
v 0.120406 -0.147382 -0.441718
v 0.070717 -0.114920 -0.368401
v 0.103139 -0.133247 -0.472461
v 0.072832 -0.113564 -0.261089
v 0.073139 -0.113231 -0.251334
v 0.120406 -0.147382 -0.195778
v 0.104712 -0.139691 -0.187824
v 0.120406 -0.147382 -0.203464
v 0.073905 -0.112875 -0.244830
v 0.078747 -0.116743 -0.232129
v 0.080879 -0.118690 -0.228350
v 0.092027 -0.130486 -0.246771
v 0.113457 -0.145006 -0.175843
v 0.073499 -0.113119 -0.472461
v 0.072762 -0.113468 -0.459453
v 0.085092 -0.121119 -0.472461
v 0.096777 -0.128696 -0.472461
v 0.120406 -0.147382 -0.472461
v 0.109043 -0.137679 -0.472461
v 0.120406 -0.147382 -0.457089
v 0.070711 -0.114923 -0.394416
v 0.070813 -0.114692 -0.407423
v 0.070373 -0.114969 -0.381408
v 0.073115 -0.113392 -0.290356
v 0.072760 -0.113469 -0.277349
v 0.071437 -0.114301 -0.303364
v 0.072577 -0.113773 -0.446446
v 0.071637 -0.114175 -0.433438
v 0.071328 -0.114582 -0.342386
v 0.070907 -0.114633 -0.355393
v 0.071550 -0.114229 -0.329378
v 0.071239 -0.114631 -0.420431
v 0.071597 -0.114433 -0.316371
v 0.120406 -0.147382 -0.180407
v 0.120406 -0.147382 -0.188092
v 0.120406 -0.147382 -0.211149
v 0.120406 -0.147382 -0.226521
v 0.120406 -0.147382 -0.241892
v 0.120406 -0.147382 -0.257263
v 0.120406 -0.147382 -0.272634
v 0.120406 -0.147382 -0.288006
v 0.120406 -0.147382 -0.318748
v 0.120406 -0.147382 -0.334119
v 0.120406 -0.147382 -0.303377
v 0.120406 -0.147382 -0.349490
v 0.120406 -0.147382 -0.364862
v 0.120406 -0.147382 -0.380233
v 0.120406 -0.147382 -0.395604
v 0.120406 -0.147382 -0.410975
v 0.120406 -0.147382 -0.426347
v 0.120406 -0.147382 -0.441718
v 0.070717 -0.114920 -0.368401
v 0.103139 -0.133247 -0.472461
v 0.072832 -0.113564 -0.261089
v 0.073139 -0.113231 -0.251334
v 0.120406 -0.147382 -0.195778
v 0.120406 -0.147382 -0.203464
v 0.073905 -0.112875 -0.244830
v 0.074387 -0.112500 -0.237642
vn 0.5671 0.8218 0.0542
vn 0.5439 0.8388 0.0222
vn 0.6494 0.7605 0.0000
vn 0.5341 0.8452 0.0187
vn 0.5369 0.8435 0.0175
vn 0.5377 0.8429 0.0211
vn 0.5356 0.8443 0.0169
vn 0.6419 0.7664 0.0221
vn 0.8259 0.5450 -0.1446
vn 0.5800 0.8118 0.0670
vn 0.5616 0.8269 0.0274
vn 0.4742 0.8802 -0.0188
vn 0.4398 0.8975 -0.0319
vn 0.5656 0.8234 0.0462
vn 0.5420 0.8401 0.0217
vn 0.5203 0.8540 -0.0022
vn 0.5209 0.8536 -0.0023
vn 0.5209 0.8536 -0.0022
vn 0.5596 0.8287 0.0111
vn 0.5596 0.8287 0.0109
vn 0.5604 0.8282 0.0109
vn 0.4015 0.9159 0.0000
vn 0.4014 0.9159 0.0000
vn 0.4830 0.8756 0.0000
vn 0.5116 0.8592 0.0000
vn 0.5029 0.8642 0.0164
vn 0.4781 0.8781 -0.0160
vn 0.5512 0.8335 0.0378
vn 0.5578 0.8300 0.0093
vn -0.0002 -0.0006 1.0000
vn -0.0005 0.0005 1.0000
vn -0.0002 -0.0005 1.0000
vn 0.5846 0.7983 0.1448
vn 0.4567 0.8892 -0.0263
vn 0.6607 0.7507 0.0015
vn 0.6798 0.7319 -0.0464
vn 0.4751 0.8752 0.0913
vn 0.4859 0.8655 0.1218
vn 0.6852 0.7184 -0.1200
vn 0.6937 0.7188 -0.0455
vn 0.7023 0.7113 -0.0299
vn 0.7011 0.7123 -0.0318
vn 0.7024 0.7110 -0.0315
vn -0.7023 -0.7113 0.0299
vn -0.7024 -0.7110 0.0315
vn -0.7011 -0.7123 0.0318
vn 0.7026 0.7110 -0.0301
vn -0.7026 -0.7110 0.0301
vn -0.1238 -0.9414 -0.3139
vn -0.5671 -0.8218 -0.0542
vn -0.5439 -0.8388 -0.0222
vn -0.6494 -0.7605 0.0000
vn -0.5341 -0.8452 -0.0187
vn -0.5377 -0.8429 -0.0211
vn -0.5369 -0.8435 -0.0175
vn -0.5356 -0.8443 -0.0169
vn -0.6419 -0.7664 -0.0221
vn -0.8259 -0.5450 0.1446
vn -0.5800 -0.8118 -0.0670
vn -0.5616 -0.8269 -0.0274
vn -0.4742 -0.8802 0.0188
vn -0.4398 -0.8975 0.0319
vn -0.5656 -0.8234 -0.0462
vn -0.5420 -0.8401 -0.0217
vn -0.5203 -0.8540 0.0022
vn -0.5209 -0.8536 0.0022
vn -0.5209 -0.8536 0.0023
vn -0.5596 -0.8287 -0.0111
vn -0.5604 -0.8282 -0.0109
vn -0.5596 -0.8287 -0.0109
vn -0.4015 -0.9159 0.0000
vn -0.4014 -0.9159 0.0000
vn -0.4830 -0.8756 0.0000
vn -0.5116 -0.8592 0.0000
vn -0.5029 -0.8642 -0.0164
vn -0.4781 -0.8781 0.0160
vn -0.5512 -0.8335 -0.0378
vn -0.5578 -0.8300 -0.0093
vn 0.0002 0.0006 -1.0000
vn 0.0002 0.0005 -1.0000
vn 0.0005 -0.0005 -1.0000
vn -0.5846 -0.7983 -0.1448
vn -0.4567 -0.8892 0.0263
vn -0.6607 -0.7507 -0.0015
vn -0.6798 -0.7319 0.0464
vn -0.4751 -0.8752 -0.0913
vn -0.4859 -0.8655 -0.1218
vn -0.6852 -0.7184 0.1200
vn -0.6937 -0.7188 0.0455
vn -0.7478 -0.6586 0.0845
vn 0.7478 0.6586 -0.0845
usemtl None.025
s 1
f 1//1 3//1 2//1
f 2//2 3//2 4//2
f 5//3 7//3 6//3
f 8//4 7//5 9//6
f 8//4 10//7 7//5
f 11//8 13//8 12//8
f 11//9 12//9 14//9
f 15//10 16//10 7//10
f 15//11 7//11 3//11
f 17//12 7//12 18//12
f 17//13 19//13 7//13
f 20//14 7//14 16//14
f 20//15 9//6 7//5
f 21//16 14//17 7//18
f 21//19 7//20 19//21
f 22//22 24//23 23//23
f 22//22 23//23 25//22
f 26//24 28//24 27//24
f 28//25 29//25 12//25
f 28//26 12//26 27//26
f 29//25 30//25 12//25
f 30//25 31//25 12//25
f 31//25 32//25 12//25
f 33//3 34//3 7//3
f 33//3 7//3 35//3
f 36//3 37//3 7//3
f 36//3 7//3 34//3
f 37//3 38//3 7//3
f 38//3 39//3 7//3
f 39//3 40//3 7//3
f 40//3 41//3 7//3
f 41//3 42//3 7//3
f 6//3 7//3 42//3
f 10//27 43//27 7//27
f 14//28 12//28 32//28
f 14//29 32//29 7//29
f 7//30 44//31 4//32
f 4//33 3//33 7//33
f 7//34 43//34 18//34
f 12//35 13//35 45//35
f 12//36 45//36 46//36
f 7//3 32//3 35//3
f 47//23 23//23 24//23
f 47//37 48//37 23//37
f 47//24 49//24 27//24
f 47//38 27//38 48//38
f 12//39 46//39 50//39
f 12//40 50//40 51//40
f 52//41 27//42 12//43
f 52//44 53//45 27//46
f 52//41 12//43 51//47
f 52//44 51//48 53//45
f 54//49 23//49 25//49
f 55//50 57//50 56//50
f 57//51 58//51 56//51
f 59//52 61//52 60//52
f 62//53 63//54 60//55
f 62//53 60//55 64//56
f 65//57 53//57 66//57
f 65//58 67//58 53//58
f 68//59 60//59 69//59
f 68//60 56//60 60//60
f 70//61 71//61 60//61
f 70//62 60//62 72//62
f 73//63 69//63 60//63
f 73//64 60//55 63//54
f 74//65 60//66 67//67
f 74//68 72//69 60//70
f 75//71 23//72 76//72
f 75//71 25//71 23//72
f 77//73 27//73 78//73
f 78//74 53//74 79//74
f 78//75 27//75 53//75
f 79//74 53//74 80//74
f 80//74 53//74 81//74
f 81//74 53//74 82//74
f 83//52 60//52 84//52
f 83//52 85//52 60//52
f 86//52 60//52 87//52
f 86//52 84//52 60//52
f 87//52 60//52 88//52
f 88//52 60//52 89//52
f 89//52 60//52 90//52
f 90//52 60//52 91//52
f 91//52 60//52 92//52
f 61//52 92//52 60//52
f 64//76 60//76 93//76
f 67//77 82//77 53//77
f 67//78 60//78 82//78
f 60//79 58//80 94//81
f 58//82 60//82 56//82
f 60//83 71//83 93//83
f 53//84 95//84 66//84
f 53//85 96//85 95//85
f 60//52 85//52 82//52
f 97//72 76//72 23//72
f 97//86 23//86 48//86
f 97//73 27//73 98//73
f 97//87 48//87 27//87
f 53//88 99//88 96//88
f 53//89 51//89 99//89
f 77//73 98//73 27//73
f 99//90 51//90 100//90
f 26//24 27//24 49//24
f 50//91 100//91 51//91
