# Blender v2.79 (sub 0) OBJ File: ''
# www.blender.org
mtllib crack_restart_keyway_530.mtl
o crack_restart_keyway_530
v 0.073462 -0.113146 -0.472461
v 0.072985 -0.113328 -0.459453
v 0.084779 -0.121316 -0.472461
v 0.147227 -0.162038 -0.087632
v 0.124242 -0.155373 -0.069585
v 0.152178 -0.169048 -0.080801
v 0.150747 -0.164610 -0.087279
v 0.143382 -0.159202 -0.088100
v 0.131068 -0.149873 -0.089874
v 0.127482 -0.150693 -0.086892
v 0.135330 -0.153100 -0.089216
v 0.126540 -0.147825 -0.091832
v 0.154210 -0.167189 -0.086931
v 0.139558 -0.156340 -0.088640
v 0.120406 -0.147382 -0.426347
v 0.095897 -0.129397 -0.472461
v 0.120406 -0.147382 -0.103551
v 0.120406 -0.147382 -0.118922
v 0.070483 -0.112490 -0.050668
v 0.114630 -0.144476 -0.094848
v 0.120866 -0.146923 -0.098614
v 0.120406 -0.147382 -0.472461
v 0.108169 -0.138376 -0.472461
v 0.120406 -0.147382 -0.457089
v 0.073498 -0.113121 -0.238326
v 0.093792 -0.129828 -0.176009
v 0.073123 -0.113241 -0.251334
v 0.073895 -0.112756 -0.225319
v 0.072348 -0.113936 -0.290356
v 0.072672 -0.113524 -0.277349
v 0.071837 -0.114049 -0.303364
v 0.072671 -0.113707 -0.446446
v 0.071878 -0.114023 -0.433438
v 0.071652 -0.114403 -0.342386
v 0.120406 -0.147382 -0.318748
v 0.070638 -0.114802 -0.355393
v 0.071501 -0.114260 -0.329378
v 0.071472 -0.114503 -0.420431
v 0.070717 -0.114920 -0.368401
v 0.091340 -0.129118 -0.420534
v 0.070219 -0.115066 -0.381408
v 0.073069 -0.113425 -0.264341
v 0.076504 -0.111117 -0.121259
v 0.102607 -0.136663 -0.141434
v 0.075541 -0.111671 -0.134267
v 0.077118 -0.110552 -0.108252
v 0.076262 -0.111196 -0.096205
v 0.074731 -0.111993 -0.081618
v 0.071637 -0.114411 -0.316371
v 0.074088 -0.112702 -0.212311
v 0.074030 -0.112671 -0.199304
v 0.146668 -0.173825 -0.061432
v 0.148183 -0.172554 -0.068126
v 0.144600 -0.175281 -0.046080
v 0.150209 -0.170794 -0.074845
v 0.122213 -0.145575 -0.094013
v 0.115965 -0.144849 -0.090503
v 0.120406 -0.147382 -0.134293
v 0.120406 -0.147382 -0.149664
v 0.120406 -0.147382 -0.165036
v 0.120406 -0.147382 -0.180407
v 0.101546 -0.134135 -0.164801
v 0.120406 -0.147382 -0.195778
v 0.120406 -0.147382 -0.211149
v 0.120406 -0.147382 -0.241892
v 0.120406 -0.147382 -0.257263
v 0.120406 -0.147382 -0.272634
v 0.120406 -0.147382 -0.288006
v 0.120406 -0.147382 -0.349490
v 0.120406 -0.147382 -0.334119
v 0.120406 -0.147382 -0.364862
v 0.120406 -0.147382 -0.380233
v 0.120406 -0.147382 -0.395604
v 0.120406 -0.147382 -0.410975
v 0.120406 -0.147382 -0.441718
v 0.069459 -0.114506 -0.028215
v 0.078842 -0.131894 0.063566
v 0.120406 -0.147382 -0.303377
v 0.070931 -0.114618 -0.407423
v 0.120406 -0.147382 -0.226521
v 0.074216 -0.112611 -0.186296
v 0.074631 -0.112294 -0.173289
v 0.101385 -0.135209 -0.155349
v 0.074785 -0.112330 -0.166397
v 0.074810 -0.112190 -0.160281
v 0.075011 -0.112178 -0.153698
v 0.103549 -0.134992 -0.472461
v 0.070744 -0.114905 -0.394416
v 0.075215 -0.111965 -0.145292
v 0.066562 -0.114024 -0.001444
v 0.066421 -0.115313 0.015997
v 0.066429 -0.116084 0.027063
v 0.065530 -0.116185 0.053358
v 0.135862 -0.181383 0.019146
v 0.137461 -0.180106 0.006627
v 0.139793 -0.178243 -0.011327
v 0.134266 -0.182752 0.032786
v 0.131955 -0.184139 0.057544
v 0.095160 -0.150298 0.076006
v 0.123519 -0.179954 0.086899
v 0.130492 -0.185219 0.075643
v 0.129504 -0.185942 0.088793
v 0.143350 -0.175846 -0.038697
v 0.141468 -0.176802 -0.027593
v 0.133374 -0.183277 0.042971
v 0.114198 -0.170602 0.083948
v 0.105832 -0.162093 0.081286
v 0.130492 -0.185219 0.075643
v 0.073462 -0.113146 -0.472461
v 0.084779 -0.121316 -0.472461
v 0.072985 -0.113328 -0.459453
v 0.147227 -0.162038 -0.087632
v 0.152178 -0.169048 -0.080801
v 0.124242 -0.155373 -0.069585
v 0.150747 -0.164610 -0.087279
v 0.143382 -0.159202 -0.088100
v 0.131068 -0.149873 -0.089874
v 0.135330 -0.153100 -0.089216
v 0.127482 -0.150693 -0.086892
v 0.126540 -0.147825 -0.091832
v 0.154210 -0.167189 -0.086931
v 0.139558 -0.156340 -0.088640
v 0.120406 -0.147382 -0.426347
v 0.095897 -0.129397 -0.472461
v 0.120406 -0.147382 -0.103551
v 0.070483 -0.112490 -0.050668
v 0.120406 -0.147382 -0.118922
v 0.120866 -0.146923 -0.098614
v 0.114630 -0.144476 -0.094848
v 0.120406 -0.147382 -0.472461
v 0.120406 -0.147382 -0.457089
v 0.108169 -0.138376 -0.472461
v 0.073498 -0.113121 -0.238326
v 0.073123 -0.113241 -0.251334
v 0.093792 -0.129828 -0.176009
v 0.073895 -0.112756 -0.225319
v 0.072348 -0.113936 -0.290356
v 0.072672 -0.113524 -0.277349
v 0.071837 -0.114049 -0.303364
v 0.072671 -0.113707 -0.446446
v 0.071878 -0.114023 -0.433438
v 0.071652 -0.114403 -0.342386
v 0.070638 -0.114802 -0.355393
v 0.120406 -0.147382 -0.318748
v 0.071501 -0.114260 -0.329378
v 0.071472 -0.114503 -0.420431
v 0.070717 -0.114920 -0.368401
v 0.091340 -0.129118 -0.420534
v 0.070219 -0.115066 -0.381408
v 0.073069 -0.113425 -0.264341
v 0.076504 -0.111117 -0.121259
v 0.075541 -0.111671 -0.134267
v 0.102607 -0.136663 -0.141434
v 0.077118 -0.110552 -0.108252
v 0.076262 -0.111196 -0.096205
v 0.074731 -0.111993 -0.081618
v 0.071637 -0.114411 -0.316371
v 0.074088 -0.112702 -0.212311
v 0.074030 -0.112671 -0.199304
v 0.146668 -0.173825 -0.061432
v 0.148183 -0.172554 -0.068126
v 0.144600 -0.175281 -0.046080
v 0.150209 -0.170794 -0.074845
v 0.122213 -0.145575 -0.094013
v 0.115965 -0.144849 -0.090503
v 0.120406 -0.147382 -0.134293
v 0.120406 -0.147382 -0.149664
v 0.120406 -0.147382 -0.165036
v 0.120406 -0.147382 -0.180407
v 0.101546 -0.134135 -0.164801
v 0.120406 -0.147382 -0.195778
v 0.120406 -0.147382 -0.211149
v 0.120406 -0.147382 -0.241892
v 0.120406 -0.147382 -0.257263
v 0.120406 -0.147382 -0.272634
v 0.120406 -0.147382 -0.288006
v 0.120406 -0.147382 -0.349490
v 0.120406 -0.147382 -0.334119
v 0.120406 -0.147382 -0.364862
v 0.120406 -0.147382 -0.380233
v 0.120406 -0.147382 -0.395604
v 0.120406 -0.147382 -0.410975
v 0.120406 -0.147382 -0.441718
v 0.069459 -0.114506 -0.028215
v 0.120406 -0.147382 -0.303377
v 0.070931 -0.114618 -0.407423
v 0.120406 -0.147382 -0.226521
v 0.074216 -0.112611 -0.186296
v 0.074631 -0.112294 -0.173289
v 0.101385 -0.135209 -0.155349
v 0.074810 -0.112190 -0.160281
v 0.074785 -0.112330 -0.166397
v 0.075011 -0.112178 -0.153698
v 0.103549 -0.134992 -0.472461
v 0.070744 -0.114905 -0.394416
v 0.075215 -0.111965 -0.145292
v 0.066421 -0.115313 0.015997
v 0.066562 -0.114024 -0.001444
v 0.066429 -0.116084 0.027063
v 0.137461 -0.180106 0.006627
v 0.135862 -0.181383 0.019146
v 0.139793 -0.178243 -0.011327
v 0.134266 -0.182752 0.032786
v 0.131955 -0.184139 0.057544
v 0.143350 -0.175846 -0.038697
v 0.141468 -0.176802 -0.027593
v 0.133374 -0.183277 0.042971
vn -0.5850 -0.8104 -0.0328
vn -0.5267 -0.7542 -0.3922
vn -0.5125 -0.7570 -0.4054
vn -0.5178 -0.7524 -0.4071
vn -0.5133 -0.7571 -0.4041
vn -0.5192 -0.7664 -0.3783
vn -0.3921 -0.6505 -0.6504
vn -0.1896 -0.8644 -0.4657
vn -0.5208 -0.7535 -0.4012
vn -0.5197 -0.7658 -0.3788
vn -0.5199 -0.7652 -0.3796
vn -0.5286 -0.7595 -0.3792
vn -0.5746 -0.8182 -0.0185
vn -0.5879 -0.8089 -0.0030
vn -0.5898 -0.8075 -0.0034
vn -0.5891 -0.8080 -0.0021
vn -0.5729 -0.8196 0.0000
vn -0.3013 -0.9464 0.1161
vn -0.7290 -0.6271 -0.2744
vn -0.5927 -0.8054 0.0000
vn -0.5925 -0.8055 -0.0009
vn -0.6825 -0.7305 0.0264
vn -0.7077 -0.7053 0.0414
vn -0.7234 -0.6893 0.0399
vn -0.7053 -0.7081 0.0339
vn -0.5603 -0.8265 -0.0542
vn -0.5607 -0.8265 -0.0511
vn -0.5600 -0.8271 -0.0483
vn -0.5820 -0.8101 0.0702
vn -0.5611 -0.8277 0.0026
vn -0.5613 -0.8276 0.0024
vn -0.5613 -0.8276 -0.0034
vn -0.5611 -0.8264 -0.0480
vn -0.5600 -0.8285 0.0041
vn -0.5154 -0.8564 0.0293
vn -0.6551 -0.7554 0.0134
vn -0.6874 -0.7258 0.0265
vn -0.6645 -0.7429 0.0808
vn -0.6724 -0.7374 0.0638
vn -0.7858 -0.6075 -0.1157
vn -0.7869 -0.6059 -0.1168
vn -0.7889 -0.6034 -0.1164
vn -0.7666 -0.6360 -0.0885
vn -0.5602 -0.8283 -0.0038
vn -0.5587 -0.8287 0.0317
vn -0.6695 -0.7427 0.0130
vn -0.6548 -0.7558 -0.0011
vn -0.5496 -0.7891 -0.2742
vn -0.5935 -0.7898 -0.1549
vn -0.5292 -0.7680 -0.3607
vn -0.5269 -0.7526 -0.3948
vn -0.1705 -0.9310 0.3227
vn -0.2941 -0.8938 -0.3386
vn -0.2959 -0.8939 -0.3367
vn -0.2922 -0.8949 -0.3372
vn -0.1387 -0.9894 -0.0423
vn -0.5159 -0.8567 -0.0000
vn -0.5506 -0.8348 0.0000
vn -0.5742 -0.8164 -0.0622
vn -0.5721 -0.8160 0.0822
vn -0.5320 -0.8467 0.0000
vn -0.5275 -0.7570 -0.3856
vn -0.5562 -0.8251 -0.0994
vn -0.6264 -0.7748 -0.0858
vn -0.6029 -0.7345 -0.3115
vn -0.2940 -0.8955 -0.3342
vn -0.3608 -0.8811 -0.3058
vn -0.5432 -0.7355 -0.4049
vn -0.5915 -0.8055 -0.0350
vn -0.5895 -0.8072 -0.0309
vn -0.5924 -0.8050 -0.0318
vn -0.5440 -0.8385 0.0308
vn -0.6642 -0.7475 0.0129
vn -0.6715 -0.7399 0.0395
vn -0.3545 -0.9284 -0.1115
vn -0.6700 -0.7404 0.0534
vn -0.6559 -0.7547 0.0126
vn -0.6568 -0.7538 0.0206
vn -0.6543 -0.7560 0.0191
vn -0.6546 -0.7559 0.0107
vn -0.6568 -0.7537 0.0214
vn -0.5654 -0.8240 -0.0377
vn -0.5905 -0.8071 -0.0010
vn -0.6584 -0.7524 -0.0208
vn 0.0862 -0.9901 -0.1110
vn -0.5503 -0.8349 0.0086
vn -0.5477 -0.8367 0.0000
vn -0.6745 -0.7313 -0.1010
vn -0.5248 -0.8466 0.0886
vn -0.5987 -0.8005 -0.0279
vn -0.5965 -0.8019 -0.0340
vn -0.6725 -0.7391 0.0376
vn 0.2411 -0.9703 0.0188
vn 0.2448 -0.9694 0.0186
vn -0.7130 -0.6988 -0.0574
vn -0.7301 -0.6817 -0.0470
vn -0.7535 -0.6569 -0.0283
vn -0.7006 -0.7107 -0.0630
vn -0.7166 -0.6782 -0.1631
vn -0.7172 -0.6780 -0.1612
vn -0.7170 -0.6800 -0.1534
vn -0.7165 -0.6782 -0.1634
vn -0.7128 -0.6847 -0.1521
vn -0.7044 -0.7018 -0.1064
vn -0.7034 -0.7030 -0.1050
vn -0.6988 -0.7071 -0.1081
vn -0.7032 -0.7016 -0.1155
vn -0.6997 -0.7070 -0.1026
vn -0.6988 -0.7080 -0.1018
vn -0.6998 -0.7069 -0.1028
vn -0.7000 -0.7072 -0.0988
vn -0.6897 -0.7183 -0.0913
vn -0.7878 -0.6045 -0.1178
vn -0.7243 -0.6659 -0.1786
vn -0.7285 -0.6624 -0.1748
vn -0.7278 -0.6634 -0.1740
vn -0.7332 -0.6556 -0.1807
vn -0.6443 -0.7600 -0.0857
vn -0.6990 -0.7024 -0.1342
vn -0.5668 -0.8238 -0.0044
vn 0.6133 -0.7897 0.0130
vn -0.6090 -0.7096 -0.3542
vn -0.5630 -0.6999 -0.4396
vn 0.6897 0.7183 0.0913
vn 0.6998 0.7069 0.1028
vn 0.5850 0.8104 0.0328
vn 0.5267 0.7542 0.3922
vn 0.5270 0.7528 0.3944
vn 0.5268 0.7534 0.3935
vn 0.5125 0.7570 0.4054
vn 0.5133 0.7571 0.4041
vn 0.5178 0.7524 0.4072
vn 0.5192 0.7664 0.3783
vn 0.5197 0.7661 0.3781
vn 0.5195 0.7661 0.3786
vn 0.3921 0.6505 0.6504
vn 0.1896 0.8644 0.4657
vn 0.5208 0.7535 0.4012
vn 0.5197 0.7658 0.3788
vn 0.5746 0.8182 0.0185
vn 0.5879 0.8089 0.0030
vn 0.5908 0.8068 0.0009
vn 0.5898 0.8075 0.0034
vn 0.5729 0.8196 0.0000
vn 0.3013 0.9464 -0.1161
vn 0.7290 0.6271 0.2744
vn 0.5927 0.8054 0.0000
vn 0.6825 0.7305 -0.0264
vn 0.7077 0.7053 -0.0414
vn 0.7234 0.6893 -0.0399
vn 0.7053 0.7081 -0.0339
vn 0.5603 0.8265 0.0542
vn 0.5600 0.8271 0.0483
vn 0.5607 0.8265 0.0511
vn 0.5820 0.8101 -0.0702
vn 0.5611 0.8277 -0.0026
vn 0.5613 0.8276 0.0034
vn 0.5613 0.8276 -0.0024
vn 0.5611 0.8264 0.0480
vn 0.5600 0.8285 -0.0041
vn 0.5154 0.8564 -0.0293
vn 0.6551 0.7554 -0.0134
vn 0.6874 0.7258 -0.0265
vn 0.6645 0.7429 -0.0808
vn 0.6724 0.7374 -0.0638
vn 0.7858 0.6075 0.1157
vn 0.7889 0.6034 0.1164
vn 0.7869 0.6059 0.1168
vn 0.7666 0.6360 0.0885
vn 0.5602 0.8283 0.0038
vn 0.5587 0.8287 -0.0317
vn 0.6695 0.7427 -0.0130
vn 0.6548 0.7558 0.0011
vn 0.5496 0.7891 0.2742
vn 0.5935 0.7898 0.1549
vn 0.5292 0.7680 0.3607
vn 0.5269 0.7526 0.3948
vn 0.1705 0.9310 -0.3227
vn 0.2941 0.8938 0.3386
vn 0.1387 0.9894 0.0423
vn 0.5159 0.8567 0.0000
vn 0.5506 0.8348 0.0000
vn 0.5742 0.8164 0.0622
vn 0.5721 0.8160 -0.0822
vn 0.5320 0.8467 0.0000
vn 0.5275 0.7570 0.3856
vn 0.5562 0.8251 0.0994
vn 0.6264 0.7748 0.0858
vn 0.6029 0.7345 0.3115
vn 0.2940 0.8955 0.3342
vn 0.3608 0.8811 0.3058
vn 0.5432 0.7355 0.4049
vn 0.5915 0.8055 0.0350
vn 0.5924 0.8050 0.0318
vn 0.5895 0.8072 0.0309
vn 0.5440 0.8385 -0.0308
vn 0.6642 0.7475 -0.0129
vn 0.6715 0.7399 -0.0395
vn 0.6662 0.7442 -0.0476
vn 0.6764 0.7349 -0.0501
vn 0.3545 0.9284 0.1115
vn 0.6700 0.7404 -0.0534
vn 0.6559 0.7547 -0.0126
vn 0.6543 0.7560 -0.0191
vn 0.6568 0.7538 -0.0206
vn 0.6546 0.7559 -0.0107
vn 0.6568 0.7537 -0.0214
vn 0.5654 0.8240 0.0377
vn 0.5909 0.8067 0.0007
vn 0.5905 0.8071 0.0010
vn 0.6584 0.7524 0.0208
vn -0.0862 0.9901 0.1110
vn 0.5458 0.8379 -0.0063
vn 0.5503 0.8349 -0.0086
vn 0.5540 0.8325 -0.0044
vn 0.5477 0.8367 0.0000
vn 0.6745 0.7313 0.1010
vn 0.5248 0.8466 -0.0886
vn 0.5988 0.8004 0.0279
vn 0.5965 0.8019 0.0340
vn 0.6725 0.7391 -0.0376
vn -0.2411 0.9703 -0.0188
vn -0.2448 0.9694 -0.0186
vn 0.7130 0.6988 0.0574
vn 0.7301 0.6817 0.0470
vn 0.7535 0.6569 0.0283
vn 0.7006 0.7107 0.0630
vn 0.7166 0.6782 0.1631
vn 0.7170 0.6800 0.1534
vn 0.7172 0.6780 0.1612
vn 0.7165 0.6782 0.1634
vn 0.7128 0.6847 0.1521
vn 0.7044 0.7018 0.1063
vn 0.6988 0.7071 0.1081
vn 0.7034 0.7030 0.1050
vn 0.7032 0.7016 0.1155
vn 0.7000 0.7072 0.0988
vn 0.7878 0.6045 0.1178
vn 0.7243 0.6659 0.1786
vn 0.7278 0.6634 0.1740
vn 0.7285 0.6624 0.1748
vn 0.7332 0.6556 0.1807
vn 0.6443 0.7600 0.0857
vn 0.6990 0.7024 0.1342
vn 0.5668 0.8238 0.0044
vn -0.6133 0.7897 -0.0130
usemtl None.097
s 1
f 1//1 3//1 2//1
f 4//2 6//2 5//2
f 4//3 7//4 6//5
f 4//6 5//6 8//6
f 9//7 11//7 10//7
f 9//8 10//8 12//8
f 7//4 13//9 6//5
f 8//10 5//11 14//12
f 3//13 15//13 2//13
f 3//14 16//15 15//16
f 17//17 19//17 18//17
f 17//18 21//18 20//18
f 17//19 20//19 19//19
f 22//20 24//20 23//21
f 25//22 27//22 26//22
f 25//23 26//23 28//23
f 29//24 26//24 30//24
f 29//25 31//25 26//25
f 32//26 15//27 33//28
f 34//29 36//29 35//29
f 34//30 35//31 37//32
f 38//33 33//28 15//27
f 39//34 40//34 36//34
f 39//35 41//35 40//35
f 42//36 26//36 27//36
f 42//37 30//37 26//37
f 43//38 45//38 44//38
f 43//39 44//39 46//39
f 47//40 44//41 48//42
f 47//43 46//43 44//43
f 49//44 37//32 35//31
f 49//45 35//45 31//45
f 50//46 28//46 26//46
f 50//47 26//47 51//47
f 52//48 5//48 53//48
f 52//49 54//49 5//49
f 53//50 5//50 55//50
f 55//51 5//51 6//51
f 21//52 56//52 20//52
f 56//53 12//54 57//55
f 56//56 57//56 20//56
f 58//57 44//57 59//57
f 58//57 18//57 44//57
f 59//57 44//57 60//57
f 60//58 26//58 61//58
f 60//59 44//59 62//59
f 60//60 62//60 26//60
f 61//58 26//58 63//58
f 63//58 26//58 64//58
f 65//58 26//58 66//58
f 66//58 26//58 67//58
f 67//58 26//58 68//58
f 69//61 70//61 40//61
f 69//61 40//61 71//61
f 71//61 40//61 72//61
f 72//61 40//61 73//61
f 73//61 40//61 74//61
f 24//20 75//20 23//21
f 14//12 5//11 11//62
f 19//63 77//63 76//63
f 19//64 57//64 77//64
f 5//65 12//65 10//65
f 12//54 5//66 57//55
f 5//67 10//67 11//67
f 68//58 26//58 78//58
f 78//58 26//58 35//58
f 40//61 15//61 74//61
f 40//68 38//68 15//68
f 40//69 79//70 38//71
f 19//72 44//72 18//72
f 80//58 26//58 65//58
f 80//58 64//58 26//58
f 81//73 51//73 26//73
f 81//74 26//74 82//74
f 26//75 62//75 83//75
f 26//76 83//76 82//76
f 83//77 85//78 84//79
f 83//77 84//79 82//80
f 83//77 86//81 85//78
f 32//82 2//82 15//82
f 75//20 15//16 23//21
f 23//21 15//16 87//83
f 15//16 16//15 87//83
f 83//84 44//84 86//84
f 83//85 62//85 44//85
f 70//86 36//86 40//86
f 70//87 35//87 36//87
f 57//88 5//88 77//88
f 20//89 57//89 19//89
f 88//90 40//69 41//91
f 88//90 79//70 40//69
f 45//92 86//92 44//92
f 45//93 89//94 86//93
f 77//95 91//95 90//95
f 77//96 92//96 91//96
f 77//97 93//97 92//97
f 77//98 90//98 76//98
f 77//99 95//100 94//101
f 77//99 96//102 95//100
f 77//99 94//101 97//103
f 77//104 97//105 98//106
f 77//104 98//106 99//107
f 99//108 101//109 100//110
f 99//108 98//111 101//109
f 101//112 102//112 100//112
f 48//42 44//41 19//113
f 103//114 77//115 54//116
f 103//114 104//117 77//115
f 54//118 77//118 5//118
f 104//119 96//119 77//119
f 26//120 31//120 35//120
f 97//121 105//121 98//121
f 106//122 107//122 99//122
f 106//123 99//123 100//123
f 100//124 102//124 108//124
f 100//125 108//125 99//125
f 109//126 111//126 110//126
f 112//127 114//128 113//129
f 112//130 113//131 115//132
f 112//133 116//134 114//135
f 117//136 119//136 118//136
f 117//137 120//137 119//137
f 115//132 113//131 121//138
f 116//134 122//139 114//135
f 110//140 111//140 123//140
f 110//141 123//142 124//143
f 125//144 127//144 126//144
f 125//145 129//145 128//145
f 125//146 126//146 129//146
f 130//147 132//147 131//147
f 133//148 135//148 134//148
f 133//149 136//149 135//149
f 137//150 138//150 135//150
f 137//151 135//151 139//151
f 140//152 141//153 123//154
f 142//155 144//155 143//155
f 142//156 145//157 144//158
f 146//159 123//154 141//153
f 147//160 143//160 148//160
f 147//161 148//161 149//161
f 150//162 134//162 135//162
f 150//163 135//163 138//163
f 151//164 153//164 152//164
f 151//165 154//165 153//165
f 155//166 156//167 153//168
f 155//169 153//169 154//169
f 157//170 144//158 145//157
f 157//171 139//171 144//171
f 158//172 135//172 136//172
f 158//173 159//173 135//173
f 160//174 161//174 114//174
f 160//175 114//175 162//175
f 161//176 163//176 114//176
f 163//177 113//129 114//128
f 128//178 129//178 164//178
f 164//179 165//179 120//179
f 164//180 129//180 165//180
f 166//181 167//181 153//181
f 166//181 153//181 127//181
f 167//181 168//181 153//181
f 168//182 169//182 135//182
f 168//183 170//183 153//183
f 168//184 135//184 170//184
f 169//182 171//182 135//182
f 171//182 172//182 135//182
f 173//182 174//182 135//182
f 174//182 175//182 135//182
f 175//182 176//182 135//182
f 177//185 148//185 178//185
f 177//185 179//185 148//185
f 179//185 180//185 148//185
f 180//185 181//185 148//185
f 181//185 182//185 148//185
f 131//147 132//147 183//147
f 122//186 118//186 114//186
f 126//187 184//187 77//187
f 126//188 77//188 165//188
f 114//189 119//189 120//189
f 120//190 165//190 114//190
f 114//191 118//191 119//191
f 176//182 185//182 135//182
f 185//182 144//182 135//182
f 148//185 182//185 123//185
f 148//192 123//192 146//192
f 148//193 146//194 186//195
f 126//196 127//196 153//196
f 187//182 173//182 135//182
f 187//182 135//182 172//182
f 188//197 135//197 159//197
f 188//198 189//199 135//200
f 135//201 190//201 170//201
f 135//200 189//199 190//202
f 190//203 192//204 191//205
f 190//203 189//206 192//204
f 190//203 191//205 193//207
f 140//208 123//208 111//208
f 183//147 132//147 123//147
f 132//209 194//210 123//142
f 123//142 194//210 124//143
f 190//211 193//211 153//211
f 190//212 153//212 170//212
f 178//213 148//214 143//215
f 178//213 143//215 144//216
f 165//217 77//217 114//217
f 129//218 126//218 165//218
f 195//219 149//220 148//193
f 195//219 148//193 186//195
f 152//221 153//221 193//221
f 152//222 193//222 196//223
f 77//224 198//224 197//224
f 77//225 197//225 199//225
f 77//226 199//226 93//226
f 77//227 184//227 198//227
f 77//228 201//229 200//230
f 77//228 200//230 202//231
f 77//228 203//232 201//229
f 77//233 204//234 203//235
f 77//233 99//236 204//234
f 99//237 108//237 204//237
f 156//167 126//238 153//168
f 205//239 162//240 77//241
f 205//239 77//241 206//242
f 162//243 114//243 77//243
f 206//244 77//244 202//244
f 135//245 144//245 139//245
f 203//246 204//246 207//246
