# Blender v2.79 (sub 0) OBJ File: ''
# www.blender.org
mtllib crack_restart_keyway_655.mtl
o crack_restart_keyway_655
v 0.073377 -0.113206 -0.472461
v 0.072952 -0.113348 -0.459453
v 0.084684 -0.121375 -0.472461
v 0.147227 -0.162038 -0.087631
v 0.127494 -0.150678 -0.086874
v 0.150735 -0.164621 -0.087290
v 0.143382 -0.159202 -0.088100
v 0.131068 -0.149873 -0.089874
v 0.135356 -0.153084 -0.089194
v 0.126540 -0.147825 -0.091832
v 0.152179 -0.169047 -0.080800
v 0.154210 -0.167189 -0.086931
v 0.139585 -0.156324 -0.088619
v 0.120406 -0.147382 -0.426347
v 0.095823 -0.129456 -0.472461
v 0.120406 -0.147382 -0.103551
v 0.114631 -0.144474 -0.094849
v 0.120866 -0.146923 -0.098614
v 0.120406 -0.147382 -0.118922
v 0.120406 -0.147382 -0.472461
v 0.108124 -0.138412 -0.472461
v 0.120406 -0.147382 -0.457089
v 0.070715 -0.114921 -0.394416
v 0.070027 -0.115186 -0.381408
v 0.120406 -0.147382 -0.395604
v 0.070959 -0.114601 -0.407423
v 0.072214 -0.114031 -0.290356
v 0.072630 -0.113550 -0.277349
v 0.100779 -0.135923 -0.300303
v 0.071464 -0.114283 -0.303364
v 0.072625 -0.113740 -0.446446
v 0.071894 -0.114013 -0.433438
v 0.071824 -0.114308 -0.342386
v 0.071555 -0.114226 -0.329378
v 0.071652 -0.114403 -0.316371
v 0.071532 -0.114469 -0.420431
v 0.070560 -0.115007 -0.368401
v 0.070481 -0.114901 -0.355393
v 0.090632 -0.132125 -0.376755
v 0.073092 -0.113409 -0.264341
v 0.073179 -0.113206 -0.251334
v 0.076335 -0.111223 -0.121259
v 0.106661 -0.141562 -0.120719
v 0.075695 -0.111562 -0.134267
v 0.076712 -0.110839 -0.108252
v 0.074051 -0.112728 -0.212311
v 0.120406 -0.147382 -0.211149
v 0.073855 -0.112781 -0.225319
v 0.074027 -0.112673 -0.199304
v 0.146807 -0.173703 -0.061414
v 0.148172 -0.172563 -0.068132
v 0.145860 -0.174367 -0.050945
v 0.150279 -0.170732 -0.074806
v 0.122213 -0.145575 -0.094013
v 0.115966 -0.144848 -0.090502
v 0.120406 -0.147382 -0.134293
v 0.120406 -0.147382 -0.149664
v 0.075173 -0.111953 -0.147274
v 0.120406 -0.147382 -0.165036
v 0.120406 -0.147382 -0.180407
v 0.085749 -0.120775 -0.163261
v 0.120406 -0.147382 -0.195778
v 0.120406 -0.147382 -0.257263
v 0.120406 -0.147382 -0.241892
v 0.120406 -0.147382 -0.272634
v 0.120406 -0.147382 -0.288006
v 0.120406 -0.147382 -0.349490
v 0.120406 -0.147382 -0.334119
v 0.120406 -0.147382 -0.364862
v 0.120406 -0.147382 -0.380233
v 0.120406 -0.147382 -0.441718
v 0.111712 -0.143686 -0.082147
v 0.141348 -0.176993 -0.009712
v 0.143134 -0.175452 -0.027771
v 0.144584 -0.174886 -0.039594
v 0.072019 -0.113182 -0.026940
v 0.074566 -0.112124 -0.081618
v 0.075848 -0.111441 -0.096487
v 0.099376 -0.133982 -0.085203
v 0.120406 -0.147382 -0.303377
v 0.120406 -0.147382 -0.318748
v 0.120406 -0.147382 -0.410975
v 0.120406 -0.147382 -0.226521
v 0.074051 -0.112728 -0.186296
v 0.074467 -0.112396 -0.173289
v 0.074678 -0.112401 -0.166177
v 0.074747 -0.112234 -0.160281
v 0.073544 -0.113087 -0.238326
v 0.103573 -0.135096 -0.472461
v 0.130706 -0.184944 0.188080
v 0.090811 -0.121239 0.229251
v 0.132045 -0.183848 0.212193
v 0.131017 -0.184729 0.136168
v 0.072337 -0.110659 0.159329
v 0.075488 -0.110154 0.183915
v 0.108377 -0.144940 0.243169
v 0.132663 -0.183534 0.219507
v 0.123138 -0.164316 0.249515
v 0.134193 -0.182733 0.235985
v 0.078342 -0.109210 0.200234
v 0.079954 -0.107578 0.212311
v 0.081107 -0.107227 0.221490
v 0.132663 -0.183534 0.219507
v 0.131153 -0.174682 0.252378
v 0.134193 -0.182733 0.235985
v 0.136338 -0.181490 0.253970
v 0.070044 -0.112346 -0.001446
v 0.071281 -0.113647 0.025647
v 0.069931 -0.112578 0.052171
v 0.071471 -0.111353 -0.054992
v 0.071009 -0.113819 0.078360
v 0.069913 -0.112414 0.106110
v 0.071752 -0.113078 0.128108
v 0.131692 -0.183998 0.113278
v 0.133293 -0.183191 0.084704
v 0.134499 -0.182038 0.065019
v 0.137102 -0.180502 0.035491
v 0.138689 -0.179113 0.017689
v 0.073377 -0.113206 -0.472461
v 0.084684 -0.121375 -0.472461
v 0.072952 -0.113348 -0.459453
v 0.147227 -0.162038 -0.087631
v 0.150735 -0.164621 -0.087290
v 0.127494 -0.150678 -0.086874
v 0.143382 -0.159202 -0.088100
v 0.131068 -0.149873 -0.089874
v 0.135356 -0.153084 -0.089194
v 0.126540 -0.147825 -0.091832
v 0.154210 -0.167189 -0.086931
v 0.152179 -0.169047 -0.080800
v 0.139585 -0.156324 -0.088619
v 0.120406 -0.147382 -0.426347
v 0.095823 -0.129456 -0.472461
v 0.120406 -0.147382 -0.103551
v 0.120866 -0.146923 -0.098614
v 0.114631 -0.144474 -0.094849
v 0.120406 -0.147382 -0.118922
v 0.120406 -0.147382 -0.472461
v 0.120406 -0.147382 -0.457089
v 0.108124 -0.138412 -0.472461
v 0.070715 -0.114921 -0.394416
v 0.120406 -0.147382 -0.395604
v 0.070027 -0.115186 -0.381408
v 0.070959 -0.114601 -0.407423
v 0.072214 -0.114031 -0.290356
v 0.100779 -0.135923 -0.300303
v 0.072630 -0.113550 -0.277349
v 0.071464 -0.114283 -0.303364
v 0.072625 -0.113740 -0.446446
v 0.071894 -0.114013 -0.433438
v 0.071824 -0.114308 -0.342386
v 0.071652 -0.114403 -0.316371
v 0.071555 -0.114226 -0.329378
v 0.071532 -0.114469 -0.420431
v 0.070560 -0.115007 -0.368401
v 0.090632 -0.132125 -0.376755
v 0.070481 -0.114901 -0.355393
v 0.073092 -0.113409 -0.264341
v 0.073179 -0.113206 -0.251334
v 0.076335 -0.111223 -0.121259
v 0.075695 -0.111562 -0.134267
v 0.106661 -0.141562 -0.120719
v 0.076712 -0.110839 -0.108252
v 0.074051 -0.112728 -0.212311
v 0.073855 -0.112781 -0.225319
v 0.120406 -0.147382 -0.211149
v 0.074027 -0.112673 -0.199304
v 0.146807 -0.173703 -0.061414
v 0.148172 -0.172563 -0.068132
v 0.145860 -0.174367 -0.050945
v 0.150279 -0.170732 -0.074806
v 0.122213 -0.145575 -0.094013
v 0.115966 -0.144848 -0.090502
v 0.120406 -0.147382 -0.134293
v 0.075173 -0.111953 -0.147274
v 0.120406 -0.147382 -0.149664
v 0.120406 -0.147382 -0.165036
v 0.085749 -0.120775 -0.163261
v 0.120406 -0.147382 -0.180407
v 0.120406 -0.147382 -0.195778
v 0.120406 -0.147382 -0.257263
v 0.120406 -0.147382 -0.241892
v 0.120406 -0.147382 -0.272634
v 0.120406 -0.147382 -0.288006
v 0.120406 -0.147382 -0.349490
v 0.120406 -0.147382 -0.334119
v 0.120406 -0.147382 -0.364862
v 0.120406 -0.147382 -0.380233
v 0.120406 -0.147382 -0.441718
v 0.111712 -0.143686 -0.082147
v 0.143134 -0.175452 -0.027771
v 0.141348 -0.176993 -0.009712
v 0.144584 -0.174886 -0.039594
v 0.072019 -0.113182 -0.026940
v 0.074566 -0.112124 -0.081618
v 0.075848 -0.111441 -0.096487
v 0.099376 -0.133982 -0.085203
v 0.120406 -0.147382 -0.303377
v 0.120406 -0.147382 -0.318748
v 0.120406 -0.147382 -0.410975
v 0.120406 -0.147382 -0.226521
v 0.074051 -0.112728 -0.186296
v 0.074467 -0.112396 -0.173289
v 0.074747 -0.112234 -0.160281
v 0.074678 -0.112401 -0.166177
v 0.073544 -0.113087 -0.238326
v 0.103573 -0.135096 -0.472461
v 0.130706 -0.184944 0.188080
v 0.132045 -0.183848 0.212193
v 0.131017 -0.184729 0.136168
v 0.075488 -0.110154 0.183915
v 0.072337 -0.110659 0.159329
v 0.078342 -0.109210 0.200234
v 0.079954 -0.107578 0.212311
v 0.070044 -0.112346 -0.001446
v 0.071281 -0.113647 0.025647
v 0.069931 -0.112578 0.052171
v 0.071471 -0.111353 -0.054992
v 0.071009 -0.113819 0.078360
v 0.069913 -0.112414 0.106110
v 0.071752 -0.113078 0.128108
v 0.131692 -0.183998 0.113278
v 0.133293 -0.183191 0.084704
v 0.134499 -0.182038 0.065019
v 0.137102 -0.180502 0.035491
v 0.138689 -0.179113 0.017689
vn -0.5854 -0.8103 -0.0280
vn -0.3719 -0.5987 -0.7094
vn -0.3969 -0.6459 -0.6522
vn -0.3962 -0.6448 -0.6536
vn -0.4014 -0.6479 -0.6474
vn -0.3912 -0.6586 -0.6428
vn -0.1922 -0.8661 -0.4614
vn -0.5174 -0.7562 -0.4006
vn -0.4718 -0.7738 -0.4227
vn -0.3934 -0.6383 -0.6616
vn -0.5758 -0.8174 -0.0149
vn -0.5872 -0.8094 -0.0016
vn -0.5882 -0.8087 -0.0018
vn -0.5879 -0.8089 -0.0010
vn -0.3016 -0.9463 0.1161
vn -0.4497 -0.8932 0.0000
vn -0.5898 -0.8076 0.0000
vn -0.5897 -0.8076 -0.0004
vn -0.5471 -0.8358 -0.0460
vn -0.5472 -0.8365 -0.0308
vn -0.5470 -0.8366 -0.0309
vn -0.5470 -0.8365 -0.0317
vn -0.5967 -0.8010 0.0492
vn -0.5967 -0.8010 0.0494
vn -0.5968 -0.8009 0.0487
vn -0.5965 -0.8010 0.0499
vn -0.5641 -0.8243 -0.0480
vn -0.5623 -0.8260 -0.0401
vn -0.5612 -0.8265 -0.0448
vn -0.5642 -0.8247 -0.0390
vn -0.5769 -0.8168 -0.0068
vn -0.5784 -0.8157 -0.0068
vn -0.5617 -0.8261 -0.0446
vn -0.6483 -0.7613 0.0023
vn -0.6396 -0.7679 0.0368
vn -0.6179 -0.7861 0.0164
vn -0.6099 -0.7921 0.0239
vn -0.6060 -0.7953 0.0181
vn -0.6067 -0.7943 0.0302
vn -0.7069 -0.7057 0.0473
vn -0.7059 -0.7064 0.0528
vn -0.7084 -0.7039 0.0521
vn -0.7070 -0.7060 0.0413
vn -0.5938 -0.8046 -0.0012
vn -0.5989 -0.8007 0.0123
vn -0.5929 -0.8053 0.0050
vn -0.6030 -0.7977 0.0035
vn -0.5988 -0.8009 0.0023
vn -0.5992 -0.8006 0.0001
vn -0.5995 -0.8003 0.0020
vn -0.5878 -0.7694 -0.2500
vn -0.6996 -0.7063 -0.1081
vn -0.6965 -0.7093 -0.1085
vn -0.6972 -0.7083 -0.1106
vn -0.4946 -0.7856 -0.3717
vn -0.4931 -0.7854 -0.3741
vn -0.4933 -0.7843 -0.3763
vn -0.4916 -0.7852 -0.3766
vn -0.1708 -0.9310 0.3227
vn -0.2942 -0.8938 -0.3384
vn -0.1390 -0.9894 -0.0424
vn -0.3899 -0.9209 0.0000
vn -0.6166 -0.7873 -0.0000
vn -0.5599 -0.7974 -0.2251
vn -0.6090 -0.7932 0.0000
vn -0.5042 -0.8636 0.0000
vn -0.4560 -0.8900 0.0000
vn -0.5886 -0.7985 -0.1263
vn -0.6041 -0.7890 -0.1119
vn -0.6663 -0.7425 -0.0688
vn -0.4564 -0.8481 -0.2693
vn -0.3908 -0.6293 -0.6717
vn -0.6946 -0.7193 -0.0072
vn -0.6971 -0.7084 -0.1107
vn -0.6472 -0.7610 -0.0449
vn -0.4668 -0.8023 -0.3719
vn -0.6458 -0.7546 0.1168
vn -0.6294 -0.7719 -0.0897
vn -0.2715 -0.9624 -0.0044
vn -0.6155 -0.7877 0.0275
vn -0.5791 -0.7942 -0.1844
vn -0.6354 -0.7508 0.1807
vn -0.5586 -0.8295 -0.0000
vn -0.5468 -0.8366 -0.0326
vn -0.5470 -0.5123 -0.6621
vn -0.9562 -0.0323 0.2909
vn -0.9562 -0.0323 0.2910
vn -0.9562 -0.0375 0.2902
vn -0.5965 -0.8026 -0.0000
vn -0.6183 -0.7849 0.0398
vn -0.6085 -0.7929 0.0306
vn -0.6067 -0.7944 0.0300
vn -0.6079 -0.7934 0.0296
vn -0.6061 -0.7952 0.0174
vn -0.6065 -0.7942 0.0370
vn -0.5858 -0.8097 0.0362
vn -0.5897 -0.8067 0.0381
vn -0.5882 -0.8078 0.0392
vn -0.5886 -0.8084 -0.0005
vn -0.5852 -0.8051 0.0971
vn -0.5394 -0.8386 0.0766
vn -0.5603 -0.8283 0.0000
vn -0.5717 -0.7718 -0.2783
vn -0.7309 -0.6767 -0.0883
vn -0.3918 -0.9199 0.0171
vn -0.7061 -0.7064 0.0496
vn -0.5886 -0.8077 0.0331
vn -0.8240 -0.5621 0.0713
vn -0.8496 -0.5274 -0.0073
vn -0.7791 -0.6168 0.1125
vn -0.8220 -0.5643 0.0766
vn -0.8196 -0.5653 0.0935
vn -0.8174 -0.5667 0.1034
vn -0.8079 -0.5782 0.1138
vn -0.8660 -0.4671 0.1785
vn -0.8661 -0.4669 0.1786
vn -0.8661 -0.4668 0.1787
vn -0.8469 -0.5166 0.1261
vn 0.8220 0.5643 -0.0766
vn 0.8079 0.5782 -0.1138
vn -0.8016 -0.5819 0.1371
vn 0.8031 0.5800 -0.1368
vn 0.8024 0.5810 -0.1365
vn 0.8016 0.5819 -0.1371
vn -0.8032 -0.5800 0.1359
vn 0.8032 0.5800 -0.1359
vn 0.2085 -0.9764 -0.0564
vn -0.3919 -0.9200 -0.0002
vn -0.4672 -0.8841 0.0119
vn -0.5693 -0.8210 -0.0424
vn -0.0198 -0.9987 -0.0465
vn -0.5045 -0.8631 0.0238
vn -0.4340 -0.9009 0.0091
vn -0.6802 -0.7298 0.0693
vn -0.8852 -0.4609 -0.0626
vn -0.8704 -0.4906 -0.0413
vn -0.8995 -0.4295 -0.0803
vn -0.9169 -0.3862 -0.1009
vn -0.9259 -0.3612 -0.1107
vn -0.9319 -0.3433 -0.1170
vn -0.6806 -0.7322 0.0269
vn -0.5611 -0.8233 -0.0856
vn -0.5995 -0.8003 -0.0023
vn -0.5920 -0.8057 0.0192
vn -0.6092 -0.7926 0.0243
vn 0.5854 0.8103 0.0280
vn 0.3719 0.5987 0.7094
vn 0.3969 0.6459 0.6522
vn 0.4014 0.6479 0.6474
vn 0.3962 0.6448 0.6536
vn 0.3912 0.6586 0.6428
vn 0.1922 0.8661 0.4614
vn 0.5174 0.7562 0.4006
vn 0.4718 0.7738 0.4227
vn 0.3934 0.6383 0.6616
vn 0.5758 0.8174 0.0149
vn 0.5872 0.8094 0.0016
vn 0.5887 0.8084 0.0005
vn 0.5882 0.8087 0.0018
vn 0.3016 0.9463 -0.1161
vn 0.4497 0.8932 0.0000
vn 0.5898 0.8076 0.0000
vn 0.5471 0.8358 0.0460
vn 0.5472 0.8365 0.0308
vn 0.5470 0.8365 0.0317
vn 0.5470 0.8366 0.0309
vn 0.5967 0.8010 -0.0492
vn 0.5968 0.8009 -0.0487
vn 0.5967 0.8010 -0.0494
vn 0.5965 0.8010 -0.0499
vn 0.5641 0.8243 0.0481
vn 0.5612 0.8265 0.0448
vn 0.5623 0.8260 0.0401
vn 0.5642 0.8247 0.0390
vn 0.5769 0.8168 0.0068
vn 0.5784 0.8157 0.0068
vn 0.5617 0.8261 0.0446
vn 0.6483 0.7613 -0.0023
vn 0.6396 0.7679 -0.0368
vn 0.6179 0.7861 -0.0164
vn 0.6060 0.7952 -0.0181
vn 0.6099 0.7921 -0.0239
vn 0.6067 0.7943 -0.0302
vn 0.7069 0.7057 -0.0473
vn 0.7084 0.7039 -0.0521
vn 0.7059 0.7064 -0.0528
vn 0.7070 0.7060 -0.0413
vn 0.5938 0.8046 0.0012
vn 0.5989 0.8008 -0.0074
vn 0.5992 0.8006 0.0018
vn 0.5989 0.8007 -0.0123
vn 0.5995 0.8003 -0.0020
vn 0.5878 0.7694 0.2500
vn 0.6996 0.7063 0.1081
vn 0.6972 0.7083 0.1106
vn 0.6965 0.7093 0.1085
vn 0.4946 0.7856 0.3717
vn 0.4933 0.7843 0.3763
vn 0.4931 0.7854 0.3741
vn 0.4916 0.7852 0.3766
vn 0.1708 0.9310 -0.3227
vn 0.2942 0.8938 0.3384
vn 0.1390 0.9894 0.0424
vn 0.3899 0.9209 0.0000
vn 0.6166 0.7873 0.0000
vn 0.5599 0.7974 0.2251
vn 0.6090 0.7932 0.0000
vn 0.5042 0.8636 0.0000
vn 0.4560 0.8900 0.0000
vn 0.5886 0.7985 0.1263
vn 0.6041 0.7890 0.1119
vn 0.6663 0.7425 0.0688
vn 0.4564 0.8481 0.2693
vn 0.3908 0.6293 0.6717
vn 0.6946 0.7193 0.0072
vn 0.6971 0.7084 0.1107
vn 0.6472 0.7610 0.0449
vn 0.4668 0.8023 0.3719
vn 0.6458 0.7546 -0.1168
vn 0.6294 0.7719 0.0897
vn 0.2715 0.9624 0.0044
vn 0.6155 0.7877 -0.0275
vn 0.5791 0.7942 0.1844
vn 0.6354 0.7508 -0.1807
vn 0.5586 0.8295 0.0000
vn 0.5468 0.8366 0.0326
vn 0.5470 0.5123 0.6621
vn 0.9562 0.0323 -0.2909
vn 0.9562 0.0375 -0.2902
vn 0.9562 0.0323 -0.2910
vn 0.5965 0.8026 0.0000
vn 0.6183 0.7849 -0.0398
vn 0.6070 0.7943 -0.0235
vn 0.6057 0.7952 -0.0288
vn 0.6079 0.7934 -0.0296
vn 0.6061 0.7952 -0.0174
vn 0.6065 0.7942 -0.0370
vn 0.5882 0.8078 -0.0392
vn 0.5889 0.8082 0.0004
vn 0.5886 0.8084 0.0005
vn 0.5852 0.8051 -0.0971
vn 0.5394 0.8386 -0.0766
vn 0.5603 0.8283 0.0000
vn 0.5717 0.7718 0.2783
vn 0.7309 0.6767 0.0883
vn 0.3918 0.9199 -0.0171
vn 0.7061 0.7064 -0.0496
vn 0.5886 0.8077 -0.0331
vn 0.8240 0.5621 -0.0713
vn 0.8496 0.5274 0.0073
vn 0.7791 0.6168 -0.1125
vn 0.8196 0.5653 -0.0935
vn 0.8174 0.5667 -0.1034
vn 0.8660 0.4671 -0.1785
vn 0.8661 0.4668 -0.1787
vn 0.8661 0.4669 -0.1786
vn 0.8469 0.5166 -0.1261
vn -0.2085 0.9764 0.0564
vn 0.3919 0.9200 0.0002
vn 0.4672 0.8841 -0.0119
vn 0.5693 0.8210 0.0424
vn 0.0198 0.9987 0.0465
vn 0.5045 0.8631 -0.0238
vn 0.4340 0.9009 -0.0091
vn 0.6802 0.7298 -0.0693
vn 0.8852 0.4609 0.0626
vn 0.8704 0.4906 0.0413
vn 0.8995 0.4295 0.0803
vn 0.9169 0.3862 0.1009
vn 0.9259 0.3612 0.1107
vn 0.9319 0.3433 0.1170
vn 0.6806 0.7322 -0.0269
vn 0.5611 0.8233 0.0856
vn 0.5995 0.8003 0.0023
vn 0.5920 0.8057 -0.0192
vn 0.6092 0.7926 -0.0243
usemtl None.125
s 1
f 1//1 3//1 2//1
f 4//2 6//2 5//2
f 4//3 5//4 7//5
f 8//6 9//6 5//6
f 8//7 5//7 10//7
f 6//8 12//8 11//8
f 6//9 11//9 5//9
f 7//5 5//4 13//10
f 3//11 14//11 2//11
f 3//12 15//13 14//14
f 16//15 18//15 17//15
f 16//16 17//16 19//16
f 20//17 22//17 21//18
f 23//19 25//19 24//19
f 23//20 26//21 25//22
f 27//23 29//24 28//25
f 27//23 30//26 29//24
f 31//27 14//28 32//29
f 31//27 2//30 14//28
f 33//31 35//31 34//32
f 36//33 32//29 14//28
f 37//34 39//34 38//34
f 37//35 24//35 39//35
f 40//36 29//37 41//38
f 40//39 28//39 29//39
f 42//40 44//41 43//42
f 42//40 43//42 45//43
f 35//44 29//44 30//44
f 46//45 48//46 47//47
f 46//48 47//49 49//50
f 50//51 5//51 51//51
f 50//52 52//53 5//54
f 51//55 5//56 53//57
f 11//58 53//57 5//56
f 18//59 54//59 17//59
f 54//60 10//60 55//60
f 54//61 55//61 17//61
f 19//62 43//62 56//62
f 56//63 58//63 57//63
f 56//64 43//64 58//64
f 59//65 61//65 60//65
f 59//65 57//65 61//65
f 60//65 61//65 62//65
f 63//66 64//66 29//66
f 63//66 29//66 65//66
f 65//66 29//66 66//66
f 67//67 68//67 39//67
f 67//67 39//67 69//67
f 69//67 39//67 70//67
f 70//67 39//67 25//67
f 22//17 71//17 21//18
f 72//68 74//68 73//68
f 72//69 75//69 74//69
f 72//70 73//70 76//70
f 72//71 5//71 75//71
f 13//72 5//72 9//72
f 39//73 35//73 33//73
f 5//54 52//53 75//74
f 72//75 76//75 77//75
f 5//76 72//76 10//76
f 78//77 43//77 55//77
f 78//78 55//78 77//78
f 10//79 72//79 55//79
f 57//80 58//80 61//80
f 55//81 72//81 79//81
f 79//82 72//82 77//82
f 66//66 29//66 80//66
f 80//66 29//66 81//66
f 36//83 14//83 82//83
f 36//84 25//22 26//21
f 36//83 82//83 25//83
f 55//85 79//85 77//85
f 55//86 43//87 17//88
f 83//89 48//46 64//89
f 83//89 47//47 48//46
f 84//90 61//90 85//90
f 61//91 87//92 86//93
f 61//94 86//94 85//94
f 61//91 58//95 87//92
f 71//17 14//14 21//18
f 64//96 88//97 29//98
f 62//65 61//65 47//65
f 21//18 14//14 89//99
f 14//14 15//13 89//99
f 33//100 38//100 39//100
f 68//101 35//101 39//101
f 68//102 81//102 35//102
f 25//103 39//103 24//103
f 43//104 78//104 45//104
f 43//105 19//105 17//105
f 58//106 43//42 44//41
f 48//107 88//97 64//96
f 90//108 92//108 91//108
f 90//109 91//109 93//109
f 91//110 95//110 94//110
f 91//111 97//111 96//111
f 97//112 91//112 92//112
f 97//113 99//113 98//113
f 97//114 98//114 96//114
f 100//115 91//116 101//117
f 100//115 95//115 91//116
f 102//118 101//118 91//118
f 96//119 103//119 91//119
f 96//120 98//120 103//120
f 104//121 98//121 99//121
f 104//122 105//123 98//124
f 104//125 99//125 106//125
f 104//122 106//126 105//123
f 107//127 91//127 108//127
f 107//128 76//128 91//128
f 108//129 91//129 109//129
f 110//130 77//130 76//130
f 111//131 109//131 91//131
f 111//132 91//132 112//132
f 112//133 91//133 113//133
f 113//134 91//134 94//134
f 114//135 91//135 115//135
f 114//136 93//136 91//136
f 116//137 115//137 91//137
f 117//138 116//138 91//138
f 117//139 91//139 118//139
f 118//140 91//140 73//140
f 73//141 91//141 76//141
f 29//142 35//142 81//142
f 84//143 49//50 47//49
f 84//144 47//144 61//144
f 29//37 88//145 41//38
f 119//146 121//146 120//146
f 122//147 124//147 123//147
f 122//148 125//149 124//150
f 126//151 124//151 127//151
f 126//152 128//152 124//152
f 123//153 130//153 129//153
f 123//154 124//154 130//154
f 125//149 131//155 124//150
f 120//156 121//156 132//156
f 120//157 132//158 133//159
f 134//160 136//160 135//160
f 134//161 137//161 136//161
f 138//162 140//162 139//162
f 141//163 143//163 142//163
f 141//164 142//165 144//166
f 145//167 147//168 146//169
f 145//167 146//169 148//170
f 149//171 150//172 132//173
f 149//171 132//173 121//174
f 151//175 153//176 152//175
f 154//177 132//173 150//172
f 155//178 157//178 156//178
f 155//179 156//179 143//179
f 158//180 159//181 146//182
f 158//183 146//183 147//183
f 160//184 162//185 161//186
f 160//184 163//187 162//185
f 152//188 148//188 146//188
f 164//189 166//190 165//191
f 164//189 167//192 166//190
f 168//193 169//193 124//193
f 168//194 124//195 170//196
f 169//197 171//198 124//199
f 130//200 124//199 171//198
f 135//201 136//201 172//201
f 172//202 173//202 128//202
f 172//203 136//203 173//203
f 137//204 174//204 162//204
f 174//205 176//205 175//205
f 174//206 175//206 162//206
f 177//207 179//207 178//207
f 177//207 178//207 176//207
f 179//207 180//207 178//207
f 181//208 146//208 182//208
f 181//208 183//208 146//208
f 183//208 184//208 146//208
f 185//209 156//209 186//209
f 185//209 187//209 156//209
f 187//209 188//209 156//209
f 188//209 142//209 156//209
f 139//162 140//162 189//162
f 190//210 192//210 191//210
f 190//211 191//211 193//211
f 190//212 194//212 192//212
f 190//213 193//213 124//213
f 131//214 127//214 124//214
f 156//215 151//215 152//215
f 124//195 193//216 170//196
f 190//217 195//217 194//217
f 124//218 128//218 190//218
f 196//219 173//219 162//219
f 196//220 195//220 173//220
f 128//221 173//221 190//221
f 176//222 178//222 175//222
f 173//223 197//223 190//223
f 197//224 195//224 190//224
f 184//208 198//208 146//208
f 198//208 199//208 146//208
f 154//225 200//225 132//225
f 154//226 144//166 142//165
f 154//225 142//225 200//225
f 173//227 195//227 197//227
f 173//228 136//229 162//230
f 201//231 182//231 165//231
f 201//231 165//231 166//231
f 202//232 203//232 178//232
f 178//233 205//234 204//235
f 178//233 203//236 205//234
f 178//237 204//237 175//237
f 189//162 140//162 132//162
f 182//238 146//238 206//238
f 180//207 166//207 178//207
f 140//239 207//240 132//158
f 132//158 207//240 133//159
f 151//241 156//241 157//241
f 186//242 156//242 152//242
f 186//243 152//243 199//243
f 142//244 143//244 156//244
f 162//245 163//245 196//245
f 162//246 136//246 137//246
f 175//247 161//186 162//185
f 165//248 182//248 206//248
f 208//249 91//249 209//249
f 208//250 210//250 91//250
f 91//251 212//251 211//251
f 103//252 209//252 91//252
f 103//253 98//253 105//253
f 213//254 214//255 91//256
f 213//254 91//256 211//254
f 102//257 91//257 214//257
f 215//258 216//258 91//258
f 215//259 91//259 194//259
f 216//260 217//260 91//260
f 218//261 194//261 195//261
f 219//262 91//262 217//262
f 219//263 220//263 91//263
f 220//264 221//264 91//264
f 221//265 212//265 91//265
f 222//266 223//266 91//266
f 222//267 91//267 210//267
f 224//268 91//268 223//268
f 225//269 91//269 224//269
f 225//270 226//270 91//270
f 226//271 192//271 91//271
f 192//272 194//272 91//272
f 146//273 199//273 152//273
f 202//274 166//190 167//192
f 202//275 178//275 166//275
f 146//182 159//181 206//276
