# Blender v2.79 (sub 0) OBJ File: ''
# www.blender.org
mtllib crack_restart_keyway_180.mtl
o crack_restart_keyway_180
v 0.073499 -0.113119 -0.472461
v 0.072762 -0.113468 -0.459453
v 0.085073 -0.121132 -0.472461
v 0.120406 -0.147382 -0.472461
v 0.109073 -0.137655 -0.472461
v 0.120406 -0.147382 -0.457089
v 0.070608 -0.114980 -0.394416
v 0.070367 -0.114973 -0.381408
v 0.070791 -0.114879 -0.368401
v 0.070807 -0.114696 -0.407423
v 0.072573 -0.113777 -0.446446
v 0.071629 -0.114180 -0.433438
v 0.071277 -0.114610 -0.342386
v 0.071850 -0.114167 -0.335882
v 0.104428 -0.142247 -0.303763
v 0.071363 -0.114440 -0.350545
v 0.071239 -0.114631 -0.420431
v 0.120406 -0.147382 -0.241892
v 0.109135 -0.143342 -0.245632
v 0.115410 -0.146215 -0.236345
v 0.120406 -0.147382 -0.231509
v 0.120406 -0.147382 -0.249577
v 0.120406 -0.147382 -0.257263
v 0.120406 -0.147382 -0.264949
v 0.101590 -0.138437 -0.259914
v 0.120406 -0.147382 -0.272634
v 0.090646 -0.130621 -0.282295
v 0.120406 -0.147382 -0.288006
v 0.120406 -0.147382 -0.303377
v 0.120406 -0.147382 -0.318748
v 0.120406 -0.147382 -0.334119
v 0.120406 -0.147382 -0.349490
v 0.120406 -0.147382 -0.364862
v 0.120406 -0.147382 -0.380233
v 0.120406 -0.147382 -0.395604
v 0.120406 -0.147382 -0.410975
v 0.120406 -0.147382 -0.426347
v 0.120406 -0.147382 -0.441718
v 0.103127 -0.133198 -0.472461
v 0.070919 -0.114626 -0.355393
v 0.077387 -0.119704 -0.312040
v 0.096795 -0.128682 -0.472461
v 0.080871 -0.122525 -0.304329
v 0.073297 -0.115399 -0.322506
v 0.074488 -0.116816 -0.319296
v 0.071850 -0.114167 -0.335882
v 0.071978 -0.114029 -0.325805
v 0.071885 -0.114019 -0.329378
v 0.071885 -0.114019 -0.329378
v 0.120406 -0.147382 -0.241892
v 0.087125 -0.127653 -0.290522
v 0.084970 -0.125691 -0.295576
v 0.104428 -0.142247 -0.303763
v 0.083686 -0.124612 -0.298993
v 0.073499 -0.113119 -0.472461
v 0.085073 -0.121132 -0.472461
v 0.072762 -0.113468 -0.459453
v 0.120406 -0.147382 -0.472461
v 0.120406 -0.147382 -0.457089
v 0.109073 -0.137655 -0.472461
v 0.070608 -0.114980 -0.394416
v 0.070791 -0.114879 -0.368401
v 0.070367 -0.114973 -0.381408
v 0.070807 -0.114696 -0.407423
v 0.072573 -0.113777 -0.446446
v 0.071629 -0.114180 -0.433438
v 0.071277 -0.114610 -0.342386
v 0.071363 -0.114440 -0.350545
v 0.071239 -0.114631 -0.420431
v 0.120406 -0.147382 -0.249577
v 0.120406 -0.147382 -0.257263
v 0.120406 -0.147382 -0.264949
v 0.120406 -0.147382 -0.272634
v 0.120406 -0.147382 -0.288006
v 0.120406 -0.147382 -0.303377
v 0.120406 -0.147382 -0.318748
v 0.120406 -0.147382 -0.334119
v 0.120406 -0.147382 -0.349490
v 0.120406 -0.147382 -0.364862
v 0.120406 -0.147382 -0.380233
v 0.120406 -0.147382 -0.395604
v 0.120406 -0.147382 -0.410975
v 0.120406 -0.147382 -0.426347
v 0.120406 -0.147382 -0.441718
v 0.103127 -0.133198 -0.472461
v 0.070919 -0.114626 -0.355393
v 0.096795 -0.128682 -0.472461
vn 0.5684 0.8210 0.0542
vn 0.6513 0.7588 0.0000
vn -0.1298 0.9915 -0.0029
vn -0.7543 0.6565 0.0028
vn 0.5493 0.8352 0.0278
vn 0.6082 0.7908 0.0686
vn 0.7089 0.6967 -0.1099
vn 0.6243 0.7808 0.0229
vn 0.4875 0.8729 0.0206
vn 0.5598 0.8274 0.0455
vn 0.3121 0.9465 0.0819
vn 0.2275 0.9738 0.0000
vn 0.3374 0.9414 0.0000
vn 0.4293 0.9031 0.0000
vn 0.4701 0.8792 0.0772
vn 0.4907 0.8713 0.0000
vn 0.3060 0.9520 0.0000
vn 0.2985 0.9063 -0.2992
vn 0.5964 0.8027 0.0000
vn 0.5102 0.8587 0.0489
vn 0.4279 0.9038 0.0044
vn 0.5663 0.8226 0.0515
vn 0.0001 0.0000 1.0000
vn 0.6551 0.7552 -0.0211
vn 0.6342 0.7725 0.0321
vn 0.5920 0.8053 0.0329
vn 0.7139 0.6941 -0.0920
vn 0.0000 0.0000 1.0000
vn 0.6420 0.7666 -0.0096
vn 0.7987 0.6010 -0.0310
vn -0.7987 -0.6010 0.0310
vn 0.7423 0.6698 -0.0186
vn -0.7423 -0.6698 0.0186
vn 0.7792 0.6265 -0.0185
vn -0.7792 -0.6265 0.0185
vn 0.7039 0.7103 0.0015
vn -0.7039 -0.7103 -0.0015
vn -0.3121 -0.9465 -0.0819
vn -0.2275 -0.9738 0.0000
vn 0.6519 0.7581 0.0163
vn -0.6519 -0.7581 -0.0163
vn 0.6474 0.7622 -0.0026
vn -0.6474 -0.7622 0.0026
vn 0.6420 0.7657 -0.0392
vn -0.6420 -0.7657 0.0392
vn -0.5684 -0.8210 -0.0542
vn -0.6513 -0.7588 0.0000
vn 0.1298 -0.9915 0.0029
vn 0.7543 -0.6565 -0.0028
vn -0.5493 -0.8352 -0.0278
vn -0.6082 -0.7908 -0.0686
vn -0.7089 -0.6967 0.1099
vn -0.6243 -0.7808 -0.0229
vn -0.4875 -0.8729 -0.0206
vn -0.5598 -0.8274 -0.0455
vn -0.3374 -0.9414 0.0000
vn -0.4293 -0.9031 0.0000
vn -0.4701 -0.8792 -0.0772
vn -0.4907 -0.8713 0.0000
vn -0.3060 -0.9520 0.0000
vn -0.2985 -0.9063 0.2992
vn -0.5964 -0.8027 0.0000
vn -0.5102 -0.8587 -0.0489
vn -0.4279 -0.9038 -0.0044
vn -0.5663 -0.8226 -0.0515
vn -0.0001 0.0000 -1.0000
vn -0.0000 0.0000 -1.0000
vn -0.6551 -0.7552 0.0211
vn -0.6342 -0.7725 -0.0321
vn -0.5920 -0.8053 -0.0329
vn -0.7139 -0.6941 0.0920
vn -0.6420 -0.7666 0.0096
vn -0.6447 -0.7645 0.0001
vn -0.3719 -0.9205 -0.1197
vn 0.6447 0.7645 -0.0001
vn 0.3719 0.9205 0.1197
usemtl None.019
s 1
f 1//1 2//1 3//1
f 4//2 5//2 6//2
f 7//3 8//3 9//3
f 7//4 9//4 10//4
f 11//5 3//5 2//5
f 11//6 12//6 3//6
f 13//7 14//7 15//7
f 13//8 15//8 16//8
f 17//9 10//9 3//9
f 17//10 3//10 12//10
f 18//11 19//11 20//11
f 18//12 20//12 21//12
f 18//13 22//13 19//13
f 23//14 24//14 25//14
f 23//14 25//14 22//14
f 26//14 25//14 24//14
f 26//15 27//15 25//15
f 26//16 28//16 27//16
f 28//16 29//16 27//16
f 29//17 30//17 15//17
f 29//18 15//18 27//18
f 30//17 31//17 15//17
f 32//17 33//17 15//17
f 32//17 15//17 31//17
f 33//17 34//17 15//17
f 34//19 35//19 3//19
f 34//20 3//20 15//20
f 35//19 36//19 3//19
f 36//19 37//19 3//19
f 6//2 5//2 38//2
f 3//21 10//21 9//21
f 38//22 5//22 3//22
f 38//19 3//19 37//19
f 5//23 39//23 3//23
f 15//24 9//24 40//24
f 41//25 15//25 14//25
f 3//26 9//26 15//26
f 40//27 16//27 15//27
f 39//28 42//28 3//28
f 15//29 41//29 43//29
f 44//30 45//30 14//30
f 44//31 46//31 45//31
f 44//32 14//32 47//32
f 44//33 47//33 46//33
f 47//34 14//34 48//34
f 47//35 49//35 46//35
f 41//36 14//36 45//36
f 41//37 45//37 46//37
f 20//38 19//38 50//38
f 20//39 50//39 21//39
f 51//40 15//40 52//40
f 51//41 52//41 53//41
f 52//42 15//42 54//42
f 52//43 54//43 53//43
f 54//44 15//44 43//44
f 54//45 43//45 53//45
f 55//46 56//46 57//46
f 58//47 59//47 60//47
f 61//48 62//48 63//48
f 61//49 64//49 62//49
f 65//50 57//50 56//50
f 65//51 56//51 66//51
f 67//52 53//52 46//52
f 67//53 68//53 53//53
f 69//54 56//54 64//54
f 69//55 66//55 56//55
f 50//56 19//56 70//56
f 71//57 25//57 72//57
f 71//57 70//57 25//57
f 73//57 72//57 25//57
f 73//58 25//58 27//58
f 73//59 27//59 74//59
f 74//59 27//59 75//59
f 75//60 53//60 76//60
f 75//61 27//61 53//61
f 76//60 53//60 77//60
f 78//60 53//60 79//60
f 78//60 77//60 53//60
f 79//60 53//60 80//60
f 80//62 56//62 81//62
f 80//63 53//63 56//63
f 81//62 56//62 82//62
f 82//62 56//62 83//62
f 59//47 84//47 60//47
f 56//64 62//64 64//64
f 84//65 56//65 60//65
f 84//62 83//62 56//62
f 60//66 56//67 85//66
f 53//68 86//68 62//68
f 41//69 46//69 53//69
f 56//70 53//70 62//70
f 86//71 53//71 68//71
f 85//66 56//67 87//67
f 53//72 43//72 41//72
f 27//73 51//73 53//73
f 70//74 19//74 25//74
f 27//75 15//75 51//75
f 22//76 25//76 19//76
