# Blender v2.79 (sub 0) OBJ File: ''
# www.blender.org
mtllib crack_restart_keyway_445.mtl
o crack_restart_keyway_445
v 0.073538 -0.113092 -0.472461
v 0.072990 -0.113324 -0.459453
v 0.084865 -0.121262 -0.472461
v 0.147220 -0.162042 -0.087638
v 0.127521 -0.150643 -0.086832
v 0.150776 -0.164583 -0.087254
v 0.143338 -0.159228 -0.088143
v 0.139537 -0.156353 -0.088657
v 0.135315 -0.153110 -0.089229
v 0.131068 -0.149873 -0.089874
v 0.126577 -0.147787 -0.091780
v 0.152192 -0.169035 -0.080793
v 0.154210 -0.167189 -0.086931
v 0.120406 -0.147382 -0.103551
v 0.120406 -0.147382 -0.118922
v 0.097633 -0.132865 -0.106362
v 0.104558 -0.137236 -0.092769
v 0.120866 -0.146923 -0.098614
v 0.120406 -0.147382 -0.472461
v 0.108229 -0.138328 -0.472461
v 0.120406 -0.147382 -0.457089
v 0.073511 -0.113111 -0.238326
v 0.106570 -0.141718 -0.120725
v 0.073109 -0.113250 -0.251334
v 0.073906 -0.112749 -0.225319
v 0.070759 -0.114897 -0.394416
v 0.070170 -0.115097 -0.381408
v 0.070861 -0.114840 -0.368401
v 0.070918 -0.114627 -0.407423
v 0.072671 -0.113707 -0.446446
v 0.071501 -0.114486 -0.342386
v 0.120406 -0.147382 -0.318748
v 0.070551 -0.114857 -0.355393
v 0.071460 -0.114286 -0.329378
v 0.073007 -0.113468 -0.264341
v 0.072444 -0.113868 -0.290356
v 0.072695 -0.113510 -0.277349
v 0.076528 -0.111101 -0.121259
v 0.075546 -0.111667 -0.134267
v 0.077390 -0.110358 -0.108252
v 0.071626 -0.114417 -0.316371
v 0.071728 -0.114117 -0.303364
v 0.074106 -0.112689 -0.212311
v 0.146547 -0.173931 -0.061447
v 0.148189 -0.172549 -0.068122
v 0.150079 -0.170908 -0.074917
v 0.114624 -0.144487 -0.094843
v 0.122213 -0.145575 -0.094013
v 0.115963 -0.144852 -0.090503
v 0.120406 -0.147382 -0.134293
v 0.120406 -0.147382 -0.149664
v 0.120406 -0.147382 -0.165036
v 0.120406 -0.147382 -0.180407
v 0.120406 -0.147382 -0.195778
v 0.120406 -0.147382 -0.211149
v 0.120406 -0.147382 -0.226521
v 0.120406 -0.147382 -0.257263
v 0.120406 -0.147382 -0.272634
v 0.120406 -0.147382 -0.241892
v 0.120406 -0.147382 -0.288006
v 0.120406 -0.147382 -0.303377
v 0.120406 -0.147382 -0.349490
v 0.120406 -0.147382 -0.334119
v 0.120406 -0.147382 -0.364862
v 0.120406 -0.147382 -0.380233
v 0.120406 -0.147382 -0.395604
v 0.120406 -0.147382 -0.426347
v 0.120406 -0.147382 -0.441718
v 0.071863 -0.114033 -0.433438
v 0.120406 -0.147382 -0.410975
v 0.077800 -0.110289 -0.095158
v 0.075263 -0.111655 -0.083049
v 0.071436 -0.114523 -0.420431
v 0.074445 -0.112477 -0.184869
v 0.074667 -0.112271 -0.173289
v 0.074075 -0.112643 -0.199304
v 0.074369 -0.112608 -0.191552
v 0.074874 -0.112270 -0.166581
v 0.074903 -0.112123 -0.160281
v 0.075022 -0.112171 -0.153676
v 0.095978 -0.129333 -0.472461
v 0.103518 -0.134861 -0.472461
v 0.143328 -0.176290 -0.044501
v 0.144383 -0.175559 -0.049858
v 0.075338 -0.111960 -0.141525
v 0.075003 -0.112060 -0.147274
v 0.068736 -0.115247 -0.033807
v 0.072567 -0.112492 -0.071535
v 0.068979 -0.113341 -0.054989
v 0.136358 -0.181000 -0.006242
v 0.137456 -0.180122 -0.013756
v 0.138338 -0.179374 -0.020180
v 0.132956 -0.183720 0.016153
v 0.066421 -0.114092 -0.001444
v 0.074029 -0.128051 0.017176
v 0.079297 -0.135111 0.022635
v 0.088659 -0.145526 0.031549
v 0.065713 -0.115198 0.009471
v 0.067771 -0.114840 -0.021384
v 0.102681 -0.160048 0.037958
v 0.116699 -0.174785 0.044025
v 0.129002 -0.186622 0.046138
v 0.141815 -0.177040 -0.037582
v 0.139652 -0.178272 -0.027398
v 0.132956 -0.183720 0.016153
v 0.066421 -0.114092 -0.001444
v 0.073538 -0.113092 -0.472461
v 0.084865 -0.121262 -0.472461
v 0.072990 -0.113324 -0.459453
v 0.147220 -0.162042 -0.087638
v 0.150776 -0.164583 -0.087254
v 0.127521 -0.150643 -0.086832
v 0.143338 -0.159228 -0.088143
v 0.139537 -0.156353 -0.088657
v 0.135315 -0.153110 -0.089229
v 0.131068 -0.149873 -0.089874
v 0.126577 -0.147787 -0.091780
v 0.154210 -0.167189 -0.086931
v 0.152192 -0.169035 -0.080793
v 0.120406 -0.147382 -0.103551
v 0.097633 -0.132865 -0.106362
v 0.120406 -0.147382 -0.118922
v 0.120866 -0.146923 -0.098614
v 0.104558 -0.137236 -0.092769
v 0.120406 -0.147382 -0.472461
v 0.120406 -0.147382 -0.457089
v 0.108229 -0.138328 -0.472461
v 0.073511 -0.113111 -0.238326
v 0.073109 -0.113250 -0.251334
v 0.106570 -0.141718 -0.120725
v 0.073906 -0.112749 -0.225319
v 0.070759 -0.114897 -0.394416
v 0.070861 -0.114840 -0.368401
v 0.070170 -0.115097 -0.381408
v 0.070918 -0.114627 -0.407423
v 0.072671 -0.113707 -0.446446
v 0.071501 -0.114486 -0.342386
v 0.070551 -0.114857 -0.355393
v 0.120406 -0.147382 -0.318748
v 0.071460 -0.114286 -0.329378
v 0.073007 -0.113468 -0.264341
v 0.072444 -0.113868 -0.290356
v 0.072695 -0.113510 -0.277349
v 0.076528 -0.111101 -0.121259
v 0.075546 -0.111667 -0.134267
v 0.077390 -0.110358 -0.108252
v 0.071626 -0.114417 -0.316371
v 0.071728 -0.114117 -0.303364
v 0.074106 -0.112689 -0.212311
v 0.146547 -0.173931 -0.061447
v 0.148189 -0.172549 -0.068122
v 0.150079 -0.170908 -0.074917
v 0.122213 -0.145575 -0.094013
v 0.114624 -0.144487 -0.094843
v 0.115963 -0.144852 -0.090503
v 0.120406 -0.147382 -0.134293
v 0.120406 -0.147382 -0.149664
v 0.120406 -0.147382 -0.165036
v 0.120406 -0.147382 -0.180407
v 0.120406 -0.147382 -0.195778
v 0.120406 -0.147382 -0.211149
v 0.120406 -0.147382 -0.226521
v 0.120406 -0.147382 -0.257263
v 0.120406 -0.147382 -0.272634
v 0.120406 -0.147382 -0.241892
v 0.120406 -0.147382 -0.288006
v 0.120406 -0.147382 -0.303377
v 0.120406 -0.147382 -0.349490
v 0.120406 -0.147382 -0.334119
v 0.120406 -0.147382 -0.364862
v 0.120406 -0.147382 -0.380233
v 0.120406 -0.147382 -0.395604
v 0.120406 -0.147382 -0.426347
v 0.071863 -0.114033 -0.433438
v 0.120406 -0.147382 -0.441718
v 0.120406 -0.147382 -0.410975
v 0.075263 -0.111655 -0.083049
v 0.077800 -0.110289 -0.095158
v 0.071436 -0.114523 -0.420431
v 0.074667 -0.112271 -0.173289
v 0.074445 -0.112477 -0.184869
v 0.074369 -0.112608 -0.191552
v 0.074075 -0.112643 -0.199304
v 0.074903 -0.112123 -0.160281
v 0.074874 -0.112270 -0.166581
v 0.075022 -0.112171 -0.153676
v 0.095978 -0.129333 -0.472461
v 0.103518 -0.134861 -0.472461
v 0.144383 -0.175559 -0.049858
v 0.143328 -0.176290 -0.044501
v 0.075338 -0.111960 -0.141525
v 0.075003 -0.112060 -0.147274
v 0.068736 -0.115247 -0.033807
v 0.068979 -0.113341 -0.054989
v 0.072567 -0.112492 -0.071535
v 0.137456 -0.180122 -0.013756
v 0.136358 -0.181000 -0.006242
v 0.138338 -0.179374 -0.020180
v 0.067771 -0.114840 -0.021384
v 0.141815 -0.177040 -0.037582
v 0.139652 -0.178272 -0.027398
vn 0.5845 0.8104 0.0391
vn 0.5843 0.8106 0.0388
vn 0.5841 0.8108 0.0384
vn 0.4141 0.6723 0.6136
vn 0.4227 0.6888 0.5890
vn 0.4072 0.6526 0.6391
vn 0.4037 0.6407 0.6531
vn 0.4038 0.6567 0.6370
vn 0.2064 0.8640 0.4593
vn 0.5301 0.7480 0.3993
vn 0.5377 0.8431 -0.0023
vn 0.5375 0.8432 0.0000
vn 0.5375 0.8432 -0.0003
vn 0.4731 0.8721 -0.1252
vn 0.5378 0.8431 -0.0029
vn 0.5967 0.8025 0.0000
vn 0.5959 0.8031 0.0009
vn 0.5924 0.8056 0.0055
vn 0.7120 0.7015 -0.0295
vn 0.7335 0.6784 -0.0412
vn -0.3363 0.9418 -0.0007
vn -0.8183 0.5748 0.0019
vn 0.5839 0.8109 0.0382
vn 0.5785 0.8130 -0.0654
vn 0.5617 0.8272 -0.0109
vn 0.5601 0.8284 0.0006
vn 0.5620 0.8271 -0.0107
vn 0.5391 0.8421 0.0140
vn 0.7069 0.7068 -0.0262
vn 0.6868 0.7267 -0.0176
vn 0.9818 0.1885 -0.0242
vn 0.7120 0.6971 -0.0841
vn 0.7136 0.7004 0.0123
vn 0.7443 0.6621 -0.0871
vn 0.5600 0.8285 0.0012
vn 0.5590 0.8288 -0.0235
vn 0.6880 0.7255 -0.0139
vn 0.8432 0.4462 0.2998
vn 0.7266 0.5939 0.3455
vn 0.4892 0.7646 0.4196
vn 0.1688 0.9315 -0.3223
vn 0.5657 0.6348 0.5263
vn 0.2882 0.8997 0.3279
vn 0.1374 0.9897 0.0408
vn 0.3789 0.9255 0.0000
vn 0.3947 0.8714 -0.2915
vn 0.5728 0.8197 0.0000
vn 0.5490 0.8358 0.0000
vn 0.5528 0.8332 0.0096
vn 0.5662 0.8242 0.0000
vn 0.5663 0.8242 0.0000
vn 0.7849 0.5757 0.2294
vn 0.6403 0.7639 -0.0806
vn 0.2882 0.8521 0.4369
vn 0.5667 0.8171 -0.1061
vn 0.3466 0.8061 0.4797
vn 0.4816 0.5089 -0.7135
vn 0.5499 0.8338 0.0495
vn 0.5572 0.8304 0.0000
vn 0.5563 0.8310 0.0026
vn 0.6968 0.7170 -0.0217
vn 0.6999 0.7138 -0.0251
vn 0.6979 0.7158 -0.0226
vn 0.7058 0.7078 -0.0300
vn 0.6682 0.7440 -0.0010
vn 0.6966 0.7171 -0.0220
vn 0.6959 0.7179 -0.0200
vn 0.6971 0.7167 -0.0216
vn 0.6885 0.7252 -0.0089
vn 0.6875 0.7261 -0.0071
vn 0.6891 0.7246 -0.0101
vn 0.5872 0.8085 0.0404
vn 0.5992 0.7985 0.0572
vn 0.5558 0.8310 0.0246
vn 0.4831 0.7949 0.3671
vn 0.5924 0.8057 0.0054
vn 0.5913 0.8065 0.0073
vn 0.5783 0.8149 0.0379
vn 0.5642 0.8256 0.0000
vn 0.3569 0.9135 0.1953
vn -0.0660 0.9978 0.0053
vn 0.7444 0.6672 -0.0268
vn 0.7072 0.7050 -0.0530
vn 0.7061 0.7064 -0.0494
vn 0.7058 0.7067 -0.0488
vn 0.7073 0.7049 -0.0535
vn 0.6894 0.7243 -0.0105
vn 0.1843 0.9787 0.0902
vn 0.6475 0.7410 0.1783
vn 0.6464 0.7410 0.1817
vn 0.6482 0.7409 0.1757
vn 0.6483 0.7409 0.1753
vn 0.6443 0.7414 0.1879
vn 0.7193 0.6941 0.0267
vn 0.6778 0.6938 0.2432
vn 0.4463 0.7787 0.4411
vn 0.8026 0.5861 0.1114
vn -0.4298 0.9007 -0.0629
vn 0.6857 0.7030 0.1889
vn 0.6313 0.7278 0.2679
vn 0.6791 0.7148 0.1670
vn 0.6703 0.7250 0.1586
vn 0.6356 0.7387 0.2242
vn 0.6357 0.7397 0.2206
vn 0.6355 0.7381 0.2264
vn 0.6365 0.7394 0.2193
vn 0.6351 0.7379 0.2283
vn 0.6388 0.7624 0.1038
vn 0.5459 0.8094 0.2164
vn 0.0025 0.9973 0.0731
vn 0.6774 0.7217 0.1424
vn 0.5636 0.8247 -0.0468
vn -0.6703 -0.7250 -0.1586
vn -0.4463 -0.7787 -0.4411
vn -0.8026 -0.5861 -0.1114
vn -0.6778 -0.6938 -0.2432
vn -0.6791 -0.7148 -0.1670
vn -0.5845 -0.8104 -0.0391
vn -0.5845 -0.8104 -0.0388
vn -0.5843 -0.8106 -0.0388
vn -0.4141 -0.6723 -0.6136
vn -0.4227 -0.6888 -0.5890
vn -0.4072 -0.6526 -0.6391
vn -0.4037 -0.6407 -0.6531
vn -0.4038 -0.6567 -0.6370
vn -0.2064 -0.8640 -0.4593
vn -0.5301 -0.7480 -0.3993
vn -0.5375 -0.8432 0.0000
vn -0.4731 -0.8721 0.1252
vn -0.5378 -0.8431 0.0029
vn -0.5967 -0.8025 0.0000
vn -0.7120 -0.7015 0.0295
vn -0.7335 -0.6784 0.0412
vn 0.3363 -0.9418 0.0007
vn 0.8183 -0.5748 -0.0019
vn -0.5868 -0.8088 -0.0401
vn -0.5785 -0.8130 0.0654
vn -0.5617 -0.8272 0.0109
vn -0.5620 -0.8271 0.0107
vn -0.5601 -0.8284 -0.0006
vn -0.5391 -0.8421 -0.0140
vn -0.7069 -0.7068 0.0262
vn -0.6868 -0.7267 0.0176
vn -0.9818 -0.1885 0.0242
vn -0.7120 -0.6971 0.0841
vn -0.7136 -0.7004 -0.0123
vn -0.7443 -0.6621 0.0871
vn -0.5600 -0.8285 -0.0012
vn -0.5590 -0.8288 0.0235
vn -0.6880 -0.7255 0.0139
vn -0.8432 -0.4462 -0.2998
vn -0.7266 -0.5939 -0.3455
vn -0.4892 -0.7646 -0.4196
vn -0.1688 -0.9315 0.3223
vn -0.5657 -0.6348 -0.5263
vn -0.2882 -0.8997 -0.3279
vn -0.1374 -0.9897 -0.0408
vn -0.3789 -0.9255 0.0000
vn -0.3947 -0.8714 0.2915
vn -0.5728 -0.8197 0.0000
vn -0.5490 -0.8358 0.0000
vn -0.5528 -0.8332 -0.0096
vn -0.5662 -0.8242 -0.0000
vn -0.5663 -0.8242 -0.0000
vn -0.7849 -0.5757 -0.2294
vn -0.6403 -0.7639 0.0806
vn -0.2882 -0.8521 -0.4369
vn -0.5667 -0.8171 0.1061
vn -0.3466 -0.8061 -0.4797
vn -0.4816 -0.5089 0.7135
vn -0.5499 -0.8338 -0.0495
vn -0.5572 -0.8304 0.0000
vn -0.5562 -0.8310 -0.0026
vn -0.6959 -0.7178 0.0208
vn -0.6979 -0.7158 0.0226
vn -0.6999 -0.7138 0.0251
vn -0.7058 -0.7078 0.0300
vn -0.6682 -0.7440 0.0010
vn -0.6966 -0.7171 0.0220
vn -0.6959 -0.7179 0.0200
vn -0.6961 -0.7177 0.0203
vn -0.6885 -0.7252 0.0089
vn -0.6891 -0.7246 0.0101
vn -0.6875 -0.7261 0.0071
vn -0.5872 -0.8085 -0.0404
vn -0.5992 -0.7985 -0.0572
vn -0.5558 -0.8310 -0.0246
vn -0.4831 -0.7949 -0.3671
vn -0.5920 -0.8059 -0.0061
vn -0.5913 -0.8065 -0.0073
vn -0.5924 -0.8057 -0.0054
vn -0.5927 -0.8054 -0.0048
vn -0.5783 -0.8149 -0.0379
vn -0.5642 -0.8256 0.0000
vn -0.3569 -0.9135 -0.1953
vn 0.0660 -0.9978 -0.0053
vn -0.7444 -0.6672 0.0268
vn -0.7072 -0.7050 0.0530
vn -0.7058 -0.7067 0.0488
vn -0.7061 -0.7064 0.0494
vn -0.7073 -0.7049 0.0535
vn -0.6894 -0.7243 0.0105
vn -0.1843 -0.9787 -0.0902
vn -0.6475 -0.7410 -0.1783
vn -0.6482 -0.7409 -0.1757
vn -0.6465 -0.7410 -0.1816
vn -0.6483 -0.7409 -0.1753
vn -0.6443 -0.7414 -0.1879
vn -0.7193 -0.6941 -0.0267
vn 0.4298 -0.9007 0.0629
vn -0.6857 -0.7030 -0.1889
vn -0.6313 -0.7278 -0.2679
vn -0.6356 -0.7387 -0.2242
vn -0.6355 -0.7381 -0.2264
vn -0.6357 -0.7397 -0.2206
vn -0.6365 -0.7394 -0.2193
vn -0.6351 -0.7379 -0.2283
vn -0.6388 -0.7624 -0.1038
vn -0.5459 -0.8094 -0.2164
vn -0.0025 -0.9973 -0.0731
vn -0.6774 -0.7217 -0.1424
vn -0.5636 -0.8247 0.0468
usemtl None.077
s 1
f 1//1 2//2 3//3
f 4//4 5//4 6//4
f 4//5 7//5 5//5
f 8//6 5//6 7//6
f 8//7 9//7 5//7
f 10//8 5//8 9//8
f 10//9 11//9 5//9
f 6//10 12//10 13//10
f 14//11 15//12 16//13
f 14//14 17//14 18//14
f 14//11 16//13 17//15
f 19//16 20//17 21//18
f 22//19 23//19 24//19
f 22//20 25//20 23//20
f 26//21 27//21 28//21
f 26//22 28//22 29//22
f 30//23 3//3 2//2
f 31//24 32//24 33//24
f 31//25 34//26 32//27
f 28//28 33//28 32//28
f 35//29 23//29 36//29
f 35//30 24//30 23//30
f 35//31 36//31 37//31
f 38//32 23//32 39//32
f 38//33 16//33 23//33
f 38//34 40//34 16//34
f 41//35 32//27 34//26
f 41//36 42//36 32//36
f 43//37 23//37 25//37
f 44//38 45//38 6//38
f 45//39 46//39 6//39
f 12//40 6//40 46//40
f 18//41 47//41 48//41
f 18//42 17//42 47//42
f 48//43 49//43 11//43
f 48//44 47//44 49//44
f 15//45 50//45 23//45
f 15//46 23//46 16//46
f 50//45 51//45 23//45
f 51//45 52//45 23//45
f 52//45 53//45 23//45
f 53//45 54//45 23//45
f 54//45 55//45 23//45
f 55//45 56//45 23//45
f 57//47 58//47 36//47
f 57//47 36//47 59//47
f 58//47 60//47 36//47
f 60//47 61//47 36//47
f 62//48 28//48 63//48
f 62//48 64//48 28//48
f 64//48 65//48 28//48
f 65//48 66//49 28//48
f 67//50 68//50 69//50
f 67//50 69//50 70//51
f 16//52 71//52 72//52
f 16//53 72//53 17//53
f 11//54 49//54 5//54
f 49//55 47//55 17//55
f 5//56 17//56 44//56
f 5//57 49//57 17//57
f 73//58 70//58 69//58
f 70//59 73//60 66//49
f 56//45 59//45 23//45
f 23//61 74//62 75//63
f 23//64 76//64 77//64
f 23//65 43//65 76//65
f 23//61 77//66 74//62
f 66//49 73//60 28//48
f 23//67 78//67 79//67
f 23//61 75//63 78//68
f 23//69 79//70 80//71
f 30//72 81//72 3//72
f 30//73 69//73 81//73
f 68//50 21//50 69//50
f 36//74 23//74 59//74
f 6//75 5//75 44//75
f 21//18 82//76 81//77
f 21//18 20//17 82//76
f 21//78 81//78 69//78
f 63//48 28//48 32//48
f 32//79 42//79 61//79
f 44//80 83//80 84//80
f 28//81 73//81 29//81
f 16//82 40//82 71//82
f 23//83 85//84 39//85
f 23//83 86//86 85//84
f 23//69 80//71 86//87
f 87//88 88//88 89//88
f 87//89 90//90 91//91
f 87//89 91//91 92//92
f 87//89 93//93 90//90
f 87//94 94//94 93//94
f 94//95 95//95 96//95
f 94//96 96//96 97//96
f 94//97 98//97 95//97
f 94//98 87//98 99//98
f 94//99 100//99 93//99
f 94//100 97//100 100//100
f 100//101 101//101 93//101
f 93//102 101//102 102//102
f 103//103 87//104 104//105
f 103//103 83//106 87//104
f 104//105 87//104 92//107
f 17//108 87//108 83//108
f 17//109 83//109 44//109
f 88//110 87//110 72//110
f 17//111 72//111 87//111
f 36//112 61//112 42//112
f 102//113 101//113 105//113
f 97//114 96//114 106//114
f 98//115 106//115 95//115
f 95//116 106//116 96//116
f 101//117 100//117 105//117
f 107//118 108//119 109//120
f 110//121 111//121 112//121
f 110//122 112//122 113//122
f 114//123 113//123 112//123
f 114//124 112//124 115//124
f 116//125 115//125 112//125
f 116//126 112//126 117//126
f 111//127 118//127 119//127
f 120//128 121//128 122//128
f 120//129 123//129 124//129
f 120//130 124//130 121//130
f 125//131 126//131 127//131
f 128//132 129//132 130//132
f 128//133 130//133 131//133
f 132//134 133//134 134//134
f 132//135 135//135 133//135
f 136//136 109//120 108//119
f 137//137 138//137 139//137
f 137//138 139//139 140//140
f 133//141 139//141 138//141
f 141//142 142//142 130//142
f 141//143 130//143 129//143
f 141//144 143//144 142//144
f 144//145 145//145 130//145
f 144//146 130//146 121//146
f 144//147 121//147 146//147
f 147//148 140//140 139//139
f 147//149 139//149 148//149
f 149//150 131//150 130//150
f 150//151 111//151 151//151
f 151//152 111//152 152//152
f 119//153 152//153 111//153
f 123//154 153//154 154//154
f 123//155 154//155 124//155
f 153//156 117//156 155//156
f 153//157 155//157 154//157
f 122//158 130//158 156//158
f 122//159 121//159 130//159
f 156//158 130//158 157//158
f 157//158 130//158 158//158
f 158//158 130//158 159//158
f 159//158 130//158 160//158
f 160//158 130//158 161//158
f 161//158 130//158 162//158
f 163//160 142//160 164//160
f 163//160 165//160 142//160
f 164//160 142//160 166//160
f 166//160 142//160 167//160
f 168//161 169//161 133//161
f 168//161 133//161 170//161
f 170//161 133//161 171//161
f 171//161 133//161 172//162
f 173//163 174//163 175//163
f 173//163 176//164 174//163
f 121//165 177//165 178//165
f 121//166 124//166 177//166
f 117//167 112//167 155//167
f 155//168 124//168 154//168
f 112//169 150//169 124//169
f 112//170 124//170 155//170
f 179//171 174//171 176//171
f 176//172 172//162 179//173
f 162//158 130//158 165//158
f 130//174 180//175 181//176
f 130//177 182//177 183//177
f 130//178 183//178 149//178
f 130//174 181//176 182//179
f 172//162 133//161 179//173
f 130//174 184//180 185//181
f 130//174 185//181 180//175
f 130//182 186//183 184//184
f 136//136 108//119 187//185
f 136//186 187//186 174//186
f 175//163 174//163 126//163
f 142//187 165//187 130//187
f 111//188 150//188 112//188
f 126//189 187//190 188//191
f 126//189 188//191 127//192
f 126//193 174//193 187//193
f 169//161 139//161 133//161
f 139//194 167//194 148//194
f 150//195 189//195 190//195
f 133//196 135//196 179//196
f 121//197 178//197 146//197
f 130//198 145//199 191//200
f 130//198 191//200 192//201
f 130//182 192//202 186//183
f 193//203 194//203 195//203
f 193//204 196//205 197//206
f 193//204 198//207 196//205
f 193//204 197//206 105//208
f 193//209 105//209 106//209
f 106//210 199//210 193//210
f 106//211 105//211 100//211
f 106//212 100//212 97//212
f 200//213 201//214 193//215
f 200//213 193//215 190//216
f 201//214 198//217 193//215
f 124//218 190//218 193//218
f 124//219 150//219 190//219
f 195//220 177//220 193//220
f 124//221 193//221 177//221
f 142//222 148//222 167//222
