# Blender v2.79 (sub 0) OBJ File: ''
# www.blender.org
mtllib crack_restart_keyway_135.mtl
o crack_restart_keyway_135
v 0.073499 -0.113119 -0.472461
v 0.072762 -0.113468 -0.459453
v 0.085009 -0.121172 -0.472461
v 0.120406 -0.147382 -0.472461
v 0.109185 -0.137566 -0.472461
v 0.120406 -0.147382 -0.457089
v 0.070566 -0.115003 -0.394416
v 0.070417 -0.114941 -0.381408
v 0.108111 -0.143845 -0.334358
v 0.070937 -0.114614 -0.407423
v 0.072559 -0.113787 -0.446446
v 0.071623 -0.114183 -0.433438
v 0.071630 -0.114415 -0.420431
v 0.070872 -0.114834 -0.368401
v 0.070936 -0.114762 -0.364427
v 0.073327 -0.117322 -0.362640
v 0.070817 -0.114815 -0.374905
v 0.120406 -0.147382 -0.257263
v 0.115240 -0.146658 -0.255935
v 0.120406 -0.147382 -0.248433
v 0.120406 -0.147382 -0.264949
v 0.111725 -0.145394 -0.262821
v 0.120406 -0.147382 -0.272634
v 0.109544 -0.144481 -0.268793
v 0.120406 -0.147382 -0.280320
v 0.107419 -0.143530 -0.275352
v 0.120406 -0.147382 -0.288006
v 0.106199 -0.142717 -0.279413
v 0.120406 -0.147382 -0.303377
v 0.104300 -0.142490 -0.303647
v 0.120406 -0.147382 -0.295691
v 0.120406 -0.147382 -0.318748
v 0.120406 -0.147382 -0.334119
v 0.120406 -0.147382 -0.349490
v 0.120406 -0.147382 -0.364862
v 0.120406 -0.147382 -0.380233
v 0.120406 -0.147382 -0.395604
v 0.120406 -0.147382 -0.410975
v 0.120406 -0.147382 -0.426347
v 0.120406 -0.147382 -0.441718
v 0.103092 -0.133050 -0.472461
v 0.078725 -0.122687 -0.351525
v 0.076073 -0.120204 -0.357564
v 0.080258 -0.124145 -0.348043
v 0.102675 -0.141367 -0.290409
v 0.099038 -0.139565 -0.337987
v 0.103480 -0.142405 -0.335238
v 0.086790 -0.129874 -0.332467
v 0.088677 -0.131479 -0.327639
v 0.090065 -0.132614 -0.323513
v 0.092766 -0.134847 -0.316792
v 0.095957 -0.137379 -0.308602
v 0.097625 -0.138514 -0.304292
v 0.070872 -0.114834 -0.368401
v 0.081399 -0.125192 -0.345483
v 0.082815 -0.126504 -0.342291
v 0.084876 -0.128308 -0.337316
v 0.074826 -0.119037 -0.360529
v 0.120406 -0.147382 -0.264949
v 0.120406 -0.147382 -0.257263
v 0.099038 -0.139565 -0.337987
v 0.099385 -0.139619 -0.299324
v 0.104300 -0.142490 -0.303647
v 0.070417 -0.114941 -0.381408
v 0.073499 -0.113119 -0.472461
v 0.085009 -0.121172 -0.472461
v 0.072762 -0.113468 -0.459453
v 0.120406 -0.147382 -0.472461
v 0.120406 -0.147382 -0.457089
v 0.109185 -0.137566 -0.472461
v 0.070566 -0.115003 -0.394416
v 0.108111 -0.143845 -0.334358
v 0.070937 -0.114614 -0.407423
v 0.072559 -0.113787 -0.446446
v 0.071623 -0.114183 -0.433438
v 0.071630 -0.114415 -0.420431
v 0.070817 -0.114815 -0.374905
v 0.120406 -0.147382 -0.272634
v 0.120406 -0.147382 -0.280320
v 0.120406 -0.147382 -0.288006
v 0.120406 -0.147382 -0.303377
v 0.120406 -0.147382 -0.295691
v 0.120406 -0.147382 -0.318748
v 0.120406 -0.147382 -0.334119
v 0.120406 -0.147382 -0.349490
v 0.120406 -0.147382 -0.364862
v 0.120406 -0.147382 -0.380233
v 0.120406 -0.147382 -0.395604
v 0.120406 -0.147382 -0.410975
v 0.120406 -0.147382 -0.426347
v 0.120406 -0.147382 -0.441718
v 0.103092 -0.133050 -0.472461
v 0.103480 -0.142405 -0.335238
v 0.101041 -0.140559 -0.294995
vn -0.5724 -0.8182 -0.0544
vn -0.6584 -0.7527 0.0000
vn -0.6060 -0.7954 -0.0032
vn -0.5669 -0.8228 -0.0408
vn -0.5635 -0.8251 -0.0412
vn -0.5645 -0.8244 -0.0425
vn -0.5542 -0.8319 -0.0291
vn -0.6102 -0.7893 -0.0679
vn -0.5644 -0.8244 -0.0427
vn -0.6078 -0.7939 -0.0138
vn -0.7387 -0.6736 0.0242
vn -0.7388 -0.6735 0.0238
vn -0.7392 -0.6731 0.0242
vn -0.7164 -0.6976 0.0040
vn -0.1388 -0.9903 0.0000
vn -0.2232 -0.9748 0.0000
vn -0.1626 -0.9819 -0.0972
vn -0.2580 -0.9661 0.0000
vn -0.2844 -0.9587 0.0000
vn -0.2743 -0.9603 -0.0504
vn -0.3120 -0.9501 0.0000
vn -0.2906 -0.9568 0.0000
vn -0.2765 -0.9610 -0.0000
vn -0.5915 -0.8052 -0.0412
vn 0.0001 0.0000 -1.0000
vn -0.5607 -0.8269 -0.0420
vn -0.5592 -0.8280 -0.0424
vn -0.5588 -0.8281 -0.0439
vn -0.6861 -0.7275 0.0022
vn -0.6860 -0.7276 0.0021
vn -0.7014 -0.7127 0.0103
vn -0.7007 -0.7134 0.0099
vn -0.7007 -0.7134 0.0098
vn -0.3259 -0.9446 0.0401
vn -0.5576 -0.8290 -0.0428
vn -0.2997 -0.9011 -0.3135
vn -0.1302 -0.7872 -0.6028
vn -0.3195 -0.9475 -0.0139
vn -0.6278 -0.7779 -0.0273
vn -0.6202 -0.7844 -0.0083
vn -0.6229 -0.7821 -0.0157
vn -0.6247 -0.7807 -0.0154
vn -0.6215 -0.7834 -0.0069
vn -0.3004 -0.9536 0.0206
vn -0.5952 -0.8034 -0.0165
vn -0.5488 -0.8356 0.0236
vn -0.4799 -0.8443 -0.2383
vn 0.7387 0.6736 -0.0237
vn 0.7386 0.6737 -0.0242
vn 0.7392 0.6730 -0.0243
vn -0.6223 -0.7827 -0.0099
vn -0.6619 -0.7495 -0.0116
vn -0.6736 -0.7391 -0.0050
vn -0.2787 -0.9406 -0.1937
vn -0.5660 -0.8220 -0.0636
vn -0.8199 -0.5692 0.0615
vn -0.7687 -0.6390 0.0267
vn -0.2371 -0.9695 -0.0616
vn 0.2371 0.9695 0.0616
vn 0.2232 0.9748 0.0000
vn 0.1626 0.9819 0.0972
vn 0.6215 0.7834 0.0070
vn 0.6199 0.7846 0.0077
vn 0.6198 0.7847 0.0074
vn 0.6223 0.7827 0.0099
vn -0.5110 -0.8595 -0.0101
vn 0.5110 0.8595 0.0101
vn 0.7007 0.7134 -0.0098
vn 0.7007 0.7134 -0.0099
vn 0.7014 0.7127 -0.0103
vn 0.6619 0.7495 0.0115
vn 0.6732 0.7394 0.0052
vn 0.6739 0.7389 0.0047
vn 0.6739 0.7388 0.0048
vn 0.1388 0.9903 0.0000
vn 0.5724 0.8182 0.0544
vn 0.6584 0.7527 0.0000
vn 0.6060 0.7954 0.0032
vn 0.5669 0.8228 0.0408
vn 0.5645 0.8244 0.0425
vn 0.5635 0.8251 0.0412
vn 0.5542 0.8319 0.0291
vn 0.6102 0.7893 0.0679
vn 0.5644 0.8244 0.0427
vn 0.6078 0.7939 0.0138
vn 0.7164 0.6976 -0.0040
vn 0.2580 0.9661 0.0000
vn 0.2844 0.9587 0.0000
vn 0.2743 0.9603 0.0504
vn 0.3120 0.9501 0.0000
vn 0.2906 0.9568 0.0000
vn 0.2765 0.9610 0.0000
vn 0.5915 0.8052 0.0412
vn -0.0001 0.0000 1.0000
vn 0.5607 0.8269 0.0420
vn 0.5588 0.8281 0.0439
vn 0.5592 0.8280 0.0424
vn 0.6861 0.7275 -0.0022
vn 0.6860 0.7276 -0.0021
vn 0.3259 0.9446 -0.0401
vn 0.5576 0.8290 0.0428
vn 0.2997 0.9011 0.3135
vn 0.1302 0.7872 0.6028
vn 0.3195 0.9475 0.0139
vn 0.6301 0.7763 0.0185
vn 0.6278 0.7779 0.0273
vn 0.6243 0.7810 0.0161
vn 0.6247 0.7807 0.0154
vn 0.3004 0.9536 -0.0206
vn 0.5952 0.8034 0.0165
vn 0.5488 0.8356 -0.0236
vn 0.4799 0.8443 0.2383
vn 0.2787 0.9406 0.1937
vn 0.5660 0.8220 0.0636
vn 0.8199 0.5692 -0.0615
vn 0.7687 0.6390 -0.0267
vn 0.3499 0.9336 -0.0773
vn 0.5017 0.8650 -0.0041
vn 0.4784 0.8780 -0.0158
vn 0.4065 0.9100 0.0823
vn 0.3160 0.9441 0.0941
vn -0.3499 -0.9336 0.0773
vn -0.5017 -0.8650 0.0041
vn -0.4784 -0.8780 0.0158
vn -0.4065 -0.9100 -0.0823
vn -0.3160 -0.9441 -0.0941
usemtl None.009
s 1
f 1//1 3//1 2//1
f 4//2 6//2 5//2
f 7//3 9//3 8//3
f 7//4 10//5 9//6
f 11//7 2//7 3//7
f 11//8 3//8 12//8
f 13//9 9//6 10//5
f 13//10 12//10 9//10
f 14//11 16//12 15//13
f 14//14 17//14 16//14
f 18//15 20//15 19//15
f 18//16 22//16 21//16
f 18//17 19//17 22//17
f 23//18 21//18 24//18
f 23//19 26//19 25//19
f 23//20 24//20 26//20
f 27//21 25//21 28//21
f 29//22 31//22 30//22
f 29//22 30//22 32//22
f 33//23 9//23 34//23
f 33//23 32//23 9//23
f 34//23 9//23 35//23
f 35//23 9//23 36//23
f 36//23 9//23 37//23
f 37//23 9//23 38//23
f 38//23 9//23 39//23
f 39//23 9//23 40//23
f 6//2 40//2 5//2
f 40//24 9//24 5//24
f 5//25 3//25 41//25
f 5//26 9//27 3//28
f 42//29 43//29 8//30
f 42//31 8//32 44//33
f 30//22 31//22 27//22
f 30//34 27//34 45//34
f 9//27 12//35 3//28
f 9//36 46//36 8//36
f 46//37 9//37 47//37
f 27//38 28//38 45//38
f 46//39 48//39 8//39
f 46//40 49//41 48//42
f 46//40 50//43 49//41
f 9//44 32//44 47//44
f 47//45 52//45 51//45
f 47//46 51//46 46//46
f 53//47 32//47 30//47
f 16//48 54//49 15//50
f 46//40 51//51 50//43
f 8//52 55//52 44//52
f 8//53 56//53 55//53
f 57//54 8//54 48//54
f 57//55 56//55 8//55
f 8//56 58//56 17//56
f 17//57 58//57 16//57
f 22//58 24//58 21//58
f 22//59 59//59 24//59
f 22//60 60//60 59//60
f 22//61 19//61 60//61
f 50//62 61//63 49//64
f 50//62 51//65 61//63
f 53//66 30//66 62//66
f 53//67 62//67 63//67
f 44//68 64//69 42//70
f 44//71 55//71 64//71
f 55//72 56//73 64//74
f 19//75 20//75 60//75
f 65//76 67//76 66//76
f 68//77 70//77 69//77
f 71//78 64//78 72//78
f 71//79 72//80 73//81
f 74//82 66//82 67//82
f 74//83 75//83 66//83
f 76//84 73//81 72//80
f 76//85 72//85 75//85
f 54//86 16//86 77//86
f 78//87 24//87 59//87
f 78//88 79//88 26//88
f 78//89 26//89 24//89
f 80//90 28//90 79//90
f 81//91 63//91 82//91
f 81//91 83//91 63//91
f 84//92 85//92 72//92
f 84//92 72//92 83//92
f 85//92 86//92 72//92
f 86//92 87//92 72//92
f 87//92 88//92 72//92
f 88//92 89//92 72//92
f 89//92 90//92 72//92
f 90//92 91//92 72//92
f 69//77 70//77 91//77
f 91//93 70//93 72//93
f 70//94 92//94 66//94
f 70//95 66//96 72//97
f 42//98 64//99 43//98
f 63//91 80//91 82//91
f 63//100 45//100 80//100
f 72//97 66//96 75//101
f 72//102 64//102 61//102
f 61//103 93//103 72//103
f 80//104 45//104 28//104
f 61//105 64//106 48//107
f 61//105 48//107 49//108
f 72//109 93//109 83//109
f 93//110 51//110 52//110
f 93//111 61//111 51//111
f 53//112 63//112 83//112
f 57//113 48//113 64//113
f 57//114 64//114 56//114
f 64//115 77//115 58//115
f 77//116 16//116 58//116
f 64//99 58//99 43//98
f 93//117 52//117 83//117
f 63//118 62//118 94//118
f 63//119 94//119 45//119
f 83//120 52//120 53//120
f 79//121 28//121 26//121
f 8//30 43//29 58//30
f 47//122 32//122 52//122
f 30//123 94//123 62//123
f 30//124 45//124 94//124
f 32//125 53//125 52//125
f 25//126 26//126 28//126
