# Blender v2.79 (sub 0) OBJ File: ''
# www.blender.org
mtllib crack_restart_keyway_75.mtl
o crack_restart_keyway_75
v 0.120406 -0.147382 -0.472461
v 0.120406 -0.147382 -0.457089
v 0.109629 -0.137211 -0.472461
v 0.120406 -0.147382 -0.257263
v 0.112278 -0.146246 -0.260002
v 0.120406 -0.147382 -0.264949
v 0.114272 -0.146712 -0.256571
v 0.120406 -0.147382 -0.248436
v 0.115531 -0.146939 -0.254331
v 0.120406 -0.147382 -0.272634
v 0.108909 -0.145008 -0.270076
v 0.107903 -0.144623 -0.273100
v 0.120406 -0.147382 -0.280320
v 0.120406 -0.147382 -0.288006
v 0.108956 -0.144801 -0.292783
v 0.120406 -0.147382 -0.295691
v 0.120406 -0.147382 -0.318748
v 0.091873 -0.135525 -0.329623
v 0.120406 -0.147382 -0.334119
v 0.120406 -0.147382 -0.349490
v 0.084754 -0.128838 -0.364684
v 0.120406 -0.147382 -0.364862
v 0.120406 -0.147382 -0.380233
v 0.120406 -0.147382 -0.395604
v 0.120406 -0.147382 -0.410975
v 0.120406 -0.147382 -0.426347
v 0.120406 -0.147382 -0.441718
v 0.083936 -0.127858 -0.370885
v 0.072922 -0.113493 -0.452949
v 0.102973 -0.132543 -0.472461
v 0.072449 -0.113864 -0.446446
v 0.073453 -0.113193 -0.467743
v 0.073669 -0.112999 -0.472461
v 0.083606 -0.120409 -0.472461
v 0.120406 -0.147382 -0.303377
v 0.093041 -0.136413 -0.324930
v 0.094476 -0.137539 -0.318015
v 0.099642 -0.140971 -0.298510
v 0.102405 -0.142295 -0.290106
v 0.081938 -0.125391 -0.384765
v 0.083001 -0.126749 -0.376622
v 0.082527 -0.126182 -0.379543
v 0.090296 -0.134077 -0.336657
v 0.088990 -0.133355 -0.341776
v 0.088022 -0.132422 -0.346334
v 0.073693 -0.115493 -0.433613
v 0.072150 -0.113911 -0.436491
v 0.079876 -0.122904 -0.402110
v 0.111162 -0.145784 -0.263533
v 0.106851 -0.144135 -0.276275
v 0.105597 -0.143683 -0.279934
v 0.096086 -0.138699 -0.311808
v 0.104513 -0.143252 -0.283149
v 0.120406 -0.147382 -0.257263
v 0.120406 -0.147382 -0.264949
v 0.078801 -0.121730 -0.408146
v 0.081478 -0.124801 -0.388692
v 0.081096 -0.124429 -0.391202
v 0.080570 -0.123891 -0.395226
v 0.078095 -0.120913 -0.412524
v 0.109629 -0.137211 -0.472461
v 0.077490 -0.120222 -0.415800
v 0.072449 -0.113864 -0.446446
v 0.075203 -0.117611 -0.426783
v 0.076326 -0.118915 -0.421442
v 0.120406 -0.147382 -0.318748
v 0.108956 -0.144801 -0.292783
v 0.120406 -0.147382 -0.472461
v 0.120406 -0.147382 -0.457089
v 0.120406 -0.147382 -0.272634
v 0.120406 -0.147382 -0.280320
v 0.120406 -0.147382 -0.288006
v 0.120406 -0.147382 -0.295691
v 0.120406 -0.147382 -0.334119
v 0.120406 -0.147382 -0.349490
v 0.120406 -0.147382 -0.364862
v 0.120406 -0.147382 -0.380233
v 0.120406 -0.147382 -0.395604
v 0.120406 -0.147382 -0.410975
v 0.120406 -0.147382 -0.426347
v 0.120406 -0.147382 -0.441718
v 0.072922 -0.113493 -0.452949
v 0.102973 -0.132543 -0.472461
v 0.073453 -0.113193 -0.467743
v 0.083606 -0.120409 -0.472461
v 0.073669 -0.112999 -0.472461
v 0.120406 -0.147382 -0.303377
vn -0.6864 -0.7273 0.0000
vn -0.1384 -0.9904 0.0000
vn -0.1158 -0.9910 -0.0673
vn -0.0905 -0.9959 0.0000
vn -0.1127 -0.9929 -0.0373
vn -0.2022 -0.9793 0.0000
vn -0.2155 -0.9765 0.0000
vn -0.2157 -0.9765 -0.0004
vn -0.2189 -0.9757 0.0003
vn -0.2133 -0.9755 -0.0533
vn -0.2199 -0.9755 0.0000
vn -0.2202 -0.9755 0.0002
vn -0.3837 -0.9234 0.0000
vn -0.4315 -0.8982 -0.0837
vn -0.4615 -0.8872 0.0000
vn -0.4614 -0.8872 0.0000
vn -0.4853 -0.8712 -0.0737
vn -0.4797 -0.8765 -0.0406
vn -0.5721 -0.8158 -0.0847
vn -0.5732 -0.8146 -0.0882
vn -0.5967 -0.8002 -0.0602
vn -0.5904 -0.8062 -0.0375
vn -0.5309 -0.8474 0.0096
vn -0.3555 -0.9313 -0.0792
vn -0.3534 -0.9313 -0.0883
vn -0.3540 -0.9313 -0.0860
vn -0.3556 -0.9311 -0.0813
vn -0.3173 -0.9415 -0.1136
vn -0.3664 -0.9301 -0.0261
vn -0.3636 -0.9314 -0.0183
vn -0.3650 -0.9307 -0.0219
vn -0.2950 -0.9555 0.0000
vn -0.6522 -0.7570 -0.0411
vn 0.7968 -0.5360 -0.2789
vn -0.6933 -0.7203 -0.0242
vn -0.5467 -0.8351 -0.0614
vn -0.1783 -0.9824 -0.0551
vn -0.3895 -0.9210 -0.0125
vn -0.3291 -0.9443 -0.0039
vn -0.3520 -0.9337 -0.0654
vn -0.3557 -0.9310 -0.0817
vn -0.3464 -0.9380 -0.0089
vn -0.3636 -0.9314 -0.0179
vn 0.1384 0.9904 0.0000
vn -0.1805 -0.9810 -0.0713
vn 0.1805 0.9810 0.0713
vn 0.1158 0.9910 0.0673
vn 0.1783 0.9824 0.0551
vn -0.5566 -0.8292 -0.0513
vn -0.5531 -0.8305 -0.0652
vn -0.5585 -0.8266 -0.0692
vn -0.5509 -0.8322 -0.0637
vn 0.1127 0.9929 0.0373
vn -0.8373 0.5077 0.2028
vn -0.7155 -0.6983 -0.0212
vn -0.4627 -0.8829 -0.0799
vn -0.9635 -0.2515 0.0922
vn -0.5593 -0.8260 -0.0697
vn 0.5537 0.8301 0.0656
vn 0.5531 0.8305 0.0652
vn 0.5520 0.8313 0.0645
vn -0.5605 -0.8251 -0.0705
vn 0.5605 0.8251 0.0705
vn 0.5612 0.8247 0.0710
vn 0.5639 0.8226 0.0732
vn 0.6933 0.7203 0.0242
vn -0.6004 -0.7917 -0.1128
vn 0.6004 0.7917 0.1128
vn 0.0905 0.9959 0.0000
vn -0.5647 -0.8219 -0.0739
vn -0.5698 -0.8180 -0.0787
vn -0.5646 -0.8220 -0.0742
vn 0.5647 0.8219 0.0739
vn 0.1765 -0.9597 -0.2189
vn 0.3556 0.9311 0.0813
vn 0.3557 0.9310 0.0817
vn 0.3540 0.9313 0.0860
vn 0.3555 0.9313 0.0792
vn 0.3650 0.9307 0.0219
vn 0.3636 0.9314 0.0179
vn 0.3636 0.9314 0.0183
vn 0.3664 0.9301 0.0261
vn 0.3464 0.9380 0.0089
vn 0.3291 0.9443 0.0039
vn -0.5708 -0.8172 -0.0795
vn 0.5708 0.8172 0.0795
vn 0.6864 0.7273 0.0000
vn 0.2022 0.9793 0.0000
vn 0.2155 0.9765 0.0000
vn 0.2189 0.9757 -0.0003
vn 0.2157 0.9765 0.0004
vn 0.2133 0.9755 0.0533
vn 0.2199 0.9755 0.0000
vn 0.2202 0.9755 -0.0003
vn 0.3837 0.9234 0.0000
vn 0.4315 0.8982 0.0837
vn 0.4615 0.8872 0.0000
vn 0.4614 0.8872 0.0000
vn 0.4853 0.8712 0.0737
vn 0.4797 0.8765 0.0406
vn 0.5724 0.8155 0.0857
vn 0.5729 0.8149 0.0874
vn 0.5721 0.8158 0.0847
vn 0.5732 0.8146 0.0882
vn 0.5967 0.8002 0.0602
vn 0.5904 0.8062 0.0375
vn 0.5309 0.8474 -0.0096
vn 0.3534 0.9313 0.0883
vn 0.3173 0.9415 0.1136
vn 0.2950 0.9555 0.0000
vn -0.6325 -0.7731 -0.0463
vn -0.9215 0.2837 0.2651
vn 0.5500 0.8328 0.0632
vn 0.5467 0.8351 0.0614
vn 0.3895 0.9210 0.0125
vn 0.3520 0.9337 0.0654
vn 0.5566 0.8292 0.0513
usemtl None.145
s 1
f 1//1 2//1 3//1
f 4//2 5//2 6//2
f 4//3 7//3 5//3
f 4//4 8//4 9//4
f 4//5 9//5 7//5
f 10//6 6//6 11//6
f 10//7 12//8 13//9
f 10//10 11//10 12//10
f 14//11 15//12 16//11
f 14//11 13//9 15//12
f 17//13 18//13 19//13
f 19//13 18//13 20//13
f 20//14 18//14 21//14
f 20//15 21//15 22//15
f 22//15 21//15 23//16
f 24//1 3//1 25//1
f 24//1 23//1 3//1
f 25//1 3//1 26//1
f 26//1 3//1 27//1
f 2//1 27//1 3//1
f 28//17 23//17 21//17
f 28//18 3//18 23//18
f 29//19 30//19 3//19
f 29//20 3//20 31//20
f 32//21 33//21 34//21
f 32//22 34//22 29//22
f 35//11 16//11 15//12
f 30//23 29//23 34//23
f 36//24 18//25 17//26
f 36//24 17//26 37//27
f 38//28 35//28 15//28
f 38//29 15//30 39//31
f 38//32 17//32 35//32
f 40//33 41//33 42//33
f 43//34 44//34 45//34
f 31//35 46//35 47//35
f 3//36 28//36 48//36
f 11//37 6//37 49//37
f 50//38 15//38 12//38
f 50//39 51//39 15//39
f 12//8 15//12 13//9
f 38//40 52//40 17//40
f 17//26 52//41 37//27
f 15//42 51//42 53//42
f 53//43 39//31 15//30
f 5//44 54//44 55//44
f 5//45 49//45 6//45
f 5//46 55//46 49//46
f 5//47 7//47 54//47
f 49//48 55//48 11//48
f 46//49 31//49 3//49
f 56//50 3//51 48//52
f 7//53 9//53 54//53
f 57//54 58//54 28//54
f 57//55 28//55 40//55
f 59//56 48//56 28//56
f 59//57 28//57 58//57
f 60//58 3//51 56//50
f 60//59 56//60 61//61
f 60//58 62//62 3//51
f 60//63 61//64 62//65
f 46//66 63//66 47//66
f 46//67 3//67 64//67
f 46//68 64//68 61//68
f 9//69 8//69 54//69
f 62//70 65//71 3//72
f 62//65 61//64 65//73
f 21//74 18//74 45//74
f 37//75 52//76 66//77
f 37//75 66//77 36//78
f 39//79 53//80 67//81
f 39//79 67//81 38//82
f 53//83 51//83 67//83
f 51//84 50//84 67//84
f 3//72 65//71 64//85
f 64//86 65//86 61//86
f 68//87 61//87 69//87
f 70//88 11//88 55//88
f 70//89 71//90 12//91
f 70//92 12//92 11//92
f 72//93 73//93 67//94
f 72//93 67//94 71//90
f 66//95 74//95 18//95
f 74//95 75//95 18//95
f 75//96 21//96 18//96
f 75//97 76//97 21//97
f 76//97 77//98 21//97
f 78//87 79//87 61//87
f 78//87 61//87 77//87
f 79//87 80//87 61//87
f 80//87 81//87 61//87
f 69//87 61//87 81//87
f 28//99 21//99 77//99
f 28//100 77//100 61//100
f 82//101 61//102 83//103
f 82//101 63//104 61//102
f 84//105 85//105 86//105
f 84//106 82//106 85//106
f 87//93 67//94 73//93
f 83//107 85//107 82//107
f 36//78 66//77 18//108
f 38//109 67//109 87//109
f 38//110 87//110 66//110
f 40//111 28//111 41//111
f 43//112 45//112 18//112
f 61//61 48//113 28//114
f 50//115 12//115 67//115
f 12//91 71//90 67//94
f 38//116 66//116 52//116
f 46//117 61//117 63//117
f 56//60 48//113 61//61
