# Blender v2.79 (sub 0) OBJ File: ''
# www.blender.org
mtllib crack_restart_keyway_715.mtl
o crack_restart_keyway_715
v 0.073348 -0.113226 -0.472461
v 0.072931 -0.113361 -0.459453
v 0.084655 -0.121394 -0.472461
v 0.147225 -0.162039 -0.087634
v 0.129801 -0.158104 -0.072059
v 0.150731 -0.164625 -0.087294
v 0.143382 -0.159202 -0.088100
v 0.131068 -0.149873 -0.089874
v 0.127508 -0.150659 -0.086852
v 0.135366 -0.153079 -0.089186
v 0.126540 -0.147825 -0.091832
v 0.152183 -0.169043 -0.080798
v 0.154210 -0.167189 -0.086931
v 0.139592 -0.156319 -0.088614
v 0.120406 -0.147382 -0.457089
v 0.095801 -0.129474 -0.472461
v 0.120406 -0.147382 -0.103551
v 0.114631 -0.144474 -0.094849
v 0.120866 -0.146923 -0.098614
v 0.120406 -0.147382 -0.118922
v 0.120406 -0.147382 -0.472461
v 0.108111 -0.138422 -0.472461
v 0.084892 -0.104411 0.313952
v 0.138578 -0.179987 0.258097
v 0.083434 -0.103970 0.290356
v 0.083434 -0.103970 0.290356
v 0.138578 -0.179987 0.258097
v 0.099703 -0.121242 0.324108
v 0.073568 -0.113071 -0.238326
v 0.073852 -0.112783 -0.225319
v 0.120406 -0.147382 -0.226521
v 0.073187 -0.113201 -0.251334
v 0.070699 -0.114930 -0.394416
v 0.069912 -0.115259 -0.381408
v 0.090632 -0.132125 -0.376755
v 0.070967 -0.114596 -0.407423
v 0.072599 -0.113758 -0.446446
v 0.071898 -0.114011 -0.433438
v 0.071824 -0.114308 -0.342386
v 0.071548 -0.114231 -0.329378
v 0.070447 -0.114922 -0.355393
v 0.071557 -0.114456 -0.420431
v 0.070511 -0.115034 -0.368401
v 0.073094 -0.113407 -0.264341
v 0.072602 -0.113568 -0.277349
v 0.074615 -0.112328 -0.160281
v 0.074938 -0.112100 -0.147274
v 0.075382 -0.111931 -0.141616
v 0.074385 -0.112448 -0.173289
v 0.076269 -0.111264 -0.121259
v 0.106691 -0.141510 -0.120717
v 0.075685 -0.111569 -0.134267
v 0.076370 -0.111082 -0.108252
v 0.071655 -0.114401 -0.316371
v 0.071417 -0.114313 -0.303364
v 0.074034 -0.112740 -0.212311
v 0.074041 -0.112664 -0.199304
v 0.120406 -0.147382 -0.211149
v 0.146850 -0.173665 -0.061409
v 0.148177 -0.172559 -0.068129
v 0.146043 -0.174220 -0.051080
v 0.150298 -0.170716 -0.074796
v 0.122213 -0.145575 -0.094013
v 0.115969 -0.144844 -0.090501
v 0.120406 -0.147382 -0.134293
v 0.120406 -0.147382 -0.149664
v 0.120406 -0.147382 -0.165036
v 0.120406 -0.147382 -0.180407
v 0.120406 -0.147382 -0.195778
v 0.120406 -0.147382 -0.241892
v 0.120406 -0.147382 -0.257263
v 0.104170 -0.140678 -0.280927
v 0.120406 -0.147382 -0.272634
v 0.120406 -0.147382 -0.288006
v 0.120406 -0.147382 -0.334119
v 0.120406 -0.147382 -0.349490
v 0.120406 -0.147382 -0.318748
v 0.120406 -0.147382 -0.364862
v 0.120406 -0.147382 -0.380233
v 0.120406 -0.147382 -0.395604
v 0.120406 -0.147382 -0.410975
v 0.120406 -0.147382 -0.426347
v 0.120406 -0.147382 -0.441718
v 0.144910 -0.174632 -0.039831
v 0.087734 -0.130841 0.126797
v 0.143629 -0.175050 -0.027824
v 0.071728 -0.111148 -0.054992
v 0.074601 -0.112096 -0.081618
v 0.075756 -0.111495 -0.096550
v 0.094999 -0.133146 -0.288875
v 0.120406 -0.147382 -0.303377
v 0.074030 -0.112743 -0.186296
v 0.103581 -0.135127 -0.472461
v 0.072161 -0.114069 -0.290356
v 0.081307 -0.103502 0.264341
v 0.080590 -0.106239 0.238326
v 0.130699 -0.156153 0.341296
v 0.146264 -0.172575 0.346122
v 0.144535 -0.173892 0.327619
v 0.144535 -0.173892 0.327619
v 0.142675 -0.175163 0.304867
v 0.142675 -0.175163 0.304867
v 0.111989 -0.135104 0.332328
v 0.070325 -0.112210 -0.001446
v 0.071432 -0.113552 0.025331
v 0.072268 -0.113026 -0.026419
v 0.070015 -0.112511 0.052171
v 0.071200 -0.113699 0.078764
v 0.070080 -0.112334 0.106111
v 0.072929 -0.112611 0.129530
v 0.073548 -0.109693 0.159331
v 0.077959 -0.109451 0.199440
v 0.079364 -0.108291 0.218244
v 0.134263 -0.182455 0.189273
v 0.133528 -0.182926 0.138272
v 0.133922 -0.182364 0.112025
v 0.135132 -0.181809 0.086311
v 0.136256 -0.180687 0.064091
v 0.138361 -0.179504 0.036692
v 0.139898 -0.178142 0.017066
v 0.142045 -0.176433 -0.008988
v 0.141812 -0.176408 0.292796
v 0.140930 -0.177638 0.281552
v 0.073348 -0.113226 -0.472461
v 0.084655 -0.121394 -0.472461
v 0.072931 -0.113361 -0.459453
v 0.147225 -0.162039 -0.087634
v 0.150731 -0.164625 -0.087294
v 0.129801 -0.158104 -0.072059
v 0.143382 -0.159202 -0.088100
v 0.131068 -0.149873 -0.089874
v 0.135366 -0.153079 -0.089186
v 0.127508 -0.150659 -0.086852
v 0.126540 -0.147825 -0.091832
v 0.154210 -0.167189 -0.086931
v 0.152183 -0.169043 -0.080798
v 0.139592 -0.156319 -0.088614
v 0.120406 -0.147382 -0.457089
v 0.095801 -0.129474 -0.472461
v 0.120406 -0.147382 -0.103551
v 0.120866 -0.146923 -0.098614
v 0.114631 -0.144474 -0.094849
v 0.120406 -0.147382 -0.118922
v 0.120406 -0.147382 -0.472461
v 0.108111 -0.138422 -0.472461
v 0.073568 -0.113071 -0.238326
v 0.120406 -0.147382 -0.226521
v 0.073852 -0.112783 -0.225319
v 0.073187 -0.113201 -0.251334
v 0.070699 -0.114930 -0.394416
v 0.090632 -0.132125 -0.376755
v 0.069912 -0.115259 -0.381408
v 0.070967 -0.114596 -0.407423
v 0.072599 -0.113758 -0.446446
v 0.071898 -0.114011 -0.433438
v 0.071824 -0.114308 -0.342386
v 0.071548 -0.114231 -0.329378
v 0.070447 -0.114922 -0.355393
v 0.071557 -0.114456 -0.420431
v 0.070511 -0.115034 -0.368401
v 0.073094 -0.113407 -0.264341
v 0.072602 -0.113568 -0.277349
v 0.074615 -0.112328 -0.160281
v 0.075382 -0.111931 -0.141616
v 0.074938 -0.112100 -0.147274
v 0.074385 -0.112448 -0.173289
v 0.076269 -0.111264 -0.121259
v 0.075685 -0.111569 -0.134267
v 0.106691 -0.141510 -0.120717
v 0.076370 -0.111082 -0.108252
v 0.071655 -0.114401 -0.316371
v 0.071417 -0.114313 -0.303364
v 0.074034 -0.112740 -0.212311
v 0.120406 -0.147382 -0.211149
v 0.074041 -0.112664 -0.199304
v 0.146850 -0.173665 -0.061409
v 0.148177 -0.172559 -0.068129
v 0.146043 -0.174220 -0.051080
v 0.150298 -0.170716 -0.074796
v 0.122213 -0.145575 -0.094013
v 0.115969 -0.144844 -0.090501
v 0.120406 -0.147382 -0.134293
v 0.120406 -0.147382 -0.149664
v 0.120406 -0.147382 -0.165036
v 0.120406 -0.147382 -0.180407
v 0.120406 -0.147382 -0.195778
v 0.120406 -0.147382 -0.241892
v 0.104170 -0.140678 -0.280927
v 0.120406 -0.147382 -0.257263
v 0.120406 -0.147382 -0.272634
v 0.120406 -0.147382 -0.288006
v 0.120406 -0.147382 -0.334119
v 0.120406 -0.147382 -0.349490
v 0.120406 -0.147382 -0.318748
v 0.120406 -0.147382 -0.364862
v 0.120406 -0.147382 -0.380233
v 0.120406 -0.147382 -0.395604
v 0.120406 -0.147382 -0.410975
v 0.120406 -0.147382 -0.426347
v 0.120406 -0.147382 -0.441718
v 0.144910 -0.174632 -0.039831
v 0.143629 -0.175050 -0.027824
v 0.087734 -0.130841 0.126797
v 0.071728 -0.111148 -0.054992
v 0.074601 -0.112096 -0.081618
v 0.075756 -0.111495 -0.096550
v 0.094999 -0.133146 -0.288875
v 0.120406 -0.147382 -0.303377
v 0.074030 -0.112743 -0.186296
v 0.103581 -0.135127 -0.472461
v 0.072161 -0.114069 -0.290356
v 0.081307 -0.103502 0.264341
v 0.080590 -0.106239 0.238326
v 0.070325 -0.112210 -0.001446
v 0.071432 -0.113552 0.025331
v 0.072268 -0.113026 -0.026419
v 0.070015 -0.112511 0.052171
v 0.071200 -0.113699 0.078764
v 0.070080 -0.112334 0.106111
v 0.072929 -0.112611 0.129530
v 0.073548 -0.109693 0.159331
v 0.077959 -0.109451 0.199440
v 0.079364 -0.108291 0.218244
v 0.134263 -0.182455 0.189273
v 0.133528 -0.182926 0.138272
v 0.133922 -0.182364 0.112025
v 0.135132 -0.181809 0.086311
v 0.136256 -0.180687 0.064091
v 0.138361 -0.179504 0.036692
v 0.139898 -0.178142 0.017066
v 0.142045 -0.176433 -0.008988
v 0.141812 -0.176408 0.292796
v 0.140930 -0.177638 0.281552
vn -0.5854 -0.8103 -0.0272
vn -0.5854 -0.8104 -0.0216
vn -0.5835 -0.8117 -0.0247
vn -0.5161 -0.7613 -0.3925
vn -0.5169 -0.7576 -0.3986
vn -0.5190 -0.7615 -0.3883
vn -0.5239 -0.7595 -0.3857
vn -0.3934 -0.6638 -0.6361
vn -0.1955 -0.8682 -0.4561
vn -0.5165 -0.7573 -0.3996
vn -0.5197 -0.7543 -0.4012
vn -0.5231 -0.7573 -0.3910
vn -0.5816 -0.8132 -0.0220
vn -0.5869 -0.8096 -0.0038
vn -0.5876 -0.8092 -0.0048
vn -0.5870 -0.8096 -0.0014
vn -0.3016 -0.9463 0.1161
vn -0.4497 -0.8932 0.0000
vn -0.5890 -0.8082 0.0000
vn -0.5889 -0.8082 -0.0012
vn -0.8011 -0.5974 0.0383
vn 0.8011 0.5974 -0.0383
vn -0.7757 -0.6235 0.0980
vn -0.7746 -0.6245 0.0996
vn -0.7735 -0.6260 0.0994
vn 0.7757 0.6235 -0.0980
vn 0.7735 0.6260 -0.0994
vn 0.7746 0.6245 -0.0996
vn -0.5949 -0.8033 0.0305
vn -0.5953 -0.8030 0.0282
vn -0.5957 -0.8026 0.0308
vn -0.5949 -0.8034 0.0255
vn -0.6225 -0.7805 -0.0574
vn -0.6360 -0.7710 -0.0329
vn -0.6310 -0.7751 -0.0337
vn -0.6327 -0.7736 -0.0367
vn -0.5819 -0.8122 -0.0402
vn -0.5824 -0.8116 -0.0457
vn -0.5801 -0.8132 -0.0466
vn -0.5807 -0.8131 -0.0396
vn -0.6978 -0.7162 -0.0106
vn -0.6904 -0.7234 -0.0060
vn -0.6849 -0.7286 -0.0090
vn -0.5822 -0.8069 0.0997
vn -0.5804 -0.8132 -0.0430
vn -0.6466 -0.7628 0.0034
vn -0.6365 -0.7701 0.0426
vn -0.5921 -0.8057 0.0170
vn -0.6000 -0.7993 0.0326
vn 0.2246 -0.9744 0.0115
vn 0.2237 -0.9746 0.0116
vn 0.4579 -0.8890 0.0001
vn 0.4570 -0.8895 0.0001
vn 0.4570 -0.8895 0.0002
vn -0.7047 -0.7079 0.0482
vn -0.7051 -0.7089 0.0154
vn -0.6991 -0.7150 -0.0049
vn -0.6958 -0.7182 -0.0079
vn -0.5963 -0.8027 0.0110
vn -0.5962 -0.8029 0.0036
vn -0.5965 -0.8026 0.0035
vn -0.6003 -0.7998 0.0044
vn -0.5985 -0.8011 0.0000
vn -0.5675 -0.7871 -0.2416
vn -0.6397 -0.7632 -0.0910
vn -0.6386 -0.7641 -0.0912
vn -0.6389 -0.7637 -0.0923
vn -0.5213 -0.7654 -0.3774
vn -0.5213 -0.7654 -0.3773
vn -0.5213 -0.7654 -0.3772
vn -0.5214 -0.7655 -0.3771
vn -0.1708 -0.9310 0.3227
vn -0.2946 -0.8939 -0.3377
vn -0.1391 -0.9894 -0.0414
vn -0.3936 -0.9193 0.0000
vn -0.3953 -0.9184 0.0161
vn -0.6186 -0.7857 0.0000
vn -0.3817 -0.9243 -0.0000
vn -0.4560 -0.8900 -0.0000
vn -0.7787 -0.6186 -0.1046
vn -0.6437 -0.7611 -0.0798
vn -0.6522 -0.7577 -0.0247
vn -0.4388 -0.8282 -0.3488
vn -0.3930 -0.6307 -0.6691
vn -0.6387 -0.7639 -0.0923
vn -0.5858 -0.7991 -0.1352
vn -0.6254 -0.7793 -0.0397
vn -0.2948 -0.8540 -0.4287
vn -0.3142 -0.8667 -0.3875
vn -0.6046 -0.7904 0.0984
vn -0.7268 -0.6817 -0.0837
vn -0.6279 -0.7652 -0.1423
vn -0.4644 -0.8451 -0.2649
vn -0.4888 -0.8724 0.0000
vn -0.5796 -0.8114 -0.0751
vn -0.6322 -0.7739 -0.0370
vn -0.5589 -0.8292 0.0000
vn -0.9548 0.0271 0.2960
vn -0.9549 0.0241 0.2961
vn -0.6003 -0.7998 -0.0054
vn -0.8320 -0.5536 0.0353
vn -0.8375 -0.5453 0.0352
vn -0.5938 -0.8039 0.0326
vn -0.5984 -0.8012 0.0000
vn -0.5881 -0.8088 -0.0019
vn -0.5953 -0.7374 -0.3190
vn -0.6493 -0.7599 0.0291
vn -0.6422 -0.7648 0.0512
vn -0.5586 -0.8276 0.0546
vn -0.5559 -0.8297 0.0509
vn -0.5595 -0.8271 0.0541
vn -0.7196 -0.6916 -0.0622
vn -0.6420 -0.7605 0.0979
vn -0.7075 -0.7038 0.0638
vn -0.7971 -0.6013 0.0544
vn -0.7942 -0.6016 0.0852
vn -0.7377 -0.6650 0.1163
vn 0.7377 0.6650 -0.1163
vn -0.7468 -0.6579 0.0978
vn 0.7468 0.6579 -0.0978
vn -0.7623 -0.6417 0.0843
vn 0.7623 0.6417 -0.0843
vn -0.7736 -0.6256 0.1012
vn -0.7408 -0.6585 0.1328
vn -0.7099 -0.7043 -0.0059
vn -0.6400 -0.7680 -0.0247
vn -0.6999 -0.7142 -0.0092
vn -0.5240 -0.8505 -0.0460
vn -0.7194 -0.6946 0.0038
vn -0.7215 -0.6925 0.0012
vn -0.7229 -0.6909 0.0008
vn -0.7261 -0.6875 0.0046
vn -0.7671 -0.6358 0.0858
vn -0.7676 -0.6357 0.0820
vn -0.7674 -0.6355 0.0855
vn -0.7681 -0.6355 0.0782
vn -0.7598 -0.6442 0.0874
vn -0.7931 -0.6014 0.0964
vn -0.7850 -0.6154 0.0713
vn -0.7845 -0.6155 0.0757
vn 0.7736 0.6256 -0.1012
vn -0.7527 -0.6581 0.0169
vn -0.7480 -0.6632 -0.0254
vn -0.7507 -0.6588 -0.0495
vn -0.7580 -0.6484 -0.0711
vn -0.7660 -0.6370 -0.0864
vn -0.7791 -0.6182 -0.1039
vn -0.7799 -0.6171 -0.1047
vn -0.7857 -0.6086 -0.1104
vn -0.7904 -0.6033 -0.1061
vn -0.7867 -0.6073 -0.1107
vn -0.5589 -0.8279 0.0475
vn 0.0003 -0.9947 0.1026
vn -0.3865 -0.9131 0.1302
vn -0.7954 -0.5961 0.1095
vn 0.5854 0.8103 0.0272
vn 0.5213 0.7582 0.3916
vn 0.5221 0.7574 0.3921
vn 0.5202 0.7578 0.3938
vn 0.5173 0.7640 0.3856
vn 0.5239 0.7595 0.3857
vn 0.5174 0.7637 0.3861
vn 0.3934 0.6638 0.6361
vn 0.1955 0.8682 0.4561
vn 0.5165 0.7573 0.3996
vn 0.5234 0.7544 0.3961
vn 0.5231 0.7573 0.3910
vn 0.5816 0.8132 0.0220
vn 0.5869 0.8096 0.0038
vn 0.5877 0.8091 0.0020
vn 0.5876 0.8092 0.0048
vn 0.3016 0.9463 -0.1161
vn 0.4497 0.8932 0.0000
vn 0.5890 0.8082 0.0000
vn 0.5957 0.8026 -0.0308
vn 0.5949 0.8034 -0.0255
vn 0.5928 0.8051 -0.0171
vn 0.5917 0.8058 -0.0245
vn 0.6225 0.7805 0.0574
vn 0.6360 0.7710 0.0329
vn 0.6327 0.7736 0.0367
vn 0.6310 0.7751 0.0337
vn 0.5819 0.8122 0.0401
vn 0.5801 0.8132 0.0466
vn 0.5824 0.8116 0.0457
vn 0.5807 0.8131 0.0396
vn 0.6978 0.7162 0.0106
vn 0.6850 0.7285 0.0089
vn 0.6904 0.7234 0.0060
vn 0.5822 0.8069 -0.0997
vn 0.5804 0.8132 0.0430
vn 0.6466 0.7628 -0.0034
vn 0.6365 0.7701 -0.0426
vn 0.5921 0.8057 -0.0170
vn 0.6000 0.7993 -0.0326
vn -0.2246 0.9744 -0.0115
vn -0.2237 0.9746 -0.0116
vn -0.4579 0.8890 -0.0001
vn -0.4570 0.8895 -0.0002
vn -0.4570 0.8895 -0.0001
vn 0.7047 0.7079 -0.0482
vn 0.7051 0.7089 -0.0154
vn 0.6992 0.7149 0.0048
vn 0.6958 0.7182 0.0079
vn 0.5971 0.8022 -0.0021
vn 0.5927 0.8054 -0.0031
vn 0.5963 0.8027 -0.0110
vn 0.6003 0.7998 -0.0045
vn 0.5956 0.8033 0.0009
vn 0.5675 0.7871 0.2416
vn 0.6397 0.7632 0.0910
vn 0.6389 0.7637 0.0923
vn 0.6386 0.7641 0.0912
vn 0.5213 0.7654 0.3774
vn 0.5213 0.7654 0.3772
vn 0.5213 0.7654 0.3773
vn 0.5214 0.7655 0.3771
vn 0.1708 0.9310 -0.3227
vn 0.2946 0.8939 0.3377
vn 0.1391 0.9894 0.0414
vn 0.3936 0.9193 0.0000
vn 0.3953 0.9184 -0.0161
vn 0.6186 0.7857 0.0000
vn 0.3817 0.9243 0.0000
vn 0.4560 0.8900 0.0000
vn 0.7787 0.6186 0.1046
vn 0.6437 0.7611 0.0798
vn 0.6522 0.7577 0.0247
vn 0.4388 0.8282 0.3488
vn 0.3930 0.6307 0.6691
vn 0.6387 0.7639 0.0923
vn 0.5858 0.7991 0.1352
vn 0.6254 0.7793 0.0397
vn 0.2948 0.8540 0.4287
vn 0.3142 0.8667 0.3875
vn 0.6046 0.7904 -0.0984
vn 0.7268 0.6817 0.0837
vn 0.6279 0.7652 0.1423
vn 0.4644 0.8451 0.2649
vn 0.4888 0.8724 0.0000
vn 0.5796 0.8114 0.0751
vn 0.6322 0.7739 0.0370
vn 0.5589 0.8292 0.0000
vn 0.9548 -0.0271 -0.2960
vn 0.9549 -0.0241 -0.2961
vn 0.5972 0.8021 0.0036
vn 0.8320 0.5536 -0.0353
vn 0.8375 0.5453 -0.0352
vn 0.5938 0.8039 -0.0326
vn 0.5984 0.8012 0.0000
vn 0.5882 0.8087 0.0009
vn 0.5881 0.8088 0.0019
vn 0.5953 0.7374 0.3190
vn 0.6493 0.7599 -0.0291
vn 0.6422 0.7648 -0.0512
vn 0.5586 0.8276 -0.0546
vn 0.7196 0.6916 0.0622
vn 0.6420 0.7605 -0.0979
vn 0.7075 0.7038 -0.0638
vn 0.7971 0.6013 -0.0544
vn 0.7942 0.6016 -0.0852
vn 0.7408 0.6585 -0.1328
vn 0.7099 0.7043 0.0059
vn 0.6400 0.7680 0.0247
vn 0.6999 0.7142 0.0092
vn 0.5240 0.8505 0.0460
vn 0.7194 0.6946 -0.0038
vn 0.7229 0.6909 -0.0008
vn 0.7215 0.6925 -0.0012
vn 0.7261 0.6875 -0.0046
vn 0.7671 0.6358 -0.0858
vn 0.7674 0.6354 -0.0856
vn 0.7676 0.6357 -0.0820
vn 0.7681 0.6355 -0.0782
vn 0.7598 0.6442 -0.0874
vn 0.7931 0.6014 -0.0964
vn 0.7855 0.6146 -0.0721
vn 0.7850 0.6154 -0.0713
vn 0.7837 0.6166 -0.0746
vn 0.7845 0.6155 -0.0757
vn 0.7527 0.6581 -0.0169
vn 0.7480 0.6632 0.0254
vn 0.7507 0.6588 0.0495
vn 0.7580 0.6484 0.0711
vn 0.7660 0.6370 0.0864
vn 0.7791 0.6182 0.1039
vn 0.7803 0.6167 0.1041
vn 0.7795 0.6176 0.1043
vn 0.7799 0.6171 0.1047
vn 0.7867 0.6073 0.1107
vn 0.5589 0.8279 -0.0475
vn -0.0003 0.9947 -0.1026
vn 0.3865 0.9131 -0.1302
vn 0.7954 0.5961 -0.1095
usemtl None.138
s 1
f 1//1 3//2 2//3
f 4//4 6//5 5//6
f 4//4 5//6 7//7
f 8//8 10//8 9//8
f 8//9 9//9 11//9
f 6//5 13//10 12//11
f 6//5 12//11 5//6
f 7//7 5//6 14//12
f 3//2 15//13 2//3
f 3//14 16//15 15//16
f 17//17 19//17 18//17
f 17//18 18//18 20//18
f 21//19 15//16 22//20
f 23//21 25//21 24//21
f 23//22 27//22 26//22
f 23//23 24//24 28//25
f 23//26 28//27 27//28
f 29//29 31//30 30//31
f 29//29 32//32 31//30
f 33//33 35//33 34//33
f 33//34 36//35 35//36
f 37//37 15//38 38//39
f 37//37 2//40 15//38
f 39//41 35//42 40//43
f 39//44 41//44 35//44
f 42//45 38//39 15//38
f 43//46 35//46 41//46
f 43//47 34//47 35//47
f 44//48 31//48 32//48
f 44//49 45//49 31//49
f 46//50 48//50 47//51
f 46//52 49//53 48//54
f 50//55 52//55 51//55
f 50//56 51//56 53//56
f 54//57 40//43 35//42
f 54//57 35//42 55//58
f 56//59 30//59 31//59
f 56//60 58//61 57//62
f 56//60 31//63 58//61
f 59//64 5//64 60//64
f 59//65 61//66 5//67
f 60//68 5//69 62//70
f 12//71 62//70 5//69
f 19//72 63//72 18//72
f 63//73 11//73 64//73
f 63//74 64//74 18//74
f 20//75 51//75 65//75
f 20//76 18//76 51//76
f 65//75 51//75 66//75
f 67//77 48//77 68//77
f 67//77 66//77 48//77
f 68//77 48//77 69//77
f 70//78 72//78 71//78
f 70//78 31//78 72//78
f 71//78 72//78 73//78
f 73//78 72//78 74//78
f 75//79 35//79 76//79
f 75//79 77//79 35//79
f 76//79 35//79 78//79
f 78//79 35//79 79//79
f 79//79 35//79 80//79
f 80//79 35//79 81//79
f 81//79 35//79 82//79
f 82//79 35//79 83//79
f 84//80 86//80 85//80
f 84//81 87//81 64//81
f 84//82 85//82 87//82
f 14//83 5//83 9//83
f 14//84 9//84 10//84
f 84//85 5//67 61//66
f 84//86 64//86 5//86
f 87//87 88//87 64//87
f 64//88 11//88 9//88
f 64//89 9//89 5//89
f 51//90 64//90 88//90
f 51//91 88//91 89//91
f 66//92 51//92 48//92
f 74//93 72//93 90//93
f 74//94 90//94 91//94
f 42//95 83//95 35//95
f 42//96 35//36 36//35
f 42//97 15//97 83//97
f 64//98 51//98 18//99
f 92//100 57//62 58//61
f 92//101 48//101 49//102
f 69//103 48//103 92//103
f 69//104 92//104 58//104
f 15//16 93//105 22//20
f 15//16 16//15 93//105
f 90//106 94//106 91//106
f 90//107 72//107 45//107
f 90//108 45//108 94//108
f 35//109 91//110 55//111
f 51//112 89//112 53//112
f 45//113 72//113 31//113
f 48//114 51//114 52//114
f 95//115 24//115 25//115
f 95//116 96//116 24//116
f 97//117 99//117 98//117
f 97//118 98//118 100//118
f 97//119 101//119 99//119
f 97//120 100//120 102//120
f 97//121 103//121 101//121
f 97//122 102//122 103//122
f 103//123 28//25 24//24
f 103//124 24//124 101//124
f 104//125 85//125 105//125
f 104//126 106//126 85//126
f 105//127 85//127 107//127
f 106//128 87//128 85//128
f 108//129 107//130 85//131
f 108//129 85//131 109//132
f 109//133 85//134 110//135
f 110//135 85//134 111//136
f 111//137 85//137 112//137
f 112//138 24//138 113//138
f 112//139 114//139 24//139
f 112//140 85//140 114//140
f 28//27 103//141 27//28
f 114//142 85//142 115//142
f 116//143 115//143 85//143
f 116//144 85//144 117//144
f 117//145 85//145 118//145
f 119//146 118//146 85//146
f 119//147 85//147 120//147
f 120//148 85//149 121//150
f 86//151 121//150 85//149
f 94//152 55//111 91//110
f 91//79 35//79 77//79
f 101//153 24//153 122//153
f 123//154 122//154 24//154
f 24//155 96//155 113//155
f 124//156 126//156 125//156
f 127//157 129//158 128//159
f 127//160 130//161 129//162
f 131//163 133//163 132//163
f 131//164 134//164 133//164
f 128//165 136//165 135//165
f 128//159 129//158 136//166
f 130//161 137//167 129//162
f 125//168 126//168 138//168
f 125//169 138//170 139//171
f 140//172 142//172 141//172
f 140//173 143//173 142//173
f 144//174 145//174 138//174
f 146//175 148//175 147//175
f 146//176 147//177 149//178
f 150//179 152//179 151//179
f 150//180 151//181 153//182
f 154//183 155//184 138//185
f 154//183 138//185 126//186
f 156//187 157//188 151//189
f 156//190 151//190 158//190
f 159//191 138//185 155//184
f 160//192 158//192 151//192
f 160//193 151//193 152//193
f 161//194 149//178 147//177
f 161//195 147//195 162//195
f 163//196 165//197 164//196
f 163//198 164//199 166//200
f 167//201 169//201 168//201
f 167//202 170//202 169//202
f 171//203 151//189 157//188
f 171//203 172//204 151//189
f 173//205 147//206 148//207
f 173//205 175//208 174//209
f 173//205 174//209 147//206
f 176//210 177//210 129//210
f 176//211 129//212 178//213
f 177//214 179//215 129//216
f 136//217 129//216 179//215
f 141//218 142//218 180//218
f 180//219 181//219 134//219
f 180//220 142//220 181//220
f 143//221 182//221 169//221
f 143//222 169//222 142//222
f 182//221 183//221 169//221
f 184//223 185//223 164//223
f 184//223 164//223 183//223
f 185//223 186//223 164//223
f 187//224 189//224 188//224
f 187//224 188//224 147//224
f 189//224 190//224 188//224
f 190//224 191//224 188//224
f 192//225 193//225 151//225
f 192//225 151//225 194//225
f 193//225 195//225 151//225
f 195//225 196//225 151//225
f 196//225 197//225 151//225
f 197//225 198//225 151//225
f 198//225 199//225 151//225
f 199//225 200//225 151//225
f 201//226 203//226 202//226
f 201//227 181//227 204//227
f 201//228 204//228 203//228
f 137//229 133//229 129//229
f 137//230 132//230 133//230
f 201//231 178//213 129//212
f 201//232 129//232 181//232
f 204//233 181//233 205//233
f 181//234 133//234 134//234
f 181//235 129//235 133//235
f 169//236 205//236 181//236
f 169//237 206//237 205//237
f 183//238 164//238 169//238
f 191//239 207//239 188//239
f 191//240 208//240 207//240
f 159//241 151//241 200//241
f 159//242 153//182 151//181
f 159//243 200//243 138//243
f 181//244 142//245 169//244
f 209//246 174//209 175//208
f 209//247 166//248 164//247
f 186//249 209//249 164//249
f 186//250 174//209 209//246
f 138//170 145//251 210//252
f 138//170 210//252 139//171
f 207//253 208//253 211//253
f 207//254 162//254 188//254
f 207//255 211//255 162//255
f 151//256 172//256 208//256
f 169//257 170//257 206//257
f 162//258 147//258 188//258
f 164//259 168//259 169//259
f 212//260 26//260 27//260
f 212//261 27//261 213//261
f 103//262 102//262 27//262
f 214//263 215//263 203//263
f 214//264 203//264 216//264
f 215//265 217//265 203//265
f 216//266 203//266 204//266
f 218//267 203//268 217//269
f 218//267 219//270 203//268
f 219//271 220//272 203//273
f 220//272 221//274 203//273
f 221//275 222//275 203//275
f 222//276 223//276 27//276
f 222//277 27//278 224//279
f 222//277 224//279 203//280
f 224//281 225//281 203//281
f 226//282 203//282 225//282
f 226//283 227//283 203//283
f 227//284 228//284 203//284
f 229//285 203//285 228//285
f 229//286 230//287 203//288
f 230//287 231//289 203//288
f 202//290 203//290 231//290
f 211//291 208//291 172//291
f 208//225 194//225 151//225
f 102//292 232//292 27//292
f 233//293 27//293 232//293
f 27//294 223//294 213//294
