# Blender v2.79 (sub 0) OBJ File: ''
# www.blender.org
mtllib crack_restart_keyway_565.mtl
o crack_restart_keyway_565
v 0.073435 -0.113165 -0.472461
v 0.072978 -0.113332 -0.459453
v 0.084748 -0.121335 -0.472461
v 0.147229 -0.162037 -0.087630
v 0.143382 -0.159202 -0.088100
v 0.127480 -0.150696 -0.086896
v 0.152177 -0.169049 -0.080801
v 0.150743 -0.164614 -0.087283
v 0.131068 -0.149873 -0.089874
v 0.135337 -0.153096 -0.089210
v 0.126540 -0.147825 -0.091832
v 0.154210 -0.167189 -0.086931
v 0.120406 -0.147382 -0.426347
v 0.095872 -0.129417 -0.472461
v 0.120406 -0.147382 -0.103551
v 0.120406 -0.147382 -0.118922
v 0.104549 -0.137411 -0.092828
v 0.120866 -0.146923 -0.098614
v 0.120406 -0.147382 -0.472461
v 0.108153 -0.138388 -0.472461
v 0.120406 -0.147382 -0.457089
v 0.070739 -0.114907 -0.394416
v 0.070057 -0.115167 -0.381408
v 0.120406 -0.147382 -0.395604
v 0.070939 -0.114613 -0.407423
v 0.072302 -0.113968 -0.290356
v 0.072663 -0.113530 -0.277349
v 0.104166 -0.140686 -0.280925
v 0.071642 -0.114409 -0.316371
v 0.072661 -0.113714 -0.446446
v 0.071883 -0.114020 -0.433438
v 0.071824 -0.114308 -0.342386
v 0.071501 -0.114260 -0.329378
v 0.071488 -0.114494 -0.420431
v 0.070666 -0.114948 -0.368401
v 0.070539 -0.114864 -0.355393
v 0.090632 -0.132125 -0.376755
v 0.073078 -0.113418 -0.264341
v 0.073140 -0.113230 -0.251334
v 0.076461 -0.111144 -0.121259
v 0.075581 -0.111642 -0.134267
v 0.077025 -0.110618 -0.108252
v 0.076110 -0.111286 -0.096309
v 0.074077 -0.112710 -0.212311
v 0.073879 -0.112766 -0.225319
v 0.074042 -0.112663 -0.199304
v 0.146716 -0.173783 -0.061426
v 0.148178 -0.172559 -0.068129
v 0.150236 -0.170770 -0.074830
v 0.114631 -0.144475 -0.094848
v 0.122213 -0.145575 -0.094013
v 0.115965 -0.144850 -0.090503
v 0.120406 -0.147382 -0.134293
v 0.120406 -0.147382 -0.149664
v 0.120406 -0.147382 -0.180407
v 0.120406 -0.147382 -0.195778
v 0.120406 -0.147382 -0.165036
v 0.120406 -0.147382 -0.211149
v 0.120406 -0.147382 -0.226521
v 0.120406 -0.147382 -0.241892
v 0.120406 -0.147382 -0.257263
v 0.120406 -0.147382 -0.272634
v 0.120406 -0.147382 -0.288006
v 0.120406 -0.147382 -0.349490
v 0.120406 -0.147382 -0.334119
v 0.120406 -0.147382 -0.364862
v 0.120406 -0.147382 -0.380233
v 0.120406 -0.147382 -0.441718
v 0.139568 -0.156334 -0.088633
v 0.143918 -0.175497 -0.040372
v 0.145373 -0.174760 -0.050586
v 0.120406 -0.147382 -0.303377
v 0.120406 -0.147382 -0.318748
v 0.120406 -0.147382 -0.410975
v 0.074074 -0.112712 -0.186296
v 0.074579 -0.112326 -0.173289
v 0.074758 -0.112347 -0.166343
v 0.074807 -0.112191 -0.160281
v 0.075037 -0.112161 -0.153645
v 0.103557 -0.135027 -0.472461
v 0.075275 -0.111930 -0.145165
v 0.073505 -0.113115 -0.238326
v 0.083410 -0.137366 0.098728
v 0.134403 -0.182519 0.039285
v 0.129874 -0.185657 0.089689
v 0.067356 -0.115555 0.025894
v 0.066727 -0.115896 0.061669
v 0.066824 -0.115535 0.082662
v 0.117282 -0.174359 0.118113
v 0.128714 -0.186277 0.107719
v 0.128540 -0.186309 0.115049
v 0.128703 -0.186245 0.120347
v 0.128714 -0.186277 0.107719
v 0.128540 -0.186309 0.115049
v 0.074074 -0.112007 -0.077425
v 0.067887 -0.113385 -0.001445
v 0.070767 -0.113970 -0.029559
v 0.070906 -0.111804 -0.054991
v 0.104068 -0.160836 0.112746
v 0.073435 -0.113165 -0.472461
v 0.084748 -0.121335 -0.472461
v 0.072978 -0.113332 -0.459453
v 0.147229 -0.162037 -0.087630
v 0.127480 -0.150696 -0.086896
v 0.143382 -0.159202 -0.088100
v 0.150743 -0.164614 -0.087283
v 0.152177 -0.169049 -0.080801
v 0.131068 -0.149873 -0.089874
v 0.135337 -0.153096 -0.089210
v 0.126540 -0.147825 -0.091832
v 0.154210 -0.167189 -0.086931
v 0.120406 -0.147382 -0.426347
v 0.095872 -0.129417 -0.472461
v 0.120406 -0.147382 -0.103551
v 0.104549 -0.137411 -0.092828
v 0.120406 -0.147382 -0.118922
v 0.120866 -0.146923 -0.098614
v 0.120406 -0.147382 -0.472461
v 0.120406 -0.147382 -0.457089
v 0.108153 -0.138388 -0.472461
v 0.070739 -0.114907 -0.394416
v 0.120406 -0.147382 -0.395604
v 0.070057 -0.115167 -0.381408
v 0.070939 -0.114613 -0.407423
v 0.072302 -0.113968 -0.290356
v 0.104166 -0.140686 -0.280925
v 0.072663 -0.113530 -0.277349
v 0.071642 -0.114409 -0.316371
v 0.072661 -0.113714 -0.446446
v 0.071883 -0.114020 -0.433438
v 0.071824 -0.114308 -0.342386
v 0.071501 -0.114260 -0.329378
v 0.071488 -0.114494 -0.420431
v 0.070666 -0.114948 -0.368401
v 0.090632 -0.132125 -0.376755
v 0.070539 -0.114864 -0.355393
v 0.073078 -0.113418 -0.264341
v 0.073140 -0.113230 -0.251334
v 0.076461 -0.111144 -0.121259
v 0.075581 -0.111642 -0.134267
v 0.077025 -0.110618 -0.108252
v 0.076110 -0.111286 -0.096309
v 0.074077 -0.112710 -0.212311
v 0.073879 -0.112766 -0.225319
v 0.074042 -0.112663 -0.199304
v 0.146716 -0.173783 -0.061426
v 0.148178 -0.172559 -0.068129
v 0.150236 -0.170770 -0.074830
v 0.122213 -0.145575 -0.094013
v 0.114631 -0.144475 -0.094848
v 0.115965 -0.144850 -0.090503
v 0.120406 -0.147382 -0.134293
v 0.120406 -0.147382 -0.149664
v 0.120406 -0.147382 -0.180407
v 0.120406 -0.147382 -0.195778
v 0.120406 -0.147382 -0.165036
v 0.120406 -0.147382 -0.211149
v 0.120406 -0.147382 -0.226521
v 0.120406 -0.147382 -0.241892
v 0.120406 -0.147382 -0.257263
v 0.120406 -0.147382 -0.272634
v 0.120406 -0.147382 -0.288006
v 0.120406 -0.147382 -0.349490
v 0.120406 -0.147382 -0.334119
v 0.120406 -0.147382 -0.364862
v 0.120406 -0.147382 -0.380233
v 0.120406 -0.147382 -0.441718
v 0.139568 -0.156334 -0.088633
v 0.143918 -0.175497 -0.040372
v 0.145373 -0.174760 -0.050586
v 0.120406 -0.147382 -0.303377
v 0.120406 -0.147382 -0.318748
v 0.120406 -0.147382 -0.410975
v 0.074074 -0.112712 -0.186296
v 0.074579 -0.112326 -0.173289
v 0.074807 -0.112191 -0.160281
v 0.074758 -0.112347 -0.166343
v 0.075037 -0.112161 -0.153645
v 0.103557 -0.135027 -0.472461
v 0.075275 -0.111930 -0.145165
v 0.073505 -0.113115 -0.238326
v 0.134403 -0.182519 0.039285
v 0.129874 -0.185657 0.089689
v 0.067356 -0.115555 0.025894
v 0.066727 -0.115896 0.061669
v 0.074074 -0.112007 -0.077425
v 0.067887 -0.113385 -0.001445
v 0.070767 -0.113970 -0.029559
v 0.070906 -0.111804 -0.054991
vn -0.5852 -0.8103 -0.0310
vn -0.3938 -0.6432 -0.6567
vn -0.3941 -0.6435 -0.6562
vn -0.3912 -0.6420 -0.6593
vn -0.5148 -0.7564 -0.4036
vn -0.5179 -0.7538 -0.4045
vn -0.5154 -0.7565 -0.4027
vn -0.4561 -0.7649 -0.4549
vn -0.3906 -0.6513 -0.6506
vn -0.1891 -0.8640 -0.4666
vn -0.5196 -0.7544 -0.4012
vn -0.5751 -0.8179 -0.0172
vn -0.5878 -0.8090 -0.0025
vn -0.5894 -0.8078 -0.0027
vn -0.5887 -0.8084 -0.0015
vn -0.5323 -0.8465 0.0000
vn -0.4663 -0.8758 0.1249
vn -0.5917 -0.8061 0.0000
vn -0.5917 -0.8062 -0.0007
vn -0.5474 -0.8356 -0.0454
vn -0.5475 -0.8364 -0.0273
vn -0.5470 -0.8367 -0.0275
vn -0.5472 -0.8365 -0.0290
vn -0.6495 -0.7592 0.0436
vn -0.6473 -0.7616 0.0293
vn -0.5605 -0.8265 -0.0530
vn -0.5609 -0.8264 -0.0500
vn -0.5610 -0.8265 -0.0474
vn -0.3905 -0.9206 -0.0063
vn -0.3911 -0.9203 -0.0063
vn -0.5612 -0.8263 -0.0472
vn -0.6525 -0.7578 -0.0015
vn -0.6412 -0.7662 0.0429
vn -0.6551 -0.7554 0.0140
vn -0.6497 -0.7598 0.0245
vn -0.6478 -0.7616 0.0157
vn -0.6509 -0.7587 0.0273
vn -0.7206 -0.6892 0.0751
vn -0.7131 -0.6985 0.0592
vn -0.6668 -0.7385 -0.1000
vn -0.6675 -0.7389 -0.0925
vn -0.6669 -0.7393 -0.0931
vn -0.6644 -0.7473 0.0133
vn -0.6799 -0.7333 0.0008
vn -0.6825 -0.7308 -0.0009
vn -0.6840 -0.7295 0.0003
vn -0.5751 -0.7734 -0.2667
vn -0.5004 -0.7858 -0.3635
vn -0.4876 -0.7839 -0.3844
vn -0.1706 -0.9310 0.3227
vn -0.5615 -0.6578 -0.5020
vn -0.2940 -0.8938 -0.3387
vn -0.1388 -0.9894 -0.0428
vn -0.3812 -0.9245 0.0000
vn -0.4560 -0.8900 0.0000
vn -0.3902 -0.6296 -0.6719
vn -0.3955 -0.6470 -0.6519
vn -0.6731 -0.7245 -0.1484
vn -0.6882 -0.7100 -0.1493
vn -0.6875 -0.7107 -0.1492
vn -0.2940 -0.8495 -0.4381
vn -0.5574 -0.8242 0.1000
vn -0.4863 -0.5290 0.6954
vn -0.4866 -0.5295 0.6949
vn -0.4864 -0.5290 0.6954
vn -0.5579 -0.8299 0.0000
vn -0.5469 -0.8366 -0.0307
vn -0.6178 -0.7849 0.0471
vn -0.6169 -0.7862 0.0362
vn -0.6237 -0.7806 0.0404
vn -0.6827 -0.7307 -0.0011
vn -0.6222 -0.7814 0.0473
vn -0.6141 -0.7889 0.0241
vn -0.6144 -0.7886 0.0251
vn -0.6144 -0.7886 0.0253
vn -0.6119 -0.7908 0.0134
vn -0.6139 -0.7885 0.0384
vn -0.5651 -0.8241 -0.0380
vn -0.5899 -0.8075 -0.0008
vn -0.5904 -0.8018 0.0926
vn -0.6950 -0.7189 -0.0077
vn -0.5566 -0.8280 0.0679
vn -0.5722 -0.7710 -0.2797
vn -0.6149 -0.7877 0.0387
vn -0.6195 -0.7842 -0.0353
vn -0.6943 -0.7186 0.0385
vn -0.6377 -0.7693 0.0390
vn -0.7365 -0.6644 -0.1271
vn -0.7264 -0.6788 -0.1075
vn -0.6271 -0.7733 -0.0934
vn -0.7728 -0.6344 -0.0196
vn -0.8011 -0.5983 0.0140
vn -0.7500 -0.6576 -0.0709
vn -0.7303 -0.6828 -0.0203
vn -0.7236 -0.6895 0.0306
vn 0.7303 0.6828 0.0203
vn 0.7236 0.6895 -0.0306
vn -0.6664 -0.7388 -0.1001
vn -0.7683 -0.6367 -0.0655
vn -0.5687 -0.8193 -0.0729
vn -0.7256 -0.6839 -0.0758
vn -0.7082 -0.7052 -0.0334
vn -0.6781 -0.7206 -0.1445
vn -0.5936 -0.8013 -0.0739
vn -0.5840 -0.8096 -0.0591
vn -0.5339 -0.8023 0.2670
vn -0.5608 -0.8225 -0.0952
vn -0.6491 -0.7603 0.0249
vn 0.5852 0.8103 0.0310
vn 0.3938 0.6432 0.6567
vn 0.3912 0.6420 0.6593
vn 0.3941 0.6435 0.6562
vn 0.5148 0.7564 0.4036
vn 0.4561 0.7649 0.4549
vn 0.3906 0.6513 0.6506
vn 0.1891 0.8640 0.4666
vn 0.5196 0.7544 0.4012
vn 0.5751 0.8179 0.0172
vn 0.5878 0.8090 0.0025
vn 0.5900 0.8074 0.0006
vn 0.5894 0.8078 0.0027
vn 0.5323 0.8465 0.0000
vn 0.4663 0.8758 -0.1249
vn 0.5917 0.8061 0.0000
vn 0.5474 0.8356 0.0454
vn 0.5475 0.8364 0.0273
vn 0.5472 0.8365 0.0290
vn 0.5470 0.8367 0.0275
vn 0.6495 0.7592 -0.0436
vn 0.6473 0.7616 -0.0293
vn 0.5605 0.8265 0.0530
vn 0.5610 0.8265 0.0474
vn 0.5609 0.8264 0.0500
vn 0.3905 0.9206 0.0063
vn 0.3911 0.9203 0.0063
vn 0.5612 0.8263 0.0472
vn 0.6525 0.7578 0.0015
vn 0.6412 0.7662 -0.0429
vn 0.6551 0.7554 -0.0140
vn 0.6478 0.7616 -0.0157
vn 0.6497 0.7598 -0.0245
vn 0.6509 0.7587 -0.0273
vn 0.7206 0.6892 -0.0751
vn 0.7131 0.6985 -0.0592
vn 0.6668 0.7385 0.1000
vn 0.6669 0.7393 0.0931
vn 0.6675 0.7389 0.0925
vn 0.6644 0.7473 -0.0133
vn 0.6799 0.7333 -0.0008
vn 0.6840 0.7295 -0.0003
vn 0.6825 0.7308 0.0009
vn 0.5751 0.7734 0.2667
vn 0.5004 0.7858 0.3635
vn 0.4876 0.7839 0.3844
vn 0.1706 0.9310 -0.3227
vn 0.5615 0.6578 0.5020
vn 0.2940 0.8938 0.3387
vn 0.1388 0.9894 0.0428
vn 0.3812 0.9245 0.0000
vn 0.4560 0.8900 0.0000
vn 0.3902 0.6296 0.6719
vn 0.3955 0.6470 0.6519
vn 0.6731 0.7245 0.1484
vn 0.6733 0.7243 0.1485
vn 0.6796 0.7186 0.1478
vn 0.6882 0.7100 0.1493
vn 0.6875 0.7107 0.1492
vn 0.2940 0.8495 0.4381
vn 0.5574 0.8242 -0.1000
vn 0.4863 0.5290 -0.6954
vn 0.4864 0.5290 -0.6954
vn 0.4866 0.5295 -0.6949
vn 0.5579 0.8299 0.0000
vn 0.5469 0.8366 0.0307
vn 0.6169 0.7862 -0.0362
vn 0.6827 0.7307 0.0011
vn 0.6222 0.7814 -0.0473
vn 0.6136 0.7893 -0.0212
vn 0.6114 0.7909 -0.0242
vn 0.6144 0.7886 -0.0251
vn 0.6119 0.7908 -0.0134
vn 0.6144 0.7886 -0.0249
vn 0.5651 0.8241 0.0380
vn 0.5903 0.8072 0.0006
vn 0.5899 0.8075 0.0008
vn 0.5904 0.8018 -0.0926
vn 0.6950 0.7189 0.0077
vn 0.5566 0.8280 -0.0679
vn 0.5722 0.7710 0.2797
vn 0.6149 0.7877 -0.0387
vn 0.6195 0.7842 0.0353
vn 0.6943 0.7186 -0.0385
vn 0.6377 0.7693 -0.0390
vn 0.7365 0.6644 0.1271
vn 0.7264 0.6788 0.1075
vn 0.6271 0.7733 0.0934
vn 0.7728 0.6344 0.0196
vn 0.8011 0.5983 -0.0140
vn 0.7500 0.6576 0.0709
vn 0.6664 0.7388 0.1001
vn 0.7683 0.6367 0.0655
vn 0.5687 0.8193 0.0729
vn 0.7256 0.6839 0.0758
vn 0.7082 0.7052 0.0334
vn 0.6781 0.7206 0.1445
vn 0.5936 0.8013 0.0739
vn 0.5840 0.8096 0.0591
vn 0.5339 0.8023 -0.2670
vn 0.5608 0.8225 0.0952
vn 0.6491 0.7603 -0.0249
usemtl None.105
s 1
f 1//1 3//1 2//1
f 4//2 6//3 5//4
f 4//5 8//6 7//7
f 4//8 7//8 6//8
f 9//9 10//9 6//9
f 9//10 6//10 11//10
f 8//6 12//11 7//7
f 3//12 13//12 2//12
f 3//13 14//14 13//15
f 15//16 17//16 16//16
f 15//17 18//17 17//17
f 19//18 21//18 20//19
f 22//20 24//20 23//20
f 22//21 25//22 24//23
f 26//24 28//24 27//24
f 26//25 29//25 28//25
f 30//26 13//27 31//28
f 32//29 29//29 33//30
f 34//31 31//28 13//27
f 35//32 37//32 36//32
f 35//33 23//33 37//33
f 38//34 28//35 39//36
f 38//37 27//37 28//37
f 40//38 41//38 17//38
f 40//39 17//39 42//39
f 43//40 42//41 17//42
f 44//43 45//43 28//43
f 44//44 28//45 46//46
f 47//47 6//47 48//47
f 48//48 6//48 49//48
f 49//49 6//49 7//49
f 18//50 51//50 50//50
f 18//51 50//51 17//51
f 51//52 11//52 52//52
f 51//53 52//53 50//53
f 16//16 17//16 53//16
f 53//16 17//16 54//16
f 55//54 28//54 56//54
f 55//54 57//54 28//54
f 56//54 28//54 58//54
f 59//54 28//54 60//54
f 60//54 28//54 61//54
f 61//54 28//54 62//54
f 62//54 28//54 63//54
f 64//55 65//55 37//55
f 64//55 37//55 66//55
f 66//55 37//55 67//55
f 67//55 37//55 24//55
f 21//18 68//18 20//19
f 69//56 6//56 10//56
f 69//57 5//4 6//3
f 47//58 70//58 6//58
f 47//59 71//60 70//59
f 11//61 6//61 52//61
f 52//62 17//62 50//62
f 17//63 52//64 6//65
f 63//54 28//54 72//54
f 72//54 28//54 73//54
f 34//66 13//66 74//66
f 34//67 24//23 25//22
f 34//66 74//66 24//66
f 59//54 58//54 28//54
f 75//68 28//69 54//70
f 75//71 46//46 28//45
f 75//68 54//70 76//72
f 54//73 78//74 77//75
f 54//76 77//76 76//76
f 54//73 79//77 78//74
f 30//78 2//78 13//78
f 68//18 13//15 20//19
f 57//54 54//54 28//54
f 20//19 13//15 80//79
f 13//15 14//14 80//79
f 32//80 36//80 37//80
f 65//55 73//55 37//55
f 37//81 29//81 32//81
f 37//82 73//82 29//82
f 24//83 37//83 23//83
f 81//84 79//77 54//73
f 81//85 54//85 17//85
f 81//86 17//86 41//86
f 45//87 82//87 28//87
f 83//88 6//88 84//88
f 83//89 84//89 85//89
f 83//90 86//90 6//90
f 83//91 87//91 86//91
f 87//92 83//92 88//92
f 85//93 90//93 89//93
f 91//94 89//94 90//94
f 91//95 92//95 89//95
f 89//96 94//96 93//96
f 89//97 92//97 94//97
f 95//98 43//40 17//42
f 96//99 97//99 86//99
f 98//100 95//100 97//100
f 99//101 83//101 85//101
f 99//102 85//102 89//102
f 84//103 6//103 70//103
f 97//104 95//104 6//104
f 6//105 86//105 97//105
f 95//106 17//106 6//106
f 28//107 29//107 73//107
f 28//35 82//108 39//36
f 100//109 102//109 101//109
f 103//110 105//111 104//112
f 103//113 107//113 106//113
f 103//114 104//114 107//114
f 108//115 104//115 109//115
f 108//116 110//116 104//116
f 106//117 107//117 111//117
f 101//118 102//118 112//118
f 101//119 112//120 113//121
f 114//122 116//122 115//122
f 114//123 115//123 117//123
f 118//124 120//124 119//124
f 121//125 123//125 122//125
f 121//126 122//127 124//128
f 125//129 127//129 126//129
f 125//130 126//130 128//130
f 129//131 130//132 112//133
f 131//134 132//135 128//134
f 133//136 112//133 130//132
f 134//137 136//137 135//137
f 134//138 135//138 123//138
f 137//139 138//140 126//141
f 137//142 126//142 127//142
f 139//143 115//143 140//143
f 139//144 141//144 115//144
f 142//145 115//146 141//147
f 143//148 126//148 144//148
f 143//149 145//150 126//151
f 146//152 147//152 104//152
f 147//153 148//153 104//153
f 148//154 107//154 104//154
f 117//155 150//155 149//155
f 117//156 115//156 150//156
f 149//157 151//157 110//157
f 149//158 150//158 151//158
f 116//122 152//122 115//122
f 152//122 153//122 115//122
f 154//159 155//159 126//159
f 154//159 126//159 156//159
f 155//159 157//159 126//159
f 158//159 159//159 126//159
f 159//159 160//159 126//159
f 160//159 161//159 126//159
f 161//159 162//159 126//159
f 163//160 135//160 164//160
f 163//160 165//160 135//160
f 165//160 166//160 135//160
f 166//160 122//160 135//160
f 119//124 120//124 167//124
f 168//161 109//161 104//161
f 168//162 104//112 105//111
f 146//163 104//164 169//165
f 146//166 169//166 170//167
f 110//168 151//168 104//168
f 151//169 150//169 115//169
f 115//170 104//171 151//172
f 162//159 171//159 126//159
f 171//159 172//159 126//159
f 133//173 173//173 112//173
f 133//174 124//128 122//127
f 133//173 122//173 173//173
f 158//159 126//159 157//159
f 174//175 153//175 126//175
f 174//176 126//151 145//150
f 174//177 175//177 153//177
f 153//178 177//179 176//180
f 153//178 175//181 177//179
f 153//178 176//180 178//182
f 129//183 112//183 102//183
f 167//124 120//124 112//124
f 156//159 126//159 153//159
f 120//184 179//185 112//120
f 112//120 179//185 113//121
f 131//186 135//186 136//186
f 164//160 135//160 172//160
f 135//187 131//187 128//187
f 135//188 128//188 172//188
f 122//189 123//189 135//189
f 180//190 153//190 178//190
f 180//191 115//191 153//191
f 180//192 140//192 115//192
f 144//193 126//193 181//193
f 83//194 182//194 104//194
f 83//195 183//195 182//195
f 83//196 104//196 184//196
f 83//197 184//197 185//197
f 185//198 88//198 83//198
f 183//199 89//199 93//199
f 186//200 115//146 142//145
f 187//201 184//201 188//201
f 189//202 188//202 186//202
f 99//203 183//203 83//203
f 99//204 89//204 183//204
f 182//205 169//165 104//164
f 188//206 104//206 186//206
f 104//207 188//207 184//207
f 186//208 104//208 115//208
f 126//209 172//209 128//209
f 126//141 138//140 181//210
