# Blender v2.79 (sub 0) OBJ File: ''
# www.blender.org
mtllib crack_restart_keyway_130.mtl
o crack_restart_keyway_130
v 0.120406 -0.147382 -0.472461
v 0.120406 -0.147382 -0.457089
v 0.109217 -0.137540 -0.472461
v 0.070504 -0.115038 -0.394416
v 0.070956 -0.114603 -0.407423
v 0.103471 -0.142424 -0.335232
v 0.070397 -0.115079 -0.387912
v 0.072654 -0.113632 -0.452949
v 0.088319 -0.123277 -0.472461
v 0.071618 -0.114187 -0.433438
v 0.073400 -0.113255 -0.469205
v 0.071636 -0.114412 -0.420431
v 0.120406 -0.147382 -0.257263
v 0.120406 -0.147382 -0.248433
v 0.114983 -0.146516 -0.256189
v 0.111639 -0.145396 -0.262914
v 0.120406 -0.147382 -0.264949
v 0.120406 -0.147382 -0.272634
v 0.109512 -0.144526 -0.268798
v 0.107395 -0.143588 -0.275356
v 0.120406 -0.147382 -0.280320
v 0.120406 -0.147382 -0.288006
v 0.105816 -0.142754 -0.280453
v 0.120406 -0.147382 -0.303377
v 0.120406 -0.147382 -0.295691
v 0.093644 -0.135749 -0.315547
v 0.120406 -0.147382 -0.318748
v 0.120406 -0.147382 -0.334119
v 0.120406 -0.147382 -0.349490
v 0.120406 -0.147382 -0.364862
v 0.120406 -0.147382 -0.380233
v 0.120406 -0.147382 -0.395604
v 0.120406 -0.147382 -0.410975
v 0.120406 -0.147382 -0.426347
v 0.120406 -0.147382 -0.441718
v 0.103082 -0.133008 -0.472461
v 0.080066 -0.124216 -0.352100
v 0.076237 -0.120535 -0.362034
v 0.103471 -0.142424 -0.335232
v 0.073496 -0.113122 -0.472461
v 0.079290 -0.117153 -0.472461
v 0.088921 -0.131932 -0.328261
v 0.087135 -0.130407 -0.333327
v 0.082940 -0.126778 -0.344374
v 0.097793 -0.138826 -0.304501
v 0.096078 -0.137641 -0.308823
v 0.102623 -0.141540 -0.290350
v 0.070407 -0.114947 -0.381408
v 0.073366 -0.117464 -0.367869
v 0.070885 -0.114796 -0.372310
v 0.120406 -0.147382 -0.264949
v 0.120406 -0.147382 -0.257263
v 0.099535 -0.139796 -0.299460
v 0.120406 -0.147382 -0.288006
v 0.070407 -0.114947 -0.381408
v 0.101056 -0.140640 -0.294988
v 0.120406 -0.147382 -0.472461
v 0.109217 -0.137540 -0.472461
v 0.120406 -0.147382 -0.457089
v 0.070504 -0.115038 -0.394416
v 0.070956 -0.114603 -0.407423
v 0.070397 -0.115079 -0.387912
v 0.072654 -0.113632 -0.452949
v 0.071618 -0.114187 -0.433438
v 0.088319 -0.123277 -0.472461
v 0.073400 -0.113255 -0.469205
v 0.071636 -0.114412 -0.420431
v 0.120406 -0.147382 -0.272634
v 0.120406 -0.147382 -0.280320
v 0.120406 -0.147382 -0.303377
v 0.120406 -0.147382 -0.295691
v 0.120406 -0.147382 -0.318748
v 0.120406 -0.147382 -0.334119
v 0.120406 -0.147382 -0.349490
v 0.120406 -0.147382 -0.364862
v 0.120406 -0.147382 -0.380233
v 0.120406 -0.147382 -0.395604
v 0.120406 -0.147382 -0.410975
v 0.120406 -0.147382 -0.426347
v 0.120406 -0.147382 -0.441718
v 0.103082 -0.133008 -0.472461
v 0.079290 -0.117153 -0.472461
v 0.073496 -0.113122 -0.472461
vn -0.6605 -0.7509 0.0000
vn -0.5865 -0.8085 -0.0474
vn -0.5880 -0.8075 -0.0463
vn -0.5926 -0.8044 -0.0430
vn -0.6227 -0.7823 -0.0152
vn -0.5653 -0.8236 -0.0467
vn -0.5704 -0.8197 -0.0527
vn -0.5704 -0.8197 -0.0532
vn -0.5638 -0.8247 -0.0450
vn -0.5930 -0.8041 -0.0428
vn -0.6417 -0.7669 -0.0124
vn -0.1577 -0.9875 0.0000
vn -0.2209 -0.9753 0.0000
vn -0.1722 -0.9820 -0.0779
vn -0.2536 -0.9673 0.0000
vn -0.2799 -0.9600 0.0000
vn -0.2698 -0.9616 -0.0504
vn -0.3024 -0.9532 0.0000
vn -0.3987 -0.9171 0.0000
vn -0.3986 -0.9171 0.0000
vn -0.2810 -0.9597 0.0000
vn -0.2872 -0.9416 0.1759
vn -0.5675 -0.8217 -0.0520
vn -0.5678 -0.8215 -0.0519
vn -0.5627 -0.8245 -0.0592
vn 0.0000 0.0000 -1.0000
vn -0.5757 -0.8138 -0.0797
vn 0.5757 0.8138 0.0797
vn -0.5704 -0.8198 -0.0503
vn -0.5612 -0.8273 -0.0246
vn -0.5917 -0.8059 -0.0221
vn -0.5917 -0.8059 -0.0223
vn -0.5942 -0.8037 -0.0306
vn -0.5947 -0.8033 -0.0322
vn -0.5928 -0.8041 -0.0449
vn -0.5950 -0.8028 -0.0378
vn -0.5945 -0.8031 -0.0395
vn -0.5923 -0.8044 -0.0464
vn -0.2401 -0.9563 -0.1669
vn -0.3101 -0.9506 -0.0166
vn -0.7723 -0.6332 0.0511
vn -0.6525 -0.7576 0.0164
vn -0.6352 -0.7723 -0.0048
vn -0.2336 -0.9705 -0.0591
vn 0.2336 0.9705 0.0591
vn 0.2209 0.9753 0.0000
vn 0.1722 0.9820 0.0779
vn -0.3023 -0.9500 -0.0783
vn -0.3030 -0.9499 -0.0766
vn -0.3032 -0.9498 -0.0765
vn 0.3023 0.9500 0.0783
vn 0.3032 0.9498 0.0765
vn 0.3030 0.9499 0.0766
vn 0.1577 0.9875 0.0000
vn 0.7723 0.6332 -0.0511
vn -0.4731 -0.8539 -0.2166
vn 0.4731 0.8539 0.2166
vn -0.3016 -0.9500 -0.0814
vn 0.3016 0.9500 0.0814
vn -0.3012 -0.9500 -0.0826
vn 0.3012 0.9500 0.0826
vn 0.6605 0.7509 0.0000
vn 0.5865 0.8085 0.0474
vn 0.5926 0.8044 0.0430
vn 0.5880 0.8075 0.0463
vn 0.6227 0.7823 0.0152
vn 0.5711 0.8191 0.0536
vn 0.5638 0.8247 0.0450
vn 0.5930 0.8041 0.0428
vn 0.6417 0.7669 0.0124
vn 0.2536 0.9673 0.0000
vn 0.2799 0.9600 0.0000
vn 0.2698 0.9616 0.0504
vn 0.3024 0.9532 0.0000
vn 0.3987 0.9171 0.0000
vn 0.3986 0.9171 0.0000
vn 0.2810 0.9597 0.0000
vn 0.2872 0.9416 -0.1759
vn 0.5638 0.8239 0.0576
vn 0.5662 0.8225 0.0543
vn 0.5678 0.8215 0.0519
vn 0.5627 0.8245 0.0592
vn 0.0000 0.0000 1.0000
vn 0.5704 0.8198 0.0503
vn 0.5612 0.8273 0.0246
vn 0.5682 0.8213 0.0519
vn 0.5917 0.8059 0.0221
vn 0.5942 0.8037 0.0306
vn 0.5917 0.8059 0.0223
vn 0.5947 0.8033 0.0322
vn 0.5928 0.8041 0.0449
vn 0.5945 0.8032 0.0395
vn 0.5950 0.8028 0.0378
vn 0.5923 0.8044 0.0464
vn 0.2401 0.9563 0.1669
vn 0.3101 0.9506 0.0166
vn 0.6525 0.7576 -0.0164
vn 0.6352 0.7723 0.0048
vn 0.2213 0.9567 0.1891
vn 0.3013 0.9515 0.0624
vn -0.2213 -0.9567 -0.1891
vn -0.3013 -0.9515 -0.0624
usemtl None.008
s 1
f 1//1 2//1 3//1
f 4//2 5//3 6//4
f 4//5 6//5 7//5
f 8//6 9//7 10//8
f 8//6 11//9 9//7
f 12//10 6//4 5//3
f 12//11 10//11 6//11
f 13//12 14//12 15//12
f 13//13 16//13 17//13
f 13//14 15//14 16//14
f 18//15 17//15 19//15
f 18//16 20//16 21//16
f 18//17 19//17 20//17
f 22//18 21//18 23//18
f 24//19 25//20 26//20
f 24//19 26//20 27//19
f 27//19 26//20 28//20
f 28//21 6//21 29//21
f 28//22 26//22 6//22
f 29//21 6//21 30//21
f 30//21 6//21 31//21
f 31//21 6//21 32//21
f 32//21 6//21 33//21
f 33//21 6//21 34//21
f 34//21 6//21 35//21
f 2//1 35//1 3//1
f 35//23 6//24 9//7
f 35//25 9//25 3//25
f 3//26 9//26 36//26
f 37//27 38//27 6//27
f 37//28 39//28 38//28
f 11//29 40//29 41//29
f 11//30 41//30 9//30
f 26//20 25//20 22//20
f 6//24 10//8 9//7
f 26//31 42//32 6//33
f 6//33 42//32 43//34
f 6//35 43//36 44//37
f 6//35 44//37 37//38
f 45//39 46//39 22//39
f 47//40 22//40 23//40
f 48//41 49//41 50//41
f 48//42 7//42 6//42
f 6//43 49//43 48//43
f 16//44 19//44 17//44
f 16//45 51//45 19//45
f 16//46 52//46 51//46
f 16//47 15//47 52//47
f 45//48 22//49 53//50
f 45//51 53//52 54//53
f 15//54 14//54 52//54
f 50//55 49//55 55//55
f 38//56 49//56 6//56
f 38//57 39//57 49//57
f 56//58 53//50 22//49
f 56//59 54//53 53//52
f 56//58 22//49 47//60
f 56//59 47//61 54//53
f 57//62 58//62 59//62
f 60//63 39//64 61//65
f 60//66 62//66 39//66
f 63//67 64//67 65//67
f 63//68 65//68 66//68
f 67//69 61//65 39//64
f 67//70 39//70 64//70
f 68//71 19//71 51//71
f 68//72 69//72 20//72
f 68//73 20//73 19//73
f 54//74 23//74 69//74
f 70//75 26//76 71//76
f 70//75 72//75 26//76
f 72//75 73//76 26//76
f 73//77 74//77 39//77
f 73//78 39//78 26//78
f 74//77 75//77 39//77
f 75//77 76//77 39//77
f 76//77 77//77 39//77
f 77//77 78//77 39//77
f 78//77 79//77 39//77
f 79//77 80//77 39//77
f 59//62 58//62 80//62
f 80//79 65//80 39//81
f 80//79 58//82 65//80
f 58//83 81//83 65//83
f 66//84 82//84 83//84
f 66//85 65//85 82//85
f 26//76 54//76 71//76
f 39//81 65//80 64//86
f 26//87 39//88 42//89
f 39//88 43//90 42//89
f 39//91 44//92 43//93
f 39//91 37//94 44//92
f 45//95 54//95 46//95
f 47//96 23//96 54//96
f 55//97 39//97 62//97
f 39//98 55//98 49//98
f 54//99 26//99 46//99
f 69//100 23//100 20//100
f 22//101 46//101 26//101
f 21//102 20//102 23//102
