# Blender v2.79 (sub 0) OBJ File: ''
# www.blender.org
mtllib crack_restart_keyway_755.mtl
o crack_restart_keyway_755
v 0.073330 -0.113239 -0.472461
v 0.072916 -0.113371 -0.459453
v 0.084636 -0.121406 -0.472461
v 0.147223 -0.162041 -0.087636
v 0.143382 -0.159202 -0.088100
v 0.152186 -0.169040 -0.080796
v 0.150729 -0.164627 -0.087296
v 0.131068 -0.149873 -0.089874
v 0.127518 -0.150647 -0.086837
v 0.135371 -0.153075 -0.089181
v 0.126540 -0.147825 -0.091832
v 0.154210 -0.167189 -0.086931
v 0.120406 -0.147382 -0.457089
v 0.095788 -0.129484 -0.472461
v 0.120406 -0.147382 -0.103551
v 0.114631 -0.144474 -0.094849
v 0.120866 -0.146923 -0.098614
v 0.093753 -0.129392 -0.112805
v 0.120406 -0.147382 -0.118922
v 0.120406 -0.147382 -0.472461
v 0.108104 -0.138428 -0.472461
v 0.083700 -0.104247 0.299273
v 0.139168 -0.179605 0.257846
v 0.079959 -0.106351 0.243018
v 0.102589 -0.117303 0.383655
v 0.086262 -0.100261 0.359860
v 0.073581 -0.113061 -0.238326
v 0.073854 -0.112782 -0.225319
v 0.083276 -0.123374 -0.297074
v 0.073192 -0.113198 -0.251334
v 0.070680 -0.114940 -0.394416
v 0.069807 -0.115325 -0.381408
v 0.090632 -0.132125 -0.376755
v 0.070969 -0.114594 -0.407423
v 0.072127 -0.114093 -0.290356
v 0.072577 -0.113584 -0.277349
v 0.071372 -0.114341 -0.303364
v 0.072582 -0.113770 -0.446446
v 0.071900 -0.114009 -0.433438
v 0.074622 -0.112079 -0.081618
v 0.071808 -0.111084 -0.054992
v 0.097231 -0.134183 -0.055469
v 0.075584 -0.111596 -0.096667
v 0.071572 -0.114447 -0.420431
v 0.070427 -0.115080 -0.368401
v 0.070363 -0.114975 -0.355393
v 0.073093 -0.113408 -0.264341
v 0.074561 -0.112366 -0.160281
v 0.074779 -0.112200 -0.147274
v 0.075276 -0.112001 -0.141398
v 0.074378 -0.112453 -0.173289
v 0.076216 -0.111297 -0.121259
v 0.075608 -0.111623 -0.134267
v 0.076088 -0.111283 -0.108252
v 0.136522 -0.180915 0.195155
v 0.146875 -0.173643 -0.061406
v 0.148180 -0.172557 -0.068127
v 0.146161 -0.174125 -0.051166
v 0.150310 -0.170705 -0.074789
v 0.122213 -0.145575 -0.094013
v 0.115972 -0.144841 -0.090500
v 0.120406 -0.147382 -0.134293
v 0.120406 -0.147382 -0.149664
v 0.120406 -0.147382 -0.165036
v 0.120406 -0.147382 -0.180407
v 0.120406 -0.147382 -0.195778
v 0.120406 -0.147382 -0.211149
v 0.120406 -0.147382 -0.226521
v 0.120406 -0.147382 -0.241892
v 0.120406 -0.147382 -0.257263
v 0.120406 -0.147382 -0.272634
v 0.120406 -0.147382 -0.288006
v 0.120406 -0.147382 -0.303377
v 0.120406 -0.147382 -0.318748
v 0.120406 -0.147382 -0.349490
v 0.120406 -0.147382 -0.334119
v 0.120406 -0.147382 -0.364862
v 0.120406 -0.147382 -0.380233
v 0.120406 -0.147382 -0.395604
v 0.120406 -0.147382 -0.410975
v 0.120406 -0.147382 -0.426347
v 0.143973 -0.174772 -0.027861
v 0.145143 -0.174452 -0.040000
v 0.139596 -0.156317 -0.088610
v 0.071824 -0.114308 -0.342386
v 0.111775 -0.143571 -0.082201
v 0.071656 -0.114401 -0.316371
v 0.074027 -0.112745 -0.212311
v 0.074037 -0.112738 -0.186296
v 0.074014 -0.112681 -0.199304
v 0.120406 -0.147382 -0.441718
v 0.103585 -0.135144 -0.472461
v 0.071553 -0.114227 -0.329378
v 0.142408 -0.175398 0.305029
v 0.146906 -0.172141 0.358578
v 0.144154 -0.174198 0.325219
v 0.121223 -0.137169 0.396315
v 0.148818 -0.170514 0.382402
v 0.133301 -0.149704 0.403452
v 0.150566 -0.169173 0.409366
v 0.086677 -0.099499 0.371753
v 0.086262 -0.100261 0.359860
v 0.148818 -0.170514 0.382402
v 0.071520 -0.113496 0.025145
v 0.139274 -0.178779 0.037564
v 0.070371 -0.112188 -0.001446
v 0.070088 -0.112453 0.052171
v 0.072364 -0.112966 -0.026220
v 0.071443 -0.113546 0.079277
v 0.070444 -0.112158 0.106112
v 0.087485 -0.129067 0.125351
v 0.073182 -0.112452 0.129006
v 0.073666 -0.109599 0.159331
v 0.077992 -0.109431 0.199507
v 0.078473 -0.108291 0.212311
v 0.135565 -0.181309 0.159748
v 0.135544 -0.181478 0.139961
v 0.135760 -0.181017 0.110993
v 0.136619 -0.180691 0.087612
v 0.137574 -0.179674 0.063395
v 0.140702 -0.177496 0.016651
v 0.142531 -0.176042 -0.008483
v 0.073330 -0.113239 -0.472461
v 0.084636 -0.121406 -0.472461
v 0.072916 -0.113371 -0.459453
v 0.147223 -0.162041 -0.087636
v 0.152186 -0.169040 -0.080796
v 0.143382 -0.159202 -0.088100
v 0.150729 -0.164627 -0.087296
v 0.131068 -0.149873 -0.089874
v 0.135371 -0.153075 -0.089181
v 0.127518 -0.150647 -0.086837
v 0.126540 -0.147825 -0.091832
v 0.154210 -0.167189 -0.086931
v 0.120406 -0.147382 -0.457089
v 0.095788 -0.129484 -0.472461
v 0.120406 -0.147382 -0.103551
v 0.120866 -0.146923 -0.098614
v 0.114631 -0.144474 -0.094849
v 0.093753 -0.129392 -0.112805
v 0.120406 -0.147382 -0.118922
v 0.120406 -0.147382 -0.472461
v 0.108104 -0.138428 -0.472461
v 0.083700 -0.104247 0.299273
v 0.079959 -0.106351 0.243018
v 0.139168 -0.179605 0.257846
v 0.073581 -0.113061 -0.238326
v 0.083276 -0.123374 -0.297074
v 0.073854 -0.112782 -0.225319
v 0.073192 -0.113198 -0.251334
v 0.070680 -0.114940 -0.394416
v 0.090632 -0.132125 -0.376755
v 0.069807 -0.115325 -0.381408
v 0.070969 -0.114594 -0.407423
v 0.072127 -0.114093 -0.290356
v 0.072577 -0.113584 -0.277349
v 0.071372 -0.114341 -0.303364
v 0.072582 -0.113770 -0.446446
v 0.071900 -0.114009 -0.433438
v 0.074622 -0.112079 -0.081618
v 0.097231 -0.134183 -0.055469
v 0.071808 -0.111084 -0.054992
v 0.075584 -0.111596 -0.096667
v 0.071572 -0.114447 -0.420431
v 0.070427 -0.115080 -0.368401
v 0.070363 -0.114975 -0.355393
v 0.073093 -0.113408 -0.264341
v 0.074561 -0.112366 -0.160281
v 0.075276 -0.112001 -0.141398
v 0.074779 -0.112200 -0.147274
v 0.074378 -0.112453 -0.173289
v 0.076216 -0.111297 -0.121259
v 0.075608 -0.111623 -0.134267
v 0.076088 -0.111283 -0.108252
v 0.136522 -0.180915 0.195155
v 0.146875 -0.173643 -0.061406
v 0.148180 -0.172557 -0.068127
v 0.146161 -0.174125 -0.051166
v 0.150310 -0.170705 -0.074789
v 0.122213 -0.145575 -0.094013
v 0.115972 -0.144841 -0.090500
v 0.120406 -0.147382 -0.134293
v 0.120406 -0.147382 -0.149664
v 0.120406 -0.147382 -0.165036
v 0.120406 -0.147382 -0.180407
v 0.120406 -0.147382 -0.195778
v 0.120406 -0.147382 -0.211149
v 0.120406 -0.147382 -0.226521
v 0.120406 -0.147382 -0.241892
v 0.120406 -0.147382 -0.257263
v 0.120406 -0.147382 -0.272634
v 0.120406 -0.147382 -0.288006
v 0.120406 -0.147382 -0.303377
v 0.120406 -0.147382 -0.318748
v 0.120406 -0.147382 -0.349490
v 0.120406 -0.147382 -0.334119
v 0.120406 -0.147382 -0.364862
v 0.120406 -0.147382 -0.380233
v 0.120406 -0.147382 -0.395604
v 0.120406 -0.147382 -0.410975
v 0.120406 -0.147382 -0.426347
v 0.143973 -0.174772 -0.027861
v 0.145143 -0.174452 -0.040000
v 0.139596 -0.156317 -0.088610
v 0.071824 -0.114308 -0.342386
v 0.111775 -0.143571 -0.082201
v 0.071656 -0.114401 -0.316371
v 0.074027 -0.112745 -0.212311
v 0.074037 -0.112738 -0.186296
v 0.074014 -0.112681 -0.199304
v 0.120406 -0.147382 -0.441718
v 0.103585 -0.135144 -0.472461
v 0.071553 -0.114227 -0.329378
v 0.142408 -0.175398 0.305029
v 0.146906 -0.172141 0.358578
v 0.144154 -0.174198 0.325219
v 0.071520 -0.113496 0.025145
v 0.070371 -0.112188 -0.001446
v 0.139274 -0.178779 0.037564
v 0.070088 -0.112453 0.052171
v 0.072364 -0.112966 -0.026220
v 0.071443 -0.113546 0.079277
v 0.087485 -0.129067 0.125351
v 0.070444 -0.112158 0.106112
v 0.073182 -0.112452 0.129006
v 0.073666 -0.109599 0.159331
v 0.077992 -0.109431 0.199507
v 0.078473 -0.108291 0.212311
v 0.135565 -0.181309 0.159748
v 0.135544 -0.181478 0.139961
v 0.135760 -0.181017 0.110993
v 0.136619 -0.180691 0.087612
v 0.137574 -0.179674 0.063395
v 0.140702 -0.177496 0.016651
v 0.142531 -0.176042 -0.008483
vn -0.5854 -0.8103 -0.0269
vn -0.5147 -0.7541 -0.4080
vn -0.5126 -0.7604 -0.3988
vn -0.5115 -0.7581 -0.4046
vn -0.5173 -0.7584 -0.3966
vn -0.3948 -0.6673 -0.6316
vn -0.1976 -0.8696 -0.4526
vn -0.5160 -0.7580 -0.3989
vn -0.5814 -0.8133 -0.0215
vn -0.5866 -0.8099 -0.0035
vn -0.5873 -0.8094 -0.0045
vn -0.5867 -0.8098 -0.0012
vn -0.3016 -0.9463 0.1161
vn -0.5391 -0.8386 -0.0775
vn -0.5595 -0.8289 0.0000
vn -0.5885 -0.8085 0.0000
vn -0.5883 -0.8086 -0.0010
vn -0.7829 -0.6176 0.0752
vn -0.7815 -0.6188 0.0792
vn -0.7699 -0.6339 0.0743
vn -0.7660 -0.6392 0.0691
vn -0.7713 -0.6327 0.0688
vn -0.6330 -0.7736 0.0280
vn -0.6386 -0.7690 0.0296
vn -0.6377 -0.7697 0.0299
vn -0.6459 -0.7630 0.0273
vn -0.6178 -0.7837 -0.0647
vn -0.6344 -0.7722 -0.0346
vn -0.6304 -0.7754 -0.0352
vn -0.6319 -0.7741 -0.0380
vn -0.6202 -0.7827 0.0514
vn -0.6204 -0.7826 0.0518
vn -0.6202 -0.7827 0.0521
vn -0.6206 -0.7824 0.0509
vn -0.5812 -0.8127 -0.0402
vn -0.5806 -0.8131 -0.0424
vn -0.5798 -0.8135 -0.0450
vn -0.5805 -0.8133 -0.0399
vn -0.6723 -0.7390 -0.0434
vn -0.6727 -0.7392 -0.0321
vn -0.6724 -0.7392 -0.0393
vn -0.6574 -0.7506 -0.0661
vn -0.5801 -0.8134 -0.0420
vn -0.6441 -0.7650 0.0030
vn -0.6333 -0.7726 0.0447
vn -0.6708 -0.7415 0.0171
vn -0.6380 -0.7692 0.0357
vn 0.2971 -0.9548 0.0072
vn 0.4686 -0.8834 -0.0007
vn 0.4696 -0.8829 -0.0007
vn -0.7290 -0.6826 0.0512
vn -0.7166 -0.6975 -0.0063
vn -0.7814 -0.6223 0.0460
vn -0.7363 -0.6308 -0.2449
vn -0.9234 -0.3750 -0.0820
vn -0.5292 -0.7586 -0.3801
vn -0.5297 -0.7583 -0.3800
vn -0.5292 -0.7602 -0.3768
vn -0.5337 -0.7572 -0.3766
vn -0.1708 -0.9310 0.3227
vn -0.2949 -0.8940 -0.3372
vn -0.1392 -0.9894 -0.0406
vn -0.6170 -0.7870 0.0000
vn -0.5430 -0.8397 -0.0000
vn -0.4560 -0.8900 0.0000
vn -0.5724 -0.7952 -0.1999
vn -0.9054 -0.4132 -0.0980
vn -0.9027 -0.4196 -0.0955
vn -0.9050 -0.4140 -0.0981
vn -0.3994 -0.6375 -0.6589
vn -0.3960 -0.6367 -0.6617
vn -0.3953 -0.6362 -0.6625
vn -0.3945 -0.6316 -0.6674
vn -0.5907 -0.8016 0.0923
vn -0.9098 -0.4040 -0.0948
vn -0.6593 -0.7026 -0.2678
vn -0.4744 -0.8803 0.0040
vn -0.7212 -0.6909 -0.0500
vn -0.0873 -0.9538 0.2875
vn -0.2705 -0.9627 0.0105
vn -0.6234 -0.7787 -0.0707
vn -0.4874 -0.8657 -0.1140
vn -0.5834 -0.8115 -0.0324
vn -0.6013 -0.7990 -0.0094
vn -0.6560 -0.7418 0.1397
vn -0.6313 -0.7746 -0.0380
vn -0.5919 -0.8032 -0.0668
vn -0.5907 -0.8060 0.0366
vn -0.5984 -0.8012 0.0000
vn -0.5989 -0.8008 0.0025
vn -0.5969 -0.8023 0.0024
vn -0.5994 -0.8005 -0.0024
vn -0.5995 -0.8004 0.0030
vn -0.5881 -0.8083 0.0295
vn -0.9680 -0.2492 0.0308
vn -0.9709 -0.2374 0.0307
vn -0.5877 -0.8091 -0.0016
vn -0.5747 -0.8115 0.1062
vn -0.5606 -0.8281 -0.0066
vn -0.5606 -0.8281 -0.0065
vn -0.7070 -0.7071 -0.0162
vn -0.7389 -0.6701 0.0699
vn -0.7075 -0.7067 0.0114
vn -0.7443 -0.6588 0.1098
vn -0.7431 -0.6609 0.1050
vn -0.7461 -0.6569 0.1088
vn -0.7503 -0.6531 0.1022
vn -0.7493 -0.6542 0.1025
vn -0.7543 -0.6505 0.0895
vn -0.7578 -0.6473 0.0813
vn -0.7436 -0.6604 0.1048
vn -0.7660 -0.6393 0.0677
vn 0.7660 0.6392 -0.0691
vn 0.7713 0.6327 -0.0687
vn 0.7660 0.6393 -0.0677
vn 0.7578 0.6473 -0.0813
vn -0.7451 -0.6589 0.1036
vn -0.6933 -0.7206 -0.0088
vn -0.6933 -0.7206 -0.0055
vn -0.6931 -0.7208 -0.0073
vn -0.6930 -0.7209 -0.0089
vn -0.6683 -0.7431 -0.0345
vn -0.6693 -0.7424 -0.0305
vn -0.7029 -0.7112 0.0092
vn -0.7067 -0.7075 0.0063
vn -0.7100 -0.7042 0.0100
vn -0.7051 -0.7090 0.0067
vn -0.7465 -0.6604 0.0808
vn -0.7473 -0.6603 0.0741
vn -0.7472 -0.6597 0.0805
vn -0.7477 -0.6599 0.0740
vn -0.7684 -0.6343 0.0854
vn -0.7691 -0.6333 0.0863
vn -0.7697 -0.6328 0.0847
vn -0.7683 -0.6343 0.0854
vn -0.7570 -0.6534 0.0064
vn -0.7568 -0.6531 0.0277
vn -0.7347 -0.6782 -0.0163
vn -0.7371 -0.6748 -0.0365
vn -0.7438 -0.6660 -0.0573
vn -0.6238 -0.7763 -0.0902
vn -0.6244 -0.7759 -0.0901
vn -0.6243 -0.7752 -0.0961
vn -0.6192 -0.7792 -0.0971
vn -0.6820 -0.7302 -0.0418
vn -0.7517 -0.6556 -0.0722
vn -0.6920 -0.7219 0.0006
vn -0.7698 -0.6336 0.0773
vn -0.7454 -0.6622 0.0763
vn -0.5613 -0.8263 -0.0462
vn 0.5854 0.8103 0.0269
vn 0.5147 0.7540 0.4080
vn 0.5115 0.7581 0.4046
vn 0.5121 0.7584 0.4031
vn 0.5195 0.7565 0.3972
vn 0.3948 0.6673 0.6316
vn 0.1976 0.8696 0.4526
vn 0.5160 0.7580 0.3989
vn 0.5814 0.8133 0.0215
vn 0.5866 0.8099 0.0035
vn 0.5874 0.8093 0.0018
vn 0.5873 0.8094 0.0045
vn 0.3016 0.9463 -0.1161
vn 0.5391 0.8386 0.0775
vn 0.5595 0.8289 0.0000
vn 0.5885 0.8085 0.0000
vn 0.7820 0.6186 -0.0754
vn 0.7822 0.6182 -0.0773
vn 0.7829 0.6176 -0.0752
vn 0.7815 0.6188 -0.0792
vn 0.7699 0.6339 -0.0743
vn 0.6330 0.7736 -0.0280
vn 0.6377 0.7697 -0.0299
vn 0.6386 0.7690 -0.0296
vn 0.6459 0.7630 -0.0273
vn 0.6178 0.7837 0.0647
vn 0.6344 0.7722 0.0346
vn 0.6319 0.7741 0.0380
vn 0.6304 0.7754 0.0352
vn 0.6202 0.7827 -0.0514
vn 0.6202 0.7827 -0.0521
vn 0.6204 0.7826 -0.0518
vn 0.6206 0.7824 -0.0509
vn 0.5813 0.8127 0.0402
vn 0.5798 0.8135 0.0450
vn 0.5806 0.8131 0.0424
vn 0.5805 0.8133 0.0399
vn 0.6723 0.7390 0.0434
vn 0.6724 0.7392 0.0393
vn 0.6727 0.7392 0.0321
vn 0.6574 0.7506 0.0661
vn 0.5801 0.8134 0.0420
vn 0.6441 0.7650 -0.0030
vn 0.6333 0.7726 -0.0447
vn 0.6708 0.7415 -0.0171
vn 0.6380 0.7692 -0.0357
vn -0.2971 0.9548 -0.0072
vn -0.4686 0.8834 0.0007
vn -0.4696 0.8829 0.0007
vn 0.7290 0.6826 -0.0512
vn 0.7166 0.6975 0.0063
vn 0.7814 0.6223 -0.0460
vn 0.7363 0.6308 0.2449
vn 0.9234 0.3750 0.0820
vn 0.5292 0.7586 0.3801
vn 0.5292 0.7602 0.3768
vn 0.5297 0.7583 0.3800
vn 0.5337 0.7572 0.3766
vn 0.1708 0.9310 -0.3227
vn 0.2949 0.8940 0.3372
vn 0.1392 0.9894 0.0406
vn 0.6170 0.7870 0.0000
vn 0.5430 0.8397 0.0000
vn 0.4560 0.8900 0.0000
vn 0.5724 0.7952 0.1999
vn 0.9054 0.4132 0.0980
vn 0.9050 0.4140 0.0981
vn 0.9027 0.4196 0.0955
vn 0.3994 0.6375 0.6589
vn 0.3953 0.6362 0.6625
vn 0.3960 0.6367 0.6617
vn 0.3945 0.6316 0.6674
vn 0.5907 0.8016 -0.0923
vn 0.9098 0.4040 0.0948
vn 0.6593 0.7026 0.2678
vn 0.4744 0.8803 -0.0040
vn 0.7212 0.6909 0.0500
vn 0.0873 0.9538 -0.2875
vn 0.2705 0.9627 -0.0105
vn 0.6234 0.7787 0.0707
vn 0.4874 0.8657 0.1140
vn 0.5834 0.8115 0.0324
vn 0.6013 0.7990 0.0094
vn 0.6560 0.7418 -0.1397
vn 0.6313 0.7746 0.0380
vn 0.5919 0.8032 0.0668
vn 0.5907 0.8060 -0.0366
vn 0.5984 0.8012 0.0000
vn 0.5994 0.8005 0.0024
vn 0.5989 0.8008 -0.0006
vn 0.5995 0.8004 -0.0030
vn 0.5881 0.8083 -0.0295
vn 0.9680 0.2492 -0.0308
vn 0.9709 0.2374 -0.0307
vn 0.5879 0.8090 0.0007
vn 0.5877 0.8091 0.0016
vn 0.5747 0.8115 -0.1062
vn 0.5606 0.8281 0.0066
vn 0.5606 0.8281 0.0065
vn 0.7070 0.7071 0.0162
vn 0.7389 0.6701 -0.0699
vn 0.7075 0.7067 -0.0114
vn 0.7443 0.6588 -0.1098
vn 0.7491 0.6542 -0.1045
vn 0.7431 0.6609 -0.1050
vn 0.7462 0.6586 -0.0970
vn 0.7503 0.6531 -0.1022
vn 0.7529 0.6504 -0.1006
vn 0.7543 0.6505 -0.0895
vn 0.7436 0.6604 -0.1048
vn 0.7449 0.6590 -0.1038
vn 0.7442 0.6600 -0.1027
vn 0.7451 0.6589 -0.1036
vn 0.6933 0.7206 0.0088
vn 0.6933 0.7206 0.0070
vn 0.6933 0.7206 0.0055
vn 0.6925 0.7214 0.0041
vn 0.6683 0.7431 0.0345
vn 0.6693 0.7424 0.0305
vn 0.7029 0.7112 -0.0092
vn 0.7100 0.7042 -0.0100
vn 0.7067 0.7075 -0.0063
vn 0.7051 0.7090 -0.0067
vn 0.7465 0.6604 -0.0808
vn 0.7472 0.6597 -0.0805
vn 0.7471 0.6606 -0.0738
vn 0.7473 0.6604 -0.0738
vn 0.7684 0.6343 -0.0854
vn 0.7697 0.6328 -0.0848
vn 0.7691 0.6333 -0.0864
vn 0.7683 0.6343 -0.0854
vn 0.7494 0.6540 -0.1037
vn 0.7570 0.6534 -0.0064
vn 0.7568 0.6531 -0.0277
vn 0.7347 0.6782 0.0163
vn 0.7371 0.6748 0.0365
vn 0.7438 0.6660 0.0573
vn 0.6238 0.7763 0.0902
vn 0.6243 0.7752 0.0961
vn 0.6244 0.7759 0.0902
vn 0.6192 0.7792 0.0971
vn 0.6820 0.7302 0.0418
vn 0.7517 0.6556 0.0722
vn 0.6920 0.7219 -0.0006
vn 0.7698 0.6336 -0.0773
vn 0.7454 0.6622 -0.0763
vn 0.5613 0.8263 0.0462
vn 0.5984 0.8012 -0.0033
usemtl None.147
s 1
f 1//1 3//1 2//1
f 4//2 6//3 5//4
f 4//2 7//5 6//3
f 8//6 10//6 9//6
f 8//7 9//7 11//7
f 7//5 12//8 6//3
f 3//9 13//9 2//9
f 3//10 14//11 13//12
f 15//13 17//13 16//13
f 15//14 16//14 18//14
f 15//15 18//15 19//15
f 20//16 13//12 21//17
f 22//18 24//18 23//18
f 22//19 23//19 25//19
f 22//20 25//21 26//22
f 27//23 29//24 28//25
f 27//23 30//26 29//24
f 31//27 33//27 32//27
f 31//28 34//29 33//30
f 35//31 29//32 36//33
f 35//31 37//34 29//32
f 38//35 13//36 39//37
f 38//35 2//38 13//36
f 40//39 42//40 41//41
f 40//42 43//42 42//42
f 44//43 39//37 13//36
f 45//44 33//44 46//44
f 45//45 32//45 33//45
f 47//46 29//46 30//46
f 47//47 36//47 29//47
f 48//48 50//48 49//48
f 48//49 51//50 50//50
f 52//51 53//51 18//51
f 52//52 18//52 54//52
f 23//53 24//53 55//53
f 56//54 5//54 57//54
f 56//55 58//55 5//55
f 57//56 5//57 59//58
f 59//58 5//57 6//59
f 17//60 60//60 16//60
f 60//61 11//61 61//61
f 60//62 61//62 16//62
f 19//15 18//15 62//15
f 62//15 18//15 63//15
f 64//63 50//63 65//63
f 64//63 63//63 50//63
f 65//63 50//63 66//63
f 66//63 50//63 67//63
f 68//64 29//64 69//64
f 69//64 29//64 70//64
f 70//64 29//64 71//64
f 71//64 29//64 72//64
f 73//64 29//64 74//64
f 73//64 72//64 29//64
f 75//65 76//65 33//65
f 75//65 33//65 77//65
f 77//65 33//65 78//65
f 78//65 33//65 79//65
f 79//65 33//65 80//65
f 80//65 33//65 81//65
f 5//66 82//66 42//66
f 5//67 83//68 82//69
f 84//70 5//71 9//72
f 84//70 9//72 10//73
f 33//74 74//74 85//74
f 5//67 58//75 83//68
f 9//76 42//76 11//76
f 9//77 5//77 42//77
f 18//78 43//78 54//78
f 11//79 42//79 86//79
f 11//80 86//80 61//80
f 63//81 18//81 50//81
f 86//82 18//82 61//82
f 86//83 42//83 18//83
f 87//84 29//84 37//84
f 16//85 61//85 18//85
f 44//86 33//30 34//29
f 44//87 13//87 33//87
f 68//88 88//88 29//88
f 68//89 67//90 88//91
f 89//92 90//93 67//90
f 89//94 67//94 50//94
f 89//95 50//95 51//96
f 91//65 81//65 33//65
f 91//65 33//65 13//65
f 13//12 92//97 21//17
f 13//12 14//11 92//97
f 85//98 46//98 33//98
f 76//65 74//65 33//65
f 93//99 85//100 74//99
f 93//99 74//99 87//99
f 42//101 43//101 18//101
f 50//102 18//102 53//102
f 28//103 29//103 88//103
f 23//104 94//105 25//106
f 95//107 25//106 96//108
f 97//109 25//109 95//109
f 98//110 100//110 99//110
f 98//111 99//111 95//111
f 25//21 101//112 26//22
f 25//113 102//114 101//115
f 100//116 103//116 99//116
f 99//117 97//117 95//117
f 104//118 106//119 105//120
f 104//118 105//120 107//121
f 108//122 41//41 42//40
f 108//122 42//40 106//123
f 109//124 111//125 110//126
f 109//124 107//127 111//125
f 110//128 111//129 112//130
f 112//130 111//129 113//131
f 114//132 55//133 115//134
f 114//132 113//135 55//133
f 25//106 94//105 96//108
f 116//136 113//136 117//136
f 116//137 55//137 113//137
f 118//138 117//138 111//138
f 118//139 111//139 119//139
f 119//140 111//140 120//140
f 121//141 42//142 122//143
f 121//141 105//141 42//142
f 82//144 122//143 42//142
f 106//145 42//145 105//145
f 105//146 120//146 111//146
f 105//147 111//147 107//147
f 115//134 55//133 24//148
f 113//149 111//149 117//149
f 29//150 87//150 74//150
f 67//90 90//93 88//91
f 123//151 125//151 124//151
f 126//152 128//153 127//154
f 126//152 127//154 129//155
f 130//156 132//156 131//156
f 130//157 133//157 132//157
f 129//158 127//158 134//158
f 124//159 125//159 135//159
f 124//160 135//161 136//162
f 137//163 139//163 138//163
f 137//164 140//164 139//164
f 137//165 141//165 140//165
f 142//166 143//166 135//166
f 144//167 146//168 145//169
f 144//167 25//170 146//168
f 144//171 102//114 25//113
f 147//172 149//173 148//174
f 147//172 148//174 150//175
f 151//176 153//176 152//176
f 151//177 152//178 154//179
f 155//180 156//181 148//182
f 155//180 148//182 157//183
f 158//184 159//185 135//186
f 158//184 135//186 125//187
f 160//188 162//189 161//190
f 160//191 161//191 163//191
f 164//192 135//186 159//185
f 165//193 166//193 152//193
f 165//194 152//194 153//194
f 167//195 150//195 148//195
f 167//196 148//196 156//196
f 168//197 170//197 169//197
f 168//198 169//199 171//199
f 172//200 140//200 173//200
f 172//201 174//201 140//201
f 146//202 175//202 145//202
f 176//203 177//203 128//203
f 176//204 128//204 178//204
f 177//205 179//206 128//207
f 179//206 127//208 128//207
f 138//209 139//209 180//209
f 180//210 181//210 133//210
f 180//211 139//211 181//211
f 141//165 182//165 140//165
f 182//165 183//165 140//165
f 184//212 185//212 169//212
f 184//212 169//212 183//212
f 185//212 186//212 169//212
f 186//212 187//212 169//212
f 188//213 189//213 148//213
f 189//213 190//213 148//213
f 190//213 191//213 148//213
f 191//213 192//213 148//213
f 193//213 194//213 148//213
f 193//213 148//213 192//213
f 195//214 152//214 196//214
f 195//214 197//214 152//214
f 197//214 198//214 152//214
f 198//214 199//214 152//214
f 199//214 200//214 152//214
f 200//214 201//214 152//214
f 128//215 161//215 202//215
f 128//216 202//217 203//218
f 204//219 132//220 128//221
f 204//219 131//222 132//220
f 152//223 205//223 194//223
f 128//216 203//218 178//224
f 132//225 133//225 161//225
f 132//226 161//226 128//226
f 140//227 174//227 163//227
f 133//228 206//228 161//228
f 133//229 181//229 206//229
f 183//230 169//230 140//230
f 206//231 181//231 140//231
f 206//232 140//232 161//232
f 207//233 157//233 148//233
f 139//234 140//234 181//234
f 164//235 154//179 152//178
f 164//236 152//236 135//236
f 188//237 148//237 208//237
f 188//238 208//238 187//238
f 209//239 187//240 210//241
f 209//242 169//242 187//242
f 209//243 171//244 169//243
f 211//214 152//214 201//214
f 211//214 135//214 152//214
f 135//161 143//245 212//246
f 135//161 212//246 136//162
f 205//247 152//247 166//247
f 196//214 152//214 194//214
f 213//248 194//248 205//249
f 213//248 207//248 194//248
f 161//250 140//250 163//250
f 169//251 173//251 140//251
f 149//252 208//252 148//252
f 146//253 25//254 214//255
f 215//256 216//257 25//258
f 97//259 215//256 25//258
f 103//260 215//261 99//262
f 99//262 215//261 97//263
f 217//264 219//265 218//266
f 217//264 220//267 219//265
f 221//268 161//190 162//189
f 221//268 218//269 161//190
f 222//270 224//271 223//272
f 222//270 223//272 220//273
f 224//274 225//275 223//276
f 225//275 226//277 223//276
f 227//278 228//279 175//280
f 227//278 175//280 226//281
f 25//254 216//282 214//255
f 229//283 230//283 226//283
f 229//284 226//284 175//284
f 231//285 223//285 230//285
f 231//286 232//286 223//286
f 232//287 233//287 223//287
f 234//288 235//289 161//290
f 234//288 161//290 219//288
f 202//291 161//290 235//289
f 218//292 219//292 161//292
f 219//293 223//293 233//293
f 219//265 220//267 223//294
f 228//279 145//295 175//280
f 226//277 230//296 223//276
f 148//297 194//297 207//297
f 187//240 208//298 210//241
