# Blender v2.79 (sub 0) OBJ File: ''
# www.blender.org
mtllib crack_restart_keyway_230.mtl
o crack_restart_keyway_230
v 0.073499 -0.113119 -0.472461
v 0.072778 -0.113458 -0.459453
v 0.085105 -0.121111 -0.472461
v 0.120406 -0.147382 -0.472461
v 0.109012 -0.137704 -0.472461
v 0.120406 -0.147382 -0.457089
v 0.070732 -0.114911 -0.394416
v 0.070450 -0.114920 -0.381408
v 0.070832 -0.114680 -0.407423
v 0.072909 -0.113538 -0.290356
v 0.072694 -0.113510 -0.277349
v 0.094309 -0.132036 -0.233549
v 0.071448 -0.114293 -0.303364
v 0.072583 -0.113769 -0.446446
v 0.071644 -0.114170 -0.433438
v 0.071335 -0.114578 -0.342386
v 0.070891 -0.114644 -0.355393
v 0.071548 -0.114231 -0.329378
v 0.071260 -0.114620 -0.420431
v 0.070654 -0.114955 -0.368401
v 0.072954 -0.113506 -0.264341
v 0.073084 -0.113265 -0.251334
v 0.071597 -0.114433 -0.316371
v 0.120406 -0.147382 -0.118922
v 0.120406 -0.147382 -0.126607
v 0.112908 -0.145518 -0.118646
v 0.116712 -0.146517 -0.115901
v 0.120406 -0.147382 -0.113386
v 0.120406 -0.147382 -0.134293
v 0.074364 -0.112611 -0.207065
v 0.120406 -0.147382 -0.141979
v 0.120406 -0.147382 -0.149664
v 0.120406 -0.147382 -0.165036
v 0.120406 -0.147382 -0.180407
v 0.120406 -0.147382 -0.195778
v 0.120406 -0.147382 -0.211149
v 0.120406 -0.147382 -0.226521
v 0.108377 -0.141842 -0.225575
v 0.120406 -0.147382 -0.241892
v 0.120406 -0.147382 -0.257263
v 0.120406 -0.147382 -0.272634
v 0.120406 -0.147382 -0.288006
v 0.120406 -0.147382 -0.318748
v 0.120406 -0.147382 -0.334119
v 0.120406 -0.147382 -0.303377
v 0.120406 -0.147382 -0.349490
v 0.120406 -0.147382 -0.364862
v 0.120406 -0.147382 -0.380233
v 0.120406 -0.147382 -0.395604
v 0.120406 -0.147382 -0.410975
v 0.120406 -0.147382 -0.426347
v 0.120406 -0.147382 -0.441718
v 0.074279 -0.112566 -0.186296
v 0.095818 -0.132894 -0.137600
v 0.103150 -0.133294 -0.472461
v 0.096761 -0.128708 -0.472461
v 0.090344 -0.127729 -0.144286
v 0.087766 -0.125130 -0.149075
v 0.085463 -0.122887 -0.152676
v 0.074417 -0.112575 -0.232970
v 0.099625 -0.136649 -0.132663
v 0.102208 -0.138857 -0.129128
v 0.106551 -0.142011 -0.123994
v 0.073834 -0.112887 -0.194526
v 0.074666 -0.112276 -0.225113
v 0.074838 -0.112169 -0.212311
v 0.074766 -0.112334 -0.179793
v 0.079561 -0.117036 -0.161915
v 0.108194 -0.142996 -0.122524
v 0.120406 -0.147382 -0.118922
v 0.075210 -0.112009 -0.168232
v 0.075033 -0.112041 -0.173289
v 0.075033 -0.112041 -0.173289
v 0.073499 -0.113119 -0.472461
v 0.085105 -0.121111 -0.472461
v 0.072778 -0.113458 -0.459453
v 0.120406 -0.147382 -0.472461
v 0.120406 -0.147382 -0.457089
v 0.109012 -0.137704 -0.472461
v 0.070732 -0.114911 -0.394416
v 0.070450 -0.114920 -0.381408
v 0.070832 -0.114680 -0.407423
v 0.072909 -0.113538 -0.290356
v 0.094309 -0.132036 -0.233549
v 0.072694 -0.113510 -0.277349
v 0.071448 -0.114293 -0.303364
v 0.072583 -0.113769 -0.446446
v 0.071644 -0.114170 -0.433438
v 0.071335 -0.114578 -0.342386
v 0.070891 -0.114644 -0.355393
v 0.071548 -0.114231 -0.329378
v 0.071260 -0.114620 -0.420431
v 0.070654 -0.114955 -0.368401
v 0.072954 -0.113506 -0.264341
v 0.073084 -0.113265 -0.251334
v 0.071597 -0.114433 -0.316371
v 0.120406 -0.147382 -0.126607
v 0.120406 -0.147382 -0.134293
v 0.074364 -0.112611 -0.207065
v 0.120406 -0.147382 -0.141979
v 0.120406 -0.147382 -0.149664
v 0.120406 -0.147382 -0.165036
v 0.120406 -0.147382 -0.180407
v 0.120406 -0.147382 -0.195778
v 0.120406 -0.147382 -0.211149
v 0.108377 -0.141842 -0.225575
v 0.120406 -0.147382 -0.226521
v 0.120406 -0.147382 -0.241892
v 0.120406 -0.147382 -0.257263
v 0.120406 -0.147382 -0.272634
v 0.120406 -0.147382 -0.288006
v 0.120406 -0.147382 -0.318748
v 0.120406 -0.147382 -0.334119
v 0.120406 -0.147382 -0.303377
v 0.120406 -0.147382 -0.349490
v 0.120406 -0.147382 -0.364862
v 0.120406 -0.147382 -0.380233
v 0.120406 -0.147382 -0.395604
v 0.120406 -0.147382 -0.410975
v 0.120406 -0.147382 -0.426347
v 0.120406 -0.147382 -0.441718
v 0.074279 -0.112566 -0.186296
v 0.096761 -0.128708 -0.472461
v 0.103150 -0.133294 -0.472461
v 0.074417 -0.112575 -0.232970
v 0.073834 -0.112887 -0.194526
v 0.074838 -0.112169 -0.212311
v 0.074666 -0.112276 -0.225113
v 0.074766 -0.112334 -0.179793
v 0.097890 -0.134837 -0.135252
v 0.082273 -0.119986 -0.157360
vn 0.5664 0.8225 0.0528
vn 0.6474 0.7622 0.0000
vn 0.4423 0.8968 0.0102
vn 0.4824 0.8758 0.0193
vn 0.4826 0.8756 0.0195
vn 0.4842 0.8748 0.0198
vn 0.6402 0.7681 0.0089
vn 0.8170 0.5630 -0.1244
vn 0.6062 0.7924 0.0682
vn 0.5486 0.8356 0.0282
vn 0.3069 0.9516 -0.0153
vn 0.1891 0.9815 -0.0293
vn 0.5581 0.8285 0.0451
vn 0.4850 0.8743 0.0200
vn 0.2189 0.9754 -0.0273
vn 0.3715 0.9284 -0.0033
vn 0.6708 0.7414 -0.0191
vn 0.6719 0.7404 -0.0204
vn 0.6669 0.7450 -0.0143
vn 0.6664 0.7455 -0.0135
vn 0.5420 0.8403 0.0110
vn 0.2413 0.9705 0.0000
vn 0.2418 0.9702 0.0179
vn 0.2280 0.9737 0.0000
vn 0.6027 0.7980 0.0000
vn 0.6026 0.7980 0.0000
vn 0.4183 0.9083 0.0000
vn 0.5824 0.7924 -0.1813
vn 0.5600 0.8285 0.0000
vn 0.5970 0.8022 0.0000
vn 0.5470 0.8349 0.0617
vn 0.3923 0.9198 -0.0054
vn 0.6831 0.7303 0.0023
vn 0.6849 0.7286 0.0012
vn 0.6842 0.7293 0.0016
vn 0.5695 0.8206 0.0472
vn 0.5333 0.8450 0.0401
vn 0.0001 0.0000 1.0000
vn 0.0009 -0.0000 1.0000
vn -0.0000 0.0000 1.0000
vn -0.6323 -0.7708 -0.0779
vn -0.6528 -0.7556 -0.0534
vn 0.6574 0.6815 -0.3217
vn 0.6098 0.7911 0.0485
vn 0.4906 0.8637 0.1156
vn 0.5599 0.8285 0.0118
vn -0.5351 0.8448 -0.0040
vn 0.6961 0.7138 -0.0773
vn 0.8525 -0.5226 -0.0071
vn 0.6561 0.7542 -0.0282
vn 0.6844 0.7188 0.1224
vn 0.8367 0.5415 -0.0820
vn 0.3756 0.9162 0.1393
vn 0.3894 0.9053 0.1695
vn 0.3898 0.9052 0.1693
vn 0.3835 0.9072 0.1726
vn 0.3916 0.9046 0.1684
vn -0.2418 -0.9702 -0.0179
vn -0.2280 -0.9737 0.0000
vn 0.7748 0.6315 -0.0311
vn -0.7748 -0.6315 0.0311
vn -0.5664 -0.8225 -0.0528
vn -0.6474 -0.7622 0.0000
vn -0.4423 -0.8968 -0.0102
vn -0.4824 -0.8758 -0.0193
vn -0.4842 -0.8748 -0.0198
vn -0.4826 -0.8756 -0.0195
vn -0.6402 -0.7681 -0.0089
vn -0.8170 -0.5630 0.1244
vn -0.6062 -0.7924 -0.0682
vn -0.5486 -0.8356 -0.0282
vn -0.3069 -0.9516 0.0153
vn -0.1891 -0.9815 0.0293
vn -0.5581 -0.8285 -0.0451
vn -0.4850 -0.8743 -0.0200
vn -0.2189 -0.9754 0.0273
vn -0.3715 -0.9284 0.0033
vn -0.6708 -0.7414 0.0191
vn -0.6669 -0.7450 0.0143
vn -0.6719 -0.7404 0.0204
vn -0.6664 -0.7455 0.0135
vn -0.5420 -0.8403 -0.0110
vn -0.2413 -0.9705 0.0000
vn -0.6027 -0.7980 0.0000
vn -0.6026 -0.7980 0.0000
vn -0.4183 -0.9083 0.0000
vn -0.5824 -0.7924 0.1813
vn -0.5600 -0.8285 0.0000
vn -0.5600 -0.8285 -0.0009
vn -0.5970 -0.8022 0.0000
vn -0.5470 -0.8349 -0.0617
vn -0.3923 -0.9198 0.0054
vn -0.6831 -0.7303 -0.0023
vn -0.6842 -0.7293 -0.0016
vn -0.6849 -0.7286 -0.0012
vn -0.5695 -0.8206 -0.0472
vn -0.5333 -0.8450 -0.0401
vn -0.0009 0.0000 -1.0000
vn 0.0000 0.0000 -1.0000
vn -0.6574 -0.6815 0.3217
vn -0.6098 -0.7911 -0.0485
vn -0.4906 -0.8637 -0.1156
vn -0.5599 -0.8285 -0.0113
vn -0.5599 -0.8285 -0.0118
vn 0.5351 -0.8448 0.0040
vn -0.6961 -0.7138 0.0773
vn -0.8525 0.5226 0.0071
vn -0.6561 -0.7542 0.0282
vn -0.6844 -0.7188 -0.1224
vn -0.8367 -0.5415 0.0820
vn -0.3756 -0.9162 -0.1393
vn -0.3894 -0.9053 -0.1695
vn -0.3835 -0.9072 -0.1726
vn -0.3898 -0.9052 -0.1693
vn -0.3916 -0.9046 -0.1684
vn -0.7197 -0.6937 0.0287
vn -0.8034 -0.5924 0.0597
vn -0.6824 -0.7310 -0.0027
vn -0.7510 -0.6590 0.0421
vn -0.8524 -0.1142 0.5102
vn -0.0530 -0.8523 -0.5204
vn 0.7197 0.6937 -0.0287
vn 0.8034 0.5924 -0.0597
vn 0.6824 0.7310 0.0027
vn 0.7510 0.6590 -0.0421
usemtl None.030
s 1
f 1//1 2//1 3//1
f 4//2 5//2 6//2
f 7//3 8//3 3//3
f 7//4 3//5 9//6
f 10//7 11//7 12//7
f 10//8 12//8 13//8
f 14//9 15//9 3//9
f 14//10 3//10 2//10
f 16//11 3//11 17//11
f 16//12 18//12 3//12
f 19//13 3//13 15//13
f 19//14 9//6 3//5
f 20//15 17//15 3//15
f 20//16 3//16 8//16
f 21//17 22//18 12//19
f 21//17 12//19 11//20
f 23//21 3//21 18//21
f 24//22 25//22 26//22
f 24//23 26//23 27//23
f 24//24 27//24 28//24
f 29//25 30//25 25//25
f 29//25 31//26 30//25
f 32//25 30//25 31//26
f 32//25 33//25 30//25
f 33//25 34//25 30//25
f 34//25 35//25 30//25
f 35//25 36//25 30//25
f 36//27 37//27 38//27
f 36//28 38//28 30//28
f 37//27 39//27 38//27
f 39//27 40//27 38//27
f 40//29 41//29 13//29
f 41//29 42//29 13//29
f 43//30 44//30 3//30
f 43//30 3//30 45//30
f 44//30 46//30 3//30
f 46//30 47//30 3//30
f 48//30 49//30 3//30
f 48//30 3//30 47//30
f 49//30 50//30 3//30
f 50//30 51//30 3//30
f 51//30 52//30 3//30
f 6//2 5//2 52//2
f 12//31 38//31 40//31
f 23//32 13//32 3//32
f 30//33 53//34 54//35
f 52//36 5//36 3//36
f 40//37 13//37 12//37
f 5//38 55//39 56//40
f 5//38 56//40 3//40
f 54//41 57//41 58//41
f 54//42 58//42 59//42
f 12//43 60//43 38//43
f 30//44 61//44 62//44
f 30//45 62//45 63//45
f 13//29 42//29 45//29
f 45//46 3//46 13//46
f 30//47 64//47 53//47
f 12//48 22//48 60//48
f 60//49 65//49 66//49
f 60//50 66//50 38//50
f 66//51 30//51 38//51
f 53//52 67//52 68//52
f 26//53 25//53 69//53
f 30//54 69//55 25//56
f 30//54 63//57 69//55
f 27//58 26//58 70//58
f 27//59 70//59 28//59
f 71//60 68//60 72//60
f 71//61 73//61 68//61
f 74//62 75//62 76//62
f 77//63 78//63 79//63
f 80//64 75//64 81//64
f 80//65 82//66 75//67
f 83//68 84//68 85//68
f 83//69 86//69 84//69
f 87//70 75//70 88//70
f 87//71 76//71 75//71
f 89//72 90//72 75//72
f 89//73 75//73 91//73
f 92//74 88//74 75//74
f 92//75 75//67 82//66
f 93//76 75//76 90//76
f 93//77 81//77 75//77
f 94//78 84//79 95//80
f 94//78 85//81 84//79
f 96//82 91//82 75//82
f 70//83 26//83 97//83
f 98//84 97//84 99//84
f 98//84 99//84 100//85
f 101//84 100//85 99//84
f 101//84 99//84 102//84
f 102//84 99//84 103//84
f 103//84 99//84 104//84
f 104//84 99//84 105//84
f 105//86 106//86 107//86
f 105//87 99//87 106//87
f 107//86 106//86 108//86
f 108//86 106//86 109//86
f 109//88 86//89 110//88
f 110//88 86//89 111//88
f 112//90 75//90 113//90
f 112//90 114//90 75//90
f 113//90 75//90 115//90
f 115//90 75//90 116//90
f 117//90 75//90 118//90
f 117//90 116//90 75//90
f 118//90 75//90 119//90
f 119//90 75//90 120//90
f 120//90 75//90 121//90
f 78//63 121//63 79//63
f 84//91 109//91 106//91
f 96//92 75//92 86//92
f 99//93 54//94 122//95
f 121//96 75//96 79//96
f 109//97 84//97 86//97
f 79//98 123//98 124//98
f 79//99 75//99 123//99
f 84//100 106//100 125//100
f 99//101 62//101 61//101
f 99//102 63//102 62//102
f 86//89 114//103 111//88
f 114//103 86//89 75//104
f 99//105 122//105 126//105
f 84//106 125//106 95//106
f 125//107 127//107 128//107
f 125//108 106//108 127//108
f 127//109 106//109 99//109
f 122//110 68//110 129//110
f 26//111 69//111 97//111
f 99//112 97//113 69//114
f 99//112 69//114 63//115
f 122//116 54//116 68//116
f 68//117 73//117 129//117
f 99//93 130//118 54//94
f 99//119 61//119 130//119
f 54//120 59//120 131//120
f 54//121 131//121 68//121
f 53//122 68//122 54//122
f 68//123 67//123 72//123
f 30//33 54//35 130//124
f 30//125 130//125 61//125
