# Blender v2.79 (sub 0) OBJ File: ''
# www.blender.org
mtllib crack_restart_keyway_260.mtl
o crack_restart_keyway_260
v 0.073499 -0.113119 -0.472461
v 0.072591 -0.113764 -0.446446
v 0.072795 -0.113447 -0.459453
v 0.085118 -0.121103 -0.472461
v 0.096743 -0.128722 -0.472461
v 0.120406 -0.147382 -0.472461
v 0.120406 -0.147382 -0.457089
v 0.103163 -0.133349 -0.472461
v 0.108976 -0.137733 -0.472461
v 0.070737 -0.114909 -0.394416
v 0.099530 -0.138906 -0.340573
v 0.070445 -0.114924 -0.381408
v 0.070863 -0.114661 -0.407423
v 0.072750 -0.113651 -0.290356
v 0.072875 -0.113562 -0.264341
v 0.072653 -0.113536 -0.277349
v 0.120406 -0.147382 -0.272634
v 0.071464 -0.114283 -0.303364
v 0.071339 -0.114576 -0.342386
v 0.070853 -0.114667 -0.355393
v 0.071286 -0.114605 -0.420431
v 0.071650 -0.114167 -0.433438
v 0.094374 -0.131910 -0.233575
v 0.073060 -0.113280 -0.251334
v 0.071596 -0.114434 -0.316371
v 0.071565 -0.114220 -0.329378
v 0.120866 -0.146923 -0.098614
v 0.121539 -0.146249 -0.096313
v 0.117483 -0.146315 -0.096586
v 0.120636 -0.147152 -0.101082
v 0.122206 -0.145583 -0.094039
v 0.121036 -0.146237 -0.094142
v 0.121539 -0.146249 -0.096313
v 0.120406 -0.147382 -0.118922
v 0.106901 -0.142155 -0.134375
v 0.120406 -0.147382 -0.134293
v 0.120406 -0.147382 -0.103551
v 0.120406 -0.147382 -0.149664
v 0.120406 -0.147382 -0.165036
v 0.120406 -0.147382 -0.180407
v 0.120406 -0.147382 -0.195778
v 0.120406 -0.147382 -0.211149
v 0.120406 -0.147382 -0.226521
v 0.120406 -0.147382 -0.241892
v 0.120406 -0.147382 -0.257263
v 0.120406 -0.147382 -0.288006
v 0.120406 -0.147382 -0.303377
v 0.120406 -0.147382 -0.318748
v 0.120406 -0.147382 -0.334119
v 0.109196 -0.143569 -0.340086
v 0.120406 -0.147382 -0.349490
v 0.120406 -0.147382 -0.364862
v 0.120406 -0.147382 -0.380233
v 0.120406 -0.147382 -0.395604
v 0.120406 -0.147382 -0.410975
v 0.120406 -0.147382 -0.426347
v 0.120406 -0.147382 -0.441718
v 0.111332 -0.143996 -0.096249
v 0.109687 -0.143091 -0.096691
v 0.105066 -0.139783 -0.098962
v 0.074578 -0.112468 -0.180608
v 0.074908 -0.112155 -0.171461
v 0.070670 -0.114946 -0.368401
v 0.075045 -0.112023 -0.160281
v 0.075413 -0.111761 -0.134267
v 0.074973 -0.112204 -0.140770
v 0.074645 -0.112293 -0.224873
v 0.074570 -0.112360 -0.212311
v 0.075056 -0.112149 -0.153605
v 0.074902 -0.112140 -0.146431
v 0.073336 -0.113107 -0.199304
v 0.074229 -0.112701 -0.207343
v 0.074235 -0.112618 -0.187359
v 0.074388 -0.112595 -0.233029
v 0.076070 -0.111421 -0.125601
v 0.117823 -0.146332 -0.094776
v 0.117483 -0.146315 -0.096586
v 0.114198 -0.145236 -0.095541
v 0.073499 -0.113119 -0.472461
v 0.072795 -0.113447 -0.459453
v 0.072591 -0.113764 -0.446446
v 0.085118 -0.121103 -0.472461
v 0.096743 -0.128722 -0.472461
v 0.120406 -0.147382 -0.472461
v 0.103163 -0.133349 -0.472461
v 0.120406 -0.147382 -0.457089
v 0.108976 -0.137733 -0.472461
v 0.070737 -0.114909 -0.394416
v 0.070445 -0.114924 -0.381408
v 0.099530 -0.138906 -0.340573
v 0.070863 -0.114661 -0.407423
v 0.072750 -0.113651 -0.290356
v 0.072653 -0.113536 -0.277349
v 0.072875 -0.113562 -0.264341
v 0.120406 -0.147382 -0.272634
v 0.071464 -0.114283 -0.303364
v 0.071339 -0.114576 -0.342386
v 0.070853 -0.114667 -0.355393
v 0.071286 -0.114605 -0.420431
v 0.071650 -0.114167 -0.433438
v 0.073060 -0.113280 -0.251334
v 0.094374 -0.131910 -0.233575
v 0.071596 -0.114434 -0.316371
v 0.071565 -0.114220 -0.329378
v 0.120866 -0.146923 -0.098614
v 0.120636 -0.147152 -0.101082
v 0.120406 -0.147382 -0.118922
v 0.120406 -0.147382 -0.134293
v 0.120406 -0.147382 -0.103551
v 0.120406 -0.147382 -0.149664
v 0.120406 -0.147382 -0.165036
v 0.120406 -0.147382 -0.180407
v 0.120406 -0.147382 -0.195778
v 0.120406 -0.147382 -0.211149
v 0.120406 -0.147382 -0.226521
v 0.120406 -0.147382 -0.241892
v 0.120406 -0.147382 -0.257263
v 0.120406 -0.147382 -0.288006
v 0.120406 -0.147382 -0.303377
v 0.120406 -0.147382 -0.318748
v 0.120406 -0.147382 -0.334119
v 0.120406 -0.147382 -0.349490
v 0.109196 -0.143569 -0.340086
v 0.120406 -0.147382 -0.364862
v 0.120406 -0.147382 -0.380233
v 0.120406 -0.147382 -0.395604
v 0.120406 -0.147382 -0.410975
v 0.120406 -0.147382 -0.426347
v 0.120406 -0.147382 -0.441718
v 0.074578 -0.112468 -0.180608
v 0.074908 -0.112155 -0.171461
v 0.070670 -0.114946 -0.368401
v 0.075045 -0.112023 -0.160281
v 0.074973 -0.112204 -0.140770
v 0.075413 -0.111761 -0.134267
v 0.074645 -0.112293 -0.224873
v 0.074570 -0.112360 -0.212311
v 0.075056 -0.112149 -0.153605
v 0.074902 -0.112140 -0.146431
v 0.073336 -0.113107 -0.199304
v 0.074235 -0.112618 -0.187359
v 0.074229 -0.112701 -0.207343
v 0.074388 -0.112595 -0.233029
vn -0.0219 0.9995 0.0240
vn 0.5659 0.8235 0.0402
vn 0.5479 0.8360 0.0280
vn 0.6312 0.7756 0.0000
vn -0.0001 0.0000 1.0000
vn 0.6236 0.7816 0.0149
vn 0.6167 0.7870 0.0210
vn 0.6136 0.7893 0.0234
vn 0.6118 0.7907 0.0214
vn 0.4054 0.9141 -0.0050
vn 0.4032 0.9151 -0.0051
vn 0.4054 0.9141 -0.0051
vn 0.5791 0.8152 -0.0056
vn 0.5989 0.7948 -0.0978
vn 0.6542 0.7558 -0.0297
vn 0.6532 0.7568 -0.0257
vn 0.6527 0.7571 -0.0292
vn 0.6133 0.7895 0.0233
vn 0.5779 0.8150 0.0436
vn 0.6699 0.7420 -0.0256
vn 0.9460 -0.3240 -0.0076
vn 0.9460 -0.3240 -0.0075
vn 0.9462 -0.3234 -0.0076
vn 0.0034 0.9594 -0.2820
vn 0.1161 0.9879 -0.1025
vn -0.4769 0.8714 -0.1153
vn 0.4769 -0.8714 0.1153
vn 0.3609 0.9326 0.0000
vn 0.5109 0.8596 0.0000
vn 0.3762 0.9265 0.0000
vn 0.3220 0.9467 0.0000
vn 0.4305 0.8657 -0.2556
vn 0.4242 0.8942 0.1431
vn 0.5630 0.8264 0.0000
vn 0.4666 0.8794 0.0942
vn 0.6537 0.7567 -0.0106
vn 0.6112 0.7864 -0.0897
vn 0.5619 0.8272 -0.0039
vn 0.4194 0.8769 0.2347
vn 0.4404 0.8374 0.3237
vn 0.7132 0.6992 -0.0497
vn 0.5650 0.8202 -0.0899
vn 0.6060 0.7955 0.0000
vn 0.5842 0.8105 0.0423
vn 0.6530 0.7570 -0.0254
vn 0.6943 0.7194 -0.0170
vn 0.6443 0.7647 -0.0099
vn 0.4345 0.8999 -0.0378
vn 0.6911 0.7164 -0.0956
vn 0.7068 0.7073 0.0080
vn 0.7029 0.7112 0.0070
vn 0.7068 0.7074 0.0076
vn 0.6818 0.7314 0.0137
vn 0.6815 0.7317 0.0132
vn 0.6817 0.7316 0.0127
vn 0.6813 0.7319 0.0137
vn -0.4405 0.8977 -0.0036
vn -0.6869 0.7267 0.0027
vn -0.6882 0.7255 0.0027
vn -0.6882 0.7255 0.0026
vn 0.7037 0.7104 0.0022
vn 0.6918 0.7180 -0.0771
vn 0.6934 0.7189 -0.0485
vn -0.3368 0.9416 -0.0038
vn 0.5753 0.8152 0.0673
vn 0.5750 0.8162 0.0567
vn 0.5765 0.8144 0.0669
vn 0.5689 0.8202 0.0599
vn 0.6190 0.7823 0.0696
vn 0.5865 0.8068 0.0713
vn 0.7044 0.7097 -0.0110
vn 0.6842 0.7293 -0.0003
vn -0.0171 0.9998 0.0126
vn 0.0171 -0.9998 -0.0126
vn -0.0272 0.9996 -0.0118
vn 0.0272 -0.9996 0.0118
vn 0.2982 0.9534 -0.0471
vn -0.2982 -0.9534 0.0471
vn 0.0219 -0.9995 -0.0240
vn -0.5659 -0.8235 -0.0402
vn -0.5479 -0.8360 -0.0280
vn -0.6312 -0.7756 0.0000
vn 0.0001 0.0000 -1.0000
vn -0.6141 -0.7891 -0.0161
vn -0.6146 -0.7885 -0.0227
vn -0.6236 -0.7816 -0.0149
vn -0.6118 -0.7907 -0.0214
vn -0.4054 -0.9141 0.0050
vn -0.4054 -0.9141 0.0051
vn -0.4032 -0.9151 0.0051
vn -0.5791 -0.8152 0.0056
vn -0.5989 -0.7948 0.0978
vn -0.6542 -0.7558 0.0297
vn -0.6527 -0.7571 0.0292
vn -0.6532 -0.7568 0.0257
vn -0.6133 -0.7895 -0.0233
vn -0.5779 -0.8150 -0.0436
vn -0.6699 -0.7420 0.0256
vn -0.9460 0.3240 0.0076
vn -0.9462 0.3234 0.0076
vn -0.9460 0.3240 0.0075
vn -0.0034 -0.9594 0.2820
vn -0.1161 -0.9879 0.1025
vn -0.4439 -0.8961 0.0000
vn -0.5109 -0.8596 0.0000
vn -0.3762 -0.9265 0.0000
vn -0.3220 -0.9467 0.0000
vn -0.4305 -0.8657 0.2556
vn -0.4242 -0.8942 -0.1431
vn -0.5630 -0.8264 0.0000
vn -0.4666 -0.8794 -0.0942
vn -0.6537 -0.7567 0.0106
vn -0.6112 -0.7864 0.0897
vn -0.5619 -0.8272 0.0039
vn -0.4194 -0.8769 -0.2347
vn -0.4404 -0.8374 -0.3237
vn -0.7369 -0.6741 0.0497
vn -0.5650 -0.8202 0.0899
vn -0.6060 -0.7955 0.0000
vn -0.5842 -0.8105 -0.0423
vn -0.6530 -0.7570 0.0254
vn -0.6973 -0.7166 0.0170
vn -0.6443 -0.7647 0.0099
vn -0.7414 -0.6643 0.0954
vn -0.7068 -0.7073 -0.0080
vn -0.6643 -0.7473 -0.0131
vn -0.6644 -0.7473 -0.0130
vn -0.6642 -0.7474 -0.0132
vn -0.6641 -0.7475 -0.0133
vn 0.4405 -0.8977 0.0036
vn 0.6869 -0.7267 -0.0027
vn 0.6882 -0.7255 -0.0026
vn 0.6882 -0.7255 -0.0027
vn -0.7037 -0.7104 -0.0022
vn -0.6918 -0.7180 0.0771
vn -0.6934 -0.7189 0.0485
vn 0.3368 -0.9416 0.0038
vn -0.5765 -0.8144 -0.0669
vn -0.5689 -0.8202 -0.0599
vn -0.6130 -0.7893 -0.0352
vn -0.5865 -0.8068 -0.0713
vn -0.6757 -0.7371 0.0001
vn -0.4109 -0.9034 0.1224
vn -0.3554 -0.9316 -0.0758
vn -0.3558 -0.9191 -0.1694
vn -0.7344 -0.6737 0.0821
vn 0.4109 0.9034 -0.1224
vn 0.3554 0.9316 0.0758
vn 0.3558 0.9191 0.1694
vn 0.6921 0.7173 -0.0806
usemtl None.037
s 1
f 1//1 3//1 2//1
f 1//2 2//2 4//2
f 4//3 2//3 5//3
f 6//4 8//4 7//4
f 6//5 9//5 8//5
f 10//6 12//6 11//6
f 10//7 11//8 13//9
f 14//10 16//11 15//12
f 14//13 15//13 17//13
f 14//14 17//14 18//14
f 19//15 11//16 20//17
f 21//18 13//9 11//8
f 21//19 11//19 22//19
f 15//20 24//20 23//20
f 25//21 19//22 26//23
f 27//24 29//24 28//24
f 27//25 30//25 29//25
f 31//26 28//26 32//26
f 31//27 32//27 33//27
f 34//28 36//28 35//28
f 34//28 35//28 37//28
f 36//28 38//28 35//28
f 38//28 39//28 35//28
f 39//28 40//28 35//28
f 40//28 41//28 35//28
f 42//29 43//29 23//29
f 43//29 44//29 23//29
f 44//29 45//29 23//29
f 45//29 17//29 23//29
f 46//30 47//30 11//30
f 46//30 11//30 17//30
f 47//30 48//30 11//30
f 48//30 49//30 11//30
f 49//31 51//31 50//31
f 49//32 50//32 11//32
f 51//30 52//30 11//30
f 51//33 11//33 50//33
f 52//34 53//34 22//34
f 52//35 22//35 11//35
f 53//34 54//34 22//34
f 54//34 55//34 22//34
f 55//34 56//34 22//34
f 56//34 57//34 22//34
f 7//4 8//4 57//4
f 25//36 11//36 19//36
f 25//37 17//37 11//37
f 25//38 18//38 17//38
f 30//39 59//39 58//39
f 30//40 60//40 59//40
f 61//41 62//41 35//41
f 42//42 23//42 61//42
f 42//43 61//43 41//43
f 8//44 5//44 57//44
f 11//16 63//45 20//17
f 35//46 62//46 64//46
f 11//47 12//47 63//47
f 35//48 60//48 37//48
f 35//49 66//49 65//49
f 67//50 68//51 23//52
f 69//53 35//54 64//55
f 69//53 70//56 35//54
f 71//57 73//57 72//57
f 72//58 61//59 68//60
f 68//51 61//61 23//52
f 24//62 74//62 23//62
f 74//63 67//63 23//63
f 73//64 61//64 72//64
f 22//65 5//66 2//67
f 22//65 57//68 5//66
f 41//69 61//69 35//69
f 23//70 17//70 15//70
f 75//71 60//71 35//71
f 70//72 66//72 35//72
f 76//73 28//73 29//73
f 76//74 77//74 33//74
f 76//75 32//75 28//75
f 76//76 33//76 32//76
f 76//77 29//77 78//77
f 76//78 78//78 77//78
f 79//79 81//79 80//79
f 79//80 82//80 81//80
f 82//81 83//81 81//81
f 84//82 86//82 85//82
f 84//83 85//83 87//83
f 88//84 90//85 89//86
f 88//84 91//87 90//85
f 92//88 94//89 93//90
f 92//91 95//91 94//91
f 92//92 96//92 95//92
f 97//93 98//94 90//95
f 99//96 90//85 91//87
f 99//97 100//97 90//97
f 94//98 102//98 101//98
f 103//99 104//100 97//101
f 105//102 33//102 77//102
f 105//103 77//103 106//103
f 107//104 60//104 108//104
f 107//104 109//104 60//104
f 108//104 60//104 110//104
f 110//104 60//104 111//104
f 111//104 60//104 112//104
f 112//104 60//104 113//104
f 114//105 102//105 115//105
f 115//105 102//105 116//105
f 116//105 102//105 117//105
f 117//105 102//105 95//105
f 118//106 90//106 119//106
f 118//106 95//106 90//106
f 119//106 90//106 120//106
f 120//106 90//106 121//106
f 121//107 123//107 122//107
f 121//108 90//108 123//108
f 122//106 90//106 124//106
f 122//109 123//109 90//109
f 124//110 100//110 125//110
f 124//111 90//111 100//111
f 125//110 100//110 126//110
f 126//110 100//110 127//110
f 127//110 100//110 128//110
f 128//110 100//110 129//110
f 86//82 129//82 85//82
f 103//112 97//112 90//112
f 103//113 90//113 95//113
f 103//114 95//114 96//114
f 106//115 58//115 59//115
f 106//116 59//116 60//116
f 130//117 60//117 131//117
f 114//118 130//118 102//118
f 114//119 113//119 130//119
f 85//120 129//120 83//120
f 90//95 98//94 132//121
f 60//122 133//122 131//122
f 90//123 132//123 89//123
f 60//124 135//124 134//124
f 136//125 102//125 137//125
f 138//126 133//127 60//128
f 138//126 60//128 139//129
f 140//130 142//130 141//130
f 142//131 137//132 130//133
f 137//134 102//134 130//134
f 101//135 102//135 143//135
f 143//136 102//136 136//136
f 141//137 142//137 130//137
f 100//138 81//138 83//138
f 100//139 83//139 129//139
f 113//140 60//140 130//140
f 102//141 94//141 95//141
f 139//142 60//142 134//142
f 109//143 106//143 60//143
f 106//144 77//144 58//144
f 58//145 77//145 78//145
f 60//146 75//146 135//146
f 37//147 60//147 30//147
f 30//148 58//148 29//148
f 58//149 78//149 29//149
f 35//150 65//150 75//150
