# Blender v2.79 (sub 0) OBJ File: ''
# www.blender.org
mtllib crack_restart_keyway_325.mtl
o crack_restart_keyway_325
v 0.139529 -0.156358 -0.088663
v 0.141413 -0.157806 -0.088415
v 0.137011 -0.159362 -0.080567
v 0.135291 -0.153125 -0.089250
v 0.131068 -0.149873 -0.089874
v 0.127997 -0.155469 -0.077669
v 0.126833 -0.147531 -0.091423
v 0.143364 -0.159212 -0.088117
v 0.143311 -0.160443 -0.085729
v 0.144428 -0.159959 -0.087965
v 0.120406 -0.147382 -0.103551
v 0.111243 -0.142506 -0.099708
v 0.120406 -0.147382 -0.118922
v 0.120866 -0.146923 -0.098614
v 0.120406 -0.147382 -0.472461
v 0.120406 -0.147382 -0.457089
v 0.103311 -0.133981 -0.472461
v 0.108663 -0.137982 -0.472461
v 0.070752 -0.114901 -0.394416
v 0.103518 -0.139608 -0.401379
v 0.070456 -0.114917 -0.381408
v 0.070893 -0.114642 -0.407423
v 0.072632 -0.113735 -0.446446
v 0.085150 -0.121083 -0.472461
v 0.071727 -0.114118 -0.433438
v 0.072841 -0.113418 -0.459453
v 0.071326 -0.114583 -0.342386
v 0.070657 -0.114790 -0.355393
v 0.071324 -0.114371 -0.329378
v 0.071339 -0.114576 -0.420431
v 0.070730 -0.114913 -0.368401
v 0.072873 -0.113564 -0.264341
v 0.072659 -0.113533 -0.277349
v 0.094537 -0.131596 -0.233638
v 0.073150 -0.113224 -0.251334
v 0.076479 -0.111132 -0.121259
v 0.075332 -0.111819 -0.134267
v 0.083578 -0.114929 -0.093196
v 0.076954 -0.110798 -0.114755
v 0.071603 -0.114430 -0.316371
v 0.122213 -0.145575 -0.094013
v 0.114491 -0.144715 -0.094752
v 0.106525 -0.141795 -0.120729
v 0.120406 -0.147382 -0.134293
v 0.120406 -0.147382 -0.149664
v 0.120406 -0.147382 -0.165036
v 0.105360 -0.138253 -0.172565
v 0.120406 -0.147382 -0.180407
v 0.120406 -0.147382 -0.195778
v 0.120406 -0.147382 -0.226521
v 0.120406 -0.147382 -0.241892
v 0.120406 -0.147382 -0.257263
v 0.120406 -0.147382 -0.272634
v 0.120406 -0.147382 -0.288006
v 0.120406 -0.147382 -0.303377
v 0.120406 -0.147382 -0.318748
v 0.120406 -0.147382 -0.334119
v 0.120406 -0.147382 -0.349490
v 0.120406 -0.147382 -0.364862
v 0.120406 -0.147382 -0.380233
v 0.120406 -0.147382 -0.395604
v 0.120406 -0.147382 -0.410975
v 0.120406 -0.147382 -0.426347
v 0.120406 -0.147382 -0.441718
v 0.120460 -0.150806 -0.076070
v 0.093306 -0.129878 -0.112737
v 0.092956 -0.125112 -0.085557
v 0.090011 -0.122108 -0.087674
v 0.087727 -0.119732 -0.089707
v 0.086453 -0.118273 -0.090657
v 0.104481 -0.136358 -0.079679
v 0.104117 -0.136723 -0.086468
v 0.106886 -0.138625 -0.078584
v 0.101657 -0.133573 -0.080867
v 0.139484 -0.159903 -0.082040
v 0.093530 -0.129997 -0.176154
v 0.074787 -0.112195 -0.173289
v 0.120406 -0.147382 -0.211149
v 0.141621 -0.160540 -0.083479
v 0.072554 -0.113790 -0.290356
v 0.075200 -0.112052 -0.141241
v 0.074932 -0.112104 -0.147274
v 0.073975 -0.112830 -0.231802
v 0.130849 -0.156992 -0.078449
v 0.098539 -0.130597 -0.082281
v 0.077685 -0.110149 -0.108252
v 0.078462 -0.109728 -0.101593
v 0.081555 -0.112500 -0.094644
v 0.078914 -0.109438 -0.096925
v 0.093306 -0.129878 -0.112737
v 0.114251 -0.145340 -0.077034
v 0.109486 -0.141027 -0.077389
v 0.115637 -0.146482 -0.076989
v 0.125361 -0.153871 -0.077083
v 0.122819 -0.152645 -0.075861
v 0.132726 -0.157981 -0.078697
v 0.143364 -0.159212 -0.088117
v 0.075042 -0.112158 -0.153634
v 0.074999 -0.112055 -0.160281
v 0.074323 -0.112535 -0.212311
v 0.074318 -0.112641 -0.217464
v 0.074180 -0.112734 -0.207445
v 0.073525 -0.113101 -0.472461
v 0.074980 -0.112199 -0.166801
v 0.074559 -0.112481 -0.180647
v 0.074274 -0.112570 -0.186296
v 0.074150 -0.112754 -0.191102
v 0.073646 -0.112912 -0.199304
v 0.096451 -0.128955 -0.472461
v 0.071944 -0.113982 -0.303364
v 0.111060 -0.142545 -0.077168
v 0.078462 -0.109728 -0.101593
v 0.139529 -0.156358 -0.088663
v 0.141413 -0.157806 -0.088415
v 0.135291 -0.153125 -0.089250
v 0.131068 -0.149873 -0.089874
v 0.126833 -0.147531 -0.091423
v 0.122213 -0.145575 -0.094013
v 0.120406 -0.147382 -0.103551
v 0.120406 -0.147382 -0.118922
v 0.111243 -0.142506 -0.099708
v 0.120866 -0.146923 -0.098614
v 0.120406 -0.147382 -0.472461
v 0.103311 -0.133981 -0.472461
v 0.120406 -0.147382 -0.457089
v 0.108663 -0.137982 -0.472461
v 0.070752 -0.114901 -0.394416
v 0.070456 -0.114917 -0.381408
v 0.103518 -0.139608 -0.401379
v 0.070893 -0.114642 -0.407423
v 0.072632 -0.113735 -0.446446
v 0.071727 -0.114118 -0.433438
v 0.085150 -0.121083 -0.472461
v 0.072841 -0.113418 -0.459453
v 0.071326 -0.114583 -0.342386
v 0.070657 -0.114790 -0.355393
v 0.071324 -0.114371 -0.329378
v 0.071339 -0.114576 -0.420431
v 0.070730 -0.114913 -0.368401
v 0.072873 -0.113564 -0.264341
v 0.094537 -0.131596 -0.233638
v 0.072659 -0.113533 -0.277349
v 0.073150 -0.113224 -0.251334
v 0.076479 -0.111132 -0.121259
v 0.075332 -0.111819 -0.134267
v 0.076954 -0.110798 -0.114755
v 0.071603 -0.114430 -0.316371
v 0.114491 -0.144715 -0.094752
v 0.118726 -0.145714 -0.090750
v 0.120406 -0.147382 -0.134293
v 0.106525 -0.141795 -0.120729
v 0.120406 -0.147382 -0.149664
v 0.120406 -0.147382 -0.165036
v 0.120406 -0.147382 -0.180407
v 0.105360 -0.138253 -0.172565
v 0.120406 -0.147382 -0.195778
v 0.120406 -0.147382 -0.226521
v 0.120406 -0.147382 -0.241892
v 0.120406 -0.147382 -0.257263
v 0.120406 -0.147382 -0.272634
v 0.120406 -0.147382 -0.288006
v 0.120406 -0.147382 -0.303377
v 0.120406 -0.147382 -0.318748
v 0.120406 -0.147382 -0.334119
v 0.120406 -0.147382 -0.349490
v 0.120406 -0.147382 -0.364862
v 0.120406 -0.147382 -0.380233
v 0.120406 -0.147382 -0.395604
v 0.120406 -0.147382 -0.410975
v 0.120406 -0.147382 -0.426347
v 0.120406 -0.147382 -0.441718
v 0.109291 -0.141439 -0.089191
v 0.104117 -0.136723 -0.086468
v 0.093530 -0.129997 -0.176154
v 0.120406 -0.147382 -0.211149
v 0.074787 -0.112195 -0.173289
v 0.072554 -0.113790 -0.290356
v 0.075200 -0.112052 -0.141241
v 0.074932 -0.112104 -0.147274
v 0.073975 -0.112830 -0.231802
v 0.077685 -0.110149 -0.108252
v 0.075042 -0.112158 -0.153634
v 0.074999 -0.112055 -0.160281
v 0.074323 -0.112535 -0.212311
v 0.074318 -0.112641 -0.217464
v 0.074180 -0.112734 -0.207445
v 0.073525 -0.113101 -0.472461
v 0.074980 -0.112199 -0.166801
v 0.074559 -0.112481 -0.180647
v 0.074274 -0.112570 -0.186296
v 0.074150 -0.112754 -0.191102
v 0.073646 -0.112912 -0.199304
v 0.096451 -0.128955 -0.472461
v 0.071944 -0.113982 -0.303364
vn -0.5122 -0.7415 -0.4335
vn -0.5123 -0.7409 -0.4343
vn -0.5116 -0.7415 -0.4341
vn -0.5076 -0.7443 -0.4340
vn -0.4973 -0.7344 -0.4619
vn -0.2957 -0.8380 -0.4586
vn -0.4851 -0.7727 -0.4094
vn -0.4846 -0.7727 -0.4100
vn -0.4921 -0.7693 -0.4075
vn -0.4844 -0.7732 -0.4093
vn -0.4698 -0.8828 0.0000
vn -0.4255 -0.8966 0.1230
vn -0.6169 -0.7870 0.0000
vn -0.0001 0.0000 -1.0000
vn -0.6046 -0.7962 -0.0221
vn -0.6029 -0.7976 -0.0169
vn -0.6040 -0.7969 -0.0147
vn -0.6048 -0.7960 -0.0237
vn -0.6027 -0.7953 -0.0653
vn -0.5504 -0.8344 -0.0292
vn -0.5639 -0.8247 0.0421
vn -0.5988 -0.8008 0.0130
vn -0.6037 -0.7972 0.0096
vn -0.6000 -0.7999 0.0121
vn -0.5619 -0.8260 -0.0458
vn -0.5944 -0.8041 0.0113
vn -0.5934 -0.8048 0.0127
vn -0.5986 -0.8010 0.0050
vn -0.6471 -0.7624 0.0088
vn -0.6671 -0.7442 0.0337
vn -0.6678 -0.7435 0.0352
vn -0.6707 -0.7406 0.0419
vn -0.7482 -0.6558 0.1006
vn -0.7172 -0.6913 0.0879
vn -0.6039 -0.7970 0.0093
vn -0.1348 -0.9396 0.3147
vn -0.3996 -0.9057 -0.1418
vn -0.0391 -0.8297 -0.5568
vn -0.3734 -0.9277 0.0000
vn -0.5187 -0.8549 0.0000
vn -0.5209 -0.8536 0.0000
vn -0.5378 -0.8427 -0.0258
vn -0.5596 -0.8288 0.0000
vn -0.4182 -0.9084 -0.0000
vn -0.4181 -0.9084 -0.0000
vn -0.5558 -0.8313 -0.0000
vn -0.5107 -0.8293 -0.2270
vn -0.5433 -0.7462 -0.3847
vn -0.7461 -0.6574 0.1058
vn -0.7787 -0.6215 0.0851
vn -0.7775 -0.6229 0.0861
vn -0.7779 -0.6224 0.0866
vn -0.7586 -0.6438 0.0999
vn -0.7020 -0.7082 0.0757
vn -0.7161 -0.6939 0.0757
vn -0.7153 -0.6946 0.0764
vn -0.7081 -0.7012 0.0833
vn -0.5583 -0.8289 -0.0339
vn -0.5783 -0.8142 -0.0517
vn -0.6046 -0.7961 -0.0248
vn -0.5419 -0.8404 0.0040
vn -0.8888 -0.2978 -0.3483
vn -0.4147 -0.8197 -0.3951
vn -0.6915 -0.6985 -0.1841
vn -0.6039 -0.6978 0.3853
vn -0.5635 -0.8251 -0.0407
vn -0.5431 -0.8396 0.0000
vn -0.5030 -0.7606 -0.4105
vn -0.5989 -0.8008 0.0042
vn -0.6454 -0.7538 0.1235
vn -0.5942 -0.8037 0.0312
vn -0.7648 -0.6355 0.1054
vn -0.6602 -0.7508 0.0202
vn -0.7233 -0.6543 -0.2206
vn -0.3763 -0.7665 0.5205
vn -0.6114 -0.7906 0.0341
vn -0.6112 -0.7907 0.0361
vn -0.6109 -0.7908 0.0380
vn -0.6115 -0.7905 0.0340
vn -0.5422 -0.6466 0.5366
vn -0.4721 -0.7576 -0.4507
vn -0.4288 -0.3843 -0.8176
vn -0.6992 -0.7074 0.1034
vn -0.7849 -0.6145 0.0794
vn -0.7076 -0.7016 0.0838
vn -0.7285 -0.6763 0.1092
vn -0.9854 -0.1179 0.1225
vn -0.7965 -0.5930 0.1179
vn -0.8090 -0.5711 0.1391
vn -0.7927 -0.5988 0.1140
vn 0.7460 0.6575 -0.1058
vn 0.7586 0.6438 -0.0999
vn -0.6722 -0.7388 0.0473
vn -0.6943 -0.7162 0.0711
vn -0.6725 -0.7379 0.0576
vn -0.6339 -0.7719 -0.0491
vn -0.1463 -0.9533 -0.2641
vn -0.6353 -0.7719 -0.0226
vn -0.4859 -0.5535 -0.6764
vn -0.5450 -0.7430 -0.3885
vn 0.5349 0.6979 0.4763
vn -0.4551 -0.7387 -0.4971
vn -0.4970 -0.7684 -0.4032
vn 0.4844 0.7732 0.4093
vn -0.6714 -0.7399 0.0433
vn -0.6129 -0.7901 -0.0062
vn -0.6130 -0.7901 -0.0061
vn -0.6131 -0.7900 -0.0039
vn -0.6128 -0.7902 -0.0083
vn -0.6033 -0.7973 0.0170
vn -0.6033 -0.7974 0.0172
vn -0.6034 -0.7972 0.0183
vn -0.6016 -0.7972 -0.0503
vn -0.6016 -0.7971 -0.0510
vn -0.6018 -0.7971 -0.0504
vn -0.5653 -0.8234 -0.0498
vn -0.6166 -0.7871 0.0184
vn -0.6166 -0.7871 0.0185
vn -0.6167 -0.7869 0.0192
vn -0.6164 -0.7872 0.0179
vn -0.5868 -0.8086 0.0434
vn -0.5862 -0.8089 0.0444
vn -0.5839 -0.8103 0.0496
vn -0.5860 -0.8090 0.0456
vn -0.5842 -0.8100 0.0511
vn -0.5841 -0.8100 0.0515
vn 0.0000 0.0000 -1.0000
vn -0.5970 -0.8022 0.0000
vn -0.6017 -0.7967 -0.0569
vn -0.6935 -0.7191 0.0430
vn -0.6381 -0.7625 -0.1069
vn -0.6892 -0.7233 0.0430
vn -0.6039 -0.7966 0.0249
vn -0.5651 -0.8244 0.0320
vn -0.5292 -0.6313 -0.5669
vn 0.7927 0.5988 -0.1140
vn 0.7936 0.5975 -0.1149
vn 0.7957 0.5942 -0.1171
vn 0.5122 0.7415 0.4335
vn 0.5116 0.7415 0.4341
vn 0.5123 0.7409 0.4343
vn 0.5076 0.7443 0.4340
vn 0.4973 0.7344 0.4619
vn 0.5329 0.7104 0.4598
vn 0.3218 0.8533 0.4103
vn 0.4921 0.7693 0.4075
vn 0.1491 0.8986 0.4126
vn 0.4698 0.8828 0.0000
vn 0.4255 0.8966 -0.1230
vn 0.6169 0.7870 0.0000
vn 0.0001 0.0000 1.0000
vn 0.6046 0.7962 0.0221
vn 0.6040 0.7969 0.0147
vn 0.6029 0.7976 0.0169
vn 0.6048 0.7960 0.0237
vn 0.6027 0.7953 0.0653
vn 0.5504 0.8344 0.0292
vn 0.5639 0.8247 -0.0421
vn 0.5988 0.8008 -0.0130
vn 0.6000 0.7999 -0.0121
vn 0.6037 0.7972 -0.0096
vn 0.5619 0.8260 0.0458
vn 0.5944 0.8041 -0.0114
vn 0.5986 0.8010 -0.0050
vn 0.5934 0.8048 -0.0127
vn 0.6471 0.7624 -0.0088
vn 0.6671 0.7442 -0.0337
vn 0.6707 0.7406 -0.0419
vn 0.6678 0.7435 -0.0353
vn 0.7482 0.6558 -0.1006
vn 0.7172 0.6913 -0.0879
vn 0.6039 0.7970 -0.0093
vn 0.1348 0.9396 -0.3147
vn 0.3996 0.9057 0.1418
vn 0.0959 0.9849 0.1444
vn 0.3120 0.8748 0.3707
vn 0.3734 0.9277 0.0000
vn 0.5187 0.8549 0.0000
vn 0.5209 0.8536 0.0000
vn 0.5378 0.8427 0.0258
vn 0.5596 0.8288 0.0000
vn 0.4182 0.9084 0.0000
vn 0.4181 0.9084 0.0000
vn 0.5558 0.8313 0.0000
vn 0.5107 0.8293 0.2270
vn 0.7787 0.6216 -0.0851
vn 0.7779 0.6224 -0.0866
vn 0.7775 0.6229 -0.0861
vn 0.6583 0.7511 -0.0500
vn 0.3817 0.9071 -0.1775
vn 0.7246 0.6119 0.3171
vn 0.7020 0.7082 -0.0757
vn 0.7161 0.6939 -0.0757
vn 0.7081 0.7012 -0.0833
vn 0.7153 0.6946 -0.0764
vn 0.5583 0.8289 0.0339
vn 0.5783 0.8142 0.0517
vn 0.6046 0.7961 0.0248
vn 0.5419 0.8404 -0.0040
vn 0.8888 0.2978 0.3483
vn 0.4147 0.8197 0.3951
vn 0.6915 0.6985 0.1841
vn 0.6039 0.6978 -0.3853
vn 0.5635 0.8251 0.0407
vn 0.5431 0.8396 0.0000
vn 0.5989 0.8008 -0.0042
vn 0.6454 0.7538 -0.1235
vn 0.5942 0.8037 -0.0312
vn 0.7648 0.6355 -0.1054
vn 0.6602 0.7508 -0.0202
vn 0.7233 0.6543 0.2206
vn 0.3763 0.7665 -0.5205
vn 0.6114 0.7906 -0.0341
vn 0.6109 0.7908 -0.0380
vn 0.6112 0.7907 -0.0361
vn 0.6115 0.7905 -0.0340
vn 0.5422 0.6466 -0.5366
vn 0.4721 0.7576 0.4507
vn 0.6992 0.7074 -0.1034
vn 0.7849 0.6145 -0.0794
vn 0.7076 0.7016 -0.0838
vn 0.7285 0.6763 -0.1092
vn 0.9854 0.1179 -0.1225
vn 0.7965 0.5930 -0.1179
vn 0.8090 0.5711 -0.1391
vn 0.6721 0.7395 -0.0369
vn 0.6872 0.7256 -0.0367
vn 0.6050 0.7961 0.0143
vn 0.4344 0.8505 0.2967
vn 0.6361 0.7715 -0.0120
vn 0.4970 0.7684 0.4032
vn 0.6714 0.7399 -0.0433
vn 0.6129 0.7901 0.0062
vn 0.6131 0.7900 0.0039
vn 0.6130 0.7901 0.0061
vn 0.6128 0.7902 0.0083
vn 0.6033 0.7973 -0.0170
vn 0.6034 0.7972 -0.0183
vn 0.6033 0.7974 -0.0172
vn 0.6016 0.7972 0.0503
vn 0.6018 0.7971 0.0505
vn 0.6016 0.7971 0.0510
vn 0.5653 0.8234 0.0498
vn 0.6166 0.7871 -0.0184
vn 0.6167 0.7869 -0.0192
vn 0.6166 0.7871 -0.0185
vn 0.6164 0.7872 -0.0179
vn 0.5868 0.8086 -0.0434
vn 0.5839 0.8103 -0.0496
vn 0.5862 0.8089 -0.0444
vn 0.5860 0.8090 -0.0456
vn 0.5842 0.8100 -0.0511
vn 0.5841 0.8100 -0.0515
vn 0.0000 0.0000 1.0000
vn 0.5970 0.8022 0.0000
vn 0.6017 0.7967 0.0569
vn 0.6935 0.7191 -0.0430
vn 0.6381 0.7625 0.1069
vn 0.6892 0.7233 -0.0430
vn 0.6039 0.7966 -0.0249
vn 0.5651 0.8244 -0.0320
usemtl None.051
s 1
f 1//1 2//2 3//3
f 1//1 3//3 4//4
f 5//5 4//5 6//5
f 5//6 6//6 7//6
f 8//7 9//8 2//9
f 8//7 10//10 9//8
f 11//11 12//11 13//11
f 11//12 14//12 12//12
f 15//13 16//13 17//13
f 15//14 17//14 18//14
f 19//15 20//16 21//17
f 19//15 22//18 20//16
f 23//19 24//19 25//19
f 23//20 26//20 24//20
f 27//21 28//21 20//21
f 27//22 20//23 29//24
f 30//25 25//25 24//25
f 31//26 21//27 20//28
f 32//29 33//29 34//29
f 32//30 34//31 35//32
f 36//33 37//33 38//33
f 36//34 38//34 39//34
f 40//35 29//24 20//23
f 14//36 41//36 42//36
f 14//37 42//37 12//37
f 41//38 7//38 42//38
f 13//39 43//39 44//39
f 44//39 43//39 45//39
f 46//40 47//40 48//40
f 46//40 45//40 47//40
f 48//40 47//40 49//40
f 50//41 34//41 51//41
f 51//41 34//41 52//41
f 52//42 34//42 40//42
f 52//43 40//43 53//43
f 53//43 40//43 54//43
f 54//43 40//43 55//43
f 56//44 20//44 57//45
f 56//44 55//44 20//44
f 57//45 20//44 58//45
f 59//44 20//44 60//44
f 59//44 58//45 20//44
f 60//44 20//44 61//44
f 61//44 20//44 62//44
f 62//46 30//46 63//46
f 62//47 20//47 30//47
f 16//13 64//13 17//13
f 7//48 6//48 65//48
f 66//49 67//49 68//49
f 66//50 69//51 70//52
f 66//53 68//53 69//53
f 71//54 72//54 73//54
f 71//55 74//56 72//57
f 30//58 17//58 63//58
f 30//59 24//59 17//59
f 30//60 20//16 22//18
f 72//61 66//61 13//61
f 72//62 13//62 12//62
f 3//63 2//63 75//63
f 76//64 77//64 78//64
f 76//65 47//65 77//65
f 76//66 49//66 47//66
f 76//67 78//67 49//67
f 64//13 63//13 17//13
f 79//68 75//68 9//68
f 20//28 28//69 31//26
f 45//70 77//70 47//70
f 42//71 72//71 12//71
f 38//72 37//72 66//72
f 80//73 34//73 33//73
f 43//74 66//74 45//74
f 43//75 13//75 66//75
f 81//76 45//77 37//78
f 81//76 82//79 45//77
f 34//80 50//80 83//80
f 6//81 4//81 3//81
f 84//82 6//82 3//82
f 72//83 85//83 66//83
f 66//50 70//52 38//84
f 72//57 74//56 85//85
f 85//86 67//86 66//86
f 86//87 39//87 87//87
f 87//88 38//88 88//88
f 87//89 39//89 38//89
f 88//90 89//90 87//90
f 68//91 67//91 90//91
f 68//92 90//92 69//92
f 72//93 91//93 92//93
f 72//94 92//94 73//94
f 65//95 93//95 72//95
f 65//96 72//96 42//96
f 65//97 42//97 7//97
f 72//98 93//98 91//98
f 6//99 94//99 65//99
f 95//100 65//100 94//100
f 65//101 94//101 93//101
f 3//102 96//102 84//102
f 2//103 9//103 75//103
f 10//104 97//104 9//104
f 83//105 35//32 34//31
f 98//106 45//107 82//108
f 98//106 99//109 45//107
f 100//110 101//111 78//112
f 100//113 78//114 102//115
f 26//116 103//116 24//116
f 104//117 45//118 99//119
f 104//117 77//120 45//118
f 105//121 78//122 77//123
f 105//121 106//124 78//122
f 107//125 78//122 106//124
f 107//125 108//126 78//122
f 17//127 24//127 109//127
f 50//128 78//128 83//128
f 78//114 108//129 102//115
f 34//130 80//130 40//130
f 66//131 37//131 45//131
f 80//132 110//132 40//132
f 83//133 78//112 101//111
f 55//134 40//134 20//134
f 111//135 92//135 91//135
f 89//136 88//137 112//138
f 113//139 3//140 114//141
f 113//139 115//142 3//140
f 116//143 6//143 115//143
f 116//144 94//144 6//144
f 116//145 117//145 94//145
f 97//146 114//146 9//146
f 117//147 118//147 94//147
f 119//148 120//148 121//148
f 119//149 121//149 122//149
f 123//150 124//150 125//150
f 123//151 126//151 124//151
f 127//152 128//153 129//154
f 127//152 129//154 130//155
f 131//156 132//156 133//156
f 131//157 133//157 134//157
f 135//158 129//158 136//158
f 135//159 137//160 129//161
f 138//162 133//162 132//162
f 139//163 129//164 128//165
f 140//166 141//166 142//166
f 140//167 143//168 141//169
f 144//170 38//170 145//170
f 144//171 146//171 38//171
f 147//172 129//161 137//160
f 122//173 148//173 118//173
f 122//174 121//174 148//174
f 118//175 148//175 149//175
f 118//176 149//176 94//176
f 120//177 150//177 151//177
f 150//177 152//177 151//177
f 153//178 154//178 155//178
f 153//178 155//178 152//178
f 154//178 156//178 155//178
f 157//179 158//179 141//179
f 158//179 159//179 141//179
f 159//180 147//180 141//180
f 159//181 160//181 147//181
f 160//181 161//181 147//181
f 161//181 162//181 147//181
f 163//182 164//183 129//182
f 163//182 129//182 162//182
f 164//183 165//183 129//182
f 166//182 167//182 129//182
f 166//182 129//182 165//183
f 167//182 168//182 129//182
f 168//182 169//182 129//182
f 169//184 170//184 138//184
f 169//185 138//185 129//185
f 125//150 124//150 171//150
f 90//186 70//187 69//188
f 172//189 173//189 73//189
f 172//190 149//190 148//190
f 172//191 148//191 173//191
f 71//192 73//192 173//192
f 71//193 173//194 74//195
f 138//196 170//196 124//196
f 138//197 124//197 133//197
f 138//198 130//155 129//154
f 173//199 120//199 90//199
f 173//200 121//200 120//200
f 3//201 75//201 114//201
f 174//202 175//202 176//202
f 174//203 176//203 155//203
f 174//204 155//204 156//204
f 174//205 156//205 175//205
f 171//150 124//150 170//150
f 129//164 139//163 136//206
f 152//207 155//207 176//207
f 148//208 121//208 173//208
f 38//209 90//209 145//209
f 177//210 142//210 141//210
f 151//211 152//211 90//211
f 151//212 90//212 120//212
f 178//213 145//214 152//215
f 178//213 152//215 179//216
f 141//217 180//217 157//217
f 6//218 3//218 115//218
f 173//219 90//219 85//219
f 90//186 38//220 70//187
f 173//194 85//221 74//195
f 85//222 90//222 67//222
f 181//223 112//223 146//223
f 112//138 88//137 38//224
f 112//225 38//225 146//225
f 172//226 92//226 91//226
f 172//227 73//227 92//227
f 94//228 172//228 93//228
f 94//229 149//229 172//229
f 172//230 91//230 93//230
f 114//231 75//231 9//231
f 180//232 141//169 143//168
f 182//233 179//234 152//235
f 182//233 152//235 183//236
f 184//237 175//238 185//239
f 184//240 186//241 175//242
f 134//243 133//243 187//243
f 188//244 183//245 152//246
f 188//244 152//246 176//247
f 189//248 176//249 175//250
f 189//248 175//250 190//251
f 191//252 190//251 175//250
f 191//252 175//250 192//253
f 124//254 193//254 133//254
f 157//255 180//255 175//255
f 175//242 186//241 192//256
f 141//257 147//257 177//257
f 90//258 152//258 145//258
f 177//259 147//259 194//259
f 180//260 185//239 175//238
f 162//261 129//261 147//261
