# Blender v2.79 (sub 0) OBJ File: ''
# www.blender.org
mtllib crack_restart_keyway_220.mtl
o crack_restart_keyway_220
v 0.073499 -0.113119 -0.472461
v 0.072775 -0.113459 -0.459453
v 0.096978 -0.137199 -0.346068
v 0.085101 -0.121114 -0.472461
v 0.096767 -0.128704 -0.472461
v 0.120406 -0.147382 -0.472461
v 0.109023 -0.137695 -0.472461
v 0.120406 -0.147382 -0.457089
v 0.070731 -0.114912 -0.394416
v 0.070446 -0.114923 -0.381408
v 0.070832 -0.114681 -0.407423
v 0.072974 -0.113492 -0.290356
v 0.072713 -0.113498 -0.277349
v 0.094292 -0.132068 -0.233543
v 0.071441 -0.114298 -0.303364
v 0.072581 -0.113771 -0.446446
v 0.071641 -0.114172 -0.433438
v 0.071335 -0.114578 -0.342386
v 0.070898 -0.114639 -0.355393
v 0.071548 -0.114231 -0.329378
v 0.071251 -0.114624 -0.420431
v 0.070677 -0.114942 -0.368401
v 0.072972 -0.113494 -0.264341
v 0.073101 -0.113254 -0.251334
v 0.071597 -0.114433 -0.316371
v 0.120406 -0.147382 -0.134293
v 0.120406 -0.147382 -0.141979
v 0.112937 -0.146061 -0.133554
v 0.116840 -0.146698 -0.131013
v 0.120406 -0.147382 -0.128678
v 0.120406 -0.147382 -0.149664
v 0.105589 -0.141185 -0.140499
v 0.120406 -0.147382 -0.157350
v 0.120406 -0.147382 -0.165036
v 0.120406 -0.147382 -0.180407
v 0.098817 -0.135029 -0.170684
v 0.107624 -0.141504 -0.160835
v 0.111297 -0.143757 -0.165211
v 0.120406 -0.147382 -0.195778
v 0.120406 -0.147382 -0.211149
v 0.120406 -0.147382 -0.226521
v 0.077600 -0.116182 -0.196494
v 0.120406 -0.147382 -0.241892
v 0.120406 -0.147382 -0.257263
v 0.120406 -0.147382 -0.272634
v 0.120406 -0.147382 -0.288006
v 0.120406 -0.147382 -0.318748
v 0.120406 -0.147382 -0.334119
v 0.120406 -0.147382 -0.303377
v 0.120406 -0.147382 -0.349490
v 0.120406 -0.147382 -0.364862
v 0.120406 -0.147382 -0.380233
v 0.120406 -0.147382 -0.395604
v 0.120406 -0.147382 -0.410975
v 0.120406 -0.147382 -0.426347
v 0.120406 -0.147382 -0.441718
v 0.083595 -0.121519 -0.180615
v 0.103146 -0.133277 -0.472461
v 0.074667 -0.112272 -0.225260
v 0.074424 -0.112571 -0.232956
v 0.074976 -0.112072 -0.212311
v 0.073749 -0.112973 -0.205808
v 0.079003 -0.116994 -0.180181
v 0.077228 -0.114797 -0.183545
v 0.083595 -0.121519 -0.180615
v 0.081062 -0.119136 -0.176881
v 0.092101 -0.128686 -0.158787
v 0.094384 -0.130847 -0.154671
v 0.089112 -0.126029 -0.163047
v 0.074148 -0.112722 -0.192800
v 0.100358 -0.136488 -0.147032
v 0.102838 -0.138985 -0.143216
v 0.120406 -0.147382 -0.134293
v 0.083775 -0.121447 -0.172508
v 0.082482 -0.120355 -0.174367
v 0.085549 -0.122951 -0.169869
v 0.073499 -0.113119 -0.472461
v 0.096978 -0.137199 -0.346068
v 0.072775 -0.113459 -0.459453
v 0.085101 -0.121114 -0.472461
v 0.096767 -0.128704 -0.472461
v 0.120406 -0.147382 -0.472461
v 0.120406 -0.147382 -0.457089
v 0.109023 -0.137695 -0.472461
v 0.070731 -0.114912 -0.394416
v 0.070446 -0.114923 -0.381408
v 0.070832 -0.114681 -0.407423
v 0.072974 -0.113492 -0.290356
v 0.094292 -0.132068 -0.233543
v 0.072713 -0.113498 -0.277349
v 0.071441 -0.114298 -0.303364
v 0.072581 -0.113771 -0.446446
v 0.071641 -0.114172 -0.433438
v 0.071335 -0.114578 -0.342386
v 0.070898 -0.114639 -0.355393
v 0.071548 -0.114231 -0.329378
v 0.071251 -0.114624 -0.420431
v 0.070677 -0.114942 -0.368401
v 0.072972 -0.113494 -0.264341
v 0.073101 -0.113254 -0.251334
v 0.071597 -0.114433 -0.316371
v 0.120406 -0.147382 -0.141979
v 0.120406 -0.147382 -0.149664
v 0.120406 -0.147382 -0.157350
v 0.120406 -0.147382 -0.165036
v 0.098817 -0.135029 -0.170684
v 0.120406 -0.147382 -0.180407
v 0.107624 -0.141504 -0.160835
v 0.111297 -0.143757 -0.165211
v 0.120406 -0.147382 -0.195778
v 0.120406 -0.147382 -0.211149
v 0.077600 -0.116182 -0.196494
v 0.120406 -0.147382 -0.226521
v 0.120406 -0.147382 -0.241892
v 0.120406 -0.147382 -0.257263
v 0.120406 -0.147382 -0.272634
v 0.120406 -0.147382 -0.288006
v 0.120406 -0.147382 -0.318748
v 0.120406 -0.147382 -0.334119
v 0.120406 -0.147382 -0.303377
v 0.120406 -0.147382 -0.349490
v 0.120406 -0.147382 -0.364862
v 0.120406 -0.147382 -0.380233
v 0.120406 -0.147382 -0.395604
v 0.120406 -0.147382 -0.410975
v 0.120406 -0.147382 -0.426347
v 0.120406 -0.147382 -0.441718
v 0.103146 -0.133277 -0.472461
v 0.074667 -0.112272 -0.225260
v 0.074424 -0.112571 -0.232956
v 0.074976 -0.112072 -0.212311
v 0.073749 -0.112973 -0.205808
v 0.074148 -0.112722 -0.192800
v 0.072994 -0.113322 -0.199304
v 0.074754 -0.112241 -0.187452
v 0.098489 -0.134898 -0.149207
v 0.072994 -0.113322 -0.199304
vn 0.5631 0.8247 0.0526
vn 0.5620 0.8254 0.0529
vn 0.5630 0.8248 0.0526
vn 0.5667 0.8223 0.0514
vn 0.5445 0.8369 0.0553
vn 0.6481 0.7616 0.0000
vn 0.6305 0.7760 0.0154
vn 0.6315 0.7752 0.0145
vn 0.6273 0.7785 0.0184
vn 0.6269 0.7789 0.0187
vn 0.6368 0.7709 0.0131
vn 0.8267 0.5471 -0.1313
vn 0.5394 0.8396 0.0649
vn 0.6300 0.7761 0.0280
vn 0.6591 0.7516 -0.0259
vn 0.6594 0.7511 -0.0305
vn 0.6592 0.7515 -0.0260
vn 0.6587 0.7517 -0.0308
vn 0.6203 0.7840 0.0234
vn 0.5811 0.8126 0.0457
vn 0.6598 0.7509 -0.0287
vn 0.6511 0.7589 -0.0105
vn 0.6722 0.7401 -0.0191
vn 0.6733 0.7391 -0.0203
vn 0.6683 0.7437 -0.0143
vn 0.6679 0.7442 -0.0135
vn 0.6725 0.7401 0.0074
vn 0.6684 0.7438 0.0011
vn 0.6735 0.7392 0.0089
vn 0.1742 0.9847 0.0000
vn 0.1724 0.9849 -0.0179
vn 0.1884 0.9821 0.0000
vn 0.3858 0.9226 0.0000
vn 0.4966 0.8680 0.0000
vn 0.4253 0.9046 0.0284
vn 0.3675 0.9156 -0.1629
vn 0.2978 0.7752 0.5572
vn 0.5890 0.8081 0.0000
vn 0.5599 0.8286 0.0000
vn 0.3986 0.9171 0.0000
vn 0.5247 0.8402 -0.1368
vn 0.3058 0.9172 -0.2555
vn 0.6679 0.7442 0.0003
vn 0.6065 0.7834 0.1361
vn 0.5645 0.8239 0.0506
vn 0.5327 0.8453 0.0408
vn 0.0004 0.0000 1.0000
vn 0.5907 0.8052 0.0531
vn 0.7146 0.6992 0.0222
vn 0.6988 0.7136 -0.0498
vn 0.3179 0.9292 0.1887
vn 0.6972 0.7128 -0.0767
vn 0.8883 0.4583 -0.0283
vn 0.7034 0.7052 0.0894
vn -0.7034 -0.7052 -0.0894
vn 0.7028 0.7110 0.0230
vn -0.7028 -0.7110 -0.0230
vn 0.7628 0.6408 -0.0869
vn -0.7628 -0.6408 0.0869
vn 0.6872 0.7258 -0.0295
vn 0.6866 0.7264 -0.0291
vn 0.6836 0.7293 -0.0274
vn -0.6872 -0.7258 0.0295
vn -0.6836 -0.7293 0.0274
vn -0.6866 -0.7264 0.0291
vn 0.5884 0.8056 -0.0693
vn 0.6743 0.7361 -0.0594
vn 0.6527 0.7544 0.0694
vn 0.5952 0.8022 0.0470
vn -0.1724 -0.9849 0.0179
vn -0.1884 -0.9821 0.0000
vn 0.3950 0.8944 0.2100
vn 0.6633 0.7481 -0.0214
vn 0.6639 0.7475 -0.0216
vn 0.6690 0.7430 -0.0194
vn -0.6633 -0.7481 0.0214
vn -0.6690 -0.7430 0.0194
vn -0.6639 -0.7476 0.0216
vn 0.6648 0.7467 -0.0214
vn -0.6648 -0.7467 0.0214
vn 0.6702 0.7419 -0.0188
vn -0.6702 -0.7419 0.0188
vn -0.5631 -0.8247 -0.0526
vn -0.5630 -0.8248 -0.0526
vn -0.5620 -0.8254 -0.0529
vn -0.5667 -0.8223 -0.0514
vn -0.5445 -0.8369 -0.0553
vn -0.6481 -0.7616 0.0000
vn -0.6315 -0.7752 -0.0145
vn -0.6269 -0.7789 -0.0187
vn -0.6254 -0.7801 -0.0198
vn -0.6207 -0.7837 -0.0232
vn -0.6368 -0.7709 -0.0131
vn -0.8267 -0.5471 0.1313
vn -0.5394 -0.8396 -0.0649
vn -0.6300 -0.7761 -0.0280
vn -0.6591 -0.7516 0.0259
vn -0.6592 -0.7515 0.0260
vn -0.6594 -0.7511 0.0305
vn -0.6587 -0.7517 0.0308
vn -0.6203 -0.7840 -0.0234
vn -0.5811 -0.8126 -0.0457
vn -0.6598 -0.7509 0.0287
vn -0.6511 -0.7589 0.0105
vn -0.6722 -0.7401 0.0191
vn -0.6683 -0.7437 0.0143
vn -0.6733 -0.7391 0.0203
vn -0.6679 -0.7442 0.0135
vn -0.6725 -0.7401 -0.0075
vn -0.6735 -0.7392 -0.0089
vn -0.6684 -0.7438 -0.0011
vn -0.1742 -0.9847 0.0000
vn -0.3858 -0.9226 0.0000
vn -0.4966 -0.8680 0.0000
vn -0.4253 -0.9046 -0.0284
vn -0.3675 -0.9156 0.1629
vn -0.2978 -0.7752 -0.5572
vn -0.5890 -0.8081 0.0000
vn -0.5599 -0.8286 0.0000
vn -0.3986 -0.9171 0.0000
vn -0.5247 -0.8402 0.1368
vn -0.3058 -0.9172 0.2555
vn -0.6679 -0.7442 -0.0003
vn -0.6065 -0.7834 -0.1361
vn -0.5645 -0.8239 -0.0506
vn -0.5327 -0.8453 -0.0408
vn -0.0004 0.0000 -1.0000
vn -0.5907 -0.8052 -0.0531
vn -0.7146 -0.6992 -0.0222
vn -0.6988 -0.7136 0.0498
vn -0.3179 -0.9292 -0.1887
vn -0.6972 -0.7128 0.0767
vn -0.8883 -0.4583 0.0283
vn -0.5884 -0.8056 0.0693
vn -0.6743 -0.7361 0.0594
vn -0.6527 -0.7544 -0.0694
vn -0.5952 -0.8022 -0.0470
vn -0.3950 -0.8944 -0.2100
vn -0.4789 -0.8719 -0.1024
vn -0.5596 -0.8276 -0.0436
vn -0.6823 -0.7306 0.0267
vn -0.6189 -0.7844 -0.0407
vn -0.6201 -0.7835 -0.0398
vn -0.6200 -0.7836 -0.0398
vn -0.7229 -0.6567 0.2147
vn -0.5951 -0.7837 0.1779
vn -0.8112 -0.5671 0.1428
vn -0.6275 -0.7217 -0.2923
vn -0.6205 -0.7832 -0.0394
vn -0.7492 -0.6581 0.0749
vn 0.4789 0.8719 0.1024
vn 0.5596 0.8276 0.0436
vn 0.6823 0.7306 -0.0267
vn 0.6189 0.7844 0.0407
vn 0.6200 0.7836 0.0398
vn 0.6201 0.7835 0.0398
vn 0.7229 0.6567 -0.2147
vn 0.5951 0.7837 -0.1779
vn 0.8112 0.5671 -0.1428
vn 0.6275 0.7217 0.2923
vn 0.7492 0.6581 -0.0749
vn 0.6205 0.7832 0.0394
usemtl None.028
s 1
f 1//1 2//2 3//3
f 1//1 3//3 4//4
f 4//5 3//5 5//5
f 6//6 7//6 8//6
f 9//7 10//8 3//9
f 9//7 3//9 11//10
f 12//11 13//11 14//11
f 12//12 14//12 15//12
f 16//13 17//13 3//13
f 16//14 3//14 2//14
f 18//15 3//16 19//17
f 18//15 20//18 3//16
f 21//19 11//19 3//19
f 21//20 3//20 17//20
f 22//21 19//17 3//16
f 22//22 3//22 10//22
f 23//23 24//24 14//25
f 23//23 14//25 13//26
f 25//27 3//28 20//29
f 26//30 27//30 28//30
f 26//31 28//31 29//31
f 26//32 29//32 30//32
f 31//33 32//33 27//33
f 31//33 33//33 32//33
f 34//33 32//33 33//33
f 34//34 35//34 36//34
f 34//35 37//35 32//35
f 34//36 38//36 37//36
f 34//37 36//37 38//37
f 35//34 39//34 36//34
f 40//38 41//38 42//38
f 40//38 42//38 39//38
f 41//38 43//38 42//38
f 43//38 44//38 42//38
f 44//39 45//39 15//39
f 45//39 46//39 15//39
f 47//40 48//40 3//40
f 47//39 15//39 49//39
f 47//41 3//41 15//41
f 50//40 51//40 3//40
f 50//40 3//40 48//40
f 51//40 52//40 3//40
f 52//40 53//40 3//40
f 53//40 54//40 3//40
f 54//40 55//40 3//40
f 55//40 56//40 3//40
f 8//6 7//6 56//6
f 14//42 42//42 44//42
f 25//27 15//43 3//28
f 57//44 36//44 39//44
f 56//45 7//45 3//45
f 44//46 15//46 14//46
f 7//47 58//47 5//47
f 7//48 5//48 3//48
f 14//49 59//49 42//49
f 14//50 60//50 59//50
f 61//51 62//51 42//51
f 15//39 46//39 49//39
f 14//52 24//52 60//52
f 59//53 61//53 42//53
f 63//54 57//54 64//54
f 63//55 64//55 65//55
f 63//56 66//56 57//56
f 63//57 65//57 66//57
f 67//58 68//58 57//58
f 67//59 65//59 68//59
f 67//60 57//61 69//62
f 67//63 69//64 65//65
f 42//66 64//66 39//66
f 42//67 70//67 64//67
f 37//68 71//68 72//68
f 32//69 37//69 72//69
f 29//70 28//70 73//70
f 29//71 73//71 30//71
f 28//72 27//72 32//72
f 74//73 57//74 75//75
f 74//76 75//77 65//78
f 74//73 76//79 57//74
f 74//76 65//78 76//80
f 75//75 57//74 66//81
f 75//77 66//82 65//78
f 77//83 78//84 79//85
f 77//83 80//86 78//84
f 80//87 81//87 78//87
f 82//88 83//88 84//88
f 85//89 78//89 86//89
f 85//90 87//91 78//92
f 88//93 89//93 90//93
f 88//94 91//94 89//94
f 92//95 78//95 93//95
f 92//96 79//96 78//96
f 94//97 95//98 78//99
f 94//97 78//99 96//100
f 97//101 78//92 87//91
f 97//102 93//102 78//102
f 98//103 78//99 95//98
f 98//104 86//104 78//104
f 99//105 89//106 100//107
f 99//105 90//108 89//106
f 101//109 96//110 78//111
f 73//112 28//112 102//112
f 103//113 102//113 32//113
f 103//113 32//113 104//113
f 105//113 104//113 32//113
f 105//114 106//114 107//114
f 105//115 32//115 108//115
f 105//116 108//116 109//116
f 105//117 109//117 106//117
f 107//114 106//114 110//114
f 111//118 112//118 113//118
f 111//118 110//118 112//118
f 113//118 112//118 114//118
f 114//118 112//118 115//118
f 115//119 91//119 116//119
f 116//119 91//119 117//119
f 118//120 78//120 119//120
f 118//119 120//119 91//119
f 118//121 91//121 78//121
f 121//120 78//120 122//120
f 121//120 119//120 78//120
f 122//120 78//120 123//120
f 123//120 78//120 124//120
f 124//120 78//120 125//120
f 125//120 78//120 126//120
f 126//120 78//120 127//120
f 83//88 127//88 84//88
f 89//122 115//122 112//122
f 101//109 78//111 91//123
f 65//124 110//124 106//124
f 127//125 78//125 84//125
f 115//126 89//126 91//126
f 84//127 81//127 128//127
f 84//128 78//128 81//128
f 89//129 112//129 129//129
f 89//130 129//130 130//130
f 131//131 112//131 132//131
f 91//119 120//119 117//119
f 89//132 130//132 100//132
f 129//133 112//133 131//133
f 112//134 110//134 64//134
f 112//135 64//135 133//135
f 108//136 72//136 71//136
f 32//137 72//137 108//137
f 28//138 32//138 102//138
f 112//139 134//139 132//139
f 109//140 108//140 106//140
f 76//141 65//65 69//64
f 108//142 71//143 65//144
f 108//145 65//145 106//145
f 134//146 112//146 133//146
f 133//147 64//147 135//147
f 64//148 110//148 65//148
f 136//149 65//144 71//143
f 136//150 68//150 65//150
f 42//151 62//151 137//151
f 38//152 36//152 37//152
f 76//153 69//62 57//61
f 37//154 57//155 71//156
f 37//157 36//157 57//157
f 137//158 70//158 42//158
f 70//159 135//159 64//159
f 64//160 57//160 39//160
f 68//161 136//161 57//161
f 136//162 71//156 57//155
