# Blender v2.79 (sub 0) OBJ File: ''
# www.blender.org
mtllib my_crack_surf1_520.mtl
o my_crack_surf1_520
v 165.455002 -7.009737 3422.070068
v 191.899994 -10.150553 3392.939941
v 178.725006 -8.950109 3430.310059
v 170.949005 -7.610275 4081.580078
v 185.690002 -9.860240 4113.270020
v 173.794006 -8.003591 4113.270020
v 191.899994 -10.150665 4085.100098
v 147.332993 -6.103479 3430.399902
v 172.460007 -9.850630 3312.000000
v 176.417007 -10.454638 3301.229980
v 170.070999 -9.887389 3308.699951
v 183.852005 -10.897737 3296.699951
v 180.755997 -10.783737 3298.030029
v 159.233002 -8.649384 3341.689941
v 164.537994 -9.443531 3320.570068
v 166.716995 -9.611840 3314.739990
v 167.082001 -6.857225 3472.600098
v 191.899994 -10.150570 3498.929932
v 184.723007 -9.195320 3870.879883
v 184.725998 -9.392054 3886.040039
v 154.639999 -7.570131 3383.979980
v 191.899994 -10.150537 3300.000000
v 161.345993 -7.322863 4010.989990
v 164.656006 -6.545513 3516.939941
v 131.054001 -4.269486 3478.469971
v 130.936005 -5.615430 4113.270020
v 137.906006 -5.040995 3467.370117
v 189.714996 -10.318138 3300.000000
v 189.130005 -10.818937 3297.169922
v 188.580002 -10.548738 3300.979980
v 131.404999 -4.900751 4055.219971
v 191.899994 -10.150670 4113.270020
v 151.440002 -6.058940 4113.270020
v 130.878998 -7.556756 4023.949951
v 128.850006 -3.549981 3874.979980
v 144.274002 -5.882421 3444.689941
v 130.656998 -6.579092 3998.030029
v 130.296005 -7.209113 4007.760010
v 128.966003 -3.828930 3928.709961
v 129.617996 -3.311579 3919.330078
v 130.410004 -5.623393 3947.820068
v 129.945999 -6.063767 3972.679932
v 128.942993 -3.200986 3598.739990
v 129.214005 -2.726037 3543.110107
v 128.731995 -3.920823 3820.550049
v 128.914001 -2.516155 3530.790039
v 147.311996 -6.032874 3890.620117
v 128.847000 -2.960374 3583.489990
v 187.712006 -10.874837 3296.389893
v 130.240005 -2.357692 3509.820068
vn -0.1351 -0.9907 -0.0158
vn -0.1542 -0.9880 0.0016
vn -0.1178 -0.9929 -0.0157
vn -0.0902 -0.9920 -0.0883
vn -0.0411 -0.9983 0.0409
vn -0.0109 -0.9981 0.0602
vn -0.0147 -0.9993 0.0339
vn -0.0269 -0.9992 0.0306
vn 0.2181 -0.9699 0.1080
vn -0.1319 -0.9913 -0.0000
vn 0.2477 -0.9687 -0.0126
vn -0.0382 -0.9989 0.0255
vn -0.0154 -0.9999 -0.0000
vn -0.1225 -0.9924 0.0126
vn -0.1080 -0.9935 0.0355
vn -0.0556 -0.9984 -0.0074
vn -0.0671 -0.9974 0.0279
vn -0.1315 -0.9913 -0.0000
vn 0.2874 -0.9516 0.1090
vn -0.0599 -0.9981 -0.0128
vn -0.0643 -0.9979 0.0117
vn -0.0467 -0.9989 -0.0000
vn -0.0338 -0.9993 0.0162
vn 0.0757 -0.9866 -0.1445
vn 0.2194 -0.8994 0.3780
vn -0.0000 0.0000 1.0000
vn -0.1251 -0.9884 0.0861
vn 0.0056 -1.0000 -0.0048
vn -0.0733 -0.9972 0.0175
vn -0.0472 -0.9981 0.0386
vn -0.0909 -0.9959 -0.0005
vn -0.1005 -0.9949 0.0006
vn -0.0770 -0.9966 0.0281
vn -0.0903 -0.9959 -0.0039
vn 0.0031 -0.9979 -0.0645
vn -0.2574 -0.9637 -0.0710
vn -0.0796 -0.9956 -0.0495
vn -0.0181 -0.9997 -0.0180
vn -0.1015 -0.9948 -0.0129
vn -0.1137 -0.9935 -0.0090
vn -0.0631 -0.9980 0.0069
vn -0.1174 -0.9930 -0.0141
vn -0.1464 -0.9889 -0.0235
vn -0.0158 -0.9997 -0.0199
vn -0.0654 -0.9977 0.0186
vn -0.0014 -0.9998 -0.0214
vn -0.1397 -0.9902 0.0077
vn -0.5440 -0.8390 -0.0098
vn -0.0778 -0.9963 0.0368
vn -0.0842 -0.9955 0.0425
vn 0.0121 -0.9969 0.0773
vn 0.0057 -0.9974 0.0716
vn -0.1322 -0.9896 0.0569
vn 0.0021 -0.9977 0.0676
vn -0.0949 -0.9944 -0.0458
vn -0.1177 -0.9929 -0.0149
vn 0.1162 -0.9897 -0.0835
vn -0.1124 -0.9937 -0.0046
vn -0.1149 -0.9934 -0.0033
usemtl None
s off
f 1//1 2//1 3//1
f 4//2 5//2 6//2
f 5//3 4//3 7//3
f 1//4 3//4 8//4
f 9//5 11//5 10//5
f 12//6 9//6 13//6
f 14//7 15//7 9//7
f 9//8 16//8 11//8
f 2//9 17//9 3//9
f 18//10 7//10 19//10
f 7//11 20//11 19//11
f 1//12 8//12 21//12
f 2//13 9//13 22//13
f 7//14 4//14 23//14
f 24//15 25//15 18//15
f 26//16 4//16 6//16
f 25//17 27//17 17//17
f 18//18 17//18 2//18
f 28//19 30//19 29//19
f 31//20 4//20 26//20
f 14//21 9//21 2//21
f 7//22 32//22 5//22
f 15//23 16//23 9//23
f 28//24 22//24 30//24
f 9//25 30//25 22//25
f 6//26 33//26 26//26
f 31//27 34//27 4//27
f 23//28 4//28 34//28
f 2//29 21//29 14//29
f 13//30 9//30 10//30
f 20//31 7//31 23//31
f 35//32 18//32 19//32
f 36//33 3//33 17//33
f 36//34 8//34 3//34
f 37//35 23//35 38//35
f 39//36 40//36 41//36
f 17//37 18//37 25//37
f 23//38 42//38 41//38
f 35//39 19//39 20//39
f 43//40 44//40 24//40
f 35//41 45//41 18//41
f 44//42 46//42 24//42
f 43//43 24//43 18//43
f 37//44 42//44 23//44
f 36//45 17//45 27//45
f 38//46 23//46 34//46
f 35//47 47//47 40//47
f 44//48 43//48 48//48
f 21//49 2//49 1//49
f 20//50 40//50 47//50
f 9//51 12//51 49//51
f 9//52 29//52 30//52
f 50//53 25//53 24//53
f 29//54 9//54 49//54
f 20//55 47//55 35//55
f 24//56 46//56 50//56
f 23//57 41//57 40//57
f 23//58 40//58 20//58
f 45//59 43//59 18//59
