# Blender v2.79 (sub 0) OBJ File: ''
# www.blender.org
mtllib my_crack_surf1_425.mtl
o my_crack_surf1_425
v 151.440002 -6.058940 4113.270020
v 131.404999 -4.900751 4055.219971
v 130.936005 -5.615430 4113.270020
v 191.899994 -10.150670 4113.270020
v 185.707001 -10.017669 4105.040039
v 181.906998 -9.289927 4098.080078
v 191.899994 -10.150599 3680.620117
v 135.998001 -4.771533 3578.199951
v 128.953003 -3.426421 3626.830078
v 184.723007 -9.195320 3870.879883
v 191.899994 -10.150563 3456.750000
v 178.584000 -8.967311 3507.959961
v 181.960007 -9.557409 3492.929932
v 157.511002 -6.297962 3510.199951
v 162.944000 -6.766370 3497.310059
v 178.699997 -8.912955 3468.610107
v 130.878998 -7.558075 4023.949951
v 130.444000 -6.218330 3990.260010
v 128.731995 -3.920263 3820.550049
v 128.966003 -3.831120 3928.709961
v 129.617996 -3.312028 3919.330078
v 130.410004 -5.643013 3947.810059
v 153.557999 -5.881054 3526.729980
v 147.886993 -4.826937 3542.699951
v 128.804001 -4.476108 3609.679932
v 128.692001 -4.504375 3587.219971
v 183.951996 -9.784265 3463.010010
v 174.766998 -8.258686 3474.570068
v 143.718994 -4.732440 3557.679932
vn -0.0216 -0.9997 -0.0125
vn 0.3757 -0.8779 -0.2970
vn -0.1233 -0.9917 -0.0364
vn -0.1153 -0.9933 0.0108
vn -0.1319 -0.9913 -0.0000
vn 0.4116 -0.9023 0.1279
vn -0.1275 -0.9917 -0.0177
vn -0.1437 -0.9896 0.0066
vn -0.1043 -0.9945 -0.0124
vn -0.1370 -0.9899 -0.0376
vn -0.1254 -0.9921 0.0029
vn -0.0885 -0.9961 -0.0000
vn -0.1004 -0.9932 0.0595
vn -0.3033 -0.9490 0.0858
vn -0.0951 -0.9955 0.0014
vn -0.1040 -0.9946 -0.0027
vn -0.2621 -0.9624 -0.0715
vn -0.1078 -0.9942 -0.0007
vn -0.1533 -0.9881 0.0108
vn -0.0348 -0.9994 0.0014
vn -0.1467 -0.9892 -0.0065
vn -0.0836 -0.9965 -0.0015
vn 0.2131 -0.9753 0.0578
vn 0.0105 -0.9998 0.0144
vn -0.1714 -0.9823 -0.0756
vn -0.0842 -0.9964 -0.0134
vn 0.2595 -0.8872 0.3815
vn -0.2995 -0.9495 -0.0934
vn -0.1001 -0.9950 0.0070
vn -0.0750 -0.9971 -0.0146
vn -0.0548 -0.9982 -0.0225
vn -0.1063 -0.9943 -0.0017
usemtl None
s off
f 1//1 3//1 2//1
f 4//2 5//2 6//2
f 1//3 6//3 5//3
f 7//4 9//4 8//4
f 7//5 4//5 10//5
f 11//6 12//6 13//6
f 14//7 15//7 12//7
f 13//8 12//8 15//8
f 11//9 13//9 16//9
f 17//10 18//10 10//10
f 14//11 12//11 7//11
f 7//12 12//12 11//12
f 5//13 4//13 1//13
f 2//14 17//14 1//14
f 19//15 7//15 10//15
f 19//16 9//16 7//16
f 20//17 21//17 22//17
f 7//18 23//18 14//18
f 7//19 24//19 23//19
f 25//20 26//20 8//20
f 15//21 16//21 13//21
f 10//22 4//22 6//22
f 25//23 8//23 9//23
f 1//24 17//24 10//24
f 10//25 22//25 21//25
f 10//26 18//26 22//26
f 27//27 11//27 16//27
f 28//28 16//28 15//28
f 10//29 21//29 19//29
f 7//30 29//30 24//30
f 29//31 7//31 8//31
f 10//32 6//32 1//32
