# Blender v2.79 (sub 0) OBJ File: ''
# www.blender.org
mtllib my_crack_surf1_540.mtl
o my_crack_surf1_540
v 191.899994 -10.150670 4113.270020
v 185.707001 -10.017669 4105.040039
v 181.906998 -9.289927 4098.080078
v 173.794006 -8.003600 4113.270020
v 189.714005 -10.325937 3295.629883
v 187.304993 -10.632137 3294.340088
v 188.585999 -10.319337 3295.850098
v 185.925995 -11.003736 3296.270020
v 165.981995 -6.734096 3472.379883
v 164.563995 -6.921567 3421.610107
v 191.899994 -10.150570 3498.929932
v 191.899994 -10.150537 3300.000000
v 149.404999 -7.338562 3386.110107
v 152.539993 -8.485563 3339.439941
v 176.666000 -8.972778 3363.810059
v 147.369995 -6.732815 4017.149902
v 191.899994 -10.150631 3877.459961
v 129.617996 -3.310808 3919.340088
v 187.455002 -10.513537 3299.209961
v 151.440002 -6.058940 4113.270020
v 161.899002 -6.683077 4094.409912
v 164.656006 -6.545513 3516.939941
v 131.285004 -3.859489 3490.370117
v 191.899994 -10.150661 4058.709961
v 189.707993 -10.429538 3300.000000
v 189.957993 -10.274438 3304.260010
v 150.705994 -5.799694 3644.629883
v 141.496994 -6.026449 3431.419922
v 185.690002 -9.860250 4113.270020
v 130.936005 -5.615430 4113.270020
v 189.688995 -10.794736 3290.000000
v 179.156006 -11.136336 3290.000000
v 131.404999 -4.900751 4055.219971
v 130.878998 -7.554925 4023.949951
v 172.098007 -8.030009 4045.969971
v 160.615005 -10.121636 3290.000000
v 191.899994 -10.150599 3680.620117
v 128.733002 -3.913063 3820.550049
v 138.147003 -5.787951 3443.580078
v 130.656998 -6.577401 3998.030029
v 130.296005 -7.198553 4007.770020
v 128.975006 -3.216021 3626.709961
v 128.968002 -3.819430 3928.709961
v 130.410004 -5.643603 3947.810059
v 155.231003 -9.349230 3312.929932
v 157.054001 -9.689318 3302.840088
v 129.942993 -6.158667 3972.649902
v 128.921005 -2.471435 3530.800049
v 130.117996 -2.324532 3510.719971
v 130.863007 -5.798783 3453.409912
vn 0.3757 -0.8779 -0.2970
vn -0.1726 -0.9850 -0.0088
vn 0.0293 -0.9834 0.1790
vn 0.2478 -0.9688 -0.0095
vn -0.1382 -0.9904 0.0075
vn -0.1173 -0.9931 -0.0000
vn -0.0421 -0.9989 0.0217
vn -0.1180 -0.9929 -0.0133
vn 0.2534 -0.9669 0.0294
vn -0.0867 -0.9961 -0.0151
vn -0.1081 -0.9935 0.0353
vn -0.0765 -0.9971 -0.0000
vn 0.0250 -0.9991 0.0349
vn -0.1371 -0.9905 -0.0092
vn -0.0286 -0.9993 0.0239
vn -0.0183 -0.9978 -0.0638
vn -0.1542 -0.9879 0.0186
vn -0.0467 -0.9987 0.0190
vn 0.1262 -0.9916 0.0287
vn -0.0216 -0.9995 0.0211
vn 0.0455 -0.9987 -0.0236
vn 0.7356 -0.5284 0.4238
vn 0.0324 -0.9994 -0.0139
vn -0.0571 -0.9947 0.0854
vn 0.0231 -0.9976 -0.0647
vn 0.0822 -0.9932 0.0823
vn 0.2134 -0.9745 0.0689
vn -0.1709 -0.9799 0.1025
vn -0.0796 -0.9967 -0.0129
vn 0.0500 -0.9892 0.1381
vn -0.0460 -0.9986 0.0255
vn 0.4971 -0.8572 0.1345
vn -0.0930 -0.9954 -0.0212
vn -0.1050 -0.9945 -0.0000
vn -0.0983 -0.9952 -0.0000
vn -0.0389 -0.9992 0.0048
vn 0.0608 -0.9963 -0.0613
vn -0.1064 -0.9943 -0.0037
vn -0.2729 -0.9594 -0.0710
vn 0.0004 -0.9994 0.0338
vn -0.0988 -0.9946 -0.0316
vn 0.0191 -0.9996 -0.0204
vn -0.0858 -0.9963 -0.0000
vn -0.2186 -0.9752 -0.0342
vn -0.1118 -0.9937 -0.0077
vn 0.0099 -0.9998 -0.0168
vn -0.0664 -0.9973 0.0314
vn -0.1129 -0.9936 0.0016
vn 0.0401 -0.9989 -0.0234
vn -0.0083 -0.9995 0.0317
vn -0.1329 -0.9889 0.0670
vn 0.0709 -0.9962 0.0515
vn -0.0073 -0.9996 0.0291
vn -0.0373 -0.9989 0.0276
vn 0.0949 -0.9946 0.0429
vn 0.8846 -0.1812 -0.4298
vn -0.1159 -0.9932 -0.0069
vn -0.1188 -0.9928 -0.0143
vn 0.2911 -0.9528 -0.0862
vn -0.0345 -0.9994 0.0101
vn -0.3136 -0.9166 0.2480
vn -0.0546 -0.9981 0.0274
vn -0.1045 -0.9945 0.0070
usemtl None
s off
f 1//1 2//1 3//1
f 4//2 3//2 2//2
f 5//3 7//3 6//3
f 8//4 6//4 7//4
f 9//5 10//5 11//5
f 12//6 11//6 10//6
f 13//7 14//7 15//7
f 16//8 18//8 17//8
f 8//9 7//9 19//9
f 4//10 20//10 21//10
f 22//11 23//11 11//11
f 24//12 16//12 17//12
f 25//13 26//13 19//13
f 22//14 11//14 27//14
f 10//15 28//15 13//15
f 5//16 19//16 7//16
f 2//17 29//17 4//17
f 1//18 29//18 2//18
f 25//19 12//19 26//19
f 21//20 20//20 30//20
f 19//21 5//21 25//21
f 31//22 6//22 8//22
f 31//23 8//23 32//23
f 33//24 34//24 35//24
f 16//25 35//25 34//25
f 5//26 6//26 31//26
f 12//27 15//27 26//27
f 35//28 16//28 24//28
f 30//29 33//29 35//29
f 21//30 30//30 24//30
f 15//31 14//31 36//31
f 12//32 10//32 15//32
f 35//33 24//33 30//33
f 27//34 11//34 37//34
f 37//35 17//35 38//35
f 39//36 10//36 9//36
f 40//37 16//37 41//37
f 38//38 42//38 37//38
f 43//39 18//39 44//39
f 45//40 46//40 36//40
f 9//41 11//41 23//41
f 16//42 47//42 44//42
f 24//43 1//43 3//43
f 24//44 3//44 4//44
f 48//45 27//45 42//45
f 40//46 47//46 16//46
f 39//47 9//47 23//47
f 21//48 24//48 4//48
f 41//49 16//49 34//49
f 45//50 36//50 14//50
f 49//51 23//51 22//51
f 50//52 39//52 23//52
f 8//53 15//53 32//53
f 15//54 10//54 13//54
f 26//55 15//55 8//55
f 26//56 8//56 19//56
f 22//57 27//57 48//57
f 22//58 48//58 49//58
f 16//59 44//59 18//59
f 39//60 28//60 10//60
f 37//61 42//61 27//61
f 36//62 32//62 15//62
f 17//63 18//63 38//63
