# Blender v2.79 (sub 0) OBJ File: ''
# www.blender.org
mtllib my_crack_surf1_120.mtl
o my_crack_surf1_120
v 191.899994 -10.150670 4113.270020
v 185.707001 -10.017669 4105.040039
v 181.906998 -9.289927 4098.080078
v 151.440994 -6.055240 4113.270020
v 129.554993 -3.717849 3919.040039
v 160.074005 -6.657554 3828.600098
v 145.725998 -5.795460 3867.770020
v 130.936005 -5.619220 4113.270020
v 131.404999 -4.900751 4055.219971
v 130.875000 -7.481885 4023.979980
v 191.899994 -10.150616 3781.949951
v 128.938995 -3.961730 3928.729980
v 130.445007 -4.570713 3948.169922
v 170.076004 -7.865490 3807.020020
v 179.470993 -8.954378 3794.929932
v 140.069000 -5.552993 3884.679932
v 129.951004 -5.903257 3972.739990
v 163.996002 -6.939732 3818.669922
vn 0.3757 -0.8779 -0.2970
vn -0.1234 -0.9917 -0.0363
vn 0.3383 -0.9299 0.1444
vn -0.0757 -0.9970 -0.0130
vn -0.1005 -0.9931 0.0596
vn -0.0210 -0.9856 0.1678
vn -0.1568 -0.9841 0.0840
vn -0.1220 -0.9925 -0.0089
vn -0.0376 -0.9993 0.0015
vn -0.0436 -0.9987 -0.0279
vn -0.0858 -0.9963 -0.0000
vn -0.0115 -0.9967 0.0808
vn 0.7778 -0.5683 0.2684
vn -0.1551 -0.9876 -0.0242
vn -0.2432 -0.9683 -0.0574
vn -0.3704 -0.9211 -0.1201
vn -0.0861 -0.9962 0.0159
vn -0.1530 -0.9878 -0.0277
usemtl None
s off
f 1//1 2//1 3//1
f 4//2 3//2 2//2
f 5//3 7//3 6//3
f 8//4 9//4 3//4
f 2//5 1//5 4//5
f 3//6 4//6 8//6
f 9//7 10//7 3//7
f 11//8 5//8 6//8
f 3//9 10//9 11//9
f 12//10 5//10 13//10
f 11//11 1//11 3//11
f 14//12 15//12 11//12
f 5//13 16//13 7//13
f 13//14 5//14 11//14
f 13//15 11//15 17//15
f 18//16 14//16 6//16
f 11//17 6//17 14//17
f 17//18 11//18 10//18
