# Blender v2.79 (sub 0) OBJ File: ''
# www.blender.org
mtllib my_crack_surf1_40.mtl
o my_crack_surf1_40
v 191.899994 -10.150670 4113.270020
v 191.899994 -10.150642 3944.840088
v 165.498001 -6.944250 4113.270020
v 130.934998 -5.699670 4113.270020
v 131.201996 -5.247828 4100.750000
v 139.199005 -5.649278 4098.970215
v 144.128006 -6.015666 4089.860107
v 175.992004 -8.837234 3956.750000
v 150.108002 -6.272901 4053.250000
v 161.160995 -7.658430 3989.449951
v 149.951996 -6.472102 4061.050049
vn 0.1206 0.9927 0.0000
vn 0.0584 0.9976 0.0372
vn 0.0549 0.9984 -0.0105
vn 0.0782 0.9969 -0.0055
vn 0.0730 0.9973 -0.0076
vn 0.0360 0.9991 0.0243
vn 0.0511 0.9986 -0.0128
vn -0.0518 0.9984 0.0245
vn 0.0497 0.9987 -0.0058
usemtl None
s off
f 1//1 2//1 3//1
f 4//2 6//2 5//2
f 7//3 6//3 3//3
f 2//4 8//4 9//4
f 3//5 2//5 9//5
f 3//6 6//6 4//6
f 10//7 9//7 8//7
f 3//8 9//8 11//8
f 11//9 7//9 3//9
