# Blender v2.79 (sub 0) OBJ File: ''
# www.blender.org
mtllib my_crack_surf1_440.mtl
o my_crack_surf1_440
v 134.108002 -4.400572 3570.989990
v 191.899994 -10.150595 3650.340088
v 181.645996 -9.282410 3492.949951
v 151.440002 -6.058940 4113.270020
v 131.404999 -4.900751 4055.219971
v 130.936005 -5.615430 4113.270020
v 191.899994 -10.150670 4113.270020
v 185.707001 -10.017669 4105.040039
v 181.906998 -9.289927 4098.080078
v 173.794006 -8.003150 4113.270020
v 128.960007 -3.352031 3626.790039
v 184.723007 -9.195320 3870.879883
v 191.899994 -10.150665 4085.100098
v 184.725998 -9.392054 3886.040039
v 191.899994 -10.150558 3421.449951
v 181.195007 -9.079106 3477.419922
v 172.899002 -8.642469 3436.479980
v 130.298004 -7.242493 4007.750000
v 130.444000 -6.218330 3990.260010
v 129.945999 -6.076797 3972.679932
v 185.690002 -9.860240 4113.270020
v 130.878998 -7.558075 4023.949951
v 128.731995 -3.920253 3820.550049
v 128.966003 -3.830340 3928.709961
v 129.617996 -3.311848 3919.330078
v 130.410004 -5.642443 3947.810059
v 145.806000 -5.136704 3522.840088
v 128.733994 -4.108174 3586.449951
v 155.354996 -6.122918 3486.679932
v 158.671005 -6.028716 3470.689941
vn -0.1004 -0.9949 0.0011
vn -0.0216 -0.9997 -0.0125
vn 0.3757 -0.8779 -0.2970
vn -0.1726 -0.9849 -0.0087
vn -0.1105 -0.9938 0.0085
vn -0.1319 -0.9913 -0.0000
vn 0.2477 -0.9687 -0.0126
vn -0.0866 -0.9962 0.0019
vn -0.0755 -0.9971 0.0047
vn -0.0996 -0.9950 -0.0000
vn 0.2053 -0.9785 -0.0188
vn -0.1708 -0.9835 -0.0590
vn -0.0699 -0.9975 -0.0060
vn -0.1542 -0.9879 0.0186
vn -0.0467 -0.9987 0.0190
vn -0.3033 -0.9490 0.0858
vn -0.0949 -0.9955 0.0012
vn -0.1052 -0.9945 -0.0000
vn -0.1063 -0.9943 -0.0030
vn -0.2626 -0.9623 -0.0714
vn -0.1280 -0.9916 -0.0159
vn -0.0005 -0.9998 0.0187
vn -0.0848 -0.9964 -0.0006
vn -0.0100 -0.9999 0.0132
vn 0.1834 -0.9827 -0.0257
vn -0.1183 -0.9930 -0.0042
vn -0.1548 -0.9850 -0.0763
vn -0.0904 -0.9957 -0.0191
vn -0.1054 -0.9944 0.0071
vn -0.1597 -0.9872 -0.0016
vn -0.1394 -0.9901 0.0177
vn -0.1124 -0.9932 -0.0292
vn -0.1315 -0.9913 -0.0092
vn -0.0823 -0.9965 -0.0129
usemtl None
s off
f 1//1 3//1 2//1
f 4//2 6//2 5//2
f 7//3 8//3 9//3
f 10//4 9//4 8//4
f 2//5 11//5 1//5
f 2//6 13//6 12//6
f 13//7 14//7 12//7
f 4//8 14//8 10//8
f 15//9 16//9 17//9
f 15//10 2//10 16//10
f 2//11 3//11 16//11
f 18//12 19//12 14//12
f 14//13 19//13 20//13
f 8//14 21//14 10//14
f 7//15 21//15 8//15
f 5//16 22//16 4//16
f 2//17 12//17 23//17
f 14//18 13//18 7//18
f 11//19 2//19 23//19
f 24//20 25//20 26//20
f 3//21 1//21 27//21
f 11//22 28//22 1//22
f 14//23 7//23 9//23
f 4//24 18//24 14//24
f 18//25 4//25 22//25
f 27//26 29//26 3//26
f 14//27 26//27 25//27
f 14//28 20//28 26//28
f 14//29 25//29 23//29
f 14//30 9//30 10//30
f 16//31 30//31 17//31
f 3//32 29//32 30//32
f 3//33 30//33 16//33
f 14//34 23//34 12//34
