# Blender v2.79 (sub 0) OBJ File: ''
# www.blender.org
mtllib my_crack_surf1_310.mtl
o my_crack_surf1_310
v 128.852005 -3.533611 3874.969971
v 191.899994 -10.150619 3801.750000
v 128.914001 -3.942580 3684.709961
v 191.899994 -10.150670 4113.270020
v 180.195999 -8.970808 4038.510010
v 170.949005 -7.610275 4081.580078
v 130.936005 -5.615430 4113.270020
v 147.369995 -6.732815 4017.149902
v 130.444000 -6.218340 3990.260010
v 148.371002 -4.713903 3643.699951
v 168.100006 -7.781266 3659.719971
v 171.162994 -6.995057 3600.520020
v 151.440002 -6.058920 4113.270020
v 131.404999 -4.900751 4055.219971
v 130.878998 -7.558075 4023.949951
v 161.537994 -7.168446 4026.110107
v 181.660995 -9.420224 3589.159912
v 191.899994 -10.150583 3585.090088
v 130.298004 -7.242493 4007.750000
v 128.964996 -3.834960 3928.709961
v 129.617996 -3.312388 3919.330078
v 130.408997 -5.655053 3947.810059
v 142.761993 -4.906418 3669.469971
v 154.850998 -4.774101 3625.540039
vn 0.1020 0.9948 -0.0021
vn 0.1266 0.9919 -0.0042
vn 0.0299 0.9992 -0.0251
vn 0.0418 0.9991 -0.0072
vn 0.1375 0.9903 0.0203
vn 0.0216 0.9991 -0.0356
vn 0.0537 0.9949 -0.0854
vn -0.0042 0.9939 0.1105
vn -0.4851 0.3838 0.7858
vn 0.0963 0.9954 -0.0002
vn 0.1003 0.9950 0.0000
vn 0.0875 0.9961 0.0130
vn -0.0208 0.9737 -0.2271
vn -0.0616 0.9964 0.0578
vn 0.2622 0.9623 0.0719
vn 0.0360 0.9993 -0.0084
vn -0.0414 0.9989 0.0209
vn 0.0968 0.9953 -0.0066
vn 0.2436 0.9671 0.0728
vn 0.1039 0.9945 0.0131
vn 0.1504 0.9886 0.0000
vn 0.1259 0.9914 0.0348
vn 0.0801 0.9967 0.0098
vn 0.1119 0.9937 -0.0022
vn 0.2768 0.9561 0.0956
vn 0.0155 0.9998 0.0141
vn 0.1006 0.9948 0.0132
usemtl None
s off
f 1//1 2//1 3//1
f 4//2 5//2 6//2
f 7//3 6//3 5//3
f 8//4 2//4 9//4
f 10//5 11//5 12//5
f 6//6 7//6 13//6
f 14//7 5//7 15//7
f 8//8 15//8 5//8
f 8//9 5//9 16//9
f 16//10 5//10 2//10
f 5//11 4//11 2//11
f 7//12 5//12 14//12
f 17//13 12//13 18//13
f 19//14 8//14 9//14
f 20//15 22//15 21//15
f 16//16 2//16 8//16
f 19//17 15//17 8//17
f 1//18 21//18 2//18
f 2//19 21//19 22//19
f 2//20 22//20 9//20
f 12//21 2//21 18//21
f 23//22 11//22 10//22
f 23//23 3//23 2//23
f 23//24 2//24 11//24
f 24//25 10//25 12//25
f 2//26 12//26 11//26
f 4//27 6//27 13//27
