# Blender v2.79 (sub 0) OBJ File: ''
# www.blender.org
mtllib my_crack_surf1_130.mtl
o my_crack_surf1_130
v 191.899994 -10.150613 3763.699951
v 167.703995 -7.472803 3886.830078
v 191.899994 -10.150665 4085.100098
v 131.404999 -4.900751 4055.219971
v 130.936005 -5.617940 4113.270020
v 176.751007 -8.948828 3972.770020
v 130.876999 -7.522746 4023.959961
v 171.957993 -7.750217 3789.939941
v 165.576996 -7.060589 3801.800049
v 155.582993 -6.117234 3826.870117
v 151.440994 -6.055850 4113.270020
v 191.899994 -10.150670 4113.270020
v 129.947998 -6.006277 3972.699951
v 129.789993 -4.263110 3928.409912
v 130.237000 -4.354698 3915.830078
v 131.182999 -5.388913 3945.969971
v 130.257004 -5.250745 3898.870117
v 136.977997 -5.491153 3884.689941
vn -0.1100 -0.9939 -0.0000
vn -0.1127 -0.9935 -0.0132
vn 0.0610 -0.9947 0.0824
vn -0.1456 -0.9891 -0.0208
vn -0.0213 -0.9996 0.0167
vn 0.2136 -0.9761 -0.0393
vn -0.0791 -0.9969 -0.0000
vn -0.1106 -0.9939 -0.0001
vn -0.0627 -0.9976 -0.0284
vn -0.5278 -0.8492 -0.0126
vn -0.1476 -0.9888 -0.0217
vn -0.1007 -0.9949 0.0023
vn -0.0889 -0.9960 -0.0077
vn -0.0589 -0.9977 -0.0324
vn -0.0627 -0.9977 -0.0259
vn 0.0756 -0.9957 0.0527
vn -0.0659 -0.9976 0.0221
vn -0.0637 -0.9979 -0.0097
usemtl None
s off
f 1//1 3//1 2//1
f 4//2 6//2 5//2
f 4//3 7//3 6//3
f 8//4 10//4 9//4
f 11//5 5//5 6//5
f 2//6 3//6 6//6
f 6//7 3//7 12//7
f 10//8 1//8 2//8
f 7//9 13//9 6//9
f 14//10 15//10 16//10
f 10//11 8//11 1//11
f 6//12 12//12 11//12
f 2//13 6//13 15//13
f 16//14 15//14 6//14
f 16//15 6//15 13//15
f 17//16 18//16 15//16
f 2//17 15//17 18//17
f 2//18 18//18 10//18
