# Blender v2.79 (sub 0) OBJ File: ''
# www.blender.org
mtllib my_crack_surf1_205.mtl
o my_crack_surf1_205
v 153.908005 -6.398184 4074.580078
v 131.404999 -4.900751 4055.219971
v 130.936005 -5.615480 4113.270020
v 191.899994 -10.150670 4113.270020
v 185.707001 -10.017669 4105.040039
v 181.906998 -9.289927 4098.080078
v 173.794006 -8.002440 4113.270020
v 143.927002 -6.187802 4064.290039
v 128.695007 -5.037637 3784.100098
v 129.615005 -3.328309 3919.320068
v 140.781006 -5.640553 3768.159912
v 191.899994 -10.150663 4073.399902
v 129.945999 -6.077107 3972.679932
v 130.444000 -6.218300 3990.260010
v 151.440002 -6.058510 4113.270020
v 130.878998 -7.558006 4023.949951
v 191.899994 -10.150599 3675.429932
v 128.964005 -3.839450 3928.709961
v 130.408997 -5.655783 3947.810059
v 170.052994 -7.508992 3697.689941
vn -0.0555 -0.9984 -0.0127
vn 0.3757 -0.8779 -0.2970
vn -0.1727 -0.9849 -0.0087
vn -0.2748 -0.9291 0.2476
vn -0.0329 -0.9994 0.0129
vn -0.0552 -0.9985 -0.0065
vn -0.1175 -0.9904 0.0724
vn -0.0216 -0.9997 0.0074
vn -0.1635 -0.9828 0.0863
vn -0.0879 -0.9961 -0.0000
vn -0.0958 -0.9927 0.0726
vn 0.2308 -0.9721 -0.0416
vn -0.5798 -0.8140 -0.0335
vn -0.9953 -0.0648 -0.0725
vn -0.0858 -0.9963 -0.0000
vn -0.0853 -0.9962 0.0160
vn -0.3956 -0.9181 -0.0229
vn -0.0866 -0.9962 0.0032
vn -0.1606 -0.9862 -0.0405
vn -0.3579 -0.9270 -0.1126
vn -0.0980 -0.9951 0.0091
vn -0.0572 -0.9983 -0.0052
usemtl None
s off
f 1//1 3//1 2//1
f 4//2 5//2 6//2
f 7//3 6//3 5//3
f 2//4 8//4 1//4
f 9//5 11//5 10//5
f 12//6 14//6 13//6
f 5//7 4//7 7//7
f 1//8 15//8 3//8
f 2//9 16//9 8//9
f 11//10 17//10 12//10
f 12//11 1//11 8//11
f 16//12 14//12 8//12
f 18//13 11//13 19//13
f 18//14 10//14 11//14
f 12//15 4//15 6//15
f 12//16 8//16 14//16
f 11//17 13//17 19//17
f 7//18 15//18 1//18
f 17//19 11//19 20//19
f 12//20 6//20 7//20
f 1//21 12//21 7//21
f 12//22 13//22 11//22
