# Blender v2.79 (sub 0) OBJ File: ''
# www.blender.org
mtllib my_crack_surf1_430.mtl
o my_crack_surf1_430
v 151.440002 -6.058940 4113.270020
v 131.404999 -4.900751 4055.219971
v 130.936005 -5.615430 4113.270020
v 178.841003 -8.836352 3757.209961
v 178.841003 -8.348339 3742.120117
v 128.953995 -3.401241 3626.820068
v 191.899994 -10.150670 4113.270020
v 185.707001 -10.017669 4105.040039
v 181.906998 -9.289927 4098.080078
v 128.854004 -4.080918 3609.919922
v 191.899994 -10.150561 3447.850098
v 184.723007 -9.195320 3870.879883
v 191.899994 -10.150665 4085.100098
v 184.725998 -9.392054 3886.040039
v 178.462997 -8.894974 3460.030029
v 154.399994 -5.738492 3507.840088
v 130.298004 -7.242493 4007.750000
v 130.444000 -6.218330 3990.260010
v 130.878998 -7.558075 4023.949951
v 128.731995 -3.920253 3820.550049
v 128.966003 -3.830680 3928.709961
v 129.617996 -3.311949 3919.330078
v 130.410004 -5.642673 3947.810059
v 150.856003 -5.721425 3525.489990
v 146.921997 -4.817747 3541.709961
v 171.046997 -7.680006 3471.840088
v 138.709000 -4.876462 3569.340088
v 128.709000 -4.369385 3587.209961
vn -0.0216 -0.9997 -0.0125
vn -0.0244 -0.9992 -0.0323
vn 0.3757 -0.8779 -0.2970
vn -0.1233 -0.9917 -0.0364
vn -0.1910 -0.9807 0.0406
vn -0.1319 -0.9913 -0.0000
vn 0.2477 -0.9687 -0.0126
vn -0.0616 -0.9975 0.0348
vn -0.1708 -0.9835 -0.0590
vn -0.1153 -0.9933 0.0010
vn -0.1004 -0.9932 0.0595
vn -0.3033 -0.9490 0.0858
vn -0.0954 -0.9954 0.0018
vn -0.1052 -0.9945 -0.0000
vn -0.1011 -0.9949 -0.0028
vn -0.2624 -0.9623 -0.0715
vn -0.0396 -0.9992 -0.0070
vn -0.1795 -0.9837 0.0113
vn -0.0848 -0.9964 -0.0006
vn -0.2827 -0.9559 -0.0792
vn -0.0100 -0.9999 0.0132
vn 0.1834 -0.9827 -0.0257
vn -0.0277 -0.9995 0.0129
vn -0.1548 -0.9850 -0.0763
vn -0.0841 -0.9964 -0.0134
vn -0.0786 -0.9969 0.0009
vn -0.6548 -0.7554 -0.0244
vn -0.1054 -0.9944 0.0071
vn 0.3688 -0.9232 0.1077
vn -0.0669 -0.9977 -0.0069
vn -0.1059 -0.9944 -0.0009
vn -0.0823 -0.9965 -0.0129
usemtl None
s off
f 1//1 3//1 2//1
f 4//2 6//2 5//2
f 7//3 8//3 9//3
f 1//4 9//4 8//4
f 5//5 6//5 10//5
f 11//6 13//6 12//6
f 13//7 14//7 12//7
f 11//8 16//8 15//8
f 17//9 18//9 14//9
f 5//10 16//10 11//10
f 8//11 7//11 1//11
f 2//12 19//12 1//12
f 20//13 4//13 12//13
f 14//14 13//14 7//14
f 20//15 6//15 4//15
f 21//16 22//16 23//16
f 5//17 24//17 16//17
f 5//18 25//18 24//18
f 14//19 7//19 9//19
f 16//20 26//20 15//20
f 1//21 17//21 14//21
f 17//22 1//22 19//22
f 27//23 10//23 28//23
f 14//24 23//24 22//24
f 14//25 18//25 23//25
f 4//26 11//26 12//26
f 4//27 5//27 11//27
f 14//28 22//28 20//28
f 10//29 27//29 25//29
f 10//30 25//30 5//30
f 14//31 9//31 1//31
f 14//32 20//32 12//32
