# Blender v2.79 (sub 0) OBJ File: ''
# www.blender.org
mtllib my_crack_surf1_190.mtl
o my_crack_surf1_190
v 191.899994 -10.150670 4113.270020
v 185.707001 -10.017669 4105.040039
v 181.906998 -9.289927 4098.080078
v 151.440002 -6.058290 4113.270020
v 130.444000 -6.218170 3990.260010
v 191.899994 -10.150631 3877.459961
v 130.408997 -5.656073 3947.810059
v 139.313995 -5.230762 3814.209961
v 129.330002 -4.836845 3838.679932
v 130.878998 -7.557846 4023.949951
v 131.404999 -4.900751 4055.219971
v 130.936005 -5.615560 4113.270020
v 130.298004 -7.242213 4007.750000
v 128.962997 -3.842760 3928.709961
v 129.613007 -3.343678 3919.310059
v 128.897003 -3.659131 3875.310059
v 166.190002 -7.146138 3732.620117
v 151.987000 -6.061084 3770.100098
v 155.755997 -6.176921 3753.000000
v 143.389999 -5.634389 3797.860107
v 191.899994 -10.150603 3707.179932
v 171.776993 -7.696766 3723.639893
vn 0.3757 -0.8779 -0.2970
vn -0.1233 -0.9917 -0.0364
vn -0.0878 -0.9961 -0.0131
vn -0.0755 -0.9970 -0.0148
vn -0.1325 -0.9905 -0.0377
vn -0.1005 -0.9932 0.0595
vn -0.3033 -0.9490 0.0857
vn -0.0216 -0.9997 -0.0125
vn 0.6617 -0.7488 -0.0383
vn -0.1644 -0.9831 -0.0809
vn -0.1500 -0.9867 -0.0628
vn -0.1035 -0.9942 0.0307
vn -0.0858 -0.9963 -0.0000
vn -0.0889 -0.9960 -0.0049
vn -0.1385 -0.9901 -0.0238
vn -0.0014 -0.9999 0.0171
vn -0.1028 -0.9947 0.0088
vn -0.0782 -0.9969 -0.0089
vn -0.1161 -0.9932 -0.0000
vn -0.0944 -0.9955 0.0010
vn -0.1446 -0.9891 -0.0293
vn -0.1059 -0.9944 -0.0009
usemtl None
s off
f 1//1 2//1 3//1
f 4//2 3//2 2//2
f 5//3 7//3 6//3
f 8//4 6//4 9//4
f 10//5 5//5 6//5
f 2//6 1//6 4//6
f 11//7 10//7 4//7
f 4//8 12//8 11//8
f 13//9 5//9 10//9
f 14//10 6//10 7//10
f 14//11 15//11 6//11
f 16//12 9//12 6//12
f 6//13 1//13 3//13
f 17//14 6//14 18//14
f 17//15 18//15 19//15
f 6//16 4//16 10//16
f 16//17 6//17 15//17
f 20//18 18//18 6//18
f 17//19 21//19 6//19
f 20//20 6//20 8//20
f 21//21 17//21 22//21
f 6//22 3//22 4//22
