# Blender v2.79 (sub 0) OBJ File: ''
# www.blender.org
mtllib my_crack_surf1_230.mtl
o my_crack_surf1_230
v 150.095001 -6.018766 3722.850098
v 161.287994 -6.734821 3686.510010
v 182.080002 -9.234024 3648.760010
v 143.638000 -5.613661 3748.159912
v 191.899994 -10.150670 4113.270020
v 185.707001 -10.017669 4105.040039
v 181.906998 -9.289927 4098.080078
v 173.794006 -8.002810 4113.270020
v 173.742004 -8.259266 3660.739990
v 147.369995 -6.732815 4017.149902
v 130.444000 -6.218340 3990.260010
v 191.899994 -10.150593 3643.300049
v 129.945999 -6.077117 3972.679932
v 131.404999 -4.900751 4055.219971
v 151.440002 -6.058730 4113.270020
v 130.878998 -7.558065 4023.949951
v 130.936005 -5.615440 4113.270020
v 130.298004 -7.242483 4007.750000
v 128.964996 -3.836560 3928.709961
v 129.617004 -3.317789 3919.330078
v 130.408997 -5.655343 3947.810059
v 129.445007 -5.470525 3775.320068
v 128.677994 -4.389440 3802.689941
vn -0.1880 -0.9814 -0.0386
vn -0.1532 -0.9879 -0.0233
vn 0.3757 -0.8779 -0.2970
vn -0.1726 -0.9849 -0.0087
vn -0.1039 -0.9946 0.0087
vn -0.0377 -0.9993 0.0046
vn -0.0938 -0.9956 -0.0053
vn -0.1175 -0.9904 0.0724
vn -0.0866 -0.9962 0.0100
vn -0.1898 -0.9780 0.0863
vn 0.0400 -0.9989 -0.0242
vn -0.0216 -0.9997 -0.0125
vn 0.0616 -0.9964 -0.0578
vn -0.2645 -0.9617 -0.0716
vn -0.0858 -0.9963 -0.0000
vn 0.0414 -0.9989 -0.0209
vn -0.0566 -0.9984 0.0024
vn -0.3876 -0.9196 -0.0647
vn -0.1705 -0.9852 -0.0199
vn 0.0690 -0.9968 0.0413
vn -0.1597 -0.9872 -0.0016
vn -0.1234 -0.9923 -0.0116
vn -0.0936 -0.9956 -0.0011
vn -0.0665 -0.9977 0.0097
usemtl None
s off
f 1//1 2//1 3//1
f 4//2 1//2 3//2
f 5//3 6//3 7//3
f 8//4 7//4 6//4
f 3//5 2//5 9//5
f 10//6 11//6 12//6
f 12//7 11//7 13//7
f 6//8 5//8 8//8
f 8//9 15//9 14//9
f 14//10 16//10 8//10
f 10//11 8//11 16//11
f 15//12 17//12 14//12
f 18//13 11//13 10//13
f 19//14 20//14 21//14
f 12//15 5//15 7//15
f 18//16 10//16 16//16
f 12//17 8//17 10//17
f 12//18 21//18 20//18
f 12//19 13//19 21//19
f 22//20 4//20 23//20
f 12//21 7//21 8//21
f 23//22 4//22 3//22
f 12//23 23//23 3//23
f 12//24 20//24 23//24
