# Blender v2.79 (sub 0) OBJ File: ''
# www.blender.org
mtllib my_crack_surf1_165.mtl
o my_crack_surf1_165
v 191.899994 -10.150670 4113.270020
v 145.378006 -6.423729 3985.199951
v 176.751007 -8.948828 3972.770020
v 147.470001 -5.761683 3818.129883
v 128.848007 -4.961147 3848.770020
v 130.444000 -6.216940 3990.260010
v 181.906998 -9.289927 4098.080078
v 151.440994 -6.057670 4113.270020
v 131.404999 -4.900751 4055.219971
v 130.878998 -7.556386 4023.949951
v 130.936005 -5.615870 4113.270020
v 152.584000 -6.188799 3801.850098
v 191.899994 -10.150609 3737.860107
v 128.964996 -3.835540 3928.709961
v 130.408997 -5.655883 3947.810059
v 129.602997 -3.406419 3919.270020
v 169.796997 -7.855222 3755.610107
v 180.522995 -8.890740 3743.939941
v 154.901001 -6.468237 3789.500000
v 159.292007 -6.843085 3775.669922
vn -0.0802 -0.9968 0.0001
vn -0.0585 -0.9982 -0.0095
vn 0.2405 -0.6333 0.7356
vn -0.1006 -0.9949 0.0098
vn -0.3031 -0.9491 0.0857
vn 0.0759 -0.9971 -0.0007
vn -0.0215 -0.9997 -0.0125
vn -0.0926 -0.9957 -0.0030
vn -0.0272 -0.9989 -0.0394
vn -0.0791 -0.9969 -0.0000
vn -0.0205 -0.9954 -0.0933
vn -0.0611 -0.9969 -0.0494
vn -0.0932 -0.9956 0.0049
vn -0.1428 -0.9895 0.0234
vn -0.0638 -0.9979 -0.0131
vn -0.1235 -0.9920 -0.0254
vn -0.1046 -0.9945 -0.0017
vn -0.1017 -0.9948 0.0077
vn -0.1170 -0.9931 0.0005
vn -0.1125 -0.9936 -0.0088
vn -0.0970 -0.9953 -0.0019
usemtl None
s off
f 1//1 2//1 3//1
f 4//2 3//2 5//2
f 3//3 2//3 6//3
f 7//4 1//4 8//4
f 9//5 10//5 8//5
f 2//6 8//6 10//6
f 8//7 11//7 9//7
f 12//8 3//8 4//8
f 10//9 6//9 2//9
f 1//10 3//10 13//10
f 14//11 3//11 15//11
f 14//12 16//12 3//12
f 2//13 1//13 7//13
f 5//14 3//14 16//14
f 3//15 6//15 15//15
f 13//16 17//16 18//16
f 13//17 3//17 17//17
f 2//18 7//18 8//18
f 12//19 19//19 3//19
f 17//20 19//20 20//20
f 19//21 17//21 3//21
