# Blender v2.79 (sub 0) OBJ File: ''
# www.blender.org
mtllib my_crack_surf1_200.mtl
o my_crack_surf1_200
v 191.899994 -10.150670 4113.270020
v 185.707001 -10.017669 4105.040039
v 181.906998 -9.289927 4098.080078
v 151.440002 -6.058430 4113.270020
v 131.404999 -4.900751 4055.219971
v 130.878998 -7.557966 4023.949951
v 191.899994 -10.150601 3695.209961
v 130.298004 -7.242363 4007.750000
v 130.936005 -5.615510 4113.270020
v 128.964005 -3.840640 3928.709961
v 145.513000 -5.868650 3867.649902
v 130.408997 -5.655923 3947.810059
v 129.615005 -3.333239 3919.320068
v 153.634003 -6.125412 3751.659912
v 146.822998 -5.939644 3769.580078
v 130.444000 -6.218270 3990.260010
v 128.839005 -3.628191 3875.000000
v 128.645996 -5.448549 3802.729980
v 128.688004 -5.098486 3785.360107
v 163.201996 -7.088747 3722.739990
v 179.753006 -8.791613 3700.020020
vn 0.3757 -0.8779 -0.2970
vn -0.1233 -0.9917 -0.0364
vn -0.1005 -0.9932 0.0595
vn 0.3549 -0.9320 0.0732
vn -0.1226 -0.9923 -0.0149
vn -0.1658 -0.9861 -0.0135
vn -0.0216 -0.9997 0.0077
vn -0.3463 -0.9360 -0.0628
vn -0.3959 -0.9151 -0.0769
vn -0.0858 -0.9963 -0.0000
vn -0.0263 -0.9997 0.0004
vn -0.4366 -0.8979 -0.0562
vn -0.1222 -0.9922 0.0253
vn -0.1293 -0.9916 0.0089
vn -0.0837 -0.9964 -0.0131
vn 0.0521 -0.9984 -0.0200
vn -0.0462 -0.9989 0.0001
vn -0.1148 -0.9934 -0.0091
vn -0.1057 -0.9944 -0.0005
vn -0.1088 -0.9941 -0.0029
vn -0.1129 -0.9936 -0.0057
vn -0.2110 -0.9770 -0.0325
usemtl None
s off
f 1//1 2//1 3//1
f 4//2 3//2 2//2
f 2//3 1//3 4//3
f 5//4 6//4 7//4
f 8//5 7//5 6//5
f 9//6 5//6 7//6
f 4//7 9//7 7//7
f 10//8 11//8 12//8
f 10//9 13//9 11//9
f 7//10 1//10 3//10
f 14//11 11//11 15//11
f 11//12 8//12 16//12
f 17//13 18//13 11//13
f 17//14 11//14 13//14
f 11//15 16//15 12//15
f 19//16 11//16 18//16
f 19//17 15//17 11//17
f 20//18 21//18 7//18
f 7//19 3//19 4//19
f 14//20 20//20 7//20
f 11//21 14//21 7//21
f 11//22 7//22 8//22
