# Blender v2.79 (sub 0) OBJ File: ''
# www.blender.org
mtllib my_crack_surf1_400.mtl
o my_crack_surf1_400
v 191.899994 -10.150670 4113.270020
v 185.707001 -10.017669 4105.040039
v 181.906998 -9.289927 4098.080078
v 151.440002 -6.058940 4113.270020
v 191.899994 -10.150595 3650.340088
v 184.723007 -9.195320 3870.879883
v 191.899994 -10.150661 4058.709961
v 184.725998 -9.392054 3886.040039
v 128.731995 -3.920293 3820.550049
v 128.917999 -3.702521 3625.709961
v 156.962997 -6.766381 4059.110107
v 130.444000 -6.218340 3990.260010
v 130.878998 -7.558075 4023.949951
v 145.378006 -6.423729 3985.199951
v 131.404999 -4.900751 4055.219971
v 130.936005 -5.615430 4113.270020
v 165.567001 -7.295143 3516.929932
v 145.634003 -5.261782 3572.409912
v 179.348007 -9.431919 3491.919922
v 191.899994 -10.150567 3482.570068
v 130.298004 -7.242493 4007.750000
v 128.964996 -3.834910 3928.709961
v 129.617996 -3.312228 3919.330078
v 130.408997 -5.655043 3947.810059
v 154.580002 -5.624568 3544.959961
v 137.309006 -4.625449 3616.169922
v 140.537994 -4.949114 3584.139893
vn 0.3757 -0.8779 -0.2970
vn -0.1233 -0.9917 -0.0364
vn -0.1319 -0.9913 -0.0000
vn 0.2032 -0.9790 -0.0127
vn -0.1014 -0.9948 -0.0012
vn -0.0964 -0.9953 0.0032
vn -0.0271 -0.9989 -0.0394
vn -0.8788 -0.3361 -0.3387
vn -0.0709 -0.9974 -0.0129
vn -0.2463 -0.9678 -0.0530
vn -0.0271 -0.9988 0.0404
vn -0.0042 -0.9996 0.0283
vn -0.1004 -0.9932 0.0595
vn -0.0409 -0.9992 -0.0027
vn -0.0855 -0.9926 0.0858
vn -0.0949 -0.9912 0.0928
vn -0.0216 -0.9997 0.0109
vn 0.6618 -0.7487 -0.0383
vn -0.2622 -0.9623 -0.0719
vn -0.5658 -0.8060 -0.1738
vn -0.0858 -0.9963 -0.0000
vn -0.1051 -0.9945 -0.0000
vn -0.0981 -0.9952 -0.0042
vn -0.1550 -0.9849 -0.0767
vn -0.0835 -0.9964 -0.0132
vn -0.1038 -0.9946 0.0050
vn -0.0495 -0.9988 0.0051
vn -0.0949 -0.9955 0.0012
vn -0.1054 -0.9944 0.0071
vn -0.1083 -0.9941 -0.0058
vn -0.0823 -0.9965 -0.0129
usemtl None
s off
f 1//1 2//1 3//1
f 4//2 3//2 2//2
f 5//3 7//3 6//3
f 7//4 8//4 6//4
f 9//5 10//5 5//5
f 4//6 11//6 7//6
f 12//7 14//7 13//7
f 13//8 14//8 8//8
f 15//9 11//9 16//9
f 17//10 19//10 18//10
f 18//11 19//11 20//11
f 8//12 14//12 12//12
f 2//13 1//13 4//13
f 7//14 13//14 8//14
f 15//15 13//15 11//15
f 11//16 13//16 7//16
f 4//17 16//17 11//17
f 21//18 12//18 13//18
f 22//19 23//19 24//19
f 17//20 18//20 25//20
f 7//21 1//21 3//21
f 5//22 18//22 20//22
f 18//23 5//23 26//23
f 8//24 24//24 23//24
f 8//25 12//25 24//25
f 26//26 5//26 10//26
f 27//27 18//27 26//27
f 9//28 5//28 6//28
f 8//29 23//29 9//29
f 7//30 3//30 4//30
f 8//31 9//31 6//31
