# Blender v2.79 (sub 0) OBJ File: ''
# www.blender.org
mtllib my_crack_surf1_375.mtl
o my_crack_surf1_375
v 178.841003 -8.836352 3757.209961
v 178.841003 -8.348339 3742.120117
v 128.731995 -3.920382 3820.550049
v 191.899994 -10.150575 3532.219971
v 152.550003 -5.817756 3596.870117
v 139.649994 -4.965493 3640.780029
v 179.938995 -8.776119 3675.120117
v 130.444000 -6.218340 3990.260010
v 144.725006 -6.430567 3967.659912
v 130.408997 -5.655043 3947.810059
v 147.059006 -6.727672 4002.080078
v 191.899994 -10.150656 4028.870117
v 191.899994 -10.150670 4113.270020
v 131.404999 -4.900751 4055.219971
v 151.440002 -6.058930 4113.270020
v 130.878998 -7.558075 4023.949951
v 130.936005 -5.615430 4113.270020
v 128.964996 -3.834910 3928.709961
v 129.617996 -3.312238 3919.330078
v 171.645996 -7.762688 3547.310059
v 162.985992 -6.755951 3564.699951
v 128.884003 -4.303286 3658.729980
v 140.171005 -5.107258 3674.330078
vn -0.1376 -0.9900 -0.0320
vn -0.1495 -0.9885 -0.0247
vn -0.0802 -0.9968 0.0051
vn -0.0358 -0.9993 -0.0132
vn -0.2813 -0.8907 0.3570
vn -0.0499 -0.9985 -0.0222
vn -0.1006 -0.9948 0.0149
vn 0.1599 -0.9838 0.0809
vn -0.0216 -0.9997 -0.0125
vn -0.0978 -0.9952 -0.0001
vn -0.0024 -0.9992 -0.0397
vn -0.2622 -0.9623 -0.0719
vn -0.0821 -0.9966 0.0101
vn -0.0865 -0.9963 -0.0000
vn -0.1180 -0.9930 -0.0013
vn 0.0365 -0.9959 -0.0829
vn -0.3894 -0.8876 0.2461
vn 0.4964 -0.8676 -0.0281
vn -0.0742 -0.9972 0.0023
vn -0.0919 -0.9958 0.0009
vn -0.0919 -0.9958 0.0019
vn -0.1216 -0.9925 0.0072
vn -0.0480 -0.9988 0.0056
vn -0.1367 -0.9906 -0.0000
vn -0.1041 -0.9946 -0.0026
vn -0.0667 -0.9978 -0.0032
vn -0.1320 -0.9912 -0.0139
usemtl None
s off
f 1//1 3//1 2//1
f 4//2 6//2 5//2
f 2//3 3//3 7//3
f 8//4 10//4 9//4
f 11//5 8//5 12//5
f 12//6 8//6 9//6
f 13//7 15//7 14//7
f 11//8 14//8 16//8
f 15//9 17//9 14//9
f 3//10 1//10 12//10
f 16//11 8//11 11//11
f 18//12 19//12 10//12
f 14//13 11//13 12//13
f 12//14 13//14 14//14
f 20//15 4//15 21//15
f 12//16 10//16 19//16
f 12//17 9//17 10//17
f 1//18 2//18 12//18
f 3//19 22//19 23//19
f 23//20 7//20 3//20
f 23//21 4//21 7//21
f 3//22 12//22 19//22
f 2//23 7//23 4//23
f 12//24 2//24 4//24
f 23//25 6//25 4//25
f 23//26 22//26 6//26
f 21//27 4//27 5//27
