# Blender v2.79 (sub 0) OBJ File: ''
# www.blender.org
mtllib my_crack_surf1_155.mtl
o my_crack_surf1_155
v 161.449005 -6.765316 3785.320068
v 171.210007 -7.158074 3771.110107
v 156.671997 -6.175099 3797.939941
v 191.899994 -10.150656 4028.870117
v 136.115005 -4.884309 3861.989990
v 141.056000 -5.229806 3845.300049
v 149.567001 -5.564603 3822.239990
v 130.408997 -5.666713 3947.800049
v 145.378006 -6.423729 3985.199951
v 130.878998 -7.553446 4023.949951
v 131.404999 -4.900751 4055.219971
v 191.899994 -10.150611 3751.770020
v 155.115997 -6.138000 3808.959961
v 128.944000 -3.933480 3929.010010
v 129.619003 -3.640289 3919.469971
v 129.110992 -3.692855 3900.629883
v 129.645004 -4.143293 3887.909912
v 129.826004 -3.871611 3870.459961
v 177.940002 -8.368693 3763.030029
v 130.936005 -5.616230 4113.270020
v 191.899994 -10.150670 4113.270020
vn -0.0618 0.9956 -0.0699
vn 0.0783 0.9969 0.0053
vn 0.0479 0.9988 -0.0065
vn 0.2922 0.9517 0.0940
vn 0.0974 0.9951 -0.0188
vn -0.0115 0.9996 0.0248
vn -0.2791 0.9572 -0.0765
vn 0.1431 0.9897 0.0000
vn 0.0828 0.9965 0.0083
vn 0.3816 0.9227 0.0554
vn -0.8460 0.3839 -0.3700
vn 0.4276 0.9038 -0.0141
vn 0.0508 0.9986 -0.0159
vn 0.1815 0.9832 0.0172
vn 0.5510 0.8333 0.0442
vn 0.0205 0.9911 -0.1314
vn 0.0742 0.9972 0.0000
vn 0.0559 0.9984 0.0128
vn 0.0921 0.9957 0.0130
vn 0.0844 0.9964 -0.0048
usemtl None
s off
f 1//1 3//1 2//1
f 4//2 2//2 5//2
f 2//3 6//3 5//3
f 2//4 7//4 6//4
f 4//5 8//5 9//5
f 9//6 8//6 10//6
f 9//7 10//7 11//7
f 12//8 2//8 4//8
f 13//9 2//9 3//9
f 14//10 8//10 15//10
f 2//11 13//11 7//11
f 16//12 15//12 17//12
f 5//13 17//13 15//13
f 18//14 17//14 5//14
f 5//15 15//15 8//15
f 19//16 2//16 12//16
f 4//17 20//17 21//17
f 4//18 5//18 8//18
f 11//19 20//19 4//19
f 4//20 9//20 11//20
