# Blender v2.79 (sub 0) OBJ File: ''
# www.blender.org
mtllib my_crack_surf1_45.mtl
o my_crack_surf1_45
v 191.899994 -10.150670 4113.270020
v 164.113998 -7.995607 3970.919922
v 191.899994 -10.150640 3933.050049
v 140.630005 -5.910787 4094.159912
v 131.205002 -5.247878 4100.750000
v 165.485992 -6.969900 4113.270020
v 130.934998 -5.695160 4113.270020
v 150.332993 -6.393169 4049.030029
v 150.751007 -6.656145 4019.320068
v 180.294006 -8.777411 3941.189941
v 157.274002 -6.912471 3995.320068
vn -0.0773 -0.9970 -0.0000
vn -0.0781 -0.9969 -0.0115
vn -0.1174 -0.9752 0.1874
vn -0.0368 -0.9987 -0.0365
vn -0.0955 -0.9954 0.0036
vn -0.0800 -0.9968 -0.0065
vn -0.0717 -0.9974 0.0078
vn -0.1592 -0.9854 -0.0607
vn -0.9380 -0.2375 -0.2524
usemtl None
s off
f 1//1 2//1 3//1
f 1//2 5//2 4//2
f 1//3 6//3 5//3
f 6//4 7//4 5//4
f 8//5 2//5 1//5
f 1//6 4//6 8//6
f 2//7 8//7 9//7
f 2//8 10//8 3//8
f 11//9 2//9 9//9
