# Blender v2.79 (sub 0) OBJ File: ''
# www.blender.org
mtllib my_crack_surf1_445.mtl
o my_crack_surf1_445
v 180.306000 -9.582497 3416.209961
v 191.899994 -10.150555 3405.729980
v 173.906006 -8.610847 3426.800049
v 151.440002 -6.058940 4113.270020
v 131.404999 -4.900751 4055.219971
v 130.936005 -5.615430 4113.270020
v 191.899994 -10.150670 4113.270020
v 185.707001 -10.017669 4105.040039
v 181.906998 -9.289927 4098.080078
v 166.985001 -7.446021 3441.330078
v 191.899994 -10.150575 3529.209961
v 184.723007 -9.195320 3870.879883
v 191.899994 -10.150665 4085.100098
v 184.725998 -9.392054 3886.040039
v 161.332001 -6.482313 3456.139893
v 151.654999 -5.648479 3487.580078
v 130.298004 -7.242493 4007.750000
v 130.444000 -6.218320 3990.260010
v 142.660004 -5.552942 3818.169922
v 129.945999 -6.076787 3972.679932
v 130.878998 -7.558075 4023.949951
v 128.962997 -3.322441 3626.770020
v 168.128998 -7.466316 3659.780029
v 128.966003 -3.830220 3928.709961
v 129.617996 -3.311789 3919.330078
v 130.410004 -5.642373 3947.810059
v 128.731995 -3.920253 3820.550049
v 143.785004 -4.863074 3524.469971
v 136.335007 -4.344759 3548.899902
v 128.912994 -3.882200 3561.669922
vn 0.0739 -0.9880 0.1353
vn -0.0216 -0.9997 -0.0125
vn 0.3757 -0.8779 -0.2970
vn -0.1233 -0.9917 -0.0364
vn 0.0187 -0.9959 0.0887
vn -0.1319 -0.9913 -0.0000
vn 0.2477 -0.9687 -0.0126
vn -0.4592 -0.8805 -0.1180
vn -0.1002 -0.9950 0.0055
vn -0.1112 -0.9938 -0.0000
vn -0.1708 -0.9835 -0.0590
vn -0.0874 -0.9962 0.0009
vn -0.0699 -0.9975 -0.0060
vn -0.1004 -0.9932 0.0595
vn -0.3033 -0.9490 0.0858
vn -0.1052 -0.9945 -0.0000
vn -0.1016 -0.9948 -0.0043
vn -0.2626 -0.9622 -0.0714
vn -0.1170 -0.9931 -0.0032
vn -0.1081 -0.9941 -0.0119
vn -0.0848 -0.9964 -0.0006
vn -0.1124 -0.9936 0.0086
vn -0.0100 -0.9999 0.0132
vn -0.1128 -0.9934 0.0214
vn 0.1834 -0.9827 -0.0257
vn -0.1001 -0.9950 0.0070
vn -0.1090 -0.9940 -0.0021
vn -0.1173 -0.9930 -0.0129
vn -0.1548 -0.9850 -0.0763
vn -0.0904 -0.9957 -0.0191
vn -0.3700 -0.9278 -0.0483
vn -0.0977 -0.9952 0.0027
vn -0.1146 -0.9929 -0.0306
vn -0.1059 -0.9944 -0.0009
usemtl None
s off
f 1//1 2//1 3//1
f 4//2 6//2 5//2
f 7//3 8//3 9//3
f 4//4 9//4 8//4
f 2//5 10//5 3//5
f 11//6 13//6 12//6
f 13//7 14//7 12//7
f 15//8 10//8 16//8
f 16//9 10//9 2//9
f 2//10 11//10 16//10
f 17//11 18//11 14//11
f 19//12 11//12 12//12
f 14//13 18//13 20//13
f 8//14 7//14 4//14
f 5//15 21//15 4//15
f 14//16 13//16 7//16
f 22//17 23//17 19//17
f 24//18 25//18 26//18
f 27//19 22//19 19//19
f 28//20 11//20 29//20
f 14//21 7//21 9//21
f 30//22 23//22 22//22
f 4//23 17//23 14//23
f 27//24 19//24 12//24
f 17//25 4//25 21//25
f 27//26 12//26 25//26
f 28//27 16//27 11//27
f 14//28 25//28 12//28
f 14//29 26//29 25//29
f 14//30 20//30 26//30
f 23//31 11//31 19//31
f 30//32 11//32 23//32
f 11//33 30//33 29//33
f 14//34 9//34 4//34
