# Blender v2.79 (sub 0) OBJ File: ''
# www.blender.org
mtllib my_crack_surf1_175.mtl
o my_crack_surf1_175
v 128.970001 -4.710989 3859.729980
v 130.408997 -5.655773 3947.810059
v 191.899994 -10.150656 4028.870117
v 128.824005 -4.886366 3844.860107
v 130.444000 -6.217710 3990.260010
v 147.059006 -6.727672 4002.080078
v 131.404999 -4.900751 4055.219971
v 130.878998 -7.557286 4023.949951
v 151.440002 -6.057940 4113.270020
v 130.936005 -5.615710 4113.270020
v 142.296005 -5.377162 3817.699951
v 128.962997 -3.844440 3928.709961
v 129.608002 -3.374338 3919.290039
v 158.830994 -6.167253 3760.489990
v 150.845001 -5.810075 3774.050049
v 165.028000 -7.117241 3753.570068
v 181.658997 -9.075297 3731.040039
v 191.899994 -10.150606 3721.659912
v 172.742996 -7.983428 3735.500000
v 144.455994 -5.680939 3798.610107
v 191.899994 -10.150670 4113.270020
vn 0.0601 0.9981 0.0097
vn 0.1204 0.9926 -0.0129
vn 0.0556 0.9984 0.0132
vn -0.1598 0.9838 -0.0809
vn 0.0216 0.9997 0.0125
vn 0.0556 0.9984 0.0095
vn 0.0024 0.9992 0.0397
vn 0.2968 0.9525 0.0679
vn 0.3351 0.9262 0.1730
vn 0.2812 0.8909 -0.3568
vn 0.9858 0.1672 -0.0143
vn 0.1044 0.9945 0.0000
vn 0.1117 0.9937 0.0000
vn 0.0943 0.9955 0.0018
vn 0.0528 0.9986 0.0085
vn 0.1100 0.9939 -0.0034
vn 0.1213 0.9926 -0.0006
vn 0.1006 0.9949 0.0000
vn 0.0827 0.9965 -0.0087
vn 0.0821 0.9966 -0.0101
usemtl None
s off
f 1//1 2//1 3//1
f 3//2 4//2 1//2
f 3//3 2//3 5//3
f 6//4 8//4 7//4
f 9//5 7//5 10//5
f 3//6 11//6 4//6
f 8//7 6//7 5//7
f 12//8 2//8 13//8
f 14//9 15//9 16//9
f 3//10 5//10 6//10
f 1//11 13//11 2//11
f 17//12 3//12 18//12
f 3//13 19//13 16//13
f 3//14 16//14 15//14
f 20//15 3//15 15//15
f 20//16 11//16 3//16
f 17//17 19//17 3//17
f 3//18 9//18 21//18
f 7//19 9//19 3//19
f 3//20 6//20 7//20
