# Blender v2.79 (sub 0) OBJ File: ''
# www.blender.org
mtllib my_crack_surf1_30.mtl
o my_crack_surf1_30
v 191.899994 -10.150670 4113.270020
v 191.899994 -10.150650 3990.090088
v 163.266998 -7.067796 4027.310059
v 145.401993 -5.923560 4113.279785
v 151.791000 -6.544422 4061.159912
v 159.468002 -6.954419 4044.149902
v 177.819000 -8.625132 4000.770020
v 158.824005 -6.348900 4113.270020
vn -0.1070 -0.9943 -0.0000
vn -0.0905 -0.9959 0.0008
vn -0.0760 -0.9971 -0.0104
vn -0.0762 -0.9970 -0.0104
vn -0.1086 -0.9941 -0.0012
vn 0.0011 0.0087 1.0000
usemtl None
s off
f 1//1 3//1 2//1
f 4//2 5//2 1//2
f 3//3 1//3 6//3
f 5//4 6//4 1//4
f 2//5 3//5 7//5
f 1//6 8//6 4//6
