# Blender v2.79 (sub 0) OBJ File: ''
# www.blender.org
mtllib my_crack_surf1_85.mtl
o my_crack_surf1_85
v 131.908005 -5.750596 4027.040039
v 131.212997 -6.447940 4054.290039
v 163.016998 -7.445610 3989.649902
v 191.899994 -10.150617 3786.949951
v 191.899994 -10.150665 4085.100098
v 178.343002 -8.884820 3993.300049
v 141.427002 -5.748793 3944.000000
v 138.585999 -6.225129 3981.399902
v 131.257004 -5.178465 4080.669922
v 151.440994 -6.054920 4113.270020
v 130.936005 -5.632620 4113.270020
v 183.542999 -9.422839 3796.260010
v 174.645004 -8.037071 3809.379883
v 152.994003 -6.221160 3867.639893
v 165.177002 -7.166523 3826.010010
v 135.529999 -6.029895 4017.459961
v 191.899994 -10.150670 4113.270020
vn 0.0876 0.9958 0.0277
vn 0.0930 0.9957 0.0000
vn 0.0616 0.9980 0.0174
vn 0.0835 0.9962 -0.0249
vn 0.0206 0.9997 0.0141
vn 0.0851 0.9952 -0.0480
vn 0.0853 0.9964 -0.0005
vn 0.0550 0.9984 0.0117
vn -0.1220 0.9750 -0.1857
vn 0.1065 0.9943 0.0086
vn 0.1566 0.9873 0.0274
vn 0.0356 0.9992 -0.0157
vn 0.1275 0.9918 0.0132
vn 0.1007 0.9949 0.0000
vn 0.1792 0.9000 -0.3974
vn 0.0503 0.9987 -0.0011
vn 0.0935 0.9956 -0.0001
usemtl None
s off
f 1//1 2//1 3//1
f 4//2 6//2 5//2
f 6//3 7//3 8//3
f 5//4 9//4 10//4
f 10//5 9//5 11//5
f 5//6 2//6 9//6
f 4//7 7//7 6//7
f 3//8 2//8 5//8
f 12//9 13//9 4//9
f 14//10 13//10 15//10
f 14//11 4//11 13//11
f 16//12 1//12 3//12
f 7//13 4//13 14//13
f 17//14 5//14 10//14
f 3//15 6//15 8//15
f 3//16 8//16 16//16
f 3//17 5//17 6//17
