# Blender v2.79 (sub 0) OBJ File: ''
# www.blender.org
mtllib my_crack_surf1_480.mtl
o my_crack_surf1_480
v 151.440002 -6.058940 4113.270020
v 131.404999 -4.900751 4055.219971
v 130.936005 -5.615430 4113.270020
v 191.899994 -10.150670 4113.270020
v 185.707001 -10.017669 4105.040039
v 181.906998 -9.289927 4098.080078
v 173.794006 -8.003150 4113.270020
v 191.899994 -10.150599 3680.620117
v 152.871994 -6.268769 3433.280029
v 177.720993 -8.364212 3447.850098
v 191.899994 -10.150542 3330.179932
v 178.503006 -8.909879 3429.979980
v 128.731995 -3.920243 3820.550049
v 129.126007 -3.399787 3543.489990
v 184.723007 -9.195320 3870.879883
v 191.899994 -10.150665 4085.100098
v 184.725998 -9.392054 3886.040039
v 143.369995 -4.836646 3469.770020
v 131.389999 -3.521307 3479.600098
v 130.298004 -7.242493 4007.750000
v 130.444000 -6.218320 3990.260010
v 129.945999 -6.076777 3972.679932
v 185.690002 -9.860240 4113.270020
v 130.878998 -7.558075 4023.949951
v 167.535995 -8.088240 3373.790039
v 176.050003 -9.153696 3351.679932
v 128.966003 -3.830060 3928.709961
v 129.617996 -3.311629 3919.330078
v 130.410004 -5.642293 3947.810059
v 128.666000 -4.126275 3530.290039
v 155.518005 -5.990117 3416.100098
v 181.589996 -9.881974 3341.360107
v 186.113998 -10.240543 3335.070068
vn -0.0216 -0.9997 -0.0125
vn 0.3757 -0.8779 -0.2970
vn -0.1726 -0.9849 -0.0087
vn -0.0825 -0.9966 -0.0026
vn 0.1961 -0.9798 0.0385
vn -0.0991 -0.9947 0.0260
vn -0.1026 -0.9947 -0.0020
vn -0.1319 -0.9913 -0.0000
vn 0.2477 -0.9687 -0.0126
vn -0.0866 -0.9962 0.0019
vn -0.1303 -0.9915 0.0050
vn -0.1091 -0.9940 0.0001
vn -0.1250 -0.9922 -0.0000
vn -0.1708 -0.9835 -0.0590
vn -0.0699 -0.9975 -0.0061
vn -0.1542 -0.9879 0.0186
vn -0.0467 -0.9987 0.0190
vn -0.3033 -0.9490 0.0858
vn -0.0951 -0.9955 0.0014
vn 0.0052 -0.9987 0.0501
vn -0.0819 -0.9966 0.0014
vn -0.1052 -0.9945 -0.0000
vn -0.2626 -0.9622 -0.0714
vn -0.0848 -0.9964 -0.0006
vn -0.2389 -0.9691 0.0617
vn -0.0100 -0.9999 0.0132
vn 0.1834 -0.9827 -0.0257
vn -0.1548 -0.9850 -0.0763
vn -0.0904 -0.9957 -0.0191
vn -0.1054 -0.9944 0.0071
vn -0.0592 -0.9981 -0.0151
vn -0.1597 -0.9872 -0.0016
vn -0.0823 -0.9965 -0.0129
vn -0.1328 -0.9911 0.0114
vn -0.1066 -0.9938 -0.0325
vn 0.1189 -0.9839 0.1332
vn 0.1581 -0.9728 0.1692
usemtl None
s off
f 1//1 3//1 2//1
f 4//2 5//2 6//2
f 7//3 6//3 5//3
f 8//4 9//4 10//4
f 11//5 10//5 12//5
f 10//6 9//6 12//6
f 13//7 14//7 8//7
f 8//8 16//8 15//8
f 16//9 17//9 15//9
f 1//10 17//10 7//10
f 8//11 18//11 9//11
f 19//12 18//12 8//12
f 8//13 10//13 11//13
f 20//14 21//14 17//14
f 17//15 21//15 22//15
f 5//16 23//16 7//16
f 4//17 23//17 5//17
f 2//18 24//18 1//18
f 8//19 15//19 13//19
f 11//20 25//20 26//20
f 12//21 25//21 11//21
f 17//22 16//22 4//22
f 27//23 28//23 29//23
f 17//24 4//24 6//24
f 14//25 30//25 8//25
f 1//26 20//26 17//26
f 20//27 1//27 24//27
f 17//28 29//28 28//28
f 17//29 22//29 29//29
f 17//30 28//30 13//30
f 8//31 30//31 19//31
f 17//32 6//32 7//32
f 17//33 13//33 15//33
f 31//34 25//34 12//34
f 31//35 12//35 9//35
f 11//36 26//36 32//36
f 32//37 33//37 11//37
