# Blender v2.79 (sub 0) OBJ File: ''
# www.blender.org
mtllib my_crack_surf1_305.mtl
o my_crack_surf1_305
v 128.852005 -3.533701 3874.969971
v 191.899994 -10.150599 3680.620117
v 128.914001 -3.945180 3684.820068
v 191.899994 -10.150670 4113.270020
v 180.195999 -8.970808 4038.510010
v 170.949005 -7.610275 4081.580078
v 130.936005 -5.615430 4113.270020
v 147.369995 -6.732815 4017.149902
v 130.444000 -6.218340 3990.260010
v 129.945999 -6.077107 3972.679932
v 151.440002 -6.058910 4113.270020
v 131.404999 -4.900751 4055.219971
v 130.878998 -7.558075 4023.949951
v 161.537994 -7.168446 4026.110107
v 182.149994 -9.387594 3590.010010
v 170.960999 -7.261797 3601.919922
v 191.899994 -10.150584 3585.899902
v 130.298004 -7.242493 4007.750000
v 156.455994 -5.387681 3625.850098
v 128.964996 -3.834970 3928.709961
v 129.617996 -3.312438 3919.330078
v 130.408997 -5.655053 3947.810059
v 143.477997 -5.044358 3669.709961
v 150.070007 -5.101254 3643.750000
vn 0.0979 0.9952 -0.0021
vn 0.1266 0.9919 -0.0042
vn 0.0299 0.9992 -0.0251
vn 0.0384 0.9992 -0.0051
vn 0.0910 0.9958 0.0054
vn 0.0216 0.9991 -0.0356
vn 0.0537 0.9949 -0.0854
vn -0.0042 0.9939 0.1105
vn -0.4851 0.3838 0.7858
vn 0.0962 0.9954 -0.0001
vn 0.1003 0.9950 0.0000
vn 0.0875 0.9961 0.0130
vn 0.0049 0.9852 -0.1712
vn -0.0616 0.9964 0.0578
vn 0.1440 0.9895 0.0098
vn 0.2623 0.9623 0.0719
vn 0.0343 0.9994 -0.0056
vn -0.0414 0.9989 0.0209
vn 0.0847 0.9964 -0.0064
vn 0.3578 0.9314 0.0667
vn 0.1577 0.9873 0.0197
vn 0.0996 0.9947 0.0236
vn 0.0997 0.9947 0.0231
vn 0.1020 0.9946 0.0205
vn 0.1332 0.9911 0.0000
vn 0.1006 0.9948 0.0132
usemtl None
s off
f 1//1 2//1 3//1
f 4//2 5//2 6//2
f 7//3 6//3 5//3
f 8//4 2//4 9//4
f 2//5 10//5 9//5
f 6//6 7//6 11//6
f 12//7 5//7 13//7
f 8//8 13//8 5//8
f 8//9 5//9 14//9
f 14//10 5//10 2//10
f 5//11 4//11 2//11
f 7//12 5//12 12//12
f 15//13 16//13 17//13
f 18//14 8//14 9//14
f 16//15 19//15 17//15
f 20//16 22//16 21//16
f 14//17 2//17 8//17
f 18//18 13//18 8//18
f 1//19 21//19 2//19
f 2//20 21//20 22//20
f 2//21 22//21 10//21
f 23//22 3//22 2//22
f 23//23 2//23 24//23
f 2//24 19//24 24//24
f 2//25 17//25 19//25
f 4//26 6//26 11//26
