# Blender v2.79 (sub 0) OBJ File: ''
# www.blender.org
mtllib my_crack_surf1_335.mtl
o my_crack_surf1_335
v 191.899994 -10.150597 3665.510010
v 191.899994 -10.150581 3570.879883
v 176.556000 -8.372924 3580.010010
v 128.852005 -3.533431 3874.969971
v 128.923004 -3.870680 3684.330078
v 191.899994 -10.150670 4113.270020
v 185.707001 -10.017669 4105.040039
v 181.906998 -9.289927 4098.080078
v 151.440002 -6.058930 4113.270020
v 191.899994 -10.150619 3801.750000
v 172.098007 -8.030009 4045.969971
v 131.404999 -4.900751 4055.219971
v 130.936005 -5.615430 4113.270020
v 130.878998 -7.558075 4023.949951
v 130.444000 -6.218340 3990.260010
v 176.751007 -8.948828 3972.770020
v 146.483002 -4.855484 3643.090088
v 152.716003 -5.063750 3624.570068
v 161.399994 -5.712517 3602.649902
v 179.143005 -8.273696 3596.270020
v 128.964996 -3.834930 3928.709961
v 129.617996 -3.312289 3919.330078
v 130.408997 -5.655043 3947.810059
v 140.774994 -4.787048 3668.780029
vn -0.1151 -0.9934 -0.0000
vn -0.0987 -0.9951 0.0017
vn 0.3757 -0.8779 -0.2970
vn -0.1233 -0.9917 -0.0364
vn -0.1065 -0.9943 -0.0000
vn -0.0796 -0.9967 -0.0129
vn -0.0734 -0.9966 -0.0387
vn -0.1041 -0.9943 -0.0239
vn -0.1004 -0.9932 0.0595
vn 0.2156 -0.9761 0.0260
vn -0.0571 -0.9947 0.0855
vn -0.1332 -0.9907 0.0272
vn -0.0216 -0.9995 0.0226
vn -0.1073 -0.9942 -0.0025
vn -0.2622 -0.9623 -0.0719
vn -0.0690 -0.9976 -0.0111
vn -0.0176 -0.9998 0.0114
vn -0.0271 -0.9963 -0.0812
vn -0.0638 -0.9979 -0.0132
vn -0.1540 -0.9876 -0.0318
vn -0.1044 -0.9945 -0.0000
vn -0.1056 -0.9942 -0.0208
vn -0.1247 -0.9922 -0.0039
vn -0.1073 -0.9942 -0.0038
vn -0.1267 -0.9919 0.0071
vn -0.1057 -0.9942 -0.0220
vn -0.7906 -0.5985 0.1294
usemtl None
s off
f 1//1 3//1 2//1
f 4//2 5//2 1//2
f 6//3 7//3 8//3
f 9//4 8//4 7//4
f 6//5 11//5 10//5
f 12//6 11//6 13//6
f 14//7 15//7 16//7
f 17//8 18//8 1//8
f 7//9 6//9 9//9
f 10//10 11//10 16//10
f 12//11 14//11 11//11
f 3//12 20//12 19//12
f 9//13 13//13 11//13
f 10//14 16//14 4//14
f 21//15 22//15 23//15
f 11//16 6//16 8//16
f 16//17 11//17 14//17
f 16//18 23//18 22//18
f 16//19 15//19 23//19
f 19//20 20//20 18//20
f 1//21 10//21 4//21
f 24//22 17//22 1//22
f 20//23 1//23 18//23
f 11//24 8//24 9//24
f 4//25 16//25 22//25
f 24//26 1//26 5//26
f 20//27 3//27 1//27
