# Blender v2.79 (sub 0) OBJ File: ''
# www.blender.org
mtllib my_crack_surf1_570.mtl
o my_crack_surf1_570
v 165.475998 -7.173828 3422.110107
v 169.867004 -7.827196 3408.270020
v 178.723007 -8.934449 3430.300049
v 191.899994 -10.150540 3316.600098
v 185.776993 -10.110144 3334.750000
v 141.227997 -8.697787 3296.100098
v 176.686996 -8.980048 3363.870117
v 170.949005 -7.610275 4081.580078
v 185.690002 -9.860250 4113.270020
v 172.205994 -7.718808 4098.979980
v 191.899994 -10.150665 4085.100098
v 173.794006 -8.003600 4113.270020
v 189.707001 -10.445638 3300.000000
v 150.705994 -5.799694 3644.629883
v 148.632004 -5.515306 3595.860107
v 128.975998 -3.215221 3626.709961
v 164.229996 -6.954870 3439.669922
v 130.238998 -5.614547 3417.810059
v 191.899994 -10.150537 3300.000000
v 162.962006 -6.570693 3457.179932
v 177.431000 -8.360621 3447.770020
v 191.899994 -10.150619 3801.750000
v 184.723007 -9.195320 3870.879883
v 184.725998 -9.392054 3886.040039
v 130.319000 -7.025644 3397.580078
v 132.983002 -7.497690 3376.489990
v 131.453995 -3.460488 3487.100098
v 151.363998 -5.495069 3487.580078
v 130.677994 -6.164704 3463.260010
v 169.393997 -7.833770 3870.270020
v 176.817001 -8.398387 3846.639893
v 128.880005 -3.336471 3874.919922
v 128.733002 -3.917362 3820.550049
v 191.899994 -10.150599 3680.620117
v 189.679001 -10.928936 3290.000000
v 131.404999 -4.900751 4055.219971
v 130.936005 -5.615430 4113.270020
v 191.899994 -10.150670 4113.270020
v 151.440002 -6.058930 4113.270020
v 136.595993 -7.253276 3355.070068
v 130.878998 -7.554336 4023.949951
v 179.158997 -11.141836 3290.000000
v 130.626999 -7.134731 3383.229980
v 130.440002 -6.318470 3990.219971
v 130.296005 -7.202193 4007.770020
v 128.962997 -3.845510 3928.709961
v 130.408005 -5.700283 3947.790039
v 129.617996 -3.312188 3919.330078
v 138.397995 -7.897182 3325.310059
v 128.925003 -2.445365 3530.810059
v 129.076996 -2.917739 3556.560059
v 130.235001 -2.355672 3509.899902
v 129.940994 -6.219767 3972.629883
v 129.785004 -6.120790 3440.110107
v 142.585007 -8.719046 3290.000000
vn -0.1343 -0.9909 0.0042
vn -0.1169 -0.9931 -0.0029
vn -0.0514 -0.9984 0.0227
vn -0.1626 -0.9867 0.0056
vn -0.1178 -0.9929 -0.0157
vn -0.1542 -0.9880 -0.0026
vn -0.0365 -0.9993 0.0055
vn -0.1175 -0.9931 -0.0008
vn -0.0453 -0.9989 0.0092
vn -0.0066 -1.0000 -0.0000
vn -0.1335 -0.9910 0.0029
vn -0.1141 -0.9934 0.0135
vn 0.4661 -0.8824 0.0635
vn -0.1202 -0.9925 0.0237
vn -0.1319 -0.9913 -0.0000
vn 0.2477 -0.9687 -0.0126
vn -0.0304 -0.9988 0.0375
vn -0.0254 -0.9995 0.0192
vn -0.1037 -0.9879 0.1154
vn -0.1116 -0.9937 -0.0113
vn -0.0986 -0.9951 0.0109
vn -0.1001 -0.9950 -0.0030
vn -0.1228 -0.9924 -0.0000
vn -0.0399 -0.9980 0.0483
vn -0.0599 -0.9981 -0.0128
vn -0.0887 -0.9961 0.0046
vn -0.0880 -0.9960 -0.0129
vn -0.0525 -0.9962 0.0693
vn 0.7932 -0.5464 0.2688
vn -0.0467 -0.9989 -0.0000
vn -0.0215 -0.9962 0.0844
vn -0.0391 -0.9991 -0.0180
vn -0.0867 -0.9962 -0.0102
vn 0.1333 -0.9908 0.0246
vn -0.1250 -0.9884 0.0860
vn -0.5621 -0.8120 -0.1572
vn -0.0518 -0.9987 -0.0025
vn 0.0179 -0.8847 0.4658
vn 0.0071 -0.9996 0.0271
vn -0.1205 -0.9927 0.0006
vn -0.1396 -0.9902 0.0045
vn -0.0993 -0.9951 -0.0037
vn 0.0798 -0.9956 -0.0495
vn -0.2101 -0.9745 -0.0788
vn -0.1967 -0.9780 -0.0693
vn -0.0471 -0.9987 0.0188
vn -0.1288 -0.9917 0.0031
vn -0.0796 -0.9967 -0.0178
vn -0.0963 -0.9953 0.0065
vn -0.1230 -0.9924 -0.0044
vn 0.0315 -0.9992 -0.0229
vn -0.1101 -0.9939 0.0024
vn -0.0508 -0.9985 0.0224
vn -0.1038 -0.9946 -0.0014
vn -0.1026 -0.9938 0.0427
vn -0.1618 -0.9867 -0.0144
vn -0.0833 -0.9964 -0.0145
vn -0.1030 -0.9947 0.0018
vn -0.0348 -0.9994 0.0013
vn -0.3143 -0.9161 0.2489
vn -0.1096 -0.9940 -0.0000
vn -0.0276 -0.9994 0.0217
vn 0.3085 -0.9511 -0.0141
vn 0.6196 -0.7003 -0.3546
vn -0.0239 -0.9995 0.0202
vn -0.0265 -0.9993 0.0252
vn 0.0362 -0.9993 -0.0033
vn -0.0245 -0.9994 -0.0232
vn -0.0661 -0.9978 -0.0112
usemtl None
s off
f 1//1 2//1 3//1
f 2//2 4//2 3//2
f 5//3 7//3 6//3
f 8//4 9//4 10//4
f 9//5 8//5 11//5
f 10//6 9//6 12//6
f 6//7 13//7 5//7
f 14//8 16//8 15//8
f 1//9 17//9 18//9
f 19//10 4//10 5//10
f 1//11 3//11 17//11
f 20//12 17//12 21//12
f 4//13 21//13 3//13
f 21//14 17//14 3//14
f 22//15 11//15 23//15
f 11//16 24//16 23//16
f 1//17 25//17 2//17
f 26//18 2//18 25//18
f 27//19 29//19 28//19
f 30//20 32//20 31//20
f 31//21 32//21 33//21
f 20//22 34//22 28//22
f 20//23 21//23 34//23
f 34//23 21//23 4//23
f 13//24 6//24 35//24
f 36//25 8//25 37//25
f 22//26 23//26 30//26
f 24//27 30//27 23//27
f 1//28 18//28 25//28
f 7//29 5//29 4//29
f 11//30 38//30 9//30
f 10//31 39//31 37//31
f 40//32 7//32 26//32
f 10//33 12//33 39//33
f 13//34 19//34 5//34
f 36//35 41//35 8//35
f 22//36 30//36 31//36
f 10//37 37//37 8//37
f 6//38 42//38 35//38
f 4//39 2//39 7//39
f 24//40 11//40 8//40
f 43//41 26//41 25//41
f 33//42 16//42 22//42
f 44//43 8//43 45//43
f 46//44 30//44 47//44
f 46//45 48//45 30//45
f 40//46 49//46 7//46
f 34//47 50//47 28//47
f 34//48 51//48 50//48
f 31//49 33//49 22//49
f 51//50 15//50 16//50
f 45//51 8//51 41//51
f 32//52 30//52 48//52
f 7//53 49//53 6//53
f 14//54 15//54 34//54
f 52//55 27//55 28//55
f 28//56 50//56 52//56
f 47//57 30//57 44//57
f 30//58 24//58 8//58
f 44//59 30//59 8//59
f 34//60 16//60 14//60
f 16//61 34//61 22//61
f 2//62 26//62 7//62
f 44//63 53//63 47//63
f 51//64 34//64 15//64
f 54//65 17//65 20//65
f 54//66 20//66 28//66
f 54//67 28//67 29//67
f 54//68 18//68 17//68
f 6//69 55//69 42//69
