# Blender v2.79 (sub 0) OBJ File: ''
# www.blender.org
mtllib my_crack_surf1_555.mtl
o my_crack_surf1_555
v 191.899994 -10.150670 4113.270020
v 185.707001 -10.017669 4105.040039
v 181.906998 -9.289927 4098.080078
v 173.794006 -8.003600 4113.270020
v 150.705994 -5.799694 3644.629883
v 128.923004 -2.454555 3530.810059
v 128.975998 -3.215471 3626.709961
v 179.158005 -11.140336 3290.000000
v 144.445999 -8.851177 3298.179932
v 145.794998 -8.891926 3290.000000
v 162.917007 -6.565053 3457.340088
v 165.565002 -7.146557 3422.139893
v 171.376007 -8.072859 3488.100098
v 191.899994 -10.150599 3680.620117
v 141.559006 -7.349546 3354.780029
v 179.699005 -9.817473 3336.169922
v 164.138000 -7.519863 3764.699951
v 167.095001 -6.927166 3472.600098
v 142.794998 -8.155951 3319.719971
v 164.656006 -6.545513 3516.939941
v 146.697006 -5.095674 3523.679932
v 184.723007 -9.195320 3870.879883
v 159.938995 -6.547896 3845.830078
v 128.876999 -3.355161 3874.919922
v 142.938995 -5.523507 3845.909912
v 131.382996 -3.102338 3486.889893
v 130.542999 -4.747664 3465.469971
v 128.733002 -3.914313 3820.550049
v 136.138000 -5.660830 3432.030029
v 138.983002 -6.403834 3403.810059
v 141.593002 -7.110298 3367.169922
v 185.690002 -9.860250 4113.270020
v 131.404999 -4.900751 4055.219971
v 151.440002 -6.058930 4113.270020
v 189.682999 -10.877436 3290.000000
v 189.705994 -10.457738 3300.000000
v 130.878998 -7.554326 4023.949951
v 161.537994 -7.168446 4026.110107
v 191.899994 -10.150631 3877.459961
v 130.936005 -5.615430 4113.270020
v 130.656998 -6.606381 3998.050049
v 130.296005 -7.198463 4007.770020
v 128.964996 -3.835020 3928.709961
v 129.617996 -3.311178 3919.340088
v 130.408997 -5.671053 3947.800049
v 136.621002 -5.851708 3423.080078
v 142.815002 -7.723285 3343.030029
v 147.311996 -6.032874 3890.620117
v 130.237000 -2.348862 3509.889893
v 191.899994 -10.150537 3300.000000
v 129.940994 -6.228937 3972.629883
v 130.503006 -5.362282 3446.850098
v 142.300003 -7.808013 3336.330078
vn 0.3757 -0.8779 -0.2970
vn -0.1726 -0.9850 -0.0088
vn -0.1117 -0.9937 -0.0078
vn -0.0672 -0.9977 -0.0061
vn -0.1839 -0.9829 0.0024
vn 0.1729 -0.9845 -0.0291
vn -0.0538 -0.9983 0.0222
vn -0.1062 -0.9943 -0.0040
vn -0.9637 -0.0462 0.2628
vn -0.0593 -0.9979 0.0277
vn -0.0665 -0.9971 0.0373
vn -0.1042 -0.9946 -0.0021
vn -0.0599 -0.9972 0.0455
vn -0.0602 -0.9982 -0.0067
vn -0.3270 -0.9412 0.0851
vn -0.0580 -0.9983 -0.0078
vn -0.0617 -0.9980 0.0112
vn -0.1060 -0.9944 -0.0037
vn -0.1845 -0.9828 0.0091
vn -0.0430 -0.9988 0.0220
vn -0.1583 -0.9874 0.0047
vn -0.0460 -0.9988 0.0194
vn -0.1542 -0.9879 0.0186
vn -0.0467 -0.9987 0.0190
vn -0.0867 -0.9962 0.0100
vn 0.0250 -0.9988 0.0419
vn -0.1896 -0.9781 0.0862
vn 0.0134 -0.9998 -0.0115
vn -0.3513 -0.9016 0.2524
vn -0.6669 -0.7305 0.1472
vn -0.0216 -0.9997 -0.0125
vn -0.7805 -0.6246 0.0270
vn -0.1128 -0.9936 0.0008
vn 0.0358 -0.9976 -0.0594
vn -0.0835 -0.9965 -0.0081
vn -0.2663 -0.9612 -0.0723
vn -0.1433 -0.9896 0.0094
vn -0.1603 -0.9866 -0.0286
vn -0.0858 -0.9963 -0.0000
vn -0.1630 -0.9866 -0.0035
vn -0.1061 -0.9942 0.0155
vn -0.0518 -0.9983 0.0262
vn -0.1311 -0.9913 0.0105
vn 0.0142 -0.9996 -0.0225
vn -0.0856 -0.9963 0.0025
vn -0.1466 -0.9892 0.0034
vn -0.0580 -0.9979 0.0293
vn -0.0955 -0.9954 -0.0110
vn -0.0784 -0.9959 0.0461
vn -0.1833 -0.9828 0.0231
vn -0.0943 -0.9955 -0.0000
vn -0.0393 -0.9991 0.0165
vn -0.1070 -0.9933 -0.0437
vn 0.0642 -0.9979 0.0004
vn -0.1527 -0.9882 -0.0146
vn -0.0932 -0.9955 -0.0181
vn -0.1600 -0.9841 -0.0772
vn -0.0307 -0.9994 0.0138
vn -0.3141 -0.9162 0.2487
vn 0.1387 -0.9903 -0.0000
vn 0.1600 -0.9869 -0.0192
vn -0.0414 -0.9991 0.0134
vn -0.0477 -0.9983 0.0331
vn -0.0501 -0.9987 0.0011
vn -0.1017 -0.9943 -0.0334
vn -0.0536 -0.9984 0.0167
vn -0.0536 -0.9984 0.0193
usemtl None
s off
f 1//1 2//1 3//1
f 4//2 3//2 2//2
f 5//3 7//3 6//3
f 8//4 9//4 10//4
f 11//5 12//5 13//5
f 14//6 13//6 12//6
f 15//7 16//7 12//7
f 17//8 7//8 14//8
f 11//9 13//9 18//9
f 19//10 9//10 8//10
f 20//11 21//11 13//11
f 22//12 24//12 23//12
f 23//13 24//13 25//13
f 23//14 25//14 7//14
f 26//15 27//15 21//15
f 11//16 18//16 27//16
f 21//17 27//17 18//17
f 28//18 7//18 25//18
f 20//19 13//19 14//19
f 12//20 29//20 30//20
f 16//21 14//21 12//21
f 31//22 15//22 12//22
f 2//23 32//23 4//23
f 1//24 32//24 2//24
f 4//25 34//25 33//25
f 35//26 36//26 8//26
f 33//27 37//27 4//27
f 38//28 4//28 37//28
f 39//29 22//29 23//29
f 39//30 7//30 17//30
f 34//31 40//31 33//31
f 14//32 16//32 8//32
f 7//33 39//33 23//33
f 41//34 38//34 42//34
f 21//35 20//35 14//35
f 43//36 44//36 45//36
f 21//37 14//37 6//37
f 13//38 21//38 18//38
f 39//39 1//39 3//39
f 39//40 3//40 4//40
f 46//41 30//41 29//41
f 47//42 16//42 15//42
f 24//43 28//43 25//43
f 42//44 38//44 37//44
f 38//45 39//45 4//45
f 24//46 48//46 44//46
f 16//47 19//47 8//47
f 5//48 6//48 14//48
f 39//49 44//49 48//49
f 49//50 26//50 21//50
f 17//51 14//51 39//51
f 12//52 30//52 31//52
f 22//53 48//53 24//53
f 36//54 14//54 8//54
f 21//55 6//55 49//55
f 45//56 39//56 41//56
f 45//57 44//57 39//57
f 41//58 39//58 38//58
f 14//59 7//59 5//59
f 36//60 50//60 14//60
f 41//61 51//61 45//61
f 52//62 12//62 11//62
f 52//63 11//63 27//63
f 52//64 29//64 12//64
f 39//65 48//65 22//65
f 47//66 53//66 16//66
f 16//67 53//67 19//67
