# Blender v2.79 (sub 0) OBJ File: ''
# www.blender.org
mtllib my_crack_surf1_515.mtl
o my_crack_surf1_515
v 165.115005 -6.972628 3422.110107
v 191.899994 -10.150537 3300.000000
v 191.899994 -10.150599 3680.620117
v 191.899994 -10.150670 4113.270020
v 185.707001 -10.017669 4105.040039
v 181.906998 -9.289927 4098.080078
v 173.794006 -8.003571 4113.270020
v 147.388000 -5.976439 3430.199951
v 182.494995 -10.230639 3308.860107
v 176.727005 -10.512438 3301.719971
v 172.449997 -10.010038 3306.639893
v 159.005997 -8.444205 3348.360107
v 162.714996 -9.018053 3330.100098
v 168.320999 -7.913931 3383.760010
v 154.656006 -7.574371 3383.879883
v 173.714005 -8.376592 3938.500000
v 145.513000 -5.868650 3867.649902
v 168.891998 -9.675050 3312.110107
v 166.070999 -9.569410 3318.110107
v 176.751007 -8.948828 3972.770020
v 129.947006 -6.044267 3972.689941
v 145.378006 -6.423729 3985.199951
v 189.326996 -10.264338 3307.639893
v 185.690002 -9.860240 4113.270020
v 131.404999 -4.900751 4055.219971
v 151.440002 -6.058950 4113.270020
v 130.878998 -7.557576 4023.949951
v 147.059006 -6.727672 4002.080078
v 189.714005 -10.326138 3300.000000
v 130.936005 -5.615430 4113.270020
v 182.466995 -10.802437 3297.699951
v 128.731995 -3.921752 3820.550049
v 143.070007 -5.301152 3451.209961
v 128.942001 -3.204186 3598.750000
v 130.656998 -6.570881 3998.020020
v 130.296997 -7.218503 4007.760010
v 128.966003 -3.829940 3928.709961
v 129.617996 -3.311589 3919.330078
v 130.410004 -5.641563 3947.810059
v 129.207993 -2.773757 3543.139893
v 130.233994 -2.365462 3509.820068
v 128.910995 -2.543345 3530.780029
v 128.850006 -3.549981 3874.979980
v 128.845993 -2.965674 3583.489990
v 131.063995 -4.268237 3478.459961
v 188.496002 -11.064837 3295.639893
v 138.968002 -4.654545 3467.389893
vn -0.1178 -0.9930 -0.0000
vn 0.3757 -0.8779 -0.2970
vn -0.1726 -0.9850 -0.0088
vn -0.0589 -0.9982 -0.0062
vn -0.0372 -0.9969 0.0694
vn -0.0352 -0.9991 0.0242
vn -0.0435 -0.9987 0.0276
vn -0.0246 -0.9995 0.0215
vn -0.0899 -0.9960 0.0005
vn -0.0412 -0.9991 -0.0018
vn -0.0619 -0.9980 -0.0112
vn -0.0619 -0.9970 0.0462
vn -0.0271 -0.9994 0.0234
vn 0.5907 -0.7849 0.1872
vn -0.1542 -0.9879 0.0186
vn -0.0467 -0.9987 0.0190
vn -0.0867 -0.9962 0.0100
vn 0.0846 -0.9964 0.0085
vn -0.1898 -0.9780 0.0863
vn 0.0270 -0.9995 -0.0180
vn 0.0063 -0.9980 0.0628
vn 0.0801 -0.9967 0.0121
vn -0.0216 -0.9997 -0.0125
vn -0.0170 -0.9990 0.0412
vn -0.0146 -0.9986 0.0512
vn -0.1466 -0.9892 -0.0035
vn -0.1057 -0.9944 -0.0034
vn -0.1263 -0.9920 0.0059
vn -0.1054 -0.9944 -0.0033
vn 0.0068 -0.9978 -0.0661
vn -0.2625 -0.9623 -0.0714
vn -0.0052 -0.9998 -0.0175
vn 0.1710 -0.9852 -0.0068
vn -0.0858 -0.9963 -0.0000
vn -0.1599 -0.9871 -0.0018
vn -0.1157 -0.9932 -0.0157
vn -0.0840 -0.9964 -0.0096
vn -0.0958 -0.9953 -0.0108
vn -0.0079 -0.9998 -0.0206
vn -0.1348 -0.9909 0.0071
vn -0.0694 -0.9976 0.0052
vn 0.0219 -0.9995 -0.0217
vn -0.1345 -0.9909 0.0077
vn -0.5802 -0.8144 -0.0091
vn -0.0109 -0.9997 0.0236
vn -0.0798 -0.9937 -0.0791
vn -0.0667 -0.9976 -0.0174
vn 0.0494 -0.9975 0.0510
vn -0.2641 -0.9631 0.0514
vn 0.0129 -0.9865 0.1635
vn -0.0310 -0.9987 0.0410
vn -0.0246 -0.9994 0.0225
vn -0.0629 -0.9980 -0.0101
vn -0.1299 -0.9915 0.0067
vn -0.0035 -1.0000 0.0079
vn -0.1194 -0.9928 0.0124
usemtl None
s off
f 1//1 2//1 3//1
f 4//2 5//2 6//2
f 7//3 6//3 5//3
f 1//4 3//4 8//4
f 9//5 11//5 10//5
f 12//6 13//6 14//6
f 15//7 1//7 8//7
f 15//8 12//8 14//8
f 3//9 16//9 17//9
f 18//10 9//10 19//10
f 20//11 21//11 16//11
f 20//12 22//12 21//12
f 13//13 23//13 14//13
f 14//14 23//14 2//14
f 5//15 24//15 7//15
f 4//16 24//16 5//16
f 7//17 26//17 25//17
f 3//18 7//18 20//18
f 25//19 27//19 7//19
f 28//20 7//20 27//20
f 9//21 23//21 13//21
f 2//22 23//22 29//22
f 26//23 30//23 25//23
f 9//24 13//24 19//24
f 31//25 9//25 10//25
f 16//26 3//26 20//26
f 3//27 17//27 32//27
f 33//28 8//28 3//28
f 32//29 34//29 3//29
f 35//30 28//30 36//30
f 37//31 38//31 39//31
f 35//32 22//32 28//32
f 34//33 40//33 41//33
f 3//34 4//34 6//34
f 3//35 6//35 7//35
f 40//36 42//36 41//36
f 20//37 28//37 22//37
f 34//38 41//38 3//38
f 35//39 21//39 22//39
f 43//40 32//40 17//40
f 20//41 7//41 28//41
f 36//42 28//42 27//42
f 43//43 17//43 38//43
f 40//44 34//44 44//44
f 1//45 14//45 2//45
f 16//46 39//46 38//46
f 16//47 21//47 39//47
f 29//48 9//48 31//48
f 41//49 45//49 3//49
f 46//50 29//50 31//50
f 18//51 11//51 9//51
f 14//52 1//52 15//52
f 45//53 47//53 3//53
f 33//54 3//54 47//54
f 23//55 9//55 29//55
f 16//56 38//56 17//56
