# Blender v2.79 (sub 0) OBJ File: ''
# www.blender.org
mtllib my_crack_surf1_300.mtl
o my_crack_surf1_300
v 191.899994 -10.150670 4113.270020
v 180.195999 -8.970808 4038.510010
v 170.949005 -7.610275 4081.580078
v 130.936005 -5.615430 4113.270020
v 147.369995 -6.732815 4017.149902
v 130.444000 -6.218340 3990.260010
v 191.899994 -10.150619 3801.750000
v 129.945999 -6.077107 3972.679932
v 151.440002 -6.058910 4113.270020
v 131.404999 -4.900751 4055.219971
v 130.878998 -7.558075 4023.949951
v 161.537994 -7.168446 4026.110107
v 182.526001 -9.395835 3590.459961
v 171.466003 -7.582967 3602.300049
v 191.899994 -10.150584 3586.409912
v 128.850006 -3.550401 3874.979980
v 128.914001 -3.945180 3684.820068
v 130.298004 -7.242493 4007.750000
v 157.757996 -6.044631 3626.370117
v 128.964996 -3.834980 3928.709961
v 129.617996 -3.312469 3919.330078
v 130.408997 -5.655053 3947.810059
v 143.944000 -5.147328 3669.989990
v 151.266006 -5.578733 3644.580078
v 173.794006 -8.003111 4113.270020
vn 0.1266 0.9919 -0.0042
vn 0.0299 0.9992 -0.0251
vn 0.0418 0.9991 -0.0072
vn 0.0813 0.9967 0.0057
vn 0.0216 0.9991 -0.0356
vn 0.0537 0.9949 -0.0854
vn -0.0042 0.9939 0.1105
vn -0.4851 0.3838 0.7858
vn 0.0963 0.9954 -0.0002
vn 0.1003 0.9950 0.0000
vn 0.0875 0.9961 0.0130
vn 0.0239 0.9913 -0.1295
vn 0.1018 0.9948 -0.0020
vn -0.0616 0.9964 0.0578
vn 0.1351 0.9907 0.0136
vn 0.2623 0.9623 0.0719
vn 0.0360 0.9993 -0.0084
vn -0.0414 0.9989 0.0209
vn 0.0961 0.9954 -0.0070
vn 0.2436 0.9671 0.0728
vn 0.1178 0.9929 0.0190
vn 0.0861 0.9963 0.0065
vn 0.0840 0.9964 0.0073
vn 0.0885 0.9961 0.0061
vn 0.1194 0.9928 0.0000
vn 0.0866 0.9962 0.0046
vn 0.1178 0.9930 0.0017
usemtl None
s off
f 1//1 2//1 3//1
f 4//2 3//2 2//2
f 5//3 7//3 6//3
f 7//4 8//4 6//4
f 3//5 4//5 9//5
f 10//6 2//6 11//6
f 5//7 11//7 2//7
f 5//8 2//8 12//8
f 12//9 2//9 7//9
f 2//10 1//10 7//10
f 4//11 2//11 10//11
f 13//12 14//12 15//12
f 16//13 7//13 17//13
f 18//14 5//14 6//14
f 14//15 19//15 15//15
f 20//16 22//16 21//16
f 12//17 7//17 5//17
f 18//18 11//18 5//18
f 16//19 21//19 7//19
f 7//20 21//20 22//20
f 7//21 22//21 8//21
f 23//22 17//22 7//22
f 23//23 7//23 24//23
f 7//24 19//24 24//24
f 7//25 15//25 19//25
f 25//26 3//26 9//26
f 25//27 1//27 3//27
