# Blender v2.79 (sub 0) OBJ File: ''
# www.blender.org
mtllib my_crack_surf1_100.mtl
o my_crack_surf1_100
v 191.899994 -10.150617 3784.770020
v 162.983994 -6.941534 3828.949951
v 191.899994 -10.150665 4085.100098
v 131.380005 -5.108221 4055.149902
v 130.936005 -5.624890 4113.270020
v 178.371994 -8.886940 3993.090088
v 173.860992 -8.371482 3938.340088
v 150.602005 -6.150661 3871.239990
v 176.751007 -8.948828 3972.770020
v 130.856003 -7.094916 4024.120117
v 151.440994 -6.054160 4113.270020
v 191.899994 -10.150670 4113.270020
v 172.334000 -7.953961 3809.489990
v 181.395996 -9.165038 3795.979980
v 130.453003 -5.559866 3966.340088
v 135.432999 -5.488433 3949.510010
vn 0.1103 0.9939 0.0000
vn 0.0927 0.9956 0.0096
vn 0.0807 0.9967 0.0050
vn 0.2420 0.9700 -0.0223
vn -0.0040 0.9980 -0.0638
vn 0.0209 0.9996 -0.0189
vn -0.1183 0.9926 0.0266
vn 0.9756 0.2051 -0.0785
vn 0.0930 0.9957 0.0000
vn -0.0404 0.9990 0.0171
vn -0.0064 0.9956 -0.0936
vn 0.0547 0.9982 0.0261
vn 0.1007 0.9949 -0.0009
vn 0.0671 0.9977 0.0039
vn 0.0767 0.9970 0.0064
vn 0.0831 0.9961 0.0288
vn 0.1176 0.9930 0.0048
usemtl None
s off
f 1//1 2//1 3//1
f 4//2 5//2 6//2
f 7//3 2//3 8//3
f 3//4 9//4 6//4
f 4//5 6//5 10//5
f 11//6 6//6 5//6
f 7//7 9//7 3//7
f 7//8 6//8 9//8
f 6//9 12//9 3//9
f 7//10 3//10 2//10
f 13//11 1//11 14//11
f 10//12 6//12 15//12
f 6//13 11//13 12//13
f 6//14 7//14 15//14
f 16//15 7//15 8//15
f 16//16 15//16 7//16
f 1//17 13//17 2//17
