# Blender v2.79 (sub 0) OBJ File: ''
# www.blender.org
mtllib my_crack_surf1_245.mtl
o my_crack_surf1_245
v 136.438004 -5.254972 3754.360107
v 128.684006 -4.438248 3791.699951
v 150.710007 -5.876943 3702.850098
v 165.813004 -7.370039 3864.800049
v 191.899994 -10.150629 3862.320068
v 158.945007 -6.492189 3677.199951
v 191.899994 -10.150670 4113.270020
v 180.195999 -8.970808 4038.510010
v 151.440002 -6.058800 4113.270020
v 130.936005 -5.615430 4113.270020
v 145.513000 -5.868650 3867.649902
v 131.404999 -4.900751 4055.219971
v 130.878998 -7.558075 4023.949951
v 147.369995 -6.732815 4017.149902
v 191.899994 -10.150591 3626.899902
v 130.298004 -7.242483 4007.750000
v 130.444000 -6.218340 3990.260010
v 128.964996 -3.835770 3928.709961
v 129.617996 -3.315099 3919.330078
v 130.408997 -5.655203 3947.810059
v 166.513000 -7.291996 3657.080078
v 173.889008 -8.172654 3643.919922
v 129.882996 -5.121684 3767.189941
vn -0.1396 0.9889 -0.0506
vn 0.1047 0.9944 -0.0133
vn 0.1059 0.9943 0.0102
vn 0.1006 0.9949 -0.0001
vn 0.0216 0.9993 -0.0306
vn 0.0741 0.9972 0.0024
vn 0.0919 0.9958 -0.0006
vn 0.0537 0.9949 -0.0854
vn -0.0042 0.9939 0.1105
vn 0.0900 0.9959 0.0000
vn 0.1003 0.9950 0.0000
vn 0.0875 0.9961 0.0130
vn -0.0332 0.9994 0.0062
vn 0.4366 0.8979 0.0562
vn 0.0648 0.9979 0.0050
vn 0.2633 0.9620 0.0717
vn 0.1279 0.9917 -0.0097
vn -0.0414 0.9989 0.0209
vn 0.3645 0.9289 0.0662
vn 0.0839 0.9964 0.0131
vn 0.0985 0.9951 -0.0114
vn 0.1407 0.8035 0.5785
vn 0.1388 0.9901 0.0189
vn 0.1174 0.9931 0.0047
vn -0.0378 0.9988 -0.0297
usemtl None
s off
f 1//1 2//1 3//1
f 4//2 5//2 2//2
f 2//3 6//3 3//3
f 7//4 8//4 9//4
f 10//5 9//5 8//5
f 4//6 2//6 11//6
f 5//7 11//7 8//7
f 12//8 8//8 13//8
f 14//9 13//9 8//9
f 15//10 2//10 5//10
f 7//11 5//11 8//11
f 10//12 8//12 12//12
f 16//13 14//13 11//13
f 16//14 11//14 17//14
f 11//15 14//15 8//15
f 18//16 20//16 19//16
f 19//17 11//17 2//17
f 16//18 13//18 14//18
f 11//19 19//19 20//19
f 11//20 20//20 17//20
f 15//21 22//21 21//21
f 4//22 11//22 5//22
f 2//23 15//23 6//23
f 6//24 15//24 21//24
f 23//25 2//25 1//25
