# Blender v2.79 (sub 0) OBJ File: ''
# www.blender.org
mtllib my_crack_surf1_560.mtl
o my_crack_surf1_560
v 170.949005 -7.610275 4081.580078
v 185.707001 -10.017669 4105.040039
v 173.794006 -8.003600 4113.270020
v 191.899994 -10.150670 4113.270020
v 178.723007 -8.934449 3430.300049
v 177.431000 -8.360621 3447.770020
v 130.468002 -4.946867 3421.080078
v 191.899994 -10.150540 3316.600098
v 184.942001 -11.005437 3294.659912
v 144.253998 -8.857626 3290.000000
v 131.404999 -4.900751 4055.219971
v 130.936005 -5.615430 4113.270020
v 180.195999 -8.970808 4038.510010
v 139.018005 -7.194887 3356.840088
v 140.197998 -7.853432 3325.379883
v 176.686996 -8.980048 3363.870117
v 162.962006 -6.570693 3457.179932
v 191.899994 -10.150577 3544.350098
v 167.095001 -6.927166 3472.600098
v 131.326996 -2.994108 3487.080078
v 146.697006 -5.095674 3523.679932
v 130.649994 -5.521774 3463.419922
v 185.776993 -10.110144 3334.750000
v 171.376007 -8.072859 3488.100098
v 179.158997 -11.141236 3290.000000
v 189.681000 -10.904236 3290.000000
v 188.281998 -10.316337 3297.629883
v 188.126007 -10.385337 3295.909912
v 185.690002 -9.860250 4113.270020
v 151.440002 -6.058930 4113.270020
v 189.707001 -10.450938 3300.000000
v 191.899994 -10.150537 3300.000000
v 130.878998 -7.554276 4023.949951
v 147.369995 -6.732815 4017.149902
v 161.537994 -7.168446 4026.110107
v 191.899994 -10.150631 3877.459961
v 128.942993 -3.193636 3598.739990
v 128.733002 -3.915533 3820.550049
v 130.296005 -7.199713 4007.770020
v 130.656998 -6.618742 3998.060059
v 134.164001 -6.701864 3402.399902
v 128.964005 -3.839050 3928.709961
v 129.617996 -3.311538 3919.330078
v 130.408005 -5.682323 3947.800049
v 139.304993 -7.439055 3346.340088
v 128.923996 -2.450055 3530.810059
v 136.358002 -6.753232 3391.330078
v 129.076996 -2.918509 3556.560059
v 145.378006 -6.423729 3985.199951
v 129.942001 -6.181547 3972.639893
v 147.311996 -6.032874 3890.620117
v 128.847000 -2.960204 3583.489990
v 130.477005 -5.824485 3409.469971
v 129.802002 -5.776241 3440.510010
vn -0.1650 -0.9863 0.0026
vn 0.5241 -0.7483 -0.4066
vn -0.0873 -0.9958 0.0263
vn -0.0592 -0.9966 0.0576
vn 0.4661 -0.8824 0.0635
vn -0.0875 -0.9961 -0.0130
vn -0.0509 -0.9985 0.0190
vn -0.1266 -0.9919 0.0042
vn -0.2699 -0.9616 0.0501
vn -0.3847 -0.9166 0.1089
vn -0.0539 -0.9983 0.0219
vn -0.0880 -0.9961 0.0006
vn -0.1228 -0.9924 -0.0000
vn -0.1132 -0.9936 0.0046
vn 0.7932 -0.5464 0.2688
vn -0.0649 -0.9919 0.1094
vn -0.1333 -0.9897 0.0518
vn -0.1542 -0.9879 0.0186
vn -0.0467 -0.9987 0.0190
vn 0.0000 0.0000 1.0000
vn -0.1680 -0.9848 0.0451
vn 0.1427 -0.9820 0.1238
vn 0.0225 -0.9997 0.0012
vn -0.0467 -0.9988 -0.0135
vn 0.1357 -0.9907 -0.0000
vn -0.0538 -0.9949 0.0853
vn 0.0040 -0.9939 -0.1103
vn 0.4851 -0.3838 -0.7858
vn -0.1003 -0.9950 -0.0000
vn -0.0404 -0.9989 0.0237
vn -0.0556 -0.9984 -0.0074
vn -0.0299 -0.9992 0.0251
vn -0.0681 -0.9977 0.0028
vn -0.0953 -0.9954 -0.0033
vn 0.0588 -0.9966 -0.0574
vn -0.0962 -0.9926 0.0742
vn -0.0602 -0.9971 0.0468
vn -0.2841 -0.9123 0.2949
vn -0.2665 -0.9611 -0.0726
vn 0.2223 -0.9746 0.0287
vn -0.1303 -0.9906 0.0427
vn -0.0471 -0.9989 -0.0047
vn -0.1603 -0.9866 -0.0286
vn -0.1177 -0.9929 -0.0174
vn 0.3791 -0.9092 -0.1719
vn -0.0181 -0.9992 -0.0359
vn -0.0017 -0.9999 -0.0171
vn 0.0401 -0.9989 -0.0233
vn -0.1404 -0.9901 0.0073
vn -0.6800 -0.7332 -0.0069
vn -0.1098 -0.9939 -0.0000
vn -0.0784 -0.9959 0.0461
vn -0.0590 -0.9982 0.0082
vn -0.1455 -0.9893 0.0043
vn -0.0925 -0.9929 0.0750
vn -0.0477 -0.9989 0.0021
vn 0.1825 -0.9829 0.0229
vn -0.0935 -0.9956 -0.0053
vn 0.1121 -0.9937 0.0032
vn 0.4574 -0.8289 -0.3221
vn -0.0653 -0.9978 0.0063
vn -0.1602 -0.9840 -0.0775
vn -0.0757 -0.9971 0.0018
vn 0.0007 -0.9998 -0.0201
vn -0.1157 -0.9933 -0.0068
vn -0.0670 -0.9940 0.0860
vn -0.0312 -0.9994 0.0145
vn -0.0176 -0.9998 0.0118
vn -0.0474 -0.9979 -0.0442
usemtl None
s off
f 1//1 2//1 3//1
f 2//2 1//2 4//2
f 5//3 6//3 7//3
f 8//4 10//4 9//4
f 8//5 6//5 5//5
f 11//6 13//6 12//6
f 14//7 15//7 16//7
f 4//8 1//8 13//8
f 17//9 18//9 19//9
f 20//10 22//10 21//10
f 23//11 16//11 15//11
f 17//12 19//12 21//12
f 17//13 6//13 18//13
f 18//13 6//13 8//13
f 21//14 24//14 18//14
f 16//15 23//15 8//15
f 9//16 10//16 25//16
f 26//17 27//17 28//17
f 2//18 29//18 3//18
f 4//19 29//19 2//19
f 3//20 30//20 12//20
f 27//21 26//21 31//21
f 26//22 28//22 9//22
f 26//23 9//23 25//23
f 15//24 8//24 23//24
f 32//25 8//25 31//25
f 11//26 33//26 13//26
f 34//27 13//27 33//27
f 34//28 35//28 13//28
f 4//29 13//29 36//29
f 8//30 15//30 10//30
f 3//31 12//31 1//31
f 1//32 12//32 13//32
f 8//33 5//33 16//33
f 37//34 36//34 38//34
f 39//35 40//35 34//35
f 41//36 5//36 7//36
f 35//37 34//37 40//37
f 35//38 40//38 13//38
f 42//39 43//39 44//39
f 14//40 45//40 15//40
f 21//41 18//41 46//41
f 47//42 5//42 41//42
f 24//43 21//43 19//43
f 18//44 48//44 46//44
f 24//45 19//45 18//45
f 13//46 40//46 49//46
f 40//47 50//47 49//47
f 39//48 34//48 33//48
f 38//49 51//49 43//49
f 48//50 37//50 52//50
f 37//51 18//51 36//51
f 36//52 43//52 51//52
f 47//53 14//53 5//53
f 46//54 20//54 21//54
f 41//55 7//55 53//55
f 16//56 5//56 14//56
f 9//57 28//57 27//57
f 36//58 51//58 38//58
f 9//59 31//59 8//59
f 27//60 31//60 9//60
f 44//61 36//61 49//61
f 44//62 43//62 36//62
f 49//63 36//63 13//63
f 49//64 50//64 44//64
f 48//65 18//65 37//65
f 54//66 6//66 17//66
f 54//67 17//67 21//67
f 54//68 21//68 22//68
f 54//69 7//69 6//69
