# Blender v2.79 (sub 0) OBJ File: ''
# www.blender.org
mtllib my_crack_surf1_325.mtl
o my_crack_surf1_325
v 128.850006 -3.550131 3874.979980
v 191.899994 -10.150619 3801.750000
v 128.923004 -3.870680 3684.330078
v 191.899994 -10.150670 4113.270020
v 185.707001 -10.017669 4105.040039
v 181.906998 -9.289927 4098.080078
v 151.440002 -6.058930 4113.270020
v 172.098007 -8.030009 4045.969971
v 131.404999 -4.900751 4055.219971
v 130.936005 -5.615430 4113.270020
v 147.369995 -6.732815 4017.149902
v 130.444000 -6.218340 3990.260010
v 176.751007 -8.948828 3972.770020
v 130.878998 -7.558075 4023.949951
v 128.964996 -3.834940 3928.709961
v 129.617996 -3.312319 3919.330078
v 130.408997 -5.655043 3947.810059
v 163.901993 -6.167847 3603.469971
v 153.656998 -5.127471 3625.629883
v 191.899994 -10.150582 3576.409912
v 147.626999 -4.279593 3644.239990
v 141.087997 -4.528268 3669.159912
v 181.274994 -8.809354 3581.459961
v 169.115997 -6.861266 3594.149902
vn -0.1022 -0.9948 0.0016
vn 0.3757 -0.8779 -0.2970
vn -0.1233 -0.9917 -0.0364
vn -0.1065 -0.9943 -0.0000
vn -0.0796 -0.9967 -0.0129
vn -0.0534 -0.9985 0.0145
vn -0.1004 -0.9932 0.0595
vn 0.2156 -0.9761 0.0260
vn -0.0571 -0.9947 0.0855
vn 0.0232 -0.9976 -0.0648
vn -0.0216 -0.9995 0.0226
vn 0.0334 -0.9986 -0.0401
vn -0.1070 -0.9943 -0.0025
vn -0.2622 -0.9623 -0.0719
vn -0.0690 -0.9976 -0.0111
vn -0.0623 -0.9980 0.0086
vn -0.0271 -0.9963 -0.0812
vn -0.0638 -0.9979 -0.0132
vn -0.1724 -0.9845 -0.0335
vn -0.1302 -0.9915 -0.0000
vn -0.1356 -0.9908 0.0012
vn -0.1073 -0.9942 -0.0038
vn -0.1271 -0.9919 0.0075
vn -0.0722 -0.9973 -0.0146
vn -0.0501 -0.9985 -0.0231
vn -0.0972 -0.9935 0.0594
vn -0.1514 -0.9884 -0.0111
usemtl None
s off
f 1//1 3//1 2//1
f 4//2 5//2 6//2
f 7//3 6//3 5//3
f 4//4 8//4 2//4
f 9//5 8//5 10//5
f 11//6 12//6 13//6
f 5//7 4//7 7//7
f 2//8 8//8 13//8
f 9//9 14//9 8//9
f 11//10 8//10 14//10
f 7//11 10//11 8//11
f 14//12 12//12 11//12
f 2//13 13//13 1//13
f 15//14 16//14 17//14
f 8//15 4//15 6//15
f 13//16 8//16 11//16
f 13//17 17//17 16//17
f 13//18 12//18 17//18
f 18//19 20//19 19//19
f 20//20 2//20 19//20
f 2//21 21//21 19//21
f 8//22 6//22 7//22
f 1//23 13//23 16//23
f 22//24 2//24 3//24
f 22//25 21//25 2//25
f 23//26 20//26 24//26
f 18//27 24//27 20//27
