# Blender v2.79 (sub 0) OBJ File: ''
# www.blender.org
mtllib my_crack_surf1_65.mtl
o my_crack_surf1_65
v 138.641998 -5.987531 4060.800049
v 131.242004 -5.581223 4069.689941
v 130.936005 -5.650080 4113.270020
v 191.899994 -10.150670 4113.270020
v 185.707001 -10.017669 4105.040039
v 181.906998 -9.289927 4098.080078
v 151.438995 -6.063610 4113.270020
v 149.341995 -6.572992 3940.330078
v 155.845001 -6.762399 3918.500000
v 191.899994 -10.150630 3866.610107
v 143.880997 -6.315224 4015.800049
v 168.080002 -7.537574 3890.260010
v 180.602997 -8.998931 3874.350098
vn -0.0572 -0.9984 -0.0020
vn 0.3757 -0.8779 -0.2970
vn -0.1232 -0.9917 -0.0364
vn -0.1411 -0.9894 -0.0335
vn -0.0202 -0.9998 0.0035
vn -0.0890 -0.9960 -0.0030
vn -0.1003 -0.9932 0.0594
vn -0.0893 -0.9960 -0.0031
vn -0.0441 -0.9990 0.0093
vn -0.0858 -0.9963 -0.0000
vn -0.1057 -0.9944 -0.0009
vn -0.1431 -0.9891 -0.0349
vn -0.0843 -0.9961 0.0251
usemtl None
s off
f 1//1 3//1 2//1
f 4//2 5//2 6//2
f 7//3 6//3 5//3
f 8//4 9//4 10//4
f 3//5 1//5 7//5
f 10//6 11//6 8//6
f 5//7 4//7 7//7
f 11//8 10//8 1//8
f 7//9 1//9 10//9
f 10//10 4//10 6//10
f 10//11 6//11 7//11
f 10//12 9//12 12//12
f 10//13 12//13 13//13
