# Blender v2.79 (sub 0) OBJ File: ''
# www.blender.org
mtllib my_crack_surf1_185.mtl
o my_crack_surf1_185
v 191.899994 -10.150670 4113.270020
v 185.707001 -10.017669 4105.040039
v 181.906998 -9.289927 4098.080078
v 151.440002 -6.058170 4113.270020
v 191.899994 -10.150656 4028.870117
v 191.899994 -10.150606 3723.729980
v 184.725998 -9.392054 3886.040039
v 140.858994 -5.344382 3816.159912
v 128.800995 -4.887666 3842.100098
v 131.404999 -4.900751 4055.219971
v 130.878998 -7.557706 4023.949951
v 147.059006 -6.727672 4002.080078
v 130.936005 -5.615610 4113.270020
v 128.962997 -3.844120 3928.709961
v 130.408997 -5.656063 3947.810059
v 129.612000 -3.353448 3919.300049
v 183.166000 -9.244665 3718.879883
v 191.899994 -10.150604 3711.139893
v 175.216995 -8.106357 3724.100098
v 155.819000 -6.152191 3752.879883
vn 0.3757 -0.8779 -0.2970
vn -0.1233 -0.9917 -0.0364
vn -0.1052 -0.9945 -0.0000
vn -0.0690 -0.9975 -0.0145
vn -0.1005 -0.9932 0.0595
vn -0.0492 -0.9951 0.0854
vn -0.0371 -0.9972 -0.0653
vn -0.0921 -0.9957 -0.0130
vn -0.0216 -0.9990 0.0381
vn -0.1600 -0.9838 -0.0812
vn -0.1453 -0.9875 -0.0615
vn -0.0858 -0.9963 -0.0000
vn 0.1448 -0.9870 0.0697
vn -0.1032 -0.9947 -0.0000
vn -0.1209 -0.9921 0.0323
vn -0.0965 -0.9951 0.0208
vn -0.0960 -0.9951 -0.0243
vn -0.0815 -0.9966 -0.0066
vn -0.1070 -0.9943 -0.0031
vn -0.1103 -0.9939 -0.0002
vn -0.0752 -0.9972 -0.0015
vn -0.1219 -0.9924 -0.0148
usemtl None
s off
f 1//1 2//1 3//1
f 4//2 3//2 2//2
f 5//3 7//3 6//3
f 8//4 7//4 9//4
f 2//5 1//5 4//5
f 10//6 11//6 5//6
f 12//7 5//7 11//7
f 13//8 10//8 5//8
f 4//9 13//9 5//9
f 14//10 7//10 15//10
f 14//11 16//11 7//11
f 5//12 1//12 3//12
f 7//13 12//13 11//13
f 17//14 18//14 6//14
f 17//15 6//15 19//15
f 9//16 7//16 16//16
f 7//17 11//17 15//17
f 8//18 20//18 7//18
f 5//19 3//19 4//19
f 6//20 7//20 20//20
f 7//21 5//21 12//21
f 6//22 20//22 19//22
