# Blender v2.79 (sub 0) OBJ File: ''
# www.blender.org
mtllib my_crack_surf1_395.mtl
o my_crack_surf1_395
v 143.927002 -6.187802 4064.290039
v 131.404999 -4.900751 4055.219971
v 130.936005 -5.615430 4113.270020
v 178.841003 -8.836352 3757.209961
v 178.841003 -8.348339 3742.120117
v 128.917999 -3.703291 3625.870117
v 191.899994 -10.150670 4113.270020
v 185.707001 -10.017669 4105.040039
v 181.906998 -9.289927 4098.080078
v 173.794006 -8.003150 4113.270020
v 130.444000 -6.218340 3990.260010
v 191.899994 -10.150663 4073.399902
v 169.072998 -7.597303 3517.879883
v 191.899994 -10.150569 3491.870117
v 178.283997 -9.100561 3503.909912
v 130.878998 -7.558075 4023.949951
v 128.731995 -3.920303 3820.550049
v 163.153000 -6.523406 3531.290039
v 128.964996 -3.834910 3928.709961
v 129.617996 -3.312228 3919.330078
v 130.408997 -5.655043 3947.810059
v 191.899994 -10.150591 3627.639893
v 144.431000 -5.339693 3576.899902
v 139.690002 -4.723555 3590.850098
v 139.139008 -4.695940 3617.560059
v 151.399002 -5.709960 3562.060059
v 154.593002 -5.528997 3545.000000
vn -0.0929 -0.9956 -0.0130
vn -0.0177 -0.9993 -0.0323
vn 0.3757 -0.8779 -0.2970
vn -0.1726 -0.9849 -0.0087
vn -0.0853 -0.9962 0.0160
vn 0.0428 -0.9900 0.1348
vn -0.1175 -0.9904 0.0724
vn -0.1635 -0.9828 0.0863
vn -0.0978 -0.9952 -0.0001
vn -0.0991 -0.9951 -0.0012
vn 0.2308 -0.9721 -0.0416
vn -0.0414 -0.9972 0.0616
vn -0.2622 -0.9623 -0.0719
vn -0.0858 -0.9963 -0.0000
vn -0.1252 -0.9921 -0.0000
vn -0.1083 -0.9941 0.0071
vn 0.0997 -0.9914 -0.0843
vn -0.0460 -0.9989 -0.0132
vn -0.1016 -0.9948 -0.0062
vn -0.1026 -0.9947 -0.0011
vn -0.1001 -0.9950 -0.0000
vn -0.3882 -0.9211 -0.0298
vn -0.0849 -0.9963 -0.0150
vn -0.1268 -0.9919 0.0072
vn -0.1019 -0.9948 0.0040
vn -0.0556 -0.9984 -0.0031
vn -0.0708 -0.9972 -0.0238
vn -0.1186 -0.9929 -0.0020
vn -0.3576 -0.9271 -0.1125
vn -0.0851 -0.9963 0.0150
usemtl None
s off
f 1//1 3//1 2//1
f 4//2 6//2 5//2
f 7//3 8//3 9//3
f 10//4 9//4 8//4
f 1//5 11//5 12//5
f 13//6 15//6 14//6
f 8//7 7//7 10//7
f 2//8 16//8 1//8
f 17//9 4//9 12//9
f 17//10 6//10 4//10
f 16//11 11//11 1//11
f 18//12 13//12 14//12
f 19//13 20//13 21//13
f 12//14 7//14 9//14
f 22//15 18//15 14//15
f 23//16 22//16 24//16
f 12//17 21//17 20//17
f 12//18 11//18 21//18
f 25//19 22//19 6//19
f 25//20 24//20 22//20
f 4//21 22//21 12//21
f 4//22 5//22 22//22
f 26//23 22//23 23//23
f 12//24 20//24 17//24
f 5//25 6//25 22//25
f 10//26 3//26 1//26
f 26//27 27//27 22//27
f 22//28 27//28 18//28
f 12//29 9//29 10//29
f 1//30 12//30 10//30
