# Blender v2.79 (sub 0) OBJ File: ''
# www.blender.org
mtllib my_crack_surf1_115.mtl
o my_crack_surf1_115
v 191.899994 -10.150670 4113.270020
v 185.707001 -10.017669 4105.040039
v 181.906998 -9.289927 4098.080078
v 151.440994 -6.054840 4113.270020
v 141.554993 -5.597224 3888.790039
v 191.899994 -10.150616 3783.570068
v 163.891998 -6.938062 3818.820068
v 130.936005 -5.620390 4113.270020
v 131.404999 -4.900751 4055.219971
v 129.925003 -5.816757 3972.649902
v 130.873001 -7.430655 4024.000000
v 147.059006 -6.727672 4002.080078
v 130.354996 -3.927929 3921.209961
v 135.936005 -5.058978 3911.689941
v 130.404007 -5.549803 3946.679932
v 180.283997 -9.080128 3795.199951
vn 0.3757 -0.8779 -0.2970
vn -0.1234 -0.9917 -0.0363
vn -0.1497 -0.9883 -0.0288
vn -0.0756 -0.9971 -0.0130
vn -0.1550 -0.9875 -0.0282
vn -0.1005 -0.9931 0.0596
vn -0.0209 -0.9856 0.1680
vn -0.1555 -0.9844 0.0824
vn 0.0049 -0.9996 -0.0285
vn -0.0743 -0.9972 0.0004
vn -0.2958 -0.9534 -0.0601
vn -0.0858 -0.9963 -0.0000
vn 0.0891 -0.9954 0.0339
vn -0.0044 -0.9962 0.0873
vn -0.1892 -0.9810 -0.0437
vn -0.1067 -0.9942 -0.0122
vn -0.0845 -0.9964 0.0027
usemtl None
s off
f 1//1 2//1 3//1
f 4//2 3//2 2//2
f 5//3 7//3 6//3
f 8//4 9//4 3//4
f 6//5 11//5 10//5
f 2//6 1//6 4//6
f 3//7 4//7 8//7
f 9//8 11//8 3//8
f 12//9 3//9 11//9
f 3//10 12//10 6//10
f 13//11 14//11 15//11
f 6//12 1//12 3//12
f 6//13 12//13 11//13
f 7//14 16//14 6//14
f 6//15 15//15 14//15
f 6//16 10//16 15//16
f 5//17 6//17 14//17
