# Blender v2.79 (sub 0) OBJ File: ''
# www.blender.org
mtllib my_crack_surf1_90.mtl
o my_crack_surf1_90
v 191.899994 -10.150617 3786.949951
v 168.261002 -7.388172 3820.479980
v 191.899994 -10.150665 4085.100098
v 148.697006 -6.188064 3891.989990
v 172.098007 -8.030009 4045.969971
v 135.565994 -5.896521 3991.250000
v 131.307999 -6.255048 4040.689941
v 130.936005 -5.629070 4113.270020
v 137.843002 -6.131457 3971.739990
v 151.440994 -6.054320 4113.270020
v 130.373993 -5.824352 4004.590088
v 182.858002 -9.367119 3796.780029
v 173.416000 -7.975401 3810.699951
v 153.320007 -6.277310 3868.030029
v 191.899994 -10.150670 4113.270020
v 160.132996 -6.764156 3841.620117
v 138.496994 -5.608544 3951.179932
vn 0.1161 0.9932 0.0000
vn 0.0523 0.9986 0.0040
vn 0.0748 0.9972 0.0037
vn 0.0446 0.9990 -0.0084
vn -0.5034 0.8613 -0.0691
vn 0.0206 0.9932 -0.1148
vn 0.0421 0.9991 0.0109
vn 0.1184 0.9929 -0.0061
vn 0.0801 0.9967 0.0135
vn 0.0417 0.9991 0.0108
vn -0.0826 0.9845 -0.1545
vn 0.1598 0.9868 0.0272
vn 0.1007 0.9949 0.0000
vn 0.0873 0.9962 0.0042
vn 0.2430 0.9695 0.0324
vn 0.1246 0.9922 0.0061
usemtl None
s off
f 1//1 2//1 3//1
f 4//2 6//2 5//2
f 3//3 2//3 4//3
f 7//4 8//4 5//4
f 4//5 9//5 6//5
f 3//6 8//6 10//6
f 6//7 7//7 5//7
f 5//8 3//8 4//8
f 3//9 5//9 8//9
f 11//10 7//10 6//10
f 12//11 13//11 1//11
f 4//12 2//12 14//12
f 15//13 3//13 10//13
f 14//14 2//14 16//14
f 17//15 9//15 4//15
f 1//16 13//16 2//16
