# Blender v2.79 (sub 0) OBJ File: ''
# www.blender.org
mtllib my_crack_surf1_350.mtl
o my_crack_surf1_350
v 191.899994 -10.150670 4113.270020
v 185.707001 -10.017669 4105.040039
v 181.906998 -9.289927 4098.080078
v 151.440002 -6.058930 4113.270020
v 191.899994 -10.150619 3801.750000
v 172.098007 -8.030009 4045.969971
v 131.404999 -4.900751 4055.219971
v 130.936005 -5.615430 4113.270020
v 147.369995 -6.732815 4017.149902
v 130.444000 -6.218340 3990.260010
v 176.751007 -8.948828 3972.770020
v 149.832001 -5.378730 3624.679932
v 144.130997 -4.947024 3642.810059
v 159.792007 -6.339517 3601.510010
v 130.878998 -7.558075 4023.949951
v 128.731995 -3.920712 3820.550049
v 128.899994 -4.074330 3684.060059
v 139.406006 -5.058147 3668.750000
v 129.617996 -3.312258 3919.330078
v 128.964996 -3.834920 3928.709961
v 130.408997 -5.655043 3947.810059
v 191.899994 -10.150579 3556.699951
v 182.216003 -9.402931 3564.379883
v 170.781998 -7.854113 3579.050049
vn 0.3757 -0.8779 -0.2970
vn -0.1233 -0.9917 -0.0364
vn -0.1065 -0.9943 -0.0000
vn -0.0796 -0.9967 -0.0129
vn -0.0534 -0.9985 0.0145
vn -0.1004 -0.9932 0.0595
vn 0.2156 -0.9761 0.0260
vn -0.0916 -0.9958 -0.0051
vn -0.1020 -0.9948 -0.0026
vn -0.0571 -0.9947 0.0855
vn 0.0232 -0.9976 -0.0648
vn -0.0216 -0.9995 0.0226
vn -0.0979 -0.9952 0.0010
vn -0.0944 -0.9955 -0.0008
vn 0.0334 -0.9986 -0.0401
vn -0.1151 -0.9933 -0.0032
vn -0.2622 -0.9623 -0.0719
vn -0.0690 -0.9976 -0.0111
vn -0.0623 -0.9980 0.0086
vn -0.0271 -0.9963 -0.0812
vn -0.0638 -0.9979 -0.0132
vn -0.0588 -0.9982 -0.0150
vn -0.1179 -0.9930 -0.0000
vn -0.1073 -0.9942 -0.0038
vn -0.0961 -0.9953 0.0070
vn 0.0169 -0.9929 0.1180
vn -0.0773 -0.9966 0.0294
usemtl None
s off
f 1//1 2//1 3//1
f 4//2 3//2 2//2
f 1//3 6//3 5//3
f 7//4 6//4 8//4
f 9//5 10//5 11//5
f 2//6 1//6 4//6
f 5//7 6//7 11//7
f 12//8 5//8 13//8
f 12//9 14//9 5//9
f 7//10 15//10 6//10
f 9//11 6//11 15//11
f 4//12 8//12 6//12
f 16//13 17//13 5//13
f 18//14 5//14 17//14
f 15//15 10//15 9//15
f 5//16 11//16 19//16
f 20//17 19//17 21//17
f 6//18 1//18 3//18
f 11//19 6//19 9//19
f 11//20 21//20 19//20
f 11//21 10//21 21//21
f 18//22 13//22 5//22
f 14//23 22//23 5//23
f 6//24 3//24 4//24
f 5//25 19//25 16//25
f 23//26 22//26 24//26
f 14//27 24//27 22//27
