# Blender v2.79 (sub 0) OBJ File: ''
# www.blender.org
mtllib my_crack_surf1_360.mtl
o my_crack_surf1_360
v 191.899994 -10.150589 3620.060059
v 161.147995 -6.415395 3587.070068
v 148.279999 -5.172480 3624.060059
v 191.899994 -10.150670 4113.270020
v 180.195999 -8.970808 4038.510010
v 170.949005 -7.610275 4081.580078
v 130.936005 -5.615430 4113.270020
v 147.369995 -6.732815 4017.149902
v 130.444000 -6.218340 3990.260010
v 161.537994 -7.168446 4026.110107
v 142.763000 -4.862544 3642.959961
v 138.871002 -4.810217 3668.459961
v 151.440002 -6.058930 4113.270020
v 179.621002 -8.487986 3596.500000
v 131.404999 -4.900751 4055.219971
v 130.878998 -7.558075 4023.949951
v 128.964996 -3.834920 3928.709961
v 129.617996 -3.312248 3919.330078
v 130.408997 -5.655043 3947.810059
v 128.850006 -3.550011 3874.979980
v 128.897003 -4.098470 3683.899902
v 191.899994 -10.150578 3553.239990
v 178.910995 -9.058061 3564.570068
v 170.498993 -7.926642 3574.699951
vn 0.1140 0.9935 0.0063
vn 0.1266 0.9919 -0.0042
vn 0.0299 0.9992 -0.0251
vn 0.0310 0.9995 -0.0004
vn 0.1141 0.9934 0.0154
vn 0.0216 0.9991 -0.0356
vn 0.1032 0.9945 0.0164
vn 0.0962 0.9954 -0.0001
vn 0.0537 0.9949 -0.0854
vn -0.0042 0.9939 0.1105
vn -0.4851 0.3838 0.7858
vn 0.1003 0.9950 0.0000
vn 0.0875 0.9961 0.0130
vn -0.0334 0.9986 0.0401
vn 0.2622 0.9623 0.0719
vn 0.1457 0.9893 -0.0078
vn -0.1672 0.9822 0.0854
vn 0.0153 0.9998 0.0133
vn 0.0928 0.9957 -0.0028
vn 0.1069 0.9943 0.0007
vn 0.0838 0.9965 0.0000
vn 0.1149 0.9932 0.0173
vn 0.1413 0.9889 0.0457
vn 0.1006 0.9948 0.0132
vn 0.1225 0.9924 -0.0091
vn 0.1249 0.9918 -0.0267
vn 0.3958 0.9073 -0.1423
usemtl None
s off
f 1//1 2//1 3//1
f 4//2 5//2 6//2
f 7//3 6//3 5//3
f 8//4 10//4 9//4
f 11//5 12//5 1//5
f 6//6 7//6 13//6
f 14//7 2//7 1//7
f 1//8 10//8 5//8
f 15//9 5//9 16//9
f 8//10 16//10 5//10
f 8//11 5//11 10//11
f 4//12 1//12 5//12
f 7//13 5//13 15//13
f 16//14 8//14 9//14
f 17//15 19//15 18//15
f 20//16 18//16 10//16
f 10//17 18//17 19//17
f 10//18 19//18 9//18
f 21//19 20//19 1//19
f 1//20 20//20 10//20
f 22//21 23//21 1//21
f 3//22 11//22 1//22
f 21//23 1//23 12//23
f 4//24 6//24 13//24
f 23//25 24//25 1//25
f 24//26 2//26 14//26
f 14//27 1//27 24//27
