# Blender v2.79 (sub 0) OBJ File: ''
# www.blender.org
mtllib my_crack_surf1_220.mtl
o my_crack_surf1_220
v 144.940002 -5.624151 3749.520020
v 162.751007 -7.007921 3686.409912
v 151.360001 -6.086906 3723.500000
v 191.899994 -10.150670 4113.270020
v 185.707001 -10.017669 4105.040039
v 181.906998 -9.289927 4098.080078
v 151.440002 -6.058660 4113.270020
v 130.444000 -6.218330 3990.260010
v 130.878998 -7.558056 4023.949951
v 145.378006 -6.423729 3985.199951
v 191.899994 -10.150631 3877.459961
v 130.936005 -5.615450 4113.270020
v 131.404999 -4.900751 4055.219971
v 128.709000 -4.915047 3783.899902
v 130.298004 -7.242473 4007.750000
v 168.938995 -7.787899 3674.739990
v 191.899994 -10.150594 3646.750000
v 179.205994 -9.399756 3660.560059
v 128.964005 -3.837340 3928.709961
v 129.617004 -3.320498 3919.330078
v 130.408997 -5.655473 3947.810059
v 128.848999 -3.557871 3874.979980
v 185.490005 -10.235295 3649.929932
vn -0.1159 -0.9932 -0.0109
vn 0.3757 -0.8779 -0.2970
vn -0.1233 -0.9917 -0.0364
vn -0.0271 -0.9989 -0.0394
vn -0.7116 -0.6421 -0.2851
vn -0.0024 -0.9994 0.0335
vn -0.1004 -0.9932 0.0595
vn -0.0216 -0.9997 -0.0125
vn -0.0666 -0.9977 -0.0109
vn 0.6618 -0.7487 -0.0383
vn 0.2770 -0.9115 0.3042
vn -0.2653 -0.9615 -0.0715
vn 0.1529 -0.9849 0.0811
vn -0.0858 -0.9963 -0.0000
vn -0.1046 -0.9944 0.0150
vn -0.1043 -0.9945 0.0071
vn -0.1592 -0.9843 -0.0763
vn 0.0731 -0.9899 0.1210
vn -0.0879 -0.9961 -0.0030
vn -0.0604 -0.9976 0.0346
vn -0.1072 -0.9942 -0.0000
vn -0.1059 -0.9944 -0.0009
vn -0.0878 -0.9960 -0.0131
vn -0.0720 -0.9974 0.0050
usemtl None
s off
f 1//1 3//1 2//1
f 4//2 5//2 6//2
f 7//3 6//3 5//3
f 8//4 10//4 9//4
f 9//5 10//5 11//5
f 11//6 10//6 8//6
f 5//7 4//7 7//7
f 7//8 12//8 13//8
f 14//9 1//9 11//9
f 15//10 8//10 9//10
f 16//11 18//11 17//11
f 19//12 20//12 21//12
f 11//13 13//13 9//13
f 11//14 4//14 6//14
f 22//15 14//15 11//15
f 22//16 11//16 20//16
f 21//17 20//17 11//17
f 23//18 17//18 18//18
f 1//19 2//19 11//19
f 2//20 16//20 17//20
f 11//21 2//21 17//21
f 11//22 6//22 7//22
f 11//23 8//23 21//23
f 13//24 11//24 7//24
