# Blender v2.79 (sub 0) OBJ File: ''
# www.blender.org
mtllib my_crack_surf1_60.mtl
o my_crack_surf1_60
v 139.244995 -6.012621 4060.850098
v 131.248001 -5.533183 4069.719971
v 130.936005 -5.653300 4113.270020
v 142.391998 -6.006269 4048.620117
v 191.899994 -10.150631 3873.610107
v 145.940002 -6.412874 4016.449951
v 145.348007 -6.430512 4002.729980
v 151.438995 -6.066240 4113.270020
v 150.975998 -6.863667 3967.659912
v 157.270996 -6.930738 3920.270020
v 149.865005 -6.662389 3985.439941
v 191.899994 -10.150670 4113.270020
v 184.526001 -9.345122 3878.850098
v 171.216003 -7.710034 3893.530029
vn 0.0634 0.9980 0.0032
vn 0.6768 0.7151 0.1745
vn 0.0680 0.9977 -0.0042
vn 0.0201 0.9998 -0.0037
vn 0.0638 0.9979 -0.0056
vn 0.0450 0.9989 -0.0094
vn 0.1102 0.9938 0.0132
vn 0.1532 0.9878 0.0268
vn 0.0633 0.9980 -0.0073
vn 0.1004 0.9949 0.0000
vn 0.0842 0.9958 -0.0345
vn 0.1774 0.9821 0.0639
usemtl None
s off
f 1//1 2//1 3//1
f 4//2 1//2 5//2
f 5//3 7//3 6//3
f 3//4 8//4 1//4
f 6//5 4//5 5//5
f 8//6 5//6 1//6
f 9//7 5//7 10//7
f 5//8 11//8 7//8
f 9//9 11//9 5//9
f 5//10 8//10 12//10
f 5//11 13//11 14//11
f 5//12 14//12 10//12
