# Blender v2.79 (sub 0) OBJ File: ''
# www.blender.org
mtllib my_crack_surf1_260.mtl
o my_crack_surf1_260
v 141.992004 -5.160806 3717.600098
v 146.942993 -5.385083 3702.070068
v 191.899994 -10.150599 3680.620117
v 170.949005 -7.610275 4081.580078
v 185.707001 -10.017669 4105.040039
v 173.794006 -8.003011 4113.270020
v 191.899994 -10.150670 4113.270020
v 129.123993 -4.341473 3760.090088
v 184.723007 -9.195320 3870.879883
v 128.848999 -3.552951 3874.979980
v 184.725998 -9.392054 3886.040039
v 131.404999 -4.900751 4055.219971
v 130.936005 -5.615430 4113.270020
v 150.427994 -5.659620 3682.080078
v 151.440002 -6.058850 4113.270020
v 130.878998 -7.558075 4023.949951
v 183.313995 -9.648231 3621.610107
v 191.899994 -10.150589 3615.919922
v 174.442993 -8.551011 3629.639893
v 128.964996 -3.835360 3928.709961
v 129.617996 -3.313719 3919.330078
v 130.408997 -5.655123 3947.810059
v 136.897995 -5.048080 3747.699951
v 164.123993 -6.685584 3645.840088
vn -0.1161 -0.9930 -0.0227
vn -0.1650 -0.9863 0.0026
vn 0.5241 -0.7483 -0.4066
vn -0.1000 -0.9950 0.0066
vn -0.1052 -0.9945 -0.0000
vn -0.4288 -0.9033 -0.0116
vn -0.0599 -0.9981 -0.0128
vn -0.1078 -0.9942 -0.0051
vn -0.1211 -0.9926 0.0005
vn -0.1175 -0.9904 0.0724
vn -0.0000 0.0000 1.0000
vn -0.1251 -0.9884 0.0861
vn -0.0901 -0.9959 0.0016
vn -0.0556 -0.9984 -0.0074
vn -0.0131 -0.9999 0.0082
vn 0.1148 -0.9593 0.2579
vn -0.2629 -0.9622 -0.0718
vn -0.1053 -0.9944 0.0072
vn -0.1550 -0.9849 -0.0767
vn -0.0961 -0.9951 -0.0243
vn -0.1104 -0.9938 -0.0150
vn -0.1081 -0.9941 -0.0127
vn -0.1238 -0.9923 -0.0000
vn -0.0984 -0.9951 -0.0050
vn -0.0022 -0.9936 0.1130
vn -0.1014 -0.9948 -0.0129
usemtl None
s off
f 1//1 2//1 3//1
f 4//2 5//2 6//2
f 5//3 4//3 7//3
f 8//4 9//4 10//4
f 7//5 11//5 3//5
f 3//6 11//6 9//6
f 12//7 4//7 13//7
f 3//8 2//8 14//8
f 7//9 4//9 11//9
f 5//10 7//10 6//10
f 6//11 15//11 13//11
f 12//12 16//12 4//12
f 8//13 3//13 9//13
f 6//14 13//14 4//14
f 4//15 16//15 11//15
f 17//16 18//16 19//16
f 20//17 21//17 22//17
f 11//18 21//18 10//18
f 11//19 22//19 21//19
f 11//20 16//20 22//20
f 23//21 1//21 3//21
f 14//22 24//22 3//22
f 24//23 18//23 3//23
f 23//24 3//24 8//24
f 24//25 19//25 18//25
f 10//26 9//26 11//26
