# Blender v2.79 (sub 0) OBJ File: ''
# www.blender.org
mtllib my_crack_surf1_215.mtl
o my_crack_surf1_215
v 146.671997 -5.691181 3750.840088
v 159.052994 -6.348813 3703.510010
v 153.235001 -6.152147 3724.870117
v 191.899994 -10.150670 4113.270020
v 185.707001 -10.017669 4105.040039
v 181.906998 -9.289927 4098.080078
v 151.440002 -6.058610 4113.270020
v 147.369995 -6.732815 4017.149902
v 130.444000 -6.218320 3990.260010
v 191.899994 -10.150596 3657.689941
v 129.945999 -6.077117 3972.679932
v 131.404999 -4.900751 4055.219971
v 130.878998 -7.558046 4023.949951
v 130.936005 -5.615460 4113.270020
v 130.298004 -7.242453 4007.750000
v 128.964005 -3.838040 3928.709961
v 129.615997 -3.323019 3919.330078
v 130.408997 -5.655583 3947.810059
v 128.841995 -3.607421 3874.989990
v 128.703003 -4.966066 3784.100098
v 164.473999 -6.963381 3686.969971
v 180.294006 -9.053937 3666.729980
v 170.059998 -7.631739 3676.260010
vn 0.3958 -0.9110 0.1162
vn 0.3757 -0.8779 -0.2970
vn -0.1233 -0.9917 -0.0364
vn -0.0380 -0.9993 0.0048
vn -0.0928 -0.9957 -0.0054
vn -0.1004 -0.9932 0.0595
vn -0.3033 -0.9490 0.0857
vn 0.0520 -0.9986 0.0048
vn -0.0216 -0.9997 -0.0125
vn 0.0616 -0.9964 -0.0578
vn -0.2665 -0.9612 -0.0713
vn -0.0858 -0.9963 -0.0000
vn -0.0126 -0.9998 0.0150
vn 0.0413 -0.9989 -0.0209
vn -0.0150 -0.9999 0.0076
vn -0.3755 -0.9245 -0.0653
vn -0.1655 -0.9860 -0.0198
vn -0.0358 -0.9965 0.0750
vn -0.1553 -0.9877 -0.0194
vn -0.1169 -0.9931 -0.0014
vn -0.1057 -0.9944 -0.0005
vn -0.1500 -0.9884 -0.0255
vn -0.0906 -0.9959 0.0037
vn -0.0768 -0.9970 0.0077
usemtl None
s off
f 1//1 3//1 2//1
f 4//2 5//2 6//2
f 7//3 6//3 5//3
f 8//4 9//4 10//4
f 10//5 9//5 11//5
f 5//6 4//6 7//6
f 12//7 13//7 7//7
f 8//8 7//8 13//8
f 7//9 14//9 12//9
f 15//10 9//10 8//10
f 16//11 17//11 18//11
f 10//12 4//12 6//12
f 19//13 20//13 1//13
f 15//14 8//14 13//14
f 10//15 7//15 8//15
f 10//16 18//16 17//16
f 10//17 11//17 18//17
f 21//18 22//18 10//18
f 22//19 21//19 23//19
f 2//20 21//20 10//20
f 10//21 6//21 7//21
f 10//22 1//22 2//22
f 10//23 19//23 1//23
f 19//24 10//24 17//24
