# Blender v2.79 (sub 0) OBJ File: ''
# www.blender.org
mtllib my_crack_surf1_265.mtl
o my_crack_surf1_265
v 140.761002 -5.127486 3717.320068
v 145.593002 -5.308023 3701.820068
v 191.899994 -10.150588 3611.429932
v 170.949005 -7.610275 4081.580078
v 185.707001 -10.017669 4105.040039
v 173.794006 -8.003040 4113.270020
v 136.186996 -5.016810 3743.570068
v 191.899994 -10.150670 4113.270020
v 184.725998 -9.392054 3886.040039
v 131.404999 -4.900751 4055.219971
v 130.936005 -5.615430 4113.270020
v 180.195999 -8.970808 4038.510010
v 128.850006 -3.552191 3874.979980
v 147.369995 -6.732815 4017.149902
v 130.878998 -7.558075 4023.949951
v 151.440002 -6.058870 4113.270020
v 186.772003 -10.048689 3614.139893
v 171.841003 -7.993251 3629.330078
v 150.082993 -5.611070 3681.520020
v 128.964996 -3.835250 3928.709961
v 129.617996 -3.313379 3919.330078
v 130.408997 -5.655103 3947.810059
v 156.255997 -6.187276 3661.510010
v 129.072998 -4.335022 3755.070068
vn -0.2043 -0.9775 -0.0523
vn -0.1650 -0.9863 0.0026
vn -0.1386 -0.9901 -0.0200
vn 0.5241 -0.7483 -0.4066
vn -0.1052 -0.9945 -0.0000
vn -0.0875 -0.9961 -0.0130
vn -0.1266 -0.9919 0.0042
vn -0.0755 -0.9971 0.0069
vn 0.0660 -0.9971 0.0390
vn -0.1175 -0.9904 0.0724
vn 0.0000 0.0000 1.0000
vn -0.0537 -0.9949 0.0854
vn 0.0042 -0.9939 -0.1105
vn -0.1040 -0.9946 0.0000
vn -0.0685 -0.9977 0.0007
vn -0.0991 -0.9951 -0.0002
vn -0.0556 -0.9984 -0.0074
vn -0.0299 -0.9992 0.0251
vn 0.1039 -0.9669 0.2330
vn -0.1316 -0.9912 -0.0143
vn -0.2626 -0.9622 -0.0718
vn -0.1054 -0.9944 0.0072
vn -0.1550 -0.9849 -0.0767
vn -0.0961 -0.9951 -0.0243
vn -0.1239 -0.9923 -0.0096
vn -0.0852 -0.9963 0.0063
vn -0.1007 -0.9949 0.0071
usemtl None
s off
f 1//1 2//1 3//1
f 4//2 5//2 6//2
f 7//3 1//3 3//3
f 5//4 4//4 8//4
f 8//5 9//5 3//5
f 10//6 12//6 11//6
f 8//7 4//7 12//7
f 13//8 7//8 3//8
f 14//9 15//9 9//9
f 5//10 8//10 6//10
f 6//11 16//11 11//11
f 10//12 15//12 12//12
f 14//13 12//13 15//13
f 3//14 9//14 13//14
f 14//15 9//15 12//15
f 12//16 9//16 8//16
f 6//17 11//17 4//17
f 4//18 11//18 12//18
f 17//19 3//19 18//19
f 19//20 3//20 2//20
f 20//21 21//21 22//21
f 9//22 21//22 13//22
f 9//23 22//23 21//23
f 9//24 15//24 22//24
f 19//25 23//25 3//25
f 7//26 13//26 24//26
f 23//27 18//27 3//27
