# Blender v2.79 (sub 0) OBJ File: ''
# www.blender.org
mtllib my_crack_surf1_285.mtl
o my_crack_surf1_285
v 128.852005 -3.534151 3874.969971
v 130.408997 -5.655063 3947.810059
v 191.899994 -10.150584 3590.540039
v 191.899994 -10.150665 4085.100098
v 180.195999 -8.970808 4038.510010
v 170.949005 -7.610275 4081.580078
v 130.936005 -5.615430 4113.270020
v 147.369995 -6.732815 4017.149902
v 130.444000 -6.218340 3990.260010
v 129.945999 -6.077107 3972.679932
v 151.440002 -6.058900 4113.270020
v 131.404999 -4.900751 4055.219971
v 130.878998 -7.558075 4023.949951
v 161.537994 -7.168446 4026.110107
v 130.298004 -7.242493 4007.750000
v 128.964996 -3.835050 3928.709961
v 129.617996 -3.312689 3919.330078
v 173.794006 -8.003091 4113.270020
v 191.899994 -10.150670 4113.270020
v 162.522003 -6.800231 3627.739990
v 153.662994 -5.916903 3645.040039
v 145.960999 -5.321718 3670.179932
v 128.914001 -3.948230 3685.060059
v 175.414001 -8.296368 3605.449951
vn 0.2106 0.9773 0.0240
vn 0.1213 0.9926 -0.0053
vn 0.0299 0.9992 -0.0251
vn 0.0370 0.9993 -0.0041
vn 0.0977 0.9952 0.0052
vn 0.0216 0.9991 -0.0356
vn 0.0537 0.9949 -0.0854
vn -0.0042 0.9939 0.1105
vn -0.4851 0.3838 0.7858
vn 0.0962 0.9954 -0.0001
vn 0.1003 0.9950 0.0000
vn 0.0875 0.9961 0.0130
vn -0.0616 0.9964 0.0578
vn 0.2624 0.9623 0.0719
vn 0.0336 0.9994 -0.0045
vn 0.1178 0.9930 0.0000
vn -0.0414 0.9989 0.0209
vn 0.9927 0.1195 -0.0177
vn 0.1391 0.9901 0.0207
vn 0.0866 0.9962 0.0046
vn 0.1046 0.9945 0.0001
vn 0.1354 0.9906 0.0180
vn 0.0784 0.9969 -0.0021
vn 0.1890 0.9818 0.0202
vn 0.1201 0.9928 0.0015
vn 0.1079 0.9942 -0.0043
usemtl None
s off
f 1//1 2//1 3//1
f 4//2 5//2 6//2
f 7//3 6//3 5//3
f 8//4 3//4 9//4
f 3//5 10//5 9//5
f 6//6 7//6 11//6
f 12//7 5//7 13//7
f 8//8 13//8 5//8
f 8//9 5//9 14//9
f 14//10 5//10 3//10
f 5//11 4//11 3//11
f 7//12 5//12 12//12
f 15//13 8//13 9//13
f 16//14 2//14 17//14
f 3//15 8//15 14//15
f 18//16 19//16 4//16
f 15//17 13//17 8//17
f 2//18 1//18 17//18
f 3//19 20//19 21//19
f 18//20 6//20 11//20
f 22//21 1//21 3//21
f 22//22 3//22 21//22
f 23//23 1//23 22//23
f 3//24 2//24 10//24
f 18//25 4//25 6//25
f 24//26 20//26 3//26
