# Blender v2.79 (sub 0) OBJ File: ''
# www.blender.org
mtllib my_crack_surf1_170.mtl
o my_crack_surf1_170
v 191.899994 -10.150608 3734.120117
v 128.839005 -3.862291 3874.100098
v 129.501007 -4.849397 3846.389893
v 191.899994 -10.150670 4113.270020
v 145.378006 -6.423729 3985.199951
v 176.751007 -8.948828 3972.770020
v 144.065994 -5.507212 3817.610107
v 130.444000 -6.217270 3990.260010
v 131.404999 -4.900751 4055.219971
v 130.878998 -7.556766 4023.949951
v 151.440002 -6.057770 4113.270020
v 130.936005 -5.615810 4113.270020
v 147.022003 -5.169099 3800.679932
v 168.835999 -7.664722 3755.040039
v 173.714005 -8.376592 3938.500000
v 128.964005 -3.840530 3928.709961
v 130.408997 -5.655623 3947.810059
v 129.604996 -3.394159 3919.270020
v 178.229996 -8.436790 3741.239990
v 152.893005 -6.162457 3784.939941
vn -0.0218 -0.9991 0.0351
vn -0.0802 -0.9968 0.0001
vn -0.4313 -0.8802 -0.1982
vn 0.2406 -0.6332 0.7357
vn -0.3032 -0.9491 0.0857
vn 0.0759 -0.9971 -0.0007
vn -0.0215 -0.9997 -0.0125
vn -0.1022 -0.9948 0.0056
vn -0.1862 -0.9811 -0.0521
vn 0.3900 -0.9195 -0.0499
vn -0.0271 -0.9989 -0.0394
vn -0.0971 -0.9953 -0.0000
vn -0.0813 -0.9928 -0.0882
vn -0.0892 -0.9946 -0.0531
vn -0.1175 -0.9930 0.0123
vn -0.0655 -0.9978 -0.0131
vn -0.1473 -0.9881 -0.0450
vn -0.0998 -0.9950 -0.0002
vn 0.0797 -0.9925 0.0924
vn -0.1006 -0.9949 0.0076
vn -0.0631 -0.9979 -0.0111
usemtl None
s off
f 1//1 2//1 3//1
f 4//2 5//2 6//2
f 7//3 1//3 3//3
f 6//4 5//4 8//4
f 9//5 10//5 11//5
f 5//6 11//6 10//6
f 11//7 12//7 9//7
f 13//8 14//8 1//8
f 13//9 1//9 7//9
f 15//10 4//10 6//10
f 10//11 8//11 5//11
f 4//12 15//12 1//12
f 16//13 15//13 17//13
f 16//14 18//14 15//14
f 2//15 15//15 18//15
f 15//16 8//16 17//16
f 1//17 14//17 19//17
f 1//18 15//18 2//18
f 13//19 20//19 14//19
f 5//20 4//20 11//20
f 6//21 8//21 15//21
