# Blender v2.79 (sub 0) OBJ File: ''
# www.blender.org
mtllib my_crack_surf1_195.mtl
o my_crack_surf1_195
v 130.936005 -5.615520 4113.270020
v 141.199997 -5.937217 4090.629883
v 131.404999 -4.900751 4055.219971
v 173.794006 -8.002220 4113.270020
v 155.018005 -6.155258 4101.720215
v 191.899994 -10.150602 3700.719971
v 130.878998 -7.557936 4023.949951
v 159.953995 -6.501987 3845.860107
v 138.445999 -5.745959 3798.939941
v 129.613998 -3.336258 3919.320068
v 130.298004 -7.242323 4007.750000
v 130.444000 -6.218240 3990.260010
v 148.373001 -5.664765 3776.010010
v 155.677002 -6.383041 3753.419922
v 128.964005 -3.841320 3928.709961
v 130.408997 -5.655993 3947.810059
v 191.899994 -10.150670 4113.270020
v 187.776001 -9.641014 3703.219971
v 181.757004 -9.002543 3707.909912
v 128.671005 -4.748723 3824.669922
v 169.619995 -7.511917 3724.770020
vn 0.0595 0.9981 0.0128
vn 0.3202 0.8669 -0.3819
vn 0.4779 0.8744 0.0832
vn 0.0678 0.9976 -0.0150
vn 0.0199 0.9998 -0.0052
vn 0.1897 0.9780 -0.0863
vn 0.0532 0.9985 0.0145
vn -0.6617 0.7488 0.0383
vn 0.0892 0.9960 -0.0028
vn 0.2713 0.9599 0.0707
vn 0.2706 0.9601 0.0704
vn 0.1178 0.9930 0.0000
vn 0.1885 0.9814 0.0366
vn 0.0987 0.9951 -0.0033
vn 0.0194 0.9998 -0.0044
vn 0.0739 0.9972 0.0131
vn 0.1807 0.9785 0.0990
vn 0.0141 0.9999 0.0096
vn 0.0610 0.9980 -0.0155
vn 0.0555 0.9961 0.0691
vn 0.1578 0.9867 0.0379
vn 0.1026 0.9946 -0.0141
usemtl None
s off
f 1//1 2//1 3//1
f 2//2 5//2 4//2
f 6//3 8//3 7//3
f 9//4 10//4 8//4
f 5//5 2//5 1//5
f 3//6 4//6 7//6
f 2//7 4//7 3//7
f 11//8 7//8 12//8
f 13//9 8//9 14//9
f 15//10 16//10 8//10
f 15//11 8//11 10//11
f 6//12 4//12 17//12
f 8//13 12//13 7//13
f 14//14 8//14 6//14
f 6//15 7//15 4//15
f 8//16 16//16 12//16
f 18//17 19//17 6//17
f 13//18 9//18 8//18
f 20//19 10//19 9//19
f 4//20 5//20 1//20
f 14//21 6//21 21//21
f 19//22 21//22 6//22
