# Blender v2.79 (sub 0) OBJ File: ''
# www.blender.org
mtllib my_crack_surf1_530.mtl
o my_crack_surf1_530
v 170.184998 -9.626201 3318.010010
v 159.524994 -9.484921 3319.419922
v 156.296005 -8.466355 3347.790039
v 180.246994 -9.446986 3353.149902
v 159.158005 -6.993239 4044.050049
v 191.899994 -10.150656 4028.870117
v 173.794006 -8.003591 4113.270020
v 191.899994 -10.150670 4113.270020
v 185.707001 -10.017669 4105.040039
v 181.906998 -9.289927 4098.080078
v 165.552994 -6.964767 3422.050049
v 162.981003 -6.557503 3457.139893
v 147.076996 -6.263909 3430.540039
v 191.899994 -10.150553 3392.939941
v 191.899994 -10.150621 3816.889893
v 159.938995 -6.547896 3845.830078
v 189.710999 -10.380837 3300.000000
v 176.751007 -8.948828 3972.770020
v 165.882996 -10.296637 3296.560059
v 147.369995 -6.732815 4017.149902
v 178.371994 -8.886940 3993.090088
v 131.332001 -3.021258 3487.060059
v 130.235992 -2.365512 3509.860107
v 141.742996 -5.552683 3453.129883
v 188.281998 -10.316337 3297.629883
v 189.714005 -10.271037 3293.989990
v 185.690002 -9.860240 4113.270020
v 189.690994 -10.763436 3290.000000
v 185.770996 -11.015635 3290.000000
v 185.925995 -11.003736 3296.270020
v 191.899994 -10.150537 3300.000000
v 131.404999 -4.900751 4055.219971
v 130.878998 -7.555665 4023.949951
v 164.429001 -7.111927 3787.719971
v 128.817993 -3.793890 3747.889893
v 130.936005 -5.615430 4113.270020
v 151.440002 -6.058940 4113.270020
v 128.733002 -3.916662 3820.550049
v 168.278000 -10.600436 3290.000000
v 167.746002 -10.492237 3292.830078
v 130.656998 -6.568131 3998.020020
v 130.296005 -7.202823 4007.770020
v 128.968002 -3.817900 3928.709961
v 130.412003 -5.579583 3947.830078
v 129.617996 -3.311289 3919.340088
v 129.947006 -6.023687 3972.699951
v 128.917999 -2.488325 3530.800049
v 153.764999 -7.668541 3381.250000
v 130.356995 -4.690903 3456.909912
v 161.339005 -9.753519 3309.169922
vn -0.0086 -0.9994 0.0349
vn -0.0449 -0.9988 0.0180
vn -0.0936 -0.9956 0.0053
vn 0.3757 -0.8779 -0.2970
vn -0.1726 -0.9850 -0.0088
vn -0.0337 -0.9994 0.0091
vn -0.1200 -0.9928 -0.0000
vn -0.1391 -0.9903 0.0013
vn -0.1120 -0.9937 -0.0000
vn -0.0356 -0.9994 0.0033
vn -0.0182 -0.9997 -0.0165
vn -0.0083 -0.9994 0.0329
vn -0.0747 -0.9972 -0.0070
vn -0.1744 -0.9845 0.0199
vn -0.0556 -0.9974 0.0448
vn -0.9266 -0.2652 0.2667
vn -0.0148 -0.9997 -0.0183
vn -0.1542 -0.9879 0.0186
vn -0.0467 -0.9987 0.0190
vn 0.0640 -0.9955 0.0702
vn 0.2828 -0.9592 -0.0052
vn -0.1275 -0.9917 0.0132
vn 0.1046 -0.9945 -0.0000
vn -0.0408 -0.9955 0.0852
vn 0.0388 -0.9989 -0.0267
vn -0.3859 -0.8817 0.2715
vn 0.3200 -0.9405 0.1142
vn -0.0803 -0.9967 -0.0129
vn -0.0216 -0.9997 0.0111
vn -0.0988 -0.9950 -0.0106
vn -0.0352 -0.9994 0.0028
vn -0.0812 -0.9967 0.0062
vn -0.0237 -0.9991 0.0337
vn 0.0618 -0.9961 -0.0626
vn -0.3846 -0.9225 0.0335
vn 0.4050 -0.9072 -0.1142
vn 0.0758 -0.9959 -0.0486
vn -0.1266 -0.9920 0.0003
vn -0.0858 -0.9963 -0.0000
vn -0.1823 -0.9831 -0.0141
vn -0.0973 -0.9951 0.0165
vn 0.0152 -0.9996 -0.0219
vn -0.0896 -0.9960 0.0069
vn -0.0867 -0.9962 0.0038
vn 0.0403 -0.9989 -0.0232
vn -0.0836 -0.9961 0.0270
vn 0.0210 -0.9916 0.1275
vn -0.0937 -0.9956 -0.0060
vn -0.1319 -0.9912 -0.0107
vn -0.0225 -0.9989 0.0411
vn -0.0509 -0.9985 0.0194
vn 0.4105 -0.8706 -0.2712
vn -0.0431 -0.9988 0.0226
vn -0.0455 -0.9988 0.0204
vn -0.0317 -0.9801 0.1959
vn -0.0565 -0.9968 0.0570
vn -0.0908 -0.9959 -0.0018
vn -0.0744 -0.9972 -0.0065
vn -0.0210 -0.9991 0.0355
vn -0.0100 -0.9997 0.0244
vn 0.0046 -0.9998 -0.0178
vn -0.0737 -0.9972 -0.0105
usemtl None
s off
f 1//1 3//1 2//1
f 4//2 3//2 1//2
f 5//3 6//3 7//3
f 8//4 9//4 10//4
f 7//5 10//5 9//5
f 11//6 12//6 13//6
f 14//7 15//7 11//7
f 15//8 12//8 11//8
f 15//9 6//9 16//9
f 14//10 1//10 17//10
f 18//11 16//11 6//11
f 19//12 17//12 1//12
f 6//13 20//13 21//13
f 22//14 24//14 23//14
f 23//15 24//15 12//15
f 4//16 1//16 14//16
f 17//17 25//17 26//17
f 9//18 27//18 7//18
f 8//19 27//19 9//19
f 28//20 25//20 29//20
f 29//21 25//21 30//21
f 6//22 21//22 18//22
f 14//23 17//23 31//23
f 32//24 33//24 5//24
f 20//25 5//25 33//25
f 34//26 35//26 15//26
f 28//27 26//27 25//27
f 36//28 32//28 5//28
f 37//29 36//29 5//29
f 38//30 34//30 15//30
f 19//31 29//31 30//31
f 14//32 13//32 4//32
f 39//33 29//33 40//33
f 41//34 20//34 42//34
f 21//35 16//35 18//35
f 43//36 20//36 44//36
f 43//37 45//37 20//37
f 15//38 23//38 12//38
f 6//39 8//39 10//39
f 6//40 10//40 7//40
f 16//41 38//41 15//41
f 41//42 46//42 20//42
f 45//43 38//43 16//43
f 37//44 5//44 7//44
f 42//45 20//45 33//45
f 6//46 5//46 20//46
f 13//47 14//47 11//47
f 35//48 47//48 15//48
f 16//49 20//49 45//49
f 19//50 40//50 29//50
f 24//51 13//51 12//51
f 17//52 30//52 25//52
f 48//53 4//53 13//53
f 48//54 3//54 4//54
f 17//55 19//55 30//55
f 49//56 24//56 22//56
f 35//57 34//57 38//57
f 20//58 16//58 21//58
f 19//59 1//59 50//59
f 1//60 2//60 50//60
f 20//61 46//61 44//61
f 15//62 47//62 23//62
