# Blender v2.79 (sub 0) OBJ File: ''
# www.blender.org
mtllib my_crack_surf1_460.mtl
o my_crack_surf1_460
v 151.440002 -6.058940 4113.270020
v 131.404999 -4.900751 4055.219971
v 130.936005 -5.615430 4113.270020
v 191.899994 -10.150670 4113.270020
v 185.707001 -10.017669 4105.040039
v 181.906998 -9.289927 4098.080078
v 165.136002 -7.171998 3420.600098
v 176.223999 -8.830034 3398.229980
v 159.544998 -6.434120 3436.600098
v 191.899994 -10.150572 3514.070068
v 184.723007 -9.195320 3870.879883
v 191.899994 -10.150665 4085.100098
v 184.725998 -9.392054 3886.040039
v 164.449005 -6.238373 3516.469971
v 167.959000 -7.228431 3502.570068
v 178.408997 -8.882751 3507.929932
v 144.983002 -5.299700 3499.169922
v 146.858002 -5.398678 3487.219971
v 135.138000 -4.518207 3537.320068
v 130.878998 -7.558075 4023.949951
v 130.444000 -6.218320 3990.260010
v 128.878998 -3.478502 3571.449951
v 128.731995 -3.920253 3820.550049
v 128.966003 -3.830100 3928.709961
v 129.617996 -3.311688 3919.330078
v 130.410004 -5.642313 3947.810059
v 154.899002 -6.118133 3452.729980
v 170.886002 -8.052945 3407.969971
v 128.951996 -4.272119 3551.149902
v 191.899994 -10.150551 3383.379883
vn -0.0216 -0.9997 -0.0125
vn 0.3757 -0.8779 -0.2970
vn -0.1233 -0.9917 -0.0364
vn -0.1880 -0.9819 -0.0204
vn -0.1319 -0.9913 -0.0000
vn 0.2477 -0.9687 -0.0126
vn -0.1699 -0.9851 0.0273
vn -0.0906 -0.9947 0.0480
vn -0.0830 -0.9965 -0.0048
vn -0.0540 -0.9985 0.0065
vn -0.0942 -0.9956 0.0014
vn -0.1303 -0.9908 -0.0377
vn -0.1330 -0.9872 0.0883
vn -0.1004 -0.9932 0.0595
vn -0.1447 -0.9885 -0.0440
vn -0.3033 -0.9490 0.0858
vn -0.0945 -0.9955 0.0008
vn -0.1052 -0.9945 -0.0000
vn -0.1069 -0.9943 -0.0018
vn -0.2627 -0.9622 -0.0714
vn -0.2983 -0.9054 0.3021
vn -0.1070 -0.9942 -0.0042
vn -0.0848 -0.9964 -0.0006
vn -0.1213 -0.9926 0.0019
vn 0.0056 -0.9999 0.0155
vn -0.1074 -0.9940 0.0204
vn -0.1548 -0.9850 -0.0763
vn -0.0841 -0.9964 -0.0135
vn -0.1054 -0.9944 0.0071
vn 0.0479 -0.9981 0.0392
vn -0.0425 -0.9988 0.0226
vn -0.2799 -0.9580 -0.0619
vn -0.1059 -0.9944 -0.0009
vn -0.0823 -0.9965 -0.0129
vn -0.0839 -0.9965 -0.0000
usemtl None
s off
f 1//1 3//1 2//1
f 4//2 5//2 6//2
f 1//3 6//3 5//3
f 7//4 8//4 9//4
f 10//5 12//5 11//5
f 12//6 13//6 11//6
f 14//7 15//7 16//7
f 14//8 17//8 15//8
f 17//9 18//9 15//9
f 14//10 19//10 17//10
f 10//11 16//11 8//11
f 20//12 21//12 13//12
f 14//13 16//13 10//13
f 5//14 4//14 1//14
f 22//15 14//15 10//15
f 2//16 20//16 1//16
f 10//17 11//17 23//17
f 13//18 12//18 4//18
f 22//19 10//19 23//19
f 24//20 25//20 26//20
f 16//21 15//21 18//21
f 16//22 18//22 27//22
f 13//23 4//23 6//23
f 16//24 27//24 8//24
f 1//25 20//25 13//25
f 28//26 8//26 7//26
f 13//27 26//27 25//27
f 13//28 21//28 26//28
f 13//29 25//29 23//29
f 22//30 29//30 19//30
f 14//31 22//31 19//31
f 27//32 9//32 8//32
f 13//33 6//33 1//33
f 13//34 23//34 11//34
f 8//35 30//35 10//35
