# Blender v2.79 (sub 0) OBJ File: ''
# www.blender.org
mtllib my_crack_surf1_235.mtl
o my_crack_surf1_235
v 148.820007 -5.872386 3722.219971
v 154.822998 -6.100044 3703.879883
v 169.134995 -7.546017 3665.340088
v 159.595001 -6.505410 3685.820068
v 147.369995 -6.732815 4017.149902
v 130.878998 -7.558065 4023.949951
v 159.945999 -6.502256 3845.850098
v 181.906998 -9.289927 4098.080078
v 173.794006 -8.002860 4113.270020
v 191.899994 -10.150670 4113.270020
v 131.404999 -4.900751 4055.219971
v 191.899994 -10.150663 4073.399902
v 151.871994 -6.635294 3771.899902
v 128.964996 -3.836180 3928.709961
v 129.617004 -3.316489 3919.330078
v 130.408997 -5.655273 3947.810059
v 128.307007 -5.096648 3793.100098
v 191.899994 -10.150593 3640.610107
v 181.983002 -9.089244 3646.719971
v 130.936005 -5.615440 4113.270020
v 129.718002 -4.417895 3772.530029
v 141.910995 -5.529090 3747.139893
vn -0.4897 -0.8590 -0.1496
vn -0.1393 -0.9901 -0.0146
vn 0.0510 -0.9987 0.0024
vn -0.1178 -0.9928 0.0212
vn -0.1118 -0.9900 0.0860
vn 0.0188 -0.9970 -0.0754
vn -0.4949 -0.8672 0.0556
vn -0.2640 -0.9618 -0.0716
vn -0.0858 -0.9963 -0.0000
vn -0.0685 -0.9976 -0.0064
vn -0.0690 -0.9975 0.0148
vn -0.2732 -0.9593 -0.0712
vn -0.1118 -0.9934 -0.0241
vn -0.0864 -0.9963 -0.0015
vn -0.0579 -0.9983 0.0081
vn -0.1137 -0.9935 -0.0000
vn -0.0969 -0.9952 0.0156
vn -0.0556 -0.9984 -0.0127
vn -0.0997 -0.9950 -0.0043
vn -0.1006 -0.9941 -0.0397
vn -0.3577 -0.9270 -0.1125
vn -0.0902 -0.9958 0.0127
vn 0.0517 -0.9985 -0.0185
vn -0.0857 -0.9963 -0.0100
usemtl None
s off
f 1//1 2//1 3//1
f 3//2 2//2 4//2
f 5//3 6//3 7//3
f 8//4 10//4 9//4
f 11//5 6//5 12//5
f 5//6 12//6 6//6
f 7//7 13//7 12//7
f 14//8 15//8 16//8
f 12//9 10//9 8//9
f 12//10 5//10 7//10
f 15//11 17//11 7//11
f 7//12 16//12 15//12
f 7//13 6//13 16//13
f 3//14 12//14 1//14
f 17//15 13//15 7//15
f 18//16 12//16 3//16
f 18//17 3//17 19//17
f 9//18 20//18 11//18
f 13//19 21//19 22//19
f 17//20 21//20 13//20
f 12//21 8//21 9//21
f 11//22 12//22 9//22
f 12//23 13//23 1//23
f 13//24 22//24 1//24
