# Blender v2.79 (sub 0) OBJ File: ''
# www.blender.org
mtllib my_crack_surf1_580.mtl
o my_crack_surf1_580
v 128.925003 -2.441235 3530.810059
v 150.705994 -5.799694 3644.629883
v 191.899994 -10.150599 3680.620117
v 161.244003 -7.633054 3397.500000
v 191.899994 -10.150553 3392.939941
v 165.475998 -7.173828 3422.110107
v 170.949005 -7.610275 4081.580078
v 191.899994 -10.150665 4085.100098
v 175.720001 -8.148639 4106.180176
v 185.707001 -10.017669 4105.040039
v 173.794006 -8.003600 4113.270020
v 191.899994 -10.150670 4113.270020
v 181.906998 -9.289927 4098.080078
v 128.975998 -3.215121 3626.709961
v 164.229996 -6.954870 3439.669922
v 130.274002 -5.989717 3420.600098
v 191.899994 -10.150537 3300.000000
v 189.326996 -10.264338 3307.639893
v 162.962006 -6.570693 3457.179932
v 130.264999 -6.858754 3400.250000
v 180.195999 -8.970808 4038.510010
v 130.936005 -5.615430 4113.270020
v 151.363998 -5.495069 3487.580078
v 131.453995 -3.460488 3487.100098
v 130.688004 -6.401314 3463.199951
v 151.440002 -6.058930 4113.270020
v 144.617996 -8.963216 3290.000000
v 174.893997 -8.466713 3394.879883
v 147.311996 -6.032874 3890.620117
v 128.733002 -3.917672 3820.550049
v 128.880997 -3.323751 3874.909912
v 191.899994 -10.150631 3877.459961
v 185.690002 -9.860250 4113.270020
v 130.669006 -6.465181 3382.310059
v 179.158997 -11.142336 3290.000000
v 189.707001 -10.444538 3300.000000
v 131.285995 -6.943292 3325.879883
v 131.182999 -7.466013 3335.649902
v 131.404999 -4.900751 4055.219971
v 130.878998 -7.554565 4023.949951
v 147.369995 -6.732815 4017.149902
v 161.537994 -7.168446 4026.110107
v 129.854004 -6.603799 3367.979980
v 130.675995 -6.545007 3357.479980
v 130.296005 -7.206003 4007.770020
v 130.656998 -6.660882 3998.100098
v 128.960999 -3.852930 3928.719971
v 129.617996 -3.313189 3919.330078
v 130.406998 -5.711523 3947.790039
v 145.378006 -6.423729 3985.199951
v 129.942001 -6.198947 3972.639893
v 130.235992 -2.352642 3509.899902
v 131.149002 -8.947508 3300.290039
v 133.363998 -8.905577 3296.689941
v 189.679001 -10.936136 3290.000000
v 134.623001 -8.882076 3290.000000
v 129.800003 -6.488800 3440.020020
vn -0.0954 -0.9954 -0.0111
vn -0.0771 -0.9965 0.0319
vn -0.1206 -0.9927 0.0017
vn -0.1873 -0.9818 -0.0308
vn 0.3757 -0.8779 -0.2970
vn -0.1842 -0.9829 -0.0022
vn -0.1116 -0.9937 -0.0080
vn -0.0340 -0.9994 0.0100
vn 0.0442 -0.9990 -0.0000
vn -0.1848 -0.9828 0.0082
vn -0.1119 -0.9937 -0.0000
vn -0.1372 -0.9905 0.0026
vn -0.0347 -0.9991 0.0246
vn -0.0212 -0.9989 0.0427
vn -0.1213 -0.9926 0.0053
vn -0.0299 -0.9992 0.0251
vn -0.1001 -0.9950 -0.0030
vn -0.1038 -0.9867 0.1247
vn -0.0872 -0.9962 -0.0049
vn -0.0349 -0.9993 0.0148
vn -0.1548 -0.9879 0.0112
vn -0.0935 -0.9956 -0.0053
vn -0.0980 -0.9952 0.0043
vn -0.1542 -0.9879 0.0186
vn -0.0467 -0.9987 0.0190
vn -0.0216 -0.9991 0.0356
vn -0.0387 -0.9990 -0.0228
vn 0.0418 -0.9988 0.0256
vn 0.1328 -0.9907 0.0300
vn -0.2905 -0.9553 -0.0542
vn -0.0538 -0.9949 0.0853
vn 0.0040 -0.9939 -0.1103
vn -0.0867 -0.9962 -0.0032
vn 0.4851 -0.3838 -0.7858
vn -0.1003 -0.9950 -0.0000
vn -0.0875 -0.9961 -0.0130
vn -0.0363 -0.9993 -0.0084
vn -0.0982 -0.9952 -0.0000
vn 0.0573 -0.9969 -0.0541
vn -0.0635 -0.9966 0.0519
vn -0.2877 -0.9093 0.3007
vn -0.2637 -0.9618 -0.0737
vn 0.0346 -0.9985 0.0429
vn -0.0858 -0.9963 -0.0000
vn -0.7887 0.0640 -0.6114
vn -0.0487 -0.9987 0.0124
vn -0.0164 -0.9992 -0.0370
vn -0.0627 -0.9978 0.0228
vn 0.0002 -0.9998 -0.0181
vn 0.0403 -0.9989 -0.0230
vn -0.1477 -0.9890 0.0027
vn -0.1377 -0.8904 -0.4338
vn -0.0784 -0.9959 0.0460
vn -0.1026 -0.9938 0.0428
vn -0.1412 -0.9900 0.0058
vn -0.0190 -0.9995 -0.0233
vn 0.0582 -0.9953 0.0776
vn 0.0057 -0.9439 0.3301
vn 0.0196 -0.9986 0.0490
vn -0.0081 -1.0000 -0.0050
vn -0.0973 -0.9952 -0.0103
vn -0.0643 -0.9979 0.0067
vn -0.1608 -0.9839 -0.0785
vn -0.0757 -0.9971 0.0018
vn -0.3143 -0.9161 0.2490
vn -0.0133 -0.9997 0.0210
vn -0.0173 -0.9994 0.0287
vn 0.0412 -0.9991 0.0022
vn -0.0138 -0.9996 -0.0260
vn 0.0014 -0.9998 -0.0196
vn -0.0627 -0.9943 0.0857
vn -0.1064 -0.9943 -0.0037
usemtl None
s off
f 1//1 3//1 2//1
f 4//2 5//2 6//2
f 7//3 8//3 9//3
f 10//4 11//4 9//4
f 12//5 10//5 13//5
f 9//6 13//6 10//6
f 2//7 14//7 1//7
f 6//8 15//8 16//8
f 17//9 5//9 18//9
f 19//10 15//10 3//10
f 5//11 3//11 6//11
f 3//12 15//12 6//12
f 6//13 16//13 4//13
f 20//14 4//14 16//14
f 8//15 7//15 21//15
f 22//16 21//16 7//16
f 23//17 19//17 3//17
f 24//18 25//18 23//18
f 9//19 26//19 7//19
f 18//20 28//20 27//20
f 29//21 31//21 30//21
f 30//22 32//22 29//22
f 28//23 18//23 5//23
f 10//24 33//24 11//24
f 12//25 33//25 10//25
f 7//26 26//26 22//26
f 28//27 20//27 34//27
f 35//28 36//28 18//28
f 36//29 17//29 18//29
f 37//30 27//30 38//30
f 39//31 40//31 21//31
f 41//32 21//32 40//32
f 11//33 26//33 9//33
f 41//34 42//34 21//34
f 8//35 21//35 32//35
f 22//36 39//36 21//36
f 43//37 44//37 28//37
f 3//38 32//38 30//38
f 45//39 46//39 41//39
f 42//40 41//40 46//40
f 42//41 46//41 21//41
f 47//42 48//42 49//42
f 44//43 38//43 27//43
f 8//44 12//44 13//44
f 8//45 13//45 9//45
f 43//46 28//46 34//46
f 21//47 46//47 50//47
f 27//48 28//48 44//48
f 46//49 51//49 50//49
f 45//50 41//50 40//50
f 31//51 29//51 48//51
f 28//52 5//52 4//52
f 32//53 48//53 29//53
f 52//54 24//54 23//54
f 52//55 23//55 3//55
f 53//56 54//56 27//56
f 53//57 27//57 37//57
f 28//58 4//58 20//58
f 35//59 55//59 36//59
f 56//60 27//60 54//60
f 3//61 1//61 52//61
f 49//62 32//62 50//62
f 49//63 48//63 32//63
f 50//64 32//64 21//64
f 3//65 14//65 2//65
f 57//66 15//66 19//66
f 57//67 19//67 23//67
f 57//68 23//68 25//68
f 57//69 16//69 15//69
f 50//70 51//70 49//70
f 18//71 27//71 35//71
f 3//72 30//72 14//72
