# Blender v2.79 (sub 0) OBJ File: ''
# www.blender.org
mtllib my_crack_surf1_160.mtl
o my_crack_surf1_160
v 191.899994 -10.150609 3742.719971
v 184.723007 -9.188701 3870.879883
v 191.899994 -10.150665 4085.100098
v 139.371994 -5.193036 3841.709961
v 128.893997 -4.677867 3850.250000
v 176.751007 -8.948828 3972.770020
v 178.348007 -8.745193 4004.419922
v 131.404999 -4.900751 4055.219971
v 130.878998 -7.555285 4023.949951
v 151.440994 -6.057450 4113.270020
v 129.945999 -6.074987 3972.679932
v 130.936005 -5.616030 4113.270020
v 173.714005 -8.376592 3938.500000
v 191.899994 -10.150670 4113.270020
v 165.582001 -7.387634 3771.179932
v 129.598999 -3.437038 3919.239990
v 130.408997 -5.659123 3947.800049
v 176.423996 -8.542122 3756.040039
vn 0.1328 0.9911 0.0000
vn 0.0707 0.9971 0.0266
vn 0.1989 0.9799 -0.0163
vn 0.3030 0.9491 -0.0857
vn -0.2104 0.9771 0.0320
vn 0.0215 0.9997 0.0125
vn 0.0613 0.9981 -0.0095
vn -0.1286 0.9913 0.0279
vn 0.5181 0.8547 -0.0316
vn 0.1032 0.9947 0.0000
vn 0.0838 0.9965 0.0017
vn 0.1026 0.9947 -0.0017
vn 0.0874 0.9960 -0.0188
vn 0.0785 0.9941 0.0751
vn 0.0664 0.9976 0.0179
vn 0.0993 0.9950 -0.0047
vn 0.1007 0.9949 0.0003
vn 0.0869 0.9962 0.0013
vn 0.0539 0.9985 0.0018
vn 0.1088 0.9940 0.0058
usemtl None
s off
f 1//1 2//1 3//1
f 2//2 4//2 5//2
f 3//3 6//3 7//3
f 8//4 10//4 9//4
f 11//5 9//5 10//5
f 10//6 8//6 12//6
f 11//7 10//7 7//7
f 13//8 6//8 3//8
f 13//9 7//9 6//9
f 7//10 14//10 3//10
f 13//11 3//11 2//11
f 1//12 15//12 2//12
f 2//13 5//13 16//13
f 13//14 16//14 17//14
f 13//15 17//15 11//15
f 18//16 15//16 1//16
f 7//17 10//17 14//17
f 4//18 2//18 15//18
f 7//19 13//19 11//19
f 2//20 16//20 13//20
