# Blender v2.79 (sub 0) OBJ File: ''
# www.blender.org
mtllib my_crack_surf1_110.mtl
o my_crack_surf1_110
v 131.404999 -4.900751 4055.219971
v 153.908005 -6.398184 4074.580078
v 131.365997 -5.934148 4040.860107
v 130.936005 -5.621880 4113.270020
v 172.205994 -7.718808 4098.979980
v 151.440994 -6.054490 4113.270020
v 191.899994 -10.150670 4113.270020
v 130.360992 -6.058490 3988.129883
v 130.869003 -7.344886 4024.030029
v 191.899994 -10.150617 3784.770020
v 130.287994 -7.035693 4007.830078
v 135.931000 -5.532159 3921.899902
v 130.897995 -5.191920 3930.560059
v 143.830994 -6.014474 3888.739990
v 161.347000 -6.825943 3828.469971
v 165.223007 -7.083562 3819.060059
v 181.330994 -9.165188 3796.020020
vn 0.1274 0.9893 -0.0715
vn 0.0554 0.9984 0.0128
vn 0.0551 0.9984 0.0127
vn 0.1007 0.9945 0.0305
vn 0.0210 0.9961 -0.0855
vn -0.9917 0.1275 0.0186
vn 0.4272 0.8617 -0.2737
vn 0.0695 0.9976 0.0000
vn 0.2010 0.9733 -0.1113
vn -0.6103 0.7913 0.0370
vn 0.0784 0.9969 0.0064
vn 0.0893 0.9960 0.0068
vn -0.5228 0.8524 0.0080
vn 0.1514 0.9880 0.0307
vn 0.1026 0.9947 0.0079
vn -0.0114 0.9951 -0.0979
vn 0.1670 0.9851 0.0418
usemtl None
s off
f 1//1 2//1 3//1
f 4//2 2//2 1//2
f 4//3 5//3 2//3
f 5//4 6//4 7//4
f 5//5 4//5 6//5
f 8//6 9//6 3//6
f 5//7 3//7 2//7
f 3//8 7//8 10//8
f 3//9 5//9 7//9
f 11//10 9//10 8//10
f 12//11 13//11 3//11
f 12//12 3//12 14//12
f 8//13 3//13 13//13
f 14//14 10//14 15//14
f 14//15 3//15 10//15
f 10//16 17//16 16//16
f 15//17 10//17 16//17
