# Blender v2.79 (sub 0) OBJ File: ''
# www.blender.org
mtllib my_crack_surf1_330.mtl
o my_crack_surf1_330
v 191.899994 -10.150597 3665.479980
v 191.899994 -10.150581 3571.590088
v 177.199005 -8.496723 3580.909912
v 128.850006 -3.550091 3874.979980
v 128.923004 -3.870680 3684.330078
v 191.899994 -10.150670 4113.270020
v 185.707001 -10.017669 4105.040039
v 181.906998 -9.289927 4098.080078
v 151.440002 -6.058930 4113.270020
v 191.899994 -10.150619 3801.750000
v 172.098007 -8.030009 4045.969971
v 131.404999 -4.900751 4055.219971
v 130.936005 -5.615430 4113.270020
v 130.878998 -7.558075 4023.949951
v 130.444000 -6.218340 3990.260010
v 168.406006 -7.101585 3592.570068
v 179.453003 -8.228016 3596.600098
v 128.964996 -3.834930 3928.709961
v 129.617996 -3.312299 3919.330078
v 130.408997 -5.655043 3947.810059
v 162.718994 -6.228627 3603.330078
v 153.621994 -5.624331 3625.570068
v 141.059998 -4.804018 3669.169922
v 147.632004 -5.123804 3643.879883
vn -0.1118 -0.9937 -0.0000
vn -0.0987 -0.9951 0.0016
vn 0.3757 -0.8779 -0.2970
vn -0.1233 -0.9917 -0.0364
vn -0.1065 -0.9943 -0.0000
vn -0.0796 -0.9967 -0.0129
vn 0.0099 -0.9992 -0.0399
vn -0.1004 -0.9932 0.0595
vn -0.0571 -0.9947 0.0855
vn -0.1134 -0.9930 0.0333
vn -0.0216 -0.9995 0.0226
vn -0.1039 -0.9946 0.0002
vn -0.2623 -0.9623 -0.0719
vn -0.0690 -0.9976 -0.0111
vn 0.1442 -0.9859 -0.0851
vn -0.0258 -0.9996 -0.0132
vn -0.1288 -0.9913 -0.0257
vn -0.1041 -0.9946 -0.0000
vn -0.2131 -0.9761 -0.0430
vn -0.1092 -0.9940 -0.0080
vn -0.1096 -0.9937 0.0227
vn -0.1073 -0.9942 -0.0038
vn -0.1328 -0.9911 0.0076
vn -0.1063 -0.9940 -0.0239
vn -0.1054 -0.9944 -0.0117
vn -0.7666 -0.6306 0.1209
usemtl None
s off
f 1//1 3//1 2//1
f 4//2 5//2 1//2
f 6//3 7//3 8//3
f 9//4 8//4 7//4
f 6//5 11//5 10//5
f 12//6 11//6 13//6
f 14//7 15//7 11//7
f 7//8 6//8 9//8
f 12//9 14//9 11//9
f 3//10 17//10 16//10
f 9//11 13//11 11//11
f 10//12 11//12 4//12
f 18//13 19//13 20//13
f 11//14 6//14 8//14
f 11//15 20//15 19//15
f 11//16 15//16 20//16
f 21//17 17//17 22//17
f 1//18 10//18 4//18
f 23//19 24//19 22//19
f 17//20 1//20 22//20
f 21//21 16//21 17//21
f 11//22 8//22 9//22
f 4//23 11//23 19//23
f 23//24 1//24 5//24
f 23//25 22//25 1//25
f 17//26 3//26 1//26
