# Blender v2.79 (sub 0) OBJ File: ''
# www.blender.org
mtllib my_crack_surf1_145.mtl
o my_crack_surf1_145
v 191.899994 -10.150670 4113.270020
v 185.707001 -10.017669 4105.040039
v 181.906998 -9.289927 4098.080078
v 151.440994 -6.056750 4113.270020
v 191.899994 -10.150656 4028.870117
v 128.764008 -4.278971 3874.340088
v 147.056000 -5.731727 3845.830078
v 151.983994 -5.897893 3824.060059
v 131.404999 -4.900751 4055.219971
v 130.878006 -7.548186 4023.949951
v 166.733002 -7.159587 3788.560059
v 156.589005 -6.194841 3810.500000
v 191.899994 -10.150612 3758.699951
v 176.237000 -8.131004 3772.639893
v 130.936005 -5.616670 4113.270020
v 130.444000 -6.209880 3990.260010
v 128.936005 -3.972840 3928.729980
v 129.548004 -3.760179 3919.010010
v 130.408997 -5.664103 3947.800049
v 185.597000 -9.341673 3762.120117
vn 0.3757 -0.8779 -0.2970
vn -0.1234 -0.9917 -0.0363
vn -0.0844 -0.9964 -0.0034
vn -0.0673 -0.9977 -0.0076
vn -0.1005 -0.9932 0.0596
vn -0.0493 -0.9952 0.0851
vn -0.0990 -0.9951 -0.0020
vn -0.1572 -0.9870 -0.0336
vn -0.0921 -0.9957 -0.0130
vn -0.0214 -0.9990 0.0382
vn -0.0394 -0.9985 -0.0392
vn -0.4297 -0.9018 -0.0468
vn -0.0858 -0.9963 -0.0000
vn -0.1264 -0.9920 0.0017
vn -0.0796 -0.9968 -0.0052
vn -0.1180 -0.9930 -0.0000
vn 0.0148 -0.9977 -0.0664
vn -0.0560 -0.9983 -0.0128
vn -0.1259 -0.9920 0.0137
vn -0.1071 -0.9942 -0.0031
usemtl None
s off
f 1//1 2//1 3//1
f 4//2 3//2 2//2
f 5//3 6//3 7//3
f 5//4 7//4 8//4
f 2//5 1//5 4//5
f 9//6 10//6 5//6
f 11//7 5//7 12//7
f 13//8 11//8 14//8
f 15//9 9//9 5//9
f 4//10 15//10 5//10
f 10//11 16//11 5//11
f 17//12 18//12 19//12
f 5//13 1//13 3//13
f 20//14 13//14 14//14
f 5//15 8//15 12//15
f 5//16 11//16 13//16
f 5//17 19//17 18//17
f 5//18 16//18 19//18
f 5//19 18//19 6//19
f 5//20 3//20 4//20
