# Blender v2.79 (sub 0) OBJ File: ''
# www.blender.org
mtllib my_crack_surf1_470.mtl
o my_crack_surf1_470
v 151.440002 -6.058940 4113.270020
v 131.404999 -4.900751 4055.219971
v 130.936005 -5.615430 4113.270020
v 191.899994 -10.150670 4113.270020
v 185.707001 -10.017669 4105.040039
v 181.906998 -9.289927 4098.080078
v 173.794006 -8.003150 4113.270020
v 151.998001 -5.565832 3451.590088
v 160.858002 -6.633577 3419.459961
v 191.899994 -10.150549 3368.959961
v 191.899994 -10.150572 3514.070068
v 184.723007 -9.195320 3870.879883
v 191.899994 -10.150665 4085.100098
v 184.725998 -9.392054 3886.040039
v 164.664001 -6.520113 3516.959961
v 142.007004 -4.838850 3496.719971
v 147.837006 -5.214536 3472.409912
v 130.298004 -7.242493 4007.750000
v 130.444000 -6.218320 3990.260010
v 128.901001 -3.331262 3571.419922
v 129.945999 -6.076777 3972.679932
v 130.878998 -7.558075 4023.949951
v 128.731995 -3.920243 3820.550049
v 184.164993 -9.886950 3375.120117
v 172.880997 -8.292903 3392.449951
v 128.966003 -3.830070 3928.709961
v 129.617996 -3.311658 3919.330078
v 130.410004 -5.642303 3947.810059
v 138.121994 -4.622353 3515.939941
v 167.811996 -7.560774 3404.969971
v 136.251007 -4.538353 3521.780029
v 128.854004 -4.133065 3527.189941
v 143.223999 -4.816568 3487.429932
vn -0.0216 -0.9997 -0.0125
vn 0.3757 -0.8779 -0.2970
vn -0.1726 -0.9849 -0.0087
vn -0.1068 -0.9943 0.0036
vn -0.1319 -0.9913 -0.0000
vn 0.2477 -0.9687 -0.0126
vn -0.0866 -0.9962 0.0019
vn -0.1258 -0.9903 0.0586
vn -0.1352 -0.9908 -0.0103
vn -0.1113 -0.9938 -0.0000
vn -0.1708 -0.9835 -0.0590
vn -0.1353 -0.9903 -0.0308
vn -0.0699 -0.9975 -0.0061
vn -0.1175 -0.9904 0.0724
vn -0.3033 -0.9490 0.0858
vn -0.0945 -0.9955 0.0008
vn -0.1098 -0.9940 -0.0024
vn 0.0803 -0.9865 0.1430
vn -0.1052 -0.9945 -0.0000
vn -0.2626 -0.9622 -0.0714
vn -0.0848 -0.9964 -0.0006
vn -0.0100 -0.9999 0.0132
vn 0.1834 -0.9827 -0.0257
vn -0.0795 -0.9968 0.0062
vn 0.3161 -0.9458 0.0745
vn -0.0419 -0.9982 0.0438
vn -0.0508 -0.9980 0.0378
vn -0.1548 -0.9850 -0.0763
vn -0.0904 -0.9957 -0.0191
vn -0.0415 -0.9990 0.0182
vn 0.0575 -0.9978 0.0328
vn -0.1054 -0.9944 0.0071
vn -0.1597 -0.9872 -0.0016
vn -0.1005 -0.9948 -0.0156
vn -0.1056 -0.9944 -0.0061
vn -0.0823 -0.9965 -0.0129
usemtl None
s off
f 1//1 3//1 2//1
f 4//2 5//2 6//2
f 7//3 6//3 5//3
f 8//4 9//4 10//4
f 11//5 13//5 12//5
f 13//6 14//6 12//6
f 1//7 14//7 7//7
f 15//8 16//8 11//8
f 8//9 10//9 17//9
f 17//10 10//10 11//10
f 18//11 19//11 14//11
f 15//12 11//12 20//12
f 14//13 19//13 21//13
f 5//14 4//14 7//14
f 2//15 22//15 1//15
f 11//16 12//16 23//16
f 23//17 20//17 11//17
f 24//18 10//18 25//18
f 14//19 13//19 4//19
f 26//20 27//20 28//20
f 14//21 4//21 6//21
f 1//22 18//22 14//22
f 18//23 1//23 22//23
f 20//24 16//24 15//24
f 29//25 16//25 20//25
f 30//26 10//26 9//26
f 30//27 25//27 10//27
f 14//28 28//28 27//28
f 14//29 21//29 28//29
f 31//30 20//30 32//30
f 31//31 29//31 20//31
f 14//32 27//32 23//32
f 14//33 6//33 7//33
f 16//34 33//34 11//34
f 11//35 33//35 17//35
f 14//36 23//36 12//36
