# Blender v2.79 (sub 0) OBJ File: ''
# www.blender.org
mtllib my_crack_surf1_250.mtl
o my_crack_surf1_250
v 144.595001 -5.501136 3719.639893
v 149.804993 -5.730183 3702.939941
v 191.899994 -10.150589 3620.229980
v 137.785004 -5.339161 3749.439941
v 128.852005 -3.538001 3874.969971
v 130.408997 -5.655163 3947.810059
v 191.899994 -10.150670 4113.270020
v 180.195999 -8.970808 4038.510010
v 170.949005 -7.610275 4081.580078
v 130.936005 -5.615430 4113.270020
v 147.369995 -6.732815 4017.149902
v 130.444000 -6.218340 3990.260010
v 151.440002 -6.058820 4113.270020
v 131.404999 -4.900751 4055.219971
v 130.878998 -7.558075 4023.949951
v 161.537994 -7.168446 4026.110107
v 128.964996 -3.835570 3928.709961
v 129.617996 -3.314439 3919.330078
v 154.951004 -5.708379 3678.860107
v 163.996002 -6.825156 3656.409912
v 171.972000 -7.912173 3640.770020
v 128.699005 -5.074364 3768.040039
v 185.921997 -9.716500 3624.739990
vn 0.1975 0.9791 0.0482
vn 0.1647 0.9858 0.0323
vn 0.2004 0.9794 0.0242
vn 0.1266 0.9919 -0.0042
vn 0.0299 0.9992 -0.0251
vn 0.0374 0.9993 -0.0044
vn 0.0216 0.9991 -0.0356
vn 0.0537 0.9949 -0.0854
vn -0.0042 0.9939 0.1105
vn -0.4851 0.3838 0.7858
vn 0.0962 0.9954 -0.0001
vn 0.1003 0.9950 0.0000
vn 0.0875 0.9961 0.0130
vn 0.0657 0.9978 -0.0096
vn -0.0334 0.9986 0.0401
vn 0.2631 0.9621 0.0718
vn 0.0338 0.9994 -0.0048
vn 0.9927 0.1196 -0.0177
vn 0.1809 0.9827 0.0395
vn 0.0854 0.9960 -0.0257
vn 0.1137 0.9935 -0.0036
vn 0.1006 0.9948 0.0132
vn -0.0003 0.9999 -0.0144
vn -0.0354 0.9892 -0.1422
vn 0.1417 0.9898 0.0130
usemtl None
s off
f 1//1 3//1 2//1
f 4//2 3//2 1//2
f 5//3 6//3 3//3
f 7//4 8//4 9//4
f 10//5 9//5 8//5
f 11//6 3//6 12//6
f 9//7 10//7 13//7
f 14//8 8//8 15//8
f 11//9 15//9 8//9
f 11//10 8//10 16//10
f 16//11 8//11 3//11
f 8//12 7//12 3//12
f 10//13 8//13 14//13
f 5//14 3//14 4//14
f 15//15 11//15 12//15
f 17//16 6//16 18//16
f 3//17 11//17 16//17
f 6//18 5//18 18//18
f 19//19 2//19 3//19
f 3//20 21//20 20//20
f 19//21 3//21 20//21
f 7//22 9//22 13//22
f 5//23 4//23 22//23
f 23//24 21//24 3//24
f 3//25 6//25 12//25
