# Blender v2.79 (sub 0) OBJ File: ''
# www.blender.org
mtllib my_crack_surf1_180.mtl
o my_crack_surf1_180
v 191.899994 -10.150670 4113.270020
v 185.707001 -10.017669 4105.040039
v 181.906998 -9.289927 4098.080078
v 151.440002 -6.058100 4113.270020
v 191.899994 -10.150605 3716.629883
v 128.800995 -4.887666 3842.100098
v 191.899994 -10.150656 4028.870117
v 130.444000 -6.217970 3990.260010
v 144.725006 -6.430567 3967.659912
v 130.408997 -5.656003 3947.810059
v 171.449997 -7.906179 3736.270020
v 155.910004 -5.939531 3752.830078
v 131.404999 -4.900751 4055.219971
v 130.878998 -7.557596 4023.949951
v 130.936005 -5.615640 4113.270020
v 140.856003 -5.312732 3816.169922
v 128.962997 -3.844600 3928.709961
v 129.610992 -3.359458 3919.300049
v 128.824997 -3.727521 3875.020020
v 129.001999 -4.442669 3859.929932
v 178.496994 -8.791457 3727.379883
vn 0.3757 -0.8779 -0.2970
vn -0.1233 -0.9917 -0.0364
vn -0.0831 -0.9965 -0.0000
vn -0.0358 -0.9993 -0.0132
vn 0.0430 -0.9866 0.1575
vn -0.1005 -0.9932 0.0595
vn -0.0492 -0.9951 0.0854
vn -0.0921 -0.9957 -0.0130
vn -0.0216 -0.9990 0.0381
vn -0.5419 -0.8058 -0.2387
vn -0.0393 -0.9985 -0.0392
vn -0.2861 -0.9557 -0.0690
vn -0.0858 -0.9963 -0.0000
vn -0.7982 -0.6021 0.0192
vn -0.1422 -0.9896 0.0195
vn 0.0342 -0.9961 -0.0812
vn -0.3900 -0.8872 0.2466
vn -0.1393 -0.9900 -0.0233
vn -0.1605 -0.9867 0.0264
vn -0.0590 -0.9969 0.0525
vn -0.1070 -0.9943 -0.0031
vn -0.0500 -0.9985 -0.0222
usemtl None
s off
f 1//1 2//1 3//1
f 4//2 3//2 2//2
f 5//3 7//3 6//3
f 8//4 10//4 9//4
f 5//5 12//5 11//5
f 2//6 1//6 4//6
f 13//7 14//7 7//7
f 15//8 13//8 7//8
f 4//9 15//9 7//9
f 5//10 6//10 16//10
f 14//11 8//11 7//11
f 17//12 18//12 10//12
f 7//13 1//13 3//13
f 19//14 20//14 18//14
f 7//15 18//15 20//15
f 7//16 10//16 18//16
f 7//17 9//17 10//17
f 16//18 12//18 5//18
f 7//19 20//19 6//19
f 5//20 11//20 21//20
f 7//21 3//21 4//21
f 8//22 9//22 7//22
